<?xml version="1.0" encoding="UTF-8" standalone="no"?>
<svg
   xmlns:dc="http://purl.org/dc/elements/1.1/"
   xmlns:cc="http://creativecommons.org/ns#"
   xmlns:rdf="http://www.w3.org/1999/02/22-rdf-syntax-ns#"
   xmlns:svg="http://www.w3.org/2000/svg"
   xmlns="http://www.w3.org/2000/svg"
   xmlns:sodipodi="http://sodipodi.sourceforge.net/DTD/sodipodi-0.dtd"
   xmlns:inkscape="http://www.inkscape.org/namespaces/inkscape"
   width="85.999893mm"
   height="40.053951mm"
   viewBox="0 0 85.999899 40.053951"
   version="1.1"
   id="svg974"
   inkscape:version="1.0.1 (c497b03c, 2020-09-10)"
   sodipodi:docname="badend_menu.svg">
  <defs
     id="defs968" />
  <sodipodi:namedview
     id="base"
     pagecolor="#ffffff"
     bordercolor="#666666"
     borderopacity="1.0"
     inkscape:pageopacity="0.0"
     inkscape:pageshadow="2"
     inkscape:zoom="1.2805867"
     inkscape:cx="72.784651"
     inkscape:cy="90.425884"
     inkscape:document-units="mm"
     inkscape:current-layer="layer1"
     inkscape:document-rotation="0"
     showgrid="false"
     fit-margin-top="0"
     fit-margin-left="0"
     fit-margin-right="0"
     fit-margin-bottom="0"
     inkscape:window-width="1440"
     inkscape:window-height="697"
     inkscape:window-x="0"
     inkscape:window-y="25"
     inkscape:window-maximized="0" />
  <metadata
     id="metadata971">
    <rdf:RDF>
      <cc:Work
         rdf:about="">
        <dc:format>image/svg+xml</dc:format>
        <dc:type
           rdf:resource="http://purl.org/dc/dcmitype/StillImage" />
        <dc:title />
      </cc:Work>
    </rdf:RDF>
  </metadata>
  <g
     inkscape:label="レイヤー 1"
     inkscape:groupmode="layer"
     id="layer1"
     transform="translate(72.100229,-111.81357)">
    <g
       id="text978"
       style="font-weight:600;font-size:22.57779999999999987px;line-height:1.25;font-family:'Hiragino Kaku Gothic Pro';-inkscape-font-specification:'Hiragino Kaku Gothic Pro, Semi-Bold';stroke-width:0.264583;fill:#502d16;fill-opacity:1" />
    <g
       aria-label="心の準備が出来た  今はその時ではない"
       id="text982"
       style="font-style:normal;font-variant:normal;font-weight:600;font-stretch:normal;font-size:14.11110000000000042px;line-height:1.25;font-family:'Hiragino Kaku Gothic Pro';-inkscape-font-specification:'Hiragino Kaku Gothic Pro, Semi-Bold';font-variant-ligatures:normal;font-variant-caps:normal;font-variant-numeric:normal;font-variant-east-asian:normal;fill:none;fill-opacity:1;stroke:#502d16;stroke-width:0.264583;stroke-opacity:1"
       transform="matrix(1.0117635,0,0,0.72825354,0.76752617,30.434556)">
      <path
         id="rect2305"
         style="fill:none;fill-opacity:1;fill-rule:evenodd;stroke:#502d16;stroke-width:1.11706;stroke-linecap:round;stroke-linejoin:round;stroke-miterlimit:4;stroke-dasharray:none;stroke-opacity:1"
         d="m -71.462012,112.30397 h 83.882938 v 53.88295 h -83.882938 z" />
    </g>
    <g
       aria-label="CONTINUE"
       id="text1144-9"
       style="font-style:normal;font-variant:normal;font-weight:600;font-stretch:normal;font-size:8.46663999999999994px;line-height:1.25;font-family:'Hiragino Kaku Gothic Pro';-inkscape-font-specification:'Hiragino Kaku Gothic Pro, Semi-Bold';font-variant-ligatures:normal;font-variant-caps:normal;font-variant-numeric:normal;font-variant-east-asian:normal;fill:#502d16;stroke-width:0.018522;fill-opacity:1">
      <path
         d="m -33.513877,124.76011 c -0.06773,0.38946 -0.135466,0.56726 -0.279399,0.77893 -0.270933,0.39793 -0.778931,0.62653 -1.371596,0.62653 -1.18533,0 -1.930394,-0.9652 -1.930394,-2.51459 0,-1.55787 0.728131,-2.49766 1.930394,-2.49766 0.524932,0 0.948264,0.1778 1.23613,0.52493 0.169332,0.19473 0.245532,0.3556 0.364065,0.72813 l 1.176863,-0.27093 c -0.101599,-0.32173 -0.160866,-0.47413 -0.262466,-0.65193 -0.211666,-0.37254 -0.516465,-0.6858 -0.897464,-0.92287 -0.465665,-0.2794 -0.965197,-0.4064 -1.625595,-0.4064 -0.846664,0 -1.608661,0.28787 -2.11666,0.80433 -0.634998,0.635 -0.990597,1.61713 -0.990597,2.73473 0,1.08373 0.330199,2.04046 0.922864,2.65852 0.516465,0.5334 1.253063,0.8128 2.175927,0.8128 1.015997,0 1.828794,-0.3302 2.311393,-0.92286 0.253999,-0.3302 0.406398,-0.6604 0.567265,-1.27 z"
         style="fill:#502d16;stroke-width:0.018522;fill-opacity:1"
         id="path1244" />
      <path
         d="m -28.417224,120.15425 c -0.897464,0 -1.600195,0.27094 -2.184393,0.84667 -0.626532,0.6096 -0.965197,1.54939 -0.965197,2.64159 0,2.15053 1.236129,3.53059 3.158057,3.53059 1.921927,0 3.166523,-1.38853 3.166523,-3.53059 0,-1.10066 -0.330199,-2.02353 -0.948264,-2.64159 -0.575731,-0.57573 -1.295396,-0.84667 -2.226726,-0.84667 z m 0.0254,6.01132 c -0.516465,0 -0.965197,-0.1778 -1.312329,-0.51647 -0.440266,-0.44026 -0.685798,-1.15146 -0.685798,-1.99812 0,-1.53247 0.770464,-2.49766 1.98966,-2.49766 0.507999,0 0.956731,0.1778 1.303863,0.51646 0.431799,0.4318 0.668865,1.1176 0.668865,1.97273 0,1.55786 -0.753531,2.52306 -1.964261,2.52306 z"
         style="fill:#502d16;stroke-width:0.018522;fill-opacity:1"
         id="path1246" />
      <path
         d="m -18.503715,127.02917 c -0.0508,-0.29634 -0.06773,-0.61807 -0.06773,-1.0922 v -4.47885 c 0,-0.51647 0.01693,-0.82973 0.06773,-1.1684 h -1.236129 c 0.0508,0.32173 0.06773,0.66886 0.06773,1.1684 v 2.84479 c 0,0.3556 0.0254,0.8636 0.05927,1.19379 -0.186267,-0.33866 -0.457199,-0.77893 -0.660398,-1.08373 l -2.14206,-3.22579 c -0.287866,-0.43179 -0.440266,-0.68579 -0.516466,-0.89746 h -1.320795 c 0.0508,0.34713 0.06773,0.65193 0.06773,1.0922 v 4.36878 c 0,0.57574 -0.0254,0.99907 -0.06773,1.27847 h 1.236129 c -0.04233,-0.3048 -0.06773,-0.70273 -0.06773,-1.27 v -2.77706 c 0,-0.19473 -0.01693,-0.57573 -0.0254,-0.7366 -0.0254,-0.31326 -0.0254,-0.31326 -0.03387,-0.43179 0.2032,0.39793 0.414866,0.76199 0.575732,1.01599 l 2.184393,3.29353 c 0.245533,0.37253 0.397932,0.61806 0.541865,0.90593 z"
         style="fill:#502d16;stroke-width:0.018522;fill-opacity:1"
         id="path1248" />
      <path
         d="m -14.335481,121.30572 h 1.05833 c 0.609598,0 0.93133,0.0169 1.244596,0.0593 v -1.13453 c -0.321732,0.0423 -0.634998,0.0593 -1.244596,0.0593 h -3.35279 c -0.482598,0 -0.846664,-0.0169 -1.151463,-0.0593 v 1.13453 c 0.296333,-0.0423 0.660398,-0.0593 1.15993,-0.0593 h 1.142996 v 4.62278 c 0,0.4572 -0.01693,0.74507 -0.06773,1.10067 h 1.278463 c -0.0508,-0.34714 -0.06773,-0.64347 -0.06773,-1.10067 z"
         style="fill:#502d16;stroke-width:0.018522;fill-opacity:1"
         id="path1250" />
      <path
         d="m -11.304556,120.28972 c 0.0508,0.33867 0.06773,0.56727 0.06773,1.0922 v 4.55505 c 0,0.49953 -0.01693,0.77046 -0.06773,1.0922 h 1.286929 c -0.0508,-0.32174 -0.06773,-0.59267 -0.06773,-1.0922 v -4.55505 c 0,-0.508 0.01693,-0.77047 0.06773,-1.0922 z"
         style="fill:#502d16;stroke-width:0.018522;fill-opacity:1"
         id="path1252" />
      <path
         d="m -3.0752459,127.02917 c -0.0508,-0.29634 -0.067733,-0.61807 -0.067733,-1.0922 v -4.47885 c 0,-0.51647 0.016933,-0.82973 0.067733,-1.1684 h -1.2361295 c 0.0508,0.32173 0.067733,0.66886 0.067733,1.1684 v 2.84479 c 0,0.3556 0.0254,0.8636 0.059266,1.19379 -0.186266,-0.33866 -0.4571985,-0.77893 -0.6603979,-1.08373 l -2.1420601,-3.22579 c -0.2878657,-0.43179 -0.4402653,-0.68579 -0.516465,-0.89746 h -1.3207959 c 0.0508,0.34713 0.067733,0.65193 0.067733,1.0922 v 4.36878 c 0,0.57574 -0.0254,0.99907 -0.067733,1.27847 h 1.2361295 c -0.042333,-0.3048 -0.067733,-0.70273 -0.067733,-1.27 v -2.77706 c 0,-0.19473 -0.016933,-0.57573 -0.0254,-0.7366 -0.0254,-0.31326 -0.0254,-0.31326 -0.033866,-0.43179 0.2031993,0.39793 0.4148653,0.76199 0.5757315,1.01599 l 2.1843933,3.29353 c 0.2455325,0.37253 0.3979321,0.61806 0.5418649,0.90593 z"
         style="fill:#502d16;stroke-width:0.018522;fill-opacity:1"
         id="path1254" />
      <path
         d="m 2.684716,120.28972 c 0.0508,0.31327 0.067733,0.61807 0.067733,1.15993 v 2.98026 c 0,1.15146 -0.5841982,1.75259 -1.718728,1.75259 -1.14299646,0 -1.73566129,-0.60113 -1.73566129,-1.74413 v -2.98872 c 0,-0.55033 0.0169333,-0.87206 0.0677331,-1.15993 H -1.8957365 c 0.0508,0.3048 0.067733,0.635 0.067733,1.15993 v 2.98872 c 0,0.84667 0.2031994,1.48167 0.6349981,1.94733 0.46566519,0.508 1.24459611,0.79587 2.1843932,0.79587 1.8457276,0 2.8871244,-0.98213 2.8871244,-2.73473 v -3.00566 c 0,-0.53339 0.016933,-0.83819 0.067733,-1.15146 z"
         style="fill:#502d16;stroke-width:0.018522;fill-opacity:1"
         id="path1256" />
      <path
         d="m 9.941685,125.96237 c -0.3640655,0.0423 -0.6095981,0.0593 -1.0837299,0.0593 H 6.3179629 v -1.99813 h 2.0658603 c 0.5249317,0 0.753531,0.008 1.1006632,0.0593 v -1.10913 c -0.3725321,0.0423 -0.6603979,0.0593 -1.1006632,0.0593 H 6.3264296 v -1.74413 H 8.764822 c 0.4995318,0 0.7704643,0.0169 1.0921966,0.0593 v -1.1176 c -0.3894654,0.0423 -0.6688646,0.0593 -1.0921966,0.0593 H 6.2078966 c -0.5164651,0 -0.7365977,-0.008 -1.0752634,-0.0254 0.0508,0.39793 0.067733,0.65193 0.067733,1.0922 v 4.58045 c 0,0.49953 -0.016933,0.77893 -0.067733,1.1176 0.3386657,-0.0169 0.567265,-0.0254 1.0752634,-0.0254 h 2.6415918 c 0.5164651,0 0.7873976,0.0169 1.0921966,0.0593 z"
         style="fill:#502d16;stroke-width:0.018522;fill-opacity:1"
         id="path1258" />
    </g>
    <g
       aria-label="END"
       id="text1148-7"
       style="font-style:normal;font-variant:normal;font-weight:600;font-stretch:normal;font-size:8.46663999999999994px;line-height:1.25;font-family:'Hiragino Kaku Gothic Pro';-inkscape-font-specification:'Hiragino Kaku Gothic Pro, Semi-Bold';font-variant-ligatures:normal;font-variant-caps:normal;font-variant-numeric:normal;font-variant-east-asian:normal;fill:#502d16;stroke-width:0.018522;fill-opacity:1">
      <path
         d="m -32.817436,140.98803 c -0.364065,0.0423 -0.609598,0.0593 -1.08373,0.0593 h -2.539992 v -1.99813 h 2.06586 c 0.524932,0 0.753531,0.008 1.100664,0.0593 v -1.10913 c -0.372533,0.0423 -0.660398,0.0593 -1.100664,0.0593 h -2.057393 v -1.74413 h 2.438392 c 0.499532,0 0.770464,0.0169 1.092197,0.0593 v -1.1176 c -0.389466,0.0423 -0.668865,0.0593 -1.092197,0.0593 h -2.556925 c -0.516465,0 -0.736598,-0.008 -1.075264,-0.0254 0.0508,0.39793 0.06773,0.65193 0.06773,1.09219 v 4.58045 c 0,0.49954 -0.01693,0.77894 -0.06773,1.1176 0.338666,-0.0169 0.567265,-0.0254 1.075264,-0.0254 h 2.641591 c 0.516466,0 0.787398,0.0169 1.092197,0.0593 z"
         style="fill:#502d16;stroke-width:0.018522;fill-opacity:1"
         id="path1261" />
      <path
         d="m -26.07336,142.05483 c -0.0508,-0.29633 -0.06773,-0.61806 -0.06773,-1.0922 v -4.47885 c 0,-0.51646 0.01693,-0.82973 0.06773,-1.16839 h -1.236129 c 0.0508,0.32173 0.06773,0.66886 0.06773,1.16839 v 2.84479 c 0,0.3556 0.0254,0.8636 0.05927,1.1938 -0.186266,-0.33867 -0.457198,-0.77893 -0.660398,-1.08373 l -2.14206,-3.22579 c -0.287866,-0.4318 -0.440265,-0.6858 -0.516465,-0.89746 h -1.320796 c 0.0508,0.34713 0.06773,0.65193 0.06773,1.09219 v 4.36879 c 0,0.57573 -0.0254,0.99906 -0.06773,1.27846 h 1.23613 c -0.04233,-0.3048 -0.06773,-0.70273 -0.06773,-1.26999 v -2.77706 c 0,-0.19474 -0.01693,-0.57573 -0.0254,-0.7366 -0.0254,-0.31327 -0.0254,-0.31327 -0.03387,-0.4318 0.203199,0.39793 0.414865,0.762 0.575732,1.016 l 2.184393,3.29352 c 0.245532,0.37253 0.397932,0.61807 0.541865,0.90593 z"
         style="fill:#502d16;stroke-width:0.018522;fill-opacity:1"
         id="path1263" />
      <path
         d="m -24.809185,140.96263 c 0,0.508 -0.01693,0.77047 -0.06773,1.1176 0.347132,-0.0169 0.558798,-0.0254 1.075264,-0.0254 h 1.540928 c 0.999064,0 1.676395,-0.2286 2.21826,-0.7366 0.660398,-0.62653 0.999063,-1.54092 0.999063,-2.69239 0,-1.10066 -0.321732,-1.98119 -0.939797,-2.56539 -0.541865,-0.52493 -1.227662,-0.74506 -2.285993,-0.74506 h -1.532461 c -0.533399,0 -0.736598,-0.008 -1.075264,-0.0254 0.0508,0.37253 0.06773,0.62653 0.06773,1.10066 z m 1.126064,0.0931 v -4.74132 h 1.354662 c 0.736598,0 1.176863,0.14393 1.523995,0.508 0.389466,0.4064 0.584198,1.00753 0.584198,1.81186 0,0.79586 -0.211666,1.44779 -0.618064,1.87959 -0.355599,0.381 -0.804331,0.54187 -1.498596,0.54187 z"
         style="fill:#502d16;stroke-width:0.018522;fill-opacity:1"
         id="path1265" />
    </g>
  </g>
</svg>
