<?xml version="1.0" encoding="UTF-8" standalone="no"?>
<svg
   xmlns:dc="http://purl.org/dc/elements/1.1/"
   xmlns:cc="http://creativecommons.org/ns#"
   xmlns:rdf="http://www.w3.org/1999/02/22-rdf-syntax-ns#"
   xmlns:svg="http://www.w3.org/2000/svg"
   xmlns="http://www.w3.org/2000/svg"
   xmlns:sodipodi="http://sodipodi.sourceforge.net/DTD/sodipodi-0.dtd"
   xmlns:inkscape="http://www.inkscape.org/namespaces/inkscape"
   width="85.999893mm"
   height="40.053951mm"
   viewBox="0 0 85.999899 40.053951"
   version="1.1"
   id="svg974"
   inkscape:version="1.0.1 (c497b03c, 2020-09-10)"
   sodipodi:docname="badend_menu_jp.svg">
  <defs
     id="defs968" />
  <sodipodi:namedview
     id="base"
     pagecolor="#ffffff"
     bordercolor="#666666"
     borderopacity="1.0"
     inkscape:pageopacity="0.0"
     inkscape:pageshadow="2"
     inkscape:zoom="1.2805867"
     inkscape:cx="72.784651"
     inkscape:cy="90.425884"
     inkscape:document-units="mm"
     inkscape:current-layer="layer1"
     inkscape:document-rotation="0"
     showgrid="false"
     fit-margin-top="0"
     fit-margin-left="0"
     fit-margin-right="0"
     fit-margin-bottom="0"
     inkscape:window-width="1440"
     inkscape:window-height="697"
     inkscape:window-x="0"
     inkscape:window-y="25"
     inkscape:window-maximized="0" />
  <metadata
     id="metadata971">
    <rdf:RDF>
      <cc:Work
         rdf:about="">
        <dc:format>image/svg+xml</dc:format>
        <dc:type
           rdf:resource="http://purl.org/dc/dcmitype/StillImage" />
        <dc:title></dc:title>
      </cc:Work>
    </rdf:RDF>
  </metadata>
  <g
     inkscape:label="レイヤー 1"
     inkscape:groupmode="layer"
     id="layer1"
     transform="translate(72.100229,-111.81357)">
    <g
       id="text978"
       style="font-weight:600;font-size:22.57779999999999987px;line-height:1.25;font-family:'Hiragino Kaku Gothic Pro';-inkscape-font-specification:'Hiragino Kaku Gothic Pro, Semi-Bold';stroke-width:0.264583;fill:#502d16;fill-opacity:1" />
    <g
       aria-label="心の準備が出来た  今はその時ではない"
       id="text982"
       style="font-style:normal;font-variant:normal;font-weight:600;font-stretch:normal;font-size:14.11110000000000042px;line-height:1.25;font-family:'Hiragino Kaku Gothic Pro';-inkscape-font-specification:'Hiragino Kaku Gothic Pro, Semi-Bold';font-variant-ligatures:normal;font-variant-caps:normal;font-variant-numeric:normal;font-variant-east-asian:normal;fill:none;fill-opacity:1;stroke:#502d16;stroke-width:0.264583;stroke-opacity:1"
       transform="matrix(1.0117635,0,0,0.72825354,0.76752617,30.434556)">
      <path
         id="rect2305"
         style="fill:none;fill-opacity:1;fill-rule:evenodd;stroke:#502d16;stroke-width:1.11706;stroke-linecap:round;stroke-linejoin:round;stroke-miterlimit:4;stroke-dasharray:none;stroke-opacity:1"
         d="m -71.462012,112.30397 h 83.882938 v 53.88295 h -83.882938 z" />
    </g>
    <g
       aria-label="もう1度
終わる"
       id="text4536"
       style="font-weight:600;font-size:8.46667px;line-height:1.25;font-family:'Hiragino Kaku Gothic Pro';-inkscape-font-specification:'Hiragino Kaku Gothic Pro, Semi-Bold';fill:#502d16;fill-opacity:1;stroke-width:0.264583">
      <path
         d="m -38.988378,123.55854 c 0.118533,0.008 0.143933,0.008 0.321733,0.0508 0.338667,0.0762 0.668867,0.127 1.176868,0.19473 -0.03387,0.28787 -0.04233,0.49953 -0.04233,0.71967 0,1.36313 0.838201,2.09973 2.379134,2.09973 0.795867,0 1.430868,-0.18627 1.913468,-0.5588 0.516467,-0.39793 0.8128,-0.98213 0.8128,-1.58327 0,-0.38946 -0.143933,-0.87206 -0.364067,-1.2446 -0.09313,-0.16086 -0.186266,-0.28786 -0.397933,-0.5334 -0.397934,0.14394 -0.575734,0.1778 -1.049867,0.21167 0.508,0.46567 0.762,0.9398 0.762,1.43087 0,0.82973 -0.618067,1.30386 -1.693334,1.30386 -0.465667,0 -0.804334,-0.1016 -1.049867,-0.31326 -0.220133,-0.19474 -0.313267,-0.4572 -0.313267,-0.87207 0,-0.1524 0.01693,-0.37253 0.04233,-0.60113 0.3302,0.0169 0.4064,0.0169 0.541866,0.0169 0.397934,0 0.897468,-0.0339 1.270001,-0.0762 0.143933,-0.0254 0.169333,-0.0254 0.254,-0.0254 l 0.0254,-0.97367 c -0.4064,0.11007 -1.016,0.16934 -1.617134,0.16934 -0.09313,0 -0.160867,0 -0.414867,-0.008 0.0508,-0.4064 0.0762,-0.57573 0.160867,-1.1938 0.364067,0.008 0.440267,0.008 0.524934,0.008 0.3048,0 0.575733,-0.0169 1.185333,-0.0677 0.186267,-0.0169 0.2286,-0.0254 0.338667,-0.0339 l 0.03387,-0.9906 c -0.4826,0.11854 -0.973667,0.16087 -1.930401,0.1778 0.1524,-1.0414 0.1778,-1.1684 0.270934,-1.43086 l -1.126068,-0.1016 c 0.0085,0.0423 0.0085,0.0593 0.0085,0.0847 0,0.254 -0.0508,0.69427 -0.169333,1.40547 -0.575734,-0.0508 -1.176867,-0.16933 -1.532468,-0.3048 l -0.08467,0.93133 c 0.127,0.0254 0.169333,0.0339 0.287866,0.0593 0.575734,0.127 0.711201,0.14393 1.210734,0.21167 -0.04233,0.31326 -0.118533,0.88053 -0.1524,1.18533 -0.8636,-0.11853 -1.100667,-0.16933 -1.490134,-0.32173 z"
         style="fill:#502d16;fill-opacity:1;stroke-width:0.264583"
         id="path4540" />
      <path
         d="m -29.277108,120.35813 c 1.244601,0.31327 2.413001,0.46567 3.953935,0.5334 l 0.143934,-1.0414 c -0.1016,0 -0.194734,0 -0.237067,0 -1.337734,0 -2.590801,-0.1778 -3.530601,-0.49106 z m -0.745066,2.82787 c 0.702733,-0.28786 2.396067,-0.5842 3.352801,-0.5842 0.880534,0 1.329267,0.32174 1.329267,0.95674 0,0.5842 -0.364067,1.1176 -1.032934,1.49013 -0.651933,0.36407 -1.566334,0.60113 -2.548467,0.64347 0.262466,0.39793 0.3556,0.6096 0.440266,1.05833 1.380068,-0.22013 1.972735,-0.39793 2.667002,-0.79587 1.024467,-0.5842 1.608667,-1.46473 1.608667,-2.42993 0,-0.66887 -0.296334,-1.23613 -0.821267,-1.5494 -0.389467,-0.23707 -0.914401,-0.34714 -1.600201,-0.34714 -0.719667,0 -1.456267,0.0762 -2.658534,0.28787 -0.762001,0.13547 -0.762001,0.13547 -0.982134,0.14393 z"
         style="fill:#502d16;fill-opacity:1;stroke-width:0.264583"
         id="path4542" />
      <path
         d="m -19.142503,126.37794 c -0.0508,-0.34714 -0.06773,-0.65194 -0.06773,-1.10067 v -4.28414 c 0,-0.508 0.01693,-0.89746 0.06773,-1.397 -0.304801,0.0339 -0.431801,0.0423 -0.863601,0.0423 h -0.778933 c -0.397934,0 -0.584201,-0.008 -0.846667,-0.0508 v 1.07526 c 0.313266,-0.0339 0.5588,-0.0508 0.872067,-0.0508 h 0.4064 v 4.66514 c 0,0.44027 -0.01693,0.77047 -0.06773,1.10067 z"
         style="fill:#502d16;fill-opacity:1;stroke-width:0.264583"
         id="path4544" />
      <path
         d="m -13.82636,121.92447 v 0.79587 c 0,0.1778 -0.01693,0.38946 -0.03387,0.5334 0.1524,-0.008 0.262467,-0.008 0.592667,-0.008 h 2.353735 c 0.338666,0 0.3556,0 0.550333,0.008 -0.01693,-0.14394 -0.0254,-0.32174 -0.0254,-0.5334 v -0.79587 h 0.8128004 c 0.3894668,0 0.5588002,0.008 0.7535336,0.0339 v -0.8382 c -0.2201334,0.0339 -0.4064001,0.0423 -0.7535336,0.0423 h -0.8128004 v -0.59267 h 0.6519337 c 0.3979334,0 0.6096002,0.008 0.8890003,0.0339 v -0.88054 c -0.2540001,0.0339 -0.5503335,0.0508 -1.0244671,0.0508 h -2.0997339 v -0.1778 c 0,-0.21166 0.0085,-0.34713 0.04233,-0.49106 h -1.007534 c 0.0254,0.16086 0.04233,0.29633 0.04233,0.4826 v 0.18626 h -2.108201 c -0.364067,0 -0.6604,-0.0169 -0.956734,-0.0423 0.0254,0.3048 0.03387,0.52493 0.03387,1.15147 0,2.0066 -0.05927,2.93793 -0.245534,3.81847 -0.110066,0.5588 -0.245533,0.93133 -0.524933,1.4478 0.296333,0.24553 0.474133,0.44026 0.7112,0.77893 0.381,-0.6858 0.567267,-1.2192 0.719667,-2.01507 0.143934,-0.77046 0.220134,-1.69333 0.237067,-2.98873 z m -1.1938,-0.762 v -0.59267 h 1.1938 v 0.59267 z m 2.0828,0 v -0.59267 h 1.659468 v 0.59267 z m 0,0.762 h 1.659468 v 0.5842 h -1.659468 z m 2.777068,1.778 c -0.2032,0.0169 -0.3556,0.0254 -0.702733,0.0254 h -2.954868 c -0.448734,0 -0.694267,-0.008 -0.905934,-0.0423 v 0.79586 c 0.1778,-0.0169 0.3048,-0.0254 0.601134,-0.0339 0.423333,0.5842 0.677333,0.8382 1.151467,1.20226 -0.702734,0.26247 -1.354668,0.39794 -2.421468,0.47414 0.194733,0.37253 0.262467,0.55033 0.3302,0.87206 1.286934,-0.19473 2.015068,-0.4064 2.895601,-0.82973 0.787401,0.41487 1.634068,0.64347 3.0564682,0.82127 0.093133,-0.37254 0.1947334,-0.64347 0.3556002,-0.95674 -1.0329338,-0.0169 -1.7695344,-0.13546 -2.5061344,-0.39793 0.508,-0.34713 0.9398,-0.7366 1.3970006,-1.27 0.0762,-0.0847 0.084667,-0.0931 0.1608667,-0.16933 z m -0.905934,0.74507 c -0.381,0.36406 -0.601133,0.5334 -1.049867,0.79586 -0.4572,-0.27093 -0.728133,-0.4826 -0.982133,-0.79586 z"
         style="fill:#502d16;fill-opacity:1;stroke-width:0.264583"
         id="path4546" />
      <path
         d="m -36.321377,138.92134 c 0.135467,0.21166 0.160867,0.2794 0.2286,0.47413 0.778934,-0.31327 1.371601,-0.65193 2.023534,-1.17687 0.592667,0.46567 1.117601,0.77047 2.057401,1.17687 0.1524,-0.38947 0.270933,-0.60113 0.508,-0.89747 -0.8636,-0.2794 -1.3462,-0.508 -1.888067,-0.889 0.381,-0.39793 0.592667,-0.67733 0.948267,-1.2954 0.220133,-0.36406 0.338667,-0.5588 0.3556,-0.60113 l -0.423333,-0.49954 c -0.194734,0.0339 -0.364067,0.0423 -0.745067,0.0423 h -1.058334 c 0.1778,-0.32174 0.270933,-0.49954 0.296333,-0.52494 l -0.922867,-0.2794 c -0.0508,0.26247 -0.270933,0.7112 -0.5334,1.08374 -0.347133,0.508 -0.7112,0.87207 -1.1684,1.1684 0.2286,0.19473 0.397933,0.4064 0.550333,0.7112 0.4064,-0.31327 0.541867,-0.44027 0.7366,-0.65193 0.2286,0.3556 0.397934,0.57573 0.660401,0.8636 -0.406401,0.3048 -0.931334,0.60113 -1.430868,0.80433 -0.160866,-0.51647 -0.270933,-0.82127 -0.508,-1.32927 l -0.626533,0.28787 c 0.127,0.2794 0.160866,0.381 0.245533,0.635 -0.3048,0.0339 -0.491067,0.0423 -0.922867,0.0677 0.440267,-0.55033 0.956734,-1.2954 1.312334,-1.86266 0.1524,-0.254 0.220133,-0.3556 0.287867,-0.44874 l -0.753534,-0.4064 c -0.09313,0.27094 -0.347133,0.7366 -0.8128,1.45627 -0.118534,-0.1524 -0.160867,-0.22013 -0.321734,-0.41487 0.237067,-0.3556 0.4318,-0.7112 0.804334,-1.45627 0.05927,-0.11853 0.0762,-0.16086 0.127,-0.2286 l -0.829734,-0.3048 c -0.06773,0.33867 -0.3048,0.85514 -0.618067,1.38007 -0.143933,-0.1524 -0.143933,-0.1524 -0.287866,-0.3048 l -0.448734,0.7112 c 0.381,0.37254 0.753534,0.79587 1.126067,1.28694 -0.194733,0.26246 -0.2794,0.37253 -0.474133,0.6096 l -0.08467,0.008 h -0.160867 c -0.143933,0 -0.220133,-0.008 -0.423333,-0.0169 l 0.09313,0.85513 c 0.1524,-0.0254 0.211667,-0.0254 0.499534,-0.0423 0.110066,-0.008 0.465666,-0.0339 0.778933,-0.0593 v 2.5908 c 0,0.37254 -0.01693,0.61807 -0.0508,0.89747 h 0.914401 c -0.04233,-0.254 -0.0508,-0.4572 -0.0508,-0.889 v -2.67547 c 0.110066,-0.008 0.118533,-0.008 0.499533,-0.0593 0.03387,0.11853 0.0508,0.21166 0.09313,0.39793 z m 3.039535,-2.8956 c -0.296334,0.51646 -0.448734,0.71966 -0.770467,1.03293 -0.364067,-0.34713 -0.465667,-0.47413 -0.762001,-0.94827 0.0254,-0.0339 0.0254,-0.0508 0.0508,-0.0847 z m -5.918203,3.21733 c 0,0.44873 -0.01693,0.74507 -0.09313,1.26153 -0.05927,0.44874 -0.1016,0.62654 -0.2286,1.03294 l 0.778933,0.37253 c 0.194734,-0.84667 0.254,-1.38853 0.296334,-2.54 z m 2.116668,0.16933 c 0.135466,0.6604 0.2286,1.38007 0.262466,2.0574 l 0.728134,-0.21166 c -0.143933,-1.13454 -0.169333,-1.28694 -0.338667,-2.01507 z m 4.504268,0.42334 c -0.635,-0.39794 -1.202267,-0.67734 -2.099734,-1.0414 l -0.491067,0.72813 c 0.778934,0.3048 1.447801,0.65193 2.133601,1.12607 z m 0.4064,1.64253 c -1.388534,-0.5842 -2.074334,-0.82127 -3.302001,-1.15147 l -0.423333,0.8382 c 1.515533,0.37254 2.319867,0.6604 3.352801,1.1938 z"
         style="fill:#502d16;fill-opacity:1;stroke-width:0.264583"
         id="path4548" />
      <path
         d="m -30.530175,140.58927 c 0.110067,-0.16933 0.347134,-0.4318 0.651934,-0.72813 0.254,-0.24554 0.313267,-0.31327 0.372533,-0.39794 h 0.01693 c -0.01693,0.16934 -0.01693,0.26247 -0.01693,0.49954 v 0.75353 c 0,0.85513 -0.0085,1.10067 -0.0508,1.35467 h 1.100667 c -0.04233,-0.37254 -0.06773,-1.3208 -0.06773,-2.53154 l 0.0085,-0.88053 c 0.931333,-0.84667 1.761067,-1.27847 2.463801,-1.27847 0.889,0 1.4478,0.56727 1.4478,1.4732 0,1.03294 -0.7112,1.7526 -1.7272,1.7526 -0.508001,0 -1.032934,-0.11006 -1.507068,-0.31326 0.135467,0.46566 0.160867,0.65193 0.160867,1.10066 0.4318,0.127 0.829734,0.18627 1.261534,0.18627 0.575734,0 1.075267,-0.11007 1.507067,-0.32173 0.838201,-0.4318 1.346201,-1.32927 1.346201,-2.39607 0,-0.6858 -0.2286,-1.30387 -0.651934,-1.74413 -0.423333,-0.4318 -1.0414,-0.69427 -1.651001,-0.69427 -0.829733,0 -1.515533,0.26247 -2.4384,0.93133 -0.110067,0.0762 -0.169334,0.127 -0.203201,0.16087 l -0.01693,0.008 c 0.0085,-0.0254 0.01693,-0.21167 0.03387,-0.57574 0.3048,-0.381 0.364067,-0.44873 0.4826,-0.55033 l -0.321733,-0.34713 c -0.04233,0.0254 -0.05927,0.0254 -0.118534,0.0423 0,-0.0847 0,-0.0847 0,-0.1524 0.01693,-0.23707 0.01693,-0.23707 0.0254,-0.39793 0.03387,-0.58421 0.03387,-0.59267 0.08467,-0.81281 l -1.092201,-0.008 c 0.0254,0.16933 0.03387,0.23706 0.03387,0.37253 0,0.008 0,0.0423 0,0.0847 0,0.0762 -0.0085,0.19473 -0.0085,0.3556 0,0.3048 -0.0085,0.41487 -0.0254,0.635 -0.474133,0.0339 -0.9398,0.0593 -1.0922,0.0593 -0.0762,0 -0.143933,-0.008 -0.2794,-0.0169 l 0.05927,0.95674 c 0.262466,-0.0508 0.262466,-0.0508 1.286933,-0.127 -0.01693,0.69426 -0.01693,0.70273 -0.03387,1.2192 -1.007534,0.93133 -1.337734,1.2192 -1.532468,1.35466 z"
         style="fill:#502d16;fill-opacity:1;stroke-width:0.264583"
         id="path4550" />
      <path
         d="m -19.599704,138.10854 c 0.135467,-0.0762 0.135467,-0.0762 0.347134,-0.22014 0.169333,-0.11006 0.778933,-0.56726 0.931333,-0.69426 0.287867,-0.24554 0.905934,-0.79587 1.329268,-1.18534 0.237066,-0.22013 0.296333,-0.27093 0.440267,-0.34713 l -0.524934,-0.74507 c -0.135467,0.0677 -0.2286,0.0847 -0.524934,0.11007 -0.821267,0.0593 -1.8542,0.1016 -2.573867,0.1016 -0.465667,0 -0.711201,-0.0169 -0.999067,-0.0508 l 0.04233,1.016 c 0.160867,-0.0254 0.220133,-0.0339 0.4064,-0.0423 1.532467,-0.0677 2.074334,-0.1016 2.396068,-0.14394 l 0.0085,0.008 c -0.0508,0.0508 -0.135466,0.13547 -0.1524,0.1524 -0.643466,0.65193 -1.744134,1.6002 -2.531534,2.20133 -0.5588,0.42334 -0.897467,0.65194 -1.1938,0.79587 l 0.575733,0.9144 c 1.016001,-0.92287 2.252134,-1.4224 3.488268,-1.4224 1.024467,0 1.676401,0.4318 1.676401,1.0922 0,0.60113 -0.3048,0.9652 -1.007534,1.22767 -0.127,-0.36407 -0.220133,-0.55034 -0.389467,-0.762 -0.3556,-0.44874 -0.872067,-0.69427 -1.464734,-0.69427 -0.846667,0 -1.456267,0.508 -1.456267,1.21073 0,0.381 0.186267,0.7366 0.508,0.97367 0.338667,0.254 0.931334,0.38947 1.642534,0.38947 0.778934,0 1.498601,-0.16934 2.048935,-0.4826 0.753533,-0.42334 1.151467,-1.0668 1.151467,-1.87114 0,-1.15993 -0.931334,-1.905 -2.379135,-1.905 -0.635,0 -1.007533,0.0847 -1.778,0.38947 z m 1.219201,3.01413 c -0.237067,0.0339 -0.2794,0.0339 -0.440267,0.0339 -0.626534,0 -1.007534,-0.19474 -1.007534,-0.5334 0,-0.23707 0.194734,-0.38947 0.499534,-0.38947 0.474133,0 0.795867,0.3048 0.948267,0.889 z"
         style="fill:#502d16;fill-opacity:1;stroke-width:0.264583"
         id="path4552" />
    </g>
  </g>
</svg>
