<?xml version="1.0" encoding="UTF-8" standalone="no"?>
<svg
   xmlns:dc="http://purl.org/dc/elements/1.1/"
   xmlns:cc="http://creativecommons.org/ns#"
   xmlns:rdf="http://www.w3.org/1999/02/22-rdf-syntax-ns#"
   xmlns:svg="http://www.w3.org/2000/svg"
   xmlns="http://www.w3.org/2000/svg"
   xmlns:sodipodi="http://sodipodi.sourceforge.net/DTD/sodipodi-0.dtd"
   xmlns:inkscape="http://www.inkscape.org/namespaces/inkscape"
   width="85.76667mm"
   height="11.836399mm"
   viewBox="0 0 85.76667 11.836399"
   version="1.1"
   id="svg8"
   inkscape:version="1.0.1 (c497b03c, 2020-09-10)"
   sodipodi:docname="badend_title_jp.svg">
  <defs
     id="defs2" />
  <sodipodi:namedview
     id="base"
     pagecolor="#ffffff"
     bordercolor="#666666"
     borderopacity="1.0"
     inkscape:pageopacity="0.0"
     inkscape:pageshadow="2"
     inkscape:zoom="0.35"
     inkscape:cx="185.77599"
     inkscape:cy="553.35542"
     inkscape:document-units="mm"
     inkscape:current-layer="layer1"
     inkscape:document-rotation="0"
     showgrid="false"
     fit-margin-top="0"
     fit-margin-left="0"
     fit-margin-right="0"
     fit-margin-bottom="0"
     inkscape:window-width="1440"
     inkscape:window-height="697"
     inkscape:window-x="0"
     inkscape:window-y="25"
     inkscape:window-maximized="0" />
  <metadata
     id="metadata5">
    <rdf:RDF>
      <cc:Work
         rdf:about="">
        <dc:format>image/svg+xml</dc:format>
        <dc:type
           rdf:resource="http://purl.org/dc/dcmitype/StillImage" />
        <dc:title></dc:title>
      </cc:Work>
    </rdf:RDF>
  </metadata>
  <g
     inkscape:label="レイヤー 1"
     inkscape:groupmode="layer"
     id="layer1"
     transform="translate(-41.183078,-1.7580435)">
    <g
       aria-label="ゲームオーバー"
       id="text4398"
       style="font-style:normal;font-variant:normal;font-weight:600;font-stretch:normal;font-size:12.7px;line-height:1.25;font-family:'Hiragino Kaku Gothic Pro';-inkscape-font-specification:'Hiragino Kaku Gothic Pro, Semi-Bold';font-variant-ligatures:normal;font-variant-caps:normal;font-variant-numeric:normal;font-variant-east-asian:normal;fill:#502d16;fill-opacity:1;stroke-width:0.264583">
      <path
         d="m 49.260277,6.2411434 h 1.5621 c 0.5461,0.0127 0.9525,0.0127 1.2065,0.0127 0.0508,0 0.1905,0.0127 0.4064,0.0381 v -1.5621 c -0.508,0.0635 -0.7112,0.0762 -1.6002,0.0762 -3.3528,0 -5.067299,0.0127 -5.156199,0.0127 -0.1397,0 -0.2667,0 -0.3937,0 0.1397,-0.2794 0.2667,-0.5588 0.381,-0.8254999 0.3302,-0.762 0.3302,-0.7747 0.381,-0.9017 0.0127,-0.0254 0.0508,-0.1016 0.1016,-0.1905 l -1.651,-0.3937 c -0.0762,0.4953 -0.2413,0.9779 -0.635,1.8160999 -0.635,1.397 -1.6129,2.6543 -2.6797,3.4925 0.5715,0.3048 0.8509,0.508 1.2954,1.0033 0.8509,-0.7747 1.4224,-1.4605 2.1082,-2.5781 h 3.047999 c -0.0762,1.2573 -0.279399,2.1844 -0.609599,2.8829 -0.5969,1.3461996 -2.0193,2.5018996 -3.7846,3.0733996 0.508,0.4572 0.762,0.7874 1.0541,1.397 3.301999,-1.4732 4.724399,-3.4925 4.940299,-7.0230996 l 0.0127,-0.1651 z m 0.381,-3.5559999 c 0.4826,0.6604 0.7747,1.1811 1.1176,2.0319999 l 0.9398,-0.3683 c -0.3429,-0.8381999 -0.635,-1.3461999 -1.1303,-2.0065999 z m 3.6449,1.0033 c -0.2921,-0.7493 -0.5969,-1.2573 -1.1176,-1.9304 l -0.9017,0.3556 c 0.4318,0.5715 0.7874,1.2192 1.0922,1.9684999 z"
         style="font-style:normal;font-variant:normal;font-weight:600;font-stretch:normal;font-size:12.7px;font-family:'Hiragino Kaku Gothic Pro';-inkscape-font-specification:'Hiragino Kaku Gothic Pro, Semi-Bold';font-variant-ligatures:normal;font-variant-caps:normal;font-variant-numeric:normal;font-variant-east-asian:normal;fill:#502d16;fill-opacity:1;stroke-width:0.264583"
         id="path4400" />
      <path
         d="m 53.930107,8.8573434 c 0.508,-0.0635 0.6477,-0.0635 2.0701,-0.0635 h 6.7437 c 1.4224,0 1.5621,0 2.0701,0.0635 v -1.7653 c -0.5588,0.0762 -0.8001,0.0889 -2.0574,0.0889 h -6.7691 c -1.2573,0 -1.4986,-0.0127 -2.0574,-0.0889 z"
         style="font-style:normal;font-variant:normal;font-weight:600;font-stretch:normal;font-size:12.7px;font-family:'Hiragino Kaku Gothic Pro';-inkscape-font-specification:'Hiragino Kaku Gothic Pro, Semi-Bold';font-variant-ligatures:normal;font-variant-caps:normal;font-variant-numeric:normal;font-variant-east-asian:normal;fill:#502d16;fill-opacity:1;stroke-width:0.264583"
         id="path4402" />
      <path
         d="m 70.198013,2.5454435 c -0.0889,0.7493 -0.3302,1.6509999 -0.9271,3.5178999 -0.6604,2.0828 -1.1684,3.5179 -1.8415,5.1180996 -0.5334,0.0254 -0.8382,0.0381 -1.0922,0.0381 -0.1524,0 -0.1524,0 -0.3302,0 l 0.2286,1.7145 c 0.254,-0.0635 0.4445,-0.0889 1.1557,-0.1524 3.7973,-0.3683 5.9055,-0.635 7.1882,-0.9017 0.2921,-0.0635 0.2921,-0.0635 0.4572,-0.1016 0.4445,1.0541 0.4445,1.0541 0.6096,1.5748 l 1.5367,-0.8001 c -0.7747,-2.0193 -1.8923,-4.1528996 -3.0734,-5.8800996 l -1.4351,0.5588 c 0.4191,0.5969 0.6477,0.9652 1.2065,2.0193 0.3048,0.5715 0.4572,0.8508996 0.5969,1.1556996 -1.0922,0.2286 -3.2893,0.4953 -5.2832,0.6477 0.8128,-1.9557996 1.5494,-4.0639996 2.5146,-7.2389995 0.1778,-0.6096 0.1905,-0.635 0.3302,-0.9144 z"
         style="font-style:normal;font-variant:normal;font-weight:600;font-stretch:normal;font-size:12.7px;font-family:'Hiragino Kaku Gothic Pro';-inkscape-font-specification:'Hiragino Kaku Gothic Pro, Semi-Bold';font-variant-ligatures:normal;font-variant-caps:normal;font-variant-numeric:normal;font-variant-east-asian:normal;fill:#502d16;fill-opacity:1;stroke-width:0.264583"
         id="path4404" />
      <path
         d="m 85.234812,8.2731434 0.0381,3.7972996 c 0,0.0889 0,0.1524 0,0.2286 0,0.5207 -0.0254,0.8636 -0.0762,1.2192 h 1.7272 c -0.0381,-0.3556 -0.0635,-0.8382 -0.0762,-1.4605 l -0.0635,-5.8927996 h 1.3081 c 0.7874,0 1.0795,0.0127 1.4605,0.0508 v -1.5367 c -0.4445,0.0762 -0.6477,0.0889 -1.4986,0.0889 h -1.2827 l -0.0254,-1.0286999 v -0.0762 c 0,-0.5207 0.0127,-0.7493 0.0508,-1.0795 h -1.6764 c 0.0508,0.4826 0.0508,0.4826 0.0635,1.1684 l 0.0127,1.0159999 h -4.3942 c -0.9017,0 -1.1176,0 -1.6002,-0.0889 v 1.5494 c 0.4572,-0.0508 0.6096,-0.0508 1.5621,-0.0635 h 3.4798 c -0.4191,0.6731 -1.0541,1.4605 -1.7018,2.0955 -1.27,1.2319 -2.4892,2.0700996 -4.0005,2.7558996 0.5588,0.4953 0.7493,0.7239 1.0541,1.3208 0.9652,-0.5461 1.3843,-0.8128 1.8796,-1.1684 0.8763,-0.635 1.8034,-1.4477996 2.5019,-2.2097996 0.635,-0.6985 1.0287,-1.2319 1.2954,-1.778 -0.0127,0.2032 -0.0381,0.8509 -0.0381,0.9144 z"
         style="font-style:normal;font-variant:normal;font-weight:600;font-stretch:normal;font-size:12.7px;font-family:'Hiragino Kaku Gothic Pro';-inkscape-font-specification:'Hiragino Kaku Gothic Pro, Semi-Bold';font-variant-ligatures:normal;font-variant-caps:normal;font-variant-numeric:normal;font-variant-east-asian:normal;fill:#502d16;fill-opacity:1;stroke-width:0.264583"
         id="path4406" />
      <path
         d="m 91.534013,8.8573434 c 0.508,-0.0635 0.6477,-0.0635 2.0701,-0.0635 h 6.743697 c 1.4224,0 1.5621,0 2.0701,0.0635 v -1.7653 c -0.5588,0.0762 -0.8001,0.0889 -2.0574,0.0889 h -6.769097 c -1.2573,0 -1.4986,-0.0127 -2.0574,-0.0889 z"
         style="font-style:normal;font-variant:normal;font-weight:600;font-stretch:normal;font-size:12.7px;font-family:'Hiragino Kaku Gothic Pro';-inkscape-font-specification:'Hiragino Kaku Gothic Pro, Semi-Bold';font-variant-ligatures:normal;font-variant-caps:normal;font-variant-numeric:normal;font-variant-east-asian:normal;fill:#502d16;fill-opacity:1;stroke-width:0.264583"
         id="path4408" />
      <path
         d="m 106.47814,3.3328435 c 0,0.0762 0,0.1397 0,0.1778 0,0.2794 -0.0381,0.7111999 -0.1143,1.2318999 -0.2032,1.6002 -0.6477,3.175 -1.1938,4.3561 -0.5334,1.1683996 -1.0541,1.9430996 -1.8161,2.7050996 0.6096,0.3302 0.8509,0.5207 1.4478,1.0922 1.7018,-1.9558 2.6924,-4.4576996 3.2258,-8.1025996 l 0.0381,-0.3048 0.0635,-0.3683 0.0254,-0.2158999 c 0.0127,-0.1016 0.0254,-0.1143 0.0635,-0.254 z m 3.7719,0.3048 c 0.0635,0.1905 0.1016,0.3937 0.1778,0.9143999 0.4953,3.4163 1.6764,6.3372996 3.3655,8.3565996 0.4826,-0.5461 0.7493,-0.762 1.397,-1.1684 -1.3208,-1.4224 -2.2098,-3.1368996 -2.8321,-5.4863996 -0.2921,-1.0922 -0.5207,-2.3367999 -0.5334,-2.9209999 z m 1.7018,-0.7874 c 0.4826,0.7112 0.7493,1.2572999 1.0414,2.0700999 l 0.9652,-0.3048 c -0.3048,-0.8508999 -0.5842,-1.3842999 -1.0541,-2.0446999 z m 3.6703,1.2572999 c -0.2794,-0.7619999 -0.5588,-1.2953999 -1.0414,-1.9684999 l -0.9398,0.2667 c 0.4064,0.5842 0.7239,1.2192 1.016,2.0065999 z"
         style="font-style:normal;font-variant:normal;font-weight:600;font-stretch:normal;font-size:12.7px;font-family:'Hiragino Kaku Gothic Pro';-inkscape-font-specification:'Hiragino Kaku Gothic Pro, Semi-Bold';font-variant-ligatures:normal;font-variant-caps:normal;font-variant-numeric:normal;font-variant-east-asian:normal;fill:#502d16;fill-opacity:1;stroke-width:0.264583"
         id="path4410" />
      <path
         d="m 116.06585,8.8573434 c 0.508,-0.0635 0.6477,-0.0635 2.0701,-0.0635 h 6.7437 c 1.4224,0 1.5621,0 2.0701,0.0635 v -1.7653 c -0.5588,0.0762 -0.8001,0.0889 -2.0574,0.0889 h -6.7691 c -1.2573,0 -1.4986,-0.0127 -2.0574,-0.0889 z"
         style="font-style:normal;font-variant:normal;font-weight:600;font-stretch:normal;font-size:12.7px;font-family:'Hiragino Kaku Gothic Pro';-inkscape-font-specification:'Hiragino Kaku Gothic Pro, Semi-Bold';font-variant-ligatures:normal;font-variant-caps:normal;font-variant-numeric:normal;font-variant-east-asian:normal;fill:#502d16;fill-opacity:1;stroke-width:0.264583"
         id="path4412" />
    </g>
  </g>
</svg>
