<?xml version="1.0" encoding="UTF-8" standalone="no"?>
<svg
   xmlns:dc="http://purl.org/dc/elements/1.1/"
   xmlns:cc="http://creativecommons.org/ns#"
   xmlns:rdf="http://www.w3.org/1999/02/22-rdf-syntax-ns#"
   xmlns:svg="http://www.w3.org/2000/svg"
   xmlns="http://www.w3.org/2000/svg"
   xmlns:sodipodi="http://sodipodi.sourceforge.net/DTD/sodipodi-0.dtd"
   xmlns:inkscape="http://www.inkscape.org/namespaces/inkscape"
   width="144.40031mm"
   height="17.0688mm"
   viewBox="0 0 144.40031 17.0688"
   version="1.1"
   id="svg8"
   inkscape:version="1.0.1 (c497b03c, 2020-09-10)"
   sodipodi:docname="goodend_title.svg">
  <defs
     id="defs2" />
  <sodipodi:namedview
     id="base"
     pagecolor="#ffffff"
     bordercolor="#666666"
     borderopacity="1.0"
     inkscape:pageopacity="0.0"
     inkscape:pageshadow="2"
     inkscape:zoom="0.35"
     inkscape:cx="136.14857"
     inkscape:cy="154.08002"
     inkscape:document-units="mm"
     inkscape:current-layer="layer1"
     inkscape:document-rotation="0"
     showgrid="false"
     fit-margin-top="0"
     fit-margin-left="0"
     fit-margin-right="0"
     fit-margin-bottom="0"
     inkscape:window-width="1440"
     inkscape:window-height="697"
     inkscape:window-x="0"
     inkscape:window-y="25"
     inkscape:window-maximized="0" />
  <metadata
     id="metadata5">
    <rdf:RDF>
      <cc:Work
         rdf:about="">
        <dc:format>image/svg+xml</dc:format>
        <dc:type
           rdf:resource="http://purl.org/dc/dcmitype/StillImage" />
        <dc:title />
      </cc:Work>
    </rdf:RDF>
  </metadata>
  <g
     inkscape:label="レイヤー 1"
     inkscape:groupmode="layer"
     id="layer1"
     transform="translate(-54.313666,-107.39966)">
    <g
       aria-label="Congratulations"
       id="text1543"
       style="font-style:normal;font-variant:normal;font-weight:600;font-stretch:normal;font-size:16.93329999999999913px;line-height:1.25;font-family:'Hiragino Kaku Gothic Pro';-inkscape-font-specification:'Hiragino Kaku Gothic Pro, Semi-Bold';font-variant-ligatures:normal;font-variant-caps:normal;font-variant-numeric:normal;font-variant-east-asian:normal;stroke-width:0.264583;fill:#502d16;fill-opacity:1">
      <path
         d="m 63.847132,116.61139 c -0.135466,0.77894 -0.270933,1.13454 -0.5588,1.55787 -0.541866,0.79587 -1.557866,1.25307 -2.743199,1.25307 -2.370667,0 -3.8608,-1.9304 -3.8608,-5.0292 0,-3.11574 1.456266,-4.99534 3.8608,-4.99534 1.049866,0 1.896533,0.3556 2.472266,1.04987 0.338667,0.38947 0.491067,0.7112 0.728133,1.45627 l 2.353734,-0.54187 c -0.2032,-0.64347 -0.321734,-0.94827 -0.524934,-1.30387 -0.423333,-0.74506 -1.032933,-1.3716 -1.794933,-1.84573 -0.931333,-0.5588 -1.9304,-0.8128 -3.2512,-0.8128 -1.693333,0 -3.217333,0.57573 -4.233333,1.60867 -1.27,1.27 -1.9812,3.23426 -1.9812,5.46946 0,2.16747 0.6604,4.08094 1.845733,5.31707 1.032934,1.0668 2.506134,1.6256 4.351867,1.6256 2.032,0 3.6576,-0.6604 4.6228,-1.84573 0.508,-0.6604 0.8128,-1.3208 1.134533,-2.54 z"
         style="font-style:normal;font-variant:normal;font-weight:600;font-stretch:normal;font-size:16.93329999999999913px;font-family:'Hiragino Kaku Gothic Pro';-inkscape-font-specification:'Hiragino Kaku Gothic Pro, Semi-Bold';font-variant-ligatures:normal;font-variant-caps:normal;font-variant-numeric:normal;font-variant-east-asian:normal;stroke-width:0.264583;fill:#502d16;fill-opacity:1"
         id="path1549" />
      <path
         d="m 72.685803,121.47126 c 3.014133,0 4.995333,-2.06587 4.995333,-5.19853 0,-3.13267 -1.947333,-5.1308 -5.012266,-5.1308 -3.081867,0 -5.046133,2.01506 -5.046133,5.16466 0,3.16654 1.964266,5.16467 5.063066,5.16467 z m -0.01693,-8.56827 c 1.794933,0 2.827866,1.25307 2.827866,3.43747 0,2.06587 -1.083733,3.33587 -2.8448,3.33587 -1.761066,0 -2.8448,-1.28694 -2.8448,-3.36974 0,-2.11666 1.083734,-3.4036 2.861734,-3.4036 z"
         style="font-style:normal;font-variant:normal;font-weight:600;font-stretch:normal;font-size:16.93329999999999913px;font-family:'Hiragino Kaku Gothic Pro';-inkscape-font-specification:'Hiragino Kaku Gothic Pro, Semi-Bold';font-variant-ligatures:normal;font-variant-caps:normal;font-variant-numeric:normal;font-variant-east-asian:normal;stroke-width:0.264583;fill:#502d16;fill-opacity:1"
         id="path1551" />
      <path
         d="m 81.811547,121.14953 c -0.1016,-0.72814 -0.135467,-1.3716 -0.135467,-2.20134 v -3.42053 c 0.745067,-1.6764 1.744133,-2.52307 2.963333,-2.52307 0.643467,0 1.151467,0.254 1.4224,0.69427 0.2032,0.32173 0.287867,0.77893 0.287867,1.49013 v 3.7592 c 0,0.8636 -0.03387,1.43934 -0.118533,2.20134 h 2.455333 c -0.1016,-0.62654 -0.135467,-1.27 -0.135467,-2.20134 v -4.064 c 0,-1.13453 -0.169333,-1.81186 -0.575733,-2.37066 -0.6096,-0.82974 -1.5748,-1.25307 -2.878667,-1.25307 -1.524,0 -2.421466,0.47413 -3.4544,1.79493 0.03387,-0.42333 0.03387,-0.47413 0.03387,-0.72813 v -0.89747 H 79.37315 c 0.1016,0.69427 0.135467,1.27 0.135467,2.20134 v 5.31706 c 0,0.94827 -0.03387,1.4732 -0.135467,2.20134 z"
         style="font-style:normal;font-variant:normal;font-weight:600;font-stretch:normal;font-size:16.93329999999999913px;font-family:'Hiragino Kaku Gothic Pro';-inkscape-font-specification:'Hiragino Kaku Gothic Pro, Semi-Bold';font-variant-ligatures:normal;font-variant-caps:normal;font-variant-numeric:normal;font-variant-east-asian:normal;stroke-width:0.264583;fill:#502d16;fill-opacity:1"
         id="path1553" />
      <path
         d="m 90.580103,122.70739 c 1.151467,1.30387 2.269067,1.76107 4.250267,1.76107 1.744133,0 3.149599,-0.38947 3.996266,-1.08373 0.982133,-0.82974 1.422404,-2.1336 1.422404,-4.1656 v -5.67267 c 0,-0.9144 0.0339,-1.38853 0.11853,-2.11667 h -2.269067 v 0.77894 c 0,0.18626 0,0.22013 0.03387,0.5588 -0.728133,-1.03294 -1.727199,-1.49014 -3.234266,-1.49014 -2.7432,0 -4.5212,1.89654 -4.5212,4.826 0,2.8956 1.7272,4.74134 4.4196,4.74134 1.4732,0 2.472267,-0.47414 3.318933,-1.54094 -0.03387,1.15147 -0.1524,1.74414 -0.440266,2.25214 -0.474134,0.8128 -1.4732,1.27 -2.777067,1.27 -1.2192,0 -1.964267,-0.37254 -2.624667,-1.28694 z m 2.015067,-6.5532 c 0,-2.01506 1.049866,-3.28506 2.7432,-3.28506 0.6096,0 1.1684,0.22013 1.642533,0.6096 0.677333,0.57573 1.016,1.4224 1.016,2.50613 0,0.77893 -0.1524,1.40547 -0.474133,1.9304 -0.474134,0.79587 -1.4224,1.33773 -2.353734,1.33773 -0.643466,0 -1.3716,-0.3048 -1.794933,-0.762 -0.508,-0.508 -0.778933,-1.33773 -0.778933,-2.3368 z"
         style="font-style:normal;font-variant:normal;font-weight:600;font-stretch:normal;font-size:16.93329999999999913px;font-family:'Hiragino Kaku Gothic Pro';-inkscape-font-specification:'Hiragino Kaku Gothic Pro, Semi-Bold';font-variant-ligatures:normal;font-variant-caps:normal;font-variant-numeric:normal;font-variant-east-asian:normal;stroke-width:0.264583;fill:#502d16;fill-opacity:1"
         id="path1555" />
      <path
         d="m 109.58618,111.42979 c -0.762,-0.13546 -1.1684,-0.18626 -1.5748,-0.18626 -1.524,0 -2.57387,0.57573 -3.18347,1.778 v -1.59174 h -2.30293 c 0.1016,0.69427 0.11853,1.1684 0.11853,2.20134 v 5.31706 c 0,0.88054 -0.0339,1.3716 -0.11853,2.20134 h 2.42147 c -0.0847,-0.79587 -0.11854,-1.28694 -0.11854,-2.20134 v -3.13266 c 0.1016,-0.8128 0.27094,-1.20227 0.69427,-1.69334 0.47413,-0.5588 1.1176,-0.82973 1.96427,-0.82973 0.44026,0 0.79586,0.0677 1.50706,0.27093 z"
         style="font-style:normal;font-variant:normal;font-weight:600;font-stretch:normal;font-size:16.93329999999999913px;font-family:'Hiragino Kaku Gothic Pro';-inkscape-font-specification:'Hiragino Kaku Gothic Pro, Semi-Bold';font-variant-ligatures:normal;font-variant-caps:normal;font-variant-numeric:normal;font-variant-east-asian:normal;stroke-width:0.264583;fill:#502d16;fill-opacity:1"
         id="path1557" />
      <path
         d="m 117.26015,121.14953 h 2.286 c -0.1016,-0.762 -0.13546,-1.2192 -0.13546,-2.11667 v -4.55507 c 0,-1.15146 -0.22014,-1.79493 -0.79587,-2.3368 -0.72813,-0.7112 -1.71027,-0.99906 -3.33587,-0.99906 -1.45626,0 -2.40453,0.254 -3.23426,0.8636 -0.64347,0.4572 -0.94827,0.89746 -1.33774,1.8796 l 2.16747,0.38946 c 0.2032,-0.6096 0.3556,-0.84666 0.67733,-1.08373 0.38947,-0.3048 1.08374,-0.49107 1.76107,-0.49107 1.28693,0 1.94733,0.508 1.94733,1.49014 v 0.8636 c -2.42146,0.0508 -3.67453,0.22013 -4.7752,0.67733 -1.1684,0.49107 -1.91346,1.55787 -1.91346,2.7432 0,1.778 1.25306,2.8448 3.31893,2.8448 0.54187,0 1.08373,-0.0677 1.5748,-0.2032 0.69427,-0.18627 1.1176,-0.42333 1.79493,-1.0668 z m 0,-3.77614 c 0,0.59267 -0.2032,1.08374 -0.6096,1.49014 -0.57573,0.5588 -1.45626,0.89746 -2.35373,0.89746 -0.94827,0 -1.54093,-0.49106 -1.54093,-1.28693 0,-1.3208 1.27,-1.8796 4.50426,-1.94733 z"
         style="font-style:normal;font-variant:normal;font-weight:600;font-stretch:normal;font-size:16.93329999999999913px;font-family:'Hiragino Kaku Gothic Pro';-inkscape-font-specification:'Hiragino Kaku Gothic Pro, Semi-Bold';font-variant-ligatures:normal;font-variant-caps:normal;font-variant-numeric:normal;font-variant-east-asian:normal;stroke-width:0.264583;fill:#502d16;fill-opacity:1"
         id="path1559" />
      <path
         d="m 122.70872,108.82206 c 0.0677,0.6096 0.11854,1.35467 0.11854,2.0828 v 0.52493 h -0.62654 c -0.7112,0 -1.03293,-0.0169 -1.524,-0.1016 v 1.99814 c 0.5588,-0.0847 0.88054,-0.1016 1.50707,-0.1016 h 0.64347 v 5.6896 c 0,1.778 0.77893,2.47226 2.72626,2.47226 0.88054,0 1.38854,-0.0847 2.11667,-0.3556 l -0.3048,-1.79493 c -0.52493,0.28787 -0.79587,0.37253 -1.23613,0.37253 -0.8128,0 -1.1176,-0.3048 -1.1176,-1.13453 v -5.24933 h 0.762 c 0.77893,0 1.10066,0.0169 1.65946,0.1016 v -1.99814 c -0.54186,0.0847 -0.9144,0.1016 -1.71026,0.1016 h -0.7112 v -0.52493 c 0,-0.762 0.0508,-1.49013 0.11853,-2.0828 z"
         style="font-style:normal;font-variant:normal;font-weight:600;font-stretch:normal;font-size:16.93329999999999913px;font-family:'Hiragino Kaku Gothic Pro';-inkscape-font-specification:'Hiragino Kaku Gothic Pro, Semi-Bold';font-variant-ligatures:normal;font-variant-caps:normal;font-variant-numeric:normal;font-variant-east-asian:normal;stroke-width:0.264583;fill:#502d16;fill-opacity:1"
         id="path1561" />
      <path
         d="m 135.75744,111.42979 c 0.0847,0.72814 0.13547,1.3716 0.13547,2.20134 v 3.42053 c -0.762,1.6764 -1.7272,2.50613 -2.9464,2.50613 -0.32174,0 -0.67734,-0.1016 -0.93134,-0.23706 -0.52493,-0.32174 -0.77893,-0.94827 -0.77893,-1.9304 v -3.7592 c 0,-0.8636 0.0169,-1.43934 0.11853,-2.20134 h -2.45533 c 0.0847,0.62654 0.13547,1.27 0.13547,2.20134 v 4.28413 c 0,1.38853 0.44027,2.3368 1.3716,2.92947 0.5588,0.33866 1.1684,0.49106 2.032,0.49106 1.60866,0 2.54,-0.49106 3.47133,-1.81186 -0.0169,0.42333 -0.0169,0.47413 -0.0169,0.72813 v 0.89747 h 2.30293 c -0.1016,-0.69427 -0.13547,-1.27 -0.13547,-2.20134 v -5.31706 c 0,-0.94827 0.0169,-1.4732 0.13547,-2.20134 z"
         style="font-style:normal;font-variant:normal;font-weight:600;font-stretch:normal;font-size:16.93329999999999913px;font-family:'Hiragino Kaku Gothic Pro';-inkscape-font-specification:'Hiragino Kaku Gothic Pro, Semi-Bold';font-variant-ligatures:normal;font-variant-caps:normal;font-variant-numeric:normal;font-variant-east-asian:normal;stroke-width:0.264583;fill:#502d16;fill-opacity:1"
         id="path1563" />
      <path
         d="m 140.32652,107.67059 c 0.0847,0.64347 0.11854,1.18534 0.11854,2.20134 v 9.07626 c 0,0.98214 -0.0339,1.4732 -0.11854,2.20134 h 2.45534 c -0.0847,-0.74507 -0.11854,-1.30387 -0.11854,-2.20134 v -9.05933 c 0,-1.016 0.0339,-1.55787 0.11854,-2.21827 z"
         style="font-style:normal;font-variant:normal;font-weight:600;font-stretch:normal;font-size:16.93329999999999913px;font-family:'Hiragino Kaku Gothic Pro';-inkscape-font-specification:'Hiragino Kaku Gothic Pro, Semi-Bold';font-variant-ligatures:normal;font-variant-caps:normal;font-variant-numeric:normal;font-variant-east-asian:normal;stroke-width:0.264583;fill:#502d16;fill-opacity:1"
         id="path1565" />
      <path
         d="m 151.35833,121.14953 h 2.286 c -0.1016,-0.762 -0.13547,-1.2192 -0.13547,-2.11667 v -4.55507 c 0,-1.15146 -0.22013,-1.79493 -0.79587,-2.3368 -0.72813,-0.7112 -1.71026,-0.99906 -3.33586,-0.99906 -1.45627,0 -2.40454,0.254 -3.23427,0.8636 -0.64347,0.4572 -0.94827,0.89746 -1.33773,1.8796 l 2.16746,0.38946 c 0.2032,-0.6096 0.3556,-0.84666 0.67734,-1.08373 0.38946,-0.3048 1.08373,-0.49107 1.76106,-0.49107 1.28694,0 1.94734,0.508 1.94734,1.49014 v 0.8636 c -2.42147,0.0508 -3.67454,0.22013 -4.7752,0.67733 -1.1684,0.49107 -1.91347,1.55787 -1.91347,2.7432 0,1.778 1.25307,2.8448 3.31893,2.8448 0.54187,0 1.08374,-0.0677 1.5748,-0.2032 0.69427,-0.18627 1.1176,-0.42333 1.79494,-1.0668 z m 0,-3.77614 c 0,0.59267 -0.2032,1.08374 -0.6096,1.49014 -0.57574,0.5588 -1.45627,0.89746 -2.35374,0.89746 -0.94826,0 -1.54093,-0.49106 -1.54093,-1.28693 0,-1.3208 1.27,-1.8796 4.50427,-1.94733 z"
         style="font-style:normal;font-variant:normal;font-weight:600;font-stretch:normal;font-size:16.93329999999999913px;font-family:'Hiragino Kaku Gothic Pro';-inkscape-font-specification:'Hiragino Kaku Gothic Pro, Semi-Bold';font-variant-ligatures:normal;font-variant-caps:normal;font-variant-numeric:normal;font-variant-east-asian:normal;stroke-width:0.264583;fill:#502d16;fill-opacity:1"
         id="path1567" />
      <path
         d="m 156.80689,108.82206 c 0.0677,0.6096 0.11853,1.35467 0.11853,2.0828 v 0.52493 h -0.62653 c -0.7112,0 -1.03293,-0.0169 -1.524,-0.1016 v 1.99814 c 0.5588,-0.0847 0.88053,-0.1016 1.50707,-0.1016 h 0.64346 v 5.6896 c 0,1.778 0.77894,2.47226 2.72627,2.47226 0.88053,0 1.38853,-0.0847 2.11667,-0.3556 l -0.3048,-1.79493 c -0.52494,0.28787 -0.79587,0.37253 -1.23614,0.37253 -0.8128,0 -1.1176,-0.3048 -1.1176,-1.13453 v -5.24933 h 0.762 c 0.77894,0 1.10067,0.0169 1.65947,0.1016 v -1.99814 c -0.54187,0.0847 -0.9144,0.1016 -1.71027,0.1016 h -0.7112 v -0.52493 c 0,-0.762 0.0508,-1.49013 0.11854,-2.0828 z"
         style="font-style:normal;font-variant:normal;font-weight:600;font-stretch:normal;font-size:16.93329999999999913px;font-family:'Hiragino Kaku Gothic Pro';-inkscape-font-specification:'Hiragino Kaku Gothic Pro, Semi-Bold';font-variant-ligatures:normal;font-variant-caps:normal;font-variant-numeric:normal;font-variant-east-asian:normal;stroke-width:0.264583;fill:#502d16;fill-opacity:1"
         id="path1569" />
      <path
         d="m 163.01455,107.67059 v 2.15054 h 2.4892 v -2.15054 z m 0,3.7592 c 0.1016,0.69427 0.13547,1.27 0.13547,2.20134 v 5.31706 c 0,0.84667 -0.0339,1.43934 -0.13547,2.20134 h 2.47227 c -0.0847,-0.7112 -0.11854,-1.28694 -0.11854,-2.21827 v -5.2832 c 0,-1.03293 0.0339,-1.59173 0.11854,-2.21827 z"
         style="font-style:normal;font-variant:normal;font-weight:600;font-stretch:normal;font-size:16.93329999999999913px;font-family:'Hiragino Kaku Gothic Pro';-inkscape-font-specification:'Hiragino Kaku Gothic Pro, Semi-Bold';font-variant-ligatures:normal;font-variant-caps:normal;font-variant-numeric:normal;font-variant-east-asian:normal;stroke-width:0.264583;fill:#502d16;fill-opacity:1"
         id="path1571" />
      <path
         d="m 172.26835,121.47126 c 3.01413,0 4.99533,-2.06587 4.99533,-5.19853 0,-3.13267 -1.94733,-5.1308 -5.01227,-5.1308 -3.08186,0 -5.04613,2.01506 -5.04613,5.16466 0,3.16654 1.96427,5.16467 5.06307,5.16467 z m -0.0169,-8.56827 c 1.79494,0 2.82787,1.25307 2.82787,3.43747 0,2.06587 -1.08373,3.33587 -2.8448,3.33587 -1.76107,0 -2.8448,-1.28694 -2.8448,-3.36974 0,-2.11666 1.08373,-3.4036 2.86173,-3.4036 z"
         style="font-style:normal;font-variant:normal;font-weight:600;font-stretch:normal;font-size:16.93329999999999913px;font-family:'Hiragino Kaku Gothic Pro';-inkscape-font-specification:'Hiragino Kaku Gothic Pro, Semi-Bold';font-variant-ligatures:normal;font-variant-caps:normal;font-variant-numeric:normal;font-variant-east-asian:normal;stroke-width:0.264583;fill:#502d16;fill-opacity:1"
         id="path1573" />
      <path
         d="m 181.39409,121.14953 c -0.1016,-0.72814 -0.13547,-1.3716 -0.13547,-2.20134 v -3.42053 c 0.74507,-1.6764 1.74414,-2.52307 2.96334,-2.52307 0.64346,0 1.15146,0.254 1.4224,0.69427 0.2032,0.32173 0.28786,0.77893 0.28786,1.49013 v 3.7592 c 0,0.8636 -0.0339,1.43934 -0.11853,2.20134 h 2.45533 c -0.1016,-0.62654 -0.13546,-1.27 -0.13546,-2.20134 v -4.064 c 0,-1.13453 -0.16934,-1.81186 -0.57574,-2.37066 -0.6096,-0.82974 -1.5748,-1.25307 -2.87866,-1.25307 -1.524,0 -2.42147,0.47413 -3.4544,1.79493 0.0339,-0.42333 0.0339,-0.47413 0.0339,-0.72813 v -0.89747 h -2.30293 c 0.1016,0.69427 0.13547,1.27 0.13547,2.20134 v 5.31706 c 0,0.94827 -0.0339,1.4732 -0.13547,2.20134 z"
         style="font-style:normal;font-variant:normal;font-weight:600;font-stretch:normal;font-size:16.93329999999999913px;font-family:'Hiragino Kaku Gothic Pro';-inkscape-font-specification:'Hiragino Kaku Gothic Pro, Semi-Bold';font-variant-ligatures:normal;font-variant-caps:normal;font-variant-numeric:normal;font-variant-east-asian:normal;stroke-width:0.264583;fill:#502d16;fill-opacity:1"
         id="path1575" />
      <path
         d="m 189.94251,118.38939 c 0.2032,0.762 0.3556,1.10067 0.6604,1.50707 0.72814,0.98213 2.032,1.50707 3.77614,1.50707 1.54093,0 2.72626,-0.37254 3.5052,-1.10067 0.508,-0.47413 0.82973,-1.2192 0.82973,-1.91347 0,-0.93133 -0.32173,-1.6256 -0.98213,-2.09973 -0.5588,-0.42333 -1.25307,-0.6604 -2.98027,-1.03293 -0.9652,-0.22014 -1.3208,-0.32174 -1.69333,-0.508 -0.33867,-0.18627 -0.52494,-0.47414 -0.52494,-0.79587 0,-0.7112 0.7112,-1.18533 1.76107,-1.18533 1.10067,0 1.6764,0.4064 1.86267,1.33773 l 2.2352,-0.28787 c -0.23707,-0.82973 -0.47414,-1.25306 -0.9144,-1.6764 -0.69427,-0.64346 -1.79494,-0.98213 -3.18347,-0.98213 -1.54093,0 -2.6924,0.44027 -3.38667,1.3208 -0.33866,0.42333 -0.52493,0.98213 -0.52493,1.5748 0,0.98213 0.52493,1.79493 1.49013,2.25213 0.57574,0.27094 1.10067,0.44027 2.4384,0.72814 1.35467,0.3048 1.45627,0.32173 1.778,0.54186 0.27094,0.18627 0.44027,0.508 0.44027,0.84667 0,0.79587 -0.77893,1.28693 -2.032,1.28693 -1.3208,0 -1.94733,-0.4572 -2.2352,-1.60866 z"
         style="font-style:normal;font-variant:normal;font-weight:600;font-stretch:normal;font-size:16.93329999999999913px;font-family:'Hiragino Kaku Gothic Pro';-inkscape-font-specification:'Hiragino Kaku Gothic Pro, Semi-Bold';font-variant-ligatures:normal;font-variant-caps:normal;font-variant-numeric:normal;font-variant-east-asian:normal;stroke-width:0.264583;fill:#502d16;fill-opacity:1"
         id="path1577" />
    </g>
    <text
       xml:space="preserve"
       style="font-weight:600;font-size:8.46667px;line-height:1.25;font-family:'Hiragino Kaku Gothic Pro';-inkscape-font-specification:'Hiragino Kaku Gothic Pro, Semi-Bold';stroke-width:0.264583"
       x="55.819527"
       y="89.952286"
       id="text1539"><tspan
         sodipodi:role="line"
         id="tspan1537"
         x="55.819527"
         y="89.952286"
         style="stroke-width:0.264583" /></text>
  </g>
</svg>
