<?xml version="1.0" encoding="UTF-8" standalone="no"?>
<svg
   xmlns:dc="http://purl.org/dc/elements/1.1/"
   xmlns:cc="http://creativecommons.org/ns#"
   xmlns:rdf="http://www.w3.org/1999/02/22-rdf-syntax-ns#"
   xmlns:svg="http://www.w3.org/2000/svg"
   xmlns="http://www.w3.org/2000/svg"
   xmlns:sodipodi="http://sodipodi.sourceforge.net/DTD/sodipodi-0.dtd"
   xmlns:inkscape="http://www.inkscape.org/namespaces/inkscape"
   width="80.94117mm"
   height="14.867438mm"
   viewBox="0 0 80.941167 14.867438"
   version="1.1"
   id="svg8"
   inkscape:version="1.0.1 (c497b03c, 2020-09-10)"
   sodipodi:docname="goodend_title_jp.svg">
  <defs
     id="defs2" />
  <sodipodi:namedview
     id="base"
     pagecolor="#ffffff"
     bordercolor="#666666"
     borderopacity="1.0"
     inkscape:pageopacity="0.0"
     inkscape:pageshadow="2"
     inkscape:zoom="0.35"
     inkscape:cx="5.9543067"
     inkscape:cy="243.83077"
     inkscape:document-units="mm"
     inkscape:current-layer="layer1"
     inkscape:document-rotation="0"
     showgrid="false"
     fit-margin-top="0"
     fit-margin-left="0"
     fit-margin-right="0"
     fit-margin-bottom="0"
     inkscape:window-width="1440"
     inkscape:window-height="697"
     inkscape:window-x="0"
     inkscape:window-y="25"
     inkscape:window-maximized="0" />
  <metadata
     id="metadata5">
    <rdf:RDF>
      <cc:Work
         rdf:about="">
        <dc:format>image/svg+xml</dc:format>
        <dc:type
           rdf:resource="http://purl.org/dc/dcmitype/StillImage" />
        <dc:title></dc:title>
      </cc:Work>
    </rdf:RDF>
  </metadata>
  <g
     inkscape:label="レイヤー 1"
     inkscape:groupmode="layer"
     id="layer1"
     transform="translate(-88.760898,-83.653108)">
    <g
       aria-label="おめでとう"
       id="text4078"
       style="font-style:normal;font-variant:normal;font-weight:600;font-stretch:normal;font-size:16.9333px;line-height:1.25;font-family:'Hiragino Kaku Gothic Pro';-inkscape-font-specification:'Hiragino Kaku Gothic Pro, Semi-Bold';font-variant-ligatures:normal;font-variant-caps:normal;font-variant-numeric:normal;font-variant-east-asian:normal;fill:#502d16;fill-opacity:1;stroke-width:0.264583">
      <path
         d="m 94.569022,92.390691 c 1.202264,-0.372533 2.235196,-0.558799 3.251194,-0.558799 1.811863,0 2.997194,0.948265 2.997194,2.404529 0,1.083731 -0.7112,1.879596 -1.710264,1.879596 -0.474132,0 -0.880531,-0.220133 -1.066797,-0.575732 -0.169333,-0.321733 -0.237067,-0.778932 -0.237067,-1.490131 0,-0.270932 0,-0.423332 0.03387,-0.745065 -0.728132,0.389466 -1.015998,0.507999 -1.879596,0.745065 0,1.032932 0.06773,1.591731 0.287866,2.167463 0.440266,1.219197 1.405464,1.879596 2.777061,1.879596 2.201327,0 3.843857,-1.659463 3.843857,-3.860792 0,-2.404529 -2.01506,-4.131725 -4.842922,-4.131725 -1.236131,0 -2.302929,0.135466 -3.454393,0.474132 v -2.201329 c 0.643465,-0.06773 0.982131,-0.118533 1.54093,-0.220133 1.168398,-0.2032 1.490131,-0.253999 1.79493,-0.304799 l -0.06773,-1.89653 c -0.863598,0.270933 -1.998129,0.491066 -3.268127,0.643465 v -1.083731 c 0,-0.948265 0.01693,-1.303864 0.1016,-1.845729 h -2.116663 c 0.08467,0.541865 0.1016,0.982131 0.1016,1.947329 v 1.117598 c -0.186266,0 -0.270933,0 -0.677332,0.01693 -0.237066,0.01693 -0.423332,0.01693 -0.592665,0.01693 -0.897465,0 -1.574797,-0.0508 -2.04893,-0.152399 l 0.01693,1.896529 c 0.152399,-0.01693 0.287866,-0.01693 0.355599,-0.01693 0.0508,0 0.2032,0 0.423332,0.01693 0.2032,0 0.677332,0.01693 0.931332,0.01693 0.423332,0 0.660399,0 0.914398,-0.01693 0.558799,-0.03387 0.558799,-0.03387 0.694265,-0.03387 l 0.01693,2.607728 c -1.117598,0.474132 -1.862663,0.914398 -2.472262,1.43933 -0.931332,0.812799 -1.456264,1.710264 -1.456264,2.506129 0,0.728132 0.321733,1.38853 0.931332,1.913463 0.846665,0.728132 2.133595,1.202264 3.200393,1.202264 0.795865,0 1.405464,-0.389466 1.557864,-0.982131 0.1016,-0.338666 0.135466,-0.745066 0.135466,-1.439331 z m -1.89653,3.081861 c 0,0.558799 -0.08467,0.711198 -0.372532,0.711198 -0.321733,0 -0.745065,-0.135466 -1.083731,-0.372532 -0.389466,-0.237067 -0.558799,-0.491066 -0.558799,-0.778932 0,-0.609599 0.745065,-1.354664 2.015062,-2.031996 z M 103.6114,88.326699 c -0.89746,-1.320797 -1.87959,-2.336795 -3.35279,-3.471326 l -1.591729,1.066797 c 1.303864,0.982132 2.539999,2.319863 3.386659,3.657593 z"
         style="font-style:normal;font-variant:normal;font-weight:600;font-stretch:normal;font-size:16.9333px;font-family:'Hiragino Kaku Gothic Pro';-inkscape-font-specification:'Hiragino Kaku Gothic Pro, Semi-Bold';font-variant-ligatures:normal;font-variant-caps:normal;font-variant-numeric:normal;font-variant-east-asian:normal;fill:#502d16;fill-opacity:1;stroke-width:0.264583"
         id="path4084" />
      <path
         d="m 107.74313,84.652173 c 0.1016,0.253999 0.13547,0.355599 0.16933,0.575732 0.18627,0.948265 0.49107,2.421462 0.57573,2.675462 -1.76106,1.320797 -2.70932,3.115727 -2.70932,5.198523 0,2.285995 1.16839,3.809992 2.91252,3.809992 0.57574,0 1.04987,-0.135466 1.5748,-0.457199 0.67733,-0.389466 1.40547,-1.083731 2.01506,-1.862663 1.23613,-1.608663 2.40453,-3.996259 3.08186,-6.316121 0.69427,0.2032 1.0668,0.372533 1.524,0.728132 0.84667,0.660399 1.23613,1.507064 1.23613,2.624662 0,0.745065 -0.2032,1.456263 -0.57573,2.082795 -0.4572,0.728132 -1.2192,1.320798 -2.37066,1.811864 -0.93133,0.406399 -1.59173,0.558798 -2.76013,0.660398 0.64347,0.846665 0.79587,1.134531 1.04986,1.981196 1.30387,-0.270932 1.94733,-0.457199 2.76013,-0.812798 2.52306,-1.066798 3.96239,-3.081861 3.96239,-5.571056 0,-1.761063 -0.71119,-3.200393 -2.06586,-4.199458 -0.6604,-0.491066 -1.27,-0.761999 -2.26906,-1.015998 0.0677,-0.237066 0.28787,-1.066798 0.52493,-1.981196 0.0339,-0.1524 0.0677,-0.270933 0.16934,-0.474133 l -2.1336,-0.423332 c -0.0169,0.558799 -0.13547,1.185331 -0.49107,2.624661 -0.2032,0 -0.3556,0 -0.4572,0 -1.11759,0 -2.11666,0.2032 -3.26812,0.677332 -0.2032,-0.863598 -0.38947,-2.082796 -0.4064,-2.726261 z m 1.25306,5.266256 c 0.33867,1.405464 0.6096,2.184396 1.38853,3.894659 -0.57573,0.728132 -1.11759,1.100665 -1.59173,1.100665 -0.67733,0 -1.15146,-0.761999 -1.15146,-1.862663 0,-1.185331 0.4064,-2.133596 1.35466,-3.132661 z m 2.65853,2.235196 c -0.0169,-0.08467 -0.0339,-0.118533 -0.0847,-0.254 -0.52494,-1.33773 -0.74507,-2.031996 -1.016,-3.200393 0.89746,-0.491066 1.74413,-0.677332 2.91252,-0.677332 -0.55879,1.69333 -1.01599,2.760128 -1.69333,3.911592 -0.0508,0.08467 -0.0508,0.1016 -0.10159,0.220133 z"
         style="font-style:normal;font-variant:normal;font-weight:600;font-stretch:normal;font-size:16.9333px;font-family:'Hiragino Kaku Gothic Pro';-inkscape-font-specification:'Hiragino Kaku Gothic Pro, Semi-Bold';font-variant-ligatures:normal;font-variant-caps:normal;font-variant-numeric:normal;font-variant-east-asian:normal;fill:#502d16;fill-opacity:1;stroke-width:0.264583"
         id="path4086" />
      <path
         d="m 122.81377,87.9711 c 0.52493,-0.118533 1.30386,-0.220133 2.81092,-0.338666 3.28506,-0.237066 4.33493,-0.338666 5.70653,-0.541866 -1.10067,0.558799 -1.71027,1.015998 -2.35373,1.710263 -1.03293,1.117598 -1.60867,2.539995 -1.60867,3.979326 0,1.761063 0.8636,3.200394 2.42147,4.080925 1.03293,0.575732 2.09973,0.880532 3.96239,1.117598 0.32173,0.0508 0.3556,0.0508 0.57573,0.1016 l 0.3048,-2.302929 c -0.16933,0.01693 -0.32173,0.01693 -0.33867,0.01693 -0.60959,0 -1.69333,-0.186266 -2.52306,-0.440265 -1.4224,-0.423333 -2.25213,-1.439331 -2.25213,-2.760128 0,-1.710264 1.27,-3.403594 3.42053,-4.521191 1.08373,-0.575733 2.3368,-0.914399 3.35279,-0.914399 0.16934,0 0.16934,0 0.3556,0.01693 l -0.11853,-2.150529 c -0.27093,0.06773 -0.3556,0.06773 -1.74413,0.135466 -4.52119,0.220133 -7.41679,0.372533 -8.65292,0.440266 -2.48919,0.169333 -2.48919,0.169333 -2.79399,0.169333 -0.0847,0 -0.27093,0 -0.64347,-0.01693 z m 10.36318,1.625597 c 0.74506,0.812798 1.21919,1.49013 1.77799,2.523061 l 1.18533,-0.626532 c -0.57573,-1.049864 -1.03293,-1.69333 -1.77799,-2.489195 z m 4.97839,0.795865 c -0.52494,-0.965198 -0.99907,-1.608664 -1.76107,-2.387596 l -1.13453,0.592666 c 0.6604,0.728132 1.2192,1.523997 1.7272,2.455328 z"
         style="font-style:normal;font-variant:normal;font-weight:600;font-stretch:normal;font-size:16.9333px;font-family:'Hiragino Kaku Gothic Pro';-inkscape-font-specification:'Hiragino Kaku Gothic Pro, Semi-Bold';font-variant-ligatures:normal;font-variant-caps:normal;font-variant-numeric:normal;font-variant-east-asian:normal;fill:#502d16;fill-opacity:1;stroke-width:0.264583"
         id="path4088" />
      <path
         d="m 143.42159,84.008708 c 0.0847,0.253999 0.1016,0.287866 0.27094,1.100664 0.42333,2.082796 0.71119,3.217327 1.13453,4.588924 -1.10067,0.558799 -1.64253,0.897465 -2.30293,1.456264 -0.9652,0.812799 -1.50707,1.89653 -1.50707,3.031061 0,1.219197 0.54187,2.269062 1.4732,2.827861 1.08373,0.643465 2.55693,0.931331 4.91066,0.931331 1.18533,0 2.13359,-0.06773 3.96239,-0.253999 0.9144,-0.1016 0.99907,-0.118533 1.3716,-0.118533 l -0.18627,-2.319862 c -1.27,0.440266 -3.35279,0.694265 -5.46945,0.694265 -2.72627,0 -3.87773,-0.524932 -3.87773,-1.761063 0,-1.219198 1.23613,-2.302929 3.70839,-3.217327 1.89653,-0.694265 4.11479,-1.337731 5.58799,-1.625597 l -0.72813,-2.133596 c -0.254,0.118533 -0.33867,0.1524 -0.64347,0.254 -3.28506,1.083731 -3.28506,1.083731 -4.38572,1.49013 -0.54187,-1.727196 -1.04987,-4.165592 -1.1176,-5.300123 z"
         style="font-style:normal;font-variant:normal;font-weight:600;font-stretch:normal;font-size:16.9333px;font-family:'Hiragino Kaku Gothic Pro';-inkscape-font-specification:'Hiragino Kaku Gothic Pro, Semi-Bold';font-variant-ligatures:normal;font-variant-caps:normal;font-variant-numeric:normal;font-variant-east-asian:normal;fill:#502d16;fill-opacity:1;stroke-width:0.264583"
         id="path4090" />
      <path
         d="m 159.55903,85.735904 c 2.48919,0.626532 4.82599,0.931332 7.90785,1.066798 l 0.28786,-2.082796 c -0.20319,0 -0.38946,0 -0.47413,0 -2.67546,0 -5.18159,-0.355599 -7.06118,-0.982131 z m -1.49013,5.655722 c 1.40546,-0.575732 4.79212,-1.168397 6.70558,-1.168397 1.76107,0 2.65853,0.643465 2.65853,1.913463 0,1.168397 -0.72813,2.235195 -2.06586,2.98026 -1.30386,0.728132 -3.13266,1.202265 -5.09692,1.286931 0.52493,0.795865 0.71119,1.219198 0.88053,2.116663 2.76013,-0.440266 3.94546,-0.795865 5.33399,-1.591731 2.04893,-1.168397 3.21732,-2.92946 3.21732,-4.859857 0,-1.33773 -0.59266,-2.472261 -1.64253,-3.098794 -0.77893,-0.474132 -1.82879,-0.694265 -3.20039,-0.694265 -1.43933,0 -2.91253,0.1524 -5.31706,0.575732 -1.52399,0.270933 -1.52399,0.270933 -1.96426,0.287866 z"
         style="font-style:normal;font-variant:normal;font-weight:600;font-stretch:normal;font-size:16.9333px;font-family:'Hiragino Kaku Gothic Pro';-inkscape-font-specification:'Hiragino Kaku Gothic Pro, Semi-Bold';font-variant-ligatures:normal;font-variant-caps:normal;font-variant-numeric:normal;font-variant-east-asian:normal;fill:#502d16;fill-opacity:1;stroke-width:0.264583"
         id="path4092" />
    </g>
    <g
       id="text1539"
       style="font-weight:600;font-size:8.46667px;line-height:1.25;font-family:'Hiragino Kaku Gothic Pro';-inkscape-font-specification:'Hiragino Kaku Gothic Pro, Semi-Bold';stroke-width:0.264583" />
  </g>
</svg>
