<?xml version="1.0" encoding="UTF-8" standalone="no"?>
<svg
   xmlns:dc="http://purl.org/dc/elements/1.1/"
   xmlns:cc="http://creativecommons.org/ns#"
   xmlns:rdf="http://www.w3.org/1999/02/22-rdf-syntax-ns#"
   xmlns:svg="http://www.w3.org/2000/svg"
   xmlns="http://www.w3.org/2000/svg"
   xmlns:sodipodi="http://sodipodi.sourceforge.net/DTD/sodipodi-0.dtd"
   xmlns:inkscape="http://www.inkscape.org/namespaces/inkscape"
   width="74.465561mm"
   height="7.0273361mm"
   viewBox="0 0 74.465566 7.0273361"
   version="1.1"
   id="svg974"
   inkscape:version="1.0.1 (c497b03c, 2020-09-10)"
   sodipodi:docname="goodend_menu.svg">
  <defs
     id="defs968" />
  <sodipodi:namedview
     id="base"
     pagecolor="#ffffff"
     bordercolor="#666666"
     borderopacity="1.0"
     inkscape:pageopacity="0.0"
     inkscape:pageshadow="2"
     inkscape:zoom="1.2805867"
     inkscape:cx="64.356584"
     inkscape:cy="-129.78084"
     inkscape:document-units="mm"
     inkscape:current-layer="layer1"
     inkscape:document-rotation="0"
     showgrid="false"
     fit-margin-top="0"
     fit-margin-left="0"
     fit-margin-right="0"
     fit-margin-bottom="0"
     inkscape:window-width="1440"
     inkscape:window-height="697"
     inkscape:window-x="0"
     inkscape:window-y="25"
     inkscape:window-maximized="0" />
  <metadata
     id="metadata971">
    <rdf:RDF>
      <cc:Work
         rdf:about="">
        <dc:format>image/svg+xml</dc:format>
        <dc:type
           rdf:resource="http://purl.org/dc/dcmitype/StillImage" />
        <dc:title />
      </cc:Work>
    </rdf:RDF>
  </metadata>
  <g
     inkscape:label="レイヤー 1"
     inkscape:groupmode="layer"
     id="layer1"
     transform="translate(43.01087,-171.93609)">
    <g
       id="text978"
       style="font-weight:600;font-size:22.5778px;line-height:1.25;font-family:'Hiragino Kaku Gothic Pro';-inkscape-font-specification:'Hiragino Kaku Gothic Pro, Semi-Bold';stroke-width:0.264583" />
    <g
       aria-label="PRESS ANY KEY"
       id="text1834"
       style="font-style:normal;font-variant:normal;font-weight:600;font-stretch:normal;font-size:8.46667000000000058px;line-height:1.25;font-family:'Hiragino Kaku Gothic Pro';-inkscape-font-specification:'Hiragino Kaku Gothic Pro, Semi-Bold';font-variant-ligatures:normal;font-variant-caps:normal;font-variant-numeric:normal;font-variant-east-asian:normal;fill:#502d16;stroke-width:0.00490061;fill-opacity:1">
      <path
         d="m -41.757803,178.82796 c -0.0508,-0.32173 -0.06773,-0.64346 -0.06773,-1.10066 v -1.41394 h 1.617134 c 0.8128,0 1.388534,-0.19473 1.803401,-0.6096 0.372533,-0.38946 0.567267,-0.9144 0.567267,-1.55786 0,-0.6096 -0.1778,-1.1176 -0.524934,-1.45627 -0.4064,-0.4064 -0.982134,-0.60114 -1.803401,-0.60114 h -1.769534 c -0.448733,0 -0.7112,-0.008 -1.075267,-0.0254 0.0508,0.381 0.06773,0.68581 0.06773,1.09221 v 4.58046 c 0,0.4572 -0.01693,0.75354 -0.06773,1.0922 z m -0.06773,-3.48826 v -2.27754 h 1.617134 c 0.448734,0 0.728134,0.0931 0.922867,0.3048 0.186267,0.19474 0.2794,0.47414 0.2794,0.8128 0,0.74507 -0.423333,1.15994 -1.202267,1.15994 z"
         style="stroke-width:0.00490061;fill:#502d16;fill-opacity:1"
         id="path1858" />
      <path
         d="m -31.293528,178.82796 c -0.118533,-0.2286 -0.3302,-0.6858 -0.397933,-0.8382 -0.8382,-1.9812 -0.999067,-2.21826 -1.532467,-2.3876 0.4826,-0.13546 0.702733,-0.24553 0.9398,-0.49106 0.287867,-0.29634 0.4318,-0.71967 0.4318,-1.26154 0,-1.1176 -0.7366,-1.76107 -2.023534,-1.76107 h -2.032001 c -0.465667,0 -0.728133,-0.008 -1.083733,-0.0254 0.0508,0.39794 0.06773,0.65194 0.06773,1.10067 v 4.56354 c 0,0.51646 -0.01693,0.74506 -0.06773,1.10066 h 1.261533 c -0.0508,-0.3302 -0.06773,-0.60113 -0.06773,-1.10913 v -1.7272 h 1.261534 c 0.651933,0 0.948267,0.31327 1.405467,1.48167 0.2794,0.71966 0.423334,1.15146 0.440267,1.35466 z m -4.504268,-3.80153 v -1.97273 h 1.735667 c 0.694267,0 1.041401,0.31326 1.041401,0.92286 0,0.32174 -0.09313,0.56727 -0.270934,0.74507 -0.194733,0.19473 -0.491067,0.3048 -0.804333,0.3048 z"
         style="stroke-width:0.00490061;fill:#502d16;fill-opacity:1"
         id="path1860" />
      <path
         d="m -25.634088,177.76116 c -0.364067,0.0423 -0.609601,0.0593 -1.083734,0.0593 h -2.540001 v -1.99813 h 2.065867 c 0.524934,0 0.753534,0.008 1.100667,0.0593 v -1.10913 c -0.372533,0.0423 -0.6604,0.0593 -1.100667,0.0593 h -2.0574 v -1.74414 h 2.4384 c 0.499534,0 0.770467,0.0169 1.092201,0.0593 v -1.1176 c -0.389467,0.0423 -0.668867,0.0593 -1.092201,0.0593 h -2.556934 c -0.516467,0 -0.7366,-0.008 -1.075267,-0.0254 0.0508,0.39794 0.06773,0.65194 0.06773,1.09221 v 4.58046 c 0,0.49954 -0.01693,0.77894 -0.06773,1.1176 0.338667,-0.0169 0.567267,-0.0254 1.075267,-0.0254 h 2.641601 c 0.516467,0 0.7874,0.0169 1.092201,0.0593 z"
         style="stroke-width:0.00490061;fill:#502d16;fill-opacity:1"
         id="path1862" />
      <path
         d="m -24.85899,176.85523 c 0.0508,0.34713 0.08467,0.508 0.160867,0.70273 0.160866,0.41487 0.4064,0.7366 0.745067,0.9652 0.4064,0.27094 1.083733,0.44027 1.778,0.44027 0.905934,0 1.574801,-0.21167 2.023534,-0.64347 0.347134,-0.34713 0.533401,-0.8382 0.533401,-1.43933 0,-0.635 -0.220134,-1.10067 -0.702734,-1.45627 -0.3048,-0.21166 -0.7112,-0.37253 -1.380067,-0.51646 -0.939801,-0.21167 -1.007534,-0.2286 -1.193801,-0.3048 -0.389466,-0.16934 -0.575733,-0.41487 -0.575733,-0.77047 0,-0.55033 0.499533,-0.92287 1.236134,-0.92287 0.465666,0 0.8382,0.14394 1.058333,0.4064 0.143934,0.16934 0.2032,0.31327 0.254,0.60114 l 1.210734,-0.14394 c -0.1016,-0.44873 -0.2032,-0.70273 -0.414867,-0.98213 -0.414866,-0.5588 -1.143,-0.85514 -2.1082,-0.85514 -1.456268,0 -2.404535,0.76201 -2.404535,1.93887 0,0.56727 0.220134,1.03294 0.651934,1.3716 0.3048,0.23707 0.643467,0.37254 1.278467,0.51647 1.168401,0.27093 1.219201,0.2794 1.473201,0.41487 0.262466,0.14393 0.423333,0.4318 0.423333,0.77893 0,0.635 -0.508,1.016 -1.354667,1.016 -0.550334,0 -0.9906,-0.1778 -1.236134,-0.49953 -0.1524,-0.19474 -0.2032,-0.36407 -0.237067,-0.74507 z"
         style="stroke-width:0.00490061;fill:#502d16;fill-opacity:1"
         id="path1864" />
      <path
         d="m -18.806645,176.85523 c 0.0508,0.34713 0.08467,0.508 0.160867,0.70273 0.160867,0.41487 0.4064,0.7366 0.745067,0.9652 0.4064,0.27094 1.083734,0.44027 1.778001,0.44027 0.905933,0 1.5748,-0.21167 2.023534,-0.64347 0.347133,-0.34713 0.5334,-0.8382 0.5334,-1.43933 0,-0.635 -0.220133,-1.10067 -0.702734,-1.45627 -0.3048,-0.21166 -0.7112,-0.37253 -1.380067,-0.51646 -0.9398,-0.21167 -1.007534,-0.2286 -1.1938,-0.3048 -0.389467,-0.16934 -0.575734,-0.41487 -0.575734,-0.77047 0,-0.55033 0.499534,-0.92287 1.236134,-0.92287 0.465667,0 0.8382,0.14394 1.058334,0.4064 0.143933,0.16934 0.2032,0.31327 0.254,0.60114 l 1.210734,-0.14394 c -0.1016,-0.44873 -0.203201,-0.70273 -0.414867,-0.98213 -0.414867,-0.5588 -1.143001,-0.85514 -2.108201,-0.85514 -1.456267,0 -2.404534,0.76201 -2.404534,1.93887 0,0.56727 0.220133,1.03294 0.651933,1.3716 0.3048,0.23707 0.643467,0.37254 1.278467,0.51647 1.168401,0.27093 1.219201,0.2794 1.473201,0.41487 0.262467,0.14393 0.423333,0.4318 0.423333,0.77893 0,0.635 -0.508,1.016 -1.354667,1.016 -0.550333,0 -0.9906,-0.1778 -1.236134,-0.49953 -0.1524,-0.19474 -0.2032,-0.36407 -0.237066,-0.74507 z"
         style="stroke-width:0.00490061;fill:#502d16;fill-opacity:1"
         id="path1866" />
      <path
         d="m -3.5596278,178.82796 c -0.1185333,-0.22013 -0.2201334,-0.4572 -0.4318001,-0.99906 l -1.8796008,-4.88527 c -0.1947334,-0.51647 -0.2455334,-0.65194 -0.2878668,-0.85514 h -1.4732006 c -0.042333,0.22014 -0.1100667,0.4318 -0.2709334,0.85514 l -1.8626674,4.88527 c -0.1524001,0.38946 -0.3217331,0.77046 -0.4487331,0.99906 h 1.3885335 c 0.067733,-0.3556 0.1016,-0.4826 0.2540001,-0.889 l 0.3386668,-0.92286 h 2.7093344 l 0.3386668,0.92286 c 0.093133,0.24554 0.1862667,0.6096 0.2370668,0.889 z m -2.2690675,-2.78553 h -2.0997342 l 0.8805337,-2.50613 c 0.0254,-0.0762 0.0254,-0.0762 0.1608667,-0.47414 0.093133,0.2794 0.1185334,0.381 0.1524001,0.47414 z"
         style="stroke-width:0.00490061;fill:#502d16;fill-opacity:1"
         id="path1868" />
      <path
         d="m 2.8885348,178.82796 c -0.0508,-0.29633 -0.067733,-0.61806 -0.067733,-1.0922 v -4.47886 c 0,-0.51647 0.016933,-0.82974 0.067733,-1.16841 H 1.652401 c 0.0508,0.32174 0.067733,0.66887 0.067733,1.16841 v 2.8448 c 0,0.3556 0.0254,0.8636 0.059267,1.1938 -0.1862667,-0.33867 -0.4572002,-0.77894 -0.6604003,-1.08374 l -2.1420675,-3.2258 c -0.2878668,-0.4318 -0.4402668,-0.6858 -0.5164668,-0.89747 h -1.3208006 c 0.0508,0.34714 0.067733,0.65194 0.067733,1.09221 v 4.3688 c 0,0.57573 -0.0254,0.99906 -0.067733,1.27846 h 1.2361339 c -0.042333,-0.3048 -0.067733,-0.70273 -0.067733,-1.27 v -2.77706 c 0,-0.19474 -0.016933,-0.57574 -0.0254,-0.7366 -0.0254,-0.31327 -0.0254,-0.31327 -0.033867,-0.4318 0.2032001,0.39793 0.4148668,0.762 0.5757336,1.016 l 2.1844008,3.29353 c 0.2455335,0.37253 0.3979335,0.61807 0.5418669,0.90593 z"
         style="stroke-width:0.00490061;fill:#502d16;fill-opacity:1"
         id="path1870" />
      <path
         d="m 7.3361834,178.82796 c -0.0508,-0.32173 -0.067733,-0.66886 -0.067733,-1.0922 v -1.66793 l 1.9558008,-3.10727 c 0.1439333,-0.23706 0.4656668,-0.70273 0.5842002,-0.87207 H 8.3352505 c -0.059267,0.22014 -0.1862667,0.47414 -0.3979335,0.83821 l -1.2446005,2.07433 -1.2276671,-2.0828 C 5.2364493,172.5457 5.1263826,172.31709 5.0586492,172.08849 H 3.5769819 c 0.2709335,0.38947 0.4656669,0.66887 0.5926669,0.87207 l 1.9558008,3.0988 v 1.6764 c 0,0.4318 -0.0254,0.77047 -0.067733,1.0922 z"
         style="stroke-width:0.00490061;fill:#502d16;fill-opacity:1"
         id="path1872" />
      <path
         d="m 16.216002,174.84016 1.811867,-1.8542 c 0.372534,-0.381 0.651934,-0.65193 0.897467,-0.89747 h -1.600201 c -0.169333,0.2794 -0.3302,0.48261 -0.6604,0.82127 l -2.159001,2.24367 v -1.97273 c 0,-0.4826 0.0254,-0.81281 0.0762,-1.09221 h -1.253067 c 0.0508,0.3556 0.06773,0.63501 0.06773,1.09221 v 4.55506 c 0,0.44874 -0.01693,0.7112 -0.06773,1.0922 h 1.253067 c -0.05927,-0.3556 -0.0762,-0.59266 -0.0762,-1.0922 v -1.2446 l 0.922867,-0.92286 1.684868,2.37066 c 0.194733,0.2794 0.4064,0.635 0.5334,0.889 h 1.566334 c -0.245534,-0.27093 -0.338667,-0.38946 -0.846667,-1.07526 z"
         style="stroke-width:0.00490061;fill:#502d16;fill-opacity:1"
         id="path1874" />
      <path
         d="m 24.735985,177.76116 c -0.364067,0.0423 -0.6096,0.0593 -1.083734,0.0593 H 21.11225 v -1.99813 h 2.065868 c 0.524933,0 0.753533,0.008 1.100667,0.0593 v -1.10913 c -0.372534,0.0423 -0.660401,0.0593 -1.100667,0.0593 h -2.057401 v -1.74414 h 2.438401 c 0.499533,0 0.770467,0.0169 1.0922,0.0593 v -1.1176 c -0.389467,0.0423 -0.668867,0.0593 -1.0922,0.0593 h -2.556935 c -0.516466,0 -0.7366,-0.008 -1.075267,-0.0254 0.0508,0.39794 0.06773,0.65194 0.06773,1.09221 v 4.58046 c 0,0.49954 -0.01693,0.77894 -0.06773,1.1176 0.338667,-0.0169 0.567267,-0.0254 1.075267,-0.0254 h 2.641601 c 0.516467,0 0.787401,0.0169 1.092201,0.0593 z"
         style="stroke-width:0.00490061;fill:#502d16;fill-opacity:1"
         id="path1876" />
      <path
         d="m 28.98242,178.82796 c -0.0508,-0.32173 -0.06773,-0.66886 -0.06773,-1.0922 v -1.66793 l 1.955801,-3.10727 c 0.143934,-0.23706 0.465667,-0.70273 0.584201,-0.87207 h -1.473201 c -0.05927,0.22014 -0.186267,0.47414 -0.397934,0.83821 l -1.2446,2.07433 -1.227667,-2.0828 c -0.2286,-0.37253 -0.338667,-0.60114 -0.4064,-0.82974 h -1.481668 c 0.270934,0.38947 0.465667,0.66887 0.592667,0.87207 l 1.955801,3.0988 v 1.6764 c 0,0.4318 -0.0254,0.77047 -0.06773,1.0922 z"
         style="stroke-width:0.00490061;fill:#502d16;fill-opacity:1"
         id="path1878" />
    </g>
  </g>
</svg>
