<?xml version="1.0" encoding="UTF-8" standalone="no"?>
<svg
   xmlns:dc="http://purl.org/dc/elements/1.1/"
   xmlns:cc="http://creativecommons.org/ns#"
   xmlns:rdf="http://www.w3.org/1999/02/22-rdf-syntax-ns#"
   xmlns:svg="http://www.w3.org/2000/svg"
   xmlns="http://www.w3.org/2000/svg"
   xmlns:sodipodi="http://sodipodi.sourceforge.net/DTD/sodipodi-0.dtd"
   xmlns:inkscape="http://www.inkscape.org/namespaces/inkscape"
   width="99.917023mm"
   height="7.9247999mm"
   viewBox="0 0 99.91703 7.9247999"
   version="1.1"
   id="svg974"
   inkscape:version="1.0.1 (c497b03c, 2020-09-10)"
   sodipodi:docname="goodend_menu_jp.svg">
  <defs
     id="defs968" />
  <sodipodi:namedview
     id="base"
     pagecolor="#ffffff"
     bordercolor="#666666"
     borderopacity="1.0"
     inkscape:pageopacity="0.0"
     inkscape:pageshadow="2"
     inkscape:zoom="1.2805867"
     inkscape:cx="123.16706"
     inkscape:cy="109.13692"
     inkscape:document-units="mm"
     inkscape:current-layer="layer1"
     inkscape:document-rotation="0"
     showgrid="false"
     fit-margin-top="0"
     fit-margin-left="0"
     fit-margin-right="0"
     fit-margin-bottom="0"
     inkscape:window-width="1440"
     inkscape:window-height="697"
     inkscape:window-x="0"
     inkscape:window-y="25"
     inkscape:window-maximized="0" />
  <metadata
     id="metadata971">
    <rdf:RDF>
      <cc:Work
         rdf:about="">
        <dc:format>image/svg+xml</dc:format>
        <dc:type
           rdf:resource="http://purl.org/dc/dcmitype/StillImage" />
        <dc:title></dc:title>
      </cc:Work>
    </rdf:RDF>
  </metadata>
  <g
     inkscape:label="レイヤー 1"
     inkscape:groupmode="layer"
     id="layer1"
     transform="translate(39.149705,-148.39175)">
    <g
       aria-label="キーを何でも押して下さい"
       id="text4229"
       style="font-weight:600;font-size:8.46667px;line-height:1.25;font-family:'Hiragino Kaku Gothic Pro';-inkscape-font-specification:'Hiragino Kaku Gothic Pro, Semi-Bold';fill:#502d16;fill-opacity:1;stroke-width:0.264583">
      <path
         d="m -36.61817,150.36448 -1.574801,0.24553 c -0.3556,0.0508 -0.626534,0.0847 -0.931334,0.0931 l 0.169334,1.0414 c 0.2286,-0.0677 0.541867,-0.127 0.931333,-0.19474 l 1.574801,-0.24553 0.254,1.38853 -2.057401,0.3302 c -0.364067,0.0593 -0.6096,0.0847 -0.897467,0.0847 l 0.169334,1.0414 c 0.3048,-0.0847 0.4572,-0.11853 0.8636,-0.18627 l 2.091268,-0.3302 0.3048,1.66794 c 0.06773,0.39793 0.1016,0.635 0.110066,0.889 l 1.134534,-0.2032 c -0.09313,-0.28787 -0.1016,-0.31327 -0.2032,-0.87207 l -0.3048,-1.64253 2.015067,-0.32174 c 0.169334,-0.0254 0.279401,-0.0423 0.338667,-0.0508 0.04233,-0.008 0.08467,-0.0169 0.135467,-0.0169 0.1778,-0.0339 0.211667,-0.0339 0.389467,-0.0423 l -0.186267,-1.016 c -0.2286,0.0677 -0.524934,0.13546 -0.880534,0.19473 l -1.989667,0.31327 -0.254,-1.38854 1.786467,-0.2794 c 0.5842,-0.0931 0.5842,-0.0931 0.8128,-0.11006 l -0.1778,-1.016 c -0.220133,0.0762 -0.397933,0.11853 -0.8128,0.18626 l -1.786467,0.2794 -0.135467,-0.7366 c -0.05927,-0.3302 -0.09313,-0.57573 -0.1016,-0.79586 l -1.117601,0.1778 c 0.09313,0.23706 0.127001,0.381 0.203201,0.79586 z"
         style="fill:#502d16;fill-opacity:1;stroke-width:0.264583"
         id="path4231" />
      <path
         d="m -30.843901,152.95528 c 0.338666,-0.0423 0.4318,-0.0423 1.380067,-0.0423 h 4.495802 c 0.948267,0 1.0414,0 1.380067,0.0423 v -1.17687 c -0.372534,0.0508 -0.5334,0.0593 -1.371601,0.0593 h -4.512735 c -0.8382,0 -0.999067,-0.008 -1.3716,-0.0593 z"
         style="fill:#502d16;fill-opacity:1;stroke-width:0.264583"
         id="path4233" />
      <path
         d="m -22.047031,150.49148 c 0.05927,-0.008 0.110066,-0.008 0.135466,-0.008 0.0762,0 0.0762,0 0.237067,0.008 0.186267,0 0.931334,0.0169 1.066801,0.0169 0,0 0.110066,-0.008 0.143933,-0.008 -0.03387,0.0423 -0.03387,0.0423 -0.06773,0.11006 -0.169334,0.32174 -0.685801,1.05834 -1.016001,1.4478 -0.296333,0.34714 -0.541867,0.5842 -0.762,0.75354 l 0.770467,0.762 c 0.186267,-0.26247 0.381,-0.47414 0.7366,-0.77047 0.651934,-0.57573 1.244601,-0.87207 1.735668,-0.87207 0.3048,0 0.474133,0.14394 0.516466,0.4572 -0.956733,0.39794 -1.439333,0.71967 -1.820334,1.1938 -0.270933,0.32174 -0.372533,0.59267 -0.372533,0.9398 0,0.46567 0.2286,0.87207 0.618067,1.09221 0.4318,0.254 0.9906,0.3556 1.888067,0.3556 0.745067,0 1.557868,-0.0593 2.167468,-0.1524 0.2032,-0.0254 0.245533,-0.0339 0.389467,-0.0339 l -0.08467,-1.0922 c -0.601134,0.2286 -1.473201,0.3556 -2.489201,0.3556 -1.024467,0 -1.430867,-0.1778 -1.430867,-0.61807 0,-0.24553 0.143933,-0.47413 0.440267,-0.69427 0.1778,-0.127 0.397933,-0.24553 0.8128,-0.44026 0,0.0847 0,0.0847 0,0.2032 0,0.39793 -0.01693,0.82973 -0.0508,0.98213 l 0.982134,-0.0254 c -0.01693,-0.14393 -0.0254,-0.26247 -0.0254,-0.44873 0,-0.0593 0,-0.13547 0.0085,-0.2794 0,-0.11007 0,-0.254 0,-0.33867 0,-0.11853 0,-0.11853 -0.0085,-0.33867 v -0.0931 c 0.728133,-0.254 1.151467,-0.39793 1.27,-0.4318 0.448734,-0.127 0.702734,-0.19473 0.9398,-0.2286 l -0.397933,-0.97367 c -0.135467,0.0847 -0.169333,0.0931 -0.626534,0.254 -0.211666,0.0677 -0.643467,0.22014 -1.2954,0.4572 -0.135467,-0.5842 -0.550334,-0.89746 -1.210734,-0.89746 -0.4318,0 -0.880534,0.14393 -1.1938,0.381 -0.110067,0.0847 -0.110067,0.0847 -0.169334,0.127 l -0.0085,-0.0169 c 0.296334,-0.3048 0.533401,-0.64346 0.778934,-1.12606 0.855134,-0.0254 1.930401,-0.0931 2.548468,-0.16934 0.4318,-0.0508 0.4318,-0.0508 0.668867,-0.0677 l -0.05927,-0.9652 c -0.465667,0.13547 -1.236134,0.2286 -2.218267,0.28787 -0.465667,0.0254 -0.465667,0.0254 -0.533401,0.0339 0.01693,-0.0339 0.03387,-0.0593 0.0762,-0.1524 0.287867,-0.67733 0.287867,-0.67733 0.338667,-0.762 l -1.109134,-0.11853 c -0.03387,0.28787 -0.110066,0.54187 -0.338666,1.04987 -1.075268,0 -1.617134,-0.0339 -1.964268,-0.11007 z"
         style="fill:#502d16;fill-opacity:1;stroke-width:0.264583"
         id="path4235" />
      <path
         d="m -7.9161599,149.79721 v 5.24087 c 0,0.18627 -0.067733,0.22014 -0.4741335,0.22014 -0.3640668,0 -0.6434669,-0.0169 -1.0414004,-0.0677 0.1439334,0.31327 0.1778,0.46567 0.2370667,0.94827 0.1354667,0 0.2455335,0 0.3132668,0 0.1778001,0.008 0.3132668,0.008 0.3725335,0.008 0.5418669,0 0.8890003,-0.0339 1.1091338,-0.11854 0.2540001,-0.1016 0.3810001,-0.34713 0.3810001,-0.762 v -5.46947 c 0.2878668,0.008 0.3979335,0.008 0.6265336,0.0339 v -0.92287 c -0.2963334,0.0339 -0.6096002,0.0508 -0.9567337,0.0508 h -3.200401 c -0.389467,0 -0.694267,-0.0169 -0.973667,-0.0508 v 0.93134 c 0.237066,-0.0254 0.5588,-0.0423 0.982133,-0.0423 z m -4.3772681,0.80434 c 0.347133,-0.7874 0.4064,-0.92287 0.7366,-1.8796 l -0.931334,-0.3302 c -0.05927,0.38946 -0.220133,0.9144 -0.448733,1.43086 -0.3556,0.79587 -0.778934,1.4478 -1.371601,2.0828 0.194734,0.28787 0.313267,0.52494 0.474134,0.94827 0.2794,-0.33867 0.474133,-0.6096 0.668867,-0.9398 -0.01693,0.34713 -0.0254,0.5334 -0.0254,0.94827 v 2.3622 c 0,0.44027 -0.01693,0.75353 -0.0508,1.0922 h 0.9906 c -0.0254,-0.31327 -0.04233,-0.635 -0.04233,-1.0922 z m 3.6068011,0.71966 c 0,-0.3302 0.00847,-0.46566 0.0254,-0.6604 -0.1693334,0.0169 -0.3132668,0.0254 -0.6519336,0.0254 h -1.4732005 c -0.296333,0 -0.499534,-0.008 -0.677334,-0.0339 0.0254,0.21166 0.03387,0.38946 0.03387,0.6858 v 2.5908 c 0,0.24553 -0.0085,0.4572 -0.04233,0.66886 h 0.889 v -0.6096 h 1.2700005 c 0.3386668,0 0.4826002,0.008 0.6519336,0.0254 -0.016933,-0.19473 -0.0254,-0.3302 -0.0254,-0.6604 z m -1.8965341,0.16087 h 1.0668005 v 1.7018 h -1.0668005 z"
         style="fill:#502d16;fill-opacity:1;stroke-width:0.264583"
         id="path4237" />
      <path
         d="m -5.3592246,150.81321 c 0.2624668,-0.0593 0.6519336,-0.11006 1.4054672,-0.16933 1.642534,-0.11853 2.1674676,-0.16933 2.8532678,-0.27093 -0.5503335,0.2794 -0.8551336,0.508 -1.1768671,0.85513 -0.5164669,0.5588 -0.8043337,1.27 -0.8043337,1.98967 0,0.88053 0.4318002,1.6002 1.2107339,2.04047 0.5164668,0.28786 1.04986704,0.44026 1.98120074,0.5588 0.16086674,0.0254 0.17780008,0.0254 0.28786679,0.0508 l 0.15240006,-1.15147 c -0.0846667,0.008 -0.16086673,0.008 -0.1693334,0.008 -0.30480013,0 -0.84666701,-0.0931 -1.26153384,-0.22013 -0.71120025,-0.21167 -1.12606715,-0.71967 -1.12606715,-1.38007 0,-0.85513 0.6350003,-1.7018 1.71026738,-2.2606 0.54186689,-0.28786 1.16840047,-0.4572 1.67640072,-0.4572 0.084667,0 0.084667,0 0.1778,0.008 l -0.059267,-1.07527 c -0.1354667,0.0339 -0.1778,0.0339 -0.87206698,0.0677 -2.26060092,0.11006 -3.70840152,0.18626 -4.32646842,0.22013 -1.2446005,0.0847 -1.2446005,0.0847 -1.3970005,0.0847 -0.042333,0 -0.1354667,0 -0.3217335,-0.008 z m 5.18160206,0.8128 c 0.37253348,0.4064 0.60960025,0.74507 0.88900036,1.26154 l 0.59266688,-0.31327 c -0.2878668,-0.52493 -0.51646685,-0.84667 -0.88900033,-1.2446 z m 2.48920104,0.39794 c -0.2624668,-0.4826 -0.4995336,-0.80434 -0.8805337,-1.1938 l -0.56726692,0.29633 c 0.33020012,0.36407 0.60960022,0.762 0.86360032,1.22767 z"
         style="fill:#502d16;fill-opacity:1;stroke-width:0.264583"
         id="path4239" />
      <path
         d="m 3.3021798,152.89601 c 0.1185334,0.008 0.1439334,0.008 0.3217335,0.0508 0.3386668,0.0762 0.6688669,0.127 1.1768671,0.19474 -0.033867,0.28786 -0.042333,0.49953 -0.042333,0.71966 0,1.36314 0.8382004,2.09974 2.3791343,2.09974 0.795867,0 1.4308673,-0.18627 1.9134675,-0.5588 0.5164668,-0.39793 0.8128003,-0.98214 0.8128003,-1.58327 0,-0.38947 -0.1439334,-0.87207 -0.3640668,-1.2446 -0.093133,-0.16087 -0.1862668,-0.28787 -0.3979335,-0.5334 -0.3979335,0.14393 -0.5757336,0.1778 -1.0498671,0.21167 0.5080002,0.46566 0.7620003,0.9398 0.7620003,1.43086 0,0.82974 -0.6180669,1.30387 -1.693334,1.30387 -0.4656669,0 -0.8043337,-0.1016 -1.0498671,-0.31327 -0.2201334,-0.19473 -0.3132668,-0.4572 -0.3132668,-0.87206 0,-0.1524 0.016933,-0.37254 0.042333,-0.60114 0.3302001,0.0169 0.4064001,0.0169 0.5418668,0.0169 0.3979335,0 0.8974671,-0.0339 1.2700006,-0.0762 0.1439333,-0.0254 0.1693334,-0.0254 0.2540001,-0.0254 l 0.0254,-0.97367 c -0.4064002,0.11007 -1.0160004,0.16933 -1.617134,0.16933 -0.093133,0 -0.1608667,0 -0.4148668,-0.008 0.0508,-0.4064 0.0762,-0.57574 0.1608667,-1.1938 0.3640668,0.008 0.4402668,0.008 0.5249335,0.008 0.3048001,0 0.5757336,-0.0169 1.1853338,-0.0677 0.1862668,-0.0169 0.2286001,-0.0254 0.3386668,-0.0339 l 0.033867,-0.9906 c -0.4826002,0.11854 -0.973667,0.16087 -1.9304008,0.1778 0.1524001,-1.0414 0.1778001,-1.1684 0.2709335,-1.43086 l -1.1260671,-0.1016 c 0.00847,0.0423 0.00847,0.0593 0.00847,0.0847 0,0.254 -0.0508,0.69427 -0.1693334,1.40547 -0.5757335,-0.0508 -1.1768671,-0.16933 -1.5324672,-0.3048 l -0.084667,0.93133 c 0.127,0.0254 0.1693334,0.0339 0.2878667,0.0593 0.5757336,0.127 0.7112003,0.14393 1.2107339,0.21167 -0.042333,0.31326 -0.1185334,0.88053 -0.1524001,1.18533 -0.8636003,-0.11853 -1.1006671,-0.16933 -1.4901339,-0.32173 z"
         style="fill:#502d16;fill-opacity:1;stroke-width:0.264583"
         id="path4241" />
      <path
         d="m 12.259914,150.86401 v 1.6256 c -0.575734,0.18627 -0.821267,0.24554 -1.058334,0.2794 l 0.135467,0.95674 c 0.245533,-0.1016 0.423333,-0.16934 0.922867,-0.34714 v 1.77801 c 0,0.19473 -0.05927,0.24553 -0.2794,0.24553 -0.186267,0 -0.347134,-0.008 -0.643467,-0.0508 0.1016,0.3556 0.135467,0.52493 0.1524,0.87207 0.270933,0.0169 0.4064,0.0254 0.5842,0.0254 0.8636,0 1.075267,-0.16087 1.075267,-0.8382 v -2.35374 c 0.2794,-0.11853 0.3556,-0.14393 0.702734,-0.28787 v -0.87206 c -0.3302,0.13546 -0.397934,0.16086 -0.702734,0.2794 v -1.31234 h 0.2286 c 0.1778,0 0.296334,0.008 0.474134,0.0339 v -0.889 c -0.169334,0.0254 -0.296334,0.0339 -0.474134,0.0339 h -0.2286 v -0.70274 c 0,-0.41486 0.0085,-0.61806 0.04233,-0.85513 H 12.20911 c 0.03387,0.23707 0.0508,0.44027 0.0508,0.85513 v 0.70274 h -0.34713 c -0.237066,0 -0.397933,-0.008 -0.618067,-0.0508 v 0.9144 c 0.237067,-0.0339 0.406401,-0.0423 0.609601,-0.0423 z m 3.640668,2.80247 v 1.60867 c 0,0.4064 -0.01693,0.66887 -0.05927,1.0414 h 0.999067 c -0.04233,-0.3556 -0.0508,-0.61807 -0.0508,-1.0414 v -1.60867 h 1.016001 v 0.42333 h 0.948267 c -0.0254,-0.26246 -0.03387,-0.49953 -0.03387,-0.8382 v -3.52213 c 0,-0.4318 0.0085,-0.69427 0.03387,-0.93133 -0.2286,0.0254 -0.5588,0.0423 -0.965201,0.0423 h -2.827867 c -0.381001,0 -0.668867,-0.008 -0.897467,-0.0423 0.0254,0.254 0.03387,0.47413 0.03387,0.87206 v 3.69994 c 0,0.3302 -0.01693,0.5588 -0.03387,0.762 h 0.905933 v -0.46567 z m 0,-4.00473 v 1.15993 h -0.931334 v -1.15993 z m 0.889,0 h 1.032934 v 1.15993 h -1.032934 z m -0.889,1.9558 v 1.21073 h -0.931334 v -1.21073 z m 0.889,0 h 1.032934 v 1.21073 h -1.032934 z"
         style="fill:#502d16;fill-opacity:1;stroke-width:0.264583"
         id="path4243" />
      <path
         d="m 21.082185,148.84895 c 0.0254,0.22013 0.03387,0.33866 0.03387,0.57573 0,0.11853 0,0.29633 -0.0085,0.55033 -0.0508,2.12514 -0.06773,2.9718 -0.06773,3.41207 0,1.13453 0.245533,1.78647 0.829733,2.17594 0.3556,0.23706 0.897467,0.37253 1.481668,0.37253 1.0668,0 1.905,-0.3556 2.540001,-1.07527 0.414866,-0.46567 0.668866,-1.016 1.007533,-2.159 -0.414867,-0.18627 -0.567267,-0.2794 -1.024467,-0.65193 -0.09313,0.5842 -0.2032,0.98213 -0.389467,1.4224 -0.397933,0.93133 -1.134533,1.4478 -2.048934,1.4478 -0.5334,0 -0.9398,-0.16087 -1.134534,-0.44027 -0.169333,-0.254 -0.220133,-0.5588 -0.220133,-1.36313 0,-0.60114 0.0508,-2.31987 0.08467,-3.10727 0.03387,-0.65193 0.0508,-0.89747 0.1016,-1.143 z"
         style="fill:#502d16;fill-opacity:1;stroke-width:0.264583"
         id="path4245" />
      <path
         d="m 28.119842,150.83015 c 0.3302,-0.0677 0.8382,-0.127 1.405467,-0.16934 1.837268,-0.13546 2.167468,-0.16086 2.853268,-0.26246 -0.550334,0.2794 -0.855134,0.49953 -1.176867,0.84666 -0.516467,0.56727 -0.804334,1.27847 -0.804334,1.99814 0,0.88053 0.4318,1.6002 1.210734,2.04047 0.516467,0.28786 1.049867,0.44026 1.981201,0.5588 0.143933,0.0169 0.186267,0.0254 0.287867,0.0508 l 0.1524,-1.15147 c -0.08467,0.008 -0.160867,0.008 -0.169334,0.008 -0.3048,0 -0.846667,-0.0931 -1.261534,-0.22013 -0.7112,-0.21167 -1.126067,-0.71967 -1.126067,-1.38007 0,-0.85513 0.635001,-1.7018 1.710268,-2.2606 0.541867,-0.28786 1.1684,-0.4572 1.6764,-0.4572 0.08467,0 0.08467,0 0.1778,0.008 l -0.05927,-1.08373 c -0.1524,0.0423 -0.2794,0.0508 -0.973667,0.0847 -2.345268,0.11007 -3.750735,0.18627 -4.224869,0.21167 -1.2446,0.0847 -1.2446,0.0847 -1.397,0.0847 -0.04233,0 -0.135467,0 -0.321734,-0.008 z"
         style="fill:#502d16;fill-opacity:1;stroke-width:0.264583"
         id="path4247" />
      <path
         d="m 39.372044,149.81415 v 5.2578 c 0,0.54187 -0.01693,0.84667 -0.05927,1.1684 h 1.100667 c -0.04233,-0.3302 -0.05927,-0.62653 -0.05927,-1.1684 v -3.31047 c 0.880534,0.39793 1.786468,0.9144 2.556935,1.4478 l 0.4826,-0.84667 c -1.143001,-0.6858 -1.744134,-0.99906 -3.039535,-1.55786 v -0.9906 h 2.387601 c 0.4318,0 0.778934,0.0169 1.134534,0.0508 v -0.9906 c -0.338667,0.0339 -0.694267,0.0508 -1.134534,0.0508 H 37.42471 c -0.448734,0 -0.812801,-0.0169 -1.134534,-0.0508 v 0.9906 c 0.338667,-0.0339 0.7112,-0.0508 1.134534,-0.0508 z"
         style="fill:#502d16;fill-opacity:1;stroke-width:0.264583"
         id="path4249" />
      <path
         d="m 45.442651,151.26195 c 0.127,-0.0169 0.160867,-0.0169 0.372533,-0.0254 1.007534,-0.0169 2.260601,-0.1016 3.005668,-0.2032 0.5588,1.0414 0.567267,1.0668 0.914401,1.54093 -0.423334,-0.16933 -0.914401,-0.254 -1.464734,-0.254 -0.965201,0 -1.667934,0.19473 -2.159001,0.6096 -0.389467,0.3302 -0.609601,0.77893 -0.609601,1.26153 0,0.42334 0.177801,0.83821 0.499534,1.14301 0.4318,0.41486 1.270001,0.64346 2.353734,0.64346 0.846667,0 1.634068,-0.13546 2.683935,-0.4572 l -0.135467,-1.08373 c -0.6604,0.34713 -1.651001,0.56727 -2.548468,0.56727 -1.151467,0 -1.778,-0.30481 -1.778,-0.85514 0,-0.60113 0.677333,-0.94827 1.8288,-0.94827 0.508001,0 0.956734,0.0677 1.337734,0.19474 0.237067,0.0847 0.372534,0.16933 0.5842,0.36406 l 0.982134,-0.44873 c -0.296333,-0.39793 -0.668867,-0.94827 -0.897467,-1.33773 -0.08467,-0.1524 -0.2794,-0.508 -0.5842,-1.07527 0.702733,-0.13547 1.1176,-0.22013 1.2446,-0.254 0.287867,-0.0593 0.381001,-0.0847 0.601134,-0.11853 l -0.118533,-1.00754 c -0.448734,0.16934 -1.202268,0.34714 -2.074335,0.49954 -0.262466,-0.61807 -0.414866,-1.0668 -0.465666,-1.35467 l -1.092201,0.14393 c 0.04233,0.0677 0.4064,0.9652 0.550334,1.33774 -0.524934,0.0677 -1.651001,0.14393 -2.286001,0.14393 -0.347134,0 -0.567267,-0.008 -0.821267,-0.0423 z"
         style="fill:#502d16;fill-opacity:1;stroke-width:0.264583"
         id="path4251" />
      <path
         d="m 53.697651,149.39081 c 0.0254,0.18627 0.0254,0.24554 0.03387,0.54187 0.03387,2.34527 0.186267,3.57293 0.5334,4.4196 0.338667,0.8128 0.795867,1.22767 1.363134,1.22767 0.719667,0 1.210734,-0.6858 1.651001,-2.3368 -0.414867,-0.3048 -0.550334,-0.4318 -0.846667,-0.77047 -0.09313,0.56727 -0.245534,1.07527 -0.448734,1.53247 -0.1016,0.23706 -0.220133,0.36406 -0.347133,0.36406 -0.270934,0 -0.541867,-0.54186 -0.685801,-1.4224 -0.09313,-0.51646 -0.160866,-1.53246 -0.160866,-2.26906 0,-0.5588 0.0254,-0.97367 0.06773,-1.28694 z m 4.275669,0.80434 c 0.508,0.62653 0.9144,1.31233 1.202267,2.0828 0.296333,0.77046 0.491067,1.651 0.541867,2.44686 l 1.049867,-0.39793 c -0.245534,-1.86267 -0.838201,-3.2766 -1.905001,-4.55507 z"
         style="fill:#502d16;fill-opacity:1;stroke-width:0.264583"
         id="path4253" />
    </g>
    <g
       id="text978"
       style="font-weight:600;font-size:22.5778px;line-height:1.25;font-family:'Hiragino Kaku Gothic Pro';-inkscape-font-specification:'Hiragino Kaku Gothic Pro, Semi-Bold';stroke-width:0.264583" />
  </g>
</svg>
