<?xml version="1.0" encoding="UTF-8" standalone="no"?>
<svg
   xmlns:dc="http://purl.org/dc/elements/1.1/"
   xmlns:cc="http://creativecommons.org/ns#"
   xmlns:rdf="http://www.w3.org/1999/02/22-rdf-syntax-ns#"
   xmlns:svg="http://www.w3.org/2000/svg"
   xmlns="http://www.w3.org/2000/svg"
   xmlns:sodipodi="http://sodipodi.sourceforge.net/DTD/sodipodi-0.dtd"
   xmlns:inkscape="http://www.inkscape.org/namespaces/inkscape"
   width="423"
   height="101"
   viewBox="0 0 111.91876 26.722917"
   version="1.1"
   id="svg8"
   inkscape:version="1.0.1 (c497b03c, 2020-09-10)"
   sodipodi:docname="loading.svg">
  <defs
     id="defs2">
    <filter
       inkscape:label="Relief Print"
       inkscape:menu="Bumps"
       inkscape:menu-tooltip="Bumps effect with a bevel, color flood and complex lighting"
       style="color-interpolation-filters:sRGB"
       id="filter993">
      <feGaussianBlur
         stdDeviation="5"
         result="result8"
         id="feGaussianBlur959" />
      <feComposite
         result="result6"
         in="SourceGraphic"
         operator="in"
         in2="result8"
         id="feComposite961" />
      <feComposite
         operator="in"
         result="result11"
         in2="result6"
         id="feComposite963" />
      <feFlood
         result="result10"
         flood-opacity="1"
         flood-color="rgb(255,255,255)"
         id="feFlood965" />
      <feBlend
         mode="multiply"
         in="result10"
         in2="result11"
         result="result12"
         id="feBlend967" />
      <feComposite
         result="fbSourceGraphic"
         operator="in"
         in2="SourceGraphic"
         in="result12"
         id="feComposite969" />
      <feFlood
         result="result6"
         flood-color="rgb(75,101,154)"
         id="feFlood971" />
      <feComposite
         k3="0.3"
         k2="0.3"
         k1="0.5"
         operator="arithmetic"
         result="result2"
         in="fbSourceGraphic"
         in2="result6"
         id="feComposite973"
         k4="0" />
      <feColorMatrix
         result="fbSourceGraphicAlpha"
         in="result2"
         values="1 0 0 -1 0 1 0 1 -1 0 1 0 0 -1 0 -0.8 -1 0 3.9 -2.7 "
         type="matrix"
         id="feColorMatrix975" />
      <feGaussianBlur
         result="result0"
         in="fbSourceGraphicAlpha"
         stdDeviation="0.5"
         id="feGaussianBlur977" />
      <feDiffuseLighting
         lighting-color="#ffffff"
         diffuseConstant="0.69999999"
         surfaceScale="50"
         result="result13"
         in="result0"
         id="feDiffuseLighting981">
        <feDistantLight
           elevation="20"
           azimuth="225"
           id="feDistantLight979" />
      </feDiffuseLighting>
      <feSpecularLighting
         specularExponent="20"
         specularConstant="0.69999999"
         surfaceScale="10"
         lighting-color="#ffffff"
         result="result1"
         in="result0"
         id="feSpecularLighting985">
        <feDistantLight
           elevation="45"
           azimuth="225"
           id="feDistantLight983" />
      </feSpecularLighting>
      <feBlend
         mode="screen"
         result="result5"
         in2="SourceGraphic"
         in="result13"
         id="feBlend987" />
      <feComposite
         in="result1"
         k3="1"
         k2="1"
         operator="arithmetic"
         in2="result5"
         result="result9"
         id="feComposite989"
         k1="0"
         k4="0" />
      <feComposite
         in2="SourceGraphic"
         operator="in"
         id="feComposite991" />
    </filter>
  </defs>
  <sodipodi:namedview
     id="base"
     pagecolor="#ffffff"
     bordercolor="#666666"
     borderopacity="1.0"
     inkscape:pageopacity="0.0"
     inkscape:pageshadow="2"
     inkscape:zoom="1"
     inkscape:cx="143.42447"
     inkscape:cy="75.426318"
     inkscape:document-units="mm"
     inkscape:current-layer="layer1"
     inkscape:document-rotation="0"
     showgrid="false"
     inkscape:window-width="1440"
     inkscape:window-height="697"
     inkscape:window-x="0"
     inkscape:window-y="25"
     inkscape:window-maximized="0"
     fit-margin-top="0"
     fit-margin-left="0"
     fit-margin-right="0"
     fit-margin-bottom="0"
     units="px" />
  <metadata
     id="metadata5">
    <rdf:RDF>
      <cc:Work
         rdf:about="">
        <dc:format>image/svg+xml</dc:format>
        <dc:type
           rdf:resource="http://purl.org/dc/dcmitype/StillImage" />
        <dc:title></dc:title>
      </cc:Work>
    </rdf:RDF>
  </metadata>
  <g
     inkscape:label="レイヤー 1"
     inkscape:groupmode="layer"
     id="layer1"
     transform="translate(-27.90586,-161.60367)">
    <path
       id="rect981"
       style="opacity:1;fill:#db7607;fill-rule:evenodd;stroke:#a75600;stroke-width:0.998393;stroke-linecap:round;stroke-linejoin:round;stroke-miterlimit:4;stroke-dasharray:none;stroke-opacity:1"
       d="M 31.05078,162.10287 H 136.6797 c 1.46572,0 2.64571,1.19207 2.64571,2.6728 v 20.37893 c 0,1.48073 -1.17999,2.6728 -2.64571,2.6728 H 31.05078 c -1.465726,0 -2.645714,-1.19207 -2.645714,-2.6728 v -20.37893 c 0,-1.48073 1.179988,-2.6728 2.645714,-2.6728 z" />
    <g
       aria-label="now loading ..."
       id="text979"
       style="font-weight:600;font-size:8.46667px;line-height:1.25;font-family:'Hiragino Kaku Gothic Pro';-inkscape-font-specification:'Hiragino Kaku Gothic Pro, Semi-Bold';stroke-width:0.264583">
      <path
         d="m 53.477559,177.27279 c -0.0508,-0.36407 -0.06773,-0.6858 -0.06773,-1.10067 v -1.71027 c 0.372533,-0.8382 0.872067,-1.26153 1.481667,-1.26153 0.321734,0 0.575734,0.127 0.7112,0.34713 0.1016,0.16087 0.143934,0.38947 0.143934,0.74507 v 1.8796 c 0,0.4318 -0.01693,0.71967 -0.05927,1.10067 h 1.227667 c -0.0508,-0.31327 -0.06773,-0.635 -0.06773,-1.10067 v -2.032 c 0,-0.56727 -0.08467,-0.90593 -0.287867,-1.18533 -0.3048,-0.41487 -0.7874,-0.62654 -1.439334,-0.62654 -0.762,0 -1.210734,0.23707 -1.727201,0.89747 0.01693,-0.21167 0.01693,-0.23707 0.01693,-0.36407 v -0.44873 h -1.151467 c 0.0508,0.34713 0.06773,0.635 0.06773,1.10067 v 2.65853 c 0,0.47413 -0.01693,0.7366 -0.06773,1.10067 z"
         style="stroke-width:0.264583"
         id="path983" />
      <path
         d="m 60.291773,177.43366 c 1.507068,0 2.497668,-1.03294 2.497668,-2.59927 0,-1.56634 -0.973667,-2.5654 -2.506134,-2.5654 -1.540934,0 -2.523068,1.00753 -2.523068,2.58233 0,1.58327 0.982134,2.58234 2.531534,2.58234 z m -0.0085,-4.28414 c 0.897467,0 1.413934,0.62653 1.413934,1.71873 0,1.03294 -0.541867,1.66794 -1.422401,1.66794 -0.880534,0 -1.4224,-0.64347 -1.4224,-1.68487 0,-1.05833 0.541866,-1.7018 1.430867,-1.7018 z"
         style="stroke-width:0.264583"
         id="path985" />
      <path
         d="m 68.723916,177.27279 c 0.04233,-0.23707 0.08467,-0.39794 0.211667,-0.80434 l 0.9398,-3.00566 c 0.220133,-0.70274 0.237067,-0.77047 0.347134,-1.04987 h -1.244601 c -0.01693,0.27093 -0.08467,0.64347 -0.186267,1.00753 l -0.474133,1.69334 c -0.01693,0.0593 -0.0762,0.3302 -0.1016,0.44873 -0.0254,0.11853 -0.0254,0.11853 -0.04233,0.18627 -0.01693,-0.0762 -0.0254,-0.0847 -0.0508,-0.19474 -0.0508,-0.1778 -0.09313,-0.33866 -0.118533,-0.41486 l -0.626534,-1.92194 c -0.0762,-0.24553 -0.186266,-0.64346 -0.211666,-0.80433 h -0.905934 c -0.0254,0.16933 -0.127,0.5588 -0.211667,0.80433 l -0.6096,1.84574 c -0.03387,0.1016 -0.1778,0.60113 -0.194733,0.6858 -0.06773,-0.3302 -0.118534,-0.56727 -0.152401,-0.67734 l -0.465666,-1.651 c -0.09313,-0.3302 -0.169334,-0.762 -0.186267,-1.00753 h -1.253067 c 0.118533,0.31327 0.237066,0.6604 0.3556,1.04987 l 0.931334,3.00566 c 0.135466,0.4318 0.169333,0.5588 0.220133,0.80434 h 0.982134 c 0.03387,-0.1778 0.127,-0.51647 0.220133,-0.80434 l 0.651934,-1.9812 c 0.0254,-0.0847 0.127,-0.4318 0.169333,-0.5842 0.09313,0.34714 0.143934,0.5334 0.160867,0.56727 l 0.651933,1.99813 c 0.1016,0.3302 0.177801,0.60114 0.211667,0.80434 z"
         style="stroke-width:0.264583"
         id="path987" />
      <path
         d="m 73.656544,170.53332 c 0.04233,0.32173 0.05927,0.59267 0.05927,1.10067 v 4.53813 c 0,0.49107 -0.01693,0.7366 -0.05927,1.10067 h 1.227668 c -0.04233,-0.37254 -0.05927,-0.65194 -0.05927,-1.10067 v -4.52967 c 0,-0.508 0.01693,-0.77893 0.05927,-1.10913 z"
         style="stroke-width:0.264583"
         id="path989" />
      <path
         d="m 78.283447,177.43366 c 1.507068,0 2.497668,-1.03294 2.497668,-2.59927 0,-1.56634 -0.973667,-2.5654 -2.506134,-2.5654 -1.540934,0 -2.523068,1.00753 -2.523068,2.58233 0,1.58327 0.982134,2.58234 2.531534,2.58234 z m -0.0085,-4.28414 c 0.897467,0 1.413934,0.62653 1.413934,1.71873 0,1.03294 -0.541867,1.66794 -1.422401,1.66794 -0.880534,0 -1.422401,-0.64347 -1.422401,-1.68487 0,-1.05833 0.541867,-1.7018 1.430868,-1.7018 z"
         style="stroke-width:0.264583"
         id="path991" />
      <path
         d="m 84.844456,177.27279 h 1.143001 c -0.0508,-0.381 -0.06773,-0.6096 -0.06773,-1.05834 v -2.27753 c 0,-0.57573 -0.110066,-0.89747 -0.397933,-1.1684 -0.364067,-0.3556 -0.855134,-0.49953 -1.667934,-0.49953 -0.728134,0 -1.202267,0.127 -1.617134,0.4318 -0.321734,0.2286 -0.474134,0.44873 -0.668867,0.9398 l 1.083734,0.19473 c 0.1016,-0.3048 0.1778,-0.42333 0.338667,-0.54187 0.194733,-0.1524 0.541866,-0.24553 0.880533,-0.24553 0.643467,0 0.973667,0.254 0.973667,0.74507 v 0.4318 c -1.210734,0.0254 -1.837267,0.11006 -2.387601,0.33866 -0.5842,0.24554 -0.956733,0.77894 -0.956733,1.3716 0,0.889 0.626533,1.42241 1.659467,1.42241 0.270933,0 0.541867,-0.0339 0.7874,-0.1016 0.347134,-0.0931 0.5588,-0.21167 0.897467,-0.53341 z m 0,-1.88807 c 0,0.29633 -0.1016,0.54187 -0.3048,0.74507 -0.287867,0.2794 -0.728133,0.44873 -1.176867,0.44873 -0.474134,0 -0.770467,-0.24553 -0.770467,-0.64347 0,-0.6604 0.635,-0.9398 2.252134,-0.97366 z"
         style="stroke-width:0.264583"
         id="path993" />
      <path
         d="m 90.803008,177.27279 h 1.126067 c -0.04233,-0.37254 -0.05927,-0.64347 -0.05927,-1.143 v -4.46194 c 0,-0.4318 0.01693,-0.72813 0.05927,-1.13453 h -1.1938 c 0.04233,0.3556 0.05927,0.635 0.05927,1.143 v 0.84667 c 0,0.14393 0,0.3048 0.0085,0.36406 0.0085,0.16934 0.0085,0.16934 0.0085,0.27094 -0.186267,-0.24554 -0.2794,-0.34714 -0.431801,-0.46567 -0.3302,-0.26247 -0.762,-0.38947 -1.286933,-0.38947 -1.397001,0 -2.286001,0.98214 -2.286001,2.53154 0,0.9144 0.313267,1.68486 0.880533,2.12513 0.372534,0.29634 0.821267,0.4318 1.413934,0.4318 0.821267,0 1.270001,-0.22013 1.710268,-0.8382 -0.0085,0.11007 -0.0085,0.2032 -0.0085,0.3048 z m -2.895601,-2.42994 c 0,-1.00753 0.524933,-1.651 1.3462,-1.651 0.406401,0 0.838201,0.18627 1.100667,0.47414 0.245534,0.27093 0.406401,0.7112 0.406401,1.12606 0,0.44027 -0.118534,0.85514 -0.3302,1.13454 -0.254001,0.34713 -0.685801,0.5588 -1.134534,0.5588 -0.846667,0 -1.388534,-0.635 -1.388534,-1.64254 z"
         style="stroke-width:0.264583"
         id="path995" />
      <path
         d="m 92.987672,170.53332 v 1.07527 h 1.2446 v -1.07527 z m 0,1.8796 c 0.0508,0.34713 0.06773,0.635 0.06773,1.10067 v 2.65853 c 0,0.42333 -0.01693,0.71967 -0.06773,1.10067 h 1.236133 c -0.04233,-0.3556 -0.05927,-0.64347 -0.05927,-1.10914 v -2.6416 c 0,-0.51646 0.01693,-0.79586 0.05927,-1.10913 z"
         style="stroke-width:0.264583"
         id="path997" />
      <path
         d="m 96.505441,177.27279 c -0.0508,-0.36407 -0.06773,-0.6858 -0.06773,-1.10067 v -1.71027 c 0.372534,-0.8382 0.872067,-1.26153 1.481668,-1.26153 0.321733,0 0.575733,0.127 0.7112,0.34713 0.1016,0.16087 0.143933,0.38947 0.143933,0.74507 v 1.8796 c 0,0.4318 -0.01693,0.71967 -0.05927,1.10067 h 1.227667 c -0.0508,-0.31327 -0.06773,-0.635 -0.06773,-1.10067 v -2.032 c 0,-0.56727 -0.08467,-0.90593 -0.287866,-1.18533 -0.3048,-0.41487 -0.787401,-0.62654 -1.439334,-0.62654 -0.762001,0 -1.210734,0.23707 -1.727201,0.89747 0.01693,-0.21167 0.01693,-0.23707 0.01693,-0.36407 v -0.44873 H 95.28624 c 0.0508,0.34713 0.06773,0.635 0.06773,1.10067 v 2.65853 c 0,0.47413 -0.01693,0.7366 -0.06773,1.10067 z"
         style="stroke-width:0.264583"
         id="path999" />
      <path
         d="m 100.88972,178.05172 c 0.57574,0.65194 1.13454,0.88054 2.12514,0.88054 0.87206,0 1.5748,-0.19474 1.99813,-0.54187 0.49107,-0.41487 0.7112,-1.0668 0.7112,-2.0828 v -2.83634 c 0,-0.4572 0.0169,-0.69426 0.0593,-1.05833 h -1.13454 v 0.38947 c 0,0.0931 0,0.11006 0.0169,0.2794 -0.36407,-0.51647 -0.8636,-0.74507 -1.61714,-0.74507 -1.3716,0 -2.2606,0.94827 -2.2606,2.413 0,1.4478 0.8636,2.37067 2.2098,2.37067 0.7366,0 1.23614,-0.23707 1.65947,-0.77047 -0.0169,0.57573 -0.0762,0.87207 -0.22013,1.12607 -0.23707,0.4064 -0.7366,0.635 -1.38854,0.635 -0.6096,0 -0.98213,-0.18627 -1.31233,-0.64347 z m 1.00754,-3.2766 c 0,-1.00753 0.52493,-1.64253 1.3716,-1.64253 0.3048,0 0.5842,0.11006 0.82126,0.3048 0.33867,0.28786 0.508,0.7112 0.508,1.25306 0,0.38947 -0.0762,0.70274 -0.23706,0.9652 -0.23707,0.39794 -0.7112,0.66887 -1.17687,0.66887 -0.32173,0 -0.6858,-0.1524 -0.89747,-0.381 -0.254,-0.254 -0.38946,-0.66887 -0.38946,-1.1684 z"
         style="stroke-width:0.264583"
         id="path1001" />
      <path
         d="m 110.9091,177.27279 v -1.23614 h -1.23613 v 1.23614 z"
         style="stroke-width:0.264583"
         id="path1003" />
      <path
         d="m 113.19113,177.27279 v -1.23614 H 111.955 v 1.23614 z"
         style="stroke-width:0.264583"
         id="path1005" />
      <path
         d="m 115.47316,177.27279 v -1.23614 h -1.23613 v 1.23614 z"
         style="stroke-width:0.264583"
         id="path1007" />
    </g>
  </g>
</svg>
