<?xml version="1.0" encoding="UTF-8" standalone="no"?>
<svg
   xmlns:dc="http://purl.org/dc/elements/1.1/"
   xmlns:cc="http://creativecommons.org/ns#"
   xmlns:rdf="http://www.w3.org/1999/02/22-rdf-syntax-ns#"
   xmlns:svg="http://www.w3.org/2000/svg"
   xmlns="http://www.w3.org/2000/svg"
   xmlns:sodipodi="http://sodipodi.sourceforge.net/DTD/sodipodi-0.dtd"
   xmlns:inkscape="http://www.inkscape.org/namespaces/inkscape"
   width="112.96812mm"
   height="32.477993mm"
   viewBox="0 0 112.96813 32.477993"
   version="1.1"
   id="svg8"
   inkscape:version="1.0.1 (c497b03c, 2020-09-10)"
   sodipodi:docname="stage_title_start_title.svg">
  <defs
     id="defs2">
    <filter
       inkscape:label="Relief Print"
       inkscape:menu="Bumps"
       inkscape:menu-tooltip="Bumps effect with a bevel, color flood and complex lighting"
       style="color-interpolation-filters:sRGB"
       id="filter993">
      <feGaussianBlur
         stdDeviation="5"
         result="result8"
         id="feGaussianBlur959" />
      <feComposite
         result="result6"
         in="SourceGraphic"
         operator="in"
         in2="result8"
         id="feComposite961" />
      <feComposite
         operator="in"
         result="result11"
         in2="result6"
         id="feComposite963" />
      <feFlood
         result="result10"
         flood-opacity="1"
         flood-color="rgb(255,255,255)"
         id="feFlood965" />
      <feBlend
         mode="multiply"
         in="result10"
         in2="result11"
         result="result12"
         id="feBlend967" />
      <feComposite
         result="fbSourceGraphic"
         operator="in"
         in2="SourceGraphic"
         in="result12"
         id="feComposite969" />
      <feFlood
         result="result6"
         flood-color="rgb(75,101,154)"
         id="feFlood971" />
      <feComposite
         k3="0.3"
         k2="0.3"
         k1="0.5"
         operator="arithmetic"
         result="result2"
         in="fbSourceGraphic"
         in2="result6"
         id="feComposite973"
         k4="0" />
      <feColorMatrix
         result="fbSourceGraphicAlpha"
         in="result2"
         values="1 0 0 -1 0 1 0 1 -1 0 1 0 0 -1 0 -0.8 -1 0 3.9 -2.7 "
         type="matrix"
         id="feColorMatrix975" />
      <feGaussianBlur
         result="result0"
         in="fbSourceGraphicAlpha"
         stdDeviation="0.5"
         id="feGaussianBlur977" />
      <feDiffuseLighting
         lighting-color="#ffffff"
         diffuseConstant="0.69999999"
         surfaceScale="50"
         result="result13"
         in="result0"
         id="feDiffuseLighting981">
        <feDistantLight
           elevation="20"
           azimuth="225"
           id="feDistantLight979" />
      </feDiffuseLighting>
      <feSpecularLighting
         specularExponent="20"
         specularConstant="0.69999999"
         surfaceScale="10"
         lighting-color="#ffffff"
         result="result1"
         in="result0"
         id="feSpecularLighting985">
        <feDistantLight
           elevation="45"
           azimuth="225"
           id="feDistantLight983" />
      </feSpecularLighting>
      <feBlend
         mode="screen"
         result="result5"
         in2="SourceGraphic"
         in="result13"
         id="feBlend987" />
      <feComposite
         in="result1"
         k3="1"
         k2="1"
         operator="arithmetic"
         in2="result5"
         result="result9"
         id="feComposite989"
         k1="0"
         k4="0" />
      <feComposite
         in2="SourceGraphic"
         operator="in"
         id="feComposite991" />
    </filter>
  </defs>
  <sodipodi:namedview
     id="base"
     pagecolor="#ffffff"
     bordercolor="#666666"
     borderopacity="1.0"
     inkscape:pageopacity="0.0"
     inkscape:pageshadow="2"
     inkscape:zoom="1.2422672"
     inkscape:cx="162.60889"
     inkscape:cy="92.449839"
     inkscape:document-units="mm"
     inkscape:current-layer="layer1"
     inkscape:document-rotation="0"
     showgrid="false"
     inkscape:window-width="1440"
     inkscape:window-height="697"
     inkscape:window-x="0"
     inkscape:window-y="25"
     inkscape:window-maximized="0"
     fit-margin-top="0"
     fit-margin-left="0"
     fit-margin-right="0"
     fit-margin-bottom="0" />
  <metadata
     id="metadata5">
    <rdf:RDF>
      <cc:Work
         rdf:about="">
        <dc:format>image/svg+xml</dc:format>
        <dc:type
           rdf:resource="http://purl.org/dc/dcmitype/StillImage" />
        <dc:title />
      </cc:Work>
    </rdf:RDF>
  </metadata>
  <g
     inkscape:label="レイヤー 1"
     inkscape:groupmode="layer"
     id="layer1"
     transform="translate(-27.19616,-157.09953)">
    <path
       d="m 33.353126,169.83324 c 3.115736,0.79022 4.876805,1.06115 9.369787,1.33209 l 0.428978,-2.52872 c -3.499559,-0.0677 -6.434673,-0.47413 -8.985964,-1.26435 z m -1.828802,6.096 c 0.745067,-0.0903 0.903112,-0.11289 1.738491,-0.18062 0.745067,-0.0677 0.745067,-0.0677 1.174045,-0.11289 1.964269,-0.15804 1.964269,-0.15804 2.280358,-0.18062 1.061157,-0.0903 1.648179,-0.18062 2.935114,-0.38382 -1.151468,1.08373 -2.032002,1.91911 -2.641603,2.50613 -1.693335,1.6256 -2.099735,2.00943 -2.619024,2.48356 -4.244627,3.83823 -4.244627,3.83823 -5.23805,4.51556 l 2.077157,2.34809 c 0.812801,-0.94827 2.032003,-2.25778 3.18347,-3.36409 1.828802,-1.76107 2.844803,-2.39325 3.90596,-2.39325 0.428978,0 0.790223,0.18062 0.948268,0.47414 0.135466,0.27093 0.180622,0.58702 0.225778,1.44497 0.112889,1.78365 0.293511,2.32552 0.925689,2.91254 0.654757,0.6096 1.557869,0.85796 3.160892,0.85796 0.970846,0 1.783647,-0.0677 3.160893,-0.27094 1.467557,-0.22577 1.603023,-0.24835 1.986846,-0.27093 l -0.338667,-2.79965 c -1.174046,0.51929 -2.935114,0.85796 -4.447827,0.85796 -1.490135,0 -1.783646,-0.31609 -1.941691,-2.09974 -0.09031,-1.26435 -0.180622,-1.58044 -0.496711,-2.07715 -0.428978,-0.65476 -1.016001,-0.94827 -1.873958,-0.94827 -0.519289,0 -0.8128,0.0677 -1.377246,0.27093 0.699912,-0.54186 2.641603,-2.28036 3.860804,-3.4544 1.016001,-0.99342 1.490135,-1.39982 1.919113,-1.69334 l -1.512712,-1.94169 c -0.383823,0.18063 -0.790223,0.24836 -1.806224,0.36125 -2.822225,0.31609 -5.825073,0.49671 -8.015119,0.49671 -0.496712,0 -0.72249,0 -1.332091,-0.0677 z"
       style="font-weight:600;font-size:22.5778px;line-height:1.25;font-family:'Hiragino Kaku Gothic Pro';-inkscape-font-specification:'Hiragino Kaku Gothic Pro, Semi-Bold';fill:#ff5555;stroke:#ab4e00;stroke-width:0.264583;stroke-opacity:1;filter:url(#filter993)"
       id="path1014"
       transform="matrix(0.66784164,0,0,0.66784164,10.067506,62.451415)" />
    <path
       d="m 52.137856,171.77493 c 0.248356,-0.0452 0.270934,-0.0452 0.564445,-0.0677 2.46098,-0.2032 2.46098,-0.2032 3.770493,-0.42897 l 0.293511,-0.0677 c 0.04516,-0.0226 0.158045,-0.0451 0.338667,-0.0677 -0.158044,0.13547 -0.180622,0.15804 -0.248356,0.24835 -0.293511,0.27094 -0.293511,0.27094 -0.383822,0.33867 -0.835379,0.8128 -1.761069,1.98685 -2.280358,2.91254 -0.993423,1.69333 -1.557868,3.68018 -1.557868,5.44125 0,2.4384 1.061156,4.60587 2.799647,5.75734 1.038579,0.67733 2.46098,1.06115 3.883382,1.06115 4.267204,0 7.337785,-3.4544 7.337785,-8.30863 0,-1.55787 -0.09031,-2.32551 -0.474134,-3.95111 1.354668,2.25778 2.122313,3.2512 3.612448,4.62845 0.180623,0.15804 0.293512,0.27093 0.338667,0.29351 0.02258,0.0452 0.09031,0.11289 0.180623,0.2032 l 1.399823,-2.68676 C 69.251829,175.568 66.67796,172.0007 65.684536,168.7495 l -2.709336,0.79022 c 0.72249,1.62561 1.219202,4.33494 1.219202,6.86366 0,2.05458 -0.248356,3.52213 -0.835379,4.92196 -0.72249,1.73849 -2.280358,2.79964 -4.131738,2.79964 -2.302935,0 -3.860804,-1.64818 -3.860804,-4.08658 0,-2.14489 0.993424,-4.42525 2.912537,-6.68303 0.948267,-1.12889 1.693335,-1.78364 2.777069,-2.46098 l -1.422401,-2.4384 c -0.948268,0.4064 -3.770493,0.72249 -6.412096,0.72249 -0.519289,0 -0.699911,-0.0226 -1.12889,-0.0677 z m 13.930503,-3.58987 c 0.993423,1.08373 1.625602,1.98684 2.370669,3.36409 l 1.580446,-0.83538 c -0.767645,-1.39982 -1.377246,-2.25778 -2.370669,-3.31894 z m 6.637873,1.06115 c -0.699911,-1.28693 -1.33209,-2.14489 -2.348091,-3.18347 l -1.512712,0.79023 c 0.880534,0.97084 1.625601,2.032 2.302935,3.27378 z"
       style="font-weight:600;font-size:22.5778px;line-height:1.25;font-family:'Hiragino Kaku Gothic Pro';-inkscape-font-specification:'Hiragino Kaku Gothic Pro, Semi-Bold';fill:#ff5555;stroke:#ab4e00;stroke-width:0.264583;stroke-opacity:1;filter:url(#filter993)"
       id="path1016"
       transform="matrix(0.66784164,0,0,0.66784164,12.713341,62.451415)" />
    <path
       d="m 75.076902,173.15217 c 0.09031,0 0.158044,0 0.180622,0 0.180622,0 0.4064,0 0.72249,0.0226 1.196623,0.0903 2.212624,0.13547 3.409247,0.15804 -0.316089,1.10632 -1.151467,3.29636 -1.896535,5.01228 -0.338667,0.79022 -0.722489,1.49013 -1.061156,2.032 l 2.731913,0.94827 c 0.406401,-0.56445 0.812801,-0.90312 1.64818,-1.30952 1.444979,-0.69991 3.18347,-1.10631 4.854227,-1.10631 2.438403,0 3.793071,0.76765 3.793071,2.16747 0,1.80622 -2.122314,2.95769 -5.396095,2.95769 -1.896535,0 -3.79307,-0.36124 -5.825072,-1.08373 0.2032,1.12889 0.225778,1.58044 0.225778,2.86738 1.761068,0.51929 3.747915,0.79022 5.757339,0.79022 4.944538,0 8.173164,-2.16747 8.173164,-5.50898 0,-2.86738 -2.370669,-4.5833 -6.344362,-4.5833 -2.212625,0 -4.176893,0.49672 -5.689606,1.46756 v -0.0452 c 0.451556,-0.8128 1.309512,-2.98027 1.783646,-4.5833 2.822225,-0.0677 4.809072,-0.22578 8.082853,-0.58702 0.587023,-0.0677 0.790223,-0.0903 1.309512,-0.11289 l -0.135467,-2.73191 c -0.790223,0.22578 -1.219201,0.31609 -2.889958,0.51929 -1.490135,0.18062 -4.041426,0.36124 -5.757339,0.4064 0.135467,-0.42898 0.135467,-0.42898 0.541867,-2.12232 0.225778,-0.90311 0.225778,-0.90311 0.361245,-1.30951 l -3.025426,-0.24835 c -0.04515,0.97084 -0.2032,1.91911 -0.632178,3.72533 -2.325513,0 -3.838226,-0.11289 -4.876805,-0.38382 z"
       style="font-weight:600;font-size:22.5778px;line-height:1.25;font-family:'Hiragino Kaku Gothic Pro';-inkscape-font-specification:'Hiragino Kaku Gothic Pro, Semi-Bold';fill:#ff5555;stroke:#ab4e00;stroke-width:0.264583;stroke-opacity:1;filter:url(#filter993)"
       id="path1018"
       transform="matrix(1.1211241,0,0,1.1211241,-8.8838673,-21.904067)" />
    <path
       d="m 109.23711,167.10132 c -0.38382,0.56445 -0.63218,0.85796 -1.64818,1.87396 -1.51271,1.46756 -2.77707,2.55129 -5.21547,4.40267 -1.67076,1.28694 -1.69334,1.30951 -1.98685,1.6256 -0.496709,0.54187 -0.745065,1.15147 -0.745065,1.8288 0,1.03858 0.406405,1.64818 1.896535,2.79965 3.47698,2.70934 4.22205,3.31894 5.82507,4.80907 1.53529,1.4224 2.34809,2.28036 2.93512,3.09316 l 2.32551,-2.34809 c -0.29351,-0.22578 -0.42898,-0.33867 -0.65476,-0.56444 -2.93511,-2.66419 -3.58987,-3.22863 -7.112,-5.89281 -1.98685,-1.49014 -2.03201,-1.53529 -2.03201,-1.87396 0,-0.24835 0.15805,-0.42898 0.85796,-0.94827 2.6416,-2.00942 4.22205,-3.27378 5.37352,-4.33493 1.96427,-1.82881 2.39324,-2.21263 2.77707,-2.48356 z"
       style="font-weight:600;font-size:22.5778px;line-height:1.25;font-family:'Hiragino Kaku Gothic Pro';-inkscape-font-specification:'Hiragino Kaku Gothic Pro, Semi-Bold';fill:#ff5555;stroke:#ab4e00;stroke-width:0.264583;stroke-opacity:1;filter:url(#filter993)"
       id="path1020"
       transform="matrix(1.1211241,0,0,1.1211241,-13.117202,-21.904067)" />
    <path
       d="m 119.59362,183.0864 c 0.29351,-0.45155 0.92569,-1.15146 1.73849,-1.94169 0.67733,-0.65475 0.83538,-0.83537 0.99342,-1.06115 h 0.0452 c -0.0452,0.45155 -0.0452,0.69991 -0.0452,1.33209 v 2.00942 c 0,2.28036 -0.0226,2.93512 -0.13546,3.61245 h 2.93511 c -0.11289,-0.99342 -0.18062,-3.52214 -0.18062,-6.75076 l 0.0226,-2.34809 c 2.48355,-2.25778 4.69618,-3.40925 6.57014,-3.40925 2.37067,0 3.8608,1.51271 3.8608,3.92854 0,2.75449 -1.89653,4.6736 -4.60587,4.6736 -1.35467,0 -2.75449,-0.29351 -4.01885,-0.83538 0.36125,1.24178 0.42898,1.73849 0.42898,2.93512 1.15147,0.33866 2.21262,0.49671 3.36409,0.49671 1.53529,0 2.86738,-0.29351 4.01885,-0.85796 2.2352,-1.15147 3.58987,-3.54471 3.58987,-6.38952 0,-1.8288 -0.6096,-3.47698 -1.73849,-4.65102 -1.12889,-1.15147 -2.77707,-1.85138 -4.40267,-1.85138 -2.21263,0 -4.04143,0.69991 -6.50241,2.48356 -0.29351,0.2032 -0.45155,0.33866 -0.54187,0.42897 l -0.0452,0.0226 c 0.0226,-0.0677 0.0452,-0.56444 0.0903,-1.53529 0.8128,-1.016 0.97085,-1.19662 1.28693,-1.46756 l -0.85795,-0.92569 c -0.11289,0.0677 -0.15805,0.0677 -0.31609,0.11289 0,-0.22578 0,-0.22578 0,-0.4064 0.0451,-0.63218 0.0451,-0.63218 0.0677,-1.06115 0.0903,-1.55787 0.0903,-1.58045 0.22578,-2.16747 l -2.91254,-0.0226 c 0.0677,0.45156 0.0903,0.63218 0.0903,0.99342 0,0.0226 0,0.11289 0,0.22578 0,0.2032 -0.0226,0.51929 -0.0226,0.94827 0,0.8128 -0.0226,1.10631 -0.0677,1.69333 -1.26435,0.0903 -2.50613,0.15805 -2.91253,0.15805 -0.2032,0 -0.38382,-0.0226 -0.74507,-0.0452 l 0.15804,2.55129 c 0.69992,-0.13546 0.69992,-0.13546 3.43183,-0.33866 -0.0451,1.85138 -0.0451,1.87395 -0.0903,3.2512 -2.68676,2.48356 -3.56729,3.2512 -4.08658,3.61245 z"
       style="font-weight:600;font-size:22.5778px;line-height:1.25;font-family:'Hiragino Kaku Gothic Pro';-inkscape-font-specification:'Hiragino Kaku Gothic Pro, Semi-Bold';fill:#ff5555;stroke:#ab4e00;stroke-width:0.264583;stroke-opacity:1;filter:url(#filter993)"
       id="path1022"
       transform="matrix(1.1211241,0,0,1.1211241,-16.821371,-21.904067)" />
    <g
       aria-label="新居浜名物"
       id="text953"
       style="font-style:normal;font-variant:normal;font-weight:300;font-stretch:normal;font-size:8.46667px;line-height:1.25;font-family:'Hiragino Kaku Gothic Pro';-inkscape-font-specification:'Hiragino Kaku Gothic Pro, Light';font-variant-ligatures:normal;font-variant-caps:normal;font-variant-numeric:normal;font-variant-east-asian:normal;fill:#ff5555;stroke-width:0.264583"
       transform="translate(0,7.4083337)">
      <path
         d="m 35.185758,159.9274 v -1.4478 c 1.0922,-0.1778 1.735667,-0.33867 2.438401,-0.62653 0.220133,-0.0931 0.2286,-0.0931 0.3048,-0.11854 l -0.4318,-0.47413 c -0.211667,0.1524 -0.423334,0.24553 -0.778934,0.36407 -0.694267,0.22013 -1.557867,0.38946 -2.006601,0.38946 -0.01693,0 -0.05927,0 -0.1016,0 0.0254,0.24554 0.04233,0.6096 0.04233,1.56634 0,2.82787 -0.254,4.0132 -1.066801,5.01227 0.211667,0.11006 0.3048,0.18626 0.4826,0.3556 0.287867,-0.38947 0.457201,-0.7112 0.626534,-1.15994 0.296334,-0.77046 0.474134,-1.91346 0.4826,-3.03953 0,-0.22013 0,-0.22013 0,-0.3302 h 1.329267 v 3.69147 c 0,0.41486 -0.01693,0.62653 -0.0508,0.84666 h 0.651934 c -0.04233,-0.21166 -0.0508,-0.42333 -0.0508,-0.84666 v -3.69147 h 0.313267 c 0.347133,0 0.5334,0.008 0.745067,0.0423 v -0.5842 c -0.194734,0.0339 -0.397934,0.0508 -0.778934,0.0508 z m -2.497668,-1.88807 v -0.2286 c 0,-0.2794 0.0085,-0.41486 0.04233,-0.59266 h -0.618067 c 0.03387,0.18626 0.04233,0.32173 0.04233,0.59266 v 0.2286 h -0.846667 c -0.372533,0 -0.550334,-0.008 -0.745067,-0.0423 v 0.56727 c 0.220134,-0.0339 0.381,-0.0423 0.7366,-0.0423 h 2.167468 c 0.3302,0 0.491067,0.008 0.719667,0.0423 v -0.5673 c -0.2032,0.0339 -0.364067,0.0423 -0.7112,0.0423 z m -1.591734,1.94734 c -0.338667,0 -0.516467,-0.008 -0.702733,-0.0423 v 0.56726 c 0.194733,-0.0339 0.372533,-0.0423 0.702733,-0.0423 h 2.514601 c 0.3048,0 0.474134,0.008 0.685801,0.0423 v -0.56726 c -0.194734,0.0339 -0.364067,0.0423 -0.685801,0.0423 h -0.499533 c 0.194733,-0.3302 0.372533,-0.71967 0.575733,-1.22767 l -0.508,-0.16087 c -0.118533,0.508 -0.270933,0.88901 -0.567267,1.38854 z m 0.880534,1.88807 c -0.237067,0.44026 -0.364067,0.61806 -0.618067,0.90593 -0.313267,0.34713 -0.677334,0.65193 -1.100667,0.93133 0.135467,0.14394 0.2286,0.2794 0.321733,0.47414 0.770467,-0.59267 1.253068,-1.15147 1.600201,-1.8796 -0.01693,0.2794 -0.0254,0.49953 -0.0254,0.70273 v 1.20227 c 0,0.2794 -0.01693,0.508 -0.0508,0.72813 h 0.5842 c -0.03387,-0.2286 -0.04233,-0.4318 -0.04233,-0.72813 v -1.22767 c -0.0085,-0.31327 -0.01693,-0.5588 -0.03387,-0.74507 0.3302,0.508 0.508,0.70274 1.058334,1.1684 0.1016,-0.19473 0.160867,-0.29633 0.296333,-0.4572 -0.635,-0.4064 -0.872067,-0.62653 -1.1938,-1.07526 h 0.804334 c 0.321733,0 0.491066,0.008 0.6858,0.0423 v -0.55033 c -0.220134,0.0423 -0.389467,0.0508 -0.6858,0.0508 h -0.931334 v -0.44874 c 0,-0.11006 0.0085,-0.24553 0.03387,-0.34713 H 32.11236 c 0.0254,0.1016 0.04233,0.23707 0.04233,0.34713 v 0.44874 h -1.032934 c -0.347133,0 -0.516467,-0.008 -0.7112,-0.0508 v 0.5588 c 0.2032,-0.0423 0.364067,-0.0508 0.694267,-0.0508 z m 0.0085,-2.12514 c -0.143934,-0.46567 -0.245534,-0.71967 -0.482601,-1.143 l -0.448733,0.16933 c 0.2286,0.39794 0.338667,0.66041 0.4826,1.13454 z"
         style="font-style:normal;font-variant:normal;font-weight:300;font-stretch:normal;font-size:8.46667px;font-family:'Hiragino Kaku Gothic Pro';-inkscape-font-specification:'Hiragino Kaku Gothic Pro, Light';font-variant-ligatures:normal;font-variant-caps:normal;font-variant-numeric:normal;font-variant-east-asian:normal;fill:#ff5555;stroke-width:0.264583"
         id="path1003" />
      <path
         d="m 42.890428,161.05347 v 1.08373 H 41.61196 c -0.313266,0 -0.448733,-0.008 -0.694266,-0.0339 0.0254,0.2286 0.03387,0.44026 0.03387,0.77046 v 1.27 c 0,0.33867 -0.0085,0.5334 -0.04233,0.77894 h 0.567267 v -0.4064 h 3.691468 v 0.4064 h 0.575733 c -0.03387,-0.254 -0.0508,-0.51647 -0.0508,-0.8382 v -1.21074 c 0,-0.3302 0.0085,-0.5588 0.03387,-0.77046 -0.237067,0.0254 -0.423333,0.0339 -0.778934,0.0339 h -1.515533 v -1.08373 h 2.023534 c 0.347133,0 0.592667,0.0169 0.8636,0.0508 v -0.57573 c -0.262467,0.0339 -0.491067,0.0508 -0.855134,0.0508 h -2.032 v -0.94827 h 1.684867 c 0.347133,0 0.575733,0.008 0.8382,0.0254 -0.01693,-0.22013 -0.0254,-0.3556 -0.0254,-0.62654 v -0.8128 c 0,-0.26246 0.0085,-0.44873 0.0254,-0.65193 -0.237067,0.0254 -0.4826,0.0339 -0.889,0.0339 h -4.275669 c -0.440266,0 -0.719666,-0.008 -1.024467,-0.0339 0.03387,0.31327 0.04233,0.56727 0.04233,1.3208 0,1.82034 -0.110067,3.18347 -0.321734,4.02167 -0.135466,0.5334 -0.313266,0.9398 -0.651933,1.46473 0.186266,0.13547 0.313266,0.254 0.4572,0.44027 0.651933,-1.13453 0.8636,-1.94733 0.982134,-3.7592 z m 0,-0.47413 h -2.590801 c 0.0085,-0.27094 0.01693,-0.49107 0.0254,-0.94827 h 2.565401 z m -2.556935,-1.42241 v -1.08373 h 5.071536 v 1.08373 z m 1.143001,3.44594 h 3.691468 v 1.43933 h -3.691468 z"
         style="font-style:normal;font-variant:normal;font-weight:300;font-stretch:normal;font-size:8.46667px;font-family:'Hiragino Kaku Gothic Pro';-inkscape-font-specification:'Hiragino Kaku Gothic Pro, Light';font-variant-ligatures:normal;font-variant-caps:normal;font-variant-numeric:normal;font-variant-east-asian:normal;fill:#ff5555;stroke-width:0.264583"
         id="path1005" />
      <path
         d="m 53.304432,162.02714 v -1.91347 h 0.575733 c 0.321734,0 0.516467,0.008 0.795867,0.0423 v -0.5842 c -0.211666,0.0339 -0.414866,0.0508 -0.795867,0.0508 h -3.302001 v -1.13453 c 1.490134,-0.127 2.667001,-0.3556 3.716868,-0.7366 l -0.423333,-0.46567 c -0.245534,0.14393 -0.736601,0.31327 -1.320801,0.44027 -0.728133,0.16086 -1.854201,0.3048 -2.404534,0.3048 -0.03387,0 -0.0762,0 -0.135467,-0.008 0.0254,0.2286 0.03387,0.56727 0.03387,1.02447 v 2.98027 H 49.79923 c -0.296333,0 -0.508,-0.0169 -0.745067,-0.0508 v 0.56726 c 0.237067,-0.0254 0.457201,-0.0339 0.787401,-0.0339 h 4.267201 c 0.313267,0 0.558801,0.0169 0.795867,0.0423 v -0.57573 c -0.211666,0.0423 -0.4064,0.0508 -0.795867,0.0508 z m -0.5334,0 h -2.192868 v -1.91347 h 2.192868 z m -5.147736,-4.22487 c 0.541867,0.3556 0.838201,0.61806 1.337734,1.1684 l 0.364067,-0.41487 c -0.474134,-0.49107 -0.804334,-0.762 -1.354667,-1.13453 z m -0.381,2.09127 c 0.592667,0.32173 0.889,0.54186 1.430867,1.04986 l 0.3048,-0.46566 c -0.4826,-0.4064 -0.8128,-0.635 -1.430867,-0.9906 z m 1.143001,1.92193 c -0.347134,1.2192 -0.762001,2.16747 -1.159934,2.63313 l 0.516467,0.4064 c 0.06773,-0.14393 0.1524,-0.31326 0.245533,-0.508 0.321733,-0.64346 0.567267,-1.27 0.855134,-2.22673 z m 3.860801,1.38853 c 0.448734,0.4572 0.668867,0.65194 1.0668,0.93134 0.423334,0.31326 0.702734,0.47413 1.329268,0.762 0.135466,-0.24554 0.1778,-0.3048 0.3556,-0.49107 -0.643467,-0.24553 -0.939801,-0.39793 -1.413934,-0.71967 -0.364067,-0.254 -0.5334,-0.4064 -0.880534,-0.7874 z m -1.557867,-0.31326 c -0.3048,0.38946 -0.4572,0.54186 -0.821267,0.80433 -0.423334,0.31327 -0.694267,0.46567 -1.286934,0.7112 0.169333,0.16087 0.237067,0.23707 0.3556,0.44873 0.9906,-0.49106 1.507067,-0.88053 2.218268,-1.65946 z"
         style="font-style:normal;font-variant:normal;font-weight:300;font-stretch:normal;font-size:8.46667px;font-family:'Hiragino Kaku Gothic Pro';-inkscape-font-specification:'Hiragino Kaku Gothic Pro, Light';font-variant-ligatures:normal;font-variant-caps:normal;font-variant-numeric:normal;font-variant-east-asian:normal;fill:#ff5555;stroke-width:0.264583"
         id="path1007" />
      <path
         d="m 57.952633,159.75807 c 0.601133,0.381 0.8128,0.54187 1.227667,0.9398 -1.049867,0.84667 -2.023534,1.40547 -3.335868,1.905 0.1778,0.18627 0.245533,0.29633 0.338667,0.49953 0.795867,-0.3556 1.312334,-0.62653 1.888067,-0.9906 v 2.04894 c 0,0.2286 -0.01693,0.5334 -0.0508,0.75353 h 0.592667 v -0.47413 h 3.539068 v 0.47413 h 0.592667 c -0.03387,-0.18627 -0.0508,-0.49107 -0.0508,-0.75353 v -2.04894 c 0,-0.27093 0.0085,-0.47413 0.04233,-0.67733 -0.1778,0.0254 -0.338667,0.0339 -0.6096,0.0339 H 59.01943 c 1.143001,-0.84667 1.972734,-1.6764 2.726268,-2.70087 0.1524,-0.2032 0.194733,-0.26247 0.287867,-0.36407 l -0.3048,-0.36407 c -0.228601,0.0254 -0.457201,0.0423 -0.787401,0.0423 H 59.0787 c 0.160867,-0.21167 0.160867,-0.21167 0.550333,-0.762 L 59.0533,157.09953 c -0.160867,0.38947 -0.4572,0.80434 -0.939801,1.3462 -0.567266,0.62654 -1.236133,1.15147 -2.091267,1.62561 0.1778,0.14393 0.254,0.24553 0.3556,0.4064 0.973667,-0.59267 1.676401,-1.17687 2.319868,-1.92194 h 2.531534 c -0.575734,0.77893 -0.9652,1.21074 -1.634067,1.8034 -0.4318,-0.381 -0.626534,-0.51646 -1.244601,-0.90593 z m 0.6604,2.20133 h 3.539068 v 2.0066 h -3.539068 z"
         style="font-style:normal;font-variant:normal;font-weight:300;font-stretch:normal;font-size:8.46667px;font-family:'Hiragino Kaku Gothic Pro';-inkscape-font-specification:'Hiragino Kaku Gothic Pro, Light';font-variant-ligatures:normal;font-variant-caps:normal;font-variant-numeric:normal;font-variant-east-asian:normal;fill:#ff5555;stroke-width:0.264583"
         id="path1009" />
      <path
         d="m 70.212372,159.10613 c -0.2032,1.06681 -0.465667,1.82881 -0.897467,2.61621 -0.5842,1.08373 -1.320801,1.86266 -2.429934,2.5908 0.2032,0.13546 0.287866,0.22013 0.4318,0.41486 0.770467,-0.56726 1.185334,-0.9398 1.642534,-1.524 0.5588,-0.70273 0.9906,-1.4986 1.3208,-2.42993 0.186267,-0.54187 0.262467,-0.82973 0.4318,-1.66794 h 0.372534 c -0.03387,2.04894 -0.118534,3.43747 -0.2794,4.36881 -0.1016,0.60113 -0.2286,0.762 -0.592667,0.762 -0.313267,0 -0.626534,-0.0508 -1.109134,-0.16934 0.08467,0.19474 0.127,0.36407 0.1524,0.59267 0.4572,0.0677 0.7366,0.0931 0.956734,0.0931 0.829734,0 1.0414,-0.29633 1.202267,-1.69333 0.09313,-0.79587 0.160867,-1.9812 0.194733,-3.25967 0.0254,-0.9398 0.0254,-0.9652 0.05927,-1.1938 -0.160867,0.0254 -0.3556,0.0339 -0.719667,0.0339 h -2.607734 c 0.110066,-0.26247 0.1778,-0.44027 0.254,-0.65194 0.169333,-0.47413 0.169333,-0.47413 0.2286,-0.6096 l -0.592667,-0.127 c -0.0762,0.4572 -0.211667,0.87207 -0.414867,1.3208 -0.287867,0.65194 -0.5588,1.04987 -1.0414,1.57481 0.194733,0.11006 0.270933,0.16933 0.4318,0.33866 0.397933,-0.47413 0.643467,-0.85513 0.9144,-1.38007 h 0.762001 c -0.186267,0.70274 -0.338667,1.08374 -0.626534,1.57481 -0.397933,0.6858 -0.846667,1.15993 -1.540934,1.63406 0.169334,0.127 0.287867,0.24554 0.397934,0.41487 0.651933,-0.49953 1.151467,-1.0668 1.5494,-1.7526 0.321734,-0.5588 0.508,-1.04987 0.728134,-1.87114 z m -4.538135,0.35561 v 2.07433 c -0.694267,0.24553 -1.092201,0.3556 -1.439334,0.39793 l 0.169333,0.60114 c 0.0762,-0.0339 0.499534,-0.19474 1.270001,-0.47414 v 1.98967 c 0,0.34713 -0.01693,0.61807 -0.05927,0.889 h 0.635 c -0.03387,-0.28787 -0.0508,-0.5842 -0.0508,-0.889 v -2.19287 c 0.389467,-0.16086 0.524934,-0.22013 0.956734,-0.42333 v -0.508 c -0.4318,0.2032 -0.575734,0.26247 -0.956734,0.41487 v -1.88807 h 0.389467 c 0.211667,0 0.347134,0.008 0.524934,0.0339 v -0.55034 c -0.143934,0.0339 -0.262467,0.0423 -0.524934,0.0423 H 66.19917 v -1.05833 c 0,-0.29633 0.0085,-0.4826 0.0508,-0.70273 h -0.635 c 0.04233,0.2286 0.05927,0.41486 0.05927,0.70273 v 1.05833 h -0.609601 c 0.0254,-0.18626 0.03387,-0.3048 0.06773,-0.5588 0.0254,-0.23706 0.03387,-0.3048 0.0508,-0.44873 l -0.541867,-0.0847 c 0.0085,0.1016 0.0085,0.127 0.0085,0.22014 0,0.8382 -0.1778,1.65947 -0.533401,2.44687 0.186267,0.0762 0.304801,0.14393 0.465667,0.26246 0.2032,-0.508 0.296334,-0.8382 0.397934,-1.35466 z"
         style="font-style:normal;font-variant:normal;font-weight:300;font-stretch:normal;font-size:8.46667px;font-family:'Hiragino Kaku Gothic Pro';-inkscape-font-specification:'Hiragino Kaku Gothic Pro, Light';font-variant-ligatures:normal;font-variant-caps:normal;font-variant-numeric:normal;font-variant-east-asian:normal;fill:#ff5555;stroke-width:0.264583"
         id="path1011" />
    </g>
    <g
       id="g1684"
       transform="translate(36.512501)">
      <path
         style="fill:none;stroke:#ef917a;stroke-width:4.11878;stroke-linecap:round;stroke-linejoin:miter;stroke-miterlimit:4;stroke-dasharray:none;stroke-opacity:1"
         d="m 32.580659,177.28503 v 8.22896"
         id="path949" />
      <ellipse
         style="fill:#ee6db5;fill-opacity:1;fill-rule:evenodd;stroke:#efa3cd;stroke-width:0.995626;stroke-linecap:round;stroke-linejoin:bevel;stroke-miterlimit:2;stroke-dasharray:none;stroke-opacity:1"
         id="path951"
         cx="32.578136"
         cy="175.86189"
         rx="1.5778456"
         ry="1.0707814" />
    </g>
  </g>
</svg>
