<?xml version="1.0" encoding="UTF-8" standalone="no"?>
<svg
   xmlns:dc="http://purl.org/dc/elements/1.1/"
   xmlns:cc="http://creativecommons.org/ns#"
   xmlns:rdf="http://www.w3.org/1999/02/22-rdf-syntax-ns#"
   xmlns:svg="http://www.w3.org/2000/svg"
   xmlns="http://www.w3.org/2000/svg"
   xmlns:sodipodi="http://sodipodi.sourceforge.net/DTD/sodipodi-0.dtd"
   xmlns:inkscape="http://www.inkscape.org/namespaces/inkscape"
   width="166.39211mm"
   height="60.498081mm"
   viewBox="0 0 166.39212 60.498079"
   version="1.1"
   id="svg974"
   inkscape:version="1.0.1 (c497b03c, 2020-09-10)"
   sodipodi:docname="option_menu_jp.svg">
  <defs
     id="defs968" />
  <sodipodi:namedview
     id="base"
     pagecolor="#ffffff"
     bordercolor="#666666"
     borderopacity="1.0"
     inkscape:pageopacity="0.0"
     inkscape:pageshadow="2"
     inkscape:zoom="1.056166"
     inkscape:cx="295.97344"
     inkscape:cy="175.74428"
     inkscape:document-units="mm"
     inkscape:current-layer="text1026-2"
     inkscape:document-rotation="0"
     showgrid="false"
     fit-margin-top="0"
     fit-margin-left="0"
     fit-margin-right="0"
     fit-margin-bottom="0"
     inkscape:window-width="1440"
     inkscape:window-height="697"
     inkscape:window-x="0"
     inkscape:window-y="25"
     inkscape:window-maximized="0" />
  <metadata
     id="metadata971">
    <rdf:RDF>
      <cc:Work
         rdf:about="">
        <dc:format>image/svg+xml</dc:format>
        <dc:type
           rdf:resource="http://purl.org/dc/dcmitype/StillImage" />
        <dc:title></dc:title>
      </cc:Work>
    </rdf:RDF>
  </metadata>
  <g
     inkscape:label="レイヤー 1"
     inkscape:groupmode="layer"
     id="layer1"
     transform="translate(122.26895,-111.60452)">
    <g
       id="text978"
       style="font-weight:600;font-size:22.5778px;line-height:1.25;font-family:'Hiragino Kaku Gothic Pro';-inkscape-font-specification:'Hiragino Kaku Gothic Pro, Semi-Bold';stroke-width:0.264583" />
    <g
       aria-label="心の準備が出来た  今はその時ではない"
       id="text982"
       style="font-style:normal;font-variant:normal;font-weight:600;font-stretch:normal;font-size:14.1111px;line-height:1.25;font-family:'Hiragino Kaku Gothic Pro';-inkscape-font-specification:'Hiragino Kaku Gothic Pro, Semi-Bold';font-variant-ligatures:normal;font-variant-caps:normal;font-variant-numeric:normal;font-variant-east-asian:normal;stroke-width:0.264583">
      <path
         id="rect2305"
         style="fill:none;fill-opacity:1;fill-rule:evenodd;stroke:#502d16;stroke-width:1.02704;stroke-linecap:round;stroke-linejoin:round;stroke-miterlimit:4;stroke-dasharray:none;stroke-opacity:1"
         d="M -121.75543,112.11804 H 43.609634 v 59.47104 H -121.75543 Z"
         sodipodi:nodetypes="ccccc" />
      <g
         aria-label="速さ"
         id="text1270"
         style="font-style:normal;font-variant:normal;font-weight:600;font-stretch:normal;font-size:8.46667px;line-height:1.25;font-family:'Hiragino Kaku Gothic Pro';-inkscape-font-specification:'Hiragino Kaku Gothic Pro, Semi-Bold';font-variant-ligatures:normal;font-variant-caps:normal;font-variant-numeric:normal;font-variant-east-asian:normal;fill:#502d16;fill-opacity:1;stroke-width:0.0700042"
         transform="translate(10.583334,15.874999)">
        <path
           d="m -94.823004,118.33902 v 0.44027 h -1.109133 c -0.364067,0 -0.584201,-0.008 -0.838201,-0.0423 0.0254,0.27093 0.03387,0.44873 0.03387,0.7874 v 0.7874 c 0,0.32173 -0.0085,0.49953 -0.03387,0.762 0.237067,-0.0254 0.4318,-0.0339 0.829734,-0.0339 h 0.728134 c -0.592667,0.55034 -1.168401,0.9144 -1.972735,1.25307 0.245534,0.27093 0.347134,0.41487 0.533401,0.762 0.846667,-0.49953 1.388533,-0.93133 1.845734,-1.4732 -0.01693,0.32173 -0.01693,0.508 -0.01693,0.56727 v 0.61806 c 0,0.23707 -0.01693,0.41487 -0.04233,0.5842 h 0.948267 c -0.03387,-0.18626 -0.04233,-0.33866 -0.04233,-0.57573 v -0.61807 c 0,-0.2794 -0.0085,-0.4572 -0.03387,-0.60113 0.321733,0.36407 0.508,0.54187 0.922867,0.8382 0.448734,0.3302 0.7112,0.4826 1.244601,0.72813 0.186266,-0.42333 0.2032,-0.46566 0.4572,-0.84666 -0.601134,-0.19474 -0.956734,-0.36407 -1.447801,-0.6858 -0.270933,-0.1778 -0.397933,-0.27094 -0.7112,-0.55034 h 0.821267 c 0.4064,0 0.618067,0.008 0.829734,0.0339 -0.03387,-0.24553 -0.03387,-0.42333 -0.03387,-0.77893 v -0.79587 c 0,-0.33867 0,-0.508 0.03387,-0.762 -0.254001,0.0339 -0.465667,0.0423 -0.812801,0.0423 h -1.27 v -0.44027 h 1.634067 c 0.372533,0 0.508,0.008 0.770467,0.0423 v -0.889 c -0.270933,0.0423 -0.4572,0.0508 -0.9144,0.0508 h -1.490134 v -0.23707 c 0,-0.18627 0.0085,-0.33867 0.04233,-0.49107 h -0.948267 c 0.0254,0.1524 0.04233,0.33867 0.04233,0.5334 v 0.19474 h -1.227667 c -0.448733,0 -0.668867,-0.008 -0.931334,-0.0508 v 0.889 c 0.237067,-0.0339 0.423334,-0.0423 0.787401,-0.0423 z m 0,1.19381 v 0.75353 h -1.058333 v -0.75353 z m 0.863601,0 h 1.1684 v 0.75353 h -1.1684 z m -5.223936,-1.99814 c 0.601134,0.5588 0.982134,0.98213 1.422401,1.6002 l 0.7112,-0.6858 c -0.499533,-0.62653 -0.846667,-0.9906 -1.456267,-1.54093 z m -0.01693,3.42054 c 0.211667,-0.0339 0.3302,-0.0423 0.567267,-0.0423 h 0.448733 v 1.8288 c -0.372533,0.33867 -0.897467,0.69427 -1.2192,0.82974 l 0.414867,0.9652 c 0.08467,-0.0677 0.194733,-0.16087 0.364066,-0.2794 0.338667,-0.23707 0.524934,-0.38947 0.897468,-0.74507 0.347133,0.44027 0.601133,0.62653 1.049867,0.77047 0.4064,0.13546 1.0414,0.1778 2.455334,0.1778 0.872067,0 1.896534,-0.0169 2.667001,-0.0508 0.06773,-0.4572 0.09313,-0.5334 0.254,-0.99907 -0.9906,0.11853 -2.201334,0.1778 -3.877735,0.1778 -1.261534,0 -1.642534,-0.1524 -2.116667,-0.82973 v -1.79494 c 0,-0.44873 0.0085,-0.66886 0.03387,-0.92286 -0.2032,0.0339 -0.389466,0.0423 -0.643467,0.0423 h -0.618066 c -0.321734,0 -0.457201,-0.008 -0.677334,-0.0423 z"
           style="font-style:normal;font-variant:normal;font-weight:600;font-stretch:normal;font-size:8.46667px;font-family:'Hiragino Kaku Gothic Pro';-inkscape-font-specification:'Hiragino Kaku Gothic Pro, Semi-Bold';font-variant-ligatures:normal;font-variant-caps:normal;font-variant-numeric:normal;font-variant-east-asian:normal;fill:#502d16;fill-opacity:1;stroke-width:0.0700042"
           id="path1612" />
        <path
           d="m -90.013935,119.58363 c 0.127,-0.0169 0.160867,-0.0169 0.372533,-0.0254 1.007534,-0.0169 2.260601,-0.1016 3.005668,-0.20321 0.5588,1.04141 0.567267,1.06681 0.914401,1.54094 -0.423334,-0.16933 -0.914401,-0.254 -1.464734,-0.254 -0.965201,0 -1.667934,0.19473 -2.159001,0.6096 -0.389467,0.3302 -0.6096,0.77893 -0.6096,1.26153 0,0.42334 0.1778,0.8382 0.499533,1.143 0.4318,0.41487 1.270001,0.64347 2.353734,0.64347 0.846667,0 1.634068,-0.13547 2.683935,-0.4572 l -0.135467,-1.08373 c -0.6604,0.34713 -1.651001,0.56726 -2.548468,0.56726 -1.151467,0 -1.778,-0.3048 -1.778,-0.85513 0,-0.60113 0.677333,-0.94827 1.8288,-0.94827 0.508001,0 0.956734,0.0677 1.337734,0.19474 0.237067,0.0847 0.372534,0.16933 0.584201,0.36406 l 0.982133,-0.44873 c -0.296333,-0.39793 -0.668867,-0.94827 -0.897467,-1.33773 -0.08467,-0.1524 -0.2794,-0.508 -0.5842,-1.07527 0.702734,-0.13547 1.1176,-0.22014 1.2446,-0.254 0.287867,-0.0593 0.381001,-0.0847 0.601134,-0.11854 l -0.118533,-1.00753 c -0.448734,0.16933 -1.202267,0.34713 -2.074334,0.49953 -0.262467,-0.61806 -0.414867,-1.0668 -0.465667,-1.35466 l -1.092201,0.14393 c 0.04233,0.0677 0.4064,0.9652 0.550334,1.33773 -0.524934,0.0677 -1.651001,0.14394 -2.286001,0.14394 -0.347134,0 -0.567267,-0.008 -0.821267,-0.0423 z"
           style="font-style:normal;font-variant:normal;font-weight:600;font-stretch:normal;font-size:8.46667px;font-family:'Hiragino Kaku Gothic Pro';-inkscape-font-specification:'Hiragino Kaku Gothic Pro, Semi-Bold';font-variant-ligatures:normal;font-variant-caps:normal;font-variant-numeric:normal;font-variant-east-asian:normal;fill:#502d16;fill-opacity:1;stroke-width:0.0700042"
           id="path1614" />
      </g>
      <g
         aria-label="遅い　　普通　　速い"
         id="text1274"
         style="font-style:normal;font-variant:normal;font-weight:600;font-stretch:normal;font-size:4.93889px;line-height:1.25;font-family:'Hiragino Kaku Gothic Pro';-inkscape-font-specification:'Hiragino Kaku Gothic Pro, Semi-Bold';font-variant-ligatures:normal;font-variant-caps:normal;font-variant-numeric:normal;font-variant-east-asian:normal;fill:#502d16;fill-opacity:1;stroke-width:0.0700042"
         transform="translate(34.395837,15.874999)">
        <path
           d="m -63.935925,121.79365 c 0,-0.27164 0.0049,-0.39017 0.01976,-0.54328 -0.128411,0.0198 -0.227189,0.0247 -0.375356,0.0247 h -0.365477 c -0.182739,0 -0.261762,-0.005 -0.395112,-0.0247 v 0.55316 c 0.128411,-0.0198 0.202495,-0.0247 0.335845,-0.0247 h 0.261761 v 1.04211 c -0.246944,0.22225 -0.523522,0.41981 -0.701322,0.49389 l 0.242005,0.55809 c 0.04939,-0.0346 0.05927,-0.0395 0.143228,-0.10865 0.03457,-0.0296 0.07902,-0.0642 0.13335,-0.10372 0.207433,-0.16298 0.251883,-0.20249 0.4445,-0.38029 0.330906,0.44944 0.686506,0.55315 1.926167,0.55315 0.592667,0 1.264356,-0.01 1.689101,-0.0296 0.04445,-0.27164 0.05927,-0.33585 0.148166,-0.56303 -0.513644,0.0642 -1.170517,0.0988 -1.985433,0.0988 -0.439562,0 -0.809978,-0.0247 -0.987778,-0.0741 -0.271639,-0.0691 -0.395112,-0.16298 -0.533401,-0.40993 v -0.10865 c 0.143228,0.0938 0.246945,0.17286 0.419806,0.34572 0.1778,-0.34078 0.2667,-0.58773 0.340784,-0.97296 0.07902,-0.40993 0.113594,-0.76553 0.13335,-1.47673 h 0.325966 c 0.09878,0.16298 0.13335,0.23213 0.197556,0.3556 h -0.05433 c -0.202494,0 -0.286456,-0.005 -0.40005,-0.0247 v 0.4445 c 0.108656,-0.0148 0.22225,-0.0198 0.40005,-0.0198 h 0.429684 v 0.2667 h -0.365478 c -0.232128,0 -0.316089,-0.005 -0.434623,-0.0198 v 0.42969 c 0.13335,-0.0148 0.217312,-0.0198 0.434623,-0.0198 h 0.365478 v 0.27164 h -0.508706 c -0.227189,0 -0.345722,-0.005 -0.484011,-0.0247 v 0.46919 c 0.143227,-0.0198 0.2667,-0.0247 0.484011,-0.0247 h 0.508706 v 0.12841 c 0,0.17286 -0.0049,0.23706 -0.0247,0.34572 h 0.543278 c -0.01976,-0.10866 -0.02469,-0.17286 -0.02469,-0.34078 v -0.13335 h 0.627239 c 0.212372,0 0.340783,0.005 0.479072,0.0247 v -0.46919 c -0.138289,0.0198 -0.256822,0.0247 -0.479072,0.0247 h -0.627239 v -0.27164 h 0.464255 c 0.217311,0 0.301272,0.005 0.434623,0.0198 v -0.42969 c -0.123473,0.0148 -0.202495,0.0198 -0.434623,0.0198 h -0.464255 v -0.2667 h 0.612422 c 0.192617,0 0.306211,0.005 0.414867,0.0198 v -0.4445 c -0.118534,0.0198 -0.202495,0.0247 -0.414867,0.0247 h -0.1778 c 0.05927,-0.10372 0.07902,-0.13335 0.187678,-0.3556 0.227189,0 0.227189,0 0.395111,0.01 -0.0049,-0.0889 -0.0099,-0.20744 -0.0099,-0.36054 v -0.43956 c 0,-0.15311 0.0049,-0.27164 0.01482,-0.36548 -0.13335,0.0148 -0.246945,0.0198 -0.454378,0.0198 h -2.005189 c -0.207434,0 -0.330906,-0.005 -0.488951,-0.0198 0.01976,0.15804 0.0247,0.28646 0.0247,0.73096 0,1.03716 -0.02963,1.45697 -0.138289,1.88171 -0.05927,0.22719 -0.108656,0.3556 -0.246945,0.61736 z m 1.886656,-0.79516 c -0.04939,-0.11853 -0.113594,-0.24201 -0.167922,-0.3556 h 0.656873 c -0.04445,0.12841 -0.07408,0.20743 -0.148167,0.3556 z m -0.987778,-0.76059 v -0.29139 h 1.886656 v 0.29139 z m -1.965678,-0.45438 c 0.301273,0.27658 0.553156,0.56304 0.819856,0.93839 l 0.414867,-0.39511 c -0.31115,-0.40005 -0.449439,-0.54822 -0.84455,-0.90382 z"
           style="font-style:normal;font-variant:normal;font-weight:600;font-stretch:normal;font-size:4.93889px;font-family:'Hiragino Kaku Gothic Pro';-inkscape-font-specification:'Hiragino Kaku Gothic Pro, Semi-Bold';font-variant-ligatures:normal;font-variant-caps:normal;font-variant-numeric:normal;font-variant-east-asian:normal;fill:#502d16;fill-opacity:1;stroke-width:0.0700042"
           id="path1599" />
        <path
           d="m -59.787257,119.89218 c 0.01482,0.10865 0.01482,0.14323 0.01976,0.31609 0.01976,1.36807 0.108655,2.08421 0.31115,2.5781 0.197555,0.47413 0.464255,0.71614 0.795161,0.71614 0.419806,0 0.706261,-0.40005 0.963084,-1.36314 -0.242006,-0.1778 -0.321028,-0.25188 -0.493889,-0.44944 -0.05433,0.33091 -0.143228,0.62724 -0.261762,0.89394 -0.05927,0.13829 -0.128411,0.21238 -0.202494,0.21238 -0.158045,0 -0.316089,-0.31609 -0.40005,-0.82974 -0.05433,-0.30127 -0.09384,-0.89394 -0.09384,-1.32362 0,-0.32597 0.01482,-0.56797 0.03951,-0.75071 z m 2.494139,0.46919 c 0.296334,0.36548 0.533401,0.76553 0.701323,1.21497 0.172861,0.44944 0.286455,0.96308 0.316089,1.42734 l 0.612422,-0.23213 c -0.143228,-1.08655 -0.48895,-1.91135 -1.11125,-2.65712 z"
           style="font-style:normal;font-variant:normal;font-weight:600;font-stretch:normal;font-size:4.93889px;font-family:'Hiragino Kaku Gothic Pro';-inkscape-font-specification:'Hiragino Kaku Gothic Pro, Semi-Bold';font-variant-ligatures:normal;font-variant-caps:normal;font-variant-numeric:normal;font-variant-east-asian:normal;fill:#502d16;fill-opacity:1;stroke-width:0.0700042"
           id="path1601" />
        <path
           d="m -40.891062,119.82303 c -0.232128,0 -0.375356,-0.01 -0.5334,-0.0296 v 0.49883 c 0.153105,-0.0198 0.276577,-0.0247 0.464255,-0.0247 h 0.928511 v 0.86925 h -0.681566 l 0.395111,-0.18274 c -0.172861,-0.32597 -0.232128,-0.42968 -0.414867,-0.67663 l -0.419806,0.19262 c 0.162984,0.21731 0.271639,0.39511 0.390173,0.66675 h -0.281517 c -0.22225,0 -0.365478,-0.01 -0.498828,-0.0296 v 0.51364 c 0.158045,-0.0198 0.281517,-0.0247 0.498828,-0.0247 h 3.447345 c 0.232128,0 0.345723,0.005 0.498828,0.0247 v -0.51364 c -0.13335,0.0198 -0.276578,0.0296 -0.498828,0.0296 h -0.306211 c 0.167922,-0.2667 0.232128,-0.39017 0.3556,-0.69145 l -0.48895,-0.17286 c -0.07408,0.25189 -0.1778,0.4692 -0.325967,0.68651 l 0.404989,0.1778 h -0.686505 v -0.86925 h 0.968022 c 0.197556,0 0.325967,0.005 0.454378,0.0247 v -0.49883 c -0.153106,0.0198 -0.306211,0.0296 -0.538339,0.0296 h -0.627239 c 0.108655,-0.12841 0.182739,-0.22718 0.286455,-0.38523 l -0.553155,-0.11359 c -0.06421,0.14322 -0.1778,0.3309 -0.301272,0.49882 h -0.765528 c -0.113595,-0.20249 -0.182739,-0.30127 -0.345723,-0.49882 l -0.518583,0.10865 c 0.138289,0.15805 0.187678,0.22225 0.286455,0.39017 z m 1.348317,1.31375 v -0.86925 h 0.409927 v 0.86925 z m -1.417462,2.26201 c 0,0.20743 -0.0099,0.36548 -0.02963,0.51858 h 0.563033 v -0.18767 h 2.192867 v 0.18767 h 0.563034 c -0.01976,-0.13829 -0.02963,-0.30127 -0.02963,-0.52846 v -1.13594 c 0,-0.21237 0.0049,-0.31115 0.01975,-0.4445 -0.167922,0.0148 -0.281517,0.0198 -0.469194,0.0198 h -2.365729 c -0.162983,0 -0.296333,-0.005 -0.464255,-0.0198 0.01482,0.13829 0.01976,0.24694 0.01976,0.4445 z m 0.5334,-1.15076 h 2.192867 v 0.32103 h -2.192867 z m 0,0.72602 h 2.192867 v 0.3309 h -2.192867 z"
           style="font-style:normal;font-variant:normal;font-weight:600;font-stretch:normal;font-size:4.93889px;font-family:'Hiragino Kaku Gothic Pro';-inkscape-font-specification:'Hiragino Kaku Gothic Pro, Semi-Bold';font-variant-ligatures:normal;font-variant-caps:normal;font-variant-numeric:normal;font-variant-east-asian:normal;fill:#502d16;fill-opacity:1;stroke-width:0.0700042"
           id="path1603" />
        <path
           d="m -34.692755,120.43052 c -0.256822,0 -0.40005,-0.005 -0.553156,-0.0247 0.01482,0.16793 0.01976,0.2914 0.01976,0.57785 v 1.56069 c 0,0.25189 -0.0049,0.40499 -0.0247,0.53834 h 0.558095 c -0.02469,-0.11853 -0.02963,-0.24694 -0.02963,-0.53834 v -0.25188 h 0.66675 v 0.20743 c 0,0.25682 -0.0099,0.40499 -0.02963,0.54822 h 0.548216 c -0.02469,-0.15311 -0.02963,-0.27658 -0.02963,-0.54822 v -0.20743 h 0.740833 v 0.19262 c 0,0.12841 -0.0049,0.13828 -0.113594,0.13828 -0.07902,0 -0.192617,-0.01 -0.325967,-0.0296 0.06914,0.14817 0.09878,0.27164 0.113595,0.4692 0.09384,0.005 0.1778,0.005 0.22225,0.005 0.306211,0 0.429683,-0.0296 0.518583,-0.11359 0.06915,-0.0741 0.0889,-0.17286 0.0889,-0.45438 v -1.52118 c 0,-0.27657 0.0049,-0.43956 0.01976,-0.57291 -0.118534,0.0198 -0.256822,0.0247 -0.503767,0.0247 h -0.395111 c 0.197555,-0.12841 0.439561,-0.30127 0.637117,-0.4692 0.143227,-0.11853 0.167922,-0.13829 0.246944,-0.18767 l -0.251883,-0.30622 c -0.0889,0.0247 -0.246945,0.0346 -0.558095,0.0346 h -1.6002 c -0.276578,0 -0.429684,-0.01 -0.587728,-0.0296 v 0.50377 c 0.158044,-0.0198 0.271639,-0.0247 0.513644,-0.0247 h 0.469195 l -0.380295,0.22225 c 0.133351,0.0691 0.143228,0.0741 0.409928,0.25682 z m 1.126067,0.4198 h 0.740833 v 0.32103 h -0.740833 z m -0.48895,0 v 0.32103 h -0.66675 v -0.32103 z m -0.66675,0.71614 h 0.66675 v 0.33091 h -0.66675 z m 1.896533,0.33091 h -0.740833 v -0.33091 h 0.740833 z m -0.459316,-1.94592 c -0.138289,0.11853 -0.143228,0.12347 -0.493889,0.37041 -0.291395,-0.21731 -0.335845,-0.24694 -0.513645,-0.37041 z m -3.397957,-0.15311 c 0.345723,0.29633 0.553156,0.52846 0.839612,0.92357 l 0.409928,-0.40005 c -0.237067,-0.31609 -0.498828,-0.58279 -0.854428,-0.89394 z m 0.01482,1.99037 c 0.113595,-0.0197 0.192617,-0.0247 0.316089,-0.0247 h 0.251883 v 1.05198 c -0.237066,0.21731 -0.469194,0.39017 -0.651933,0.47413 l 0.2667,0.54328 c 0.375356,-0.30127 0.375356,-0.30127 0.548217,-0.47907 0.01975,-0.0148 0.04445,-0.0395 0.07902,-0.0741 0.202494,0.23706 0.330906,0.3309 0.572911,0.4198 0.217311,0.079 0.607484,0.12347 1.11125,0.12347 0.829734,0 1.328562,-0.01 1.975556,-0.0395 0.03457,-0.21237 0.07902,-0.40992 0.143228,-0.58772 -0.987778,0.11359 -1.259417,0.12841 -2.064456,0.12841 -0.449439,0 -0.75565,-0.0296 -0.982839,-0.0889 -0.06914,-0.0198 -0.153105,-0.0642 -0.246944,-0.12841 -0.103717,-0.0741 -0.158045,-0.13335 -0.242006,-0.27658 v -1.05692 c 0,-0.2667 0.0049,-0.38524 0.01976,-0.53834 -0.113595,0.0197 -0.227189,0.0247 -0.375356,0.0247 h -0.345722 c -0.167923,0 -0.251884,-0.005 -0.375356,-0.0247 z"
           style="font-style:normal;font-variant:normal;font-weight:600;font-stretch:normal;font-size:4.93889px;font-family:'Hiragino Kaku Gothic Pro';-inkscape-font-specification:'Hiragino Kaku Gothic Pro, Semi-Bold';font-variant-ligatures:normal;font-variant-caps:normal;font-variant-numeric:normal;font-variant-east-asian:normal;fill:#502d16;fill-opacity:1;stroke-width:0.0700042"
           id="path1605" />
        <path
           d="m -10.787116,120.25766 v 0.25682 h -0.646995 c -0.212372,0 -0.340783,-0.005 -0.48895,-0.0247 0.01482,0.15805 0.01976,0.26177 0.01976,0.45932 v 0.45932 c 0,0.18768 -0.0049,0.29139 -0.01976,0.4445 0.138289,-0.0148 0.251883,-0.0198 0.484011,-0.0198 h 0.424745 c -0.345723,0.32103 -0.681567,0.5334 -1.150762,0.73096 0.143228,0.15804 0.202495,0.242 0.31115,0.4445 0.493889,-0.2914 0.809978,-0.54328 1.076678,-0.85937 -0.0099,0.18768 -0.0099,0.29633 -0.0099,0.33091 v 0.36054 c 0,0.13828 -0.0099,0.242 -0.02469,0.34078 h 0.553156 c -0.01976,-0.10866 -0.02469,-0.19756 -0.02469,-0.33585 v -0.36053 c 0,-0.16299 -0.0049,-0.2667 -0.01975,-0.35067 0.187678,0.21238 0.296333,0.31609 0.5383387,0.48895 0.261761,0.19262 0.4148667,0.28152 0.7260167,0.42475 0.1086547,-0.24695 0.1185327,-0.27164 0.2666997,-0.49389 -0.3506607,-0.11359 -0.5580947,-0.21237 -0.8445494,-0.40005 -0.158045,-0.10372 -0.232128,-0.15804 -0.4148667,-0.32103 h 0.4790717 c 0.2370667,0 0.3605387,0.005 0.4840107,0.0198 -0.01975,-0.14323 -0.01975,-0.24695 -0.01975,-0.45438 v -0.46426 c 0,-0.19755 0,-0.29633 0.01975,-0.4445 -0.148166,0.0198 -0.271639,0.0247 -0.4741327,0.0247 h -0.7408337 v -0.25682 h 0.9532054 c 0.217311,0 0.296334,0.005 0.4494387,0.0247 v -0.51858 c -0.1580437,0.0247 -0.2666997,0.0296 -0.5333997,0.0296 h -0.8692444 v -0.13829 c 0,-0.10865 0.0049,-0.19755 0.02469,-0.28645 h -0.553156 c 0.01482,0.0889 0.02469,0.19755 0.02469,0.31115 v 0.11359 h -0.716139 c -0.261762,0 -0.390173,-0.005 -0.543278,-0.0296 v 0.51858 c 0.138289,-0.0197 0.246944,-0.0247 0.459316,-0.0247 z m 0,0.69638 v 0.43956 h -0.617362 v -0.43956 z m 0.503766,0 h 0.6815667 v 0.43956 H -10.28335 Z m -3.047295,-1.16558 c 0.350661,0.32597 0.572912,0.57291 0.829734,0.93345 l 0.414867,-0.40005 c -0.291395,-0.36548 -0.493889,-0.57785 -0.84949,-0.89888 z m -0.0099,1.99531 c 0.123472,-0.0198 0.192616,-0.0247 0.330905,-0.0247 h 0.261761 v 1.0668 c -0.217311,0.19755 -0.523522,0.40499 -0.7112,0.48401 l 0.242006,0.56303 c 0.04939,-0.0395 0.113594,-0.0938 0.212372,-0.16298 0.197556,-0.13829 0.306211,-0.22719 0.523522,-0.43462 0.202495,0.25682 0.350662,0.36548 0.612423,0.44944 0.237066,0.079 0.607483,0.10371 1.432278,0.10371 0.5087047,0 1.1063104,-0.01 1.5557491,-0.0296 0.03951,-0.2667 0.05433,-0.31115 0.148167,-0.58279 -0.5778497,0.0692 -1.2841111,0.10372 -2.2620111,0.10372 -0.735894,0 -0.958144,-0.0889 -1.234722,-0.48401 v -1.04705 c 0,-0.26176 0.0049,-0.39017 0.01975,-0.53834 -0.118533,0.0198 -0.227189,0.0247 -0.375355,0.0247 h -0.360539 c -0.187678,0 -0.2667,-0.005 -0.395111,-0.0247 z"
           style="font-style:normal;font-variant:normal;font-weight:600;font-stretch:normal;font-size:4.93889px;font-family:'Hiragino Kaku Gothic Pro';-inkscape-font-specification:'Hiragino Kaku Gothic Pro, Semi-Bold';font-variant-ligatures:normal;font-variant-caps:normal;font-variant-numeric:normal;font-variant-east-asian:normal;fill:#502d16;fill-opacity:1;stroke-width:0.0700042"
           id="path1607" />
        <path
           d="m -8.1053022,119.89218 c 0.01482,0.10865 0.01482,0.14323 0.01976,0.31609 0.01976,1.36807 0.108656,2.08421 0.3111497,2.5781 0.197556,0.47413 0.4642557,0.71614 0.7951607,0.71614 0.4198057,0 0.7062614,-0.40005 0.9630834,-1.36314 -0.242006,-0.1778 -0.3210277,-0.25188 -0.4938887,-0.44944 -0.05433,0.33091 -0.143228,0.62724 -0.261761,0.89394 -0.05927,0.13829 -0.1284107,0.21238 -0.2024947,0.21238 -0.158044,0 -0.316089,-0.31609 -0.4000497,-0.82974 -0.05433,-0.30127 -0.09384,-0.89394 -0.09384,-1.32362 0,-0.32597 0.01482,-0.56797 0.03951,-0.75071 z m 2.4941385,0.46919 c 0.296333,0.36548 0.5333997,0.76553 0.7013217,1.21497 0.172861,0.44944 0.2864557,0.96308 0.3160887,1.42734 l 0.6124227,-0.23213 c -0.143228,-1.08655 -0.4889507,-1.91135 -1.1112504,-2.65712 z"
           style="font-style:normal;font-variant:normal;font-weight:600;font-stretch:normal;font-size:4.93889px;font-family:'Hiragino Kaku Gothic Pro';-inkscape-font-specification:'Hiragino Kaku Gothic Pro, Semi-Bold';font-variant-ligatures:normal;font-variant-caps:normal;font-variant-numeric:normal;font-variant-east-asian:normal;fill:#502d16;fill-opacity:1;stroke-width:0.0700042"
           id="path1609" />
      </g>
      <g
         aria-label="難しさ"
         id="text1278"
         style="font-style:normal;font-variant:normal;font-weight:600;font-stretch:normal;font-size:8.46667px;line-height:1.25;font-family:'Hiragino Kaku Gothic Pro';-inkscape-font-specification:'Hiragino Kaku Gothic Pro, Semi-Bold';font-variant-ligatures:normal;font-variant-caps:normal;font-variant-numeric:normal;font-variant-east-asian:normal;fill:#502d16;fill-opacity:1;stroke-width:0.0700042"
         transform="translate(10.583334,19.049999)">
        <path
           d="m -92.579336,131.26763 h 0.220133 c 0.3302,0 0.550334,0.008 0.719667,0.0339 v -0.87206 c -0.169333,0.0339 -0.372533,0.0508 -0.728133,0.0508 h -0.211667 v -0.87207 h 0.211667 c 0.381,0 0.6604,0.008 0.8636,0.0339 v -0.87207 c -0.2286,0.0339 -0.4572,0.0508 -0.8636,0.0508 h -0.237067 c 0.2032,-0.381 0.296333,-0.60113 0.5334,-1.22767 l -0.8382,-0.19473 c -0.118534,0.52493 -0.254,0.889 -0.5334,1.4224 h -0.677334 c 0.135467,-0.3048 0.245533,-0.5842 0.313267,-0.79587 0.110066,-0.32173 0.118533,-0.33866 0.169333,-0.46566 l -0.880534,-0.22014 c -0.135466,0.77894 -0.516466,1.66794 -0.948267,2.2352 0.0085,-0.0677 0.0085,-0.0847 0.01693,-0.1778 -0.1524,0.0169 -0.245534,0.0169 -0.4826,0.0169 h -2.540001 c -0.330201,0 -0.397934,0 -0.541867,-0.0169 0.01693,0.16087 0.0254,0.2794 0.0254,0.44027 v 1.016 c 0,0.16933 -0.0085,0.2794 -0.0254,0.44027 0.160866,-0.0169 0.2286,-0.0169 0.541867,-0.0169 h 0.880533 c -0.0085,0.22014 -0.0085,0.22014 -0.01693,0.381 h -0.8128 c -0.296334,0 -0.465667,-0.008 -0.643467,-0.0339 v 0.72813 c 0.1778,-0.0254 0.3556,-0.0339 0.643467,-0.0339 h 0.762 c -0.01693,0.16933 -0.03387,0.2794 -0.06773,0.4318 h -0.846667 c -0.304801,0 -0.474134,-0.008 -0.651934,-0.0339 v 0.762 c 0.186267,-0.0254 0.364067,-0.0339 0.651934,-0.0339 h 0.626533 c -0.118533,0.2286 -0.237067,0.37254 -0.440267,0.55034 -0.245533,0.21166 -0.423333,0.31326 -0.897467,0.49106 0.194734,0.21167 0.381,0.4826 0.499534,0.74507 0.795867,-0.381 1.210734,-0.75353 1.540934,-1.38853 0.414867,0.508 0.829733,0.8382 1.439334,1.15993 0.1016,-0.2794 0.2032,-0.4572 0.414866,-0.762 -0.592666,-0.26247 -0.8636,-0.44027 -1.236133,-0.79587 h 0.6858 c 0.296333,0 0.4318,0.008 0.601133,0.0339 v -0.762 c -0.169333,0.0254 -0.2794,0.0339 -0.592666,0.0339 h -0.982134 c 0.0254,-0.18627 0.0254,-0.2286 0.0508,-0.4318 h 0.795867 c 0.287867,0 0.372533,0.008 0.5842,0.0339 v -0.71967 c -0.169333,0.0169 -0.2794,0.0254 -0.5842,0.0254 h -0.753534 c 0.0085,-0.21166 0.0085,-0.33866 0.0085,-0.381 h 0.846667 c 0.397933,0.008 0.397933,0.008 0.516467,0.0169 -0.0085,-0.1016 -0.0085,-0.1016 -0.01693,-0.381 v -0.77894 c 0.09313,0.18627 0.135467,0.2794 0.211667,0.508 0.110067,-0.13546 0.127,-0.1524 0.220134,-0.26246 v 3.9878 c 0,0.44873 -0.0085,0.62653 -0.04233,0.85513 h 0.897467 v -0.4064 h 1.921934 c 0.397934,0 0.618067,0.008 0.855134,0.0339 v -0.90593 c -0.211667,0.0423 -0.372533,0.0508 -0.8382,0.0508 h -0.338667 v -1.016 h 0.194733 c 0.338667,0 0.550334,0.008 0.728134,0.0339 v -0.88053 c -0.169333,0.0339 -0.372534,0.0508 -0.719667,0.0508 h -0.2032 z m -0.829734,0 v 0.9144 h -0.770467 v -0.9144 z m 0,-0.7874 h -0.770467 v -0.87207 h 0.770467 z m -0.770467,2.49767 h 0.770467 v 1.016 h -0.770467 z m -3.403601,-2.93794 v 0.60113 h -0.668867 v -0.60113 z m 0.7874,0 h 0.643467 v 0.60113 h -0.643467 z m -1.566334,-2.032 h -0.135466 c -0.347134,0 -0.541867,-0.008 -0.719667,-0.0423 v 0.8382 c 0.186266,-0.0339 0.364066,-0.0423 0.7112,-0.0423 h 0.143933 c 0,0.26247 -0.0085,0.32174 -0.01693,0.4826 h 0.846667 c -0.0085,-0.14393 -0.0085,-0.18626 -0.01693,-0.4826 h 0.694267 c 0,0.31327 0,0.36407 -0.0085,0.4826 h 0.846667 c -0.01693,-0.127 -0.01693,-0.2286 -0.01693,-0.4826 0.3302,0 0.5842,0.008 0.753533,0.0339 v -0.82973 c -0.220133,0.0339 -0.381,0.0423 -0.753533,0.0423 v -0.1016 c 0,-0.23707 0.0085,-0.3556 0.0254,-0.4826 h -0.872067 c 0.01693,0.13547 0.0254,0.254 0.0254,0.49107 v 0.0931 h -0.694267 v -0.0931 c 0,-0.24554 0.0085,-0.37254 0.03387,-0.49107 h -0.880533 c 0.0254,0.1524 0.03387,0.29633 0.03387,0.49953 z"
           style="font-style:normal;font-variant:normal;font-weight:600;font-stretch:normal;font-size:8.46667px;font-family:'Hiragino Kaku Gothic Pro';-inkscape-font-specification:'Hiragino Kaku Gothic Pro, Semi-Bold';font-variant-ligatures:normal;font-variant-caps:normal;font-variant-numeric:normal;font-variant-east-asian:normal;fill:#502d16;fill-opacity:1;stroke-width:0.0700042"
           id="path1592" />
        <path
           d="m -89.404335,127.75396 c 0.0254,0.22013 0.03387,0.33867 0.03387,0.57573 0,0.11854 0,0.29634 -0.0085,0.55034 -0.0508,2.12513 -0.06773,2.9718 -0.06773,3.41207 0,1.13453 0.245533,1.78646 0.829733,2.17593 0.355601,0.23707 0.897467,0.37253 1.481668,0.37253 1.0668,0 1.905,-0.3556 2.540001,-1.07526 0.414867,-0.46567 0.668867,-1.016 1.007533,-2.15901 -0.414866,-0.18626 -0.567266,-0.2794 -1.024467,-0.65193 -0.09313,0.5842 -0.2032,0.98213 -0.389466,1.4224 -0.397934,0.93134 -1.134534,1.4478 -2.048935,1.4478 -0.5334,0 -0.9398,-0.16086 -1.134533,-0.44026 -0.169334,-0.254 -0.220134,-0.5588 -0.220134,-1.36314 0,-0.60113 0.0508,-2.31987 0.08467,-3.10727 0.03387,-0.65193 0.0508,-0.89746 0.1016,-1.143 z"
           style="font-style:normal;font-variant:normal;font-weight:600;font-stretch:normal;font-size:8.46667px;font-family:'Hiragino Kaku Gothic Pro';-inkscape-font-specification:'Hiragino Kaku Gothic Pro, Semi-Bold';font-variant-ligatures:normal;font-variant-caps:normal;font-variant-numeric:normal;font-variant-east-asian:normal;fill:#502d16;fill-opacity:1;stroke-width:0.0700042"
           id="path1594" />
        <path
           d="m -81.547265,130.16696 c 0.127,-0.0169 0.160867,-0.0169 0.372533,-0.0254 1.007534,-0.0169 2.260601,-0.1016 3.005668,-0.2032 0.558801,1.0414 0.567267,1.0668 0.914401,1.54093 -0.423334,-0.16933 -0.914401,-0.254 -1.464734,-0.254 -0.965201,0 -1.667934,0.19474 -2.159001,0.6096 -0.389467,0.33021 -0.6096,0.77894 -0.6096,1.26154 0,0.42333 0.1778,0.8382 0.499533,1.143 0.4318,0.41487 1.270001,0.64347 2.353734,0.64347 0.846667,0 1.634068,-0.13547 2.683935,-0.4572 l -0.135467,-1.08374 c -0.6604,0.34714 -1.651001,0.56727 -2.548468,0.56727 -1.151467,0 -1.778,-0.3048 -1.778,-0.85513 0,-0.60114 0.677333,-0.94827 1.8288,-0.94827 0.508001,0 0.956734,0.0677 1.337734,0.19473 0.237067,0.0847 0.372534,0.16934 0.584201,0.36407 l 0.982133,-0.44873 c -0.296333,-0.39794 -0.668867,-0.94827 -0.897467,-1.33774 -0.08467,-0.1524 -0.2794,-0.508 -0.5842,-1.07527 0.702734,-0.13546 1.1176,-0.22013 1.244601,-0.254 0.287866,-0.0593 0.381,-0.0847 0.601133,-0.11853 l -0.118533,-1.00753 c -0.448734,0.16933 -1.202267,0.34713 -2.074334,0.49953 -0.262467,-0.61807 -0.414867,-1.0668 -0.465667,-1.35467 l -1.092201,0.14394 c 0.04233,0.0677 0.4064,0.9652 0.550334,1.33773 -0.524934,0.0677 -1.651001,0.14393 -2.286001,0.14393 -0.347134,0 -0.567267,-0.008 -0.821267,-0.0423 z"
           style="font-style:normal;font-variant:normal;font-weight:600;font-stretch:normal;font-size:8.46667px;font-family:'Hiragino Kaku Gothic Pro';-inkscape-font-specification:'Hiragino Kaku Gothic Pro, Semi-Bold';font-variant-ligatures:normal;font-variant-caps:normal;font-variant-numeric:normal;font-variant-east-asian:normal;fill:#502d16;fill-opacity:1;stroke-width:0.0700042"
           id="path1596" />
      </g>
      <g
         aria-label="簡単　　普通　　難い"
         id="text1282"
         style="font-style:normal;font-variant:normal;font-weight:600;font-stretch:normal;font-size:4.93889px;line-height:1.25;font-family:'Hiragino Kaku Gothic Pro';-inkscape-font-specification:'Hiragino Kaku Gothic Pro, Semi-Bold';font-variant-ligatures:normal;font-variant-caps:normal;font-variant-numeric:normal;font-variant-east-asian:normal;fill:#502d16;fill-opacity:1;stroke-width:0.0700042"
         transform="translate(33.86667,19.049999)">
        <path
           d="m -63.634652,131.06819 0.316089,-0.12347 c -0.06915,-0.1136 -0.123473,-0.2025 -0.162984,-0.2667 h 0.286456 c 0.118533,0 0.237067,0.005 0.321028,0.0148 -0.02963,0.0296 -0.04939,0.0494 -0.09878,0.0988 0.153106,0.084 0.271639,0.16792 0.370417,0.2667 l -0.03457,-0.005 c 0.01482,0.12347 0.01976,0.23707 0.01976,0.40499 v 0.57291 c 0,0.17286 -0.0049,0.28646 -0.01976,0.40993 0.138288,-0.01 0.296333,-0.0148 0.513644,-0.0148 h 0.854428 v 1.45204 c 0,0.10371 -0.03457,0.12347 -0.1778,0.12347 -0.07902,0 -0.242006,-0.01 -0.370417,-0.0198 -0.0049,-0.13829 -0.0049,-0.18274 -0.0049,-0.31115 v -0.65687 c 0,-0.18768 0.0049,-0.31609 0.01482,-0.43956 -0.128411,0.01 -0.246944,0.0148 -0.469194,0.0148 h -1.037167 c -0.207434,0 -0.335845,-0.005 -0.459317,-0.0148 0.01482,0.13335 0.01976,0.25188 0.01976,0.43956 v 0.83467 c 0,0.18768 -0.0099,0.30128 -0.01976,0.43463 h 0.503767 v -0.19756 h 0.992717 c 0.167922,0 0.281516,0.005 0.390172,0.01 0.04445,0.11853 0.05927,0.21237 0.07902,0.38029 0.143228,0.005 0.212372,0.005 0.306211,0.005 0.31115,0 0.459317,-0.0198 0.558095,-0.0691 0.123472,-0.0642 0.187678,-0.2025 0.187678,-0.41981 v -2.38054 c 0,-0.23707 0.0049,-0.40499 0.01976,-0.56304 -0.123472,0.0148 -0.271639,0.0198 -0.508705,0.0198 h -0.335845 l 0.316089,-0.12347 c -0.06914,-0.11854 -0.108656,-0.17286 -0.172861,-0.26176 h 0.340783 c 0.22225,0 0.365478,0.005 0.518584,0.0247 v -0.48895 c -0.148167,0.0198 -0.286456,0.0296 -0.543278,0.0296 h -0.93345 c 0.07902,-0.15804 0.07902,-0.15804 0.118533,-0.242 l -0.523522,-0.10372 c -0.06914,0.27164 -0.1778,0.49389 -0.355601,0.72108 v -0.40499 c -0.123472,0.0198 -0.246944,0.0247 -0.484011,0.0247 h -0.637117 c 0.04939,-0.0938 0.06421,-0.11853 0.113595,-0.21731 l -0.513645,-0.12841 c -0.06914,0.20744 -0.143227,0.34079 -0.281516,0.52352 -0.138289,0.18768 -0.232128,0.28152 -0.479073,0.46426 0.123473,0.10372 0.217311,0.20743 0.316089,0.36054 0.0049,0.14323 0.0099,0.22225 0.0099,0.36548 v 2.29658 c 0,0.30621 -0.0099,0.46426 -0.02963,0.60748 h 0.567972 c -0.01976,-0.12347 -0.02469,-0.2667 -0.02469,-0.57291 v -1.51624 h 0.795161 c 0.217311,0 0.370417,0.005 0.508706,0.0148 -0.01482,-0.11853 -0.01482,-0.22225 -0.01482,-0.40993 v -0.57291 c 0,-0.18768 0,-0.28645 0.01482,-0.40499 -0.103717,0.01 -0.246945,0.0148 -0.464256,0.0148 z m -0.66675,0 c -0.09384,0 -0.148167,0 -0.242006,-0.005 0.138289,-0.13829 0.227189,-0.23707 0.335845,-0.38523 h 0.242005 c 0.07902,0.13829 0.148167,0.28645 0.192617,0.39017 z m 2.128661,0 c -0.1778,0 -0.2667,0 -0.40005,-0.01 0.113595,-0.12841 0.162983,-0.19755 0.281517,-0.37535 h 0.340783 c 0.09384,0.14322 0.138289,0.21731 0.227189,0.38523 z m -1.096433,1.88665 h 0.963083 v 0.20744 h -0.963083 z m 0,0.54822 h 0.963083 v 0.2025 h -0.963083 z m -0.987778,-2.08915 h 0.809978 v 0.18768 h -0.809978 z m 0,0.47907 h 0.809978 v 0.18768 h -0.809978 z m 2.128661,-0.47907 h 0.859367 v 0.18768 h -0.859367 z m 0,0.47907 h 0.859367 v 0.18768 h -0.859367 z"
           style="font-style:normal;font-variant:normal;font-weight:600;font-stretch:normal;font-size:4.93889px;font-family:'Hiragino Kaku Gothic Pro';-inkscape-font-specification:'Hiragino Kaku Gothic Pro, Semi-Bold';font-variant-ligatures:normal;font-variant-caps:normal;font-variant-numeric:normal;font-variant-east-asian:normal;fill:#502d16;fill-opacity:1;stroke-width:0.0700042"
           id="path1579" />
        <path
           d="m -58.152484,132.89064 v 0.32103 h -1.38289 c -0.242005,0 -0.390172,-0.005 -0.543277,-0.0247 v 0.54822 c 0.153105,-0.0198 0.335844,-0.0296 0.587727,-0.0296 h 1.33844 v 0.32102 c 0,0.24695 -0.0049,0.3556 -0.02963,0.49883 h 0.607484 c -0.02963,-0.1531 -0.03457,-0.25188 -0.03457,-0.49883 v -0.32102 h 1.387828 c 0.246944,0 0.449439,0.01 0.592666,0.0296 v -0.54822 c -0.148166,0.0198 -0.286455,0.0247 -0.538339,0.0247 H -57.6092 v -0.32103 h 1.037166 c 0.202495,0 0.350662,0.005 0.523523,0.0148 -0.01482,-0.13335 -0.01976,-0.27164 -0.01976,-0.50871 v -1.02729 c 0,-0.25682 0.0049,-0.39017 0.01976,-0.52352 -0.13335,0.0148 -0.256823,0.0197 -0.523523,0.0197 0.138289,-0.1778 0.256823,-0.3556 0.469195,-0.69638 l -0.57785,-0.18274 c -0.108656,0.29634 -0.251884,0.54822 -0.484011,0.87912 h -1.87184 l 0.375356,-0.15804 c -0.162983,-0.28646 -0.261761,-0.42968 -0.48895,-0.69638 l -0.48895,0.20743 c 0.212372,0.24201 0.31115,0.39511 0.439561,0.64699 -0.227189,0 -0.330906,-0.005 -0.454378,-0.0197 0.01482,0.14323 0.01976,0.27658 0.01976,0.52352 v 1.04211 c 0,0.21237 -0.0049,0.33584 -0.01976,0.49389 0.167922,-0.01 0.301272,-0.0148 0.523522,-0.0148 z m 0.543278,-1.2446 v -0.33585 h 1.012472 v 0.33585 z m -0.543278,0 h -0.953206 v -0.33585 h 0.953206 z m 0.543278,0.79516 v -0.38029 h 1.012472 v 0.38029 z m -0.543278,0 h -0.953206 v -0.38029 h 0.953206 z m 0.681566,-1.78294 c -0.148166,-0.33584 -0.207433,-0.4445 -0.40005,-0.73095 l -0.508705,0.14322 c 0.207433,0.32597 0.281516,0.4692 0.385233,0.76553 z"
           style="font-style:normal;font-variant:normal;font-weight:600;font-stretch:normal;font-size:4.93889px;font-family:'Hiragino Kaku Gothic Pro';-inkscape-font-specification:'Hiragino Kaku Gothic Pro, Semi-Bold';font-variant-ligatures:normal;font-variant-caps:normal;font-variant-numeric:normal;font-variant-east-asian:normal;fill:#502d16;fill-opacity:1;stroke-width:0.0700042"
           id="path1581" />
        <path
           d="m -40.361895,130.40638 c -0.232128,0 -0.375356,-0.01 -0.5334,-0.0296 v 0.49883 c 0.153105,-0.0198 0.276577,-0.0247 0.464255,-0.0247 h 0.928511 v 0.86924 h -0.681566 l 0.395111,-0.18274 c -0.172861,-0.32596 -0.232128,-0.42968 -0.414867,-0.67662 l -0.419806,0.19261 c 0.162984,0.21731 0.271639,0.39511 0.390173,0.66675 h -0.281517 c -0.22225,0 -0.365478,-0.01 -0.498828,-0.0296 v 0.51364 c 0.158045,-0.0197 0.281517,-0.0247 0.498828,-0.0247 h 3.447345 c 0.232128,0 0.345723,0.005 0.498828,0.0247 v -0.51364 c -0.13335,0.0197 -0.276578,0.0296 -0.498828,0.0296 h -0.306211 c 0.167922,-0.2667 0.232128,-0.39017 0.3556,-0.69144 l -0.48895,-0.17286 c -0.07408,0.25188 -0.1778,0.46919 -0.325967,0.6865 l 0.404989,0.1778 H -38.1147 v -0.86924 h 0.968022 c 0.197556,0 0.325967,0.005 0.454378,0.0247 v -0.49883 c -0.153106,0.0198 -0.306211,0.0296 -0.538339,0.0296 h -0.627239 c 0.108655,-0.12841 0.182739,-0.22719 0.286455,-0.38524 l -0.553155,-0.11359 c -0.06421,0.14323 -0.1778,0.33091 -0.301272,0.49883 h -0.765528 c -0.113595,-0.2025 -0.182739,-0.30127 -0.345723,-0.49883 l -0.518583,0.10866 c 0.138289,0.15804 0.187678,0.22225 0.286455,0.39017 z m 1.348317,1.31374 v -0.86924 h 0.409927 v 0.86924 z m -1.417462,2.26201 c 0,0.20744 -0.0099,0.36548 -0.02963,0.51859 h 0.563033 v -0.18768 h 2.192867 v 0.18768 h 0.563034 c -0.01976,-0.13829 -0.02963,-0.30128 -0.02963,-0.52846 v -1.13595 c 0,-0.21237 0.0049,-0.31115 0.01975,-0.4445 -0.167922,0.0148 -0.281517,0.0198 -0.469194,0.0198 h -2.365729 c -0.162983,0 -0.296333,-0.005 -0.464255,-0.0198 0.01482,0.13829 0.01976,0.24695 0.01976,0.4445 z m 0.5334,-1.15076 h 2.192867 v 0.32103 h -2.192867 z m 0,0.72602 h 2.192867 v 0.3309 h -2.192867 z"
           style="font-style:normal;font-variant:normal;font-weight:600;font-stretch:normal;font-size:4.93889px;font-family:'Hiragino Kaku Gothic Pro';-inkscape-font-specification:'Hiragino Kaku Gothic Pro, Semi-Bold';font-variant-ligatures:normal;font-variant-caps:normal;font-variant-numeric:normal;font-variant-east-asian:normal;fill:#502d16;fill-opacity:1;stroke-width:0.0700042"
           id="path1583" />
        <path
           d="m -34.163588,131.01386 c -0.256822,0 -0.40005,-0.005 -0.553156,-0.0247 0.01482,0.16792 0.01976,0.29139 0.01976,0.57785 v 1.56069 c 0,0.25188 -0.0049,0.40498 -0.0247,0.53833 h 0.558095 c -0.02469,-0.11853 -0.02963,-0.24694 -0.02963,-0.53833 v -0.25189 h 0.66675 v 0.20744 c 0,0.25682 -0.0099,0.40498 -0.02963,0.54821 h 0.548216 c -0.02469,-0.1531 -0.02963,-0.27658 -0.02963,-0.54821 v -0.20744 h 0.740833 v 0.19262 c 0,0.12841 -0.0049,0.13829 -0.113594,0.13829 -0.07902,0 -0.192617,-0.01 -0.325967,-0.0296 0.06914,0.14817 0.09878,0.27164 0.113595,0.4692 0.09384,0.005 0.1778,0.005 0.22225,0.005 0.306211,0 0.429683,-0.0296 0.518583,-0.1136 0.06915,-0.0741 0.0889,-0.17286 0.0889,-0.45437 v -1.52118 c 0,-0.27658 0.0049,-0.43956 0.01976,-0.57291 -0.118534,0.0197 -0.256822,0.0247 -0.503767,0.0247 h -0.395111 c 0.197555,-0.12841 0.439561,-0.30127 0.637117,-0.46919 0.143227,-0.11854 0.167922,-0.13829 0.246944,-0.18768 l -0.251883,-0.30621 c -0.0889,0.0247 -0.246945,0.0346 -0.558095,0.0346 h -1.6002 c -0.276578,0 -0.429684,-0.01 -0.587728,-0.0296 v 0.50376 c 0.158044,-0.0198 0.271639,-0.0247 0.513644,-0.0247 h 0.469195 l -0.380295,0.22225 c 0.133351,0.0691 0.143228,0.0741 0.409928,0.25682 z m 1.126067,0.41981 h 0.740833 v 0.32102 h -0.740833 z m -0.48895,0 v 0.32102 h -0.66675 v -0.32102 z m -0.66675,0.71614 h 0.66675 v 0.3309 h -0.66675 z m 1.896533,0.3309 h -0.740833 v -0.3309 h 0.740833 z m -0.459316,-1.94592 c -0.138289,0.11853 -0.143228,0.12347 -0.493889,0.37042 -0.291395,-0.21732 -0.335845,-0.24695 -0.513645,-0.37042 z m -3.397957,-0.15311 c 0.345723,0.29634 0.553156,0.52846 0.839612,0.92358 l 0.409928,-0.40005 c -0.237067,-0.31609 -0.498828,-0.58279 -0.854428,-0.89394 z m 0.01482,1.99038 c 0.113595,-0.0198 0.192617,-0.0247 0.316089,-0.0247 h 0.251883 v 1.05198 c -0.237066,0.21732 -0.469194,0.39018 -0.651933,0.47414 l 0.2667,0.54328 c 0.375356,-0.30128 0.375356,-0.30128 0.548217,-0.47908 0.01975,-0.0148 0.04445,-0.0395 0.07902,-0.0741 0.202494,0.23707 0.330906,0.33091 0.572911,0.41981 0.217311,0.079 0.607484,0.12347 1.11125,0.12347 0.829734,0 1.328562,-0.01 1.975556,-0.0395 0.03457,-0.21238 0.07902,-0.40993 0.143228,-0.58773 -0.987778,0.11359 -1.259417,0.12841 -2.064456,0.12841 -0.449439,0 -0.75565,-0.0296 -0.982839,-0.0889 -0.06914,-0.0198 -0.153105,-0.0642 -0.246944,-0.12841 -0.103717,-0.0741 -0.158045,-0.13335 -0.242006,-0.27658 v -1.05692 c 0,-0.2667 0.0049,-0.38523 0.01976,-0.53834 -0.113595,0.0198 -0.227189,0.0247 -0.375356,0.0247 h -0.345722 c -0.167923,0 -0.251884,-0.005 -0.375356,-0.0247 z"
           style="font-style:normal;font-variant:normal;font-weight:600;font-stretch:normal;font-size:4.93889px;font-family:'Hiragino Kaku Gothic Pro';-inkscape-font-specification:'Hiragino Kaku Gothic Pro, Semi-Bold';font-variant-ligatures:normal;font-variant-caps:normal;font-variant-numeric:normal;font-variant-east-asian:normal;fill:#502d16;fill-opacity:1;stroke-width:0.0700042"
           id="path1585" />
        <path
           d="m -8.9491416,132.20907 h 0.1284117 c 0.192616,0 0.321027,0.005 0.4198047,0.0198 v -0.50871 c -0.09878,0.0198 -0.2173107,0.0296 -0.4247437,0.0296 h -0.1234727 v -0.50871 h 0.1234727 c 0.22225,0 0.385233,0.005 0.5037667,0.0198 v -0.50871 c -0.1333507,0.0198 -0.2667007,0.0296 -0.5037667,0.0296 h -0.1382887 c 0.1185327,-0.22225 0.1728607,-0.35066 0.3111497,-0.71614 l -0.4889497,-0.11359 c -0.06915,0.30621 -0.148167,0.51858 -0.31115,0.82973 h -0.3951107 c 0.07902,-0.1778 0.143227,-0.34078 0.182738,-0.46425 0.06421,-0.18768 0.06914,-0.19756 0.09878,-0.27164 l -0.5136437,-0.12841 c -0.07902,0.45438 -0.301273,0.97296 -0.553156,1.30386 0.0049,-0.0395 0.0049,-0.0494 0.0099,-0.10371 -0.0889,0.01 -0.143228,0.01 -0.281517,0.01 h -1.481667 c -0.192617,0 -0.232128,0 -0.316089,-0.01 0.0099,0.0938 0.01482,0.16298 0.01482,0.25682 v 0.59267 c 0,0.0988 -0.0049,0.16298 -0.01482,0.25682 0.09384,-0.01 0.13335,-0.01 0.316089,-0.01 h 0.513645 c -0.0049,0.12841 -0.0049,0.12841 -0.0099,0.22225 h -0.474134 c -0.172861,0 -0.271639,-0.005 -0.375355,-0.0198 v 0.42474 c 0.103716,-0.0148 0.207433,-0.0198 0.375355,-0.0198 h 0.4445 c -0.0099,0.0988 -0.01975,0.16299 -0.03951,0.25189 h -0.493889 c -0.1778,0 -0.276577,-0.005 -0.380294,-0.0198 v 0.4445 c 0.108655,-0.0148 0.212372,-0.0197 0.380294,-0.0197 h 0.365478 c -0.06914,0.13335 -0.138289,0.21731 -0.256822,0.32102 -0.143228,0.12348 -0.246945,0.18274 -0.523522,0.28646 0.113594,0.12347 0.22225,0.28152 0.291394,0.43462 0.464256,-0.22225 0.706261,-0.43956 0.898878,-0.80998 0.242006,0.29634 0.484011,0.48895 0.839611,0.67663 0.05927,-0.16298 0.118534,-0.2667 0.242006,-0.4445 -0.345722,-0.1531 -0.503767,-0.25682 -0.721078,-0.46425 h 0.40005 c 0.172861,0 0.251884,0.005 0.350661,0.0197 v -0.4445 c -0.09878,0.0148 -0.162983,0.0198 -0.345722,0.0198 h -0.572911 c 0.01482,-0.10866 0.01482,-0.13335 0.02963,-0.25189 h 0.464256 c 0.167922,0 0.217311,0.005 0.340783,0.0198 v -0.41981 c -0.09878,0.01 -0.162983,0.0148 -0.340783,0.0148 h -0.439561 c 0.0049,-0.12347 0.0049,-0.19755 0.0049,-0.22225 h 0.493889 c 0.232128,0.005 0.232128,0.005 0.301273,0.01 -0.0049,-0.0593 -0.0049,-0.0593 -0.0099,-0.22225 v -0.45438 c 0.05433,0.10866 0.07902,0.16298 0.123472,0.29633 0.06421,-0.079 0.07408,-0.0889 0.128411,-0.1531 v 2.32622 c 0,0.26176 -0.0049,0.36547 -0.02469,0.49882 h 0.5235217 v -0.23706 h 1.1211274 c 0.232128,0 0.3605387,0.005 0.4988277,0.0197 v -0.52846 c -0.123472,0.0247 -0.2173107,0.0296 -0.4889497,0.0296 h -0.1975557 v -0.59266 h 0.1135947 c 0.197556,0 0.321028,0.005 0.4247437,0.0198 v -0.51364 c -0.09878,0.0197 -0.2173107,0.0296 -0.4198047,0.0296 h -0.1185337 z m -0.484011,0 v 0.5334 h -0.4494387 v -0.5334 z m 0,-0.45931 h -0.4494387 v -0.50871 h 0.4494387 z m -0.4494387,1.45697 h 0.4494387 v 0.59266 h -0.4494387 z m -1.9854327,-1.7138 v 0.35066 h -0.390173 v -0.35066 z m 0.459316,0 h 0.375356 v 0.35066 h -0.375356 z m -0.913694,-1.18533 h -0.07902 c -0.202494,0 -0.316089,-0.005 -0.419805,-0.0247 v 0.48895 c 0.108655,-0.0198 0.212372,-0.0247 0.414866,-0.0247 h 0.08396 c 0,0.15311 -0.0049,0.18768 -0.0099,0.28152 h 0.493889 c -0.0049,-0.084 -0.0049,-0.10866 -0.0099,-0.28152 h 0.404989 c 0,0.18274 0,0.21237 -0.0049,0.28152 h 0.493889 c -0.0099,-0.0741 -0.0099,-0.13335 -0.0099,-0.28152 0.192617,0 0.340784,0.005 0.439562,0.0198 v -0.48401 c -0.128412,0.0198 -0.22225,0.0247 -0.439562,0.0247 v -0.0593 c 0,-0.13829 0.0049,-0.20743 0.01482,-0.28151 h -0.508706 c 0.0099,0.079 0.01482,0.14816 0.01482,0.28645 v 0.0543 h -0.404989 v -0.0543 c 0,-0.14323 0.0049,-0.21731 0.01976,-0.28645 h -0.513645 c 0.01482,0.0889 0.01976,0.17286 0.01976,0.29139 z"
           style="font-style:normal;font-variant:normal;font-weight:600;font-stretch:normal;font-size:4.93889px;font-family:'Hiragino Kaku Gothic Pro';-inkscape-font-specification:'Hiragino Kaku Gothic Pro, Semi-Bold';font-variant-ligatures:normal;font-variant-caps:normal;font-variant-numeric:normal;font-variant-east-asian:normal;fill:#502d16;fill-opacity:1;stroke-width:0.0700042"
           id="path1587" />
        <path
           d="m -7.5761325,130.47552 c 0.01482,0.10866 0.01482,0.14323 0.01976,0.31609 0.01976,1.36807 0.108656,2.08421 0.3111497,2.5781 0.197556,0.47413 0.4642557,0.71614 0.7951607,0.71614 0.4198057,0 0.7062614,-0.40005 0.9630834,-1.36313 -0.242006,-0.1778 -0.3210277,-0.25189 -0.4938887,-0.44944 -0.05433,0.3309 -0.143228,0.62724 -0.261761,0.89394 -0.05927,0.13829 -0.1284107,0.21237 -0.2024947,0.21237 -0.158044,0 -0.316089,-0.31609 -0.4000497,-0.82973 -0.05433,-0.30128 -0.09384,-0.89394 -0.09384,-1.32363 0,-0.32596 0.01482,-0.56797 0.03951,-0.75071 z m 2.4941385,0.4692 c 0.296333,0.36547 0.5333997,0.76552 0.7013217,1.21496 0.172861,0.44944 0.2864557,0.96309 0.3160887,1.42734 l 0.6124227,-0.23213 c -0.143228,-1.08655 -0.4889507,-1.91135 -1.1112504,-2.65712 z"
           style="font-style:normal;font-variant:normal;font-weight:600;font-stretch:normal;font-size:4.93889px;font-family:'Hiragino Kaku Gothic Pro';-inkscape-font-specification:'Hiragino Kaku Gothic Pro, Semi-Bold';font-variant-ligatures:normal;font-variant-caps:normal;font-variant-numeric:normal;font-variant-east-asian:normal;fill:#502d16;fill-opacity:1;stroke-width:0.0700042"
           id="path1589" />
      </g>
      <g
         aria-label="戻る"
         id="text1340"
         style="font-style:normal;font-variant:normal;font-weight:600;font-stretch:normal;font-size:8.46667px;line-height:1.25;font-family:'Hiragino Kaku Gothic Pro';-inkscape-font-specification:'Hiragino Kaku Gothic Pro, Semi-Bold';font-variant-ligatures:normal;font-variant-caps:normal;font-variant-numeric:normal;font-variant-east-asian:normal;fill:#502d16;fill-opacity:1;stroke-width:0.0700042"
         transform="translate(10.583334,21.695833)">
        <path
           d="m -92.579336,143.36658 c 0.338667,0 0.618067,0.0169 0.905934,0.0508 v -0.889 c -0.237067,0.0339 -0.474134,0.0423 -0.905934,0.0423 h -1.828801 c 0.0254,-0.19473 0.03387,-0.27093 0.04233,-0.37253 0.01693,-0.254 0.01693,-0.254 0.04233,-0.36407 h -0.956734 c 0.0085,0.0931 0.01693,0.14394 0.01693,0.1778 0,0.21167 -0.0085,0.29634 -0.04233,0.5588 h -1.253067 c -0.423334,0 -0.643467,-0.008 -0.880534,-0.0423 v 0.88054 c 0.2794,-0.0339 0.541867,-0.0423 0.880534,-0.0423 h 1.032934 c -0.4064,0.80434 -1.159934,1.25307 -2.556935,1.51554 0.245534,0.34713 0.347134,0.55033 0.465667,0.88053 0.863601,-0.254 1.320801,-0.4572 1.854201,-0.82973 0.4318,-0.29634 0.7112,-0.61807 0.956734,-1.08374 0.3048,0.49954 0.635,0.84667 1.100667,1.15994 0.524933,0.3556 1.007534,0.54186 1.913467,0.75353 0.08467,-0.36407 0.143934,-0.52493 0.3302,-0.92287 -0.753533,-0.11853 -1.210733,-0.24553 -1.634067,-0.47413 -0.474134,-0.254 -0.7874,-0.54187 -1.075267,-0.99907 z m 0.973667,-5.13927 c -0.2794,0.0339 -0.5334,0.0508 -0.982134,0.0508 h -5.528735 c -0.414867,0 -0.694267,-0.0169 -0.982134,-0.0508 v 0.9144 c 0.3048,-0.0339 0.550334,-0.0423 0.982134,-0.0423 h 5.528735 c 0.4826,0 0.6858,0.008 0.982134,0.0423 z m -1.270001,3.4544 c 0.330201,0 0.558801,0.008 0.762001,0.0339 -0.01693,-0.19473 -0.0254,-0.3556 -0.0254,-0.65193 v -0.90594 c 0,-0.2794 0.0085,-0.44873 0.0254,-0.62653 -0.186267,0.0254 -0.397934,0.0339 -0.762001,0.0339 h -4.699001 c -0.381001,0 -0.660401,-0.008 -0.922867,-0.0339 0.0254,0.27093 0.03387,0.51647 0.03387,0.84667 0,2.70933 -0.186267,3.6068 -0.9652,4.699 0.321733,0.23707 0.508,0.42333 0.7366,0.69427 0.795867,-1.13454 1.066801,-2.1336 1.109134,-4.08941 z m -4.699001,-0.7366 c 0.0085,-0.1016 0.0085,-0.21166 0.0085,-0.34713 v -0.29633 h 4.546602 v 0.64346 z"
           style="font-style:normal;font-variant:normal;font-weight:600;font-stretch:normal;font-size:8.46667px;font-family:'Hiragino Kaku Gothic Pro';-inkscape-font-specification:'Hiragino Kaku Gothic Pro, Semi-Bold';font-variant-ligatures:normal;font-variant-caps:normal;font-variant-numeric:normal;font-variant-east-asian:normal;fill:#502d16;fill-opacity:1;stroke-width:0.0700042"
           id="path1361" />
        <path
           d="m -87.795668,141.58858 c 0.135467,-0.0762 0.135467,-0.0762 0.347134,-0.22013 0.169333,-0.11007 0.778934,-0.56727 0.931334,-0.69427 0.287866,-0.24553 0.905933,-0.79587 1.329267,-1.18533 0.237067,-0.22014 0.296333,-0.27094 0.440267,-0.34714 l -0.524934,-0.74506 c -0.135467,0.0677 -0.2286,0.0847 -0.524933,0.11006 -0.821267,0.0593 -1.854201,0.1016 -2.573868,0.1016 -0.465667,0 -0.7112,-0.0169 -0.999067,-0.0508 l 0.04233,1.016 c 0.160867,-0.0254 0.220134,-0.0339 0.4064,-0.0423 1.532468,-0.0677 2.074335,-0.1016 2.396068,-0.14393 l 0.0085,0.008 c -0.0508,0.0508 -0.135467,0.13547 -0.1524,0.1524 -0.643467,0.65194 -1.744134,1.6002 -2.531535,2.20134 -0.5588,0.42333 -0.897467,0.65193 -1.1938,0.79586 l 0.575733,0.91441 c 1.016001,-0.92287 2.252135,-1.42241 3.488268,-1.42241 1.024467,0 1.676401,0.4318 1.676401,1.09221 0,0.60113 -0.3048,0.9652 -1.007534,1.22766 -0.127,-0.36406 -0.220133,-0.55033 -0.389467,-0.762 -0.3556,-0.44873 -0.872067,-0.69427 -1.464733,-0.69427 -0.846667,0 -1.456268,0.50801 -1.456268,1.21074 0,0.381 0.186267,0.7366 0.508001,0.97367 0.338666,0.254 0.931333,0.38946 1.642534,0.38946 0.778933,0 1.4986,-0.16933 2.048934,-0.4826 0.753533,-0.42333 1.151467,-1.0668 1.151467,-1.87113 0,-1.15994 -0.931334,-1.905 -2.379134,-1.905 -0.635001,0 -1.007534,0.0847 -1.778001,0.38946 z m 1.219201,3.01414 c -0.237067,0.0339 -0.2794,0.0339 -0.440267,0.0339 -0.626533,0 -1.007534,-0.19473 -1.007534,-0.5334 0,-0.23706 0.194734,-0.38946 0.499534,-0.38946 0.474133,0 0.795867,0.3048 0.948267,0.889 z"
           style="font-style:normal;font-variant:normal;font-weight:600;font-stretch:normal;font-size:8.46667px;font-family:'Hiragino Kaku Gothic Pro';-inkscape-font-specification:'Hiragino Kaku Gothic Pro, Semi-Bold';font-variant-ligatures:normal;font-variant-caps:normal;font-variant-numeric:normal;font-variant-east-asian:normal;fill:#502d16;fill-opacity:1;stroke-width:0.0700042"
           id="path1363" />
      </g>
      <g
         aria-label="保存　　　　キャンセル"
         id="text1344"
         style="font-style:normal;font-variant:normal;font-weight:600;font-stretch:normal;font-size:4.93889px;line-height:1.25;font-family:'Hiragino Kaku Gothic Pro';-inkscape-font-specification:'Hiragino Kaku Gothic Pro, Semi-Bold';font-variant-ligatures:normal;font-variant-caps:normal;font-variant-numeric:normal;font-variant-east-asian:normal;fill:#502d16;fill-opacity:1;stroke-width:0.0700042"
         transform="translate(33.86667,21.695833)">
        <path
           d="m -62.464135,142.22375 h -0.814917 c -0.22225,0 -0.380295,-0.01 -0.538339,-0.0247 v 0.54822 c 0.158044,-0.0198 0.345722,-0.0296 0.538339,-0.0296 h 0.587728 c -0.192617,0.25189 -0.281517,0.35067 -0.474134,0.52353 -0.271639,0.24694 -0.528461,0.42474 -0.849489,0.59266 0.182739,0.2025 0.212372,0.24695 0.335845,0.48895 0.22225,-0.13335 0.370416,-0.242 0.592667,-0.43956 0.291394,-0.26176 0.434622,-0.43462 0.632177,-0.76553 -0.0049,0.30622 -0.0099,0.48402 -0.0099,0.52353 v 0.46425 c 0,0.16299 -0.0099,0.30127 -0.02963,0.45932 h 0.582789 c -0.01975,-0.15311 -0.02963,-0.29633 -0.02963,-0.45438 v -0.45932 c 0,-0.13335 -0.0049,-0.36547 -0.01482,-0.52846 0.202495,0.31609 0.340784,0.47908 0.592667,0.70133 0.172861,0.1531 0.276578,0.23212 0.627239,0.46919 0.113595,-0.22719 0.187678,-0.34078 0.330906,-0.52846 -0.31115,-0.14817 -0.523523,-0.28152 -0.790223,-0.50377 -0.212372,-0.1778 -0.321027,-0.28645 -0.528461,-0.54328 h 0.661811 c 0.153106,0 0.340784,0.01 0.523523,0.0296 v -0.55316 c -0.162984,0.0198 -0.3556,0.0296 -0.538339,0.0296 h -0.864306 v -0.40499 h 0.627239 c 0.06421,0 0.143228,0 0.237067,0.005 0.04939,0.005 0.0889,0.005 0.108655,0.005 0.0889,0 0.0889,0 0.143228,0.005 -0.01482,-0.13829 -0.01975,-0.25682 -0.01975,-0.46425 v -0.70133 c 0,-0.22718 0.0049,-0.32596 0.01975,-0.47907 -0.143228,0.0198 -0.306211,0.0247 -0.543278,0.0247 h -1.575506 c -0.2667,0 -0.404989,-0.005 -0.548216,-0.0247 0.01482,0.14323 0.01976,0.26176 0.01976,0.44944 v 0.72108 c 0,0.20743 -0.0049,0.33091 -0.01976,0.47907 0.13335,-0.0148 0.286455,-0.0198 0.503766,-0.0198 h 0.523523 z m -0.48895,-1.52612 h 1.580444 v 0.63711 h -1.580444 z m -1.610079,3.28436 c 0,0.23213 -0.0099,0.38029 -0.02963,0.57785 h 0.567972 c -0.01975,-0.19756 -0.02469,-0.36054 -0.02469,-0.57291 v -2.71145 c 0.182739,-0.36054 0.276578,-0.58279 0.380295,-0.91864 0.04445,-0.1531 0.04445,-0.1531 0.07408,-0.22225 l -0.553156,-0.1778 c -0.02469,0.17287 -0.09384,0.42475 -0.187678,0.67169 -0.202494,0.5334 -0.469194,0.94827 -0.834672,1.30881 0.118533,0.22719 0.143228,0.29633 0.237067,0.59761 0.1778,-0.18768 0.256822,-0.29634 0.380294,-0.49883 -0.0099,0.2667 -0.0099,0.38029 -0.0099,0.54328 z"
           style="font-style:normal;font-variant:normal;font-weight:600;font-stretch:normal;font-size:4.93889px;font-family:'Hiragino Kaku Gothic Pro';-inkscape-font-specification:'Hiragino Kaku Gothic Pro, Semi-Bold';font-variant-ligatures:normal;font-variant-caps:normal;font-variant-numeric:normal;font-variant-east-asian:normal;fill:#502d16;fill-opacity:1;stroke-width:0.0700042"
           id="path1346" />
        <path
           d="m -57.352384,142.63367 h -0.790223 c -0.246944,0 -0.409927,-0.01 -0.558094,-0.0296 v 0.54328 c 0.148167,-0.0198 0.321028,-0.0296 0.567972,-0.0296 h 0.780345 v 0.79023 c 0,0.10371 -0.03457,0.12841 -0.182739,0.12841 -0.167922,0 -0.306211,-0.0148 -0.548217,-0.0494 0.06914,0.16792 0.0889,0.23707 0.138289,0.51858 0.1778,0.0148 0.350661,0.0198 0.469195,0.0198 0.518583,0 0.656872,-0.10372 0.656872,-0.49883 v -0.90876 h 0.656872 c 0.246945,0 0.439562,0.01 0.57785,0.0296 v -0.54328 c -0.153105,0.0198 -0.316089,0.0296 -0.558094,0.0296 h -0.676628 v -0.0741 c 0.370417,-0.25188 0.617361,-0.45438 0.874183,-0.71614 0.09878,-0.0988 0.09878,-0.0988 0.143228,-0.14817 l -0.321028,-0.30621 c -0.09878,0.01 -0.237066,0.0148 -0.409927,0.0148 h -1.407584 c -0.227189,0 -0.325967,-0.005 -0.449439,-0.0198 v 0.51859 c 0.128411,-0.0198 0.246944,-0.0247 0.4445,-0.0247 h 1.259417 c -0.172861,0.16793 -0.286456,0.26176 -0.479072,0.37536 h -0.202495 c 0.0099,0.0691 0.01482,0.14817 0.01482,0.22719 z m -1.471789,-1.65946 c -0.123473,0.23706 -0.227189,0.39511 -0.385234,0.60748 h -0.2667 c 0.01482,0.11359 0.01482,0.16792 0.01976,0.30127 -0.212373,0.23707 -0.409928,0.40993 -0.726017,0.64206 0.118533,0.15804 0.212372,0.31609 0.286455,0.5087 0.227189,-0.18274 0.306212,-0.25682 0.444501,-0.38523 v 1.38289 c 0,0.24694 -0.0099,0.37535 -0.02963,0.51858 h 0.592667 c -0.02469,-0.16792 -0.02963,-0.30621 -0.02963,-0.51858 v -1.96568 c 0.261761,-0.33584 0.479072,-0.68157 0.681567,-1.09149 h 1.995311 c 0.207433,0 0.4445,0.01 0.612422,0.0247 v -0.54822 c -0.13335,0.0198 -0.31115,0.0296 -0.6223,0.0296 h -1.763183 c 0.04939,-0.13335 0.09384,-0.24695 0.113594,-0.30128 0.03457,-0.10371 0.03457,-0.10865 0.06421,-0.17286 l -0.602545,-0.0593 c -0.01976,0.15804 -0.06914,0.32102 -0.153106,0.5334 h -0.84455 c -0.301272,0 -0.479072,-0.01 -0.627239,-0.0296 v 0.54822 c 0.153106,-0.0148 0.345723,-0.0247 0.607484,-0.0247 z"
           style="font-style:normal;font-variant:normal;font-weight:600;font-stretch:normal;font-size:4.93889px;font-family:'Hiragino Kaku Gothic Pro';-inkscape-font-specification:'Hiragino Kaku Gothic Pro, Semi-Bold';font-variant-ligatures:normal;font-variant-caps:normal;font-variant-numeric:normal;font-variant-east-asian:normal;fill:#502d16;fill-opacity:1;stroke-width:0.0700042"
           id="path1348" />
        <path
           d="m -18.354207,141.09768 -0.918634,0.14323 c -0.207433,0.0296 -0.365477,0.0494 -0.543277,0.0543 l 0.09878,0.60749 c 0.13335,-0.0395 0.316089,-0.0741 0.543278,-0.1136 l 0.918634,-0.14322 0.148166,0.80997 -1.20015,0.19262 c -0.212372,0.0346 -0.3556,0.0494 -0.523522,0.0494 l 0.09878,0.60748 c 0.1778,-0.0494 0.2667,-0.0691 0.503766,-0.10865 l 1.219906,-0.19262 0.1778,0.97296 c 0.03951,0.23213 0.05927,0.37042 0.06421,0.51858 l 0.661811,-0.11853 c -0.05433,-0.16792 -0.05927,-0.18274 -0.118533,-0.5087 l -0.1778,-0.95815 1.175456,-0.18768 c 0.09878,-0.0148 0.162983,-0.0247 0.197555,-0.0296 0.02469,-0.005 0.04939,-0.01 0.07902,-0.01 0.103717,-0.0198 0.123473,-0.0198 0.227189,-0.0247 l -0.108655,-0.59267 c -0.13335,0.0395 -0.306211,0.079 -0.513645,0.1136 l -1.160639,0.18273 -0.148167,-0.80997 1.042106,-0.16299 c 0.340784,-0.0543 0.340784,-0.0543 0.474134,-0.0642 l -0.103717,-0.59267 c -0.128411,0.0444 -0.232128,0.0691 -0.474134,0.10866 l -1.042105,0.16298 -0.07902,-0.42968 c -0.03457,-0.19262 -0.05433,-0.33585 -0.05927,-0.46426 l -0.651934,0.10372 c 0.05433,0.13829 0.07408,0.22225 0.118534,0.46425 z"
           style="font-style:normal;font-variant:normal;font-weight:600;font-stretch:normal;font-size:4.93889px;font-family:'Hiragino Kaku Gothic Pro';-inkscape-font-specification:'Hiragino Kaku Gothic Pro, Semi-Bold';font-variant-ligatures:normal;font-variant-caps:normal;font-variant-numeric:normal;font-variant-east-asian:normal;fill:#502d16;fill-opacity:1;stroke-width:0.0700042"
           id="path1350" />
        <path
           d="m -13.800548,141.76937 -0.409928,0.0691 c -0.187678,0.0296 -0.31115,0.0444 -0.469194,0.0444 l 0.103716,0.56304 c 0.143228,-0.0494 0.261761,-0.079 0.434623,-0.10866 l 0.424744,-0.0691 0.335845,1.8422 c 0.02963,0.16298 0.03951,0.27164 0.03951,0.40005 l 0.617361,-0.10865 c -0.04445,-0.12842 -0.04445,-0.12842 -0.09384,-0.40005 l -0.350661,-1.82739 1.160639,-0.19262 c 0.123472,-0.0198 0.123472,-0.0198 0.182739,-0.0346 -0.202495,0.37041 -0.474134,0.65687 -0.839611,0.88406 0.207433,0.10865 0.281516,0.16298 0.459316,0.35066 0.474134,-0.36548 0.755651,-0.73589 0.972962,-1.28411 0.04939,-0.11853 0.07902,-0.17286 0.123472,-0.23707 l -0.345722,-0.31115 c -0.09878,0.0395 -0.182739,0.0642 -0.325967,0.084 l -1.476728,0.24695 -0.07408,-0.3803 c -0.03457,-0.17286 -0.04939,-0.28151 -0.04939,-0.38029 l -0.587728,0.0889 c 0.04445,0.10865 0.05433,0.15804 0.09384,0.37041 z"
           style="font-style:normal;font-variant:normal;font-weight:600;font-stretch:normal;font-size:4.93889px;font-family:'Hiragino Kaku Gothic Pro';-inkscape-font-specification:'Hiragino Kaku Gothic Pro, Semi-Bold';font-variant-ligatures:normal;font-variant-caps:normal;font-variant-numeric:normal;font-variant-east-asian:normal;fill:#502d16;fill-opacity:1;stroke-width:0.0700042"
           id="path1352" />
        <path
           d="m -9.9398053,140.98902 c 0.459317,0.25682 0.8643063,0.58279 1.2594173,1.0026 l 0.424744,-0.53834 c -0.380294,-0.36054 -0.686505,-0.58773 -1.2742333,-0.95321 z m 0.172861,3.25967 c 0.113595,-0.0395 0.128411,-0.0445 0.3259673,-0.084 0.765528,-0.16298 1.37795,-0.40499 1.881717,-0.74083 0.676628,-0.44944 1.145822,-1.03223 1.565628,-1.93605 -0.251883,-0.1778 -0.330906,-0.25188 -0.523522,-0.48401 -0.148167,0.40005 -0.286456,0.67169 -0.503767,0.98778 -0.390172,0.56303 -0.849489,0.94333 -1.46685,1.21003 -0.449439,0.19755 -1.0371673,0.34078 -1.4619123,0.36547 z"
           style="font-style:normal;font-variant:normal;font-weight:600;font-stretch:normal;font-size:4.93889px;font-family:'Hiragino Kaku Gothic Pro';-inkscape-font-specification:'Hiragino Kaku Gothic Pro, Semi-Bold';font-variant-ligatures:normal;font-variant-caps:normal;font-variant-numeric:normal;font-variant-east-asian:normal;fill:#502d16;fill-opacity:1;stroke-width:0.0700042"
           id="path1354" />
        <path
           d="m -1.4103403,141.01372 c -0.113594,0.0494 -0.118533,0.0543 -0.380294,0.084 l -1.797756,0.21731 v -0.6223 c 0,-0.21237 0.0049,-0.31609 0.02963,-0.45932 h -0.681567 c 0.0247,0.16792 0.02963,0.22225 0.02963,0.4692 v 0.67662 l -0.523523,0.0642 c -0.13335,0.0198 -0.345722,0.0346 -0.434622,0.0346 -0.02469,0 -0.0642,0 -0.1185327,-0.005 l 0.06421,0.61243 c 0.162984,-0.0445 0.162984,-0.0445 0.548217,-0.0938 l 0.464256,-0.0593 v 1.13101 c 0,0.39511 0.0049,0.46919 0.04939,0.6223 0.05433,0.21237 0.22225,0.39511 0.424744,0.45437 0.187678,0.0543 0.479073,0.084 0.879123,0.084 0.325966,0 0.691444,-0.0247 1.224844,-0.084 0.128411,-0.0148 0.167923,-0.0148 0.301273,-0.0197 l -0.02963,-0.66675 c -0.409928,0.12347 -0.948267,0.19262 -1.516239,0.19262 -0.503767,0 -0.661811,-0.0543 -0.696383,-0.24695 -0.01482,-0.084 -0.01482,-0.084 -0.01976,-0.42474 v -1.11125 c 0.513645,-0.0741 1.02235,-0.13829 1.521178,-0.19756 0.07408,-0.01 0.108656,-0.0148 0.187678,-0.0296 -0.0889,0.14816 -0.118533,0.19261 -0.187678,0.29139 -0.217311,0.28646 -0.474133,0.50871 -0.814917,0.69639 0.227189,0.13335 0.301273,0.18767 0.493889,0.40005 0.572911,-0.42475 0.923573,-0.83962 1.210028,-1.44216 0.06914,-0.14323 0.07902,-0.15805 0.138289,-0.24201 z"
           style="font-style:normal;font-variant:normal;font-weight:600;font-stretch:normal;font-size:4.93889px;font-family:'Hiragino Kaku Gothic Pro';-inkscape-font-specification:'Hiragino Kaku Gothic Pro, Semi-Bold';font-variant-ligatures:normal;font-variant-caps:normal;font-variant-numeric:normal;font-variant-east-asian:normal;fill:#502d16;fill-opacity:1;stroke-width:0.0700042"
           id="path1356" />
        <path
           d="m 0.48619243,140.29758 c 0.01975,0.13335 0.01975,0.1778 0.01975,0.44944 0,1.38289 -0.11359403,2.02 -0.46919373,2.58798 -0.148167,0.23706 -0.2667,0.37041 -0.50870603,0.56797 0.23212803,0.15804 0.30621103,0.23213 0.49882803,0.47907 0.3259667,-0.32103 0.51364373,-0.57291 0.68156673,-0.91369 0.256822,-0.50871 0.36547797,-1.0668 0.40004997,-2.02989 0.02963,-0.96802 0.02963,-0.96802 0.04939,-1.10631 z m 1.30880597,-0.0346 c 0.01482,0.0938 0.01975,0.20249 0.01975,0.32596 v 0.14817 l -0.02469,2.78553 c -0.0049,0.27164 -0.0099,0.3803 -0.04445,0.52353 l 0.316089,0.33584 c 0.0642,-0.0296 0.103716,-0.0494 0.212372,-0.0889 0.513644,-0.20249 0.770467,-0.35066 1.051983,-0.59267 0.325967,-0.29139 0.5827889,-0.66181 0.7852839,-1.15076 -0.227189,-0.1778 -0.291395,-0.242 -0.4642559,-0.46425 -0.113594,0.36547 -0.256822,0.63711 -0.484011,0.90381 -0.212372,0.25189 -0.409928,0.40005 -0.75565,0.56304 l 0.02469,-2.81023 c 0.0049,-0.24201 0.0099,-0.32597 0.03457,-0.4692 z"
           style="font-style:normal;font-variant:normal;font-weight:600;font-stretch:normal;font-size:4.93889px;font-family:'Hiragino Kaku Gothic Pro';-inkscape-font-specification:'Hiragino Kaku Gothic Pro, Semi-Bold';font-variant-ligatures:normal;font-variant-caps:normal;font-variant-numeric:normal;font-variant-east-asian:normal;fill:#502d16;fill-opacity:1;stroke-width:0.0700042"
           id="path1358" />
      </g>
      <g
         aria-label="言語"
         id="text3154"
         style="font-weight:600;font-size:8.46667px;line-height:1.25;font-family:'Hiragino Kaku Gothic Pro';-inkscape-font-specification:'Hiragino Kaku Gothic Pro, Semi-Bold';fill:#502d16;fill-opacity:1;stroke-width:0.0700042">
        <path
           d="m -81.872586,119.7265 c -0.270933,0.0339 -0.541866,0.0508 -0.931333,0.0508 h -3.835402 c -0.381,0 -0.651933,-0.0169 -0.931334,-0.0508 v 0.84667 c 0.287867,-0.0339 0.533401,-0.0423 0.931334,-0.0423 h 3.835402 c 0.389467,0 0.643467,0.008 0.931333,0.0423 z m 0.956734,1.20227 c -0.254,0.0339 -0.516467,0.0508 -0.922867,0.0508 h -5.774269 c -0.4064,0 -0.677333,-0.0169 -0.931334,-0.0508 v 0.89747 c 0.287867,-0.0339 0.524934,-0.0423 0.939801,-0.0423 h 5.757335 c 0.364067,0 0.643467,0.0169 0.931334,0.0423 z m -1.032934,1.26154 c -0.220133,0.0254 -0.440266,0.0339 -0.855133,0.0339 h -3.826935 c -0.414867,0 -0.635,-0.008 -0.8636,-0.0339 v 0.82126 c 0.2286,-0.0339 0.474133,-0.0423 0.8636,-0.0423 h 3.826935 c 0.381,0 0.618067,0.008 0.855133,0.0423 z m 0,1.17686 c -0.2286,0.0339 -0.440266,0.0423 -0.855133,0.0423 h -3.826935 c -0.414867,0 -0.635,-0.008 -0.8636,-0.0423 v 0.82974 c 0.237066,-0.0339 0.4572,-0.0423 0.8636,-0.0423 h 3.826935 c 0.397933,0 0.6096,0.008 0.855133,0.0423 z m -4.741335,3.59834 h 3.894668 v 0.36406 h 0.965201 c -0.03387,-0.23706 -0.04233,-0.4318 -0.04233,-0.7874 v -1.1938 c 0,-0.37253 0.0085,-0.54186 0.03387,-0.7366 -0.1778,0.0254 -0.3302,0.0339 -0.668867,0.0339 h -4.461935 c -0.3048,0 -0.465667,-0.008 -0.668867,-0.0339 0.03387,0.254 0.04233,0.41487 0.04233,0.7366 v 1.18534 c 0,0.24553 -0.01693,0.52493 -0.04233,0.7874 h 0.948267 z m 0,-1.53247 h 3.903135 v 0.71967 h -3.903135 z"
           style="fill:#502d16;fill-opacity:1;stroke-width:0.0700042"
           id="path3156" />
        <path
           d="m -76.259183,122.93537 c -0.423334,0 -0.584201,-0.008 -0.838201,-0.0423 v 0.89747 c 0.254,-0.0339 0.448734,-0.0423 0.838201,-0.0423 h 3.132668 c 0.3556,0 0.550333,0.008 0.829733,0.0423 v -0.90594 c -0.254,0.0423 -0.364067,0.0508 -0.770467,0.0508 v -1.0668 c 0,-0.31326 0.0085,-0.47413 0.03387,-0.6604 -0.1778,0.0254 -0.372534,0.0339 -0.668867,0.0339 h -1.007534 c 0.03387,-0.11853 0.08467,-0.33867 0.169334,-0.6604 h 1.2192 c 0.414867,0 0.635,0.008 0.897467,0.0423 v -0.89747 c -0.2286,0.0254 -0.508,0.0423 -0.9398,0.0423 h -2.582335 c -0.381,0 -0.6604,-0.0169 -0.948267,-0.0423 v 0.89747 c 0.262467,-0.0339 0.482601,-0.0423 0.889001,-0.0423 h 0.550333 c -0.06773,0.32173 -0.06773,0.32173 -0.1524,0.6604 h -0.423333 c -0.2794,0 -0.474134,-0.008 -0.677334,-0.0339 v 0.8636 c 0.194734,-0.0254 0.414867,-0.0339 0.6604,-0.0339 h 0.211667 c -0.110067,0.37253 -0.1524,0.49106 -0.3048,0.89746 z m 1.032933,0 c 0.143934,-0.38946 0.1778,-0.4826 0.296334,-0.89746 h 0.9906 v 0.89746 z m -4.597401,-2.413 c 0.211666,-0.0169 0.397933,-0.0254 0.702733,-0.0254 h 1.143001 c 0.372533,0 0.4318,0 0.702733,0.0254 v -0.82127 c -0.211667,0.0339 -0.364067,0.0423 -0.702733,0.0423 h -1.143001 c -0.338667,0 -0.491067,-0.008 -0.702733,-0.0423 z m -0.279401,1.22767 c 0.203201,-0.0254 0.381001,-0.0339 0.677334,-0.0339 h 1.642534 c 0.364067,0 0.491067,0.008 0.677334,0.0339 v -0.87207 c -0.194734,0.0254 -0.364067,0.0339 -0.719667,0.0339 h -1.600201 c -0.313267,0 -0.474133,-0.008 -0.677334,-0.0423 z m 0.296334,1.17687 c 0.169333,-0.0169 0.287867,-0.0254 0.5588,-0.0254 h 1.422401 c 0.2794,0 0.3302,0 0.541867,0.0254 v -0.7874 c -0.1524,0.0169 -0.262467,0.0254 -0.541867,0.0254 h -1.422401 c -0.2794,0 -0.389467,-0.008 -0.5588,-0.0254 z m 0,1.17686 c 0.160867,-0.0169 0.296333,-0.0254 0.550333,-0.0254 h 1.413934 c 0.296334,0 0.347134,0 0.558801,0.0254 v -0.77893 c -0.1524,0.0169 -0.262467,0.0254 -0.541867,0.0254 h -1.422401 c -0.2794,0 -0.389467,-0.008 -0.5588,-0.0254 z m -0.03387,2.3876 c 0,0.29634 -0.01693,0.5588 -0.0508,0.82127 h 0.872067 v -0.39793 h 0.982134 v 0.28786 h 0.829734 c -0.0254,-0.22013 -0.03387,-0.34713 -0.03387,-0.6604 v -1.41393 c 0,-0.31327 0.0085,-0.4572 0.0254,-0.6096 -0.143933,0.0254 -0.237067,0.0254 -0.567267,0.0254 h -1.447801 c -0.245533,0 -0.440266,-0.008 -0.651933,-0.0339 0.03387,0.21167 0.04233,0.4064 0.04233,0.66887 z m 0.829734,-1.22766 h 0.973667 v 0.89746 h -0.973667 z m 2.362201,1.21073 c 0,0.33867 -0.0085,0.61807 -0.03387,0.85513 h 0.939801 v -0.381 h 2.048934 v 0.37254 h 0.9652 c -0.0254,-0.21167 -0.04233,-0.4826 -0.04233,-0.8382 v -1.6002 c 0,-0.2794 0.0085,-0.49954 0.03387,-0.67734 -0.169333,0.0169 -0.313266,0.0254 -0.6858,0.0254 h -2.531534 c -0.338667,0 -0.508,-0.008 -0.719667,-0.0254 0.01693,0.18627 0.0254,0.34714 0.0254,0.60114 z m 0.905934,-1.45627 h 2.048934 v 1.10067 h -2.048934 z"
           style="fill:#502d16;fill-opacity:1;stroke-width:0.0700042"
           id="path3158" />
      </g>
      <g
         aria-label="English　            日本語"
         id="text1026-2"
         style="font-style:normal;font-variant:normal;font-weight:600;font-stretch:normal;font-size:5.64444px;line-height:1.25;font-family:'Hiragino Kaku Gothic Pro';-inkscape-font-specification:'Hiragino Kaku Gothic Pro, Semi-Bold';font-variant-ligatures:normal;font-variant-caps:normal;font-variant-numeric:normal;font-variant-east-asian:normal;fill:#502d16;fill-opacity:1;stroke-width:0.0700042"
         transform="translate(5.2746873,-0.20768646)">
        <path
           d="m -38.758052,125.9235 c -0.242711,0.0282 -0.406399,0.0395 -0.722488,0.0395 h -1.693332 v -1.33209 h 1.377243 c 0.349956,0 0.502356,0.006 0.733778,0.0395 v -0.73942 c -0.248356,0.0282 -0.440267,0.0395 -0.733778,0.0395 h -1.371599 v -1.16275 h 1.625599 c 0.333022,0 0.513644,0.0113 0.728133,0.0395 v -0.74507 c -0.259644,0.0282 -0.445911,0.0395 -0.728133,0.0395 h -1.704621 c -0.344311,0 -0.491066,-0.006 -0.716844,-0.0169 0.03387,0.26529 0.04516,0.43462 0.04516,0.72813 v 3.05364 c 0,0.33303 -0.01129,0.51929 -0.04516,0.74507 0.225778,-0.0113 0.378178,-0.0169 0.716844,-0.0169 h 1.761066 c 0.34431,0 0.524933,0.0113 0.728132,0.0395 z"
           style="font-style:normal;font-variant:normal;font-weight:600;font-stretch:normal;font-size:5.64444px;font-family:'Hiragino Kaku Gothic Pro';-inkscape-font-specification:'Hiragino Kaku Gothic Pro, Semi-Bold';font-variant-ligatures:normal;font-variant-caps:normal;font-variant-numeric:normal;font-variant-east-asian:normal;fill:#502d16;fill-opacity:1;stroke-width:0.0700042"
           id="path2637-5" />
        <path
           d="m -37.332566,126.6347 c -0.03387,-0.24271 -0.04516,-0.4572 -0.04516,-0.73378 v -1.14018 c 0.248355,-0.5588 0.581377,-0.84102 0.987777,-0.84102 0.214488,0 0.383822,0.0847 0.474133,0.23142 0.06773,0.10725 0.09595,0.25965 0.09595,0.49671 v 1.25307 c 0,0.28787 -0.01129,0.47978 -0.03951,0.73378 h 0.818444 c -0.03387,-0.20885 -0.04516,-0.42334 -0.04516,-0.73378 v -1.35467 c 0,-0.37817 -0.05644,-0.60395 -0.191911,-0.79022 -0.2032,-0.27658 -0.524933,-0.41769 -0.959554,-0.41769 -0.508,0 -0.807155,0.15805 -1.151466,0.59831 0.01129,-0.14111 0.01129,-0.15804 0.01129,-0.24271 v -0.29915 h -0.767644 c 0.03387,0.23142 0.04516,0.42333 0.04516,0.73378 v 1.77235 c 0,0.31609 -0.01129,0.49107 -0.04516,0.73378 z"
           style="font-style:normal;font-variant:normal;font-weight:600;font-stretch:normal;font-size:5.64444px;font-family:'Hiragino Kaku Gothic Pro';-inkscape-font-specification:'Hiragino Kaku Gothic Pro, Semi-Bold';font-variant-ligatures:normal;font-variant-caps:normal;font-variant-numeric:normal;font-variant-east-asian:normal;fill:#502d16;fill-opacity:1;stroke-width:0.0700042"
           id="path2639-6" />
        <path
           d="m -34.409716,127.15398 c 0.383822,0.43463 0.756355,0.58703 1.416754,0.58703 0.581378,0 1.049866,-0.12983 1.332088,-0.36125 0.327378,-0.27657 0.474133,-0.7112 0.474133,-1.38853 v -1.89089 c 0,-0.3048 0.01129,-0.46284 0.03951,-0.70555 h -0.756355 v 0.25964 c 0,0.0621 0,0.0734 0.01129,0.18627 -0.242711,-0.34431 -0.575733,-0.49671 -1.078088,-0.49671 -0.914399,0 -1.507065,0.63218 -1.507065,1.60866 0,0.9652 0.575732,1.58045 1.473198,1.58045 0.491067,0 0.824089,-0.15805 1.106311,-0.51365 -0.01129,0.38382 -0.0508,0.58138 -0.146756,0.75071 -0.158044,0.27094 -0.491066,0.42334 -0.925688,0.42334 -0.4064,0 -0.654755,-0.12418 -0.874888,-0.42898 z m 0.671688,-2.18439 c 0,-0.67169 0.349956,-1.09502 0.9144,-1.09502 0.203199,0 0.389466,0.0734 0.54751,0.2032 0.225778,0.19191 0.338667,0.47413 0.338667,0.83537 0,0.25965 -0.0508,0.46849 -0.158045,0.64347 -0.158044,0.26529 -0.474133,0.44591 -0.784577,0.44591 -0.214489,0 -0.4572,-0.1016 -0.598311,-0.254 -0.169333,-0.16933 -0.259644,-0.44591 -0.259644,-0.77893 z"
           style="font-style:normal;font-variant:normal;font-weight:600;font-stretch:normal;font-size:5.64444px;font-family:'Hiragino Kaku Gothic Pro';-inkscape-font-specification:'Hiragino Kaku Gothic Pro, Semi-Bold';font-variant-ligatures:normal;font-variant-caps:normal;font-variant-numeric:normal;font-variant-east-asian:normal;fill:#502d16;fill-opacity:1;stroke-width:0.0700042"
           id="path2641-3" />
        <path
           d="m -30.439382,122.14172 c 0.02822,0.21449 0.03951,0.39511 0.03951,0.73378 v 3.02542 c 0,0.32738 -0.01129,0.49107 -0.03951,0.73378 h 0.818444 c -0.02822,-0.24836 -0.03951,-0.43463 -0.03951,-0.73378 v -3.01978 c 0,-0.33866 0.01129,-0.51928 0.03951,-0.73942 z"
           style="font-style:normal;font-variant:normal;font-weight:600;font-stretch:normal;font-size:5.64444px;font-family:'Hiragino Kaku Gothic Pro';-inkscape-font-specification:'Hiragino Kaku Gothic Pro, Semi-Bold';font-variant-ligatures:normal;font-variant-caps:normal;font-variant-numeric:normal;font-variant-east-asian:normal;fill:#502d16;fill-opacity:1;stroke-width:0.0700042"
           id="path2643-4" />
        <path
           d="m -28.907004,122.14172 v 0.71685 h 0.829732 v -0.71685 z m 0,1.25307 c 0.03387,0.23142 0.04516,0.42333 0.04516,0.73378 v 1.77235 c 0,0.28222 -0.01129,0.47978 -0.04516,0.73378 h 0.824088 c -0.02822,-0.23707 -0.03951,-0.42898 -0.03951,-0.73943 v -1.76106 c 0,-0.34431 0.01129,-0.53058 0.03951,-0.73942 z"
           style="font-style:normal;font-variant:normal;font-weight:600;font-stretch:normal;font-size:5.64444px;font-family:'Hiragino Kaku Gothic Pro';-inkscape-font-specification:'Hiragino Kaku Gothic Pro, Semi-Bold';font-variant-ligatures:normal;font-variant-caps:normal;font-variant-numeric:normal;font-variant-east-asian:normal;fill:#502d16;fill-opacity:1;stroke-width:0.0700042"
           id="path2645-0" />
        <path
           d="m -27.515738,125.71465 c 0.06773,0.254 0.118533,0.36689 0.220133,0.50236 0.242711,0.32738 0.677333,0.50235 1.25871,0.50235 0.513644,0 0.908755,-0.12417 1.168399,-0.36689 0.169333,-0.15804 0.276578,-0.4064 0.276578,-0.63782 0,-0.31044 -0.107245,-0.54186 -0.327378,-0.69991 -0.186266,-0.14111 -0.417688,-0.22013 -0.993421,-0.34431 -0.321733,-0.0734 -0.440266,-0.10724 -0.564444,-0.16933 -0.112889,-0.0621 -0.174978,-0.15805 -0.174978,-0.26529 0,-0.23707 0.237067,-0.39511 0.587022,-0.39511 0.366889,0 0.5588,0.13547 0.620888,0.44591 l 0.745066,-0.096 c -0.07902,-0.27657 -0.158044,-0.41768 -0.304799,-0.5588 -0.231422,-0.21448 -0.598311,-0.32737 -1.061155,-0.32737 -0.513644,0 -0.897466,0.14675 -1.128888,0.44026 -0.112889,0.14111 -0.174978,0.32738 -0.174978,0.52494 0,0.32737 0.174978,0.59831 0.496711,0.75071 0.191911,0.0903 0.366889,0.14675 0.812799,0.24271 0.451556,0.1016 0.485422,0.10724 0.592667,0.18062 0.09031,0.0621 0.146755,0.16933 0.146755,0.28222 0,0.26529 -0.259644,0.42898 -0.677333,0.42898 -0.440266,0 -0.64911,-0.1524 -0.745066,-0.53622 z"
           style="font-style:normal;font-variant:normal;font-weight:600;font-stretch:normal;font-size:5.64444px;font-family:'Hiragino Kaku Gothic Pro';-inkscape-font-specification:'Hiragino Kaku Gothic Pro, Semi-Bold';font-variant-ligatures:normal;font-variant-caps:normal;font-variant-numeric:normal;font-variant-east-asian:normal;fill:#502d16;fill-opacity:1;stroke-width:0.0700042"
           id="path2647-6" />
        <path
           d="m -24.017596,122.14172 c 0.02822,0.22578 0.03951,0.40076 0.03951,0.73942 v 3.01978 c 0,0.32173 -0.01129,0.49107 -0.04516,0.73378 h 0.812799 c -0.03387,-0.24271 -0.04516,-0.4572 -0.04516,-0.73378 v -1.14018 c 0.254,-0.56444 0.581377,-0.83537 1.00471,-0.83537 0.1524,0 0.287867,0.0564 0.389466,0.16368 0.107245,0.11289 0.163689,0.29916 0.163689,0.5588 v 1.25307 c 0,0.28787 -0.01129,0.47978 -0.03951,0.73378 h 0.818444 c -0.03387,-0.20885 -0.04516,-0.42334 -0.04516,-0.73378 v -1.4224 c 0,-0.72813 -0.412044,-1.14018 -1.134532,-1.14018 -0.513644,0 -0.818444,0.15805 -1.168399,0.59831 0.01129,-0.14111 0.01129,-0.16933 0.01129,-0.24271 v -0.80715 c 0,-0.32173 0.01129,-0.53058 0.03951,-0.74507 z"
           style="font-style:normal;font-variant:normal;font-weight:600;font-stretch:normal;font-size:5.64444px;font-family:'Hiragino Kaku Gothic Pro';-inkscape-font-specification:'Hiragino Kaku Gothic Pro, Semi-Bold';font-variant-ligatures:normal;font-variant-caps:normal;font-variant-numeric:normal;font-variant-east-asian:normal;fill:#502d16;fill-opacity:1;stroke-width:0.0700042"
           id="path2649-0" />
        <path
           d="m 12.264249,126.29039 c 0,0.26528 -0.01129,0.49106 -0.03387,0.68297 h 0.671688 v -0.33866 h 2.624665 v 0.33866 h 0.682977 c -0.02258,-0.2032 -0.03387,-0.38946 -0.03387,-0.68297 v -3.64631 c 0,-0.19756 0.0056,-0.36125 0.02822,-0.57574 -0.169333,0.0226 -0.34431,0.0282 -0.609599,0.0282 h -2.731909 c -0.259644,0 -0.445911,-0.006 -0.626533,-0.0282 0.01693,0.18627 0.02822,0.38383 0.02822,0.60396 z m 0.637822,-3.59551 h 2.624665 v 1.30951 h -2.624665 z m 0,1.90217 h 2.624665 v 1.44498 h -2.624665 z"
           style="font-style:normal;font-variant:normal;font-weight:600;font-stretch:normal;font-size:5.64444px;font-family:'Hiragino Kaku Gothic Pro';-inkscape-font-specification:'Hiragino Kaku Gothic Pro, Semi-Bold';font-variant-ligatures:normal;font-variant-caps:normal;font-variant-numeric:normal;font-variant-east-asian:normal;fill:#502d16;fill-opacity:1;stroke-width:0.0700042"
           id="path2651-4" />
        <path
           d="m 19.161755,123.36657 c -0.434622,0.88617 -1.1176,1.64253 -1.964266,2.16746 0.186267,0.20884 0.270934,0.33867 0.383822,0.59267 0.3556,-0.24836 0.592667,-0.45156 0.9144,-0.79022 v 0.63782 c 0.169333,-0.0226 0.333022,-0.0339 0.564444,-0.0339 h 0.44591 v 0.38382 c 0,0.26529 -0.01129,0.49107 -0.03951,0.69991 h 0.7112 c -0.02822,-0.19755 -0.03951,-0.43462 -0.03951,-0.69991 V 125.9404 H 20.6406 c 0.231422,0 0.389466,0.0113 0.564444,0.0339 v -0.64347 c 0.344311,0.33867 0.587022,0.53622 0.948266,0.78458 0.112889,-0.254 0.208844,-0.4064 0.383822,-0.61525 -0.445911,-0.23706 -0.846666,-0.54751 -1.230488,-0.94826 -0.316089,-0.33302 -0.581377,-0.70556 -0.846666,-1.18533 h 1.20791 c 0.265289,0 0.434622,0.0113 0.682977,0.0339 v -0.68862 c -0.191911,0.0282 -0.400755,0.0395 -0.682977,0.0395 h -1.529643 v -0.4064 c 0,-0.20884 0.01129,-0.36124 0.03951,-0.51929 H 19.4722 c 0.02258,0.16369 0.03387,0.3048 0.03387,0.52494 v 0.40075 h -1.450621 c -0.265288,0 -0.451555,-0.0113 -0.671688,-0.0395 v 0.68862 c 0.231422,-0.0226 0.423333,-0.0339 0.671688,-0.0339 z m 0.976488,1.96426 v -0.89182 c 0,-0.16933 -0.01693,-0.39511 -0.0508,-0.62653 0.406399,0.7112 0.654755,1.05551 1.095021,1.49577 -0.135466,0.0169 -0.237066,0.0226 -0.496711,0.0226 z m -0.632178,0 h -0.479777 c -0.259644,0 -0.372533,-0.006 -0.502355,-0.0226 0.4572,-0.49106 0.728133,-0.88617 1.027288,-1.49577 -0.02822,0.23142 -0.04516,0.4572 -0.04516,0.63217 z"
           style="font-style:normal;font-variant:normal;font-weight:600;font-stretch:normal;font-size:5.64444px;font-family:'Hiragino Kaku Gothic Pro';-inkscape-font-specification:'Hiragino Kaku Gothic Pro, Semi-Bold';font-variant-ligatures:normal;font-variant-caps:normal;font-variant-numeric:normal;font-variant-east-asian:normal;fill:#502d16;fill-opacity:1;stroke-width:0.0700042"
           id="path2653-0" />
        <path
           d="m 25.506109,124.10034 c -0.282222,0 -0.389467,-0.006 -0.5588,-0.0282 v 0.59831 c 0.169333,-0.0226 0.299155,-0.0282 0.5588,-0.0282 h 2.088443 c 0.237066,0 0.366888,0.006 0.553155,0.0282 v -0.60395 c -0.169333,0.0282 -0.242711,0.0339 -0.513644,0.0339 v -0.7112 c 0,-0.20884 0.0056,-0.31609 0.02258,-0.44026 -0.118533,0.0169 -0.248355,0.0226 -0.44591,0.0226 h -0.671689 c 0.02258,-0.079 0.05645,-0.22577 0.112889,-0.44026 h 0.812799 c 0.276578,0 0.423333,0.006 0.598311,0.0282 v -0.59831 c -0.1524,0.0169 -0.338666,0.0282 -0.626533,0.0282 h -1.721554 c -0.254,0 -0.440266,-0.0113 -0.632177,-0.0282 v 0.59831 c 0.174977,-0.0226 0.321733,-0.0282 0.592666,-0.0282 h 0.366889 c -0.04516,0.21449 -0.04516,0.21449 -0.1016,0.44026 h -0.282222 c -0.186267,0 -0.316089,-0.006 -0.451556,-0.0226 v 0.57573 c 0.129823,-0.0169 0.276578,-0.0226 0.440267,-0.0226 h 0.141111 c -0.07338,0.24836 -0.1016,0.32738 -0.2032,0.59831 z m 0.688621,0 c 0.09596,-0.25964 0.118534,-0.32173 0.197556,-0.59831 h 0.660399 v 0.59831 z m -3.064931,-1.60866 c 0.141111,-0.0113 0.265289,-0.0169 0.468489,-0.0169 h 0.761999 c 0.248356,0 0.287867,0 0.468489,0.0169 v -0.54751 c -0.141111,0.0226 -0.242711,0.0282 -0.468489,0.0282 h -0.761999 c -0.225778,0 -0.327378,-0.006 -0.468489,-0.0282 z m -0.186266,0.81844 c 0.135466,-0.0169 0.254,-0.0226 0.451555,-0.0226 h 1.095021 c 0.242711,0 0.327378,0.006 0.451556,0.0226 v -0.58138 c -0.129822,0.0169 -0.242711,0.0226 -0.479778,0.0226 h -1.066799 c -0.208844,0 -0.316089,-0.006 -0.451555,-0.0282 z m 0.197555,0.78458 c 0.112889,-0.0113 0.191911,-0.0169 0.372533,-0.0169 h 0.948266 c 0.186267,0 0.220133,0 0.361244,0.0169 v -0.52493 c -0.101599,0.0113 -0.174977,0.0169 -0.361244,0.0169 h -0.948266 c -0.186266,0 -0.259644,-0.006 -0.372533,-0.0169 z m 0,0.78458 c 0.107245,-0.0113 0.197556,-0.0169 0.366889,-0.0169 h 0.942621 c 0.197556,0 0.231422,0 0.372533,0.0169 v -0.51929 c -0.101599,0.0113 -0.174977,0.0169 -0.361244,0.0169 h -0.948266 c -0.186266,0 -0.259644,-0.006 -0.372533,-0.0169 z m -0.02258,1.59173 c 0,0.19755 -0.01129,0.37253 -0.03387,0.54751 h 0.581377 v -0.26529 h 0.654755 v 0.19191 h 0.553155 c -0.01693,-0.14675 -0.02258,-0.23142 -0.02258,-0.44027 v -0.94262 c 0,-0.20884 0.0056,-0.3048 0.01693,-0.4064 -0.09596,0.0169 -0.158044,0.0169 -0.378178,0.0169 h -0.965199 c -0.163689,0 -0.293511,-0.006 -0.434622,-0.0226 0.02258,0.14111 0.02822,0.27093 0.02822,0.44591 z m 0.553155,-0.81845 h 0.64911 v 0.59831 h -0.64911 z m 1.574798,0.80716 c 0,0.22578 -0.0056,0.41204 -0.02258,0.57009 h 0.626533 v -0.254 h 1.365954 v 0.24835 h 0.643466 c -0.01693,-0.14111 -0.02822,-0.32173 -0.02822,-0.5588 v -1.0668 c 0,-0.18626 0.0056,-0.33302 0.02258,-0.45155 -0.112889,0.0113 -0.208844,0.0169 -0.4572,0.0169 h -1.687687 c -0.225778,0 -0.338667,-0.006 -0.479778,-0.0169 0.01129,0.12418 0.01693,0.23142 0.01693,0.40075 z m 0.603956,-0.97084 h 1.365954 v 0.73377 h -1.365954 z"
           style="font-style:normal;font-variant:normal;font-weight:600;font-stretch:normal;font-size:5.64444px;font-family:'Hiragino Kaku Gothic Pro';-inkscape-font-specification:'Hiragino Kaku Gothic Pro, Semi-Bold';font-variant-ligatures:normal;font-variant-caps:normal;font-variant-numeric:normal;font-variant-east-asian:normal;fill:#502d16;fill-opacity:1;stroke-width:0.0700042"
           id="path2655-5" />
      </g>
    </g>
  </g>
</svg>
