<?xml version="1.0" encoding="UTF-8" standalone="no"?>
<svg
   xmlns:dc="http://purl.org/dc/elements/1.1/"
   xmlns:cc="http://creativecommons.org/ns#"
   xmlns:rdf="http://www.w3.org/1999/02/22-rdf-syntax-ns#"
   xmlns:svg="http://www.w3.org/2000/svg"
   xmlns="http://www.w3.org/2000/svg"
   xmlns:sodipodi="http://sodipodi.sourceforge.net/DTD/sodipodi-0.dtd"
   xmlns:inkscape="http://www.inkscape.org/namespaces/inkscape"
   width="161.10043mm"
   height="62.61475mm"
   viewBox="0 0 161.10046 62.614747"
   version="1.1"
   id="svg974"
   inkscape:version="1.0.1 (c497b03c, 2020-09-10)"
   sodipodi:docname="option_menu_en.svg">
  <defs
     id="defs968" />
  <sodipodi:namedview
     id="base"
     pagecolor="#ffffff"
     bordercolor="#666666"
     borderopacity="1.0"
     inkscape:pageopacity="0.0"
     inkscape:pageshadow="2"
     inkscape:zoom="0.91486105"
     inkscape:cx="306.67609"
     inkscape:cy="188.0353"
     inkscape:document-units="mm"
     inkscape:current-layer="text1026"
     inkscape:document-rotation="0"
     showgrid="false"
     fit-margin-top="0"
     fit-margin-left="0"
     fit-margin-right="0"
     fit-margin-bottom="0"
     inkscape:window-width="1440"
     inkscape:window-height="697"
     inkscape:window-x="0"
     inkscape:window-y="25"
     inkscape:window-maximized="0" />
  <metadata
     id="metadata971">
    <rdf:RDF>
      <cc:Work
         rdf:about="">
        <dc:format>image/svg+xml</dc:format>
        <dc:type
           rdf:resource="http://purl.org/dc/dcmitype/StillImage" />
        <dc:title></dc:title>
      </cc:Work>
    </rdf:RDF>
  </metadata>
  <g
     inkscape:label="レイヤー 1"
     inkscape:groupmode="layer"
     id="layer1"
     transform="translate(122.26895,-111.60452)">
    <g
       id="text978"
       style="font-weight:600;font-size:22.5778px;line-height:1.25;font-family:'Hiragino Kaku Gothic Pro';-inkscape-font-specification:'Hiragino Kaku Gothic Pro, Semi-Bold';stroke-width:0.264583" />
    <g
       aria-label="心の準備が出来た  今はその時ではない"
       id="text982"
       style="font-style:normal;font-variant:normal;font-weight:600;font-stretch:normal;font-size:14.1111px;line-height:1.25;font-family:'Hiragino Kaku Gothic Pro';-inkscape-font-specification:'Hiragino Kaku Gothic Pro, Semi-Bold';font-variant-ligatures:normal;font-variant-caps:normal;font-variant-numeric:normal;font-variant-east-asian:normal;stroke-width:0.264583">
      <path
         id="rect2305"
         style="fill:none;fill-opacity:1;fill-rule:evenodd;stroke:#502d16;stroke-width:1.02704;stroke-linecap:round;stroke-linejoin:round;stroke-miterlimit:4;stroke-dasharray:none;stroke-opacity:1"
         d="M -121.75543,112.11804 H 38.317968 v 61.58771 H -121.75543 Z"
         sodipodi:nodetypes="ccccc" />
      <g
         aria-label="Language"
         id="text1022"
         style="font-weight:600;font-size:8.46667px;line-height:1.25;font-family:'Hiragino Kaku Gothic Pro';-inkscape-font-specification:'Hiragino Kaku Gothic Pro, Semi-Bold';fill:#502d16;fill-opacity:1;stroke-width:0.0700042">
        <path
           d="m -82.782808,126.18542 c -0.3556,0.0423 -0.626534,0.0593 -1.202267,0.0593 h -2.370668 v -4.4704 c 0,-0.61807 0.01693,-0.89747 0.06773,-1.2446 h -1.278468 c 0.0508,0.36407 0.06773,0.66887 0.06773,1.25307 v 4.3942 c 0,0.49107 -0.01693,0.80433 -0.06773,1.1176 0.304801,-0.0169 0.601134,-0.0254 1.075267,-0.0254 h 2.506135 c 0.601133,0 0.897467,0.0169 1.202267,0.0593 z"
           style="fill:#502d16;fill-opacity:1;stroke-width:0.0700042"
           id="path2658" />
        <path
           d="m -78.984845,127.26915 h 1.143 c -0.0508,-0.381 -0.06773,-0.6096 -0.06773,-1.05833 v -2.27754 c 0,-0.57573 -0.110067,-0.89747 -0.397933,-1.1684 -0.364067,-0.3556 -0.855134,-0.49953 -1.667934,-0.49953 -0.728134,0 -1.202268,0.127 -1.617134,0.4318 -0.321734,0.2286 -0.474134,0.44873 -0.668867,0.9398 l 1.083733,0.19473 c 0.1016,-0.3048 0.1778,-0.42333 0.338667,-0.54187 0.194734,-0.1524 0.541867,-0.24553 0.880534,-0.24553 0.643467,0 0.973667,0.254 0.973667,0.74507 v 0.4318 c -1.210734,0.0254 -1.837267,0.11006 -2.387601,0.33866 -0.5842,0.24554 -0.956734,0.77894 -0.956734,1.37161 0,0.889 0.626534,1.4224 1.659468,1.4224 0.270933,0 0.541866,-0.0339 0.7874,-0.1016 0.347133,-0.0931 0.5588,-0.21167 0.897467,-0.5334 z m 0,-1.88807 c 0,0.29634 -0.1016,0.54187 -0.3048,0.74507 -0.287867,0.2794 -0.728134,0.44873 -1.176867,0.44873 -0.474134,0 -0.770467,-0.24553 -0.770467,-0.64346 0,-0.6604 0.635,-0.93981 2.252134,-0.97367 z"
           style="fill:#502d16;fill-opacity:1;stroke-width:0.0700042"
           id="path2660" />
        <path
           d="m -75.608628,127.26915 c -0.0508,-0.36407 -0.06773,-0.6858 -0.06773,-1.10067 v -1.71027 c 0.372534,-0.8382 0.872067,-1.26153 1.481668,-1.26153 0.321733,0 0.575733,0.127 0.7112,0.34713 0.1016,0.16087 0.143933,0.38947 0.143933,0.74507 v 1.8796 c 0,0.4318 -0.01693,0.71967 -0.05927,1.10067 h 1.227667 c -0.0508,-0.31327 -0.06773,-0.635 -0.06773,-1.10067 v -2.032 c 0,-0.56727 -0.08467,-0.90593 -0.287866,-1.18533 -0.3048,-0.41487 -0.787401,-0.62654 -1.439334,-0.62654 -0.762001,0 -1.210734,0.23707 -1.727201,0.89747 0.01693,-0.21167 0.01693,-0.23707 0.01693,-0.36407 v -0.44873 h -1.151467 c 0.0508,0.34713 0.06773,0.635 0.06773,1.10067 v 2.65853 c 0,0.47414 -0.01693,0.7366 -0.06773,1.10067 z"
           style="fill:#502d16;fill-opacity:1;stroke-width:0.0700042"
           id="path2662" />
        <path
           d="m -71.224349,128.04808 c 0.575734,0.65194 1.134534,0.88054 2.125134,0.88054 0.872068,0 1.574801,-0.19474 1.998135,-0.54187 0.491066,-0.41487 0.7112,-1.0668 0.7112,-2.0828 v -2.83634 c 0,-0.4572 0.01693,-0.69426 0.05927,-1.05833 h -1.134534 v 0.38947 c 0,0.0931 0,0.11006 0.01693,0.2794 -0.364067,-0.51647 -0.8636,-0.74507 -1.617134,-0.74507 -1.3716,0 -2.260601,0.94827 -2.260601,2.413 0,1.4478 0.863601,2.37067 2.209801,2.37067 0.7366,0 1.236134,-0.23707 1.659467,-0.77047 -0.01693,0.57574 -0.0762,0.87207 -0.220133,1.12607 -0.237067,0.4064 -0.7366,0.635 -1.388534,0.635 -0.6096,0 -0.982134,-0.18627 -1.312334,-0.64347 z m 1.007534,-3.2766 c 0,-1.00753 0.524934,-1.64253 1.371601,-1.64253 0.3048,0 0.5842,0.11006 0.821267,0.3048 0.338666,0.28786 0.508,0.7112 0.508,1.25306 0,0.38947 -0.0762,0.70274 -0.237067,0.96521 -0.237067,0.39793 -0.7112,0.66886 -1.176867,0.66886 -0.321734,0 -0.6858,-0.1524 -0.897467,-0.381 -0.254,-0.254 -0.389467,-0.66886 -0.389467,-1.1684 z"
           style="fill:#502d16;fill-opacity:1;stroke-width:0.0700042"
           id="path2664" />
        <path
           d="m -61.848305,122.40928 c 0.04233,0.36407 0.06773,0.6858 0.06773,1.10067 v 1.71027 c -0.381,0.8382 -0.8636,1.25306 -1.473201,1.25306 -0.160866,0 -0.338666,-0.0508 -0.465666,-0.11853 -0.262467,-0.16087 -0.389467,-0.47413 -0.389467,-0.9652 v -1.8796 c 0,-0.4318 0.0085,-0.71967 0.05927,-1.10067 h -1.227667 c 0.04233,0.31327 0.06773,0.635 0.06773,1.10067 v 2.14207 c 0,0.69426 0.220133,1.1684 0.6858,1.46473 0.2794,0.16933 0.5842,0.24553 1.016,0.24553 0.804334,0 1.270001,-0.24553 1.735668,-0.90593 -0.0085,0.21167 -0.0085,0.23707 -0.0085,0.36407 v 0.44873 h 1.151467 c -0.0508,-0.34713 -0.06773,-0.635 -0.06773,-1.10067 v -2.65853 c 0,-0.47414 0.0085,-0.7366 0.06773,-1.10067 z"
           style="fill:#502d16;fill-opacity:1;stroke-width:0.0700042"
           id="path2666" />
        <path
           d="m -56.346424,127.26915 h 1.143001 c -0.0508,-0.381 -0.06773,-0.6096 -0.06773,-1.05833 v -2.27754 c 0,-0.57573 -0.110067,-0.89747 -0.397934,-1.1684 -0.364067,-0.3556 -0.855134,-0.49953 -1.667934,-0.49953 -0.728134,0 -1.202267,0.127 -1.617134,0.4318 -0.321733,0.2286 -0.474133,0.44873 -0.668867,0.9398 l 1.083734,0.19473 c 0.1016,-0.3048 0.1778,-0.42333 0.338667,-0.54187 0.194733,-0.1524 0.541867,-0.24553 0.880533,-0.24553 0.643467,0 0.973667,0.254 0.973667,0.74507 v 0.4318 c -1.210733,0.0254 -1.837267,0.11006 -2.387601,0.33866 -0.5842,0.24554 -0.956733,0.77894 -0.956733,1.37161 0,0.889 0.626533,1.4224 1.659467,1.4224 0.270934,0 0.541867,-0.0339 0.7874,-0.1016 0.347134,-0.0931 0.558801,-0.21167 0.897467,-0.5334 z m 0,-1.88807 c 0,0.29634 -0.1016,0.54187 -0.3048,0.74507 -0.287866,0.2794 -0.728133,0.44873 -1.176867,0.44873 -0.474133,0 -0.770467,-0.24553 -0.770467,-0.64346 0,-0.6604 0.635,-0.93981 2.252134,-0.97367 z"
           style="fill:#502d16;fill-opacity:1;stroke-width:0.0700042"
           id="path2668" />
        <path
           d="m -54.291007,128.04808 c 0.575734,0.65194 1.134534,0.88054 2.125134,0.88054 0.872067,0 1.574801,-0.19474 1.998135,-0.54187 0.491066,-0.41487 0.7112,-1.0668 0.7112,-2.0828 v -2.83634 c 0,-0.4572 0.01693,-0.69426 0.05927,-1.05833 h -1.134534 v 0.38947 c 0,0.0931 0,0.11006 0.01693,0.2794 -0.364067,-0.51647 -0.8636,-0.74507 -1.617134,-0.74507 -1.3716,0 -2.260601,0.94827 -2.260601,2.413 0,1.4478 0.863601,2.37067 2.209801,2.37067 0.7366,0 1.236134,-0.23707 1.659467,-0.77047 -0.01693,0.57574 -0.0762,0.87207 -0.220133,1.12607 -0.237067,0.4064 -0.7366,0.635 -1.388534,0.635 -0.6096,0 -0.982134,-0.18627 -1.312334,-0.64347 z m 1.007534,-3.2766 c 0,-1.00753 0.524934,-1.64253 1.371601,-1.64253 0.3048,0 0.5842,0.11006 0.821267,0.3048 0.338666,0.28786 0.508,0.7112 0.508,1.25306 0,0.38947 -0.0762,0.70274 -0.237067,0.96521 -0.237067,0.39793 -0.7112,0.66886 -1.176867,0.66886 -0.321734,0 -0.6858,-0.1524 -0.897467,-0.381 -0.254,-0.254 -0.389467,-0.66886 -0.389467,-1.1684 z"
           style="fill:#502d16;fill-opacity:1;stroke-width:0.0700042"
           id="path2670" />
        <path
           d="m -43.78043,125.11861 c -0.01693,-0.19473 -0.01693,-0.22013 -0.01693,-0.23706 -0.0254,-0.57574 -0.08467,-0.88054 -0.245533,-1.28694 -0.338667,-0.84666 -1.117601,-1.33773 -2.108201,-1.33773 -1.447801,0 -2.387601,1.02447 -2.387601,2.5908 0,1.58327 0.948267,2.58234 2.446867,2.58234 0.711201,0 1.303868,-0.22014 1.744134,-0.65194 0.211667,-0.21166 0.321734,-0.37253 0.516467,-0.77893 l -0.999067,-0.32173 c -0.08467,0.2286 -0.143933,0.32173 -0.245533,0.44026 -0.245534,0.27094 -0.601134,0.42334 -1.016001,0.42334 -0.4318,0 -0.8128,-0.16934 -1.058333,-0.47414 -0.194734,-0.24553 -0.270934,-0.4826 -0.313267,-0.94827 z m -3.657601,-0.8382 c 0.127,-0.7112 0.6096,-1.15146 1.27,-1.15146 0.397934,0 0.685801,0.11006 0.914401,0.33866 0.211667,0.21167 0.313267,0.44027 0.372533,0.8128 z"
           style="fill:#502d16;fill-opacity:1;stroke-width:0.0700042"
           id="path2672" />
      </g>
      <g
         aria-label="English　            日本語"
         id="text1026"
         style="font-style:normal;font-variant:normal;font-weight:600;font-stretch:normal;font-size:5.64444px;line-height:1.25;font-family:'Hiragino Kaku Gothic Pro';-inkscape-font-specification:'Hiragino Kaku Gothic Pro, Semi-Bold';font-variant-ligatures:normal;font-variant-caps:normal;font-variant-numeric:normal;font-variant-east-asian:normal;fill:#502d16;fill-opacity:1;stroke-width:0.0700042"
         transform="translate(5.2916667)">
        <path
           d="m -38.758052,125.9235 c -0.242711,0.0282 -0.406399,0.0395 -0.722488,0.0395 h -1.693332 v -1.33209 h 1.377243 c 0.349956,0 0.502356,0.006 0.733778,0.0395 v -0.73942 c -0.248356,0.0282 -0.440267,0.0395 -0.733778,0.0395 h -1.371599 v -1.16275 h 1.625599 c 0.333022,0 0.513644,0.0113 0.728133,0.0395 v -0.74507 c -0.259644,0.0282 -0.445911,0.0395 -0.728133,0.0395 h -1.704621 c -0.344311,0 -0.491066,-0.006 -0.716844,-0.0169 0.03387,0.26529 0.04516,0.43462 0.04516,0.72813 v 3.05364 c 0,0.33303 -0.01129,0.51929 -0.04516,0.74507 0.225778,-0.0113 0.378178,-0.0169 0.716844,-0.0169 h 1.761066 c 0.34431,0 0.524933,0.0113 0.728132,0.0395 z"
           style="font-style:normal;font-variant:normal;font-weight:600;font-stretch:normal;font-size:5.64444px;font-family:'Hiragino Kaku Gothic Pro';-inkscape-font-specification:'Hiragino Kaku Gothic Pro, Semi-Bold';font-variant-ligatures:normal;font-variant-caps:normal;font-variant-numeric:normal;font-variant-east-asian:normal;fill:#502d16;fill-opacity:1;stroke-width:0.0700042"
           id="path2637" />
        <path
           d="m -37.332566,126.6347 c -0.03387,-0.24271 -0.04516,-0.4572 -0.04516,-0.73378 v -1.14018 c 0.248355,-0.5588 0.581377,-0.84102 0.987777,-0.84102 0.214488,0 0.383822,0.0847 0.474133,0.23142 0.06773,0.10725 0.09595,0.25965 0.09595,0.49671 v 1.25307 c 0,0.28787 -0.01129,0.47978 -0.03951,0.73378 h 0.818444 c -0.03387,-0.20885 -0.04516,-0.42334 -0.04516,-0.73378 v -1.35467 c 0,-0.37817 -0.05644,-0.60395 -0.191911,-0.79022 -0.2032,-0.27658 -0.524933,-0.41769 -0.959554,-0.41769 -0.508,0 -0.807155,0.15805 -1.151466,0.59831 0.01129,-0.14111 0.01129,-0.15804 0.01129,-0.24271 v -0.29915 h -0.767644 c 0.03387,0.23142 0.04516,0.42333 0.04516,0.73378 v 1.77235 c 0,0.31609 -0.01129,0.49107 -0.04516,0.73378 z"
           style="font-style:normal;font-variant:normal;font-weight:600;font-stretch:normal;font-size:5.64444px;font-family:'Hiragino Kaku Gothic Pro';-inkscape-font-specification:'Hiragino Kaku Gothic Pro, Semi-Bold';font-variant-ligatures:normal;font-variant-caps:normal;font-variant-numeric:normal;font-variant-east-asian:normal;fill:#502d16;fill-opacity:1;stroke-width:0.0700042"
           id="path2639" />
        <path
           d="m -34.409716,127.15398 c 0.383822,0.43463 0.756355,0.58703 1.416754,0.58703 0.581378,0 1.049866,-0.12983 1.332088,-0.36125 0.327378,-0.27657 0.474133,-0.7112 0.474133,-1.38853 v -1.89089 c 0,-0.3048 0.01129,-0.46284 0.03951,-0.70555 h -0.756355 v 0.25964 c 0,0.0621 0,0.0734 0.01129,0.18627 -0.242711,-0.34431 -0.575733,-0.49671 -1.078088,-0.49671 -0.914399,0 -1.507065,0.63218 -1.507065,1.60866 0,0.9652 0.575732,1.58045 1.473198,1.58045 0.491067,0 0.824089,-0.15805 1.106311,-0.51365 -0.01129,0.38382 -0.0508,0.58138 -0.146756,0.75071 -0.158044,0.27094 -0.491066,0.42334 -0.925688,0.42334 -0.4064,0 -0.654755,-0.12418 -0.874888,-0.42898 z m 0.671688,-2.18439 c 0,-0.67169 0.349956,-1.09502 0.9144,-1.09502 0.203199,0 0.389466,0.0734 0.54751,0.2032 0.225778,0.19191 0.338667,0.47413 0.338667,0.83537 0,0.25965 -0.0508,0.46849 -0.158045,0.64347 -0.158044,0.26529 -0.474133,0.44591 -0.784577,0.44591 -0.214489,0 -0.4572,-0.1016 -0.598311,-0.254 -0.169333,-0.16933 -0.259644,-0.44591 -0.259644,-0.77893 z"
           style="font-style:normal;font-variant:normal;font-weight:600;font-stretch:normal;font-size:5.64444px;font-family:'Hiragino Kaku Gothic Pro';-inkscape-font-specification:'Hiragino Kaku Gothic Pro, Semi-Bold';font-variant-ligatures:normal;font-variant-caps:normal;font-variant-numeric:normal;font-variant-east-asian:normal;fill:#502d16;fill-opacity:1;stroke-width:0.0700042"
           id="path2641" />
        <path
           d="m -30.439382,122.14172 c 0.02822,0.21449 0.03951,0.39511 0.03951,0.73378 v 3.02542 c 0,0.32738 -0.01129,0.49107 -0.03951,0.73378 h 0.818444 c -0.02822,-0.24836 -0.03951,-0.43463 -0.03951,-0.73378 v -3.01978 c 0,-0.33866 0.01129,-0.51928 0.03951,-0.73942 z"
           style="font-style:normal;font-variant:normal;font-weight:600;font-stretch:normal;font-size:5.64444px;font-family:'Hiragino Kaku Gothic Pro';-inkscape-font-specification:'Hiragino Kaku Gothic Pro, Semi-Bold';font-variant-ligatures:normal;font-variant-caps:normal;font-variant-numeric:normal;font-variant-east-asian:normal;fill:#502d16;fill-opacity:1;stroke-width:0.0700042"
           id="path2643" />
        <path
           d="m -28.907004,122.14172 v 0.71685 h 0.829732 v -0.71685 z m 0,1.25307 c 0.03387,0.23142 0.04516,0.42333 0.04516,0.73378 v 1.77235 c 0,0.28222 -0.01129,0.47978 -0.04516,0.73378 h 0.824088 c -0.02822,-0.23707 -0.03951,-0.42898 -0.03951,-0.73943 v -1.76106 c 0,-0.34431 0.01129,-0.53058 0.03951,-0.73942 z"
           style="font-style:normal;font-variant:normal;font-weight:600;font-stretch:normal;font-size:5.64444px;font-family:'Hiragino Kaku Gothic Pro';-inkscape-font-specification:'Hiragino Kaku Gothic Pro, Semi-Bold';font-variant-ligatures:normal;font-variant-caps:normal;font-variant-numeric:normal;font-variant-east-asian:normal;fill:#502d16;fill-opacity:1;stroke-width:0.0700042"
           id="path2645" />
        <path
           d="m -27.515738,125.71465 c 0.06773,0.254 0.118533,0.36689 0.220133,0.50236 0.242711,0.32738 0.677333,0.50235 1.25871,0.50235 0.513644,0 0.908755,-0.12417 1.168399,-0.36689 0.169333,-0.15804 0.276578,-0.4064 0.276578,-0.63782 0,-0.31044 -0.107245,-0.54186 -0.327378,-0.69991 -0.186266,-0.14111 -0.417688,-0.22013 -0.993421,-0.34431 -0.321733,-0.0734 -0.440266,-0.10724 -0.564444,-0.16933 -0.112889,-0.0621 -0.174978,-0.15805 -0.174978,-0.26529 0,-0.23707 0.237067,-0.39511 0.587022,-0.39511 0.366889,0 0.5588,0.13547 0.620888,0.44591 l 0.745066,-0.096 c -0.07902,-0.27657 -0.158044,-0.41768 -0.304799,-0.5588 -0.231422,-0.21448 -0.598311,-0.32737 -1.061155,-0.32737 -0.513644,0 -0.897466,0.14675 -1.128888,0.44026 -0.112889,0.14111 -0.174978,0.32738 -0.174978,0.52494 0,0.32737 0.174978,0.59831 0.496711,0.75071 0.191911,0.0903 0.366889,0.14675 0.812799,0.24271 0.451556,0.1016 0.485422,0.10724 0.592667,0.18062 0.09031,0.0621 0.146755,0.16933 0.146755,0.28222 0,0.26529 -0.259644,0.42898 -0.677333,0.42898 -0.440266,0 -0.64911,-0.1524 -0.745066,-0.53622 z"
           style="font-style:normal;font-variant:normal;font-weight:600;font-stretch:normal;font-size:5.64444px;font-family:'Hiragino Kaku Gothic Pro';-inkscape-font-specification:'Hiragino Kaku Gothic Pro, Semi-Bold';font-variant-ligatures:normal;font-variant-caps:normal;font-variant-numeric:normal;font-variant-east-asian:normal;fill:#502d16;fill-opacity:1;stroke-width:0.0700042"
           id="path2647" />
        <path
           d="m -24.017596,122.14172 c 0.02822,0.22578 0.03951,0.40076 0.03951,0.73942 v 3.01978 c 0,0.32173 -0.01129,0.49107 -0.04516,0.73378 h 0.812799 c -0.03387,-0.24271 -0.04516,-0.4572 -0.04516,-0.73378 v -1.14018 c 0.254,-0.56444 0.581377,-0.83537 1.00471,-0.83537 0.1524,0 0.287867,0.0564 0.389466,0.16368 0.107245,0.11289 0.163689,0.29916 0.163689,0.5588 v 1.25307 c 0,0.28787 -0.01129,0.47978 -0.03951,0.73378 h 0.818444 c -0.03387,-0.20885 -0.04516,-0.42334 -0.04516,-0.73378 v -1.4224 c 0,-0.72813 -0.412044,-1.14018 -1.134532,-1.14018 -0.513644,0 -0.818444,0.15805 -1.168399,0.59831 0.01129,-0.14111 0.01129,-0.16933 0.01129,-0.24271 v -0.80715 c 0,-0.32173 0.01129,-0.53058 0.03951,-0.74507 z"
           style="font-style:normal;font-variant:normal;font-weight:600;font-stretch:normal;font-size:5.64444px;font-family:'Hiragino Kaku Gothic Pro';-inkscape-font-specification:'Hiragino Kaku Gothic Pro, Semi-Bold';font-variant-ligatures:normal;font-variant-caps:normal;font-variant-numeric:normal;font-variant-east-asian:normal;fill:#502d16;fill-opacity:1;stroke-width:0.0700042"
           id="path2649" />
        <path
           d="m 12.264249,126.29039 c 0,0.26528 -0.01129,0.49106 -0.03387,0.68297 h 0.671688 v -0.33866 h 2.624665 v 0.33866 h 0.682977 c -0.02258,-0.2032 -0.03387,-0.38946 -0.03387,-0.68297 v -3.64631 c 0,-0.19756 0.0056,-0.36125 0.02822,-0.57574 -0.169333,0.0226 -0.34431,0.0282 -0.609599,0.0282 h -2.731909 c -0.259644,0 -0.445911,-0.006 -0.626533,-0.0282 0.01693,0.18627 0.02822,0.38383 0.02822,0.60396 z m 0.637822,-3.59551 h 2.624665 v 1.30951 h -2.624665 z m 0,1.90217 h 2.624665 v 1.44498 h -2.624665 z"
           style="font-style:normal;font-variant:normal;font-weight:600;font-stretch:normal;font-size:5.64444px;font-family:'Hiragino Kaku Gothic Pro';-inkscape-font-specification:'Hiragino Kaku Gothic Pro, Semi-Bold';font-variant-ligatures:normal;font-variant-caps:normal;font-variant-numeric:normal;font-variant-east-asian:normal;fill:#502d16;fill-opacity:1;stroke-width:0.0700042"
           id="path2651" />
        <path
           d="m 19.161755,123.36657 c -0.434622,0.88617 -1.1176,1.64253 -1.964266,2.16746 0.186267,0.20884 0.270934,0.33867 0.383822,0.59267 0.3556,-0.24836 0.592667,-0.45156 0.9144,-0.79022 v 0.63782 c 0.169333,-0.0226 0.333022,-0.0339 0.564444,-0.0339 h 0.44591 v 0.38382 c 0,0.26529 -0.01129,0.49107 -0.03951,0.69991 h 0.7112 c -0.02822,-0.19755 -0.03951,-0.43462 -0.03951,-0.69991 V 125.9404 H 20.6406 c 0.231422,0 0.389466,0.0113 0.564444,0.0339 v -0.64347 c 0.344311,0.33867 0.587022,0.53622 0.948266,0.78458 0.112889,-0.254 0.208844,-0.4064 0.383822,-0.61525 -0.445911,-0.23706 -0.846666,-0.54751 -1.230488,-0.94826 -0.316089,-0.33302 -0.581377,-0.70556 -0.846666,-1.18533 h 1.20791 c 0.265289,0 0.434622,0.0113 0.682977,0.0339 v -0.68862 c -0.191911,0.0282 -0.400755,0.0395 -0.682977,0.0395 h -1.529643 v -0.4064 c 0,-0.20884 0.01129,-0.36124 0.03951,-0.51929 H 19.4722 c 0.02258,0.16369 0.03387,0.3048 0.03387,0.52494 v 0.40075 h -1.450621 c -0.265288,0 -0.451555,-0.0113 -0.671688,-0.0395 v 0.68862 c 0.231422,-0.0226 0.423333,-0.0339 0.671688,-0.0339 z m 0.976488,1.96426 v -0.89182 c 0,-0.16933 -0.01693,-0.39511 -0.0508,-0.62653 0.406399,0.7112 0.654755,1.05551 1.095021,1.49577 -0.135466,0.0169 -0.237066,0.0226 -0.496711,0.0226 z m -0.632178,0 h -0.479777 c -0.259644,0 -0.372533,-0.006 -0.502355,-0.0226 0.4572,-0.49106 0.728133,-0.88617 1.027288,-1.49577 -0.02822,0.23142 -0.04516,0.4572 -0.04516,0.63217 z"
           style="font-style:normal;font-variant:normal;font-weight:600;font-stretch:normal;font-size:5.64444px;font-family:'Hiragino Kaku Gothic Pro';-inkscape-font-specification:'Hiragino Kaku Gothic Pro, Semi-Bold';font-variant-ligatures:normal;font-variant-caps:normal;font-variant-numeric:normal;font-variant-east-asian:normal;fill:#502d16;fill-opacity:1;stroke-width:0.0700042"
           id="path2653" />
        <path
           d="m 25.506109,124.10034 c -0.282222,0 -0.389467,-0.006 -0.5588,-0.0282 v 0.59831 c 0.169333,-0.0226 0.299155,-0.0282 0.5588,-0.0282 h 2.088443 c 0.237066,0 0.366888,0.006 0.553155,0.0282 v -0.60395 c -0.169333,0.0282 -0.242711,0.0339 -0.513644,0.0339 v -0.7112 c 0,-0.20884 0.0056,-0.31609 0.02258,-0.44026 -0.118533,0.0169 -0.248355,0.0226 -0.44591,0.0226 h -0.671689 c 0.02258,-0.079 0.05645,-0.22577 0.112889,-0.44026 h 0.812799 c 0.276578,0 0.423333,0.006 0.598311,0.0282 v -0.59831 c -0.1524,0.0169 -0.338666,0.0282 -0.626533,0.0282 h -1.721554 c -0.254,0 -0.440266,-0.0113 -0.632177,-0.0282 v 0.59831 c 0.174977,-0.0226 0.321733,-0.0282 0.592666,-0.0282 h 0.366889 c -0.04516,0.21449 -0.04516,0.21449 -0.1016,0.44026 h -0.282222 c -0.186267,0 -0.316089,-0.006 -0.451556,-0.0226 v 0.57573 c 0.129823,-0.0169 0.276578,-0.0226 0.440267,-0.0226 h 0.141111 c -0.07338,0.24836 -0.1016,0.32738 -0.2032,0.59831 z m 0.688621,0 c 0.09596,-0.25964 0.118534,-0.32173 0.197556,-0.59831 h 0.660399 v 0.59831 z m -3.064931,-1.60866 c 0.141111,-0.0113 0.265289,-0.0169 0.468489,-0.0169 h 0.761999 c 0.248356,0 0.287867,0 0.468489,0.0169 v -0.54751 c -0.141111,0.0226 -0.242711,0.0282 -0.468489,0.0282 h -0.761999 c -0.225778,0 -0.327378,-0.006 -0.468489,-0.0282 z m -0.186266,0.81844 c 0.135466,-0.0169 0.254,-0.0226 0.451555,-0.0226 h 1.095021 c 0.242711,0 0.327378,0.006 0.451556,0.0226 v -0.58138 c -0.129822,0.0169 -0.242711,0.0226 -0.479778,0.0226 h -1.066799 c -0.208844,0 -0.316089,-0.006 -0.451555,-0.0282 z m 0.197555,0.78458 c 0.112889,-0.0113 0.191911,-0.0169 0.372533,-0.0169 h 0.948266 c 0.186267,0 0.220133,0 0.361244,0.0169 v -0.52493 c -0.101599,0.0113 -0.174977,0.0169 -0.361244,0.0169 h -0.948266 c -0.186266,0 -0.259644,-0.006 -0.372533,-0.0169 z m 0,0.78458 c 0.107245,-0.0113 0.197556,-0.0169 0.366889,-0.0169 h 0.942621 c 0.197556,0 0.231422,0 0.372533,0.0169 v -0.51929 c -0.101599,0.0113 -0.174977,0.0169 -0.361244,0.0169 h -0.948266 c -0.186266,0 -0.259644,-0.006 -0.372533,-0.0169 z m -0.02258,1.59173 c 0,0.19755 -0.01129,0.37253 -0.03387,0.54751 h 0.581377 v -0.26529 h 0.654755 v 0.19191 h 0.553155 c -0.01693,-0.14675 -0.02258,-0.23142 -0.02258,-0.44027 v -0.94262 c 0,-0.20884 0.0056,-0.3048 0.01693,-0.4064 -0.09596,0.0169 -0.158044,0.0169 -0.378178,0.0169 h -0.965199 c -0.163689,0 -0.293511,-0.006 -0.434622,-0.0226 0.02258,0.14111 0.02822,0.27093 0.02822,0.44591 z m 0.553155,-0.81845 h 0.64911 v 0.59831 h -0.64911 z m 1.574798,0.80716 c 0,0.22578 -0.0056,0.41204 -0.02258,0.57009 h 0.626533 v -0.254 h 1.365954 v 0.24835 h 0.643466 c -0.01693,-0.14111 -0.02822,-0.32173 -0.02822,-0.5588 v -1.0668 c 0,-0.18626 0.0056,-0.33302 0.02258,-0.45155 -0.112889,0.0113 -0.208844,0.0169 -0.4572,0.0169 h -1.687687 c -0.225778,0 -0.338667,-0.006 -0.479778,-0.0169 0.01129,0.12418 0.01693,0.23142 0.01693,0.40075 z m 0.603956,-0.97084 h 1.365954 v 0.73377 h -1.365954 z"
           style="font-style:normal;font-variant:normal;font-weight:600;font-stretch:normal;font-size:5.64444px;font-family:'Hiragino Kaku Gothic Pro';-inkscape-font-specification:'Hiragino Kaku Gothic Pro, Semi-Bold';font-variant-ligatures:normal;font-variant-caps:normal;font-variant-numeric:normal;font-variant-east-asian:normal;fill:#502d16;fill-opacity:1;stroke-width:0.0700042"
           id="path2655" />
      </g>
      <g
         aria-label="Speed Difficulty Back"
         id="text1384-4"
         style="font-style:normal;font-variant:normal;font-weight:600;font-stretch:normal;font-size:8.46667px;line-height:1.25;font-family:'Hiragino Kaku Gothic Pro';-inkscape-font-specification:'Hiragino Kaku Gothic Pro, Semi-Bold';font-variant-ligatures:normal;font-variant-caps:normal;font-variant-numeric:normal;font-variant-east-asian:normal;fill:#502d16;fill-opacity:1;stroke-width:0.0700042"
         transform="translate(0.13784503,13.191094)">
        <path
           d="m -88.244343,125.29642 c 0.0508,0.34713 0.08467,0.508 0.160867,0.70273 0.160866,0.41487 0.4064,0.7366 0.745067,0.9652 0.4064,0.27093 1.083733,0.44027 1.778,0.44027 0.905934,0 1.574801,-0.21167 2.023534,-0.64347 0.347134,-0.34713 0.533401,-0.8382 0.533401,-1.43933 0,-0.63501 -0.220134,-1.10067 -0.702734,-1.45627 -0.3048,-0.21167 -0.7112,-0.37254 -1.380067,-0.51647 -0.939801,-0.21167 -1.007534,-0.2286 -1.193801,-0.3048 -0.389467,-0.16933 -0.575733,-0.41487 -0.575733,-0.77047 0,-0.55033 0.499533,-0.92286 1.236134,-0.92286 0.465666,0 0.8382,0.14393 1.058333,0.4064 0.143934,0.16933 0.2032,0.31326 0.254,0.60113 l 1.210734,-0.14393 c -0.1016,-0.44874 -0.2032,-0.70274 -0.414867,-0.98214 -0.414866,-0.5588 -1.143,-0.85513 -2.1082,-0.85513 -1.456268,0 -2.404535,0.762 -2.404535,1.93887 0,0.56726 0.220134,1.03293 0.651934,1.3716 0.3048,0.23706 0.643467,0.37253 1.278467,0.51646 1.1684,0.27094 1.219201,0.2794 1.473201,0.41487 0.262466,0.14393 0.423333,0.4318 0.423333,0.77894 0,0.635 -0.508,1.016 -1.354667,1.016 -0.550334,0 -0.9906,-0.1778 -1.236134,-0.49954 -0.1524,-0.19473 -0.2032,-0.36406 -0.237067,-0.74506 z"
           id="path2086-1" />
        <path
           d="m -80.921996,122.40928 h -1.126068 c 0.04233,0.36407 0.05927,0.64347 0.05927,1.13453 v 4.25874 c 0,0.4318 -0.01693,0.71967 -0.05927,1.1176 h 1.193801 c -0.04233,-0.3556 -0.05927,-0.62653 -0.05927,-1.12607 v -0.64346 c 0,-0.1524 0,-0.3048 -0.0085,-0.36407 -0.0085,-0.16933 -0.0085,-0.16933 -0.0085,-0.27093 0.4064,0.55033 0.9652,0.8128 1.710267,0.8128 1.439334,0 2.294468,-0.9398 2.294468,-2.49767 0,-0.85514 -0.220134,-1.49014 -0.668867,-1.94734 -0.389467,-0.38946 -0.931334,-0.59266 -1.608667,-0.59266 -0.762001,0 -1.261534,0.23706 -1.727201,0.82973 0.0085,-0.11007 0.0085,-0.2032 0.0085,-0.29633 z m 2.895601,2.40453 c 0,0.99907 -0.516467,1.62561 -1.346201,1.62561 -0.880534,0 -1.507067,-0.67734 -1.507067,-1.64254 0,-0.90593 0.635,-1.6002 1.473201,-1.6002 0.855133,0 1.380067,0.61807 1.380067,1.61713 z"
           id="path2088-3" />
        <path
           d="m -71.490259,125.11861 c -0.01693,-0.19473 -0.01693,-0.22013 -0.01693,-0.23706 -0.0254,-0.57574 -0.08467,-0.88054 -0.245534,-1.28694 -0.338667,-0.84666 -1.1176,-1.33773 -2.108201,-1.33773 -1.4478,0 -2.387601,1.02447 -2.387601,2.5908 0,1.58327 0.948268,2.58234 2.446868,2.58234 0.7112,0 1.303867,-0.22014 1.744134,-0.65194 0.211667,-0.21166 0.321734,-0.37253 0.516467,-0.77893 l -0.999067,-0.32173 c -0.08467,0.2286 -0.143933,0.32173 -0.245533,0.44026 -0.245534,0.27094 -0.601134,0.42334 -1.016001,0.42334 -0.4318,0 -0.8128,-0.16934 -1.058334,-0.47414 -0.194733,-0.24553 -0.270933,-0.4826 -0.313266,-0.94827 z m -3.657601,-0.8382 c 0.127,-0.7112 0.6096,-1.15146 1.27,-1.15146 0.397934,0 0.6858,0.11006 0.9144,0.33866 0.211667,0.21167 0.313267,0.44027 0.372534,0.8128 z"
           id="path2090-7" />
        <path
           d="m -66.099371,125.11861 c -0.01693,-0.19473 -0.01693,-0.22013 -0.01693,-0.23706 -0.0254,-0.57574 -0.08467,-0.88054 -0.245534,-1.28694 -0.338666,-0.84666 -1.1176,-1.33773 -2.1082,-1.33773 -1.447801,0 -2.387601,1.02447 -2.387601,2.5908 0,1.58327 0.948267,2.58234 2.446867,2.58234 0.711201,0 1.303867,-0.22014 1.744134,-0.65194 0.211667,-0.21166 0.321734,-0.37253 0.516467,-0.77893 l -0.999067,-0.32173 c -0.08467,0.2286 -0.143933,0.32173 -0.245533,0.44026 -0.245534,0.27094 -0.601134,0.42334 -1.016001,0.42334 -0.4318,0 -0.8128,-0.16934 -1.058333,-0.47414 -0.194734,-0.24553 -0.270934,-0.4826 -0.313267,-0.94827 z m -3.657601,-0.8382 c 0.127,-0.7112 0.6096,-1.15146 1.27,-1.15146 0.397934,0 0.685801,0.11006 0.914401,0.33866 0.211666,0.21167 0.313266,0.44027 0.372533,0.8128 z"
           id="path2092-8" />
        <path
           d="m -61.462016,127.26915 h 1.126067 c -0.04233,-0.37253 -0.05927,-0.64347 -0.05927,-1.143 v -4.46194 c 0,-0.4318 0.01693,-0.72813 0.05927,-1.13453 h -1.193801 c 0.04233,0.3556 0.05927,0.635 0.05927,1.143 v 0.84667 c 0,0.14393 0,0.3048 0.0085,0.36406 0.0085,0.16934 0.0085,0.16934 0.0085,0.27094 -0.186266,-0.24554 -0.2794,-0.34714 -0.4318,-0.46567 -0.3302,-0.26247 -0.762,-0.38947 -1.286934,-0.38947 -1.397,0 -2.286,0.98214 -2.286,2.53154 0,0.9144 0.313266,1.68487 0.880533,2.12513 0.372534,0.29634 0.821267,0.4318 1.413934,0.4318 0.821267,0 1.270001,-0.22013 1.710267,-0.8382 -0.0085,0.11007 -0.0085,0.2032 -0.0085,0.3048 z m -2.895601,-2.42994 c 0,-1.00753 0.524933,-1.651 1.3462,-1.651 0.4064,0 0.838201,0.18627 1.100667,0.47414 0.245534,0.27093 0.4064,0.7112 0.4064,1.12606 0,0.44027 -0.118533,0.85514 -0.3302,1.13454 -0.254,0.34713 -0.6858,0.5588 -1.134533,0.5588 -0.846667,0 -1.388534,-0.635 -1.388534,-1.64254 z"
           id="path2094-8" />
        <path
           d="m -87.956476,138.87697 c 0,0.508 -0.01693,0.77046 -0.06773,1.1176 0.347134,-0.0169 0.5588,-0.0254 1.075267,-0.0254 h 1.540934 c 0.999067,0 1.676401,-0.2286 2.218268,-0.7366 0.6604,-0.62654 0.999067,-1.54094 0.999067,-2.6924 0,-1.10067 -0.321734,-1.98121 -0.9398,-2.56541 -0.541867,-0.52493 -1.227668,-0.74506 -2.286001,-0.74506 h -1.532468 c -0.5334,0 -0.7366,-0.008 -1.075267,-0.0254 0.0508,0.37253 0.06773,0.62653 0.06773,1.10066 z m 1.126067,0.0931 v -4.74134 h 1.354667 c 0.7366,0 1.176867,0.14394 1.524001,0.508 0.389466,0.4064 0.5842,1.00754 0.5842,1.81187 0,0.79587 -0.211667,1.4478 -0.618067,1.8796 -0.3556,0.381 -0.804334,0.54187 -1.498601,0.54187 z"
           id="path2096-3" />
        <path
           d="m -81.27085,133.2297 v 1.07526 h 1.244601 v -1.07526 z m 0,1.8796 c 0.0508,0.34713 0.06773,0.635 0.06773,1.10067 v 2.65853 c 0,0.42333 -0.01693,0.71967 -0.06773,1.10067 h 1.236134 c -0.04233,-0.3556 -0.05927,-0.64347 -0.05927,-1.10914 v -2.6416 c 0,-0.51646 0.01693,-0.79587 0.05927,-1.10913 z"
           id="path2098-8" />
        <path
           d="m -75.196147,135.9983 v 2.8702 c 0,0.44027 -0.01693,0.70273 -0.05927,1.10067 h 1.210734 c -0.04233,-0.37254 -0.05927,-0.61807 -0.05927,-1.10067 v -2.8702 h 0.414866 c 0.414867,0 0.643467,0.0169 0.939801,0.0593 v -0.99907 c -0.3556,0.0339 -0.618067,0.0508 -0.956734,0.0508 h -0.397933 v -0.34714 c 0,-0.5842 0.169333,-0.7874 0.6604,-0.7874 0.287867,0 0.499533,0.0593 0.753533,0.2032 l 0.228601,-0.889 c -0.389467,-0.127 -0.668867,-0.16933 -1.049868,-0.16933 -1.151467,0 -1.684867,0.49107 -1.684867,1.54093 v 0.44874 h -1.981201 v -0.34714 c 0,-0.5842 0.169334,-0.7874 0.660401,-0.7874 0.287866,0 0.499533,0.0593 0.753533,0.2032 l 0.220134,-0.889 c -0.381001,-0.127 -0.668867,-0.16933 -1.041401,-0.16933 -1.151467,0 -1.684867,0.49107 -1.684867,1.54093 v 0.44874 h -0.347134 c -0.3048,0 -0.5588,-0.0169 -0.795867,-0.0508 v 0.99907 c 0.262467,-0.0423 0.482601,-0.0593 0.804334,-0.0593 h 0.338667 v 2.8702 c 0,0.44027 -0.01693,0.70273 -0.05927,1.10067 h 1.210734 c -0.04233,-0.37254 -0.05927,-0.61807 -0.05927,-1.10067 v -2.8702 z m 3.014135,-2.7686 v 1.07526 h 1.2446 v -1.07526 z m -0.0085,1.8796 c 0.0508,0.34713 0.06773,0.635 0.06773,1.10067 v 2.65853 c 0,0.42333 -0.01693,0.71967 -0.06773,1.10067 h 1.236134 c -0.04233,-0.3556 -0.05927,-0.64347 -0.05927,-1.10914 v -2.6416 c 0,-0.51646 0.01693,-0.79587 0.05927,-1.10913 z"
           id="path2100-1" />
        <path
           d="m -65.482627,136.48937 c -0.118533,-0.31327 -0.186267,-0.44874 -0.296333,-0.61807 -0.4064,-0.59267 -1.066801,-0.9144 -1.896534,-0.9144 -0.694267,0 -1.286934,0.22013 -1.701801,0.64346 -0.465667,0.47414 -0.719667,1.15994 -0.719667,1.95581 0,1.56633 0.9652,2.57386 2.455334,2.57386 0.804334,0 1.456268,-0.29633 1.862668,-0.85513 0.1524,-0.2032 0.237066,-0.381 0.3556,-0.71967 l -1.049867,-0.21166 c -0.0508,0.21166 -0.09313,0.3048 -0.169334,0.42333 -0.211666,0.3048 -0.550333,0.47413 -0.973667,0.47413 -0.855133,0 -1.380067,-0.65193 -1.380067,-1.71026 0,-1.04987 0.516467,-1.7018 1.346201,-1.7018 0.372533,0 0.668867,0.13546 0.872067,0.38946 0.110066,0.13547 0.169333,0.254 0.262466,0.51647 z"
           id="path2102-5" />
        <path
           d="m -61.181559,135.1093 c 0.04233,0.36406 0.06773,0.6858 0.06773,1.10067 v 1.71026 c -0.381,0.8382 -0.8636,1.25307 -1.473201,1.25307 -0.160866,0 -0.338666,-0.0508 -0.465666,-0.11853 -0.262467,-0.16087 -0.389467,-0.47414 -0.389467,-0.9652 v -1.8796 c 0,-0.4318 0.0085,-0.71967 0.05927,-1.10067 h -1.227668 c 0.04233,0.31326 0.06773,0.635 0.06773,1.10067 v 2.14206 c 0,0.69427 0.220133,1.1684 0.6858,1.46474 0.2794,0.16933 0.5842,0.24553 1.016,0.24553 0.804334,0 1.270001,-0.24553 1.735668,-0.90593 -0.0085,0.21166 -0.0085,0.23706 -0.0085,0.36406 v 0.44874 h 1.151467 c -0.0508,-0.34714 -0.06773,-0.635 -0.06773,-1.10067 v -2.65853 c 0,-0.47414 0.0085,-0.73661 0.06773,-1.10067 z"
           id="path2104-3" />
        <path
           d="m -58.897014,133.2297 c 0.04233,0.32173 0.05927,0.59266 0.05927,1.10066 v 4.53814 c 0,0.49107 -0.01693,0.7366 -0.05927,1.10067 h 1.227667 c -0.04233,-0.37254 -0.05927,-0.65194 -0.05927,-1.10067 v -4.52967 c 0,-0.508 0.01693,-0.77893 0.05927,-1.10913 z"
           id="path2106-5" />
        <path
           d="m -56.031178,133.80543 c 0.03387,0.3048 0.05927,0.67733 0.05927,1.0414 v 0.26247 h -0.313266 c -0.355601,0 -0.516467,-0.008 -0.762001,-0.0508 v 0.99907 c 0.2794,-0.0423 0.440267,-0.0508 0.753534,-0.0508 h 0.321733 v 2.8448 c 0,0.889 0.389467,1.23613 1.363134,1.23613 0.440267,0 0.694267,-0.0423 1.058334,-0.1778 l -0.1524,-0.89747 c -0.262467,0.14394 -0.397934,0.18627 -0.618067,0.18627 -0.4064,0 -0.5588,-0.1524 -0.5588,-0.56727 v -2.62466 h 0.381 c 0.389467,0 0.550334,0.008 0.829734,0.0508 v -0.99907 c -0.270934,0.0423 -0.457201,0.0508 -0.855134,0.0508 h -0.3556 v -0.26247 c 0,-0.381 0.0254,-0.74507 0.05927,-1.0414 z"
           id="path2108-4" />
        <path
           d="m -51.310214,139.6305 -0.287867,0.65193 c -0.118534,0.26247 -0.364067,0.42334 -0.6604,0.42334 -0.194734,0 -0.355601,-0.0423 -0.592667,-0.14394 l -0.194734,0.9652 c 0.389467,0.0762 0.635,0.1016 0.889001,0.1016 0.7874,0 1.286933,-0.29633 1.557867,-0.9398 l 1.930401,-4.52966 c 0.254,-0.59267 0.4064,-0.93981 0.4572,-1.04987 h -1.261534 c -0.0508,0.27093 -0.118533,0.4826 -0.321733,0.99907 l -0.939801,2.39606 -1.032934,-2.40453 c -0.1524,-0.34713 -0.2794,-0.74507 -0.321733,-0.9906 h -1.286934 c 0.1016,0.18626 0.110067,0.21166 0.4826,1.04987 z"
           id="path2110-3" />
        <path
           d="m -84.857675,153.72752 c 1.405467,0 2.192867,-0.66886 2.192867,-1.8542 0,-0.55033 -0.1778,-0.97366 -0.524933,-1.2954 -0.2286,-0.21166 -0.423334,-0.29633 -0.855134,-0.38946 0.3302,-0.1016 0.4826,-0.1778 0.668867,-0.3556 0.321734,-0.29634 0.474134,-0.67734 0.474134,-1.1938 0,-1.05834 -0.736601,-1.65101 -2.048935,-1.65101 h -1.998134 c -0.575733,0 -0.7112,0 -1.0668,-0.0169 0.04233,0.34714 0.06773,0.65194 0.06773,1.0414 v 4.5974 c 0,0.54187 -0.01693,0.7874 -0.0762,1.143 0.347134,-0.0169 0.592667,-0.0254 1.083734,-0.0254 z m -1.972734,-3.97933 v -1.81187 h 1.7526 c 0.338667,0 0.626534,0.0931 0.812801,0.26247 0.135466,0.127 0.220133,0.3556 0.220133,0.62653 0,0.57574 -0.381,0.92287 -1.024467,0.92287 z m 0,0.9398 h 1.8034 c 0.389467,0 0.711201,0.1016 0.922867,0.28787 0.186267,0.16933 0.270934,0.39793 0.270934,0.7366 0,0.6858 -0.423334,1.05833 -1.176867,1.05833 h -1.820334 z"
           id="path2112-6" />
        <path
           d="m -78.5,153.72752 h 1.143001 c -0.0508,-0.381 -0.06773,-0.6096 -0.06773,-1.05833 v -2.27753 c 0,-0.57574 -0.110067,-0.89747 -0.397933,-1.1684 -0.364067,-0.3556 -0.855134,-0.49954 -1.667934,-0.49954 -0.728134,0 -1.202267,0.127 -1.617134,0.4318 -0.321734,0.2286 -0.474134,0.44874 -0.668867,0.9398 l 1.083734,0.19474 c 0.1016,-0.3048 0.1778,-0.42334 0.338666,-0.54187 0.194734,-0.1524 0.541867,-0.24553 0.880534,-0.24553 0.643467,0 0.973667,0.254 0.973667,0.74506 v 0.4318 c -1.210734,0.0254 -1.837267,0.11007 -2.387601,0.33867 -0.5842,0.24553 -0.956734,0.77893 -0.956734,1.3716 0,0.889 0.626534,1.4224 1.659468,1.4224 0.270933,0 0.541867,-0.0339 0.7874,-0.1016 0.347134,-0.0931 0.5588,-0.21167 0.897467,-0.5334 z m 0,-1.88806 c 0,0.29633 -0.1016,0.54186 -0.3048,0.74506 -0.287867,0.2794 -0.728134,0.44874 -1.176867,0.44874 -0.474134,0 -0.770467,-0.24554 -0.770467,-0.64347 0,-0.6604 0.635,-0.9398 2.252134,-0.97367 z"
           id="path2114-5" />
        <path
           d="m -71.931848,150.24772 c -0.118534,-0.31326 -0.186267,-0.44873 -0.296334,-0.61806 -0.4064,-0.59267 -1.0668,-0.9144 -1.896534,-0.9144 -0.694267,0 -1.286934,0.22013 -1.701801,0.64346 -0.465666,0.47414 -0.719667,1.15994 -0.719667,1.9558 0,1.56634 0.965201,2.57387 2.455335,2.57387 0.804333,0 1.456267,-0.29633 1.862667,-0.85513 0.1524,-0.2032 0.237067,-0.381 0.3556,-0.71967 l -1.049867,-0.21167 c -0.0508,0.21167 -0.09313,0.3048 -0.169333,0.42334 -0.211667,0.3048 -0.550334,0.47413 -0.973667,0.47413 -0.855134,0 -1.380067,-0.65193 -1.380067,-1.71027 0,-1.04986 0.516466,-1.7018 1.3462,-1.7018 0.372534,0 0.668867,0.13547 0.872067,0.38947 0.110067,0.13547 0.169333,0.254 0.262467,0.51647 z"
           id="path2116-9" />
        <path
           d="m -71.034381,146.98805 c 0.04233,0.32174 0.05927,0.60114 0.05927,1.10914 v 4.52967 c 0,0.46566 -0.01693,0.75353 -0.05927,1.10066 h 1.1938 c -0.0508,-0.3302 -0.05927,-0.5334 -0.05927,-1.08373 v -0.55033 l 0.694267,-0.6604 0.914401,1.33773 c 0.3556,0.51647 0.4572,0.6858 0.5588,0.95673 h 1.507067 c -0.194733,-0.19473 -0.194733,-0.19473 -0.770467,-0.98213 l -1.430867,-1.9558 1.202267,-1.143 c 0.364067,-0.34713 0.364067,-0.34713 0.846667,-0.77893 h -1.583267 c -0.135467,0.21166 -0.2794,0.381 -0.668867,0.75353 l -1.270001,1.26153 v -2.78553 c 0,-0.49107 0.01693,-0.7874 0.05927,-1.10914 z"
           id="path2118-5" />
      </g>
      <g
         aria-label="Slow Normal Fast Easy　Normal　Difficult Save　Cancel"
         id="g2635"
         style="font-style:normal;font-variant:normal;font-weight:600;font-stretch:normal;font-size:5.64444px;line-height:1.25;font-family:'Hiragino Kaku Gothic Pro';-inkscape-font-specification:'Hiragino Kaku Gothic Pro, Semi-Bold';font-variant-ligatures:normal;font-variant-caps:normal;font-variant-numeric:normal;font-variant-east-asian:normal;fill:#502d16;fill-opacity:1;stroke-width:0.0700042"
         transform="translate(27.849309,-29.348336)">
        <path
           d="m -61.59379,167.80298 c 0.03387,0.23142 0.05644,0.33866 0.107244,0.46849 0.107245,0.27657 0.270934,0.49106 0.496711,0.64346 0.270933,0.18063 0.722488,0.29351 1.185333,0.29351 0.603955,0 1.049865,-0.14111 1.349021,-0.42897 0.231422,-0.23143 0.3556,-0.5588 0.3556,-0.95956 0,-0.42333 -0.146756,-0.73378 -0.468489,-0.97084 -0.2032,-0.14111 -0.474133,-0.24836 -0.920044,-0.34431 -0.626533,-0.14111 -0.671688,-0.1524 -0.795866,-0.2032 -0.259644,-0.11289 -0.383822,-0.27658 -0.383822,-0.51365 0,-0.36689 0.333022,-0.61524 0.824088,-0.61524 0.310445,0 0.5588,0.0959 0.705556,0.27093 0.09595,0.11289 0.135466,0.20885 0.169333,0.40076 l 0.807155,-0.096 c -0.06773,-0.29915 -0.135467,-0.46849 -0.276578,-0.65475 -0.276577,-0.37254 -0.761999,-0.57009 -1.405466,-0.57009 -0.970843,0 -1.603021,0.508 -1.603021,1.29258 0,0.37817 0.146756,0.68862 0.434622,0.91439 0.2032,0.15805 0.428978,0.24836 0.852311,0.34432 0.778933,0.18062 0.812799,0.18626 0.982132,0.27657 0.174978,0.096 0.282222,0.28787 0.282222,0.51929 0,0.42333 -0.338666,0.67733 -0.90311,0.67733 -0.366889,0 -0.660399,-0.11853 -0.824088,-0.33302 -0.1016,-0.12982 -0.135467,-0.24271 -0.158045,-0.49671 z"
           style="font-style:normal;font-variant:normal;font-weight:600;font-stretch:normal;font-size:5.64444px;font-family:'Hiragino Kaku Gothic Pro';-inkscape-font-specification:'Hiragino Kaku Gothic Pro, Semi-Bold';font-variant-ligatures:normal;font-variant-caps:normal;font-variant-numeric:normal;font-variant-east-asian:normal;fill:#502d16;fill-opacity:1;stroke-width:0.0700042"
           id="path2553" />
        <path
           d="m -57.462942,164.62516 c 0.02822,0.21449 0.03951,0.39511 0.03951,0.73378 v 3.02542 c 0,0.32737 -0.01129,0.49106 -0.03951,0.73377 h 0.818444 c -0.02822,-0.24835 -0.03951,-0.43462 -0.03951,-0.73377 v -3.01978 c 0,-0.33867 0.01129,-0.51929 0.03951,-0.73942 z"
           style="font-style:normal;font-variant:normal;font-weight:600;font-stretch:normal;font-size:5.64444px;font-family:'Hiragino Kaku Gothic Pro';-inkscape-font-specification:'Hiragino Kaku Gothic Pro, Semi-Bold';font-variant-ligatures:normal;font-variant-caps:normal;font-variant-numeric:normal;font-variant-east-asian:normal;fill:#502d16;fill-opacity:1;stroke-width:0.0700042"
           id="path2555" />
        <path
           d="m -54.378344,169.22538 c 1.004711,0 1.66511,-0.68862 1.66511,-1.73285 0,-1.04422 -0.64911,-1.71026 -1.670754,-1.71026 -1.027288,0 -1.682043,0.67169 -1.682043,1.72155 0,1.05551 0.654755,1.72156 1.687687,1.72156 z m -0.0056,-2.85609 c 0.598311,0 0.942621,0.41769 0.942621,1.14582 0,0.68862 -0.361244,1.11196 -0.948266,1.11196 -0.587021,0 -0.948265,-0.42898 -0.948265,-1.12325 0,-0.70555 0.361244,-1.13453 0.95391,-1.13453 z"
           style="font-style:normal;font-variant:normal;font-weight:600;font-stretch:normal;font-size:5.64444px;font-family:'Hiragino Kaku Gothic Pro';-inkscape-font-specification:'Hiragino Kaku Gothic Pro, Semi-Bold';font-variant-ligatures:normal;font-variant-caps:normal;font-variant-numeric:normal;font-variant-east-asian:normal;fill:#502d16;fill-opacity:1;stroke-width:0.0700042"
           id="path2557" />
        <path
           d="m -48.756922,169.11813 c 0.02822,-0.15804 0.05645,-0.26529 0.141111,-0.53622 l 0.626533,-2.00378 c 0.146756,-0.46848 0.158044,-0.51364 0.231422,-0.69991 h -0.829733 c -0.01129,0.18063 -0.05644,0.42898 -0.124177,0.67169 l -0.316089,1.12889 c -0.01129,0.0395 -0.0508,0.22013 -0.06773,0.29916 -0.01693,0.079 -0.01693,0.079 -0.02822,0.12417 -0.01129,-0.0508 -0.01693,-0.0564 -0.03387,-0.12982 -0.03387,-0.11853 -0.06209,-0.22578 -0.07902,-0.27658 l -0.417689,-1.28128 c -0.0508,-0.16369 -0.124177,-0.42898 -0.141111,-0.53623 h -0.603955 c -0.01693,0.11289 -0.08467,0.37254 -0.141111,0.53623 l -0.4064,1.23048 c -0.02258,0.0677 -0.118533,0.40076 -0.129822,0.4572 -0.04515,-0.22013 -0.07902,-0.37817 -0.1016,-0.45155 l -0.310444,-1.10067 c -0.06209,-0.22013 -0.112889,-0.508 -0.124177,-0.67169 h -0.835378 c 0.07902,0.20885 0.158045,0.44027 0.237067,0.69991 l 0.620888,2.00378 c 0.09031,0.28787 0.112889,0.37253 0.146756,0.53622 h 0.654755 c 0.02258,-0.11853 0.08467,-0.34431 0.146755,-0.53622 l 0.434622,-1.3208 c 0.01693,-0.0564 0.08467,-0.28786 0.112889,-0.38946 0.06209,0.23142 0.09595,0.3556 0.107244,0.37817 l 0.434622,1.33209 c 0.06773,0.22013 0.118533,0.40076 0.141111,0.53622 z"
           style="font-style:normal;font-variant:normal;font-weight:600;font-stretch:normal;font-size:5.64444px;font-family:'Hiragino Kaku Gothic Pro';-inkscape-font-specification:'Hiragino Kaku Gothic Pro, Semi-Bold';font-variant-ligatures:normal;font-variant-caps:normal;font-variant-numeric:normal;font-variant-east-asian:normal;fill:#502d16;fill-opacity:1;stroke-width:0.0700042"
           id="path2559" />
        <path
           d="m -37.351799,169.11813 c -0.03387,-0.19755 -0.04516,-0.41204 -0.04516,-0.72813 v -2.98591 c 0,-0.34431 0.01129,-0.55315 0.04516,-0.77893 h -0.824089 c 0.03387,0.21449 0.04516,0.44591 0.04516,0.77893 v 1.89653 c 0,0.23707 0.01693,0.57574 0.03951,0.79587 -0.124178,-0.22578 -0.3048,-0.51929 -0.440266,-0.72249 l -1.428044,-2.15053 c -0.191911,-0.28787 -0.29351,-0.4572 -0.34431,-0.59831 h -0.880533 c 0.03387,0.23142 0.04516,0.43462 0.04516,0.72813 v 2.91253 c 0,0.38382 -0.01693,0.66605 -0.04516,0.85231 h 0.824088 c -0.02822,-0.2032 -0.04516,-0.46849 -0.04516,-0.84666 v -1.85138 c 0,-0.12982 -0.01129,-0.38382 -0.01693,-0.49107 -0.01693,-0.20884 -0.01693,-0.20884 -0.02258,-0.28786 0.135466,0.26529 0.276577,0.508 0.383821,0.67733 l 1.456266,2.19569 c 0.163689,0.24835 0.265289,0.41204 0.361244,0.60395 z"
           style="font-style:normal;font-variant:normal;font-weight:600;font-stretch:normal;font-size:5.64444px;font-family:'Hiragino Kaku Gothic Pro';-inkscape-font-specification:'Hiragino Kaku Gothic Pro, Semi-Bold';font-variant-ligatures:normal;font-variant-caps:normal;font-variant-numeric:normal;font-variant-east-asian:normal;fill:#502d16;fill-opacity:1;stroke-width:0.0700042"
           id="path2561" />
        <path
           d="m -35.052748,169.22538 c 1.00471,0 1.66511,-0.68862 1.66511,-1.73285 0,-1.04422 -0.649111,-1.71026 -1.670754,-1.71026 -1.027288,0 -1.682043,0.67169 -1.682043,1.72155 0,1.05551 0.654755,1.72156 1.687687,1.72156 z m -0.0056,-2.85609 c 0.59831,0 0.942621,0.41769 0.942621,1.14582 0,0.68862 -0.361244,1.11196 -0.948266,1.11196 -0.587022,0 -0.948266,-0.42898 -0.948266,-1.12325 0,-0.70555 0.361244,-1.13453 0.953911,-1.13453 z"
           style="font-style:normal;font-variant:normal;font-weight:600;font-stretch:normal;font-size:5.64444px;font-family:'Hiragino Kaku Gothic Pro';-inkscape-font-specification:'Hiragino Kaku Gothic Pro, Semi-Bold';font-variant-ligatures:normal;font-variant-caps:normal;font-variant-numeric:normal;font-variant-east-asian:normal;fill:#502d16;fill-opacity:1;stroke-width:0.0700042"
           id="path2563" />
        <path
           d="m -30.458615,165.87822 c -0.253999,-0.0452 -0.389466,-0.0621 -0.524933,-0.0621 -0.507999,0 -0.857954,0.19191 -1.061154,0.59266 v -0.53058 h -0.767644 c 0.03387,0.23143 0.03951,0.38947 0.03951,0.73378 v 1.77236 c 0,0.29351 -0.01129,0.4572 -0.03951,0.73377 h 0.807155 c -0.02822,-0.26529 -0.03951,-0.42897 -0.03951,-0.73377 v -1.04423 c 0.03387,-0.27093 0.09031,-0.40075 0.231422,-0.56444 0.158044,-0.18627 0.372533,-0.27658 0.654755,-0.27658 0.146755,0 0.265289,0.0226 0.502355,0.0903 z"
           style="font-style:normal;font-variant:normal;font-weight:600;font-stretch:normal;font-size:5.64444px;font-family:'Hiragino Kaku Gothic Pro';-inkscape-font-specification:'Hiragino Kaku Gothic Pro, Semi-Bold';font-variant-ligatures:normal;font-variant-caps:normal;font-variant-numeric:normal;font-variant-east-asian:normal;fill:#502d16;fill-opacity:1;stroke-width:0.0700042"
           id="path2565" />
        <path
           d="m -29.249645,169.11813 c -0.02822,-0.25964 -0.03951,-0.42897 -0.03951,-0.73377 v -1.1176 c 0.06209,-0.27094 0.118533,-0.40076 0.242711,-0.56445 0.1524,-0.19755 0.344311,-0.29351 0.581377,-0.29351 0.366889,0 0.547511,0.23707 0.547511,0.7112 v 1.26436 c 0,0.32173 -0.01129,0.49671 -0.04516,0.73377 h 0.8128 c -0.02822,-0.23142 -0.03951,-0.42333 -0.03951,-0.73377 v -1.1176 c 0.06773,-0.34996 0.158044,-0.53058 0.355599,-0.69991 0.135467,-0.11854 0.276578,-0.16934 0.462844,-0.16934 0.378178,0 0.553156,0.22578 0.553156,0.72249 v 1.26436 c 0,0.33302 -0.01129,0.50235 -0.04516,0.73377 h 0.824088 c -0.03387,-0.23142 -0.04516,-0.41769 -0.04516,-0.73377 v -1.39418 c 0,-0.40076 -0.07902,-0.65476 -0.265289,-0.85796 -0.191911,-0.20884 -0.485422,-0.32173 -0.846666,-0.32173 -0.254,0 -0.445911,0.0452 -0.632177,0.14676 -0.174978,0.0903 -0.282222,0.19191 -0.474133,0.44591 -0.06773,-0.17498 -0.112889,-0.24836 -0.214489,-0.33867 -0.174978,-0.16933 -0.423333,-0.254 -0.728133,-0.254 -0.468488,0 -0.886177,0.22013 -1.049866,0.56445 0.0056,-0.0903 0.0056,-0.17498 0.0056,-0.20885 v -0.28787 h -0.756355 c 0.02822,0.21449 0.03951,0.37818 0.03951,0.73378 v 1.77236 c 0,0.3048 -0.01129,0.49106 -0.03951,0.73377 z"
           style="font-style:normal;font-variant:normal;font-weight:600;font-stretch:normal;font-size:5.64444px;font-family:'Hiragino Kaku Gothic Pro';-inkscape-font-specification:'Hiragino Kaku Gothic Pro, Semi-Bold';font-variant-ligatures:normal;font-variant-caps:normal;font-variant-numeric:normal;font-variant-east-asian:normal;fill:#502d16;fill-opacity:1;stroke-width:0.0700042"
           id="path2567" />
        <path
           d="m -22.201062,169.11813 h 0.762 c -0.03387,-0.254 -0.04516,-0.4064 -0.04516,-0.70555 v -1.51836 c 0,-0.38382 -0.07338,-0.59831 -0.265289,-0.77893 -0.242711,-0.23707 -0.570088,-0.33302 -1.111954,-0.33302 -0.485422,0 -0.801511,0.0847 -1.078088,0.28787 -0.214489,0.1524 -0.316089,0.29915 -0.445911,0.62653 l 0.722488,0.12982 c 0.06773,-0.2032 0.118533,-0.28222 0.225778,-0.36124 0.129822,-0.1016 0.361244,-0.16369 0.587022,-0.16369 0.428977,0 0.64911,0.16933 0.64911,0.49671 v 0.28786 c -0.807155,0.0169 -1.224843,0.0734 -1.591732,0.22578 -0.389466,0.16369 -0.637822,0.51929 -0.637822,0.9144 0,0.59267 0.417689,0.94827 1.106311,0.94827 0.180622,0 0.361244,-0.0226 0.524933,-0.0677 0.231422,-0.0621 0.372533,-0.14111 0.59831,-0.3556 z m 0,-1.25871 c 0,0.19756 -0.06773,0.36125 -0.2032,0.49671 -0.191911,0.18627 -0.485422,0.29916 -0.784577,0.29916 -0.316088,0 -0.513644,-0.16369 -0.513644,-0.42898 0,-0.44026 0.423333,-0.62653 1.501421,-0.64911 z"
           style="font-style:normal;font-variant:normal;font-weight:600;font-stretch:normal;font-size:5.64444px;font-family:'Hiragino Kaku Gothic Pro';-inkscape-font-specification:'Hiragino Kaku Gothic Pro, Semi-Bold';font-variant-ligatures:normal;font-variant-caps:normal;font-variant-numeric:normal;font-variant-east-asian:normal;fill:#502d16;fill-opacity:1;stroke-width:0.0700042"
           id="path2569" />
        <path
           d="m -20.763052,164.62516 c 0.02822,0.21449 0.03951,0.39511 0.03951,0.73378 v 3.02542 c 0,0.32737 -0.01129,0.49106 -0.03951,0.73377 h 0.818444 c -0.02822,-0.24835 -0.03951,-0.43462 -0.03951,-0.73377 v -3.01978 c 0,-0.33867 0.01129,-0.51929 0.03951,-0.73942 z"
           style="font-style:normal;font-variant:normal;font-weight:600;font-stretch:normal;font-size:5.64444px;font-family:'Hiragino Kaku Gothic Pro';-inkscape-font-specification:'Hiragino Kaku Gothic Pro, Semi-Bold';font-variant-ligatures:normal;font-variant-caps:normal;font-variant-numeric:normal;font-variant-east-asian:normal;fill:#502d16;fill-opacity:1;stroke-width:0.0700042"
           id="path2571" />
        <path
           d="m -8.0321882,167.17645 h 1.2079091 c 0.344311,0 0.5587997,0.0113 0.7676437,0.0395 v -0.75071 c -0.220133,0.0282 -0.4176877,0.0395 -0.7676437,0.0395 h -1.2079091 v -1.19662 h 1.5014201 c 0.3612437,0 0.5700887,0.0113 0.7732894,0.0395 v -0.762 c -0.2370677,0.0282 -0.4176897,0.0395 -0.7732894,0.0395 h -1.5804421 c -0.3443107,0 -0.4854217,-0.006 -0.7168437,-0.0169 0.03387,0.25964 0.04516,0.42333 0.04516,0.73377 v 2.97462 c 0,0.37254 -0.01129,0.6096 -0.04516,0.80151 h 0.8410217 c -0.03387,-0.21449 -0.04516,-0.41204 -0.04516,-0.8128 z"
           style="font-style:normal;font-variant:normal;font-weight:600;font-stretch:normal;font-size:5.64444px;font-family:'Hiragino Kaku Gothic Pro';-inkscape-font-specification:'Hiragino Kaku Gothic Pro, Semi-Bold';font-variant-ligatures:normal;font-variant-caps:normal;font-variant-numeric:normal;font-variant-east-asian:normal;fill:#502d16;fill-opacity:1;stroke-width:0.0700042"
           id="path2573" />
        <path
           d="m -3.0959481,169.11813 h 0.761999 c -0.03387,-0.254 -0.04515,-0.4064 -0.04515,-0.70555 v -1.51836 c 0,-0.38382 -0.07338,-0.59831 -0.265289,-0.77893 -0.242711,-0.23707 -0.570088,-0.33302 -1.111955,-0.33302 -0.485421,0 -0.80151,0.0847 -1.078088,0.28787 -0.214488,0.1524 -0.316088,0.29915 -0.4459096,0.62653 l 0.7224876,0.12982 c 0.06773,-0.2032 0.118533,-0.28222 0.225778,-0.36124 0.129822,-0.1016 0.361244,-0.16369 0.587021,-0.16369 0.428978,0 0.649111,0.16933 0.649111,0.49671 v 0.28786 c -0.807155,0.0169 -1.224844,0.0734 -1.591732,0.22578 -0.389467,0.16369 -0.6378216,0.51929 -0.6378216,0.9144 0,0.59267 0.4176886,0.94827 1.1063096,0.94827 0.180622,0 0.361245,-0.0226 0.524933,-0.0677 0.231422,-0.0621 0.372533,-0.14111 0.598311,-0.3556 z m 0,-1.25871 c 0,0.19756 -0.06773,0.36125 -0.2032,0.49671 -0.191911,0.18627 -0.485422,0.29916 -0.784577,0.29916 -0.316089,0 -0.513644,-0.16369 -0.513644,-0.42898 0,-0.44026 0.423333,-0.62653 1.501421,-0.64911 z"
           style="font-style:normal;font-variant:normal;font-weight:600;font-stretch:normal;font-size:5.64444px;font-family:'Hiragino Kaku Gothic Pro';-inkscape-font-specification:'Hiragino Kaku Gothic Pro, Semi-Bold';font-variant-ligatures:normal;font-variant-caps:normal;font-variant-numeric:normal;font-variant-east-asian:normal;fill:#502d16;fill-opacity:1;stroke-width:0.0700042"
           id="path2575" />
        <path
           d="m -1.7990491,168.19809 c 0.06773,0.254 0.118533,0.36689 0.220133,0.50235 0.2427113,0.32738 0.67733327,0.50236 1.25871024,0.50236 0.51364397,0 0.90875494,-0.12418 1.16839894,-0.36689 0.16933402,-0.15804 0.27657792,-0.4064 0.27657792,-0.63782 0,-0.31044 -0.1072439,-0.54187 -0.32737792,-0.69991 -0.186266,-0.14111 -0.41768797,-0.22013 -0.99342094,-0.34431 -0.32173297,-0.0734 -0.44026597,-0.10725 -0.56444397,-0.16934 -0.112889,-0.0621 -0.174978,-0.15804 -0.174978,-0.26528 0,-0.23707 0.237067,-0.39511 0.58702197,-0.39511 0.366889,0 0.55879997,0.13546 0.62088797,0.44591 l 0.74506699,-0.096 c -0.07902,-0.27658 -0.15804502,-0.41769 -0.30480002,-0.5588 -0.23142197,-0.21449 -0.59831097,-0.32738 -1.06115494,-0.32738 -0.51364397,0 -0.89746594,0.14676 -1.12888794,0.44027 -0.1128893,0.14111 -0.1749783,0.32738 -0.1749783,0.52493 0,0.32738 0.1749783,0.59831 0.4967113,0.75071 0.19191097,0.0903 0.36688897,0.14676 0.81279894,0.24271 0.45155597,0.1016 0.48542197,0.10725 0.59266697,0.18063 0.09031,0.0621 0.146755,0.16933 0.146755,0.28222 0,0.26529 -0.259644,0.42898 -0.67733297,0.42898 -0.44026597,0 -0.64910997,-0.1524 -0.74506594,-0.53623 z"
           style="font-style:normal;font-variant:normal;font-weight:600;font-stretch:normal;font-size:5.64444px;font-family:'Hiragino Kaku Gothic Pro';-inkscape-font-specification:'Hiragino Kaku Gothic Pro, Semi-Bold';font-variant-ligatures:normal;font-variant-caps:normal;font-variant-numeric:normal;font-variant-east-asian:normal;fill:#502d16;fill-opacity:1;stroke-width:0.0700042"
           id="path2577" />
        <path
           d="m 2.0716231,165.00898 c 0.02258,0.2032 0.03951,0.45156 0.03951,0.69427 v 0.17497 H 1.902288 c -0.237066,0 -0.3443099,-0.006 -0.507999,-0.0339 v 0.66604 c 0.1862661,-0.0282 0.293511,-0.0339 0.502355,-0.0339 h 0.2144891 v 1.89653 c 0,0.59266 0.2596439,0.82409 0.9087545,0.82409 0.293511,0 0.4628442,-0.0282 0.7055552,-0.11854 l -0.1016,-0.59831 c -0.1749777,0.096 -0.2652887,0.12418 -0.4120442,0.12418 -0.2709332,0 -0.3725331,-0.1016 -0.3725331,-0.37818 v -1.74977 h 0.2539998 c 0.2596443,0 0.3668887,0.006 0.5531553,0.0339 v -0.66604 c -0.1806222,0.0282 -0.3047998,0.0339 -0.5700886,0.0339 H 2.8392655 v -0.17497 c 0,-0.254 0.016933,-0.49671 0.039511,-0.69427 z"
           style="font-style:normal;font-variant:normal;font-weight:600;font-stretch:normal;font-size:5.64444px;font-family:'Hiragino Kaku Gothic Pro';-inkscape-font-specification:'Hiragino Kaku Gothic Pro, Semi-Bold';font-variant-ligatures:normal;font-variant-caps:normal;font-variant-numeric:normal;font-variant-east-asian:normal;fill:#502d16;fill-opacity:1;stroke-width:0.0700042"
           id="path2579" />
        <path
           d="m -58.240992,181.81249 c -0.242711,0.0282 -0.4064,0.0395 -0.722489,0.0395 h -1.693332 v -1.33208 h 1.377244 c 0.349955,0 0.502355,0.006 0.733777,0.0395 v -0.7394 c -0.248356,0.0282 -0.440267,0.0395 -0.733777,0.0395 h -1.371599 v -1.16276 h 1.625598 c 0.333022,0 0.513644,0.0113 0.728133,0.0395 v -0.74506 c -0.259644,0.0282 -0.445911,0.0395 -0.728133,0.0395 h -1.704621 c -0.34431,0 -0.491066,-0.006 -0.716844,-0.0169 0.03387,0.26528 0.04516,0.43462 0.04516,0.72813 v 3.05364 c 0,0.33302 -0.01129,0.51929 -0.04516,0.74507 0.225778,-0.0113 0.378178,-0.0169 0.716844,-0.0169 h 1.761066 c 0.344311,0 0.524933,0.0113 0.728133,0.0395 z"
           style="font-style:normal;font-variant:normal;font-weight:600;font-stretch:normal;font-size:5.64444px;font-family:'Hiragino Kaku Gothic Pro';-inkscape-font-specification:'Hiragino Kaku Gothic Pro, Semi-Bold';font-variant-ligatures:normal;font-variant-caps:normal;font-variant-numeric:normal;font-variant-east-asian:normal;fill:#502d16;fill-opacity:1;stroke-width:0.0700042"
           id="path2581" />
        <path
           d="m -55.483419,182.52369 h 0.762 c -0.03387,-0.254 -0.04516,-0.4064 -0.04516,-0.70555 v -1.51836 c 0,-0.38382 -0.07338,-0.59831 -0.265289,-0.77893 -0.242711,-0.23707 -0.570088,-0.33302 -1.111954,-0.33302 -0.485422,0 -0.801511,0.0847 -1.078088,0.28787 -0.214489,0.1524 -0.316089,0.29915 -0.445911,0.62653 l 0.722488,0.12982 c 0.06773,-0.2032 0.118533,-0.28222 0.225778,-0.36124 0.129822,-0.1016 0.361244,-0.16369 0.587021,-0.16369 0.428978,0 0.649111,0.16933 0.649111,0.49671 v 0.28786 c -0.807155,0.0169 -1.224843,0.0734 -1.591732,0.22578 -0.389466,0.16369 -0.637822,0.51929 -0.637822,0.9144 0,0.59267 0.417689,0.94827 1.10631,0.94827 0.180623,0 0.361245,-0.0226 0.524933,-0.0677 0.231422,-0.0621 0.372533,-0.14111 0.598311,-0.3556 z m 0,-1.25871 c 0,0.19756 -0.06773,0.36125 -0.2032,0.49671 -0.191911,0.18627 -0.485422,0.29916 -0.784577,0.29916 -0.316089,0 -0.513644,-0.16369 -0.513644,-0.42898 0,-0.44026 0.423333,-0.62653 1.501421,-0.64911 z"
           style="font-style:normal;font-variant:normal;font-weight:600;font-stretch:normal;font-size:5.64444px;font-family:'Hiragino Kaku Gothic Pro';-inkscape-font-specification:'Hiragino Kaku Gothic Pro, Semi-Bold';font-variant-ligatures:normal;font-variant-caps:normal;font-variant-numeric:normal;font-variant-east-asian:normal;fill:#502d16;fill-opacity:1;stroke-width:0.0700042"
           id="path2583" />
        <path
           d="m -54.18652,181.60365 c 0.06773,0.254 0.118533,0.36689 0.220133,0.50235 0.242711,0.32738 0.677333,0.50236 1.25871,0.50236 0.513644,0 0.908755,-0.12418 1.168399,-0.36689 0.169333,-0.15804 0.276578,-0.4064 0.276578,-0.63782 0,-0.31044 -0.107245,-0.54187 -0.327378,-0.69991 -0.186267,-0.14111 -0.417689,-0.22013 -0.993421,-0.34431 -0.321734,-0.0734 -0.440267,-0.10725 -0.564444,-0.16934 -0.112889,-0.0621 -0.174978,-0.15804 -0.174978,-0.26528 0,-0.23707 0.237066,-0.39511 0.587022,-0.39511 0.366888,0 0.558799,0.13546 0.620888,0.44591 l 0.745066,-0.096 c -0.07902,-0.27658 -0.158044,-0.41769 -0.3048,-0.5588 -0.231422,-0.21449 -0.59831,-0.32738 -1.061154,-0.32738 -0.513644,0 -0.897466,0.14676 -1.128888,0.44027 -0.112889,0.14111 -0.174978,0.32738 -0.174978,0.52493 0,0.32738 0.174978,0.59831 0.496711,0.75071 0.191911,0.0903 0.366888,0.14676 0.812799,0.24271 0.451555,0.1016 0.485422,0.10725 0.592666,0.18063 0.09031,0.0621 0.146756,0.16933 0.146756,0.28222 0,0.26529 -0.259644,0.42898 -0.677333,0.42898 -0.440266,0 -0.649111,-0.1524 -0.745066,-0.53623 z"
           style="font-style:normal;font-variant:normal;font-weight:600;font-stretch:normal;font-size:5.64444px;font-family:'Hiragino Kaku Gothic Pro';-inkscape-font-specification:'Hiragino Kaku Gothic Pro, Semi-Bold';font-variant-ligatures:normal;font-variant-caps:normal;font-variant-numeric:normal;font-variant-east-asian:normal;fill:#502d16;fill-opacity:1;stroke-width:0.0700042"
           id="path2585" />
        <path
           d="m -49.615935,182.29792 -0.191911,0.43462 c -0.07902,0.17498 -0.242711,0.28222 -0.440267,0.28222 -0.129822,0 -0.237066,-0.0282 -0.39511,-0.096 l -0.129823,0.64347 c 0.259645,0.0508 0.423333,0.0677 0.592667,0.0677 0.524933,0 0.857955,-0.19755 1.038577,-0.62653 l 1.286932,-3.01977 c 0.169333,-0.39512 0.270933,-0.62654 0.3048,-0.69992 h -0.841022 c -0.03387,0.18063 -0.07902,0.32174 -0.214489,0.66605 l -0.626532,1.59738 -0.688622,-1.60303 c -0.1016,-0.23142 -0.186267,-0.49671 -0.214489,-0.6604 h -0.857955 c 0.06773,0.12418 0.07338,0.14112 0.321733,0.69992 z"
           style="font-style:normal;font-variant:normal;font-weight:600;font-stretch:normal;font-size:5.64444px;font-family:'Hiragino Kaku Gothic Pro';-inkscape-font-specification:'Hiragino Kaku Gothic Pro, Semi-Bold';font-variant-ligatures:normal;font-variant-caps:normal;font-variant-numeric:normal;font-variant-east-asian:normal;fill:#502d16;fill-opacity:1;stroke-width:0.0700042"
           id="path2587" />
        <path
           d="m -37.616384,182.52369 c -0.03387,-0.19755 -0.04516,-0.41204 -0.04516,-0.72813 v -2.98591 c 0,-0.34431 0.01129,-0.55315 0.04516,-0.77893 h -0.824088 c 0.03387,0.21449 0.04516,0.44591 0.04516,0.77893 v 1.89653 c 0,0.23707 0.01693,0.57574 0.03951,0.79587 -0.124177,-0.22578 -0.3048,-0.51929 -0.440266,-0.72249 l -1.428044,-2.15053 c -0.19191,-0.28787 -0.29351,-0.4572 -0.34431,-0.59831 h -0.880533 c 0.03387,0.23142 0.04516,0.43462 0.04516,0.72813 v 2.91253 c 0,0.38382 -0.01693,0.66605 -0.04516,0.85231 h 0.824088 c -0.02822,-0.2032 -0.04516,-0.46849 -0.04516,-0.84666 v -1.85138 c 0,-0.12982 -0.01129,-0.38382 -0.01693,-0.49107 -0.01693,-0.20884 -0.01693,-0.20884 -0.02258,-0.28786 0.135466,0.26529 0.276577,0.508 0.383822,0.67733 l 1.456265,2.19569 c 0.163689,0.24835 0.265289,0.41204 0.361244,0.60395 z"
           style="font-style:normal;font-variant:normal;font-weight:600;font-stretch:normal;font-size:5.64444px;font-family:'Hiragino Kaku Gothic Pro';-inkscape-font-specification:'Hiragino Kaku Gothic Pro, Semi-Bold';font-variant-ligatures:normal;font-variant-caps:normal;font-variant-numeric:normal;font-variant-east-asian:normal;fill:#502d16;fill-opacity:1;stroke-width:0.0700042"
           id="path2589" />
        <path
           d="m -35.317333,182.63094 c 1.004711,0 1.66511,-0.68862 1.66511,-1.73285 0,-1.04422 -0.649111,-1.71026 -1.670754,-1.71026 -1.027288,0 -1.682043,0.67169 -1.682043,1.72155 0,1.05551 0.654755,1.72156 1.687687,1.72156 z m -0.0056,-2.85609 c 0.59831,0 0.942621,0.41769 0.942621,1.14582 0,0.68862 -0.361244,1.11196 -0.948266,1.11196 -0.587021,0 -0.948266,-0.42898 -0.948266,-1.12325 0,-0.70555 0.361245,-1.13453 0.953911,-1.13453 z"
           style="font-style:normal;font-variant:normal;font-weight:600;font-stretch:normal;font-size:5.64444px;font-family:'Hiragino Kaku Gothic Pro';-inkscape-font-specification:'Hiragino Kaku Gothic Pro, Semi-Bold';font-variant-ligatures:normal;font-variant-caps:normal;font-variant-numeric:normal;font-variant-east-asian:normal;fill:#502d16;fill-opacity:1;stroke-width:0.0700042"
           id="path2591" />
        <path
           d="m -30.723199,179.28378 c -0.254,-0.0452 -0.389467,-0.0621 -0.524933,-0.0621 -0.508,0 -0.857955,0.19191 -1.061155,0.59266 v -0.53058 h -0.767644 c 0.03387,0.23143 0.03951,0.38947 0.03951,0.73378 v 1.77236 c 0,0.29351 -0.01129,0.4572 -0.03951,0.73377 h 0.807155 c -0.02822,-0.26529 -0.03951,-0.42897 -0.03951,-0.73377 v -1.04423 c 0.03387,-0.27093 0.09031,-0.40075 0.231422,-0.56444 0.158044,-0.18627 0.372533,-0.27658 0.654755,-0.27658 0.146755,0 0.265289,0.0226 0.502355,0.0903 z"
           style="font-style:normal;font-variant:normal;font-weight:600;font-stretch:normal;font-size:5.64444px;font-family:'Hiragino Kaku Gothic Pro';-inkscape-font-specification:'Hiragino Kaku Gothic Pro, Semi-Bold';font-variant-ligatures:normal;font-variant-caps:normal;font-variant-numeric:normal;font-variant-east-asian:normal;fill:#502d16;fill-opacity:1;stroke-width:0.0700042"
           id="path2593" />
        <path
           d="m -29.514232,182.52369 c -0.02822,-0.25964 -0.03951,-0.42897 -0.03951,-0.73377 v -1.1176 c 0.06209,-0.27094 0.118533,-0.40076 0.242711,-0.56445 0.1524,-0.19755 0.344311,-0.29351 0.581377,-0.29351 0.366889,0 0.547511,0.23707 0.547511,0.7112 v 1.26436 c 0,0.32173 -0.01129,0.49671 -0.04516,0.73377 h 0.8128 c -0.02822,-0.23142 -0.03951,-0.42333 -0.03951,-0.73377 v -1.1176 c 0.06773,-0.34996 0.158044,-0.53058 0.355599,-0.69991 0.135467,-0.11854 0.276578,-0.16934 0.462845,-0.16934 0.378177,0 0.553155,0.22578 0.553155,0.72249 v 1.26436 c 0,0.33302 -0.01129,0.50235 -0.04516,0.73377 h 0.824088 c -0.03387,-0.23142 -0.04516,-0.41769 -0.04516,-0.73377 v -1.39418 c 0,-0.40076 -0.07902,-0.65476 -0.265289,-0.85796 -0.191911,-0.20884 -0.485422,-0.32173 -0.846666,-0.32173 -0.254,0 -0.445911,0.0452 -0.632177,0.14676 -0.174978,0.0903 -0.282222,0.19191 -0.474133,0.44591 -0.06773,-0.17498 -0.112889,-0.24836 -0.214489,-0.33867 -0.174977,-0.16933 -0.423333,-0.254 -0.728133,-0.254 -0.468488,0 -0.886177,0.22013 -1.049865,0.56445 0.0056,-0.0903 0.0056,-0.17498 0.0056,-0.20885 v -0.28787 h -0.756355 c 0.02822,0.21449 0.03951,0.37818 0.03951,0.73378 v 1.77236 c 0,0.3048 -0.01129,0.49106 -0.03951,0.73377 z"
           style="font-style:normal;font-variant:normal;font-weight:600;font-stretch:normal;font-size:5.64444px;font-family:'Hiragino Kaku Gothic Pro';-inkscape-font-specification:'Hiragino Kaku Gothic Pro, Semi-Bold';font-variant-ligatures:normal;font-variant-caps:normal;font-variant-numeric:normal;font-variant-east-asian:normal;fill:#502d16;fill-opacity:1;stroke-width:0.0700042"
           id="path2595" />
        <path
           d="m -22.465649,182.52369 h 0.762 c -0.03387,-0.254 -0.04516,-0.4064 -0.04516,-0.70555 v -1.51836 c 0,-0.38382 -0.07338,-0.59831 -0.265288,-0.77893 -0.242711,-0.23707 -0.570089,-0.33302 -1.111955,-0.33302 -0.485422,0 -0.801511,0.0847 -1.078088,0.28787 -0.214489,0.1524 -0.316089,0.29915 -0.445911,0.62653 l 0.722488,0.12982 c 0.06773,-0.2032 0.118534,-0.28222 0.225778,-0.36124 0.129822,-0.1016 0.361244,-0.16369 0.587022,-0.16369 0.428977,0 0.64911,0.16933 0.64911,0.49671 v 0.28786 c -0.807155,0.0169 -1.224843,0.0734 -1.591732,0.22578 -0.389466,0.16369 -0.637821,0.51929 -0.637821,0.9144 0,0.59267 0.417688,0.94827 1.10631,0.94827 0.180622,0 0.361244,-0.0226 0.524933,-0.0677 0.231422,-0.0621 0.372533,-0.14111 0.59831,-0.3556 z m 0,-1.25871 c 0,0.19756 -0.06773,0.36125 -0.203199,0.49671 -0.191911,0.18627 -0.485422,0.29916 -0.784578,0.29916 -0.316088,0 -0.513644,-0.16369 -0.513644,-0.42898 0,-0.44026 0.423333,-0.62653 1.501421,-0.64911 z"
           style="font-style:normal;font-variant:normal;font-weight:600;font-stretch:normal;font-size:5.64444px;font-family:'Hiragino Kaku Gothic Pro';-inkscape-font-specification:'Hiragino Kaku Gothic Pro, Semi-Bold';font-variant-ligatures:normal;font-variant-caps:normal;font-variant-numeric:normal;font-variant-east-asian:normal;fill:#502d16;fill-opacity:1;stroke-width:0.0700042"
           id="path2597" />
        <path
           d="m -21.027639,178.03072 c 0.02822,0.21449 0.03951,0.39511 0.03951,0.73378 v 3.02542 c 0,0.32737 -0.01129,0.49106 -0.03951,0.73377 h 0.818444 c -0.02822,-0.24835 -0.03951,-0.43462 -0.03951,-0.73377 v -3.01978 c 0,-0.33867 0.01129,-0.51929 0.03951,-0.73942 z"
           style="font-style:normal;font-variant:normal;font-weight:600;font-stretch:normal;font-size:5.64444px;font-family:'Hiragino Kaku Gothic Pro';-inkscape-font-specification:'Hiragino Kaku Gothic Pro, Semi-Bold';font-variant-ligatures:normal;font-variant-caps:normal;font-variant-numeric:normal;font-variant-east-asian:normal;fill:#502d16;fill-opacity:1;stroke-width:0.0700042"
           id="path2599" />
        <path
           d="m -13.754868,181.79556 c 0,0.33867 -0.01129,0.51364 -0.04516,0.74507 0.231422,-0.0113 0.372533,-0.0169 0.716844,-0.0169 h 1.027288 c 0.666044,0 1.117599,-0.1524 1.478844,-0.49106 0.440266,-0.41769 0.6660436,-1.02729 0.6660436,-1.79493 0,-0.73378 -0.2144886,-1.3208 -0.6265326,-1.71027 -0.361244,-0.34996 -0.818444,-0.49671 -1.523999,-0.49671 h -1.021644 c -0.3556,0 -0.491066,-0.006 -0.716844,-0.0169 0.03387,0.24835 0.04516,0.41768 0.04516,0.73377 z m 0.75071,0.0621 v -3.16089 h 0.903111 c 0.491066,0 0.784577,0.096 1.015999,0.33867 0.259644,0.27093 0.389466,0.67169 0.389466,1.20791 0,0.53058 -0.141111,0.9652 -0.412044,1.25307 -0.237066,0.25399 -0.536222,0.36124 -0.999066,0.36124 z"
           style="font-style:normal;font-variant:normal;font-weight:600;font-stretch:normal;font-size:5.64444px;font-family:'Hiragino Kaku Gothic Pro';-inkscape-font-specification:'Hiragino Kaku Gothic Pro, Semi-Bold';font-variant-ligatures:normal;font-variant-caps:normal;font-variant-numeric:normal;font-variant-east-asian:normal;fill:#502d16;fill-opacity:1;stroke-width:0.0700042"
           id="path2601" />
        <path
           d="m -9.2977879,178.03072 v 0.71684 h 0.8297327 v -0.71684 z m 0,1.25306 c 0.033867,0.23143 0.045155,0.42334 0.045155,0.73378 v 1.77236 c 0,0.28222 -0.011289,0.47977 -0.045155,0.73377 h 0.8240882 c -0.028222,-0.23706 -0.039511,-0.42897 -0.039511,-0.73942 v -1.76106 c 0,-0.34431 0.011289,-0.53058 0.039511,-0.73943 z"
           style="font-style:normal;font-variant:normal;font-weight:600;font-stretch:normal;font-size:5.64444px;font-family:'Hiragino Kaku Gothic Pro';-inkscape-font-specification:'Hiragino Kaku Gothic Pro, Semi-Bold';font-variant-ligatures:normal;font-variant-caps:normal;font-variant-numeric:normal;font-variant-east-asian:normal;fill:#502d16;fill-opacity:1;stroke-width:0.0700042"
           id="path2603" />
        <path
           d="m -5.2479885,179.87645 v 1.91347 c 0,0.29351 -0.011289,0.46848 -0.039511,0.73377 h 0.8071549 c -0.028222,-0.24835 -0.039511,-0.41204 -0.039511,-0.73377 v -1.91347 h 0.2765776 c 0.2765776,0 0.4289774,0.0113 0.6265328,0.0395 v -0.66604 c -0.2370664,0.0226 -0.4120441,0.0339 -0.6378217,0.0339 h -0.2652887 v -0.23142 c 0,-0.38946 0.1128888,-0.52493 0.4402663,-0.52493 0.191911,0 0.333022,0.0395 0.5023552,0.13547 l 0.1523999,-0.59267 c -0.2596442,-0.0847 -0.4459108,-0.11289 -0.6999106,-0.11289 -0.7676438,0 -1.1232436,0.32738 -1.1232436,1.02729 v 0.29915 h -1.320799 v -0.23142 c 0,-0.38946 0.1128888,-0.52493 0.4402664,-0.52493 0.1919109,0 0.3330219,0.0395 0.5023551,0.13547 l 0.1467555,-0.59267 c -0.2539998,-0.0847 -0.4459108,-0.11289 -0.6942662,-0.11289 -0.7676438,0 -1.1232435,0.32738 -1.1232435,1.02729 v 0.29915 h -0.2314221 c -0.2031998,0 -0.372533,-0.0113 -0.5305774,-0.0339 v 0.66604 c 0.1749777,-0.0282 0.3217331,-0.0395 0.5362218,-0.0395 h 0.2257777 v 1.91347 c 0,0.29351 -0.011289,0.46848 -0.039511,0.73377 h 0.8071549 c -0.028222,-0.24835 -0.039511,-0.41204 -0.039511,-0.73377 v -1.91347 z m 2.0094207,-1.84573 v 0.71684 h 0.8297327 v -0.71684 z m -0.00564,1.25306 c 0.033867,0.23143 0.045156,0.42334 0.045156,0.73378 v 1.77236 c 0,0.28222 -0.011289,0.47977 -0.045156,0.73377 h 0.8240883 c -0.028222,-0.23706 -0.039511,-0.42897 -0.039511,-0.73942 v -1.76106 c 0,-0.34431 0.011289,-0.53058 0.039511,-0.73943 z"
           style="font-style:normal;font-variant:normal;font-weight:600;font-stretch:normal;font-size:5.64444px;font-family:'Hiragino Kaku Gothic Pro';-inkscape-font-specification:'Hiragino Kaku Gothic Pro, Semi-Bold';font-variant-ligatures:normal;font-variant-caps:normal;font-variant-numeric:normal;font-variant-east-asian:normal;fill:#502d16;fill-opacity:1;stroke-width:0.0700042"
           id="path2605" />
        <path
           d="m 1.2276822,180.20383 c -0.079022,-0.20885 -0.1241777,-0.29916 -0.1975554,-0.41205 -0.27093314,-0.39511 -0.71119947,-0.6096 -1.26435461,-0.6096 -0.4628441,0 -0.85795489,0.14676 -1.13453249,0.42898 -0.3104442,0.31609 -0.4797774,0.77329 -0.4797774,1.30387 0,1.04422 0.6434662,1.71591 1.63688765,1.71591 0.53622182,0 0.97084371,-0.19756 1.24177685,-0.57009 0.1015999,-0.13547 0.1580443,-0.254 0.2370665,-0.47978 l -0.69991061,-0.14111 c -0.0338666,0.14111 -0.0620888,0.2032 -0.1128888,0.28222 -0.141111,0.2032 -0.36688861,0.31609 -0.64911062,0.31609 -0.57008846,0 -0.92004377,-0.43462 -0.92004377,-1.14018 0,-0.69991 0.34431087,-1.13453 0.89746601,-1.13453 0.24835537,0 0.44591077,0.0903 0.58137734,0.25965 0.0733777,0.0903 0.1128888,0.16933 0.17497764,0.34431 z"
           style="font-style:normal;font-variant:normal;font-weight:600;font-stretch:normal;font-size:5.64444px;font-family:'Hiragino Kaku Gothic Pro';-inkscape-font-specification:'Hiragino Kaku Gothic Pro, Semi-Bold';font-variant-ligatures:normal;font-variant-caps:normal;font-variant-numeric:normal;font-variant-east-asian:normal;fill:#502d16;fill-opacity:1;stroke-width:0.0700042"
           id="path2607" />
        <path
           d="m 4.0950575,179.28378 c 0.028222,0.24272 0.045155,0.4572 0.045155,0.73378 v 1.14018 c -0.2539998,0.5588 -0.5757329,0.83538 -0.9821326,0.83538 -0.1072443,0 -0.2257776,-0.0339 -0.3104442,-0.079 -0.1749771,-0.10727 -0.2596437,-0.31611 -0.2596437,-0.64349 v -1.25307 c 0,-0.28786 0.00564,-0.47978 0.039511,-0.73378 H 1.8090592 c 0.028222,0.20885 0.045156,0.42334 0.045156,0.73378 v 1.42805 c 0,0.46284 0.1467554,0.77893 0.4571996,0.97648 0.1862665,0.11289 0.3894664,0.16369 0.6773328,0.16369 0.5362218,0 0.8466661,-0.16369 1.1571103,-0.60395 -0.00564,0.14111 -0.00564,0.15804 -0.00564,0.24271 v 0.29915 h 0.7676439 c -0.033867,-0.23142 -0.045155,-0.42333 -0.045155,-0.73377 v -1.77236 c 0,-0.31609 0.00564,-0.49106 0.045155,-0.73378 z"
           style="font-style:normal;font-variant:normal;font-weight:600;font-stretch:normal;font-size:5.64444px;font-family:'Hiragino Kaku Gothic Pro';-inkscape-font-specification:'Hiragino Kaku Gothic Pro, Semi-Bold';font-variant-ligatures:normal;font-variant-caps:normal;font-variant-numeric:normal;font-variant-east-asian:normal;fill:#502d16;fill-opacity:1;stroke-width:0.0700042"
           id="path2609" />
        <path
           d="m 5.6180865,178.03072 c 0.028222,0.21449 0.039511,0.39511 0.039511,0.73378 v 3.02542 c 0,0.32737 -0.011289,0.49106 -0.039511,0.73377 h 0.8184439 c -0.028222,-0.24835 -0.039511,-0.43462 -0.039511,-0.73377 v -3.01978 c 0,-0.33867 0.011289,-0.51929 0.039511,-0.73942 z"
           style="font-style:normal;font-variant:normal;font-weight:600;font-stretch:normal;font-size:5.64444px;font-family:'Hiragino Kaku Gothic Pro';-inkscape-font-specification:'Hiragino Kaku Gothic Pro, Semi-Bold';font-variant-ligatures:normal;font-variant-caps:normal;font-variant-numeric:normal;font-variant-east-asian:normal;fill:#502d16;fill-opacity:1;stroke-width:0.0700042"
           id="path2611" />
        <path
           d="m 7.5286432,178.41454 c 0.022578,0.2032 0.039511,0.45156 0.039511,0.69427 v 0.17497 H 7.35931 c -0.2370665,0 -0.3443109,-0.006 -0.5079996,-0.0339 v 0.66604 c 0.1862665,-0.0282 0.2935109,-0.0339 0.5023551,-0.0339 h 0.2144888 v 1.89653 c 0,0.59266 0.2596442,0.82409 0.9087548,0.82409 0.2935109,0 0.4628441,-0.0282 0.7055551,-0.11854 l -0.1016,-0.59831 c -0.1749776,0.096 -0.2652887,0.12418 -0.4120441,0.12418 -0.2709331,0 -0.372533,-0.1016 -0.372533,-0.37818 v -1.74977 h 0.2539998 c 0.2596442,0 0.3668886,0.006 0.5531551,0.0339 v -0.66604 c -0.1806221,0.0282 -0.3047998,0.0339 -0.5700885,0.0339 H 8.2962871 v -0.17497 c 0,-0.254 0.016933,-0.49671 0.039511,-0.69427 z"
           style="font-style:normal;font-variant:normal;font-weight:600;font-stretch:normal;font-size:5.64444px;font-family:'Hiragino Kaku Gothic Pro';-inkscape-font-specification:'Hiragino Kaku Gothic Pro, Semi-Bold';font-variant-ligatures:normal;font-variant-caps:normal;font-variant-numeric:normal;font-variant-east-asian:normal;fill:#502d16;fill-opacity:1;stroke-width:0.0700042"
           id="path2613" />
        <path
           d="m -61.59379,194.08493 c 0.03387,0.23142 0.05644,0.33867 0.107244,0.46849 0.107245,0.27658 0.270934,0.49106 0.496711,0.64346 0.270933,0.18063 0.722488,0.29351 1.185333,0.29351 0.603955,0 1.049865,-0.14111 1.349021,-0.42897 0.231422,-0.23142 0.3556,-0.5588 0.3556,-0.95956 0,-0.42333 -0.146756,-0.73377 -0.468489,-0.97084 -0.2032,-0.14111 -0.474133,-0.24836 -0.920044,-0.34431 -0.626533,-0.14111 -0.671688,-0.1524 -0.795866,-0.2032 -0.259644,-0.11289 -0.383822,-0.27658 -0.383822,-0.51365 0,-0.36688 0.333022,-0.61524 0.824088,-0.61524 0.310445,0 0.5588,0.096 0.705556,0.27093 0.09595,0.11289 0.135466,0.20885 0.169333,0.40076 l 0.807155,-0.096 c -0.06773,-0.29915 -0.135467,-0.46849 -0.276578,-0.65475 -0.276577,-0.37254 -0.761999,-0.57009 -1.405466,-0.57009 -0.970843,0 -1.603021,0.508 -1.603021,1.29258 0,0.37817 0.146756,0.68862 0.434622,0.9144 0.2032,0.15804 0.428978,0.24835 0.852311,0.34431 0.778933,0.18062 0.812799,0.18626 0.982132,0.27657 0.174978,0.096 0.282222,0.28787 0.282222,0.51929 0,0.42334 -0.338666,0.67734 -0.90311,0.67734 -0.366889,0 -0.660399,-0.11854 -0.824088,-0.33303 -0.1016,-0.12982 -0.135467,-0.24271 -0.158045,-0.49671 z"
           style="font-style:normal;font-variant:normal;font-weight:600;font-stretch:normal;font-size:5.64444px;font-family:'Hiragino Kaku Gothic Pro';-inkscape-font-specification:'Hiragino Kaku Gothic Pro, Semi-Bold';font-variant-ligatures:normal;font-variant-caps:normal;font-variant-numeric:normal;font-variant-east-asian:normal;fill:#502d16;fill-opacity:1;stroke-width:0.0700042"
           id="path2615" />
        <path
           d="m -55.318055,195.40008 h 0.762 c -0.03387,-0.254 -0.04516,-0.4064 -0.04516,-0.70555 v -1.51836 c 0,-0.38382 -0.07338,-0.59831 -0.265288,-0.77893 -0.242711,-0.23707 -0.570089,-0.33302 -1.111955,-0.33302 -0.485422,0 -0.801511,0.0847 -1.078088,0.28787 -0.214489,0.1524 -0.316089,0.29915 -0.445911,0.62653 l 0.722488,0.12982 c 0.06773,-0.2032 0.118534,-0.28222 0.225778,-0.36124 0.129822,-0.1016 0.361244,-0.16369 0.587022,-0.16369 0.428977,0 0.64911,0.16933 0.64911,0.49671 v 0.28787 c -0.807155,0.0169 -1.224843,0.0734 -1.591732,0.22577 -0.389466,0.16369 -0.637822,0.51929 -0.637822,0.9144 0,0.59267 0.417689,0.94827 1.106311,0.94827 0.180622,0 0.361244,-0.0226 0.524933,-0.0677 0.231422,-0.0621 0.372533,-0.14111 0.59831,-0.3556 z m 0,-1.25871 c 0,0.19756 -0.06773,0.36125 -0.203199,0.49671 -0.191911,0.18627 -0.485422,0.29916 -0.784578,0.29916 -0.316088,0 -0.513644,-0.16369 -0.513644,-0.42898 0,-0.44026 0.423333,-0.62653 1.501421,-0.64911 z"
           style="font-style:normal;font-variant:normal;font-weight:600;font-stretch:normal;font-size:5.64444px;font-family:'Hiragino Kaku Gothic Pro';-inkscape-font-specification:'Hiragino Kaku Gothic Pro, Semi-Bold';font-variant-ligatures:normal;font-variant-caps:normal;font-variant-numeric:normal;font-variant-east-asian:normal;fill:#502d16;fill-opacity:1;stroke-width:0.0700042"
           id="path2617" />
        <path
           d="m -52.073824,195.40008 c 0.03951,-0.16369 0.05644,-0.21449 0.169333,-0.50235 l 0.869244,-2.14489 c 0.107244,-0.27658 0.174977,-0.43462 0.253999,-0.59267 h -0.857954 c -0.02258,0.15805 -0.0508,0.25965 -0.141111,0.52494 l -0.575733,1.63689 c -0.03951,0.11288 -0.08467,0.254 -0.124178,0.37817 -0.03387,-0.11853 -0.08467,-0.28786 -0.118533,-0.37817 l -0.575733,-1.63689 c -0.07338,-0.20885 -0.124178,-0.40076 -0.141111,-0.52494 h -0.8636 c 0.112889,0.23707 0.2032,0.44592 0.265289,0.59267 l 0.8636,2.14489 c 0.112888,0.28222 0.135466,0.34995 0.169333,0.50235 z"
           style="font-style:normal;font-variant:normal;font-weight:600;font-stretch:normal;font-size:5.64444px;font-family:'Hiragino Kaku Gothic Pro';-inkscape-font-specification:'Hiragino Kaku Gothic Pro, Semi-Bold';font-variant-ligatures:normal;font-variant-caps:normal;font-variant-numeric:normal;font-variant-east-asian:normal;fill:#502d16;fill-opacity:1;stroke-width:0.0700042"
           id="path2619" />
        <path
           d="m -47.33761,193.9664 c -0.01129,-0.12983 -0.01129,-0.14676 -0.01129,-0.15805 -0.01693,-0.38382 -0.05645,-0.58702 -0.163689,-0.85795 -0.225778,-0.56445 -0.745066,-0.89183 -1.405466,-0.89183 -0.965199,0 -1.591732,0.68298 -1.591732,1.7272 0,1.05551 0.632177,1.72156 1.631243,1.72156 0.474133,0 0.869244,-0.14676 1.162755,-0.43462 0.141111,-0.14112 0.214489,-0.24836 0.344311,-0.51929 l -0.666044,-0.21449 c -0.05644,0.1524 -0.09596,0.21449 -0.163689,0.29351 -0.163689,0.18062 -0.400755,0.28222 -0.677333,0.28222 -0.287866,0 -0.541866,-0.11289 -0.705555,-0.31609 -0.129822,-0.16369 -0.180622,-0.32173 -0.208844,-0.63217 z m -2.438398,-0.5588 c 0.08467,-0.47414 0.4064,-0.76765 0.846666,-0.76765 0.265289,0 0.4572,0.0734 0.6096,0.22578 0.141111,0.14111 0.208844,0.29351 0.248355,0.54187 z"
           style="font-style:normal;font-variant:normal;font-weight:600;font-stretch:normal;font-size:5.64444px;font-family:'Hiragino Kaku Gothic Pro';-inkscape-font-specification:'Hiragino Kaku Gothic Pro, Semi-Bold';font-variant-ligatures:normal;font-variant-caps:normal;font-variant-numeric:normal;font-variant-east-asian:normal;fill:#502d16;fill-opacity:1;stroke-width:0.0700042"
           id="path2621" />
        <path
           d="m -8.9499236,193.88737 c -0.04516,0.25965 -0.09031,0.37818 -0.186266,0.51929 -0.180622,0.26529 -0.5192887,0.41769 -0.9143994,0.41769 -0.790221,0 -1.286932,-0.64347 -1.286932,-1.6764 0,-1.03858 0.485422,-1.66511 1.286932,-1.66511 0.3499557,0 0.6321774,0.11854 0.8240884,0.34996 0.112889,0.12982 0.163688,0.23706 0.242711,0.48542 l 0.7845764,-0.18062 c -0.06773,-0.21449 -0.107245,-0.31609 -0.174978,-0.43462 -0.1411107,-0.24836 -0.3443107,-0.4572 -0.5983094,-0.61525 -0.310445,-0.18627 -0.6434667,-0.27093 -1.0837324,-0.27093 -0.564444,0 -1.072444,0.19191 -1.41111,0.53622 -0.423333,0.42333 -0.6604,1.07809 -0.6604,1.82315 0,0.72249 0.220134,1.36031 0.615244,1.77236 0.344311,0.3556 0.835378,0.54186 1.450622,0.54186 0.6773314,0 1.2191981,-0.22013 1.5409311,-0.61524 0.1693327,-0.22013 0.2709327,-0.44027 0.3781767,-0.84667 z"
           style="font-style:normal;font-variant:normal;font-weight:600;font-stretch:normal;font-size:5.64444px;font-family:'Hiragino Kaku Gothic Pro';-inkscape-font-specification:'Hiragino Kaku Gothic Pro, Semi-Bold';font-variant-ligatures:normal;font-variant-caps:normal;font-variant-numeric:normal;font-variant-east-asian:normal;fill:#502d16;fill-opacity:1;stroke-width:0.0700042"
           id="path2623" />
        <path
           d="m -5.4110368,195.40008 h 0.761999 c -0.03387,-0.254 -0.04516,-0.4064 -0.04516,-0.70555 v -1.51836 c 0,-0.38382 -0.07338,-0.59831 -0.265289,-0.77893 -0.242711,-0.23707 -0.570089,-0.33302 -1.111955,-0.33302 -0.485422,0 -0.80151,0.0847 -1.078088,0.28787 -0.2144887,0.1524 -0.3160887,0.29915 -0.4459107,0.62653 l 0.7224887,0.12982 c 0.06773,-0.2032 0.118533,-0.28222 0.225777,-0.36124 0.129822,-0.1016 0.361244,-0.16369 0.587022,-0.16369 0.428977,0 0.649111,0.16933 0.649111,0.49671 v 0.28787 c -0.807155,0.0169 -1.224844,0.0734 -1.591732,0.22577 -0.3894667,0.16369 -0.6378217,0.51929 -0.6378217,0.9144 0,0.59267 0.4176877,0.94827 1.1063097,0.94827 0.180622,0 0.361244,-0.0226 0.524933,-0.0677 0.231422,-0.0621 0.372533,-0.14111 0.598311,-0.3556 z m 0,-1.25871 c 0,0.19756 -0.06773,0.36125 -0.2032,0.49671 -0.191911,0.18627 -0.485422,0.29916 -0.784577,0.29916 -0.316089,0 -0.513644,-0.16369 -0.513644,-0.42898 0,-0.44026 0.423333,-0.62653 1.501421,-0.64911 z"
           style="font-style:normal;font-variant:normal;font-weight:600;font-stretch:normal;font-size:5.64444px;font-family:'Hiragino Kaku Gothic Pro';-inkscape-font-specification:'Hiragino Kaku Gothic Pro, Semi-Bold';font-variant-ligatures:normal;font-variant-caps:normal;font-variant-numeric:normal;font-variant-east-asian:normal;fill:#502d16;fill-opacity:1;stroke-width:0.0700042"
           id="path2625" />
        <path
           d="m -3.1602278,195.40008 c -0.03387,-0.24271 -0.04516,-0.4572 -0.04516,-0.73377 v -1.14018 c 0.248356,-0.5588 0.581378,-0.84102 0.987777,-0.84102 0.2144887,0 0.3838217,0.0847 0.4741327,0.23142 0.06773,0.10724 0.09596,0.25964 0.09596,0.49671 v 1.25307 c 0,0.28786 -0.01129,0.47977 -0.03951,0.73377 h 0.81844397 c -0.03387,-0.20884 -0.04516,-0.42333 -0.04516,-0.73377 v -1.35467 c 0,-0.37818 -0.05644,-0.60395 -0.19191097,-0.79022 -0.2032,-0.27658 -0.524933,-0.41769 -0.9595547,-0.41769 -0.507999,0 -0.807155,0.15804 -1.151465,0.59831 0.01129,-0.14111 0.01129,-0.15804 0.01129,-0.24271 v -0.29916 h -0.767643 c 0.03387,0.23143 0.04516,0.42334 0.04516,0.73378 v 1.77236 c 0,0.31608 -0.01129,0.49106 -0.04516,0.73377 z"
           style="font-style:normal;font-variant:normal;font-weight:600;font-stretch:normal;font-size:5.64444px;font-family:'Hiragino Kaku Gothic Pro';-inkscape-font-specification:'Hiragino Kaku Gothic Pro, Semi-Bold';font-variant-ligatures:normal;font-variant-caps:normal;font-variant-numeric:normal;font-variant-east-asian:normal;fill:#502d16;fill-opacity:1;stroke-width:0.0700042"
           id="path2627" />
        <path
           d="m 2.7711088,193.08022 c -0.07902,-0.20885 -0.124178,-0.29916 -0.1975561,-0.41205 -0.270933,-0.39511 -0.711199,-0.6096 -1.264354,-0.6096 -0.46284392,0 -0.85795489,0.14676 -1.13453289,0.42898 -0.31044397,0.31609 -0.47977697,0.77329 -0.47977697,1.30387 0,1.04422 0.64346597,1.71591 1.63688786,1.71591 0.536221,0 0.970843,-0.19756 1.241776,-0.57009 0.1016001,-0.13547 0.1580451,-0.254 0.2370671,-0.47978 l -0.6999111,-0.14111 c -0.03387,0.14111 -0.06209,0.2032 -0.112889,0.28222 -0.141111,0.2032 -0.3668879,0.31609 -0.64911,0.31609 -0.57008892,0 -0.92004389,-0.43462 -0.92004389,-1.14018 0,-0.69991 0.34431097,-1.13453 0.89746589,-1.13453 0.2483551,0 0.445911,0.0903 0.581377,0.25965 0.07338,0.0903 0.112889,0.16933 0.174978,0.34431 z"
           style="font-style:normal;font-variant:normal;font-weight:600;font-stretch:normal;font-size:5.64444px;font-family:'Hiragino Kaku Gothic Pro';-inkscape-font-specification:'Hiragino Kaku Gothic Pro, Semi-Bold';font-variant-ligatures:normal;font-variant-caps:normal;font-variant-numeric:normal;font-variant-east-asian:normal;fill:#502d16;fill-opacity:1;stroke-width:0.0700042"
           id="path2629" />
        <path
           d="m 6.3948386,193.9664 c -0.01129,-0.12983 -0.01129,-0.14676 -0.01129,-0.15805 -0.01693,-0.38382 -0.05644,-0.58702 -0.163689,-0.85795 -0.225777,-0.56445 -0.745066,-0.89183 -1.405465,-0.89183 -0.965199,0 -1.5917318,0.68298 -1.5917318,1.7272 0,1.05551 0.6321768,1.72156 1.6312428,1.72156 0.474133,0 0.869244,-0.14676 1.162755,-0.43462 0.141111,-0.14112 0.214488,-0.24836 0.34431,-0.51929 l -0.666044,-0.21449 c -0.05644,0.1524 -0.09596,0.21449 -0.163688,0.29351 -0.163689,0.18062 -0.400756,0.28222 -0.677333,0.28222 -0.287867,0 -0.541866,-0.11289 -0.705555,-0.31609 -0.129822,-0.16369 -0.180622,-0.32173 -0.208844,-0.63217 z m -2.438398,-0.5588 c 0.08467,-0.47414 0.4064,-0.76765 0.846666,-0.76765 0.265289,0 0.4572,0.0734 0.609599,0.22578 0.141111,0.14111 0.208845,0.29351 0.248356,0.54187 z"
           style="font-style:normal;font-variant:normal;font-weight:600;font-stretch:normal;font-size:5.64444px;font-family:'Hiragino Kaku Gothic Pro';-inkscape-font-specification:'Hiragino Kaku Gothic Pro, Semi-Bold';font-variant-ligatures:normal;font-variant-caps:normal;font-variant-numeric:normal;font-variant-east-asian:normal;fill:#502d16;fill-opacity:1;stroke-width:0.0700042"
           id="path2631" />
        <path
           d="m 6.9520515,190.90711 c 0.02822,0.21449 0.03951,0.39511 0.03951,0.73378 v 3.02542 c 0,0.32737 -0.01129,0.49106 -0.03951,0.73377 h 0.8184443 c -0.02822,-0.24835 -0.03951,-0.43462 -0.03951,-0.73377 v -3.01978 c 0,-0.33867 0.01129,-0.51929 0.03951,-0.73942 z"
           style="font-style:normal;font-variant:normal;font-weight:600;font-stretch:normal;font-size:5.64444px;font-family:'Hiragino Kaku Gothic Pro';-inkscape-font-specification:'Hiragino Kaku Gothic Pro, Semi-Bold';font-variant-ligatures:normal;font-variant-caps:normal;font-variant-numeric:normal;font-variant-east-asian:normal;fill:#502d16;fill-opacity:1;stroke-width:0.0700042"
           id="path2633" />
      </g>
    </g>
  </g>
</svg>
