<?xml version="1.0" encoding="UTF-8" standalone="no"?>
<svg
   xmlns:dc="http://purl.org/dc/elements/1.1/"
   xmlns:cc="http://creativecommons.org/ns#"
   xmlns:rdf="http://www.w3.org/1999/02/22-rdf-syntax-ns#"
   xmlns:svg="http://www.w3.org/2000/svg"
   xmlns="http://www.w3.org/2000/svg"
   xmlns:sodipodi="http://sodipodi.sourceforge.net/DTD/sodipodi-0.dtd"
   xmlns:inkscape="http://www.inkscape.org/namespaces/inkscape"
   width="110.40195mm"
   height="29.17432mm"
   viewBox="0 0 110.40196 29.17432"
   version="1.1"
   id="svg8"
   inkscape:version="1.0.1 (c497b03c, 2020-09-10)"
   sodipodi:docname="start_title_en.svg">
  <defs
     id="defs2">
    <filter
       inkscape:label="Relief Print"
       inkscape:menu="Bumps"
       inkscape:menu-tooltip="Bumps effect with a bevel, color flood and complex lighting"
       style="color-interpolation-filters:sRGB"
       id="filter993">
      <feGaussianBlur
         stdDeviation="5"
         result="result8"
         id="feGaussianBlur959" />
      <feComposite
         result="result6"
         in="SourceGraphic"
         operator="in"
         in2="result8"
         id="feComposite961" />
      <feComposite
         operator="in"
         result="result11"
         in2="result6"
         id="feComposite963" />
      <feFlood
         result="result10"
         flood-opacity="1"
         flood-color="rgb(255,255,255)"
         id="feFlood965" />
      <feBlend
         mode="multiply"
         in="result10"
         in2="result11"
         result="result12"
         id="feBlend967" />
      <feComposite
         result="fbSourceGraphic"
         operator="in"
         in2="SourceGraphic"
         in="result12"
         id="feComposite969" />
      <feFlood
         result="result6"
         flood-color="rgb(75,101,154)"
         id="feFlood971" />
      <feComposite
         k3="0.3"
         k2="0.3"
         k1="0.5"
         operator="arithmetic"
         result="result2"
         in="fbSourceGraphic"
         in2="result6"
         id="feComposite973"
         k4="0" />
      <feColorMatrix
         result="fbSourceGraphicAlpha"
         in="result2"
         values="1 0 0 -1 0 1 0 1 -1 0 1 0 0 -1 0 -0.8 -1 0 3.9 -2.7 "
         type="matrix"
         id="feColorMatrix975" />
      <feGaussianBlur
         result="result0"
         in="fbSourceGraphicAlpha"
         stdDeviation="0.5"
         id="feGaussianBlur977" />
      <feDiffuseLighting
         lighting-color="#ffffff"
         diffuseConstant="0.69999999"
         surfaceScale="50"
         result="result13"
         in="result0"
         id="feDiffuseLighting981">
        <feDistantLight
           elevation="20"
           azimuth="225"
           id="feDistantLight979" />
      </feDiffuseLighting>
      <feSpecularLighting
         specularExponent="20"
         specularConstant="0.69999999"
         surfaceScale="10"
         lighting-color="#ffffff"
         result="result1"
         in="result0"
         id="feSpecularLighting985">
        <feDistantLight
           elevation="45"
           azimuth="225"
           id="feDistantLight983" />
      </feSpecularLighting>
      <feBlend
         mode="screen"
         result="result5"
         in2="SourceGraphic"
         in="result13"
         id="feBlend987" />
      <feComposite
         in="result1"
         k3="1"
         k2="1"
         operator="arithmetic"
         in2="result5"
         result="result9"
         id="feComposite989"
         k1="0"
         k4="0" />
      <feComposite
         in2="SourceGraphic"
         operator="in"
         id="feComposite991" />
    </filter>
  </defs>
  <sodipodi:namedview
     id="base"
     pagecolor="#ffffff"
     bordercolor="#666666"
     borderopacity="1.0"
     inkscape:pageopacity="0.0"
     inkscape:pageshadow="2"
     inkscape:zoom="1.2422672"
     inkscape:cx="274.4085"
     inkscape:cy="24.155914"
     inkscape:document-units="mm"
     inkscape:current-layer="text923"
     inkscape:document-rotation="0"
     showgrid="false"
     inkscape:window-width="1440"
     inkscape:window-height="697"
     inkscape:window-x="0"
     inkscape:window-y="25"
     inkscape:window-maximized="0"
     fit-margin-top="0"
     fit-margin-left="0"
     fit-margin-right="0"
     fit-margin-bottom="0" />
  <metadata
     id="metadata5">
    <rdf:RDF>
      <cc:Work
         rdf:about="">
        <dc:format>image/svg+xml</dc:format>
        <dc:type
           rdf:resource="http://purl.org/dc/dcmitype/StillImage" />
        <dc:title></dc:title>
      </cc:Work>
    </rdf:RDF>
  </metadata>
  <g
     inkscape:label="レイヤー 1"
     inkscape:groupmode="layer"
     id="layer1"
     transform="translate(-28.601961,-165.16888)">
    <g
       aria-label="box rearing"
       id="text1194"
       style="font-weight:600;font-size:8.46667px;line-height:1.25;font-family:'Hiragino Kaku Gothic Pro';-inkscape-font-specification:'Hiragino Kaku Gothic Pro, Semi-Bold';letter-spacing:0.926042px;fill:#502d16;fill-opacity:1;stroke-width:0.264583">
      <path
         d="m 78.407104,172.15688 v -0.41486 c 0,-0.1016 0,-0.19474 -0.0085,-0.3048 0.423333,0.59266 0.905933,0.8382 1.684867,0.8382 0.6858,0 1.227667,-0.2032 1.6256,-0.6096 0.457201,-0.47414 0.694267,-1.15147 0.694267,-1.98121 0,-1.5748 -0.8382,-2.49766 -2.2606,-2.49766 -0.778934,0 -1.303868,0.26246 -1.744134,0.85513 0.0085,-0.28787 0.01693,-0.49953 0.01693,-0.635 v -0.84667 c 0,-0.508 0.01693,-0.7874 0.05927,-1.143 h -1.193801 c 0.04233,0.4064 0.05927,0.70274 0.05927,1.13454 v 4.46193 c 0,0.49954 -0.01693,0.77047 -0.05927,1.143 z m 2.895601,-2.47227 c 0,1.02447 -0.550333,1.68487 -1.405467,1.68487 -0.313267,0 -0.643467,-0.11853 -0.889,-0.31326 -0.338667,-0.27094 -0.5588,-0.80434 -0.5588,-1.33774 0,-0.44027 0.160866,-0.89747 0.414866,-1.17687 0.2794,-0.3048 0.677334,-0.46566 1.151467,-0.46566 0.778934,0 1.286934,0.635 1.286934,1.60866 z"
         style="fill:#502d16;fill-opacity:1;stroke-width:0.264583"
         id="path1208" />
      <path
         d="m 86.505077,172.31775 c 1.507067,0 2.497668,-1.03293 2.497668,-2.59927 0,-1.56633 -0.973667,-2.5654 -2.506135,-2.5654 -1.540934,0 -2.523067,1.00753 -2.523067,2.58234 0,1.58326 0.982133,2.58233 2.531534,2.58233 z m -0.0085,-4.28414 c 0.897467,0 1.413934,0.62654 1.413934,1.71874 0,1.03293 -0.541867,1.66793 -1.4224,1.66793 -0.880534,0 -1.422401,-0.64346 -1.422401,-1.68486 0,-1.05834 0.541867,-1.70181 1.430867,-1.70181 z"
         style="fill:#502d16;fill-opacity:1;stroke-width:0.264583"
         id="path1210" />
      <path
         d="m 95.355261,172.15688 c -0.2286,-0.2794 -0.508,-0.64346 -0.626534,-0.8128 l -1.236134,-1.7272 1.143001,-1.59173 c 0.135467,-0.19474 0.270933,-0.381 0.541867,-0.72814 h -1.312334 c -0.08467,0.19474 -0.2032,0.41487 -0.3556,0.64347 l -0.643467,0.94827 -0.651934,-0.94827 c -0.143933,-0.21167 -0.254,-0.41487 -0.3556,-0.64347 h -1.3208 c 0.381,0.49107 0.448733,0.5842 0.541867,0.7112 l 1.151467,1.60867 -1.270001,1.778 c -0.143933,0.19474 -0.4064,0.5334 -0.592667,0.762 h 1.363134 c 0.1524,-0.31326 0.2286,-0.44026 0.364067,-0.64346 l 0.762,-1.13454 0.736601,1.08374 c 0.169333,0.24553 0.254,0.39793 0.397933,0.69426 z"
         style="fill:#502d16;fill-opacity:1;stroke-width:0.264583"
         id="path1212" />
      <path
         d="m 104.22767,167.29701 c -0.381,-0.0677 -0.5842,-0.0931 -0.7874,-0.0931 -0.762,0 -1.28693,0.28787 -1.59174,0.889 v -0.79587 h -1.15146 c 0.0508,0.34714 0.0593,0.5842 0.0593,1.10067 v 2.65854 c 0,0.44026 -0.0169,0.6858 -0.0593,1.10066 h 1.21073 c -0.0423,-0.39793 -0.0593,-0.64346 -0.0593,-1.10066 v -1.56634 c 0.0508,-0.4064 0.13547,-0.60113 0.34714,-0.84667 0.23707,-0.2794 0.5588,-0.41486 0.98213,-0.41486 0.22014,0 0.39794,0.0339 0.75354,0.13546 z"
         style="fill:#502d16;fill-opacity:1;stroke-width:0.264583"
         id="path1214" />
      <path
         d="m 110.32843,170.00635 c -0.0169,-0.19473 -0.0169,-0.22013 -0.0169,-0.23707 -0.0254,-0.57573 -0.0847,-0.88053 -0.24553,-1.28693 -0.33867,-0.84667 -1.1176,-1.33774 -2.1082,-1.33774 -1.4478,0 -2.3876,1.02447 -2.3876,2.59081 0,1.58326 0.94826,2.58233 2.44686,2.58233 0.7112,0 1.30387,-0.22013 1.74414,-0.65193 0.21166,-0.21167 0.32173,-0.37254 0.51646,-0.77894 l -0.99906,-0.32173 c -0.0847,0.2286 -0.14394,0.32173 -0.24554,0.44027 -0.24553,0.27093 -0.60113,0.42333 -1.016,0.42333 -0.4318,0 -0.8128,-0.16933 -1.05833,-0.47413 -0.19473,-0.24554 -0.27093,-0.4826 -0.31327,-0.94827 z m -3.6576,-0.8382 c 0.127,-0.7112 0.6096,-1.15147 1.27,-1.15147 0.39794,0 0.6858,0.11007 0.9144,0.33867 0.21167,0.21166 0.31327,0.44026 0.37254,0.8128 z"
         style="fill:#502d16;fill-opacity:1;stroke-width:0.264583"
         id="path1216" />
      <path
         d="m 115.30763,172.15688 h 1.143 c -0.0508,-0.381 -0.0677,-0.6096 -0.0677,-1.05833 v -2.27754 c 0,-0.57573 -0.11007,-0.89746 -0.39794,-1.1684 -0.36406,-0.3556 -0.85513,-0.49953 -1.66793,-0.49953 -0.72813,0 -1.20227,0.127 -1.61714,0.4318 -0.32173,0.2286 -0.47413,0.44873 -0.66886,0.9398 l 1.08373,0.19473 c 0.1016,-0.3048 0.1778,-0.42333 0.33867,-0.54186 0.19473,-0.1524 0.54187,-0.24554 0.88053,-0.24554 0.64347,0 0.97367,0.254 0.97367,0.74507 v 0.4318 c -1.21073,0.0254 -1.83727,0.11007 -2.3876,0.33867 -0.5842,0.24553 -0.95674,0.77893 -0.95674,1.3716 0,0.889 0.62654,1.4224 1.65947,1.4224 0.27094,0 0.54187,-0.0339 0.7874,-0.1016 0.34714,-0.0931 0.5588,-0.21167 0.89747,-0.5334 z m 0,-1.88806 c 0,0.29633 -0.1016,0.54186 -0.3048,0.74506 -0.28787,0.2794 -0.72813,0.44874 -1.17687,0.44874 -0.47413,0 -0.77047,-0.24554 -0.77047,-0.64347 0,-0.6604 0.63501,-0.9398 2.25214,-0.97367 z"
         style="fill:#502d16;fill-opacity:1;stroke-width:0.264583"
         id="path1218" />
      <path
         d="m 121.93823,167.29701 c -0.381,-0.0677 -0.5842,-0.0931 -0.78741,-0.0931 -0.762,0 -1.28693,0.28787 -1.59173,0.889 v -0.79587 h -1.15147 c 0.0508,0.34714 0.0593,0.5842 0.0593,1.10067 v 2.65854 c 0,0.44026 -0.0169,0.6858 -0.0593,1.10066 h 1.21074 c -0.0423,-0.39793 -0.0593,-0.64346 -0.0593,-1.10066 v -1.56634 c 0.0508,-0.4064 0.13547,-0.60113 0.34713,-0.84667 0.23707,-0.2794 0.5588,-0.41486 0.98214,-0.41486 0.22013,0 0.39793,0.0339 0.75353,0.13546 z"
         style="fill:#502d16;fill-opacity:1;stroke-width:0.264583"
         id="path1220" />
      <path
         d="m 123.48392,165.41741 v 1.07527 h 1.2446 v -1.07527 z m 0,1.8796 c 0.0508,0.34714 0.0677,0.635 0.0677,1.10067 v 2.65854 c 0,0.42333 -0.0169,0.71966 -0.0677,1.10066 h 1.23613 c -0.0423,-0.3556 -0.0593,-0.64346 -0.0593,-1.10913 v -2.6416 c 0,-0.51647 0.0169,-0.79587 0.0593,-1.10914 z"
         style="fill:#502d16;fill-opacity:1;stroke-width:0.264583"
         id="path1222" />
      <path
         d="m 127.92773,172.15688 c -0.0508,-0.36406 -0.0677,-0.6858 -0.0677,-1.10066 v -1.71027 c 0.37253,-0.8382 0.87207,-1.26154 1.48167,-1.26154 0.32173,0 0.57573,0.127 0.7112,0.34714 0.1016,0.16086 0.14393,0.38946 0.14393,0.74506 v 1.87961 c 0,0.4318 -0.0169,0.71966 -0.0593,1.10066 h 1.22767 c -0.0508,-0.31326 -0.0677,-0.635 -0.0677,-1.10066 v -2.03201 c 0,-0.56726 -0.0847,-0.90593 -0.28787,-1.18533 -0.3048,-0.41487 -0.7874,-0.62653 -1.43933,-0.62653 -0.762,0 -1.21074,0.23706 -1.72721,0.89746 0.0169,-0.21166 0.0169,-0.23706 0.0169,-0.36406 v -0.44874 h -1.15147 c 0.0508,0.34714 0.0677,0.635 0.0677,1.10067 v 2.65854 c 0,0.47413 -0.0169,0.7366 -0.0677,1.10066 z"
         style="fill:#502d16;fill-opacity:1;stroke-width:0.264583"
         id="path1224" />
      <path
         d="m 133.23805,172.93582 c 0.57574,0.65193 1.13454,0.88053 2.12514,0.88053 0.87206,0 1.5748,-0.19473 1.99813,-0.54187 0.49107,-0.41486 0.7112,-1.0668 0.7112,-2.0828 v -2.83633 c 0,-0.4572 0.0169,-0.69427 0.0593,-1.05834 h -1.13453 v 0.38947 c 0,0.0931 0,0.11007 0.0169,0.2794 -0.36407,-0.51647 -0.8636,-0.74507 -1.61714,-0.74507 -1.3716,0 -2.2606,0.94827 -2.2606,2.413 0,1.44781 0.8636,2.37067 2.2098,2.37067 0.7366,0 1.23614,-0.23706 1.65947,-0.77046 -0.0169,0.57573 -0.0762,0.87206 -0.22013,1.12606 -0.23707,0.4064 -0.7366,0.635 -1.38854,0.635 -0.6096,0 -0.98213,-0.18626 -1.31233,-0.64346 z m 1.00754,-3.27661 c 0,-1.00753 0.52493,-1.64253 1.3716,-1.64253 0.3048,0 0.5842,0.11007 0.82126,0.3048 0.33867,0.28787 0.50801,0.7112 0.50801,1.25307 0,0.38947 -0.0762,0.70273 -0.23707,0.9652 -0.23707,0.39793 -0.7112,0.66887 -1.17687,0.66887 -0.32173,0 -0.6858,-0.1524 -0.89747,-0.381 -0.254,-0.254 -0.38946,-0.66887 -0.38946,-1.16841 z"
         style="fill:#502d16;fill-opacity:1;stroke-width:0.264583"
         id="path1226" />
    </g>
    <g
       aria-label="tube shaped shrimp paste cake"
       id="text919"
       style="font-style:normal;font-variant:normal;font-weight:600;font-stretch:normal;font-size:6.35px;line-height:1.25;font-family:'Hiragino Kaku Gothic Pro';-inkscape-font-specification:'Hiragino Kaku Gothic Pro, Semi-Bold';font-variant-ligatures:normal;font-variant-caps:normal;font-variant-numeric:normal;font-variant-east-asian:normal;letter-spacing:0.079375px;fill:#502d16;fill-opacity:1;stroke-width:0.264583">
      <path
         d="m 29.363961,188.48215 c 0.0254,0.2286 0.04445,0.508 0.04445,0.78105 v 0.19685 h -0.23495 c -0.2667,0 -0.38735,-0.006 -0.5715,-0.0381 v 0.7493 c 0.20955,-0.0317 0.3302,-0.0381 0.56515,-0.0381 h 0.2413 v 2.1336 c 0,0.66675 0.2921,0.9271 1.02235,0.9271 0.3302,0 0.5207,-0.0317 0.79375,-0.13335 l -0.1143,-0.6731 c -0.19685,0.10795 -0.29845,0.1397 -0.46355,0.1397 -0.3048,0 -0.4191,-0.1143 -0.4191,-0.42545 v -1.9685 h 0.28575 c 0.2921,0 0.41275,0.006 0.6223,0.0381 v -0.7493 c -0.2032,0.0317 -0.3429,0.0381 -0.64135,0.0381 h -0.2667 v -0.19685 c 0,-0.28575 0.01905,-0.5588 0.04445,-0.78105 z"
         style="font-style:normal;font-variant:normal;font-weight:600;font-stretch:normal;font-size:6.35px;font-family:'Hiragino Kaku Gothic Pro';-inkscape-font-specification:'Hiragino Kaku Gothic Pro, Semi-Bold';font-variant-ligatures:normal;font-variant-caps:normal;font-variant-numeric:normal;font-variant-east-asian:normal;fill:#502d16;fill-opacity:1;stroke-width:0.264583"
         id="path1250" />
      <path
         d="m 34.336606,189.46005 c 0.03175,0.27305 0.0508,0.51435 0.0508,0.8255 v 1.2827 c -0.28575,0.62865 -0.6477,0.9398 -1.1049,0.9398 -0.12065,0 -0.254,-0.0381 -0.34925,-0.0889 -0.19685,-0.12065 -0.2921,-0.3556 -0.2921,-0.7239 v -1.4097 c 0,-0.32385 0.0063,-0.53975 0.04445,-0.8255 h -0.92075 c 0.03175,0.23495 0.0508,0.47625 0.0508,0.8255 v 1.60655 c 0,0.5207 0.1651,0.8763 0.51435,1.09855 0.20955,0.127 0.43815,0.18415 0.762,0.18415 0.60325,0 0.9525,-0.18415 1.30175,-0.67945 -0.0064,0.15875 -0.0064,0.1778 -0.0064,0.27305 v 0.33655 h 0.8636 c -0.0381,-0.26035 -0.0508,-0.47625 -0.0508,-0.8255 v -1.9939 c 0,-0.3556 0.0063,-0.55245 0.0508,-0.8255 z"
         style="font-style:normal;font-variant:normal;font-weight:600;font-stretch:normal;font-size:6.35px;font-family:'Hiragino Kaku Gothic Pro';-inkscape-font-specification:'Hiragino Kaku Gothic Pro, Semi-Bold';font-variant-ligatures:normal;font-variant-caps:normal;font-variant-numeric:normal;font-variant-east-asian:normal;fill:#502d16;fill-opacity:1;stroke-width:0.264583"
         id="path1252" />
      <path
         d="m 36.97394,193.10495 v -0.31115 c 0,-0.0762 0,-0.14605 -0.0063,-0.2286 0.3175,0.4445 0.67945,0.62865 1.26365,0.62865 0.51435,0 0.92075,-0.1524 1.2192,-0.4572 0.3429,-0.3556 0.5207,-0.8636 0.5207,-1.4859 0,-1.1811 -0.62865,-1.87325 -1.69545,-1.87325 -0.5842,0 -0.9779,0.19685 -1.3081,0.64135 0.0063,-0.2159 0.0127,-0.37465 0.0127,-0.47625 v -0.635 c 0,-0.381 0.0127,-0.59055 0.04445,-0.85725 h -0.89535 c 0.03175,0.3048 0.04445,0.52705 0.04445,0.8509 v 3.34645 c 0,0.37465 -0.0127,0.57785 -0.04445,0.85725 z m 2.1717,-1.8542 c 0,0.76835 -0.41275,1.26365 -1.0541,1.26365 -0.23495,0 -0.4826,-0.0889 -0.66675,-0.23495 -0.254,-0.2032 -0.4191,-0.60325 -0.4191,-1.0033 0,-0.3302 0.12065,-0.6731 0.31115,-0.88265 0.20955,-0.2286 0.508,-0.34925 0.8636,-0.34925 0.5842,0 0.9652,0.47625 0.9652,1.2065 z"
         style="font-style:normal;font-variant:normal;font-weight:600;font-stretch:normal;font-size:6.35px;font-family:'Hiragino Kaku Gothic Pro';-inkscape-font-specification:'Hiragino Kaku Gothic Pro, Semi-Bold';font-variant-ligatures:normal;font-variant-caps:normal;font-variant-numeric:normal;font-variant-east-asian:normal;fill:#502d16;fill-opacity:1;stroke-width:0.264583"
         id="path1254" />
      <path
         d="m 44.102311,191.49205 c -0.0127,-0.14605 -0.0127,-0.1651 -0.0127,-0.1778 -0.01905,-0.4318 -0.0635,-0.6604 -0.18415,-0.9652 -0.254,-0.635 -0.8382,-1.0033 -1.58115,-1.0033 -1.08585,0 -1.7907,0.76835 -1.7907,1.9431 0,1.18745 0.7112,1.93675 1.83515,1.93675 0.5334,0 0.9779,-0.1651 1.3081,-0.48895 0.15875,-0.15875 0.2413,-0.2794 0.38735,-0.5842 l -0.7493,-0.2413 c -0.0635,0.17145 -0.10795,0.2413 -0.18415,0.3302 -0.18415,0.2032 -0.45085,0.3175 -0.762,0.3175 -0.32385,0 -0.6096,-0.127 -0.79375,-0.3556 -0.14605,-0.18415 -0.2032,-0.36195 -0.23495,-0.7112 z m -2.7432,-0.62865 c 0.09525,-0.5334 0.4572,-0.8636 0.9525,-0.8636 0.29845,0 0.51435,0.0825 0.6858,0.254 0.15875,0.15875 0.23495,0.3302 0.2794,0.6096 z"
         style="font-style:normal;font-variant:normal;font-weight:600;font-stretch:normal;font-size:6.35px;font-family:'Hiragino Kaku Gothic Pro';-inkscape-font-specification:'Hiragino Kaku Gothic Pro, Semi-Bold';font-variant-ligatures:normal;font-variant-caps:normal;font-variant-numeric:normal;font-variant-east-asian:normal;fill:#502d16;fill-opacity:1;stroke-width:0.264583"
         id="path1256" />
      <path
         d="m 46.849975,192.0699 c 0.0762,0.28575 0.13335,0.41275 0.24765,0.56515 0.27305,0.3683 0.762,0.56515 1.41605,0.56515 0.57785,0 1.02235,-0.1397 1.31445,-0.41275 0.1905,-0.1778 0.31115,-0.4572 0.31115,-0.71755 0,-0.34925 -0.12065,-0.6096 -0.3683,-0.7874 -0.20955,-0.15875 -0.4699,-0.24765 -1.1176,-0.38735 -0.36195,-0.0825 -0.4953,-0.12065 -0.635,-0.1905 -0.127,-0.0698 -0.19685,-0.1778 -0.19685,-0.29845 0,-0.2667 0.2667,-0.4445 0.6604,-0.4445 0.41275,0 0.62865,0.1524 0.6985,0.50165 l 0.8382,-0.10795 c -0.0889,-0.31115 -0.1778,-0.4699 -0.3429,-0.62865 -0.26035,-0.2413 -0.6731,-0.3683 -1.1938,-0.3683 -0.57785,0 -1.00965,0.1651 -1.27,0.4953 -0.127,0.15875 -0.19685,0.3683 -0.19685,0.59055 0,0.3683 0.19685,0.6731 0.5588,0.84455 0.2159,0.1016 0.41275,0.1651 0.9144,0.27305 0.508,0.1143 0.5461,0.12065 0.66675,0.2032 0.1016,0.0699 0.1651,0.1905 0.1651,0.3175 0,0.29845 -0.2921,0.4826 -0.762,0.4826 -0.4953,0 -0.73025,-0.17145 -0.8382,-0.60325 z"
         style="font-style:normal;font-variant:normal;font-weight:600;font-stretch:normal;font-size:6.35px;font-family:'Hiragino Kaku Gothic Pro';-inkscape-font-specification:'Hiragino Kaku Gothic Pro, Semi-Bold';font-variant-ligatures:normal;font-variant-caps:normal;font-variant-numeric:normal;font-variant-east-asian:normal;fill:#502d16;fill-opacity:1;stroke-width:0.264583"
         id="path1258" />
      <path
         d="m 50.864762,188.05035 c 0.03175,0.254 0.04445,0.45085 0.04445,0.83185 v 3.39725 c 0,0.36195 -0.0127,0.55245 -0.0508,0.8255 h 0.9144 c -0.0381,-0.27305 -0.0508,-0.51435 -0.0508,-0.8255 v -1.2827 c 0.28575,-0.635 0.65405,-0.9398 1.1303,-0.9398 0.17145,0 0.32385,0.0635 0.43815,0.18415 0.12065,0.127 0.18415,0.33655 0.18415,0.62865 v 1.4097 c 0,0.32385 -0.0127,0.53975 -0.04445,0.8255 h 0.92075 c -0.0381,-0.23495 -0.0508,-0.47625 -0.0508,-0.8255 v -1.6002 c 0,-0.81915 -0.46355,-1.2827 -1.27635,-1.2827 -0.57785,0 -0.92075,0.1778 -1.31445,0.6731 0.0127,-0.15875 0.0127,-0.1905 0.0127,-0.27305 v -0.90805 c 0,-0.36195 0.0127,-0.5969 0.04445,-0.8382 z"
         style="font-style:normal;font-variant:normal;font-weight:600;font-stretch:normal;font-size:6.35px;font-family:'Hiragino Kaku Gothic Pro';-inkscape-font-specification:'Hiragino Kaku Gothic Pro, Semi-Bold';font-variant-ligatures:normal;font-variant-caps:normal;font-variant-numeric:normal;font-variant-east-asian:normal;fill:#502d16;fill-opacity:1;stroke-width:0.264583"
         id="path1260" />
      <path
         d="m 57.629597,193.10495 h 0.85725 c -0.0381,-0.28575 -0.0508,-0.4572 -0.0508,-0.79375 v -1.70815 c 0,-0.4318 -0.08255,-0.6731 -0.29845,-0.8763 -0.27305,-0.2667 -0.64135,-0.37465 -1.25095,-0.37465 -0.5461,0 -0.9017,0.0952 -1.21285,0.32385 -0.2413,0.17145 -0.3556,0.33655 -0.50165,0.70485 l 0.8128,0.14605 c 0.0762,-0.2286 0.13335,-0.3175 0.254,-0.4064 0.14605,-0.1143 0.4064,-0.18415 0.6604,-0.18415 0.4826,0 0.73025,0.1905 0.73025,0.5588 v 0.32385 c -0.90805,0.019 -1.37795,0.0825 -1.7907,0.254 -0.43815,0.18415 -0.71755,0.5842 -0.71755,1.0287 0,0.66675 0.4699,1.0668 1.2446,1.0668 0.2032,0 0.4064,-0.0254 0.59055,-0.0762 0.26035,-0.0699 0.4191,-0.15875 0.6731,-0.40005 z m 0,-1.41605 c 0,0.22225 -0.0762,0.4064 -0.2286,0.5588 -0.2159,0.20955 -0.5461,0.33655 -0.88265,0.33655 -0.3556,0 -0.57785,-0.18415 -0.57785,-0.4826 0,-0.4953 0.47625,-0.70485 1.6891,-0.73025 z"
         style="font-style:normal;font-variant:normal;font-weight:600;font-stretch:normal;font-size:6.35px;font-family:'Hiragino Kaku Gothic Pro';-inkscape-font-specification:'Hiragino Kaku Gothic Pro, Semi-Bold';font-variant-ligatures:normal;font-variant-caps:normal;font-variant-numeric:normal;font-variant-east-asian:normal;fill:#502d16;fill-opacity:1;stroke-width:0.264583"
         id="path1262" />
      <path
         d="m 60.171283,189.46005 h -0.84455 c 0.03175,0.27305 0.04445,0.4826 0.04445,0.8509 v 3.19405 c 0,0.32385 -0.0127,0.53975 -0.04445,0.8382 h 0.89535 c -0.03175,-0.2667 -0.04445,-0.4699 -0.04445,-0.84455 v -0.4826 c 0,-0.1143 0,-0.2286 -0.0063,-0.27305 -0.0064,-0.127 -0.0064,-0.127 -0.0064,-0.2032 0.3048,0.41275 0.7239,0.6096 1.2827,0.6096 1.0795,0 1.72085,-0.70485 1.72085,-1.87325 0,-0.64135 -0.1651,-1.1176 -0.50165,-1.4605 -0.2921,-0.2921 -0.6985,-0.4445 -1.2065,-0.4445 -0.5715,0 -0.94615,0.1778 -1.2954,0.6223 0.0064,-0.0825 0.0064,-0.1524 0.0064,-0.22225 z m 2.1717,1.8034 c 0,0.7493 -0.38735,1.2192 -1.00965,1.2192 -0.6604,0 -1.1303,-0.508 -1.1303,-1.2319 0,-0.67945 0.47625,-1.20015 1.1049,-1.20015 0.64135,0 1.03505,0.46355 1.03505,1.21285 z"
         style="font-style:normal;font-variant:normal;font-weight:600;font-stretch:normal;font-size:6.35px;font-family:'Hiragino Kaku Gothic Pro';-inkscape-font-specification:'Hiragino Kaku Gothic Pro, Semi-Bold';font-variant-ligatures:normal;font-variant-caps:normal;font-variant-numeric:normal;font-variant-east-asian:normal;fill:#502d16;fill-opacity:1;stroke-width:0.264583"
         id="path1264" />
      <path
         d="m 67.324458,191.49205 c -0.0127,-0.14605 -0.0127,-0.1651 -0.0127,-0.1778 -0.01905,-0.4318 -0.0635,-0.6604 -0.18415,-0.9652 -0.254,-0.635 -0.8382,-1.0033 -1.58115,-1.0033 -1.08585,0 -1.7907,0.76835 -1.7907,1.9431 0,1.18745 0.7112,1.93675 1.83515,1.93675 0.5334,0 0.9779,-0.1651 1.3081,-0.48895 0.15875,-0.15875 0.2413,-0.2794 0.38735,-0.5842 l -0.7493,-0.2413 c -0.0635,0.17145 -0.10795,0.2413 -0.18415,0.3302 -0.18415,0.2032 -0.45085,0.3175 -0.762,0.3175 -0.32385,0 -0.6096,-0.127 -0.79375,-0.3556 -0.14605,-0.18415 -0.2032,-0.36195 -0.23495,-0.7112 z m -2.7432,-0.62865 c 0.09525,-0.5334 0.4572,-0.8636 0.9525,-0.8636 0.29845,0 0.51435,0.0825 0.6858,0.254 0.15875,0.15875 0.23495,0.3302 0.2794,0.6096 z"
         style="font-style:normal;font-variant:normal;font-weight:600;font-stretch:normal;font-size:6.35px;font-family:'Hiragino Kaku Gothic Pro';-inkscape-font-specification:'Hiragino Kaku Gothic Pro, Semi-Bold';font-variant-ligatures:normal;font-variant-caps:normal;font-variant-numeric:normal;font-variant-east-asian:normal;fill:#502d16;fill-opacity:1;stroke-width:0.264583"
         id="path1266" />
      <path
         d="m 70.881847,193.10495 h 0.84455 c -0.03175,-0.2794 -0.04445,-0.4826 -0.04445,-0.85725 v -3.34645 c 0,-0.32385 0.0127,-0.5461 0.04445,-0.8509 h -0.89535 c 0.03175,0.2667 0.04445,0.47625 0.04445,0.85725 v 0.635 c 0,0.10795 0,0.2286 0.0063,0.27305 0.0064,0.127 0.0064,0.127 0.0064,0.2032 -0.1397,-0.18415 -0.20955,-0.26035 -0.32385,-0.34925 -0.24765,-0.19685 -0.5715,-0.2921 -0.9652,-0.2921 -1.04775,0 -1.7145,0.7366 -1.7145,1.89865 0,0.6858 0.23495,1.26365 0.6604,1.59385 0.2794,0.22225 0.61595,0.32385 1.06045,0.32385 0.61595,0 0.9525,-0.1651 1.2827,-0.62865 -0.0064,0.0825 -0.0064,0.1524 -0.0064,0.2286 z m -2.1717,-1.82245 c 0,-0.75565 0.3937,-1.23825 1.00965,-1.23825 0.3048,0 0.62865,0.1397 0.8255,0.3556 0.18415,0.2032 0.3048,0.5334 0.3048,0.84455 0,0.3302 -0.0889,0.64135 -0.24765,0.8509 -0.1905,0.26035 -0.51435,0.4191 -0.8509,0.4191 -0.635,0 -1.0414,-0.47625 -1.0414,-1.2319 z"
         style="font-style:normal;font-variant:normal;font-weight:600;font-stretch:normal;font-size:6.35px;font-family:'Hiragino Kaku Gothic Pro';-inkscape-font-specification:'Hiragino Kaku Gothic Pro, Semi-Bold';font-variant-ligatures:normal;font-variant-caps:normal;font-variant-numeric:normal;font-variant-east-asian:normal;fill:#502d16;fill-opacity:1;stroke-width:0.264583"
         id="path1268" />
      <path
         d="m 74.641147,192.0699 c 0.0762,0.28575 0.13335,0.41275 0.24765,0.56515 0.27305,0.3683 0.762,0.56515 1.41605,0.56515 0.57785,0 1.02235,-0.1397 1.31445,-0.41275 0.1905,-0.1778 0.31115,-0.4572 0.31115,-0.71755 0,-0.34925 -0.12065,-0.6096 -0.3683,-0.7874 -0.20955,-0.15875 -0.4699,-0.24765 -1.1176,-0.38735 -0.36195,-0.0825 -0.4953,-0.12065 -0.635,-0.1905 -0.127,-0.0698 -0.19685,-0.1778 -0.19685,-0.29845 0,-0.2667 0.2667,-0.4445 0.6604,-0.4445 0.41275,0 0.62865,0.1524 0.6985,0.50165 l 0.8382,-0.10795 c -0.0889,-0.31115 -0.1778,-0.4699 -0.3429,-0.62865 -0.26035,-0.2413 -0.6731,-0.3683 -1.1938,-0.3683 -0.57785,0 -1.00965,0.1651 -1.27,0.4953 -0.127,0.15875 -0.19685,0.3683 -0.19685,0.59055 0,0.3683 0.19685,0.6731 0.5588,0.84455 0.2159,0.1016 0.41275,0.1651 0.9144,0.27305 0.508,0.1143 0.5461,0.12065 0.66675,0.2032 0.1016,0.0699 0.1651,0.1905 0.1651,0.3175 0,0.29845 -0.2921,0.4826 -0.762,0.4826 -0.4953,0 -0.73025,-0.17145 -0.8382,-0.60325 z"
         style="font-style:normal;font-variant:normal;font-weight:600;font-stretch:normal;font-size:6.35px;font-family:'Hiragino Kaku Gothic Pro';-inkscape-font-specification:'Hiragino Kaku Gothic Pro, Semi-Bold';font-variant-ligatures:normal;font-variant-caps:normal;font-variant-numeric:normal;font-variant-east-asian:normal;fill:#502d16;fill-opacity:1;stroke-width:0.264583"
         id="path1270" />
      <path
         d="m 78.655936,188.05035 c 0.03175,0.254 0.04445,0.45085 0.04445,0.83185 v 3.39725 c 0,0.36195 -0.0127,0.55245 -0.0508,0.8255 h 0.9144 c -0.0381,-0.27305 -0.0508,-0.51435 -0.0508,-0.8255 v -1.2827 c 0.28575,-0.635 0.65405,-0.9398 1.1303,-0.9398 0.17145,0 0.32385,0.0635 0.43815,0.18415 0.12065,0.127 0.18415,0.33655 0.18415,0.62865 v 1.4097 c 0,0.32385 -0.0127,0.53975 -0.04445,0.8255 h 0.92075 c -0.0381,-0.23495 -0.0508,-0.47625 -0.0508,-0.8255 v -1.6002 c 0,-0.81915 -0.46355,-1.2827 -1.27635,-1.2827 -0.57785,0 -0.92075,0.1778 -1.31445,0.6731 0.0127,-0.15875 0.0127,-0.1905 0.0127,-0.27305 v -0.90805 c 0,-0.36195 0.0127,-0.5969 0.04445,-0.8382 z"
         style="font-style:normal;font-variant:normal;font-weight:600;font-stretch:normal;font-size:6.35px;font-family:'Hiragino Kaku Gothic Pro';-inkscape-font-specification:'Hiragino Kaku Gothic Pro, Semi-Bold';font-variant-ligatures:normal;font-variant-caps:normal;font-variant-numeric:normal;font-variant-east-asian:normal;fill:#502d16;fill-opacity:1;stroke-width:0.264583"
         id="path1272" />
      <path
         d="m 85.668417,189.46005 c -0.28575,-0.0508 -0.43815,-0.0699 -0.59055,-0.0699 -0.5715,0 -0.9652,0.2159 -1.1938,0.66675 V 189.46 h -0.8636 c 0.0381,0.26035 0.04445,0.43815 0.04445,0.8255 v 1.9939 c 0,0.3302 -0.0127,0.51435 -0.04445,0.8255 h 0.90805 c -0.03175,-0.29845 -0.04445,-0.4826 -0.04445,-0.8255 v -1.17475 c 0.0381,-0.3048 0.1016,-0.45085 0.26035,-0.635 0.1778,-0.20955 0.4191,-0.31115 0.7366,-0.31115 0.1651,0 0.29845,0.0254 0.56515,0.1016 z"
         style="font-style:normal;font-variant:normal;font-weight:600;font-stretch:normal;font-size:6.35px;font-family:'Hiragino Kaku Gothic Pro';-inkscape-font-specification:'Hiragino Kaku Gothic Pro, Semi-Bold';font-variant-ligatures:normal;font-variant-caps:normal;font-variant-numeric:normal;font-variant-east-asian:normal;fill:#502d16;fill-opacity:1;stroke-width:0.264583"
         id="path1274" />
      <path
         d="m 86.212532,188.05035 v 0.80645 h 0.93345 v -0.80645 z m 0,1.4097 c 0.0381,0.26035 0.0508,0.47625 0.0508,0.8255 v 1.9939 c 0,0.3175 -0.0127,0.53975 -0.0508,0.8255 h 0.9271 c -0.03175,-0.2667 -0.04445,-0.4826 -0.04445,-0.83185 v -1.9812 c 0,-0.38735 0.0127,-0.5969 0.04445,-0.83185 z"
         style="font-style:normal;font-variant:normal;font-weight:600;font-stretch:normal;font-size:6.35px;font-family:'Hiragino Kaku Gothic Pro';-inkscape-font-specification:'Hiragino Kaku Gothic Pro, Semi-Bold';font-variant-ligatures:normal;font-variant-caps:normal;font-variant-numeric:normal;font-variant-east-asian:normal;fill:#502d16;fill-opacity:1;stroke-width:0.264583"
         id="path1276" />
      <path
         d="m 88.911185,193.10495 c -0.03175,-0.2921 -0.04445,-0.4826 -0.04445,-0.8255 v -1.2573 c 0.06985,-0.3048 0.13335,-0.45085 0.27305,-0.635 0.17145,-0.22225 0.38735,-0.3302 0.65405,-0.3302 0.41275,0 0.61595,0.2667 0.61595,0.8001 v 1.4224 c 0,0.36195 -0.0127,0.5588 -0.0508,0.8255 h 0.9144 c -0.03175,-0.26035 -0.04445,-0.47625 -0.04445,-0.8255 v -1.2573 c 0.0762,-0.3937 0.1778,-0.5969 0.40005,-0.7874 0.1524,-0.13335 0.31115,-0.1905 0.5207,-0.1905 0.42545,0 0.6223,0.254 0.6223,0.8128 v 1.4224 c 0,0.37465 -0.0127,0.56515 -0.0508,0.8255 h 0.9271 c -0.0381,-0.26035 -0.0508,-0.4699 -0.0508,-0.8255 V 190.711 c 0,-0.45085 -0.0889,-0.7366 -0.29845,-0.9652 -0.2159,-0.23495 -0.5461,-0.36195 -0.9525,-0.36195 -0.28575,0 -0.50165,0.0508 -0.7112,0.1651 -0.19685,0.1016 -0.3175,0.2159 -0.5334,0.50165 -0.0762,-0.19685 -0.127,-0.2794 -0.2413,-0.381 -0.19685,-0.1905 -0.47625,-0.28575 -0.81915,-0.28575 -0.52705,0 -0.99695,0.24765 -1.1811,0.635 0.0064,-0.1016 0.0064,-0.19685 0.0064,-0.23495 v -0.32385 h -0.8509 c 0.03175,0.2413 0.04445,0.42545 0.04445,0.8255 v 1.9939 c 0,0.3429 -0.0127,0.55245 -0.04445,0.8255 z"
         style="font-style:normal;font-variant:normal;font-weight:600;font-stretch:normal;font-size:6.35px;font-family:'Hiragino Kaku Gothic Pro';-inkscape-font-specification:'Hiragino Kaku Gothic Pro, Semi-Bold';font-variant-ligatures:normal;font-variant-caps:normal;font-variant-numeric:normal;font-variant-east-asian:normal;fill:#502d16;fill-opacity:1;stroke-width:0.264583"
         id="path1278" />
      <path
         d="m 95.351772,189.46005 h -0.84455 c 0.03175,0.27305 0.04445,0.4826 0.04445,0.8509 v 3.19405 c 0,0.32385 -0.0127,0.53975 -0.04445,0.8382 h 0.89535 c -0.03175,-0.2667 -0.04445,-0.4699 -0.04445,-0.84455 v -0.4826 c 0,-0.1143 0,-0.2286 -0.0063,-0.27305 -0.0063,-0.127 -0.0063,-0.127 -0.0063,-0.2032 0.3048,0.41275 0.7239,0.6096 1.2827,0.6096 1.0795,0 1.72085,-0.70485 1.72085,-1.87325 0,-0.64135 -0.1651,-1.1176 -0.50165,-1.4605 -0.2921,-0.2921 -0.6985,-0.4445 -1.2065,-0.4445 -0.5715,0 -0.94615,0.1778 -1.2954,0.6223 0.0063,-0.0825 0.0063,-0.1524 0.0063,-0.22225 z m 2.1717,1.8034 c 0,0.7493 -0.38735,1.2192 -1.00965,1.2192 -0.6604,0 -1.1303,-0.508 -1.1303,-1.2319 0,-0.67945 0.47625,-1.20015 1.1049,-1.20015 0.64135,0 1.03505,0.46355 1.03505,1.21285 z"
         style="font-style:normal;font-variant:normal;font-weight:600;font-stretch:normal;font-size:6.35px;font-family:'Hiragino Kaku Gothic Pro';-inkscape-font-specification:'Hiragino Kaku Gothic Pro, Semi-Bold';font-variant-ligatures:normal;font-variant-caps:normal;font-variant-numeric:normal;font-variant-east-asian:normal;fill:#502d16;fill-opacity:1;stroke-width:0.264583"
         id="path1280" />
      <path
         d="m 102.13337,189.46005 h -0.84455 c 0.0318,0.27305 0.0444,0.4826 0.0444,0.8509 v 3.19405 c 0,0.32385 -0.0127,0.53975 -0.0444,0.8382 h 0.89535 c -0.0317,-0.2667 -0.0444,-0.4699 -0.0444,-0.84455 v -0.4826 c 0,-0.1143 0,-0.2286 -0.006,-0.27305 -0.006,-0.127 -0.006,-0.127 -0.006,-0.2032 0.3048,0.41275 0.7239,0.6096 1.2827,0.6096 1.0795,0 1.72085,-0.70485 1.72085,-1.87325 0,-0.64135 -0.1651,-1.1176 -0.50165,-1.4605 -0.2921,-0.2921 -0.6985,-0.4445 -1.2065,-0.4445 -0.5715,0 -0.94615,0.1778 -1.2954,0.6223 0.006,-0.0825 0.006,-0.1524 0.006,-0.22225 z m 2.1717,1.8034 c 0,0.7493 -0.38735,1.2192 -1.00965,1.2192 -0.6604,0 -1.1303,-0.508 -1.1303,-1.2319 0,-0.67945 0.47625,-1.20015 1.1049,-1.20015 0.64135,0 1.03505,0.46355 1.03505,1.21285 z"
         style="font-style:normal;font-variant:normal;font-weight:600;font-stretch:normal;font-size:6.35px;font-family:'Hiragino Kaku Gothic Pro';-inkscape-font-specification:'Hiragino Kaku Gothic Pro, Semi-Bold';font-variant-ligatures:normal;font-variant-caps:normal;font-variant-numeric:normal;font-variant-east-asian:normal;fill:#502d16;fill-opacity:1;stroke-width:0.264583"
         id="path1282" />
      <path
         d="m 108.28325,193.10495 h 0.85725 c -0.0381,-0.28575 -0.0508,-0.4572 -0.0508,-0.79375 v -1.70815 c 0,-0.4318 -0.0825,-0.6731 -0.29845,-0.8763 -0.27305,-0.2667 -0.64135,-0.37465 -1.25095,-0.37465 -0.5461,0 -0.9017,0.0952 -1.21285,0.32385 -0.2413,0.17145 -0.3556,0.33655 -0.50165,0.70485 l 0.8128,0.14605 c 0.0762,-0.2286 0.13335,-0.3175 0.254,-0.4064 0.14605,-0.1143 0.4064,-0.18415 0.6604,-0.18415 0.4826,0 0.73025,0.1905 0.73025,0.5588 v 0.32385 c -0.90805,0.019 -1.37795,0.0825 -1.7907,0.254 -0.43815,0.18415 -0.71755,0.5842 -0.71755,1.0287 0,0.66675 0.4699,1.0668 1.2446,1.0668 0.2032,0 0.4064,-0.0254 0.59055,-0.0762 0.26035,-0.0699 0.4191,-0.15875 0.6731,-0.40005 z m 0,-1.41605 c 0,0.22225 -0.0762,0.4064 -0.2286,0.5588 -0.2159,0.20955 -0.5461,0.33655 -0.88265,0.33655 -0.3556,0 -0.57785,-0.18415 -0.57785,-0.4826 0,-0.4953 0.47625,-0.70485 1.6891,-0.73025 z"
         style="font-style:normal;font-variant:normal;font-weight:600;font-stretch:normal;font-size:6.35px;font-family:'Hiragino Kaku Gothic Pro';-inkscape-font-specification:'Hiragino Kaku Gothic Pro, Semi-Bold';font-variant-ligatures:normal;font-variant-caps:normal;font-variant-numeric:normal;font-variant-east-asian:normal;fill:#502d16;fill-opacity:1;stroke-width:0.264583"
         id="path1284" />
      <path
         d="m 109.82163,192.0699 c 0.0762,0.28575 0.13335,0.41275 0.24765,0.56515 0.27305,0.3683 0.762,0.56515 1.41605,0.56515 0.57785,0 1.02235,-0.1397 1.31445,-0.41275 0.1905,-0.1778 0.31115,-0.4572 0.31115,-0.71755 0,-0.34925 -0.12065,-0.6096 -0.3683,-0.7874 -0.20955,-0.15875 -0.4699,-0.24765 -1.1176,-0.38735 -0.36195,-0.0825 -0.4953,-0.12065 -0.635,-0.1905 -0.127,-0.0698 -0.19685,-0.1778 -0.19685,-0.29845 0,-0.2667 0.2667,-0.4445 0.6604,-0.4445 0.41275,0 0.62865,0.1524 0.6985,0.50165 l 0.8382,-0.10795 c -0.0889,-0.31115 -0.1778,-0.4699 -0.3429,-0.62865 -0.26035,-0.2413 -0.6731,-0.3683 -1.1938,-0.3683 -0.57785,0 -1.00965,0.1651 -1.27,0.4953 -0.127,0.15875 -0.19685,0.3683 -0.19685,0.59055 0,0.3683 0.19685,0.6731 0.5588,0.84455 0.2159,0.1016 0.41275,0.1651 0.9144,0.27305 0.508,0.1143 0.5461,0.12065 0.66675,0.2032 0.1016,0.0699 0.1651,0.1905 0.1651,0.3175 0,0.29845 -0.2921,0.4826 -0.762,0.4826 -0.4953,0 -0.73025,-0.17145 -0.8382,-0.60325 z"
         style="font-style:normal;font-variant:normal;font-weight:600;font-stretch:normal;font-size:6.35px;font-family:'Hiragino Kaku Gothic Pro';-inkscape-font-specification:'Hiragino Kaku Gothic Pro, Semi-Bold';font-variant-ligatures:normal;font-variant-caps:normal;font-variant-numeric:normal;font-variant-east-asian:normal;fill:#502d16;fill-opacity:1;stroke-width:0.264583"
         id="path1286" />
      <path
         d="m 114.25552,188.48215 c 0.0254,0.2286 0.0444,0.508 0.0444,0.78105 v 0.19685 h -0.23495 c -0.2667,0 -0.38735,-0.006 -0.5715,-0.0381 v 0.7493 c 0.20955,-0.0317 0.3302,-0.0381 0.56515,-0.0381 h 0.2413 v 2.1336 c 0,0.66675 0.2921,0.9271 1.02235,0.9271 0.3302,0 0.5207,-0.0317 0.79375,-0.13335 l -0.1143,-0.6731 c -0.19685,0.10795 -0.29845,0.1397 -0.46355,0.1397 -0.3048,0 -0.4191,-0.1143 -0.4191,-0.42545 v -1.9685 h 0.28575 c 0.2921,0 0.41275,0.006 0.6223,0.0381 v -0.7493 c -0.2032,0.0317 -0.3429,0.0381 -0.64135,0.0381 h -0.2667 v -0.19685 c 0,-0.28575 0.0191,-0.5588 0.0445,-0.78105 z"
         style="font-style:normal;font-variant:normal;font-weight:600;font-stretch:normal;font-size:6.35px;font-family:'Hiragino Kaku Gothic Pro';-inkscape-font-specification:'Hiragino Kaku Gothic Pro, Semi-Bold';font-variant-ligatures:normal;font-variant-caps:normal;font-variant-numeric:normal;font-variant-east-asian:normal;fill:#502d16;fill-opacity:1;stroke-width:0.264583"
         id="path1288" />
      <path
         d="m 120.07907,191.49205 c -0.0127,-0.14605 -0.0127,-0.1651 -0.0127,-0.1778 -0.0191,-0.4318 -0.0635,-0.6604 -0.18415,-0.9652 -0.254,-0.635 -0.8382,-1.0033 -1.58115,-1.0033 -1.08585,0 -1.7907,0.76835 -1.7907,1.9431 0,1.18745 0.7112,1.93675 1.83515,1.93675 0.5334,0 0.9779,-0.1651 1.3081,-0.48895 0.15875,-0.15875 0.2413,-0.2794 0.38735,-0.5842 l -0.7493,-0.2413 c -0.0635,0.17145 -0.10795,0.2413 -0.18415,0.3302 -0.18415,0.2032 -0.45085,0.3175 -0.762,0.3175 -0.32385,0 -0.6096,-0.127 -0.79375,-0.3556 -0.14605,-0.18415 -0.2032,-0.36195 -0.23495,-0.7112 z m -2.7432,-0.62865 c 0.0953,-0.5334 0.4572,-0.8636 0.9525,-0.8636 0.29845,0 0.51435,0.0825 0.6858,0.254 0.15875,0.15875 0.23495,0.3302 0.2794,0.6096 z"
         style="font-style:normal;font-variant:normal;font-weight:600;font-stretch:normal;font-size:6.35px;font-family:'Hiragino Kaku Gothic Pro';-inkscape-font-specification:'Hiragino Kaku Gothic Pro, Semi-Bold';font-variant-ligatures:normal;font-variant-caps:normal;font-variant-numeric:normal;font-variant-east-asian:normal;fill:#502d16;fill-opacity:1;stroke-width:0.264583"
         id="path1290" />
      <path
         d="m 126.29384,190.4951 c -0.0889,-0.23495 -0.1397,-0.33655 -0.22225,-0.46355 -0.3048,-0.4445 -0.8001,-0.6858 -1.4224,-0.6858 -0.5207,0 -0.9652,0.1651 -1.27635,0.4826 -0.34925,0.3556 -0.53975,0.86995 -0.53975,1.46685 0,1.17475 0.7239,1.9304 1.8415,1.9304 0.60325,0 1.0922,-0.22225 1.397,-0.64135 0.1143,-0.1524 0.1778,-0.28575 0.2667,-0.53975 l -0.7874,-0.15875 c -0.0381,0.15875 -0.0699,0.2286 -0.127,0.3175 -0.15875,0.2286 -0.41275,0.3556 -0.73025,0.3556 -0.64135,0 -1.03505,-0.48895 -1.03505,-1.2827 0,-0.7874 0.38735,-1.27635 1.00965,-1.27635 0.2794,0 0.50165,0.1016 0.65405,0.2921 0.0825,0.1016 0.127,0.1905 0.19685,0.38735 z"
         style="font-style:normal;font-variant:normal;font-weight:600;font-stretch:normal;font-size:6.35px;font-family:'Hiragino Kaku Gothic Pro';-inkscape-font-specification:'Hiragino Kaku Gothic Pro, Semi-Bold';font-variant-ligatures:normal;font-variant-caps:normal;font-variant-numeric:normal;font-variant-east-asian:normal;fill:#502d16;fill-opacity:1;stroke-width:0.264583"
         id="path1292" />
      <path
         d="m 129.4466,193.10495 h 0.85725 c -0.0381,-0.28575 -0.0508,-0.4572 -0.0508,-0.79375 v -1.70815 c 0,-0.4318 -0.0825,-0.6731 -0.29845,-0.8763 -0.27305,-0.2667 -0.64135,-0.37465 -1.25095,-0.37465 -0.5461,0 -0.9017,0.0952 -1.21285,0.32385 -0.2413,0.17145 -0.3556,0.33655 -0.50165,0.70485 l 0.8128,0.14605 c 0.0762,-0.2286 0.13335,-0.3175 0.254,-0.4064 0.14605,-0.1143 0.4064,-0.18415 0.6604,-0.18415 0.4826,0 0.73025,0.1905 0.73025,0.5588 v 0.32385 c -0.90805,0.019 -1.37795,0.0825 -1.7907,0.254 -0.43815,0.18415 -0.71755,0.5842 -0.71755,1.0287 0,0.66675 0.4699,1.0668 1.2446,1.0668 0.2032,0 0.4064,-0.0254 0.59055,-0.0762 0.26035,-0.0699 0.4191,-0.15875 0.6731,-0.40005 z m 0,-1.41605 c 0,0.22225 -0.0762,0.4064 -0.2286,0.5588 -0.2159,0.20955 -0.5461,0.33655 -0.88265,0.33655 -0.3556,0 -0.57785,-0.18415 -0.57785,-0.4826 0,-0.4953 0.47625,-0.70485 1.6891,-0.73025 z"
         style="font-style:normal;font-variant:normal;font-weight:600;font-stretch:normal;font-size:6.35px;font-family:'Hiragino Kaku Gothic Pro';-inkscape-font-specification:'Hiragino Kaku Gothic Pro, Semi-Bold';font-variant-ligatures:normal;font-variant-caps:normal;font-variant-numeric:normal;font-variant-east-asian:normal;fill:#502d16;fill-opacity:1;stroke-width:0.264583"
         id="path1294" />
      <path
         d="m 131.15644,188.05035 c 0.0317,0.2413 0.0444,0.45085 0.0444,0.83185 v 3.39725 c 0,0.34925 -0.0127,0.56515 -0.0444,0.8255 h 0.89535 c -0.0381,-0.24765 -0.0445,-0.40005 -0.0445,-0.8128 v -0.41275 l 0.5207,-0.4953 0.6858,1.0033 c 0.2667,0.38735 0.3429,0.51435 0.4191,0.71755 h 1.1303 c -0.14605,-0.14605 -0.14605,-0.14605 -0.57785,-0.7366 l -1.07315,-1.46685 0.9017,-0.85725 c 0.27305,-0.26035 0.27305,-0.26035 0.635,-0.5842 h -1.18745 c -0.1016,0.15875 -0.20955,0.28575 -0.50165,0.56515 l -0.9525,0.94615 v -2.08915 c 0,-0.3683 0.0127,-0.59055 0.0445,-0.83185 z"
         style="font-style:normal;font-variant:normal;font-weight:600;font-stretch:normal;font-size:6.35px;font-family:'Hiragino Kaku Gothic Pro';-inkscape-font-specification:'Hiragino Kaku Gothic Pro, Semi-Bold';font-variant-ligatures:normal;font-variant-caps:normal;font-variant-numeric:normal;font-variant-east-asian:normal;fill:#502d16;fill-opacity:1;stroke-width:0.264583"
         id="path1296" />
      <path
         d="m 138.7818,191.49205 c -0.0127,-0.14605 -0.0127,-0.1651 -0.0127,-0.1778 -0.0191,-0.4318 -0.0635,-0.6604 -0.18415,-0.9652 -0.254,-0.635 -0.8382,-1.0033 -1.58115,-1.0033 -1.08585,0 -1.7907,0.76835 -1.7907,1.9431 0,1.18745 0.7112,1.93675 1.83515,1.93675 0.5334,0 0.9779,-0.1651 1.3081,-0.48895 0.15875,-0.15875 0.2413,-0.2794 0.38735,-0.5842 l -0.7493,-0.2413 c -0.0635,0.17145 -0.10795,0.2413 -0.18415,0.3302 -0.18415,0.2032 -0.45085,0.3175 -0.762,0.3175 -0.32385,0 -0.6096,-0.127 -0.79375,-0.3556 -0.14605,-0.18415 -0.2032,-0.36195 -0.23495,-0.7112 z m -2.7432,-0.62865 c 0.0952,-0.5334 0.4572,-0.8636 0.9525,-0.8636 0.29845,0 0.51435,0.0825 0.6858,0.254 0.15875,0.15875 0.23495,0.3302 0.2794,0.6096 z"
         style="font-style:normal;font-variant:normal;font-weight:600;font-stretch:normal;font-size:6.35px;font-family:'Hiragino Kaku Gothic Pro';-inkscape-font-specification:'Hiragino Kaku Gothic Pro, Semi-Bold';font-variant-ligatures:normal;font-variant-caps:normal;font-variant-numeric:normal;font-variant-east-asian:normal;fill:#502d16;fill-opacity:1;stroke-width:0.264583"
         id="path1298" />
    </g>
    <g
       aria-label="Ebi Chikuwa"
       id="text923"
       style="font-style:normal;font-variant:normal;font-weight:600;font-stretch:normal;font-size:16.9333px;line-height:1.25;font-family:'Hiragino Kaku Gothic Pro';-inkscape-font-specification:'Hiragino Kaku Gothic Pro, Semi-Bold';font-variant-ligatures:normal;font-variant-caps:normal;font-variant-numeric:normal;font-variant-east-asian:normal;letter-spacing:0.132292px;fill:#502d16;fill-opacity:1;stroke-width:0.264583">
      <path
         d="m 43.607293,182.36468 c -1.0922,0.127 -1.828799,0.1778 -3.251199,0.1778 h -7.62 v -5.9944 h 6.1976 c 1.5748,0 2.2606,0.0254 3.302,0.1778 v -3.3274 c -1.1176,0.127 -1.9812,0.1778 -3.302,0.1778 h -6.1722 v -5.2324 h 7.3152 c 1.4986,0 2.3114,0.0508 3.276599,0.1778 v -3.3528 c -1.168399,0.127 -2.006599,0.1778 -3.276599,0.1778 h -7.6708 c -1.5494,0 -2.2098,-0.0254 -3.2258,-0.0762 0.1524,1.1938 0.2032,1.9558 0.2032,3.2766 v 13.7414 c 0,1.4986 -0.0508,2.3368 -0.2032,3.3528 1.016,-0.0508 1.7018,-0.0762 3.2258,-0.0762 h 7.9248 c 1.5494,0 2.362199,0.0508 3.276599,0.1778 z"
         style="font-size:25.4px"
         id="path1229" />
      <path
         d="m 49.874875,185.56508 v -1.2446 c 0,-0.3048 0,-0.5842 -0.0254,-0.9144 1.27,1.778 2.7178,2.5146 5.0546,2.5146 2.0574,0 3.683,-0.6096 4.8768,-1.8288 1.3716,-1.4224 2.0828,-3.4544 2.0828,-5.9436 0,-4.7244 -2.5146,-7.493 -6.7818,-7.493 -2.3368,0 -3.9116,0.7874 -5.2324,2.5654 0.0254,-0.8636 0.0508,-1.4986 0.0508,-1.905 v -2.54 c 0,-1.524 0.0508,-2.3622 0.1778,-3.429 h -3.5814 c 0.127,1.2192 0.1778,2.1082 0.1778,3.4036 v 13.3858 c 0,1.4986 -0.0508,2.3114 -0.1778,3.429 z m 8.6868,-7.4168 c 0,3.0734 -1.651,5.0546 -4.2164,5.0546 -0.9398,0 -1.9304,-0.3556 -2.667,-0.9398 -1.016,-0.8128 -1.6764,-2.413 -1.6764,-4.0132 0,-1.3208 0.4826,-2.6924 1.2446,-3.5306 0.8382,-0.9144 2.032,-1.397 3.4544,-1.397 2.3368,0 3.8608,1.905 3.8608,4.826 z"
         style="font-size:25.4px"
         id="path1231" />
      <path
         d="m 64.53795,165.34668 v 3.2258 h 3.7338 v -3.2258 z m 0,5.6388 c 0.1524,1.0414 0.2032,1.905 0.2032,3.302 v 7.9756 c 0,1.27 -0.0508,2.159 -0.2032,3.302 h 3.7084 c -0.127,-1.0668 -0.1778,-1.9304 -0.1778,-3.3274 v -7.9248 c 0,-1.5494 0.0508,-2.3876 0.1778,-3.3274 z"
         style="font-size:25.4px"
         id="path1233" />
      <path
         d="m 83.415872,181.64784 c -0.112889,0.64911 -0.225778,0.94545 -0.465667,1.29822 -0.451555,0.66323 -1.298221,1.04423 -2.285998,1.04423 -1.975554,0 -3.217331,-1.60867 -3.217331,-4.191 0,-2.59644 1.213555,-4.16278 3.217331,-4.16278 0.874888,0 1.580443,0.29634 2.060221,0.87489 0.282222,0.32456 0.409222,0.59267 0.606777,1.21356 l 1.961443,-0.45156 c -0.169333,-0.53622 -0.268111,-0.79022 -0.437444,-1.08655 -0.352778,-0.62089 -0.860777,-1.143 -1.495777,-1.53811 -0.77611,-0.46567 -1.608665,-0.67734 -2.709331,-0.67734 -1.41111,0 -2.681109,0.47978 -3.527775,1.34056 -1.058332,1.05833 -1.650999,2.69522 -1.650999,4.55788 0,1.80622 0.550333,3.40078 1.53811,4.43089 0.860777,0.889 2.088443,1.35467 3.626553,1.35467 1.693332,0 3.047998,-0.55034 3.85233,-1.53811 0.423333,-0.55034 0.677333,-1.10067 0.945444,-2.11667 z"
         style="font-size:14.1111px"
         id="path1235" />
      <path
         d="m 87.047275,174.19718 c 0.07055,0.56445 0.09878,1.00189 0.09878,1.84856 v 7.54943 c 0,0.80434 -0.02822,1.22767 -0.112889,1.83445 h 2.031998 c -0.08467,-0.60678 -0.112889,-1.143 -0.112889,-1.83445 v -2.85044 c 0.635,-1.41111 1.453444,-2.08844 2.511776,-2.08844 0.381,0 0.719666,0.14111 0.973666,0.40922 0.268111,0.28222 0.409222,0.74789 0.409222,1.397 v 3.13266 c 0,0.71967 -0.02822,1.19945 -0.09878,1.83445 h 2.04611 c -0.08467,-0.52211 -0.112889,-1.05833 -0.112889,-1.83445 v -3.55599 c 0,-1.82033 -1.03011,-2.85044 -2.836331,-2.85044 -1.28411,0 -2.04611,0.39511 -2.920998,1.49577 0.02822,-0.35278 0.02822,-0.42333 0.02822,-0.60678 v -2.01788 c 0,-0.80434 0.02822,-1.32645 0.09878,-1.86267 z"
         style="font-size:14.1111px"
         id="path1237" />
      <path
         d="m 96.673915,174.19718 v 1.79211 h 2.074331 v -1.79211 z m 0,3.13267 c 0.08467,0.57855 0.112889,1.05833 0.112889,1.83444 v 4.43088 c 0,0.70556 -0.02822,1.19945 -0.112889,1.83445 h 2.06022 c -0.07055,-0.59267 -0.09878,-1.07245 -0.09878,-1.84856 v -4.40266 c 0,-0.86078 0.02822,-1.32644 0.09878,-1.84855 z"
         style="font-size:14.1111px"
         id="path1239" />
      <path
         d="m 100.66537,174.19718 c 0.0706,0.53622 0.0988,1.00189 0.0988,1.84856 v 7.54943 c 0,0.77612 -0.0282,1.25589 -0.0988,1.83445 h 1.98967 c -0.0847,-0.55034 -0.0988,-0.889 -0.0988,-1.80622 v -0.91722 l 1.15711,-1.10067 1.524,2.22955 c 0.59266,0.86078 0.762,1.143 0.93133,1.59456 h 2.51178 c -0.32456,-0.32456 -0.32456,-0.32456 -1.28411,-1.63689 l -2.38478,-3.25966 2.00378,-1.905 c 0.60677,-0.57856 0.60677,-0.57856 1.41111,-1.29822 h -2.63878 c -0.22578,0.35277 -0.46567,0.635 -1.11478,1.25588 l -2.11666,2.10256 v -4.64255 c 0,-0.81845 0.0282,-1.31234 0.0988,-1.84856 z"
         style="font-size:14.1111px"
         id="path1241" />
      <path
         d="m 115.67561,177.32985 c 0.0706,0.60677 0.11289,1.143 0.11289,1.83444 v 2.85044 c -0.635,1.397 -1.43933,2.08844 -2.45533,2.08844 -0.26811,0 -0.56445,-0.0847 -0.77611,-0.19755 -0.43745,-0.26811 -0.64911,-0.79022 -0.64911,-1.60867 v -3.13266 c 0,-0.71967 0.0141,-1.19944 0.0988,-1.83444 h -2.0461 c 0.0705,0.52211 0.11288,1.05833 0.11288,1.83444 v 3.57011 c 0,1.15711 0.36689,1.94733 1.143,2.44122 0.46567,0.28222 0.97367,0.40922 1.69334,0.40922 1.34055,0 2.11666,-0.40922 2.89277,-1.50989 -0.0141,0.35278 -0.0141,0.39511 -0.0141,0.60678 v 0.74789 h 1.91911 c -0.0847,-0.57856 -0.11289,-1.05833 -0.11289,-1.83445 v -4.43088 c 0,-0.79022 0.0141,-1.22767 0.11289,-1.83444 z"
         style="font-size:14.1111px"
         id="path1243" />
      <path
         d="m 128.09624,185.42962 c 0.0706,-0.39511 0.14112,-0.66322 0.35278,-1.34056 l 1.56633,-5.00944 c 0.36689,-1.17122 0.39512,-1.28411 0.57856,-1.74977 h -2.07433 c -0.0282,0.45155 -0.14111,1.07244 -0.31045,1.67922 l -0.79022,2.82222 c -0.0282,0.0988 -0.127,0.55033 -0.16933,0.74789 -0.0423,0.19755 -0.0423,0.19755 -0.0706,0.31044 -0.0282,-0.127 -0.0423,-0.14111 -0.0847,-0.32456 -0.0847,-0.29633 -0.15523,-0.56444 -0.19756,-0.69144 l -1.04422,-3.20322 c -0.127,-0.40922 -0.31044,-1.07244 -0.35278,-1.34055 h -1.50989 c -0.0423,0.28222 -0.21166,0.93133 -0.35277,1.34055 l -1.016,3.07622 c -0.0564,0.16933 -0.29634,1.00189 -0.32456,1.143 -0.11289,-0.55033 -0.19755,-0.94544 -0.254,-1.12889 l -0.77611,-2.75166 c -0.15522,-0.55034 -0.28222,-1.27 -0.31044,-1.67922 h -2.08844 c 0.19755,0.52211 0.39511,1.10066 0.59266,1.74977 l 1.55222,5.00944 c 0.22578,0.71967 0.28222,0.93134 0.36689,1.34056 h 1.63689 c 0.0564,-0.29634 0.21167,-0.86078 0.36689,-1.34056 l 1.08655,-3.30199 c 0.0423,-0.14112 0.21167,-0.71967 0.28222,-0.97367 0.15523,0.57855 0.23989,0.889 0.26811,0.94544 l 1.08656,3.33022 c 0.16933,0.55034 0.29633,1.00189 0.35278,1.34056 z"
         style="font-size:14.1111px"
         id="path1245" />
      <path
         d="m 137.09891,185.42962 h 1.905 c -0.0847,-0.635 -0.11289,-1.016 -0.11289,-1.76389 v -3.79589 c 0,-0.95955 -0.18345,-1.49577 -0.66322,-1.94733 -0.60678,-0.59266 -1.42523,-0.83255 -2.77989,-0.83255 -1.21356,0 -2.00378,0.21166 -2.69522,0.71966 -0.53622,0.381 -0.79022,0.74789 -1.11478,1.56634 l 1.80622,0.32455 c 0.16934,-0.508 0.29634,-0.70555 0.56445,-0.90311 0.32455,-0.254 0.90311,-0.40922 1.46755,-0.40922 1.07244,0 1.62278,0.42333 1.62278,1.24178 v 0.71966 c -2.01789,0.0423 -3.06211,0.18345 -3.97933,0.56445 -0.97367,0.40922 -1.59456,1.29822 -1.59456,2.28599 0,1.48167 1.04422,2.37067 2.76578,2.37067 0.45155,0 0.90311,-0.0564 1.31233,-0.16933 0.57856,-0.15523 0.93133,-0.35278 1.49578,-0.889 z m 0,-3.14678 c 0,0.49389 -0.16934,0.90311 -0.508,1.24178 -0.47978,0.46567 -1.21356,0.74789 -1.96145,0.74789 -0.79022,0 -1.28411,-0.40922 -1.28411,-1.07245 0,-1.10066 1.05834,-1.56633 3.75356,-1.62277 z"
         style="font-size:14.1111px"
         id="path1247" />
    </g>
  </g>
</svg>
