<?xml version="1.0" encoding="UTF-8" standalone="no"?>
<svg
   xmlns:dc="http://purl.org/dc/elements/1.1/"
   xmlns:cc="http://creativecommons.org/ns#"
   xmlns:rdf="http://www.w3.org/1999/02/22-rdf-syntax-ns#"
   xmlns:svg="http://www.w3.org/2000/svg"
   xmlns="http://www.w3.org/2000/svg"
   xmlns:sodipodi="http://sodipodi.sourceforge.net/DTD/sodipodi-0.dtd"
   xmlns:inkscape="http://www.inkscape.org/namespaces/inkscape"
   width="111.9198mm"
   height="26.258249mm"
   viewBox="0 0 111.91981 26.258249"
   version="1.1"
   id="svg8"
   inkscape:version="1.0.1 (c497b03c, 2020-09-10)"
   sodipodi:docname="start_title.svg">
  <defs
     id="defs2">
    <filter
       inkscape:label="Relief Print"
       inkscape:menu="Bumps"
       inkscape:menu-tooltip="Bumps effect with a bevel, color flood and complex lighting"
       style="color-interpolation-filters:sRGB"
       id="filter993">
      <feGaussianBlur
         stdDeviation="5"
         result="result8"
         id="feGaussianBlur959" />
      <feComposite
         result="result6"
         in="SourceGraphic"
         operator="in"
         in2="result8"
         id="feComposite961" />
      <feComposite
         operator="in"
         result="result11"
         in2="result6"
         id="feComposite963" />
      <feFlood
         result="result10"
         flood-opacity="1"
         flood-color="rgb(255,255,255)"
         id="feFlood965" />
      <feBlend
         mode="multiply"
         in="result10"
         in2="result11"
         result="result12"
         id="feBlend967" />
      <feComposite
         result="fbSourceGraphic"
         operator="in"
         in2="SourceGraphic"
         in="result12"
         id="feComposite969" />
      <feFlood
         result="result6"
         flood-color="rgb(75,101,154)"
         id="feFlood971" />
      <feComposite
         k3="0.3"
         k2="0.3"
         k1="0.5"
         operator="arithmetic"
         result="result2"
         in="fbSourceGraphic"
         in2="result6"
         id="feComposite973"
         k4="0" />
      <feColorMatrix
         result="fbSourceGraphicAlpha"
         in="result2"
         values="1 0 0 -1 0 1 0 1 -1 0 1 0 0 -1 0 -0.8 -1 0 3.9 -2.7 "
         type="matrix"
         id="feColorMatrix975" />
      <feGaussianBlur
         result="result0"
         in="fbSourceGraphicAlpha"
         stdDeviation="0.5"
         id="feGaussianBlur977" />
      <feDiffuseLighting
         lighting-color="#ffffff"
         diffuseConstant="0.69999999"
         surfaceScale="50"
         result="result13"
         in="result0"
         id="feDiffuseLighting981">
        <feDistantLight
           elevation="20"
           azimuth="225"
           id="feDistantLight979" />
      </feDiffuseLighting>
      <feSpecularLighting
         specularExponent="20"
         specularConstant="0.69999999"
         surfaceScale="10"
         lighting-color="#ffffff"
         result="result1"
         in="result0"
         id="feSpecularLighting985">
        <feDistantLight
           elevation="45"
           azimuth="225"
           id="feDistantLight983" />
      </feSpecularLighting>
      <feBlend
         mode="screen"
         result="result5"
         in2="SourceGraphic"
         in="result13"
         id="feBlend987" />
      <feComposite
         in="result1"
         k3="1"
         k2="1"
         operator="arithmetic"
         in2="result5"
         result="result9"
         id="feComposite989"
         k1="0"
         k4="0" />
      <feComposite
         in2="SourceGraphic"
         operator="in"
         id="feComposite991" />
    </filter>
  </defs>
  <sodipodi:namedview
     id="base"
     pagecolor="#ffffff"
     bordercolor="#666666"
     borderopacity="1.0"
     inkscape:pageopacity="0.0"
     inkscape:pageshadow="2"
     inkscape:zoom="1.2422672"
     inkscape:cx="143.42447"
     inkscape:cy="75.426318"
     inkscape:document-units="mm"
     inkscape:current-layer="layer1"
     inkscape:document-rotation="0"
     showgrid="false"
     inkscape:window-width="1440"
     inkscape:window-height="697"
     inkscape:window-x="0"
     inkscape:window-y="25"
     inkscape:window-maximized="0"
     fit-margin-top="0"
     fit-margin-left="0"
     fit-margin-right="0"
     fit-margin-bottom="0" />
  <metadata
     id="metadata5">
    <rdf:RDF>
      <cc:Work
         rdf:about="">
        <dc:format>image/svg+xml</dc:format>
        <dc:type
           rdf:resource="http://purl.org/dc/dcmitype/StillImage" />
        <dc:title></dc:title>
      </cc:Work>
    </rdf:RDF>
  </metadata>
  <g
     inkscape:label="レイヤー 1"
     inkscape:groupmode="layer"
     id="layer1"
     transform="translate(-27.90586,-161.60367)">
    <g
       aria-label="箱飼い"
       id="text1075"
       style="font-style:normal;font-variant:normal;font-weight:600;font-stretch:normal;font-size:5.64444000000000035px;line-height:1.25;font-family:'Hiragino Kaku Gothic Pro';-inkscape-font-specification:'Hiragino Kaku Gothic Pro, Semi-Bold';font-variant-ligatures:normal;font-variant-caps:normal;font-variant-numeric:normal;font-variant-east-asian:normal;fill:#502d16;fill-opacity:1;stroke-width:0.264583"
       transform="translate(1.2779054,2.3362389)">
      <path
         d="m 31.891404,160.67371 c 0.09596,0.18626 0.135466,0.27658 0.191911,0.4572 h -0.524933 c 0.02258,0.12418 0.02822,0.23142 0.02822,0.47413 v 0.12982 h -0.378178 c -0.2032,0 -0.366888,-0.006 -0.491066,-0.0226 v 0.58703 c 0.135467,-0.0169 0.287866,-0.0226 0.491066,-0.0226 h 0.276578 c -0.0508,0.19755 -0.180622,0.47413 -0.338667,0.73942 -0.186266,0.31609 -0.333022,0.48542 -0.615244,0.75071 0.124178,0.14111 0.259645,0.33302 0.344311,0.508 0.3556,-0.40075 0.508,-0.65475 0.728133,-1.17969 -0.01129,0.1524 -0.01129,0.29351 -0.01129,0.43462 v 0.77329 c 0,0.27658 -0.01129,0.43462 -0.03951,0.62089 h 0.637822 c -0.02258,-0.15804 -0.02822,-0.29915 -0.02822,-0.60395 v -0.9144 c 0,-0.14676 -0.0056,-0.27094 -0.01693,-0.43463 0.174978,0.3048 0.316089,0.48543 0.598311,0.76765 0.06773,-0.18627 0.158044,-0.36689 0.265289,-0.53622 -0.338667,-0.24836 -0.649111,-0.60396 -0.8128,-0.92569 h 0.282222 c 0.158045,0 0.293511,0.006 0.428978,0.0226 v -0.58703 c -0.112889,0.0169 -0.214489,0.0226 -0.417689,0.0226 h -0.327377 v -0.12982 c 0,-0.1524 0,-0.21449 0.0056,-0.32173 l 0.491066,-0.18062 c -0.09031,-0.21449 -0.112888,-0.27094 -0.214488,-0.42898 h 0.242711 c 0.191911,0 0.299155,0.006 0.474133,0.0226 v -0.56445 c -0.1524,0.0282 -0.287867,0.0339 -0.553156,0.0339 h -0.739421 c 0.07902,-0.16934 0.135466,-0.27658 0.169333,-0.32738 l -0.603955,-0.18062 c -0.08467,0.29351 -0.158044,0.4572 -0.327378,0.72249 -0.174977,0.27093 -0.304799,0.42333 -0.553155,0.64346 0.186267,0.10725 0.338667,0.22014 0.462844,0.34996 0.254,-0.26529 0.389467,-0.43462 0.570089,-0.69991 z m 2.240842,-0.006 c 0.1016,0.17498 0.186267,0.3556 0.276578,0.60396 l 0.519288,-0.18062 c -0.1016,-0.22578 -0.124177,-0.26529 -0.225777,-0.42334 h 0.417688 c 0.282222,0 0.428978,0.006 0.620889,0.0282 v -0.57009 c -0.186267,0.0282 -0.316089,0.0339 -0.620889,0.0339 H 34.09838 l 0.146755,-0.33866 -0.575733,-0.15805 c -0.06209,0.254 -0.135466,0.43462 -0.276577,0.68862 -0.135467,0.23707 -0.237067,0.36689 -0.451556,0.59832 0.2032,0.10724 0.316089,0.18062 0.4572,0.31608 0.197555,-0.22577 0.299155,-0.36688 0.440266,-0.59831 z m -1.044221,3.56165 c 0,0.24271 -0.01693,0.51364 -0.03387,0.66604 h 0.6096 v -0.22578 h 1.281288 v 0.22578 h 0.615244 c -0.02258,-0.23142 -0.02822,-0.42898 -0.02822,-0.7112 v -2.3368 c 0,-0.27093 0.0056,-0.42898 0.02258,-0.5588 -0.1524,0.0169 -0.293511,0.0226 -0.581377,0.0226 h -1.349021 c -0.242711,0 -0.400756,-0.006 -0.5588,-0.0226 0.01129,0.14676 0.02258,0.29916 0.02258,0.55316 z m 0.575733,-2.40454 h 1.281288 v 0.42898 h -1.281288 z m 0,0.90876 h 1.281288 v 0.46284 h -1.281288 z m 0,0.94262 h 1.281288 v 0.46284 h -1.281288 z"
         style="font-style:normal;font-variant:normal;font-weight:600;font-stretch:normal;font-size:5.64444000000000035px;font-family:'Hiragino Kaku Gothic Pro';-inkscape-font-specification:'Hiragino Kaku Gothic Pro, Semi-Bold';font-variant-ligatures:normal;font-variant-caps:normal;font-variant-numeric:normal;font-variant-east-asian:normal;fill:#502d16;fill-opacity:1;stroke-width:0.264583"
         id="path1100" />
      <path
         d="m 43.504844,164.79979 0.564444,-0.3048 c -0.237067,-0.51364 -0.3048,-0.63782 -0.671689,-1.24742 l -0.502355,0.254 c 0.118533,0.18627 0.1524,0.254 0.237066,0.40076 -0.29351,0.0847 -0.406399,0.11853 -0.69991,0.18626 v -0.89182 h 1.021644 c 0.135466,0 0.186266,0 0.304799,0.0169 -0.01129,-0.13547 -0.01693,-0.27094 -0.01693,-0.43463 v -1.1176 c 0,-0.23706 0.0056,-0.34995 0.02258,-0.48542 -0.118533,0.0169 -0.225778,0.0226 -0.428978,0.0226 h -0.169333 v -0.254 c 0,-0.0959 0.0056,-0.16933 0.02258,-0.25964 h -0.570089 c 0.01693,0.0959 0.02258,0.16369 0.02258,0.254 v 0.25964 h -0.372542 c -0.174977,0 -0.208844,0 -0.265289,-0.006 0.428978,-0.34996 0.654756,-0.59267 0.886178,-0.95391 0.270933,0.34431 0.44591,0.51364 0.824088,0.78457 0.08467,-0.22013 0.135466,-0.29915 0.3048,-0.52493 0.03951,0 0.03951,0 0.519288,-0.0113 h 1.422399 v 3.69711 c 0,0.096 -0.05644,0.12418 -0.248355,0.12418 -0.158045,0 -0.344311,-0.0169 -0.626533,-0.0565 0.09595,0.24271 0.135466,0.38947 0.169333,0.61525 0.180622,0.0113 0.3556,0.0169 0.541866,0.0169 0.598311,0 0.762,-0.11853 0.762,-0.5588 v -3.90031 c 0,-0.19755 0.0056,-0.37253 0.02258,-0.51929 -0.112888,0.0169 -0.248355,0.0226 -0.440266,0.0226 h -1.269999 c -0.564444,0 -0.795866,-0.006 -0.970844,-0.0339 v 0.52493 c -0.304799,-0.18062 -0.558799,-0.42898 -0.733777,-0.69427 h -0.609599 c -0.09031,0.19756 -0.191911,0.34431 -0.372533,0.53622 -0.237067,0.24836 -0.428978,0.40076 -0.739422,0.58138 0.124178,0.19191 0.191911,0.3556 0.242711,0.59267 0.09031,-0.0621 0.146755,-0.10725 0.169333,-0.12418 0.0056,0.0847 0.0056,0.15804 0.0056,0.26529 v 2.61902 c -0.208844,0.0282 -0.259644,0.0339 -0.333022,0.0395 l 0.124178,0.63782 c 0.0508,-0.0226 0.08467,-0.0339 0.124178,-0.0395 0.620888,-0.14676 1.162755,-0.29916 1.569154,-0.44027 z M 42.4324,161.97193 v -0.32173 h 0.75071 v 0.32173 z m 0,0.43462 h 0.75071 v 0.32173 H 42.4324 Z m 3.183464,-0.1524 c 0,-0.21449 0.0056,-0.31044 0.01693,-0.41769 -0.107244,0.0113 -0.186266,0.0169 -0.39511,0.0169 h -0.8128 c -0.208844,0 -0.287866,-0.006 -0.395111,-0.0169 0.01129,0.11854 0.01693,0.24271 0.01693,0.41205 v 1.33773 c 0,0.1524 -0.0056,0.23142 -0.02258,0.39511 h 0.547511 v -0.32738 h 0.722488 c 0.118533,0 0.180622,0 0.333022,0.0113 -0.01129,-0.1016 -0.01129,-0.18627 -0.01129,-0.37253 z m -1.049866,0.10725 h 0.530578 v 0.77328 h -0.530578 z m -0.581377,-0.89183 c 0.146755,-0.0169 0.254,-0.0226 0.519288,-0.0226 h 0.699911 c 0.265289,0 0.366889,0.006 0.513644,0.0226 v -0.58137 c -0.141111,0.0169 -0.237066,0.0226 -0.519288,0.0226 h -0.694267 c -0.276577,0 -0.378177,-0.006 -0.519288,-0.0226 z"
         style="font-style:normal;font-variant:normal;font-weight:600;font-stretch:normal;font-size:5.64444000000000035px;font-family:'Hiragino Kaku Gothic Pro';-inkscape-font-specification:'Hiragino Kaku Gothic Pro, Semi-Bold';font-variant-ligatures:normal;font-variant-caps:normal;font-variant-numeric:normal;font-variant-east-asian:normal;fill:#502d16;fill-opacity:1;stroke-width:0.264583"
         id="path1102" />
      <path
         d="m 52.860507,160.29553 c 0.01693,0.12418 0.01693,0.16369 0.02258,0.36124 0.02258,1.56351 0.124178,2.38196 0.3556,2.9464 0.225778,0.54187 0.530577,0.81845 0.908755,0.81845 0.479777,0 0.807155,-0.4572 1.100666,-1.55787 -0.276578,-0.2032 -0.366889,-0.28787 -0.564444,-0.51364 -0.06209,0.37817 -0.163689,0.71684 -0.299156,1.02164 -0.06773,0.15804 -0.146755,0.24271 -0.231422,0.24271 -0.180622,0 -0.361244,-0.36124 -0.457199,-0.94826 -0.06209,-0.34432 -0.107245,-1.02165 -0.107245,-1.51271 0,-0.37254 0.01693,-0.64912 0.04516,-0.85796 z m 2.850443,0.53622 c 0.338666,0.41769 0.609599,0.87489 0.80151,1.38853 0.197556,0.51365 0.327378,1.10067 0.361244,1.63125 l 0.699911,-0.26529 c -0.163689,-1.24178 -0.5588,-2.1844 -1.269999,-3.03671 z"
         style="font-style:normal;font-variant:normal;font-weight:600;font-stretch:normal;font-size:5.64444000000000035px;font-family:'Hiragino Kaku Gothic Pro';-inkscape-font-specification:'Hiragino Kaku Gothic Pro, Semi-Bold';font-variant-ligatures:normal;font-variant-caps:normal;font-variant-numeric:normal;font-variant-east-asian:normal;fill:#502d16;fill-opacity:1;stroke-width:0.264583"
         id="path1104" />
    </g>
    <g
       aria-label="えびちくわ"
       id="text1079"
       style="font-style:normal;font-variant:normal;font-weight:600;font-stretch:normal;font-size:22.57779999999999987px;line-height:1.25;font-family:'Hiragino Kaku Gothic Pro';-inkscape-font-specification:'Hiragino Kaku Gothic Pro, Semi-Bold';font-variant-ligatures:normal;font-variant-caps:normal;font-variant-numeric:normal;font-variant-east-asian:normal;fill:#502d16;fill-opacity:1;stroke-width:0.264583">
      <path
         d="m 31.610319,172.17557 c 2.748469,0.69708 4.301952,0.93608 8.265325,1.17507 l 0.378412,-2.23063 c -3.087049,-0.0597 -5.676187,-0.41826 -7.926744,-1.11534 z m -1.613232,5.37744 c 0.657243,-0.0797 0.796657,-0.0995 1.533566,-0.15933 0.657243,-0.0597 0.657243,-0.0597 1.035655,-0.0995 1.732731,-0.13942 1.732731,-0.13942 2.011561,-0.15933 0.936073,-0.0797 1.453901,-0.15933 2.589138,-0.33858 -1.015738,0.95598 -1.792481,1.6929 -2.330224,2.21072 -1.493734,1.43399 -1.852229,1.77257 -2.310307,2.19082 -3.744293,3.38579 -3.744293,3.38579 -4.620616,3.98328 l 1.832313,2.07131 c 0.716992,-0.83649 1.79248,-1.99164 2.808219,-2.96754 1.613231,-1.55349 2.509472,-2.11115 3.445545,-2.11115 0.378412,0 0.697075,0.15934 0.836491,0.41825 0.119499,0.23899 0.159332,0.51782 0.199164,1.27465 0.09958,1.5734 0.258914,2.05139 0.816575,2.56921 0.577576,0.53775 1.374235,0.75684 2.788302,0.75684 0.856407,0 1.573399,-0.0597 2.788302,-0.239 1.294569,-0.19917 1.414068,-0.21909 1.752647,-0.239 l -0.298746,-2.46964 c -1.035655,0.45808 -2.589138,0.75682 -3.92354,0.75682 -1.314486,0 -1.5734,-0.27883 -1.712814,-1.85222 -0.07966,-1.11532 -0.159333,-1.39415 -0.438162,-1.83232 -0.378413,-0.57758 -0.89624,-0.83649 -1.653065,-0.83649 -0.458079,0 -0.716992,0.0597 -1.214903,0.239 0.61741,-0.478 2.330224,-2.01156 3.405712,-3.04722 0.896241,-0.87632 1.314485,-1.23481 1.692898,-1.49373 l -1.334403,-1.71281 c -0.33858,0.15932 -0.697075,0.21908 -1.593315,0.31866 -2.489555,0.27883 -5.138443,0.43815 -7.070338,0.43815 -0.438162,0 -0.637327,0 -1.17507,-0.0597 z"
         style="font-style:normal;font-variant:normal;font-weight:600;font-stretch:normal;font-size:22.57779999999999987px;font-family:'Hiragino Kaku Gothic Pro';-inkscape-font-specification:'Hiragino Kaku Gothic Pro, Semi-Bold';font-variant-ligatures:normal;font-variant-caps:normal;font-variant-numeric:normal;font-variant-east-asian:normal;fill:#502d16;fill-opacity:1;stroke-width:0.233395"
         id="path1089" />
      <path
         d="m 47.122468,173.88838 c 0.219081,-0.0398 0.238997,-0.0398 0.49791,-0.0597 2.170893,-0.17925 2.170893,-0.17925 3.326047,-0.37842 l 0.258913,-0.0597 c 0.03984,-0.02 0.139416,-0.0399 0.298748,-0.0597 -0.139415,0.11951 -0.159332,0.13943 -0.219081,0.21909 -0.258914,0.239 -0.258914,0.239 -0.33858,0.29874 -0.736909,0.717 -1.553483,1.75265 -2.011561,2.56923 -0.876323,1.49373 -1.374235,3.24638 -1.374235,4.79986 0,2.15098 0.936073,4.06296 2.46964,5.07869 0.916156,0.59749 2.170891,0.93609 3.425628,0.93609 3.764208,0 6.472845,-3.04723 6.472845,-7.32927 0,-1.37422 -0.07966,-2.05139 -0.418246,-3.48537 1.194988,1.99164 1.872147,2.86796 3.186632,4.08287 0.159332,0.13941 0.258914,0.23899 0.298747,0.25892 0.01992,0.0398 0.07966,0.0995 0.159331,0.17924 l 1.23482,-2.37006 c -2.170893,-1.3344 -4.441367,-4.48119 -5.317691,-7.34917 l -2.389973,0.69708 c 0.637326,1.43398 1.075487,3.82396 1.075487,6.0546 0,1.8124 -0.21908,3.10697 -0.736908,4.34179 -0.637325,1.53356 -2.011561,2.46964 -3.644709,2.46964 -2.031478,0 -3.405712,-1.4539 -3.405712,-3.60489 0,-1.89206 0.876323,-3.90361 2.569221,-5.89526 0.836491,-0.99582 1.493733,-1.57339 2.449722,-2.17088 l -1.254735,-2.15099 c -0.836492,0.35849 -3.326047,0.63732 -5.65627,0.63732 -0.45808,0 -0.61741,-0.02 -0.995823,-0.0597 z m 12.288447,-3.16671 c 0.876323,0.95598 1.433984,1.75265 2.091226,2.96754 l 1.394151,-0.7369 c -0.677159,-1.23481 -1.214902,-1.99164 -2.091227,-2.92771 z m 5.855435,0.93607 c -0.61741,-1.13524 -1.175072,-1.89206 -2.071311,-2.80822 l -1.334401,0.69708 c 0.776741,0.8564 1.433983,1.79248 2.031476,2.88788 z"
         style="font-style:normal;font-variant:normal;font-weight:600;font-stretch:normal;font-size:22.57779999999999987px;font-family:'Hiragino Kaku Gothic Pro';-inkscape-font-specification:'Hiragino Kaku Gothic Pro, Semi-Bold';font-variant-ligatures:normal;font-variant-caps:normal;font-variant-numeric:normal;font-variant-east-asian:normal;fill:#502d16;fill-opacity:1;stroke-width:0.233395"
         id="path1091" />
      <path
         d="m 66.884064,169.3796 c 0.116057,0 0.203101,0 0.232117,0 0.232117,0 0.522264,0 0.928469,0.029 1.537774,0.11604 2.843434,0.17409 4.38121,0.2031 -0.406206,1.42173 -1.479747,4.23615 -2.437231,6.44125 -0.435219,1.01551 -0.928468,1.91497 -1.363687,2.61132 l 3.510771,1.21862 c 0.522263,-0.72537 1.044528,-1.16058 2.118068,-1.68285 1.856937,-0.89944 4.091064,-1.42172 6.238147,-1.42172 3.133581,0 4.87446,0.9865 4.87446,2.7854 0,2.32118 -2.727376,3.80093 -6.934499,3.80093 -2.43723,0 -4.874459,-0.46424 -7.485776,-1.39272 0.261131,1.45074 0.290147,2.03104 0.290147,3.68487 2.26314,0.66734 4.816429,1.0155 7.398731,1.0155 6.354205,0 10.503299,-2.78539 10.503299,-7.07957 0,-3.68485 -3.046537,-5.88996 -8.153112,-5.88996 -2.843436,0 -5.367708,0.63832 -7.31169,1.88594 v -0.0581 c 0.580293,-1.04452 1.68285,-3.82993 2.292157,-5.88996 3.626829,-0.087 6.180118,-0.29016 10.38724,-0.7544 0.754381,-0.087 1.015512,-0.11604 1.68285,-0.14507 l -0.174088,-3.51077 c -1.015513,0.29015 -1.566791,0.40621 -3.713874,0.66734 -1.914967,0.23211 -5.19362,0.46423 -7.398733,0.52226 0.174088,-0.55128 0.174088,-0.55128 0.696351,-2.72737 0.290147,-1.1606 0.290147,-1.1606 0.464235,-1.68286 l -3.887962,-0.31915 c -0.05803,1.24762 -0.261131,2.46624 -0.81241,4.78742 -2.988507,0 -4.932488,-0.14507 -6.267161,-0.49326 z"
         style="font-style:normal;font-variant:normal;font-weight:600;font-stretch:normal;font-size:22.57779999999999987px;font-family:'Hiragino Kaku Gothic Pro';-inkscape-font-specification:'Hiragino Kaku Gothic Pro, Semi-Bold';font-variant-ligatures:normal;font-variant-caps:normal;font-variant-numeric:normal;font-variant-east-asian:normal;fill:#502d16;fill-opacity:1;stroke-width:0.340014"
         id="path1093" />
      <path
         d="m 106.12853,161.60367 c -0.49325,0.72537 -0.8124,1.10256 -2.11807,2.40822 -1.94398,1.88595 -3.5688,3.27866 -6.702382,5.65786 -2.147073,1.65384 -2.17609,1.68285 -2.553279,2.08906 -0.63832,0.69634 -0.957482,1.47974 -0.957482,2.35019 0,1.33467 0.522266,2.11806 2.437227,3.5978 4.468246,3.48176 5.425736,4.26515 7.485776,6.18012 1.97299,1.82792 3.01751,2.93047 3.7719,3.975 l 2.9885,-3.01752 c -0.37718,-0.29014 -0.55128,-0.43521 -0.84142,-0.72536 -3.77189,-3.42372 -4.61333,-4.14909 -9.13961,-7.57282 -2.553298,-1.91497 -2.611328,-1.973 -2.611328,-2.40823 0,-0.31915 0.2031,-0.55126 1.102554,-1.21859 3.394724,-2.58232 5.425754,-4.20713 6.905504,-5.57082 2.52427,-2.35018 3.07554,-2.84343 3.5688,-3.19162 z"
         style="font-style:normal;font-variant:normal;font-weight:600;font-stretch:normal;font-size:22.57779999999999987px;font-family:'Hiragino Kaku Gothic Pro';-inkscape-font-specification:'Hiragino Kaku Gothic Pro, Semi-Bold';font-variant-ligatures:normal;font-variant-caps:normal;font-variant-numeric:normal;font-variant-east-asian:normal;fill:#502d16;fill-opacity:1;stroke-width:0.340014"
         id="path1095" />
      <path
         d="m 115.94662,182.14604 c 0.37719,-0.5803 1.1896,-1.47974 2.23413,-2.49525 0.87043,-0.84143 1.07354,-1.07355 1.27664,-1.36369 h 0.0581 c -0.0581,0.5803 -0.0581,0.89944 -0.0581,1.71186 v 2.5823 c 0,2.93048 -0.029,3.77191 -0.17408,4.64234 h 3.7719 c -0.14508,-1.27664 -0.23211,-4.52628 -0.23211,-8.67537 l 0.029,-3.01752 c 3.1916,-2.90147 6.03504,-4.38122 8.44326,-4.38122 3.04653,0 4.9615,1.94398 4.9615,5.04855 0,3.53979 -2.43723,6.00602 -5.91898,6.00602 -1.74088,0 -3.53978,-0.37718 -5.16461,-1.07354 0.46423,1.59581 0.55128,2.23414 0.55128,3.77191 1.47974,0.43523 2.84343,0.63832 4.32317,0.63832 1.97301,0 3.68487,-0.37719 5.16461,-1.10256 2.87245,-1.47973 4.61333,-4.55529 4.61333,-8.21113 0,-2.3502 -0.78339,-4.46825 -2.23413,-5.97702 -1.45072,-1.47975 -3.5688,-2.3792 -5.65784,-2.3792 -2.84344,0 -5.19363,0.89945 -8.35623,3.19161 -0.37718,0.26114 -0.5803,0.43521 -0.69635,0.55128 l -0.0581,0.029 c 0.029,-0.087 0.0581,-0.72536 0.11605,-1.973 1.04453,-1.30566 1.24762,-1.53777 1.65383,-1.88594 l -1.10255,-1.1896 c -0.14507,0.087 -0.20311,0.087 -0.40621,0.14507 0,-0.29015 0,-0.29015 0,-0.52226 0.058,-0.81241 0.058,-0.81241 0.087,-1.36369 0.11605,-2.00201 0.11605,-2.03103 0.29015,-2.78541 l -3.74289,-0.029 c 0.087,0.5803 0.11604,0.81241 0.11604,1.27665 0,0.029 0,0.14506 0,0.29014 0,0.26113 -0.029,0.66734 -0.029,1.21862 0,1.04453 -0.029,1.42171 -0.087,2.1761 -1.62481,0.11605 -3.22061,0.2031 -3.74287,0.2031 -0.26114,0 -0.49326,-0.029 -0.95749,-0.0581 l 0.20309,3.27867 c 0.89947,-0.1741 0.89947,-0.1741 4.41023,-0.43523 -0.0581,2.3792 -0.0581,2.40822 -0.11604,4.17811 -3.45275,3.19161 -4.58431,4.17811 -5.25165,4.64234 z"
         style="font-style:normal;font-variant:normal;font-weight:600;font-stretch:normal;font-size:22.57779999999999987px;font-family:'Hiragino Kaku Gothic Pro';-inkscape-font-specification:'Hiragino Kaku Gothic Pro, Semi-Bold';font-variant-ligatures:normal;font-variant-caps:normal;font-variant-numeric:normal;font-variant-east-asian:normal;fill:#502d16;fill-opacity:1;stroke-width:0.340014"
         id="path1097" />
    </g>
  </g>
</svg>
