<?xml version="1.0" encoding="UTF-8" standalone="no"?>
<svg
   xmlns:dc="http://purl.org/dc/elements/1.1/"
   xmlns:cc="http://creativecommons.org/ns#"
   xmlns:rdf="http://www.w3.org/1999/02/22-rdf-syntax-ns#"
   xmlns:svg="http://www.w3.org/2000/svg"
   xmlns="http://www.w3.org/2000/svg"
   xmlns:sodipodi="http://sodipodi.sourceforge.net/DTD/sodipodi-0.dtd"
   xmlns:inkscape="http://www.inkscape.org/namespaces/inkscape"
   width="25.22361mm"
   height="2.96561mm"
   viewBox="0 0 25.22361 2.96561"
   version="1.1"
   id="svg4974"
   inkscape:version="1.0.1 (c497b03c, 2020-09-10)"
   sodipodi:docname="start_copyright.svg">
  <defs
     id="defs4968" />
  <sodipodi:namedview
     id="base"
     pagecolor="#ffffff"
     bordercolor="#666666"
     borderopacity="1.0"
     inkscape:pageopacity="0.0"
     inkscape:pageshadow="2"
     inkscape:zoom="1.3959763"
     inkscape:cx="28.272187"
     inkscape:cy="91.418922"
     inkscape:document-units="mm"
     inkscape:current-layer="layer1"
     inkscape:document-rotation="0"
     showgrid="false"
     fit-margin-top="0"
     fit-margin-left="0"
     fit-margin-right="0"
     fit-margin-bottom="0"
     inkscape:window-width="1440"
     inkscape:window-height="697"
     inkscape:window-x="0"
     inkscape:window-y="25"
     inkscape:window-maximized="0" />
  <metadata
     id="metadata4971">
    <rdf:RDF>
      <cc:Work
         rdf:about="">
        <dc:format>image/svg+xml</dc:format>
        <dc:type
           rdf:resource="http://purl.org/dc/dcmitype/StillImage" />
        <dc:title />
      </cc:Work>
    </rdf:RDF>
  </metadata>
  <g
     inkscape:label="レイヤー 1"
     inkscape:groupmode="layer"
     id="layer1"
     transform="translate(-60.497829,-195.29098)">
    <g
       aria-label="©︎ 2021 すずらん"
       id="text4978"
       style="font-weight:600;font-size:2.90355000000000008px;line-height:1.25;font-family:'Hiragino Kaku Gothic Pro';-inkscape-font-specification:'Hiragino Kaku Gothic Pro, Semi-Bold';stroke-width:0.034026;fill:#502d16;fill-opacity:1">
      <path
         d="m 62.285328,196.66967 c -0.06805,-0.31758 -0.303966,-0.49451 -0.653299,-0.49451 -0.467291,0 -0.753109,0.30396 -0.753109,0.79394 0,0.49904 0.290355,0.80301 0.757645,0.80301 0.372018,0 0.589784,-0.1724 0.671447,-0.53534 l -0.390165,-0.059 c -0.02268,0.1724 -0.12703,0.26767 -0.290355,0.26767 -0.222303,0 -0.358407,-0.18147 -0.358407,-0.4809 0,-0.29489 0.131567,-0.46729 0.349333,-0.46729 0.154251,0 0.249524,0.0817 0.285819,0.24952 z m -0.675983,-0.80755 c -0.612468,0 -1.111516,0.49905 -1.111516,1.11605 0,0.61247 0.499048,1.11152 1.116052,1.11152 0.612468,0 1.111516,-0.49905 1.111516,-1.11606 0,-0.61246 -0.499048,-1.11151 -1.116052,-1.11151 z m 0.0045,0.11342 c 0.55349,0 0.998096,0.4446 0.998096,0.99809 0,0.55803 -0.444606,1.00264 -0.998096,1.00264 -0.558026,0 -1.002632,-0.44461 -1.002632,-1.00264 0,-0.55349 0.444606,-0.99809 1.002632,-0.99809 z"
         style="font-size:4.53680000000000039px;stroke-width:0.034026;fill:#502d16;fill-opacity:1"
         id="path5745" />
      <path
         d="m 65.465926,198.06278 c 0.15875,0 0.263525,0.006 0.390525,0.019 v -0.2667 c -0.12065,0.0159 -0.2286,0.0222 -0.38735,0.0222 h -1.012825 c 0.0381,-0.1524 0.08255,-0.23812 0.180975,-0.3683 0.104775,-0.13335 0.206375,-0.22225 0.4572,-0.39052 0.36195,-0.2413 0.4445,-0.30163 0.53975,-0.40958 0.123825,-0.13652 0.187325,-0.28892 0.187325,-0.45085 0,-0.37465 -0.307975,-0.61595 -0.7874,-0.61595 -0.2794,0 -0.4953,0.0825 -0.638175,0.24448 -0.104775,0.11747 -0.1524,0.2286 -0.200025,0.4572 l 0.2667,0.0444 c 0.02223,-0.15875 0.0508,-0.23495 0.111125,-0.32068 0.09525,-0.13652 0.250825,-0.20637 0.460375,-0.20637 0.32385,0 0.52705,0.15557 0.52705,0.39687 0,0.19368 -0.104775,0.33338 -0.4191,0.5461 -0.3683,0.25083 -0.37465,0.254 -0.485775,0.34925 -0.200025,0.17145 -0.333375,0.34608 -0.41275,0.5461 -0.04762,0.12065 -0.05715,0.16828 -0.09207,0.4191 0.1016,-0.0127 0.149225,-0.0159 0.34925,-0.0159 z"
         style="font-style:normal;font-variant:normal;font-weight:300;font-stretch:normal;font-size:3.17499999999999982px;font-family:'Hiragino Kaku Gothic Pro';-inkscape-font-specification:'Hiragino Kaku Gothic Pro, Light';font-variant-ligatures:normal;font-variant-caps:normal;font-variant-numeric:normal;font-variant-east-asian:normal;fill:#502d16;fill-opacity:1"
         id="path5747" />
      <path
         d="m 67.089144,198.1104 c 0.2921,0 0.51435,-0.11112 0.6731,-0.33337 0.1397,-0.19368 0.22225,-0.5334 0.22225,-0.91758 0,-0.26352 -0.04127,-0.51752 -0.12065,-0.7366 -0.0381,-0.10477 -0.1016,-0.2032 -0.1905,-0.2921 -0.142875,-0.14922 -0.346075,-0.22542 -0.581025,-0.22542 -0.314325,0 -0.5588,0.13335 -0.7112,0.39052 -0.111125,0.18415 -0.18415,0.52705 -0.18415,0.8636 0,0.26035 0.04127,0.51118 0.12065,0.73343 0.0381,0.10795 0.104775,0.20637 0.1905,0.2921 0.149225,0.14922 0.346075,0.22542 0.581025,0.22542 z m 0,-2.286 c 0.22225,0 0.3937,0.0984 0.498475,0.28893 0.08255,0.14922 0.142875,0.46355 0.142875,0.73977 0,0.23495 -0.03175,0.4445 -0.09842,0.64135 -0.02858,0.0921 -0.07937,0.17463 -0.149225,0.24765 -0.09525,0.0984 -0.231775,0.14923 -0.390525,0.14923 -0.2159,0 -0.381,-0.0921 -0.492125,-0.27623 -0.08572,-0.14922 -0.149225,-0.46037 -0.149225,-0.75565 0,-0.23177 0.03175,-0.44767 0.09843,-0.64135 0.0254,-0.0794 0.0762,-0.15875 0.142875,-0.23177 0.1016,-0.10795 0.231775,-0.16193 0.396875,-0.16193 z"
         style="font-style:normal;font-variant:normal;font-weight:300;font-stretch:normal;font-size:3.17499999999999982px;font-family:'Hiragino Kaku Gothic Pro';-inkscape-font-specification:'Hiragino Kaku Gothic Pro, Light';font-variant-ligatures:normal;font-variant-caps:normal;font-variant-numeric:normal;font-variant-east-asian:normal;fill:#502d16;fill-opacity:1"
         id="path5749" />
      <path
         d="m 69.633113,198.06278 c 0.15875,0 0.263525,0.006 0.390525,0.019 v -0.2667 c -0.12065,0.0159 -0.2286,0.0222 -0.38735,0.0222 h -1.012825 c 0.0381,-0.1524 0.08255,-0.23812 0.180975,-0.3683 0.104775,-0.13335 0.206375,-0.22225 0.4572,-0.39052 0.36195,-0.2413 0.4445,-0.30163 0.53975,-0.40958 0.123825,-0.13652 0.187325,-0.28892 0.187325,-0.45085 0,-0.37465 -0.307975,-0.61595 -0.7874,-0.61595 -0.2794,0 -0.4953,0.0825 -0.638175,0.24448 -0.104775,0.11747 -0.1524,0.2286 -0.200025,0.4572 l 0.2667,0.0444 c 0.02223,-0.15875 0.0508,-0.23495 0.111125,-0.32068 0.09525,-0.13652 0.250825,-0.20637 0.460375,-0.20637 0.32385,0 0.52705,0.15557 0.52705,0.39687 0,0.19368 -0.104775,0.33338 -0.4191,0.5461 -0.3683,0.25083 -0.37465,0.254 -0.485775,0.34925 -0.200025,0.17145 -0.333375,0.34608 -0.41275,0.5461 -0.04762,0.12065 -0.05715,0.16828 -0.09207,0.4191 0.1016,-0.0127 0.149225,-0.0159 0.34925,-0.0159 z"
         style="font-style:normal;font-variant:normal;font-weight:300;font-stretch:normal;font-size:3.17499999999999982px;font-family:'Hiragino Kaku Gothic Pro';-inkscape-font-specification:'Hiragino Kaku Gothic Pro, Light';font-variant-ligatures:normal;font-variant-caps:normal;font-variant-numeric:normal;font-variant-east-asian:normal;fill:#502d16;fill-opacity:1"
         id="path5751" />
      <path
         d="m 70.726106,195.88473 c 0.09207,-0.0127 0.174625,-0.019 0.276225,-0.019 h 0.17145 v 1.83832 c 0,0.14605 -0.0064,0.24765 -0.0254,0.35878 h 0.301625 c -0.01905,-0.11748 -0.0254,-0.20955 -0.0254,-0.35878 V 196.161 c 0,-0.17145 0.0095,-0.33337 0.02858,-0.52705 -0.104775,0.0127 -0.155575,0.0159 -0.263525,0.0159 h -0.200025 c -0.12065,0 -0.180975,-0.003 -0.263525,-0.0159 z"
         style="font-style:normal;font-variant:normal;font-weight:300;font-stretch:normal;font-size:3.17499999999999982px;font-family:'Hiragino Kaku Gothic Pro';-inkscape-font-specification:'Hiragino Kaku Gothic Pro, Light';font-variant-ligatures:normal;font-variant-caps:normal;font-variant-numeric:normal;font-variant-east-asian:normal;fill:#502d16;fill-opacity:1"
         id="path5753" />
      <path
         d="m 75.114701,195.96728 c -0.2159,0.006 -0.46355,0.0127 -0.76835,0.0254 -0.511175,0.019 -0.511175,0.019 -0.60325,0.019 -0.04762,0 -0.06985,0 -0.127,-0.003 l 0.0095,0.23178 c 0.212725,-0.0349 0.854075,-0.0667 1.49225,-0.0794 0,0.12065 0,0.12065 0,0.1651 0,0.0381 0.0032,0.0699 0.0032,0.0825 0,0.11748 0,0.13018 0.0032,0.17463 -0.08255,-0.0921 -0.2159,-0.14288 -0.3683,-0.14288 -0.32385,0 -0.561975,0.22225 -0.561975,0.52388 0,0.2921 0.2159,0.50165 0.5207,0.50165 0.168275,0 0.3048,-0.0572 0.40005,-0.17145 0.0381,-0.0445 0.05715,-0.0794 0.08572,-0.15558 -0.0127,0.28893 -0.123825,0.4953 -0.3556,0.66993 -0.127,0.0952 -0.2667,0.15875 -0.51435,0.23812 0.06667,0.0699 0.08572,0.0984 0.1397,0.20003 0.231775,-0.0889 0.371475,-0.16193 0.50165,-0.25718 0.27305,-0.20637 0.42545,-0.49847 0.42545,-0.82867 0,-0.1397 -0.02223,-0.2413 -0.0762,-0.37465 v -0.62865 c 0.257175,-0.006 0.2921,-0.006 0.339725,-0.006 0.377825,0 0.48895,0.003 0.606425,0.0159 v -0.22542 c -0.104775,0.0127 -0.34925,0.019 -0.949325,0.0222 v -0.0349 c 0,-0.24765 0.0032,-0.29528 0.01587,-0.39688 h -0.238125 c 0.0095,0.0667 0.0127,0.1016 0.0127,0.18415 z m -0.0095,0.9271 c 0,0.22225 -0.1524,0.37465 -0.371475,0.37465 -0.193675,0 -0.327025,-0.13018 -0.327025,-0.31433 0,-0.1905 0.1524,-0.33337 0.352425,-0.33337 0.08572,0 0.1524,0.0159 0.212725,0.0508 0.09208,0.0508 0.13335,0.11747 0.13335,0.22225 z"
         style="font-style:normal;font-variant:normal;font-weight:300;font-stretch:normal;font-size:3.17499999999999982px;font-family:'Hiragino Kaku Gothic Pro';-inkscape-font-specification:'Hiragino Kaku Gothic Pro, Light';font-variant-ligatures:normal;font-variant-caps:normal;font-variant-numeric:normal;font-variant-east-asian:normal;fill:#502d16;fill-opacity:1"
         id="path5755" />
      <path
         d="m 78.283351,195.9768 c -0.1651,0.003 -0.447675,0.0127 -0.76835,0.0254 -0.511175,0.0191 -0.511175,0.0191 -0.60325,0.0191 -0.04762,0 -0.06985,0 -0.127,-0.003 l 0.0095,0.23177 c 0.1016,-0.0254 0.9906,-0.073 1.49225,-0.0794 v 0.0857 c 0,0.0222 0,0.0476 0,0.0794 0,0.0413 0.0032,0.0667 0.0032,0.0825 0,0.1143 0,0.12382 0.0032,0.17462 -0.08255,-0.0921 -0.2159,-0.14287 -0.3683,-0.14287 -0.327025,0 -0.56515,0.22225 -0.56515,0.52387 0,0.2921 0.219075,0.50165 0.523875,0.50165 0.1651,0 0.301625,-0.0572 0.40005,-0.17145 0.0381,-0.0444 0.05715,-0.0794 0.08573,-0.15557 -0.01588,0.4445 -0.2921,0.73342 -0.86995,0.90805 0.0635,0.0667 0.0889,0.1016 0.1397,0.20002 0.231775,-0.0889 0.371475,-0.16192 0.50165,-0.25717 0.27305,-0.20638 0.42545,-0.49848 0.42545,-0.82868 0,-0.1397 -0.02223,-0.2413 -0.0762,-0.37465 v -0.62865 c 0.254,-0.006 0.2921,-0.006 0.339725,-0.006 0.377825,0 0.48895,0.003 0.606425,0.0159 v -0.22543 c -0.07302,0.01 -0.111125,0.0127 -0.20955,0.0159 l -0.5588,0.003 c -0.05397,0 -0.06032,0 -0.180975,0.003 v -0.0349 c 0,-0.24765 0.0032,-0.29527 0.01587,-0.39687 h -0.238125 c 0.0095,0.0635 0.0127,0.0952 0.0127,0.18415 l 0.0063,0.22225 z m -0.3556,0.65405 c 0.0762,0 0.15875,0.019 0.212725,0.0476 0.09207,0.054 0.13335,0.12065 0.13335,0.22542 0,0.22225 -0.1524,0.37465 -0.371475,0.37465 -0.193675,0 -0.3302,-0.13017 -0.3302,-0.31432 0,-0.1905 0.1524,-0.33338 0.3556,-0.33338 z m 0.8382,-1.18745 c 0.09842,0.1016 0.206375,0.25083 0.3175,0.44133 l 0.155575,-0.0984 c -0.0635,-0.11747 -0.174625,-0.26987 -0.3175,-0.4318 z m 0.454025,-0.0635 c 0.12065,0.1397 0.2159,0.27623 0.327025,0.47308 l 0.15875,-0.0921 c -0.06985,-0.13335 -0.200025,-0.31432 -0.333375,-0.4699 z"
         style="font-style:normal;font-variant:normal;font-weight:300;font-stretch:normal;font-size:3.17499999999999982px;font-family:'Hiragino Kaku Gothic Pro';-inkscape-font-specification:'Hiragino Kaku Gothic Pro, Light';font-variant-ligatures:normal;font-variant-caps:normal;font-variant-numeric:normal;font-variant-east-asian:normal;fill:#502d16;fill-opacity:1"
         id="path5757" />
      <path
         d="m 80.625558,195.77995 c 0.282575,0.13018 0.282575,0.13018 0.485775,0.20003 0.212725,0.0762 0.212725,0.0762 0.619125,0.18097 l 0.0889,-0.22225 c -0.346075,-0.054 -0.828675,-0.21272 -1.076325,-0.35242 z m -0.263525,0.3429 c -0.0032,0.0572 -0.0063,0.0825 -0.02222,0.16828 -0.04445,0.2667 -0.1016,0.635 -0.13335,0.8763 -0.0127,0.1016 -0.01587,0.13017 -0.0254,0.18732 l 0.24765,0.006 c 0.05397,-0.0699 0.0762,-0.0921 0.127,-0.13017 0.238125,-0.17463 0.56515,-0.27623 0.889,-0.27623 0.38735,0 0.61595,0.1524 0.61595,0.41275 0,0.32385 -0.333375,0.5334 -0.85725,0.5334 -0.2667,0 -0.568325,-0.0603 -0.809625,-0.15875 0.01905,0.0825 0.02223,0.12383 0.02223,0.19685 0,0.0127 0,0.0317 -0.0032,0.0603 0.193675,0.0476 0.193675,0.0476 0.254,0.0635 0.174625,0.0381 0.365125,0.0572 0.555625,0.0572 0.33655,0 0.587375,-0.0667 0.790575,-0.20955 0.1778,-0.127 0.28575,-0.33338 0.28575,-0.5461 0,-0.37148 -0.333375,-0.61278 -0.8509,-0.61278 -0.34925,0 -0.6985,0.10478 -0.917575,0.27305 -0.03493,0.0286 -0.05715,0.0508 -0.09843,0.0952 l -0.0063,-0.003 c 0.0063,-0.0286 0.0095,-0.0349 0.0127,-0.073 0.0095,-0.073 0.01588,-0.0952 0.09208,-0.55562 0.02857,-0.17463 0.04445,-0.25083 0.07303,-0.34925 z"
         style="font-style:normal;font-variant:normal;font-weight:300;font-stretch:normal;font-size:3.17499999999999982px;font-family:'Hiragino Kaku Gothic Pro';-inkscape-font-specification:'Hiragino Kaku Gothic Pro, Light';font-variant-ligatures:normal;font-variant-caps:normal;font-variant-numeric:normal;font-variant-east-asian:normal;fill:#502d16;fill-opacity:1"
         id="path5759" />
      <path
         d="m 83.994234,195.53865 c -0.01905,0.0953 -0.0889,0.29528 -0.434975,1.21285 -0.4572,1.2192 -0.4572,1.2192 -0.498475,1.3081 l 0.244475,0.0762 c 0.04127,-0.1905 0.187325,-0.55245 0.2921,-0.73025 0.1778,-0.30162 0.384175,-0.4699 0.568325,-0.4699 0.09525,0 0.1524,0.0381 0.180975,0.11748 0.01905,0.0508 0.0254,0.11112 0.0254,0.2413 v 0.18097 c 0,0.1778 0.0095,0.2794 0.02858,0.3429 0.06033,0.18098 0.2286,0.28575 0.46355,0.28575 0.26035,0 0.485775,-0.12382 0.631825,-0.34607 0.09843,-0.14923 0.161925,-0.30798 0.225425,-0.5588 -0.09208,-0.054 -0.127,-0.0826 -0.20955,-0.16193 -0.01905,0.17145 -0.05397,0.3048 -0.12065,0.45085 -0.117475,0.2667 -0.282575,0.39688 -0.508,0.39688 -0.104775,0 -0.200025,-0.0381 -0.2413,-0.0984 -0.0381,-0.0572 -0.0508,-0.13652 -0.0508,-0.30162 v -0.2159 c 0,-0.18098 -0.01587,-0.28258 -0.05397,-0.35878 -0.05715,-0.1143 -0.180975,-0.18732 -0.3175,-0.18732 -0.225425,0 -0.38735,0.1143 -0.5969,0.41592 l -0.01588,-0.006 c 0.0127,-0.0286 0.01588,-0.0349 0.02858,-0.0572 0.01588,-0.0317 0.02858,-0.0571 0.03493,-0.0698 0.130175,-0.27305 0.130175,-0.27305 0.2286,-0.52387 0.31115,-0.79693 0.31115,-0.79693 0.352425,-0.87313 z"
         style="font-style:normal;font-variant:normal;font-weight:300;font-stretch:normal;font-size:3.17499999999999982px;font-family:'Hiragino Kaku Gothic Pro';-inkscape-font-specification:'Hiragino Kaku Gothic Pro, Light';font-variant-ligatures:normal;font-variant-caps:normal;font-variant-numeric:normal;font-variant-east-asian:normal;fill:#502d16;fill-opacity:1"
         id="path5761" />
    </g>
  </g>
</svg>
