<?xml version="1.0" encoding="UTF-8" standalone="no"?>
<svg
   xmlns:dc="http://purl.org/dc/elements/1.1/"
   xmlns:cc="http://creativecommons.org/ns#"
   xmlns:rdf="http://www.w3.org/1999/02/22-rdf-syntax-ns#"
   xmlns:svg="http://www.w3.org/2000/svg"
   xmlns="http://www.w3.org/2000/svg"
   xmlns:sodipodi="http://sodipodi.sourceforge.net/DTD/sodipodi-0.dtd"
   xmlns:inkscape="http://www.inkscape.org/namespaces/inkscape"
   width="75mm"
   height="55.000011mm"
   viewBox="0 0 75.000005 55.000011"
   version="1.1"
   id="svg974"
   inkscape:version="1.0.1 (c497b03c, 2020-09-10)"
   sodipodi:docname="start_menu_jp.svg">
  <defs
     id="defs968" />
  <sodipodi:namedview
     id="base"
     pagecolor="#ffffff"
     bordercolor="#666666"
     borderopacity="1.0"
     inkscape:pageopacity="0.0"
     inkscape:pageshadow="2"
     inkscape:zoom="1.2805867"
     inkscape:cx="-10.681535"
     inkscape:cy="97.711406"
     inkscape:document-units="mm"
     inkscape:current-layer="text982"
     inkscape:document-rotation="0"
     showgrid="false"
     fit-margin-top="0"
     fit-margin-left="0"
     fit-margin-right="0"
     fit-margin-bottom="0"
     inkscape:window-width="1440"
     inkscape:window-height="697"
     inkscape:window-x="0"
     inkscape:window-y="25"
     inkscape:window-maximized="0" />
  <metadata
     id="metadata971">
    <rdf:RDF>
      <cc:Work
         rdf:about="">
        <dc:format>image/svg+xml</dc:format>
        <dc:type
           rdf:resource="http://purl.org/dc/dcmitype/StillImage" />
        <dc:title></dc:title>
      </cc:Work>
    </rdf:RDF>
  </metadata>
  <g
     inkscape:label="レイヤー 1"
     inkscape:groupmode="layer"
     id="layer1"
     transform="translate(72.020542,-111.74544)">
    <g
       id="text978"
       style="font-weight:600;font-size:22.5778px;line-height:1.25;font-family:'Hiragino Kaku Gothic Pro';-inkscape-font-specification:'Hiragino Kaku Gothic Pro, Semi-Bold';stroke-width:0.264583" />
    <g
       aria-label="心の準備が出来た  今はその時ではない"
       id="text982"
       style="font-style:normal;font-variant:normal;font-weight:600;font-stretch:normal;font-size:14.1111px;line-height:1.25;font-family:'Hiragino Kaku Gothic Pro';-inkscape-font-specification:'Hiragino Kaku Gothic Pro, Semi-Bold';font-variant-ligatures:normal;font-variant-caps:normal;font-variant-numeric:normal;font-variant-east-asian:normal;stroke-width:0.264583">
      <path
         id="rect2305"
         style="fill:none;fill-opacity:1;fill-rule:evenodd;stroke:#502d16;stroke-width:1.0495;stroke-linecap:round;stroke-linejoin:round;stroke-miterlimit:4;stroke-dasharray:none;stroke-opacity:1"
         d="M -71.495792,112.27019 H 2.4547083 V 166.2207 H -71.495792 Z" />
      <text
         xml:space="preserve"
         style="font-weight:600;font-size:8.46667px;line-height:1.25;font-family:'Hiragino Kaku Gothic Pro';-inkscape-font-specification:'Hiragino Kaku Gothic Pro, Semi-Bold';stroke-width:0.0700042"
         x="-113.54935"
         y="131.99332"
         id="text1432"><tspan
           sodipodi:role="line"
           id="tspan1430"
           x="-113.54935"
           y="131.99332"
           style="stroke-width:0.0700042" /></text>
      <g
         aria-label="はじめる
せってい
おわる"
         id="text1436"
         style="font-weight:600;font-size:8.46667px;line-height:1.25;font-family:'Hiragino Kaku Gothic Pro';-inkscape-font-specification:'Hiragino Kaku Gothic Pro, Semi-Bold';stroke-width:0.0700042">
        <path
           d="m -36.276187,123.07318 c 0.0254,-0.008 0.04233,-0.008 0.0508,-0.008 0.01693,0 0.04233,0 0.08467,0.008 0.01693,0 0.06773,0 0.143933,0.008 0.04233,0 0.135467,0.008 0.254,0.008 0.397934,0.0339 0.736601,0.0423 1.049867,0.0423 0.220134,0 0.423334,-0.008 0.762001,-0.0169 0.03387,1.17686 0.04233,1.59173 0.06773,1.8034 -0.2286,-0.0847 -0.440267,-0.11854 -0.753534,-0.11854 -1.024467,0 -1.744134,0.57574 -1.744134,1.397 0,0.8636 0.677334,1.38854 1.786468,1.38854 0.821267,0 1.413934,-0.29634 1.608667,-0.79587 0.04233,-0.11853 0.06773,-0.28787 0.06773,-0.47413 0,-0.0508 0,-0.0677 0,-0.11854 0.0508,0.0339 0.245534,0.16087 0.533401,0.34714 0.237066,0.1524 0.491067,0.37253 0.635,0.54186 l 0.4064,-1.02446 c -0.08467,-0.0423 -0.127,-0.0677 -0.237067,-0.14394 -0.508,-0.36406 -0.719667,-0.4826 -1.329267,-0.77046 -0.08467,-1.4224 -0.08467,-1.43934 -0.08467,-1.91347 0,-0.11007 0,-0.11007 0,-0.18627 0.448734,-0.0508 0.889001,-0.127 1.176868,-0.18626 0.1524,-0.0339 0.160866,-0.0339 0.245533,-0.0423 l -0.03387,-0.95673 -0.06773,0.0169 c -0.135467,0.0508 -0.135467,0.0508 -0.186267,0.0677 -0.3302,0.0847 -0.702733,0.1524 -1.143,0.2032 0,-0.16933 0,-0.29633 0,-0.38946 0,-0.60114 0.01693,-1.00754 0.05927,-1.2446 l -1.058333,0.0254 c 0.01693,0.0931 0.0254,0.22013 0.0254,0.4064 0,0.34713 0.0085,0.77046 0.0085,1.27 -0.296333,0.0169 -0.4826,0.0169 -0.778933,0.0169 -0.694267,0 -1.134534,-0.0339 -1.532468,-0.13547 z m 2.429934,2.70934 c 0,0 0,0.13546 0,0.2286 0,0.2286 -0.03387,0.3556 -0.110066,0.4572 -0.127,0.16933 -0.372534,0.26246 -0.685801,0.26246 -0.474133,0 -0.778933,-0.21166 -0.778933,-0.52493 0,-0.34713 0.338667,-0.5588 0.880533,-0.5588 0.254001,0 0.414867,0.0339 0.694267,0.13547 z m -3.310468,1.8034 c -0.01693,-0.16087 -0.01693,-0.16934 -0.01693,-0.2286 0,-0.5588 0.338667,-1.60867 0.8382,-2.5908 l -0.702733,-0.31327 c -0.0762,0.21167 -0.08467,0.23707 -0.1016,0.26247 -0.08467,0.2032 -0.08467,0.2032 -0.160867,0.381 -0.04233,0.13546 -0.08467,0.2286 -0.1016,0.28786 -0.05927,0.1524 -0.05927,0.1524 -0.1016,0.24554 h -0.0085 c 0.0085,-0.0931 0.0085,-0.11007 0.0085,-0.1778 0,-0.0762 0,-0.0762 0,-0.13547 0,-0.13547 0,-0.13547 0.0085,-0.44027 0.0085,-1.4732 0.3302,-3.51367 0.677333,-4.25027 l -1.143,-0.11853 c 0,0.0169 0,0.0254 0,0.0339 0,0.0847 -0.03387,0.3302 -0.09313,0.62653 -0.186266,0.95673 -0.186266,0.95673 -0.2286,1.21073 -0.110066,0.73661 -0.160866,1.48167 -0.160866,2.24367 0,0.889 0.06773,1.7018 0.2286,2.6924 0.03387,0.19474 0.03387,0.24554 0.04233,0.3302 z"
           style="fill:#502d16;fill-opacity:1;stroke-width:0.0700042"
           id="path948" />
        <path
           d="m -29.121851,120.60091 c 0.0254,0.22014 0.03387,0.33867 0.03387,0.57574 0,0.11853 0,0.29633 -0.0085,0.55033 -0.0508,2.11667 -0.06773,2.9718 -0.06773,3.41207 0,1.13453 0.245533,1.78647 0.829734,2.17593 0.3556,0.23707 0.897467,0.37254 1.481667,0.37254 1.0668,0 1.905001,-0.3556 2.540001,-1.07527 0.414867,-0.46567 0.668867,-1.016 1.007534,-2.159 -0.389467,-0.1778 -0.575734,-0.28787 -1.024467,-0.65193 -0.09313,0.5842 -0.203201,0.98213 -0.389467,1.4224 -0.397934,0.93133 -1.134534,1.4478 -2.048934,1.4478 -0.533401,0 -0.939801,-0.16087 -1.134534,-0.44027 -0.169334,-0.254 -0.220134,-0.5588 -0.220134,-1.36313 0,-0.60114 0.0508,-2.31987 0.08467,-3.10727 0.03387,-0.65194 0.0508,-0.89747 0.1016,-1.143 z m 3.005668,0.6858 c 0.364067,0.4064 0.601134,0.74507 0.889,1.26154 l 0.592667,-0.31327 c -0.296333,-0.52493 -0.524933,-0.84667 -0.889,-1.2446 z m 2.489201,0.39794 c -0.270933,-0.4826 -0.499533,-0.80434 -0.880534,-1.1938 l -0.567266,0.29633 c 0.321733,0.36407 0.601133,0.762 0.8636,1.22767 z"
           style="fill:#502d16;fill-opacity:1;stroke-width:0.0700042"
           id="path950" />
        <path
           d="m -20.756781,120.87185 c 0.0508,0.127 0.06773,0.1778 0.08467,0.28786 0.09313,0.47414 0.245533,1.21074 0.287867,1.33774 -0.880534,0.6604 -1.354667,1.55787 -1.354667,2.59927 0,1.143 0.5842,1.905 1.456267,1.905 0.287867,0 0.524933,-0.0677 0.7874,-0.2286 0.338667,-0.19474 0.702734,-0.54187 1.007534,-0.93134 0.618067,-0.80433 1.202267,-1.99813 1.540934,-3.15807 0.347133,0.1016 0.5334,0.18627 0.762,0.36407 0.423334,0.3302 0.618067,0.75354 0.618067,1.31234 0,0.37253 -0.1016,0.72813 -0.287867,1.0414 -0.2286,0.36406 -0.6096,0.6604 -1.185334,0.90593 -0.465666,0.2032 -0.795867,0.2794 -1.380067,0.3302 0.321734,0.42333 0.397934,0.56727 0.524934,0.9906 0.651933,-0.13547 0.973667,-0.2286 1.380067,-0.4064 1.261534,-0.5334 1.981201,-1.54093 1.981201,-2.78553 0,-0.88054 -0.3556,-1.6002 -1.032934,-2.09974 -0.3302,-0.24553 -0.635,-0.381 -1.134534,-0.508 0.03387,-0.11853 0.143934,-0.5334 0.262467,-0.9906 0.01693,-0.0762 0.03387,-0.13547 0.08467,-0.23707 l -1.066801,-0.21166 c -0.0085,0.2794 -0.06773,0.59266 -0.245533,1.31233 -0.1016,0 -0.1778,0 -0.2286,0 -0.5588,0 -1.058334,0.1016 -1.634068,0.33867 -0.1016,-0.4318 -0.194733,-1.0414 -0.2032,-1.36314 z m 0.626534,2.63313 c 0.169333,0.70274 0.3048,1.0922 0.694267,1.94734 -0.287867,0.36406 -0.5588,0.55033 -0.795867,0.55033 -0.338667,0 -0.575734,-0.381 -0.575734,-0.93133 0,-0.59267 0.2032,-1.0668 0.677334,-1.56634 z m 1.329267,1.1176 c -0.0085,-0.0423 -0.01693,-0.0593 -0.04233,-0.127 -0.262467,-0.66886 -0.372534,-1.016 -0.508001,-1.6002 0.448734,-0.24553 0.872067,-0.33867 1.456268,-0.33867 -0.2794,0.84667 -0.508,1.38007 -0.846667,1.95581 -0.0254,0.0423 -0.0254,0.0508 -0.0508,0.11006 z"
           style="fill:#502d16;fill-opacity:1;stroke-width:0.0700042"
           id="path952" />
        <path
           d="m -10.571378,123.81825 c 0.135467,-0.0762 0.135467,-0.0762 0.347134,-0.22013 0.169333,-0.11007 0.7789335,-0.56727 0.9313335,-0.69427 0.2878668,-0.24554 0.9059337,-0.79587 1.3292672,-1.18534 0.2370668,-0.22013 0.2963335,-0.27093 0.4402669,-0.34713 L -8.04831,120.62631 c -0.1354667,0.0677 -0.2286001,0.0847 -0.5249335,0.11007 -0.821267,0.0593 -1.8542005,0.1016 -2.5738675,0.1016 -0.465667,0 -0.7112,-0.0169 -0.999067,-0.0508 l 0.04233,1.016 c 0.160867,-0.0254 0.220134,-0.0339 0.4064,-0.0423 1.532468,-0.0677 2.0743344,-0.1016 2.3960679,-0.14394 l 0.00847,0.008 c -0.0508,0.0508 -0.1354667,0.13547 -0.1524,0.1524 -0.6434669,0.65193 -1.7441349,1.6002 -2.5315349,2.20134 -0.5588,0.42333 -0.897467,0.65193 -1.1938,0.79586 l 0.575733,0.9144 c 1.016001,-0.92286 2.252134,-1.4224 3.4882687,-1.4224 1.024467,0 1.6764006,0.4318 1.6764006,1.0922 0,0.60114 -0.3048001,0.9652 -1.0075337,1.22767 -0.127,-0.36407 -0.2201334,-0.55033 -0.3894668,-0.762 -0.3556002,-0.44873 -0.872067,-0.69427 -1.4647348,-0.69427 -0.846667,0 -1.456267,0.508 -1.456267,1.21074 0,0.381 0.186267,0.7366 0.508,0.97366 0.338667,0.254 0.931334,0.38947 1.6425348,0.38947 0.7789337,0 1.4986006,-0.16933 2.0489342,-0.4826 0.7535336,-0.42333 1.1514671,-1.0668 1.1514671,-1.87113 0,-1.15994 -0.9313337,-1.905 -2.3791343,-1.905 -0.6350002,0 -1.0075337,0.0847 -1.7780008,0.38946 z m 1.2192008,3.01413 c -0.2370667,0.0339 -0.2794001,0.0339 -0.4402668,0.0339 -0.626534,0 -1.007534,-0.19473 -1.007534,-0.5334 0,-0.23707 0.194734,-0.38947 0.499534,-0.38947 0.4741333,0 0.7958668,0.3048 0.9482668,0.889 z"
           style="fill:#502d16;fill-opacity:1;stroke-width:0.0700042"
           id="path954" />
        <path
           d="m -32.051319,139.98114 c -0.550333,0.22013 -1.3462,0.32173 -2.446867,0.32173 -1.380067,0 -1.744134,-0.1778 -1.811868,-0.889 -0.01693,-0.16933 -0.04233,-1.0922 -0.04233,-1.53246 0,-0.0423 0,-0.127 0,-0.1778 0.0085,-0.44874 0.0085,-0.44874 0.0085,-0.49107 0,-0.11007 0,-0.11853 0,-0.2286 1.176867,-0.0677 1.176867,-0.0677 2.463801,-0.11853 -0.0085,0.47413 -0.03387,0.8128 -0.0762,1.05833 -0.0508,0.3302 -0.143934,0.44027 -0.364067,0.44027 -0.254,0 -0.651934,-0.1524 -1.109134,-0.41487 0.04233,0.3048 0.05927,0.46567 0.05927,0.69427 0,0.11853 0,0.16933 -0.0085,0.33866 0.440267,0.2032 0.8128,0.28787 1.210734,0.28787 0.499533,0 0.846667,-0.21167 1.032934,-0.635 0.135466,-0.3048 0.211666,-0.9398 0.220133,-1.79493 0.397934,0 0.880534,-0.008 1.176867,-0.008 0.211667,0 0.287867,0 0.4826,0.0254 l -0.01693,-1.00753 c -0.2794,0.0339 -0.2794,0.0339 -1.642534,0.0762 0,-0.0423 0,-0.0762 0,-0.0931 0,-0.0169 0,-0.0762 0,-0.1778 0,-0.0508 0,-0.127 0,-0.254 v -0.5334 c 0,-0.21166 0.0085,-0.31326 0.04233,-0.5842 h -1.058333 c 0.0508,0.3302 0.0508,0.3302 0.0508,1.6764 -1.261534,0.0593 -1.261534,0.0593 -2.446868,0.11854 0.0254,-1.33774 0.0254,-1.33774 0.0762,-1.651 h -1.134534 c 0.0508,0.3048 0.05927,0.54186 0.05927,1.43933 0,0.0508 0,0.127 -0.0085,0.26247 -0.8382,0.0508 -1.303867,0.0762 -1.380067,0.0762 -0.04233,0 -0.127,0 -0.245533,-0.008 l 0.06773,0.9906 c 0.381,-0.0677 0.381,-0.0677 1.566334,-0.1524 -0.0085,0.6604 -0.0085,0.69427 -0.0085,0.82127 0,1.45626 0.03387,1.9304 0.1524,2.3114 0.254,0.8128 0.939801,1.1176 2.523068,1.1176 0.5588,0 1.676401,-0.0593 2.294468,-0.127 0.287866,-0.0339 0.287866,-0.0339 0.381,-0.0423 z"
           style="fill:#502d16;fill-opacity:1;stroke-width:0.0700042"
           id="path956" />
        <path
           d="m -29.409718,138.25394 c 0.287867,-0.11853 0.440267,-0.16087 0.982134,-0.28787 0.990601,-0.23706 1.642534,-0.3302 2.226734,-0.3302 0.897467,0 1.388534,0.3556 1.388534,1.016 0,0.46567 -0.194733,0.8382 -0.601133,1.143 -0.381,0.29634 -0.753534,0.44874 -1.413934,0.57574 -0.414867,0.0762 -0.889001,0.127 -1.202267,0.127 -0.03387,0 -0.06773,0 -0.127,0 0.211666,0.381 0.2794,0.54186 0.364066,0.9652 1.100668,-0.127 1.312334,-0.16087 1.837268,-0.32174 1.3462,-0.42333 2.142067,-1.33773 2.142067,-2.4638 0,-0.41486 -0.1016,-0.77046 -0.313266,-1.0922 -0.381001,-0.5842 -1.032934,-0.8636 -1.998135,-0.8636 -0.702733,0 -1.464733,0.1016 -2.616201,0.3556 -0.643467,0.14394 -0.643467,0.14394 -0.880533,0.16087 z"
           style="fill:#502d16;fill-opacity:1;stroke-width:0.0700042"
           id="path958" />
        <path
           d="m -22.241093,136.30661 c 0.3302,-0.0677 0.8382,-0.127 1.405467,-0.16934 1.837267,-0.13546 2.167468,-0.16086 2.853268,-0.26246 -0.550334,0.2794 -0.855134,0.49953 -1.176867,0.84666 -0.516467,0.56727 -0.804334,1.27847 -0.804334,1.99814 0,0.88053 0.4318,1.6002 1.210734,2.04046 0.516467,0.28787 1.049867,0.44027 1.981201,0.5588 0.143933,0.0169 0.186266,0.0254 0.287866,0.0508 l 0.1524,-1.15146 c -0.08467,0.008 -0.160866,0.008 -0.169333,0.008 -0.3048,0 -0.846667,-0.0931 -1.261534,-0.22013 -0.7112,-0.21167 -1.126067,-0.71967 -1.126067,-1.38007 0,-0.85513 0.635,-1.7018 1.710267,-2.2606 0.541867,-0.28786 1.168401,-0.4572 1.676401,-0.4572 0.08467,0 0.08467,0 0.1778,0.008 l -0.05927,-1.08373 c -0.152401,0.0423 -0.279401,0.0508 -0.973668,0.0847 -2.345267,0.11007 -3.750734,0.18627 -4.224868,0.21167 -1.2446,0.0847 -1.2446,0.0847 -1.397,0.0847 -0.04233,0 -0.135467,0 -0.321734,-0.008 z"
           style="fill:#502d16;fill-opacity:1;stroke-width:0.0700042"
           id="path960" />
        <path
           d="m -13.596624,134.86727 c 0.0254,0.18627 0.0254,0.24554 0.03387,0.54187 0.03387,2.34527 0.186266,3.57293 0.5334,4.4196 0.338667,0.8128 0.795867,1.22767 1.363134,1.22767 0.719667,0 1.210734,-0.6858 1.651,-2.3368 -0.414866,-0.3048 -0.550333,-0.4318 -0.846667,-0.77047 -0.09313,0.56727 -0.245533,1.07527 -0.448733,1.53247 -0.1016,0.23706 -0.220134,0.36406 -0.347134,0.36406 -0.270933,0 -0.541867,-0.54186 -0.6858,-1.4224 -0.09313,-0.51646 -0.160867,-1.53246 -0.160867,-2.26906 0,-0.5588 0.0254,-0.97367 0.06773,-1.28694 z m 4.2756683,0.80434 c 0.5080002,0.62653 0.9144004,1.31233 1.2022672,2.0828 0.2963334,0.77046 0.4910668,1.651 0.5418668,2.44686 l 1.0498671,-0.39793 c -0.2455334,-1.86267 -0.8382003,-3.2766 -1.9050007,-4.55507 z"
           style="fill:#502d16;fill-opacity:1;stroke-width:0.0700042"
           id="path962" />
        <path
           d="m -35.81052,151.72866 c 0.601134,-0.18627 1.1176,-0.2794 1.625601,-0.2794 0.905933,0 1.4986,0.47413 1.4986,1.20227 0,0.54186 -0.3556,0.9398 -0.855133,0.9398 -0.237067,0 -0.440267,-0.11007 -0.533401,-0.28787 -0.08467,-0.16087 -0.118533,-0.38947 -0.118533,-0.74507 0,-0.13546 0,-0.21166 0.01693,-0.37253 -0.364067,0.19473 -0.508,0.254 -0.9398,0.37253 0,0.51647 0.03387,0.79587 0.143933,1.08374 0.220134,0.6096 0.702734,0.9398 1.388534,0.9398 1.100667,0 1.921934,-0.82973 1.921934,-1.9304 0,-1.20227 -1.007533,-2.06587 -2.421467,-2.06587 -0.618067,0 -1.151468,0.0677 -1.727201,0.23707 v -1.10067 c 0.321733,-0.0339 0.491067,-0.0593 0.770467,-0.11007 0.5842,-0.1016 0.745067,-0.127 0.897467,-0.1524 l -0.03387,-0.94826 c -0.4318,0.13546 -0.999067,0.24553 -1.634067,0.32173 v -0.54187 c 0,-0.47413 0.0085,-0.65193 0.0508,-0.92286 h -1.058334 c 0.04233,0.27093 0.0508,0.49106 0.0508,0.97366 v 0.5588 c -0.09313,0 -0.135467,0 -0.338667,0.008 -0.118533,0.008 -0.211666,0.008 -0.296333,0.008 -0.448734,0 -0.7874,-0.0254 -1.024467,-0.0762 l 0.0085,0.94826 c 0.0762,-0.008 0.143933,-0.008 0.1778,-0.008 0.0254,0 0.1016,0 0.211666,0.008 0.1016,0 0.338667,0.008 0.465667,0.008 0.211667,0 0.3302,0 0.4572,-0.008 0.279401,-0.0169 0.279401,-0.0169 0.347134,-0.0169 l 0.0085,1.30387 c -0.558801,0.23706 -0.931334,0.4572 -1.236134,0.71966 -0.465667,0.4064 -0.728134,0.85514 -0.728134,1.25307 0,0.36407 0.160867,0.69427 0.465667,0.95674 0.423333,0.36406 1.0668,0.60113 1.600201,0.60113 0.397933,0 0.702733,-0.19473 0.778933,-0.49107 0.0508,-0.16933 0.06773,-0.37253 0.06773,-0.71967 z m -0.948267,1.54093 c 0,0.2794 -0.04233,0.3556 -0.186267,0.3556 -0.160867,0 -0.372533,-0.0677 -0.541867,-0.18626 -0.194733,-0.11854 -0.2794,-0.24554 -0.2794,-0.38947 0,-0.3048 0.372534,-0.67733 1.007534,-1.016 z m 5.469469,-3.57293 c -0.448734,-0.6604 -0.939801,-1.1684 -1.676401,-1.73567 l -0.795867,0.5334 c 0.651934,0.49107 1.270001,1.15994 1.693334,1.8288 z"
           style="fill:#502d16;fill-opacity:1;stroke-width:0.0700042"
           id="path964" />
        <path
           d="m -29.968518,153.28653 c 0.110067,-0.16934 0.347134,-0.4318 0.651934,-0.72814 0.254,-0.24553 0.313267,-0.31326 0.372533,-0.39793 h 0.01693 c -0.01693,0.16933 -0.01693,0.26247 -0.01693,0.49953 v 0.75354 c 0,0.85513 -0.0085,1.10067 -0.0508,1.35467 h 1.100667 c -0.04233,-0.37254 -0.06773,-1.32081 -0.06773,-2.53154 l 0.0085,-0.88053 c 0.931333,-0.84667 1.761067,-1.27847 2.463801,-1.27847 0.889,0 1.4478,0.56727 1.4478,1.4732 0,1.03293 -0.7112,1.7526 -1.7272,1.7526 -0.508001,0 -1.032934,-0.11007 -1.507068,-0.31327 0.135467,0.46567 0.160867,0.65194 0.160867,1.10067 0.4318,0.127 0.829734,0.18627 1.261534,0.18627 0.575733,0 1.075267,-0.11007 1.507067,-0.32173 0.8382,-0.43181 1.346201,-1.32927 1.346201,-2.39607 0,-0.6858 -0.2286,-1.30387 -0.651934,-1.74414 -0.423333,-0.4318 -1.0414,-0.69426 -1.651001,-0.69426 -0.829733,0 -1.515533,0.26246 -2.438401,0.93133 -0.110066,0.0762 -0.169333,0.127 -0.2032,0.16087 l -0.01693,0.008 c 0.0085,-0.0254 0.01693,-0.21166 0.03387,-0.57573 0.3048,-0.381 0.364067,-0.44873 0.4826,-0.55033 l -0.321734,-0.34714 c -0.04233,0.0254 -0.05927,0.0254 -0.118533,0.0423 0,-0.0847 0,-0.0847 0,-0.1524 0.01693,-0.23707 0.01693,-0.23707 0.0254,-0.39794 0.03387,-0.5842 0.03387,-0.59266 0.08467,-0.8128 l -1.092201,-0.008 c 0.0254,0.16933 0.03387,0.23706 0.03387,0.37253 0,0.008 0,0.0423 0,0.0847 0,0.0762 -0.0085,0.19473 -0.0085,0.3556 0,0.3048 -0.0085,0.41486 -0.0254,0.635 -0.474133,0.0339 -0.9398,0.0593 -1.0922,0.0593 -0.0762,0 -0.143933,-0.008 -0.2794,-0.0169 l 0.05927,0.95673 c 0.262466,-0.0508 0.262466,-0.0508 1.286933,-0.127 -0.01693,0.69427 -0.01693,0.70274 -0.03387,1.2192 -1.007534,0.93134 -1.337734,1.2192 -1.532468,1.35467 z"
           style="fill:#502d16;fill-opacity:1;stroke-width:0.0700042"
           id="path966" />
        <path
           d="m -19.038047,150.80579 c 0.135467,-0.0762 0.135467,-0.0762 0.347134,-0.22013 0.169333,-0.11007 0.778933,-0.56727 0.931333,-0.69427 0.287867,-0.24553 0.905934,-0.79586 1.329268,-1.18533 0.237066,-0.22013 0.296333,-0.27093 0.440266,-0.34713 l -0.524933,-0.74507 c -0.135467,0.0677 -0.2286,0.0847 -0.524934,0.11007 -0.821267,0.0593 -1.8542,0.1016 -2.573867,0.1016 -0.465667,0 -0.711201,-0.0169 -0.999067,-0.0508 l 0.04233,1.016 c 0.160867,-0.0254 0.220133,-0.0339 0.4064,-0.0423 1.532467,-0.0677 2.074334,-0.1016 2.396068,-0.14393 l 0.0085,0.008 c -0.0508,0.0508 -0.135466,0.13546 -0.1524,0.1524 -0.643467,0.65193 -1.744134,1.6002 -2.531534,2.20133 -0.5588,0.42333 -0.897467,0.65193 -1.1938,0.79587 l 0.575733,0.9144 c 1.016001,-0.92287 2.252134,-1.4224 3.488268,-1.4224 1.024467,0 1.676401,0.4318 1.676401,1.0922 0,0.60113 -0.3048,0.9652 -1.007534,1.22766 -0.127,-0.36406 -0.220133,-0.55033 -0.389467,-0.762 -0.3556,-0.44873 -0.872067,-0.69426 -1.464734,-0.69426 -0.846667,0 -1.456267,0.508 -1.456267,1.21073 0,0.381 0.186267,0.7366 0.508,0.97367 0.338667,0.254 0.931334,0.38947 1.642534,0.38947 0.778934,0 1.498601,-0.16934 2.048934,-0.4826 0.753534,-0.42334 1.151468,-1.06681 1.151468,-1.87114 0,-1.15993 -0.931334,-1.905 -2.379135,-1.905 -0.635,0 -1.007533,0.0847 -1.778,0.38947 z m 1.219201,3.01414 c -0.237067,0.0339 -0.2794,0.0339 -0.440267,0.0339 -0.626534,0 -1.007534,-0.19474 -1.007534,-0.53341 0,-0.23706 0.194734,-0.38946 0.499534,-0.38946 0.474133,0 0.795867,0.3048 0.948267,0.889 z"
           style="fill:#502d16;fill-opacity:1;stroke-width:0.0700042"
           id="path968" />
      </g>
    </g>
  </g>
</svg>
