<?xml version="1.0" encoding="UTF-8" standalone="no"?>
<svg
   xmlns:dc="http://purl.org/dc/elements/1.1/"
   xmlns:cc="http://creativecommons.org/ns#"
   xmlns:rdf="http://www.w3.org/1999/02/22-rdf-syntax-ns#"
   xmlns:svg="http://www.w3.org/2000/svg"
   xmlns="http://www.w3.org/2000/svg"
   xmlns:sodipodi="http://sodipodi.sourceforge.net/DTD/sodipodi-0.dtd"
   xmlns:inkscape="http://www.inkscape.org/namespaces/inkscape"
   width="26.401976mm"
   height="2.77282mm"
   viewBox="0 0 26.401976 2.77282"
   version="1.1"
   id="svg4974"
   inkscape:version="1.0.1 (c497b03c, 2020-09-10)"
   sodipodi:docname="start_copyright_en.svg">
  <defs
     id="defs4968" />
  <sodipodi:namedview
     id="base"
     pagecolor="#ffffff"
     bordercolor="#666666"
     borderopacity="1.0"
     inkscape:pageopacity="0.0"
     inkscape:pageshadow="2"
     inkscape:zoom="3.9903124"
     inkscape:cx="70.532345"
     inkscape:cy="45.056731"
     inkscape:document-units="mm"
     inkscape:current-layer="layer1"
     inkscape:document-rotation="0"
     showgrid="false"
     fit-margin-top="0"
     fit-margin-left="0"
     fit-margin-right="0"
     fit-margin-bottom="0"
     inkscape:window-width="1440"
     inkscape:window-height="697"
     inkscape:window-x="0"
     inkscape:window-y="25"
     inkscape:window-maximized="0" />
  <metadata
     id="metadata4971">
    <rdf:RDF>
      <cc:Work
         rdf:about="">
        <dc:format>image/svg+xml</dc:format>
        <dc:type
           rdf:resource="http://purl.org/dc/dcmitype/StillImage" />
        <dc:title></dc:title>
      </cc:Work>
    </rdf:RDF>
  </metadata>
  <g
     inkscape:label="レイヤー 1"
     inkscape:groupmode="layer"
     id="layer1"
     transform="translate(-60.497829,-195.56778)">
    <g
       aria-label="©︎ 2021 すずらん"
       id="text4978"
       style="font-weight:600;font-size:2.90355px;line-height:1.25;font-family:'Hiragino Kaku Gothic Pro';-inkscape-font-specification:'Hiragino Kaku Gothic Pro, Semi-Bold';fill:#502d16;fill-opacity:1;stroke-width:0.034026">
      <path
         d="m 62.285328,196.66967 c -0.06805,-0.31758 -0.303966,-0.49451 -0.653299,-0.49451 -0.467291,0 -0.753109,0.30396 -0.753109,0.79394 0,0.49904 0.290355,0.80301 0.757645,0.80301 0.372018,0 0.589784,-0.1724 0.671447,-0.53534 l -0.390165,-0.059 c -0.02268,0.1724 -0.12703,0.26767 -0.290355,0.26767 -0.222303,0 -0.358407,-0.18147 -0.358407,-0.4809 0,-0.29489 0.131567,-0.46729 0.349333,-0.46729 0.154251,0 0.249524,0.0817 0.285819,0.24952 z m -0.675983,-0.80755 c -0.612468,0 -1.111516,0.49905 -1.111516,1.11605 0,0.61247 0.499048,1.11152 1.116052,1.11152 0.612468,0 1.111516,-0.49905 1.111516,-1.11606 0,-0.61246 -0.499048,-1.11151 -1.116052,-1.11151 z m 0.0045,0.11342 c 0.55349,0 0.998096,0.4446 0.998096,0.99809 0,0.55803 -0.444606,1.00264 -0.998096,1.00264 -0.558026,0 -1.002632,-0.44461 -1.002632,-1.00264 0,-0.55349 0.444606,-0.99809 1.002632,-0.99809 z"
         style="font-size:4.5368px;fill:#502d16;fill-opacity:1;stroke-width:0.034026"
         id="path5745" />
      <path
         d="m 65.465926,198.06278 c 0.15875,0 0.263525,0.006 0.390525,0.019 v -0.2667 c -0.12065,0.0159 -0.2286,0.0222 -0.38735,0.0222 h -1.012825 c 0.0381,-0.1524 0.08255,-0.23812 0.180975,-0.3683 0.104775,-0.13335 0.206375,-0.22225 0.4572,-0.39052 0.36195,-0.2413 0.4445,-0.30163 0.53975,-0.40958 0.123825,-0.13652 0.187325,-0.28892 0.187325,-0.45085 0,-0.37465 -0.307975,-0.61595 -0.7874,-0.61595 -0.2794,0 -0.4953,0.0825 -0.638175,0.24448 -0.104775,0.11747 -0.1524,0.2286 -0.200025,0.4572 l 0.2667,0.0444 c 0.02223,-0.15875 0.0508,-0.23495 0.111125,-0.32068 0.09525,-0.13652 0.250825,-0.20637 0.460375,-0.20637 0.32385,0 0.52705,0.15557 0.52705,0.39687 0,0.19368 -0.104775,0.33338 -0.4191,0.5461 -0.3683,0.25083 -0.37465,0.254 -0.485775,0.34925 -0.200025,0.17145 -0.333375,0.34608 -0.41275,0.5461 -0.04762,0.12065 -0.05715,0.16828 -0.09207,0.4191 0.1016,-0.0127 0.149225,-0.0159 0.34925,-0.0159 z"
         style="font-style:normal;font-variant:normal;font-weight:300;font-stretch:normal;font-size:3.175px;font-family:'Hiragino Kaku Gothic Pro';-inkscape-font-specification:'Hiragino Kaku Gothic Pro, Light';font-variant-ligatures:normal;font-variant-caps:normal;font-variant-numeric:normal;font-variant-east-asian:normal;fill:#502d16;fill-opacity:1"
         id="path5747" />
      <path
         d="m 67.089144,198.1104 c 0.2921,0 0.51435,-0.11112 0.6731,-0.33337 0.1397,-0.19368 0.22225,-0.5334 0.22225,-0.91758 0,-0.26352 -0.04127,-0.51752 -0.12065,-0.7366 -0.0381,-0.10477 -0.1016,-0.2032 -0.1905,-0.2921 -0.142875,-0.14922 -0.346075,-0.22542 -0.581025,-0.22542 -0.314325,0 -0.5588,0.13335 -0.7112,0.39052 -0.111125,0.18415 -0.18415,0.52705 -0.18415,0.8636 0,0.26035 0.04127,0.51118 0.12065,0.73343 0.0381,0.10795 0.104775,0.20637 0.1905,0.2921 0.149225,0.14922 0.346075,0.22542 0.581025,0.22542 z m 0,-2.286 c 0.22225,0 0.3937,0.0984 0.498475,0.28893 0.08255,0.14922 0.142875,0.46355 0.142875,0.73977 0,0.23495 -0.03175,0.4445 -0.09842,0.64135 -0.02858,0.0921 -0.07937,0.17463 -0.149225,0.24765 -0.09525,0.0984 -0.231775,0.14923 -0.390525,0.14923 -0.2159,0 -0.381,-0.0921 -0.492125,-0.27623 -0.08572,-0.14922 -0.149225,-0.46037 -0.149225,-0.75565 0,-0.23177 0.03175,-0.44767 0.09843,-0.64135 0.0254,-0.0794 0.0762,-0.15875 0.142875,-0.23177 0.1016,-0.10795 0.231775,-0.16193 0.396875,-0.16193 z"
         style="font-style:normal;font-variant:normal;font-weight:300;font-stretch:normal;font-size:3.175px;font-family:'Hiragino Kaku Gothic Pro';-inkscape-font-specification:'Hiragino Kaku Gothic Pro, Light';font-variant-ligatures:normal;font-variant-caps:normal;font-variant-numeric:normal;font-variant-east-asian:normal;fill:#502d16;fill-opacity:1"
         id="path5749" />
      <path
         d="m 69.633113,198.06278 c 0.15875,0 0.263525,0.006 0.390525,0.019 v -0.2667 c -0.12065,0.0159 -0.2286,0.0222 -0.38735,0.0222 h -1.012825 c 0.0381,-0.1524 0.08255,-0.23812 0.180975,-0.3683 0.104775,-0.13335 0.206375,-0.22225 0.4572,-0.39052 0.36195,-0.2413 0.4445,-0.30163 0.53975,-0.40958 0.123825,-0.13652 0.187325,-0.28892 0.187325,-0.45085 0,-0.37465 -0.307975,-0.61595 -0.7874,-0.61595 -0.2794,0 -0.4953,0.0825 -0.638175,0.24448 -0.104775,0.11747 -0.1524,0.2286 -0.200025,0.4572 l 0.2667,0.0444 c 0.02223,-0.15875 0.0508,-0.23495 0.111125,-0.32068 0.09525,-0.13652 0.250825,-0.20637 0.460375,-0.20637 0.32385,0 0.52705,0.15557 0.52705,0.39687 0,0.19368 -0.104775,0.33338 -0.4191,0.5461 -0.3683,0.25083 -0.37465,0.254 -0.485775,0.34925 -0.200025,0.17145 -0.333375,0.34608 -0.41275,0.5461 -0.04762,0.12065 -0.05715,0.16828 -0.09207,0.4191 0.1016,-0.0127 0.149225,-0.0159 0.34925,-0.0159 z"
         style="font-style:normal;font-variant:normal;font-weight:300;font-stretch:normal;font-size:3.175px;font-family:'Hiragino Kaku Gothic Pro';-inkscape-font-specification:'Hiragino Kaku Gothic Pro, Light';font-variant-ligatures:normal;font-variant-caps:normal;font-variant-numeric:normal;font-variant-east-asian:normal;fill:#502d16;fill-opacity:1"
         id="path5751" />
      <path
         d="m 70.726106,195.88473 c 0.09207,-0.0127 0.174625,-0.019 0.276225,-0.019 h 0.17145 v 1.83832 c 0,0.14605 -0.0064,0.24765 -0.0254,0.35878 h 0.301625 c -0.01905,-0.11748 -0.0254,-0.20955 -0.0254,-0.35878 V 196.161 c 0,-0.17145 0.0095,-0.33337 0.02858,-0.52705 -0.104775,0.0127 -0.155575,0.0159 -0.263525,0.0159 h -0.200025 c -0.12065,0 -0.180975,-0.003 -0.263525,-0.0159 z"
         style="font-style:normal;font-variant:normal;font-weight:300;font-stretch:normal;font-size:3.175px;font-family:'Hiragino Kaku Gothic Pro';-inkscape-font-specification:'Hiragino Kaku Gothic Pro, Light';font-variant-ligatures:normal;font-variant-caps:normal;font-variant-numeric:normal;font-variant-east-asian:normal;fill:#502d16;fill-opacity:1"
         id="path5753" />
    </g>
    <g
       aria-label="Suzuran"
       id="text1208"
       style="font-style:normal;font-variant:normal;font-weight:300;font-stretch:normal;font-size:3.52778px;line-height:1.25;font-family:'Hiragino Kaku Gothic Pro';-inkscape-font-specification:'Hiragino Kaku Gothic Pro, Light';font-variant-ligatures:normal;font-variant-caps:normal;font-variant-numeric:normal;font-variant-east-asian:normal;opacity:1;fill:#502d16;fill-opacity:1;stroke-width:0.264583">
      <path
         d="m 75.066741,196.26628 c -0.0388,-0.17992 -0.07408,-0.26811 -0.155222,-0.37395 -0.15875,-0.21166 -0.430389,-0.32455 -0.779639,-0.32455 -0.546806,0 -0.903112,0.28575 -0.903112,0.73025 0,0.24694 0.109361,0.43391 0.328083,0.55739 0.119945,0.067 0.257528,0.11641 0.479778,0.16227 0.426862,0.0953 0.465667,0.10584 0.582084,0.17287 0.134056,0.0741 0.204611,0.20461 0.204611,0.37747 0,0.32808 -0.254,0.52564 -0.673806,0.52564 -0.261055,0 -0.472722,-0.0882 -0.589139,-0.24342 -0.07408,-0.0952 -0.09878,-0.17992 -0.109361,-0.34925 l -0.306917,0.0388 c 0.03528,0.23283 0.07408,0.34219 0.165806,0.46566 0.162278,0.21873 0.455083,0.33514 0.850195,0.33514 0.606778,0 0.948973,-0.28222 0.948973,-0.77964 0,-0.40922 -0.225778,-0.62441 -0.790223,-0.74436 -0.405695,-0.0882 -0.409223,-0.0882 -0.504473,-0.127 -0.208139,-0.0847 -0.306917,-0.21519 -0.306917,-0.39864 0,-0.28575 0.254001,-0.47978 0.617362,-0.47978 0.229306,0 0.409222,0.0706 0.522111,0.20462 0.06703,0.0811 0.09525,0.15169 0.123473,0.2928 z"
         style="font-style:normal;font-variant:normal;font-weight:300;font-stretch:normal;font-size:3.52778px;font-family:'Hiragino Kaku Gothic Pro';-inkscape-font-specification:'Hiragino Kaku Gothic Pro, Light';font-variant-ligatures:normal;font-variant-caps:normal;font-variant-numeric:normal;font-variant-east-asian:normal;fill:#502d16;fill-opacity:1;stroke-width:0.264583"
         id="path1210" />
      <path
         d="m 76.9503,198.29475 h 0.292806 c -0.02117,-0.14111 -0.02822,-0.23989 -0.02822,-0.39864 v -1.10419 c 0,-0.16228 0.0071,-0.27517 0.02469,-0.39864 h -0.313972 c 0.01764,0.12347 0.02469,0.24694 0.02469,0.39864 v 0.68086 c -0.03175,0.14111 -0.07055,0.2293 -0.162278,0.35278 -0.141111,0.1905 -0.306917,0.27869 -0.508,0.27869 -0.275167,0 -0.426861,-0.17639 -0.426861,-0.49036 v -0.82197 c 0,-0.15523 0.0071,-0.27517 0.02469,-0.39864 h -0.3175 c 0.01764,0.11289 0.02469,0.23636 0.02469,0.39511 v 0.87136 c 0,0.16933 0.03528,0.30692 0.09878,0.40922 0.112889,0.16934 0.310445,0.26106 0.564445,0.26106 0.3175,0 0.536223,-0.13053 0.712612,-0.41981 -0.01058,0.0917 -0.01058,0.11642 -0.01058,0.15523 z"
         style="font-style:normal;font-variant:normal;font-weight:300;font-stretch:normal;font-size:3.52778px;font-family:'Hiragino Kaku Gothic Pro';-inkscape-font-specification:'Hiragino Kaku Gothic Pro, Light';font-variant-ligatures:normal;font-variant-caps:normal;font-variant-numeric:normal;font-variant-east-asian:normal;fill:#502d16;fill-opacity:1;stroke-width:0.264583"
         id="path1212" />
      <path
         d="m 79.06763,196.38269 c -0.09878,0.0106 -0.155222,0.0106 -0.373945,0.0106 H 78.06574 c -0.155222,0 -0.257528,-0.007 -0.395111,-0.0247 v 0.28575 c 0.134056,-0.0176 0.246945,-0.0247 0.395111,-0.0247 h 0.479778 c 0.04939,0 0.08114,0 0.176389,-0.007 -0.04233,0.0459 -0.06703,0.0741 -0.105833,0.127 l -0.776112,1.03717 c -0.09172,0.12347 -0.162277,0.20461 -0.239889,0.28575 v 0.23283 c 0.09878,-0.007 0.172862,-0.0106 0.391584,-0.0106 h 0.747889 c 0.179917,0 0.271639,0.007 0.398639,0.0247 v -0.28928 c -0.116416,0.0176 -0.215194,0.0247 -0.398639,0.0247 h -0.557389 c -0.05997,0 -0.07056,0 -0.243417,0.007 0.07408,-0.0917 0.127,-0.15875 0.134056,-0.16581 l 0.758473,-1.01247 c 0.08819,-0.11995 0.148166,-0.19403 0.236361,-0.28928 z"
         style="font-style:normal;font-variant:normal;font-weight:300;font-stretch:normal;font-size:3.52778px;font-family:'Hiragino Kaku Gothic Pro';-inkscape-font-specification:'Hiragino Kaku Gothic Pro, Light';font-variant-ligatures:normal;font-variant-caps:normal;font-variant-numeric:normal;font-variant-east-asian:normal;fill:#502d16;fill-opacity:1;stroke-width:0.264583"
         id="path1214" />
      <path
         d="m 80.884602,198.29475 h 0.292805 c -0.02117,-0.14111 -0.02822,-0.23989 -0.02822,-0.39864 v -1.10419 c 0,-0.16228 0.0071,-0.27517 0.02469,-0.39864 h -0.313973 c 0.01764,0.12347 0.02469,0.24694 0.02469,0.39864 v 0.68086 c -0.03175,0.14111 -0.07056,0.2293 -0.162278,0.35278 -0.141111,0.1905 -0.306917,0.27869 -0.508001,0.27869 -0.275166,0 -0.426861,-0.17639 -0.426861,-0.49036 v -0.82197 c 0,-0.15523 0.0071,-0.27517 0.02469,-0.39864 h -0.3175 c 0.01764,0.11289 0.02469,0.23636 0.02469,0.39511 v 0.87136 c 0,0.16933 0.03528,0.30692 0.09878,0.40922 0.112889,0.16934 0.310444,0.26106 0.564444,0.26106 0.317501,0 0.536223,-0.13053 0.712612,-0.41981 -0.01058,0.0917 -0.01058,0.11642 -0.01058,0.15523 z"
         style="font-style:normal;font-variant:normal;font-weight:300;font-stretch:normal;font-size:3.52778px;font-family:'Hiragino Kaku Gothic Pro';-inkscape-font-specification:'Hiragino Kaku Gothic Pro, Light';font-variant-ligatures:normal;font-variant-caps:normal;font-variant-numeric:normal;font-variant-east-asian:normal;fill:#502d16;fill-opacity:1;stroke-width:0.264583"
         id="path1216" />
      <path
         d="m 82.896098,196.39328 c -0.148167,-0.0247 -0.208139,-0.0318 -0.313973,-0.0318 -0.169333,0 -0.289278,0.0353 -0.423333,0.12347 -0.07408,0.0494 -0.127,0.10583 -0.194028,0.21519 0.0035,-0.0247 0.0035,-0.0776 0.0035,-0.10583 v -0.20108 h -0.292806 c 0.01764,0.127 0.02469,0.22225 0.02469,0.39864 v 1.10419 c 0,0.14464 -0.0071,0.23636 -0.02469,0.39864 h 0.3175 c -0.01764,-0.13758 -0.02469,-0.23636 -0.02469,-0.39511 v -0.71967 c 0.01411,-0.15875 0.04586,-0.24341 0.130528,-0.35278 0.105833,-0.14111 0.254,-0.21519 0.433916,-0.21519 0.08819,0 0.151695,0.0106 0.285751,0.0529 z"
         style="font-style:normal;font-variant:normal;font-weight:300;font-stretch:normal;font-size:3.52778px;font-family:'Hiragino Kaku Gothic Pro';-inkscape-font-specification:'Hiragino Kaku Gothic Pro, Light';font-variant-ligatures:normal;font-variant-caps:normal;font-variant-numeric:normal;font-variant-east-asian:normal;fill:#502d16;fill-opacity:1;stroke-width:0.264583"
         id="path1218" />
      <path
         d="m 84.447219,198.29475 h 0.28575 c -0.02117,-0.14111 -0.02822,-0.2293 -0.02822,-0.38805 v -0.99131 c 0,-0.381 -0.239889,-0.57856 -0.705556,-0.57856 -0.264584,0 -0.47625,0.067 -0.620889,0.20109 -0.08819,0.0776 -0.134056,0.15169 -0.197556,0.31397 l 0.275167,0.06 c 0.03528,-0.10583 0.0635,-0.15522 0.109361,-0.20461 0.09878,-0.10231 0.243417,-0.15169 0.437445,-0.15169 0.292805,0 0.4445,0.12347 0.4445,0.36336 v 0.20461 c -0.433917,0.0106 -0.60325,0.0318 -0.811389,0.0917 -0.328084,0.0917 -0.504473,0.29633 -0.504473,0.57856 0,0.33514 0.236361,0.53622 0.624417,0.53622 0.119945,0 0.246945,-0.0247 0.366889,-0.0706 0.119945,-0.0459 0.186973,-0.0917 0.324556,-0.21519 z m 0,-0.73378 c 0,0.14111 -0.02822,0.2152 -0.109361,0.30339 -0.137584,0.1517 -0.359834,0.25047 -0.564445,0.25047 -0.229306,0 -0.373945,-0.12347 -0.373945,-0.3175 0,-0.16933 0.08819,-0.28927 0.268112,-0.36336 0.15875,-0.067 0.359833,-0.0917 0.779639,-0.1023 z"
         style="font-style:normal;font-variant:normal;font-weight:300;font-stretch:normal;font-size:3.52778px;font-family:'Hiragino Kaku Gothic Pro';-inkscape-font-specification:'Hiragino Kaku Gothic Pro, Light';font-variant-ligatures:normal;font-variant-caps:normal;font-variant-numeric:normal;font-variant-east-asian:normal;fill:#502d16;fill-opacity:1;stroke-width:0.264583"
         id="path1220" />
      <path
         d="m 85.534546,198.29475 c -0.01764,-0.13758 -0.02469,-0.24342 -0.02469,-0.39864 v -0.68086 c 0.02822,-0.14111 0.07055,-0.22931 0.162278,-0.34925 0.148166,-0.1905 0.306917,-0.27869 0.504472,-0.27869 0.278695,0 0.430389,0.16933 0.430389,0.48683 v 0.82197 c 0,0.15522 -0.0071,0.26106 -0.02469,0.39864 h 0.3175 c -0.01764,-0.11642 -0.02469,-0.21519 -0.02469,-0.39511 v -0.87136 c 0,-0.17286 -0.03175,-0.30339 -0.09878,-0.4057 -0.112889,-0.17286 -0.310445,-0.26458 -0.564445,-0.26458 -0.3175,0 -0.546806,0.13758 -0.712611,0.42686 0.01058,-0.0811 0.01058,-0.10936 0.01058,-0.15169 v -0.23989 h -0.292806 c 0.02117,0.14111 0.02822,0.23989 0.02822,0.39864 v 1.10419 c 0,0.16934 -0.0071,0.26459 -0.02822,0.39864 z"
         style="font-style:normal;font-variant:normal;font-weight:300;font-stretch:normal;font-size:3.52778px;font-family:'Hiragino Kaku Gothic Pro';-inkscape-font-specification:'Hiragino Kaku Gothic Pro, Light';font-variant-ligatures:normal;font-variant-caps:normal;font-variant-numeric:normal;font-variant-east-asian:normal;fill:#502d16;fill-opacity:1;stroke-width:0.264583"
         id="path1222" />
    </g>
  </g>
</svg>
