<?xml version="1.0" encoding="UTF-8" standalone="no"?>
<svg
   xmlns:dc="http://purl.org/dc/elements/1.1/"
   xmlns:cc="http://creativecommons.org/ns#"
   xmlns:rdf="http://www.w3.org/1999/02/22-rdf-syntax-ns#"
   xmlns:svg="http://www.w3.org/2000/svg"
   xmlns="http://www.w3.org/2000/svg"
   xmlns:sodipodi="http://sodipodi.sourceforge.net/DTD/sodipodi-0.dtd"
   xmlns:inkscape="http://www.inkscape.org/namespaces/inkscape"
   width="50"
   height="50"
   viewBox="0 0 13.229166 13.229167"
   version="1.1"
   id="svg8"
   inkscape:version="1.0.1 (c497b03c, 2020-09-10)"
   sodipodi:docname="fly.svg">
  <defs
     id="defs2" />
  <sodipodi:namedview
     id="base"
     pagecolor="#ffffff"
     bordercolor="#666666"
     borderopacity="1.0"
     inkscape:pageopacity="0.0"
     inkscape:pageshadow="2"
     inkscape:zoom="8.5207772"
     inkscape:cx="30.273854"
     inkscape:cy="36.888561"
     inkscape:document-units="mm"
     inkscape:current-layer="layer1"
     inkscape:document-rotation="0"
     showgrid="false"
     units="px"
     inkscape:window-width="1440"
     inkscape:window-height="847"
     inkscape:window-x="0"
     inkscape:window-y="25"
     inkscape:window-maximized="0" />
  <metadata
     id="metadata5">
    <rdf:RDF>
      <cc:Work
         rdf:about="">
        <dc:format>image/svg+xml</dc:format>
        <dc:type
           rdf:resource="http://purl.org/dc/dcmitype/StillImage" />
        <dc:title />
      </cc:Work>
    </rdf:RDF>
  </metadata>
  <g
     inkscape:label="レイヤー 1"
     inkscape:groupmode="layer"
     id="layer1">
    <path
       style="fill:none;stroke:#000000;stroke-width:0.264583px;stroke-linecap:butt;stroke-linejoin:miter;stroke-opacity:1"
       d="M 2.4766433,10.825957 1.5734825,11.799588"
       id="path879" />
    <path
       style="fill:none;stroke:#000000;stroke-width:0.264583px;stroke-linecap:butt;stroke-linejoin:miter;stroke-opacity:1"
       d="M 2.9148243,10.950395 3.1714541,12.25339"
       id="path881" />
    <path
       style="fill:none;stroke:#000000;stroke-width:0.264583px;stroke-linecap:butt;stroke-linejoin:miter;stroke-opacity:1"
       d="M 8.561046,11.108008 8.3805111,12.423707"
       id="path883" />
    <path
       style="fill:none;stroke:#000000;stroke-width:0.264583px;stroke-linecap:butt;stroke-linejoin:miter;stroke-opacity:1"
       d="M 8.9912619,10.958336 9.9494353,11.87788"
       id="path885" />
    <path
       id="path837"
       style="fill:#ffffff;fill-opacity:1;fill-rule:evenodd;stroke:#000000;stroke-width:0.108081;stroke-linecap:round;stroke-linejoin:round;stroke-miterlimit:4;stroke-dasharray:none;stroke-dashoffset:1.8;stroke-opacity:1"
       transform="rotate(-15)"
       d="M 5.6239484,3.4782317 A 0.89432603,1.3179542 0 0 1 4.7296224,4.7961859 0.89432603,1.3179542 0 0 1 3.8352963,3.4782317 0.89432603,1.3179542 0 0 1 4.7296224,2.1602775 0.89432603,1.3179542 0 0 1 5.6239484,3.4782317 Z" />
    <path
       id="ellipse841"
       style="fill:#ffffff;fill-opacity:1;fill-rule:evenodd;stroke:#000000;stroke-width:0.108081;stroke-linecap:round;stroke-linejoin:round;stroke-miterlimit:4;stroke-dasharray:none;stroke-dashoffset:1.8;stroke-opacity:1"
       transform="rotate(30)"
       d="m 7.6887615,-1.4567932 a 0.89432603,1.3179542 0 0 1 -0.894326,1.31795419 0.89432603,1.3179542 0 0 1 -0.894326,-1.31795419 0.89432603,1.3179542 0 0 1 0.894326,-1.3179542 0.89432603,1.3179542 0 0 1 0.894326,1.3179542 z" />
    <path
       style="fill:none;stroke:#000000;stroke-width:0.171595px;stroke-linecap:butt;stroke-linejoin:miter;stroke-opacity:1"
       d="m 2.4478857,3.9801577 c 0,0 -0.00851,-2.0524582 -2.23043511,-2.0524582"
       id="path843"
       sodipodi:nodetypes="cc" />
    <path
       id="path847"
       style="fill:#000000;fill-opacity:1;fill-rule:evenodd;stroke:none;stroke-width:0.0648552;stroke-linecap:round;stroke-linejoin:round;stroke-miterlimit:4;stroke-dasharray:none;stroke-dashoffset:1.8;stroke-opacity:1"
       d="M 0.41425757,1.9276996 A 0.20712879,0.20712879 0 0 1 0.20712878,2.1348285 0.20712879,0.20712879 0 0 1 0,1.9276996 0.20712879,0.20712879 0 0 1 0.20712878,1.7205709 0.20712879,0.20712879 0 0 1 0.41425757,1.9276996 Z" />
    <path
       id="path833"
       style="fill:#ffd400;fill-opacity:1;fill-rule:evenodd;stroke:none;stroke-width:1.08081;stroke-linecap:round;stroke-linejoin:round;stroke-dashoffset:1.8"
       d="m 13.229167,7.3336082 c 0,0 -1.756052,0.629363 -1.832736,0.929648 C 10.705155,10.50696 8.9649463,11.978703 5.7566931,11.946448 2.5773593,11.946448 -7.4493047e-8,9.8812092 0,7.3336082 0,4.7860073 2.5773593,2.7207689 5.7566931,2.7207688 c 3.1118856,-0.013873 5.0127639,1.2748946 5.6397379,3.6831914 0.07668,0.3002847 1.832736,0.929648 1.832736,0.929648 z"
       sodipodi:nodetypes="cccsccc" />
    <path
       id="path835"
       style="fill:#000000;fill-opacity:1;fill-rule:evenodd;stroke:none;stroke-width:1.08081;stroke-linecap:round;stroke-linejoin:round;stroke-dashoffset:1.8"
       d="M 1.7886522,5.6501427 A 0.43931806,0.43931806 0 0 1 1.3493341,6.0894607 0.43931806,0.43931806 0 0 1 0.91001606,5.6501427 0.43931806,0.43931806 0 0 1 1.3493341,5.2108246 0.43931806,0.43931806 0 0 1 1.7886522,5.6501427 Z" />
    <path
       id="path871"
       style="fill:#000000;fill-opacity:1;fill-rule:evenodd;stroke:none;stroke-width:1.08081;stroke-linecap:round;stroke-linejoin:round;stroke-dashoffset:1.8"
       d="m 13.229167,7.3336082 c 0,0 -1.756052,0.629363 -1.832736,0.929648 -0.345638,1.121852 -0.953509,2.0507138 -1.8760024,2.6950798 L 9.5084039,3.654051 c 0.9425771,0.6214948 1.5745401,1.5457608 1.8880271,2.7499092 0.07668,0.3002847 1.832736,0.929648 1.832736,0.929648 z"
       sodipodi:nodetypes="cccccc" />
    <path
       id="path873"
       style="fill:#000000;fill-opacity:1;fill-rule:evenodd;stroke:none;stroke-width:1.08081;stroke-linecap:round;stroke-linejoin:round;stroke-dashoffset:1.8"
       d="M 5.1684454,11.924222 C 4.7272595,11.883895 3.7266149,11.762375 3.1099979,11.431207 l 10e-8,-8.1951966 C 3.7737097,2.8851308 4.8055147,2.7758939 5.1684454,2.7441115 Z"
       sodipodi:nodetypes="ccccc" />
    <path
       id="path875"
       style="fill:#000000;fill-opacity:1;fill-rule:evenodd;stroke:none;stroke-width:1.08081;stroke-linecap:round;stroke-linejoin:round;stroke-dashoffset:1.8"
       d="m 8.4661001,11.516882 c -0.4553156,0.170732 -1.335417,0.426459 -2.1374802,0.418395 V 2.7332617 c 0.7779714,-0.00347 1.704853,0.2442727 2.1058676,0.390652 z"
       sodipodi:nodetypes="ccccc" />
    <path
       style="fill:none;stroke:#000000;stroke-width:0.18255px;stroke-linecap:butt;stroke-linejoin:miter;stroke-opacity:1"
       d="m 0.4337606,9.0608072 c 0,0 0.7411812,0.08013 0.8413408,-0.701118"
       id="path877" />
  </g>
</svg>
