<?xml version="1.0" encoding="UTF-8" standalone="no"?>
<svg
   xmlns:dc="http://purl.org/dc/elements/1.1/"
   xmlns:cc="http://creativecommons.org/ns#"
   xmlns:rdf="http://www.w3.org/1999/02/22-rdf-syntax-ns#"
   xmlns:svg="http://www.w3.org/2000/svg"
   xmlns="http://www.w3.org/2000/svg"
   width="50"
   height="50"
   viewBox="0 0 13.229166 13.229167"
   version="1.1"
   id="svg8">
  <defs
     id="defs2" />
  <metadata
     id="metadata5">
    <rdf:RDF>
      <cc:Work
         rdf:about="">
        <dc:format>image/svg+xml</dc:format>
        <dc:type
           rdf:resource="http://purl.org/dc/dcmitype/StillImage" />
        <dc:title></dc:title>
      </cc:Work>
    </rdf:RDF>
  </metadata>
  <g
     id="layer1">
    <path
       style="fill:none;stroke:#000000;stroke-width:0.264583px;stroke-linecap:butt;stroke-linejoin:miter;stroke-opacity:1"
       d="M 2.4766433,10.825957 1.5734825,11.799588"
       id="path879" />
    <path
       style="fill:none;stroke:#000000;stroke-width:0.264583px;stroke-linecap:butt;stroke-linejoin:miter;stroke-opacity:1"
       d="M 2.9148243,10.950395 3.1714541,12.25339"
       id="path881" />
    <path
       style="fill:none;stroke:#000000;stroke-width:0.264583px;stroke-linecap:butt;stroke-linejoin:miter;stroke-opacity:1"
       d="M 8.561046,11.108008 8.3805111,12.423707"
       id="path883" />
    <path
       style="fill:none;stroke:#000000;stroke-width:0.264583px;stroke-linecap:butt;stroke-linejoin:miter;stroke-opacity:1"
       d="M 8.9912619,10.958336 9.9494353,11.87788"
       id="path885" />
    <path
       id="path837"
       style="fill:#ffffff;fill-opacity:1;fill-rule:evenodd;stroke:#000000;stroke-width:0.108081;stroke-linecap:round;stroke-linejoin:round;stroke-miterlimit:4;stroke-dasharray:none;stroke-dashoffset:1.8;stroke-opacity:1"
       d="M 6.3325496,1.9041289 A 1.3179542,0.89432603 75 0 1 5.8098087,3.4086435 1.3179542,0.89432603 75 0 1 4.6048444,2.3670661 1.3179542,0.89432603 75 0 1 5.1275854,0.86255149 1.3179542,0.89432603 75 0 1 6.3325496,1.9041289 Z" />
    <path
       id="ellipse841"
       style="fill:#ffffff;fill-opacity:1;fill-rule:evenodd;stroke:#000000;stroke-width:0.108081;stroke-linecap:round;stroke-linejoin:round;stroke-miterlimit:4;stroke-dasharray:none;stroke-dashoffset:1.8;stroke-opacity:1"
       d="M 7.3870594,2.5827608 A 0.89432603,1.3179542 30 0 1 5.9535733,3.2769796 0.89432603,1.3179542 30 0 1 5.8380413,1.6884348 0.89432603,1.3179542 30 0 1 7.2715274,0.99421603 0.89432603,1.3179542 30 0 1 7.3870594,2.5827608 Z" />
    <path
       style="fill:none;stroke:#000000;stroke-width:0.171595px;stroke-linecap:butt;stroke-linejoin:miter;stroke-opacity:1"
       d="m 2.4478857,3.9801577 c 0,0 -0.00851,-2.0524582 -2.23043511,-2.0524582"
       id="path843" />
    <path
       id="path847"
       style="fill:#000000;fill-opacity:1;fill-rule:evenodd;stroke:none;stroke-width:0.0648552;stroke-linecap:round;stroke-linejoin:round;stroke-miterlimit:4;stroke-dasharray:none;stroke-dashoffset:1.8;stroke-opacity:1"
       d="M 0.41425757,1.9276996 A 0.20712879,0.20712879 0 0 1 0.20712878,2.1348285 0.20712879,0.20712879 0 0 1 0,1.9276996 0.20712879,0.20712879 0 0 1 0.20712878,1.7205709 0.20712879,0.20712879 0 0 1 0.41425757,1.9276996 Z" />
    <path
       id="path833"
       style="fill:#ffd400;fill-opacity:1;fill-rule:evenodd;stroke:none;stroke-width:1.08081;stroke-linecap:round;stroke-linejoin:round;stroke-dashoffset:1.8"
       d="m 13.229167,7.3336082 c 0,0 -1.756052,0.629363 -1.832736,0.929648 C 10.705155,10.50696 8.9649463,11.978703 5.7566931,11.946448 2.5773593,11.946448 -7.4493047e-8,9.8812092 0,7.3336082 0,4.7860073 2.5773593,2.7207689 5.7566931,2.7207688 c 3.1118856,-0.013873 5.0127639,1.2748946 5.6397379,3.6831914 0.07668,0.3002847 1.832736,0.929648 1.832736,0.929648 z" />
    <path
       id="path835"
       style="fill:#000000;fill-opacity:1;fill-rule:evenodd;stroke:none;stroke-width:1.08081;stroke-linecap:round;stroke-linejoin:round;stroke-dashoffset:1.8"
       d="M 1.7886522,5.6501427 A 0.43931806,0.43931806 0 0 1 1.3493341,6.0894607 0.43931806,0.43931806 0 0 1 0.91001606,5.6501427 0.43931806,0.43931806 0 0 1 1.3493341,5.2108246 0.43931806,0.43931806 0 0 1 1.7886522,5.6501427 Z" />
    <path
       id="path871"
       style="fill:#000000;fill-opacity:1;fill-rule:evenodd;stroke:none;stroke-width:1.08081;stroke-linecap:round;stroke-linejoin:round;stroke-dashoffset:1.8"
       d="m 13.229167,7.3336082 c 0,0 -1.756052,0.629363 -1.832736,0.929648 -0.345638,1.121852 -0.953509,2.0507138 -1.8760024,2.6950798 L 9.5084039,3.654051 c 0.9425771,0.6214948 1.5745401,1.5457608 1.8880271,2.7499092 0.07668,0.3002847 1.832736,0.929648 1.832736,0.929648 z" />
    <path
       id="path873"
       style="fill:#000000;fill-opacity:1;fill-rule:evenodd;stroke:none;stroke-width:1.08081;stroke-linecap:round;stroke-linejoin:round;stroke-dashoffset:1.8"
       d="M 5.1684454,11.924222 C 4.7272595,11.883895 3.7266149,11.762375 3.1099979,11.431207 l 10e-8,-8.1951966 C 3.7737097,2.8851308 4.8055147,2.7758939 5.1684454,2.7441115 Z" />
    <path
       id="path875"
       style="fill:#000000;fill-opacity:1;fill-rule:evenodd;stroke:none;stroke-width:1.08081;stroke-linecap:round;stroke-linejoin:round;stroke-dashoffset:1.8"
       d="m 8.4661001,11.516882 c -0.4553156,0.170732 -1.335417,0.426459 -2.1374802,0.418395 V 2.7332617 c 0.7779714,-0.00347 1.704853,0.2442727 2.1058676,0.390652 z" />
    <path
       style="fill:none;stroke:#000000;stroke-width:0.18255px;stroke-linecap:butt;stroke-linejoin:miter;stroke-opacity:1"
       d="m 0.4337606,9.0608072 c 0,0 0.7411812,0.08013 0.8413408,-0.701118"
       id="path877" />
  </g>
</svg>
