<?xml version="1.0" encoding="UTF-8" standalone="no"?>
<svg
   xmlns:dc="http://purl.org/dc/elements/1.1/"
   xmlns:cc="http://creativecommons.org/ns#"
   xmlns:rdf="http://www.w3.org/1999/02/22-rdf-syntax-ns#"
   xmlns:svg="http://www.w3.org/2000/svg"
   xmlns="http://www.w3.org/2000/svg"
   width="50"
   height="50"
   viewBox="0 0 13.229166 13.229167"
   version="1.1"
   id="svg8">
  <defs
     id="defs2" />
  <metadata
     id="metadata5">
    <rdf:RDF>
      <cc:Work
         rdf:about="">
        <dc:format>image/svg+xml</dc:format>
        <dc:type
           rdf:resource="http://purl.org/dc/dcmitype/StillImage" />
        <dc:title></dc:title>
      </cc:Work>
    </rdf:RDF>
  </metadata>
  <g
     id="layer1">
    <g
       id="g136">
      <path
         style="fill:none;stroke:#000000;stroke-width:0.0661455px;stroke-linecap:butt;stroke-linejoin:miter;stroke-opacity:1"
         d="M 5.580099,7.6674267 5.3543088,7.9108344"
         id="path879" />
      <path
         style="fill:none;stroke:#000000;stroke-width:0.0661455px;stroke-linecap:butt;stroke-linejoin:miter;stroke-opacity:1"
         d="m 5.6896442,7.6985362 0.064158,0.3257487"
         id="path881" />
      <path
         style="fill:none;stroke:#000000;stroke-width:0.0661455px;stroke-linecap:butt;stroke-linejoin:miter;stroke-opacity:1"
         d="M 7.1011996,7.7379394 7.0560659,8.0668642"
         id="path883" />
      <path
         style="fill:none;stroke:#000000;stroke-width:0.0661455px;stroke-linecap:butt;stroke-linejoin:miter;stroke-opacity:1"
         d="M 7.2087536,7.7005214 7.448297,7.9304074"
         id="path885" />
      <path
         id="path837"
         style="fill:#ffffff;fill-opacity:1;fill-rule:evenodd;stroke:#000000;stroke-width:0.0270202;stroke-linecap:round;stroke-linejoin:round;stroke-miterlimit:4;stroke-dasharray:none;stroke-dashoffset:1.8;stroke-opacity:1"
         d="M 6.5440756,5.4369697 A 0.32948855,0.22358151 75 0 1 6.4133903,5.8130983 0.32948855,0.22358151 75 0 1 6.1121492,5.552704 0.32948855,0.22358151 75 0 1 6.2428345,5.1765753 0.32948855,0.22358151 75 0 1 6.5440756,5.4369697 Z" />
      <path
         id="ellipse841"
         style="fill:#ffffff;fill-opacity:1;fill-rule:evenodd;stroke:#000000;stroke-width:0.0270202;stroke-linecap:round;stroke-linejoin:round;stroke-miterlimit:4;stroke-dasharray:none;stroke-dashoffset:1.8;stroke-opacity:1"
         d="M 6.807703,5.6066276 A 0.22358151,0.32948855 30 0 1 6.4493315,5.7801823 0.22358151,0.32948855 30 0 1 6.4204485,5.3830461 0.22358151,0.32948855 30 0 1 6.77882,5.2094914 0.22358151,0.32948855 30 0 1 6.807703,5.6066276 Z" />
      <path
         style="fill:none;stroke:#000000;stroke-width:0.0428988px;stroke-linecap:butt;stroke-linejoin:miter;stroke-opacity:1"
         d="m 5.5729096,5.9559769 c 0,0 -0.00213,-0.5131146 -0.5576088,-0.5131146"
         id="path843" />
      <path
         id="path847"
         style="fill:#000000;fill-opacity:1;fill-rule:evenodd;stroke:none;stroke-width:0.0162138;stroke-linecap:round;stroke-linejoin:round;stroke-miterlimit:4;stroke-dasharray:none;stroke-dashoffset:1.8;stroke-opacity:1"
         d="m 5.0645025,5.4428623 a 0.0517822,0.0517822 0 0 1 -0.051782,0.051782 0.0517822,0.0517822 0 0 1 -0.051782,-0.051782 0.0517822,0.0517822 0 0 1 0.051782,-0.051782 0.0517822,0.0517822 0 0 1 0.051782,0.051782 z" />
      <path
         id="path833"
         style="fill:#ffd400;fill-opacity:1;fill-rule:evenodd;stroke:none;stroke-width:0.270202;stroke-linecap:round;stroke-linejoin:round;stroke-dashoffset:1.8"
         d="m 8.2682299,6.7943395 c 0,0 -0.439013,0.1573407 -0.458184,0.232412 -0.172819,0.5609259 -0.6078712,0.9288617 -1.4099345,0.9207979 -0.7948334,0 -1.4391733,-0.5163097 -1.4391733,-1.1532099 0,-0.6369002 0.6443399,-1.1532098 1.4391733,-1.1532099 0.7779714,-0.00347 1.253191,0.3187237 1.4099345,0.9207979 0.01917,0.075071 0.458184,0.232412 0.458184,0.232412 z" />
      <path
         id="path835"
         style="fill:#000000;fill-opacity:1;fill-rule:evenodd;stroke:none;stroke-width:0.270202;stroke-linecap:round;stroke-linejoin:round;stroke-dashoffset:1.8"
         d="M 5.4081012,6.3734731 A 0.10982951,0.10982952 0 0 1 5.2982717,6.4833026 0.10982951,0.10982952 0 0 1 5.1884422,6.3734731 0.10982951,0.10982952 0 0 1 5.2982717,6.2636436 0.10982951,0.10982952 0 0 1 5.4081012,6.3734731 Z" />
      <path
         id="path871"
         style="fill:#000000;fill-opacity:1;fill-rule:evenodd;stroke:none;stroke-width:0.270202;stroke-linecap:round;stroke-linejoin:round;stroke-dashoffset:1.8"
         d="m 8.2682299,6.7943395 c 0,0 -0.439013,0.1573407 -0.458184,0.232412 -0.08641,0.280463 -0.2383773,0.5126784 -0.4690006,0.6737699 l -0.003,-1.8260712 c 0.2356442,0.1553737 0.393635,0.3864402 0.4720067,0.6874773 0.01917,0.075071 0.458184,0.232412 0.458184,0.232412 z" />
      <path
         id="path873"
         style="fill:#000000;fill-opacity:1;fill-rule:evenodd;stroke:none;stroke-width:0.270202;stroke-linecap:round;stroke-linejoin:round;stroke-dashoffset:1.8"
         d="M 6.2530495,7.9419929 C 6.142753,7.9319112 5.8925919,7.9015312 5.7384376,7.8187392 V 5.76994 C 5.9043656,5.68222 6.1623168,5.6549109 6.2530495,5.6469653 Z" />
      <path
         id="path875"
         style="fill:#000000;fill-opacity:1;fill-rule:evenodd;stroke:none;stroke-width:0.270202;stroke-linecap:round;stroke-linejoin:round;stroke-dashoffset:1.8"
         d="M 7.0774632,7.8401579 C 6.9636343,7.8828409 6.7436089,7.9467727 6.5430931,7.9447567 V 5.6442529 c 0.1944929,-8.7e-4 0.4262133,0.061068 0.5264669,0.097663 z" />
      <path
         style="fill:none;stroke:#000000;stroke-width:0.0456375px;stroke-linecap:butt;stroke-linejoin:miter;stroke-opacity:1"
         d="m 5.0693783,7.2261392 c 0,0 0.1852953,0.020032 0.2103352,-0.1752795"
         id="path877" />
    </g>
    <g
       id="g223"
       transform="translate(0,-4.2333335)">
      <path
         style="fill:none;stroke:#000000;stroke-width:0.0661455px;stroke-linecap:butt;stroke-linejoin:miter;stroke-opacity:1"
         d="M 5.580099,7.6674267 5.3543088,7.9108344"
         id="path195" />
      <path
         style="fill:none;stroke:#000000;stroke-width:0.0661455px;stroke-linecap:butt;stroke-linejoin:miter;stroke-opacity:1"
         d="m 5.6896442,7.6985362 0.064158,0.3257487"
         id="path197" />
      <path
         style="fill:none;stroke:#000000;stroke-width:0.0661455px;stroke-linecap:butt;stroke-linejoin:miter;stroke-opacity:1"
         d="M 7.1011996,7.7379394 7.0560659,8.0668642"
         id="path199" />
      <path
         style="fill:none;stroke:#000000;stroke-width:0.0661455px;stroke-linecap:butt;stroke-linejoin:miter;stroke-opacity:1"
         d="M 7.2087536,7.7005214 7.448297,7.9304074"
         id="path201" />
      <path
         id="path203"
         style="fill:#ffffff;fill-opacity:1;fill-rule:evenodd;stroke:#000000;stroke-width:0.0270202;stroke-linecap:round;stroke-linejoin:round;stroke-miterlimit:4;stroke-dasharray:none;stroke-dashoffset:1.8;stroke-opacity:1"
         d="M 6.5440756,5.4369697 A 0.32948855,0.22358151 75 0 1 6.4133903,5.8130983 0.32948855,0.22358151 75 0 1 6.1121492,5.552704 0.32948855,0.22358151 75 0 1 6.2428345,5.1765753 0.32948855,0.22358151 75 0 1 6.5440756,5.4369697 Z" />
      <path
         id="path205"
         style="fill:#ffffff;fill-opacity:1;fill-rule:evenodd;stroke:#000000;stroke-width:0.0270202;stroke-linecap:round;stroke-linejoin:round;stroke-miterlimit:4;stroke-dasharray:none;stroke-dashoffset:1.8;stroke-opacity:1"
         d="M 6.807703,5.6066276 A 0.22358151,0.32948855 30 0 1 6.4493315,5.7801823 0.22358151,0.32948855 30 0 1 6.4204485,5.3830461 0.22358151,0.32948855 30 0 1 6.77882,5.2094914 0.22358151,0.32948855 30 0 1 6.807703,5.6066276 Z" />
      <path
         style="fill:none;stroke:#000000;stroke-width:0.0428988px;stroke-linecap:butt;stroke-linejoin:miter;stroke-opacity:1"
         d="m 5.5729096,5.9559769 c 0,0 -0.00213,-0.5131146 -0.5576088,-0.5131146"
         id="path207" />
      <path
         id="path209"
         style="fill:#000000;fill-opacity:1;fill-rule:evenodd;stroke:none;stroke-width:0.0162138;stroke-linecap:round;stroke-linejoin:round;stroke-miterlimit:4;stroke-dasharray:none;stroke-dashoffset:1.8;stroke-opacity:1"
         d="m 5.0645025,5.4428623 a 0.0517822,0.0517822 0 0 1 -0.051782,0.051782 0.0517822,0.0517822 0 0 1 -0.051782,-0.051782 0.0517822,0.0517822 0 0 1 0.051782,-0.051782 0.0517822,0.0517822 0 0 1 0.051782,0.051782 z" />
      <path
         id="path211"
         style="fill:#ffd400;fill-opacity:1;fill-rule:evenodd;stroke:none;stroke-width:0.270202;stroke-linecap:round;stroke-linejoin:round;stroke-dashoffset:1.8"
         d="m 8.2682299,6.7943395 c 0,0 -0.439013,0.1573407 -0.458184,0.232412 -0.172819,0.5609259 -0.6078712,0.9288617 -1.4099345,0.9207979 -0.7948334,0 -1.4391733,-0.5163097 -1.4391733,-1.1532099 0,-0.6369002 0.6443399,-1.1532098 1.4391733,-1.1532099 0.7779714,-0.00347 1.253191,0.3187237 1.4099345,0.9207979 0.01917,0.075071 0.458184,0.232412 0.458184,0.232412 z" />
      <path
         id="path213"
         style="fill:#000000;fill-opacity:1;fill-rule:evenodd;stroke:none;stroke-width:0.270202;stroke-linecap:round;stroke-linejoin:round;stroke-dashoffset:1.8"
         d="M 5.4081012,6.3734731 A 0.10982951,0.10982952 0 0 1 5.2982717,6.4833026 0.10982951,0.10982952 0 0 1 5.1884422,6.3734731 0.10982951,0.10982952 0 0 1 5.2982717,6.2636436 0.10982951,0.10982952 0 0 1 5.4081012,6.3734731 Z" />
      <path
         id="path215"
         style="fill:#000000;fill-opacity:1;fill-rule:evenodd;stroke:none;stroke-width:0.270202;stroke-linecap:round;stroke-linejoin:round;stroke-dashoffset:1.8"
         d="m 8.2682299,6.7943395 c 0,0 -0.439013,0.1573407 -0.458184,0.232412 -0.08641,0.280463 -0.2383773,0.5126784 -0.4690006,0.6737699 l -0.003,-1.8260712 c 0.2356442,0.1553737 0.393635,0.3864402 0.4720067,0.6874773 0.01917,0.075071 0.458184,0.232412 0.458184,0.232412 z" />
      <path
         id="path217"
         style="fill:#000000;fill-opacity:1;fill-rule:evenodd;stroke:none;stroke-width:0.270202;stroke-linecap:round;stroke-linejoin:round;stroke-dashoffset:1.8"
         d="M 6.2530495,7.9419929 C 6.142753,7.9319112 5.8925919,7.9015312 5.7384376,7.8187392 V 5.76994 C 5.9043656,5.68222 6.1623168,5.6549109 6.2530495,5.6469653 Z" />
      <path
         id="path219"
         style="fill:#000000;fill-opacity:1;fill-rule:evenodd;stroke:none;stroke-width:0.270202;stroke-linecap:round;stroke-linejoin:round;stroke-dashoffset:1.8"
         d="M 7.0774632,7.8401579 C 6.9636343,7.8828409 6.7436089,7.9467727 6.5430931,7.9447567 V 5.6442529 c 0.1944929,-8.7e-4 0.4262133,0.061068 0.5264669,0.097663 z" />
      <path
         style="fill:none;stroke:#000000;stroke-width:0.0456375px;stroke-linecap:butt;stroke-linejoin:miter;stroke-opacity:1"
         d="m 5.0693783,7.2261392 c 0,0 0.1852953,0.020032 0.2103352,-0.1752795"
         id="path221" />
    </g>
    <g
       id="g253"
       transform="translate(0,4.2333335)">
      <path
         style="fill:none;stroke:#000000;stroke-width:0.0661455px;stroke-linecap:butt;stroke-linejoin:miter;stroke-opacity:1"
         d="M 5.580099,7.6674267 5.3543088,7.9108344"
         id="path225" />
      <path
         style="fill:none;stroke:#000000;stroke-width:0.0661455px;stroke-linecap:butt;stroke-linejoin:miter;stroke-opacity:1"
         d="m 5.6896442,7.6985362 0.064158,0.3257487"
         id="path227" />
      <path
         style="fill:none;stroke:#000000;stroke-width:0.0661455px;stroke-linecap:butt;stroke-linejoin:miter;stroke-opacity:1"
         d="M 7.1011996,7.7379394 7.0560659,8.0668642"
         id="path229" />
      <path
         style="fill:none;stroke:#000000;stroke-width:0.0661455px;stroke-linecap:butt;stroke-linejoin:miter;stroke-opacity:1"
         d="M 7.2087536,7.7005214 7.448297,7.9304074"
         id="path231" />
      <path
         id="path233"
         style="fill:#ffffff;fill-opacity:1;fill-rule:evenodd;stroke:#000000;stroke-width:0.0270202;stroke-linecap:round;stroke-linejoin:round;stroke-miterlimit:4;stroke-dasharray:none;stroke-dashoffset:1.8;stroke-opacity:1"
         d="M 6.5440756,5.4369697 A 0.32948855,0.22358151 75 0 1 6.4133903,5.8130983 0.32948855,0.22358151 75 0 1 6.1121492,5.552704 0.32948855,0.22358151 75 0 1 6.2428345,5.1765753 0.32948855,0.22358151 75 0 1 6.5440756,5.4369697 Z" />
      <path
         id="path235"
         style="fill:#ffffff;fill-opacity:1;fill-rule:evenodd;stroke:#000000;stroke-width:0.0270202;stroke-linecap:round;stroke-linejoin:round;stroke-miterlimit:4;stroke-dasharray:none;stroke-dashoffset:1.8;stroke-opacity:1"
         d="M 6.807703,5.6066276 A 0.22358151,0.32948855 30 0 1 6.4493315,5.7801823 0.22358151,0.32948855 30 0 1 6.4204485,5.3830461 0.22358151,0.32948855 30 0 1 6.77882,5.2094914 0.22358151,0.32948855 30 0 1 6.807703,5.6066276 Z" />
      <path
         style="fill:none;stroke:#000000;stroke-width:0.0428988px;stroke-linecap:butt;stroke-linejoin:miter;stroke-opacity:1"
         d="m 5.5729096,5.9559769 c 0,0 -0.00213,-0.5131146 -0.5576088,-0.5131146"
         id="path237" />
      <path
         id="path239"
         style="fill:#000000;fill-opacity:1;fill-rule:evenodd;stroke:none;stroke-width:0.0162138;stroke-linecap:round;stroke-linejoin:round;stroke-miterlimit:4;stroke-dasharray:none;stroke-dashoffset:1.8;stroke-opacity:1"
         d="m 5.0645025,5.4428623 a 0.0517822,0.0517822 0 0 1 -0.051782,0.051782 0.0517822,0.0517822 0 0 1 -0.051782,-0.051782 0.0517822,0.0517822 0 0 1 0.051782,-0.051782 0.0517822,0.0517822 0 0 1 0.051782,0.051782 z" />
      <path
         id="path241"
         style="fill:#ffd400;fill-opacity:1;fill-rule:evenodd;stroke:none;stroke-width:0.270202;stroke-linecap:round;stroke-linejoin:round;stroke-dashoffset:1.8"
         d="m 8.2682299,6.7943395 c 0,0 -0.439013,0.1573407 -0.458184,0.232412 -0.172819,0.5609259 -0.6078712,0.9288617 -1.4099345,0.9207979 -0.7948334,0 -1.4391733,-0.5163097 -1.4391733,-1.1532099 0,-0.6369002 0.6443399,-1.1532098 1.4391733,-1.1532099 0.7779714,-0.00347 1.253191,0.3187237 1.4099345,0.9207979 0.01917,0.075071 0.458184,0.232412 0.458184,0.232412 z" />
      <path
         id="path243"
         style="fill:#000000;fill-opacity:1;fill-rule:evenodd;stroke:none;stroke-width:0.270202;stroke-linecap:round;stroke-linejoin:round;stroke-dashoffset:1.8"
         d="M 5.4081012,6.3734731 A 0.10982951,0.10982952 0 0 1 5.2982717,6.4833026 0.10982951,0.10982952 0 0 1 5.1884422,6.3734731 0.10982951,0.10982952 0 0 1 5.2982717,6.2636436 0.10982951,0.10982952 0 0 1 5.4081012,6.3734731 Z" />
      <path
         id="path245"
         style="fill:#000000;fill-opacity:1;fill-rule:evenodd;stroke:none;stroke-width:0.270202;stroke-linecap:round;stroke-linejoin:round;stroke-dashoffset:1.8"
         d="m 8.2682299,6.7943395 c 0,0 -0.439013,0.1573407 -0.458184,0.232412 -0.08641,0.280463 -0.2383773,0.5126784 -0.4690006,0.6737699 l -0.003,-1.8260712 c 0.2356442,0.1553737 0.393635,0.3864402 0.4720067,0.6874773 0.01917,0.075071 0.458184,0.232412 0.458184,0.232412 z" />
      <path
         id="path247"
         style="fill:#000000;fill-opacity:1;fill-rule:evenodd;stroke:none;stroke-width:0.270202;stroke-linecap:round;stroke-linejoin:round;stroke-dashoffset:1.8"
         d="M 6.2530495,7.9419929 C 6.142753,7.9319112 5.8925919,7.9015312 5.7384376,7.8187392 V 5.76994 C 5.9043656,5.68222 6.1623168,5.6549109 6.2530495,5.6469653 Z" />
      <path
         id="path249"
         style="fill:#000000;fill-opacity:1;fill-rule:evenodd;stroke:none;stroke-width:0.270202;stroke-linecap:round;stroke-linejoin:round;stroke-dashoffset:1.8"
         d="M 7.0774632,7.8401579 C 6.9636343,7.8828409 6.7436089,7.9467727 6.5430931,7.9447567 V 5.6442529 c 0.1944929,-8.7e-4 0.4262133,0.061068 0.5264669,0.097663 z" />
      <path
         style="fill:none;stroke:#000000;stroke-width:0.0456375px;stroke-linecap:butt;stroke-linejoin:miter;stroke-opacity:1"
         d="m 5.0693783,7.2261392 c 0,0 0.1852953,0.020032 0.2103352,-0.1752795"
         id="path251" />
    </g>
    <g
       id="g283"
       transform="translate(-4.7625002)">
      <path
         style="fill:none;stroke:#000000;stroke-width:0.0661455px;stroke-linecap:butt;stroke-linejoin:miter;stroke-opacity:1"
         d="M 5.580099,7.6674267 5.3543088,7.9108344"
         id="path255" />
      <path
         style="fill:none;stroke:#000000;stroke-width:0.0661455px;stroke-linecap:butt;stroke-linejoin:miter;stroke-opacity:1"
         d="m 5.6896442,7.6985362 0.064158,0.3257487"
         id="path257" />
      <path
         style="fill:none;stroke:#000000;stroke-width:0.0661455px;stroke-linecap:butt;stroke-linejoin:miter;stroke-opacity:1"
         d="M 7.1011996,7.7379394 7.0560659,8.0668642"
         id="path259" />
      <path
         style="fill:none;stroke:#000000;stroke-width:0.0661455px;stroke-linecap:butt;stroke-linejoin:miter;stroke-opacity:1"
         d="M 7.2087536,7.7005214 7.448297,7.9304074"
         id="path261" />
      <path
         id="path263"
         style="fill:#ffffff;fill-opacity:1;fill-rule:evenodd;stroke:#000000;stroke-width:0.0270202;stroke-linecap:round;stroke-linejoin:round;stroke-miterlimit:4;stroke-dasharray:none;stroke-dashoffset:1.8;stroke-opacity:1"
         d="M 6.5440756,5.4369697 A 0.32948855,0.22358151 75 0 1 6.4133903,5.8130983 0.32948855,0.22358151 75 0 1 6.1121492,5.552704 0.32948855,0.22358151 75 0 1 6.2428345,5.1765753 0.32948855,0.22358151 75 0 1 6.5440756,5.4369697 Z" />
      <path
         id="path265"
         style="fill:#ffffff;fill-opacity:1;fill-rule:evenodd;stroke:#000000;stroke-width:0.0270202;stroke-linecap:round;stroke-linejoin:round;stroke-miterlimit:4;stroke-dasharray:none;stroke-dashoffset:1.8;stroke-opacity:1"
         d="M 6.807703,5.6066276 A 0.22358151,0.32948855 30 0 1 6.4493315,5.7801823 0.22358151,0.32948855 30 0 1 6.4204485,5.3830461 0.22358151,0.32948855 30 0 1 6.77882,5.2094914 0.22358151,0.32948855 30 0 1 6.807703,5.6066276 Z" />
      <path
         style="fill:none;stroke:#000000;stroke-width:0.0428988px;stroke-linecap:butt;stroke-linejoin:miter;stroke-opacity:1"
         d="m 5.5729096,5.9559769 c 0,0 -0.00213,-0.5131146 -0.5576088,-0.5131146"
         id="path267" />
      <path
         id="path269"
         style="fill:#000000;fill-opacity:1;fill-rule:evenodd;stroke:none;stroke-width:0.0162138;stroke-linecap:round;stroke-linejoin:round;stroke-miterlimit:4;stroke-dasharray:none;stroke-dashoffset:1.8;stroke-opacity:1"
         d="m 5.0645025,5.4428623 a 0.0517822,0.0517822 0 0 1 -0.051782,0.051782 0.0517822,0.0517822 0 0 1 -0.051782,-0.051782 0.0517822,0.0517822 0 0 1 0.051782,-0.051782 0.0517822,0.0517822 0 0 1 0.051782,0.051782 z" />
      <path
         id="path271"
         style="fill:#ffd400;fill-opacity:1;fill-rule:evenodd;stroke:none;stroke-width:0.270202;stroke-linecap:round;stroke-linejoin:round;stroke-dashoffset:1.8"
         d="m 8.2682299,6.7943395 c 0,0 -0.439013,0.1573407 -0.458184,0.232412 -0.172819,0.5609259 -0.6078712,0.9288617 -1.4099345,0.9207979 -0.7948334,0 -1.4391733,-0.5163097 -1.4391733,-1.1532099 0,-0.6369002 0.6443399,-1.1532098 1.4391733,-1.1532099 0.7779714,-0.00347 1.253191,0.3187237 1.4099345,0.9207979 0.01917,0.075071 0.458184,0.232412 0.458184,0.232412 z" />
      <path
         id="path273"
         style="fill:#000000;fill-opacity:1;fill-rule:evenodd;stroke:none;stroke-width:0.270202;stroke-linecap:round;stroke-linejoin:round;stroke-dashoffset:1.8"
         d="M 5.4081012,6.3734731 A 0.10982951,0.10982952 0 0 1 5.2982717,6.4833026 0.10982951,0.10982952 0 0 1 5.1884422,6.3734731 0.10982951,0.10982952 0 0 1 5.2982717,6.2636436 0.10982951,0.10982952 0 0 1 5.4081012,6.3734731 Z" />
      <path
         id="path275"
         style="fill:#000000;fill-opacity:1;fill-rule:evenodd;stroke:none;stroke-width:0.270202;stroke-linecap:round;stroke-linejoin:round;stroke-dashoffset:1.8"
         d="m 8.2682299,6.7943395 c 0,0 -0.439013,0.1573407 -0.458184,0.232412 -0.08641,0.280463 -0.2383773,0.5126784 -0.4690006,0.6737699 l -0.003,-1.8260712 c 0.2356442,0.1553737 0.393635,0.3864402 0.4720067,0.6874773 0.01917,0.075071 0.458184,0.232412 0.458184,0.232412 z" />
      <path
         id="path277"
         style="fill:#000000;fill-opacity:1;fill-rule:evenodd;stroke:none;stroke-width:0.270202;stroke-linecap:round;stroke-linejoin:round;stroke-dashoffset:1.8"
         d="M 6.2530495,7.9419929 C 6.142753,7.9319112 5.8925919,7.9015312 5.7384376,7.8187392 V 5.76994 C 5.9043656,5.68222 6.1623168,5.6549109 6.2530495,5.6469653 Z" />
      <path
         id="path279"
         style="fill:#000000;fill-opacity:1;fill-rule:evenodd;stroke:none;stroke-width:0.270202;stroke-linecap:round;stroke-linejoin:round;stroke-dashoffset:1.8"
         d="M 7.0774632,7.8401579 C 6.9636343,7.8828409 6.7436089,7.9467727 6.5430931,7.9447567 V 5.6442529 c 0.1944929,-8.7e-4 0.4262133,0.061068 0.5264669,0.097663 z" />
      <path
         style="fill:none;stroke:#000000;stroke-width:0.0456375px;stroke-linecap:butt;stroke-linejoin:miter;stroke-opacity:1"
         d="m 5.0693783,7.2261392 c 0,0 0.1852953,0.020032 0.2103352,-0.1752795"
         id="path281" />
    </g>
    <g
       id="g313"
       transform="translate(4.7625002)">
      <path
         style="fill:none;stroke:#000000;stroke-width:0.0661455px;stroke-linecap:butt;stroke-linejoin:miter;stroke-opacity:1"
         d="M 5.580099,7.6674267 5.3543088,7.9108344"
         id="path285" />
      <path
         style="fill:none;stroke:#000000;stroke-width:0.0661455px;stroke-linecap:butt;stroke-linejoin:miter;stroke-opacity:1"
         d="m 5.6896442,7.6985362 0.064158,0.3257487"
         id="path287" />
      <path
         style="fill:none;stroke:#000000;stroke-width:0.0661455px;stroke-linecap:butt;stroke-linejoin:miter;stroke-opacity:1"
         d="M 7.1011996,7.7379394 7.0560659,8.0668642"
         id="path289" />
      <path
         style="fill:none;stroke:#000000;stroke-width:0.0661455px;stroke-linecap:butt;stroke-linejoin:miter;stroke-opacity:1"
         d="M 7.2087536,7.7005214 7.448297,7.9304074"
         id="path291" />
      <path
         id="path293"
         style="fill:#ffffff;fill-opacity:1;fill-rule:evenodd;stroke:#000000;stroke-width:0.0270202;stroke-linecap:round;stroke-linejoin:round;stroke-miterlimit:4;stroke-dasharray:none;stroke-dashoffset:1.8;stroke-opacity:1"
         d="M 6.5440756,5.4369697 A 0.32948855,0.22358151 75 0 1 6.4133903,5.8130983 0.32948855,0.22358151 75 0 1 6.1121492,5.552704 0.32948855,0.22358151 75 0 1 6.2428345,5.1765753 0.32948855,0.22358151 75 0 1 6.5440756,5.4369697 Z" />
      <path
         id="path295"
         style="fill:#ffffff;fill-opacity:1;fill-rule:evenodd;stroke:#000000;stroke-width:0.0270202;stroke-linecap:round;stroke-linejoin:round;stroke-miterlimit:4;stroke-dasharray:none;stroke-dashoffset:1.8;stroke-opacity:1"
         d="M 6.807703,5.6066276 A 0.22358151,0.32948855 30 0 1 6.4493315,5.7801823 0.22358151,0.32948855 30 0 1 6.4204485,5.3830461 0.22358151,0.32948855 30 0 1 6.77882,5.2094914 0.22358151,0.32948855 30 0 1 6.807703,5.6066276 Z" />
      <path
         style="fill:none;stroke:#000000;stroke-width:0.0428988px;stroke-linecap:butt;stroke-linejoin:miter;stroke-opacity:1"
         d="m 5.5729096,5.9559769 c 0,0 -0.00213,-0.5131146 -0.5576088,-0.5131146"
         id="path297" />
      <path
         id="path299"
         style="fill:#000000;fill-opacity:1;fill-rule:evenodd;stroke:none;stroke-width:0.0162138;stroke-linecap:round;stroke-linejoin:round;stroke-miterlimit:4;stroke-dasharray:none;stroke-dashoffset:1.8;stroke-opacity:1"
         d="m 5.0645025,5.4428623 a 0.0517822,0.0517822 0 0 1 -0.051782,0.051782 0.0517822,0.0517822 0 0 1 -0.051782,-0.051782 0.0517822,0.0517822 0 0 1 0.051782,-0.051782 0.0517822,0.0517822 0 0 1 0.051782,0.051782 z" />
      <path
         id="path301"
         style="fill:#ffd400;fill-opacity:1;fill-rule:evenodd;stroke:none;stroke-width:0.270202;stroke-linecap:round;stroke-linejoin:round;stroke-dashoffset:1.8"
         d="m 8.2682299,6.7943395 c 0,0 -0.439013,0.1573407 -0.458184,0.232412 -0.172819,0.5609259 -0.6078712,0.9288617 -1.4099345,0.9207979 -0.7948334,0 -1.4391733,-0.5163097 -1.4391733,-1.1532099 0,-0.6369002 0.6443399,-1.1532098 1.4391733,-1.1532099 0.7779714,-0.00347 1.253191,0.3187237 1.4099345,0.9207979 0.01917,0.075071 0.458184,0.232412 0.458184,0.232412 z" />
      <path
         id="path303"
         style="fill:#000000;fill-opacity:1;fill-rule:evenodd;stroke:none;stroke-width:0.270202;stroke-linecap:round;stroke-linejoin:round;stroke-dashoffset:1.8"
         d="M 5.4081012,6.3734731 A 0.10982951,0.10982952 0 0 1 5.2982717,6.4833026 0.10982951,0.10982952 0 0 1 5.1884422,6.3734731 0.10982951,0.10982952 0 0 1 5.2982717,6.2636436 0.10982951,0.10982952 0 0 1 5.4081012,6.3734731 Z" />
      <path
         id="path305"
         style="fill:#000000;fill-opacity:1;fill-rule:evenodd;stroke:none;stroke-width:0.270202;stroke-linecap:round;stroke-linejoin:round;stroke-dashoffset:1.8"
         d="m 8.2682299,6.7943395 c 0,0 -0.439013,0.1573407 -0.458184,0.232412 -0.08641,0.280463 -0.2383773,0.5126784 -0.4690006,0.6737699 l -0.003,-1.8260712 c 0.2356442,0.1553737 0.393635,0.3864402 0.4720067,0.6874773 0.01917,0.075071 0.458184,0.232412 0.458184,0.232412 z" />
      <path
         id="path307"
         style="fill:#000000;fill-opacity:1;fill-rule:evenodd;stroke:none;stroke-width:0.270202;stroke-linecap:round;stroke-linejoin:round;stroke-dashoffset:1.8"
         d="M 6.2530495,7.9419929 C 6.142753,7.9319112 5.8925919,7.9015312 5.7384376,7.8187392 V 5.76994 C 5.9043656,5.68222 6.1623168,5.6549109 6.2530495,5.6469653 Z" />
      <path
         id="path309"
         style="fill:#000000;fill-opacity:1;fill-rule:evenodd;stroke:none;stroke-width:0.270202;stroke-linecap:round;stroke-linejoin:round;stroke-dashoffset:1.8"
         d="M 7.0774632,7.8401579 C 6.9636343,7.8828409 6.7436089,7.9467727 6.5430931,7.9447567 V 5.6442529 c 0.1944929,-8.7e-4 0.4262133,0.061068 0.5264669,0.097663 z" />
      <path
         style="fill:none;stroke:#000000;stroke-width:0.0456375px;stroke-linecap:butt;stroke-linejoin:miter;stroke-opacity:1"
         d="m 5.0693783,7.2261392 c 0,0 0.1852953,0.020032 0.2103352,-0.1752795"
         id="path311" />
    </g>
    <g
       id="g343"
       transform="translate(3.7041668,3.1750001)">
      <path
         style="fill:none;stroke:#000000;stroke-width:0.0661455px;stroke-linecap:butt;stroke-linejoin:miter;stroke-opacity:1"
         d="M 5.580099,7.6674267 5.3543088,7.9108344"
         id="path315" />
      <path
         style="fill:none;stroke:#000000;stroke-width:0.0661455px;stroke-linecap:butt;stroke-linejoin:miter;stroke-opacity:1"
         d="m 5.6896442,7.6985362 0.064158,0.3257487"
         id="path317" />
      <path
         style="fill:none;stroke:#000000;stroke-width:0.0661455px;stroke-linecap:butt;stroke-linejoin:miter;stroke-opacity:1"
         d="M 7.1011996,7.7379394 7.0560659,8.0668642"
         id="path319" />
      <path
         style="fill:none;stroke:#000000;stroke-width:0.0661455px;stroke-linecap:butt;stroke-linejoin:miter;stroke-opacity:1"
         d="M 7.2087536,7.7005214 7.448297,7.9304074"
         id="path321" />
      <path
         id="path323"
         style="fill:#ffffff;fill-opacity:1;fill-rule:evenodd;stroke:#000000;stroke-width:0.0270202;stroke-linecap:round;stroke-linejoin:round;stroke-miterlimit:4;stroke-dasharray:none;stroke-dashoffset:1.8;stroke-opacity:1"
         d="M 6.5440756,5.4369697 A 0.32948855,0.22358151 75 0 1 6.4133903,5.8130983 0.32948855,0.22358151 75 0 1 6.1121492,5.552704 0.32948855,0.22358151 75 0 1 6.2428345,5.1765753 0.32948855,0.22358151 75 0 1 6.5440756,5.4369697 Z" />
      <path
         id="path325"
         style="fill:#ffffff;fill-opacity:1;fill-rule:evenodd;stroke:#000000;stroke-width:0.0270202;stroke-linecap:round;stroke-linejoin:round;stroke-miterlimit:4;stroke-dasharray:none;stroke-dashoffset:1.8;stroke-opacity:1"
         d="M 6.807703,5.6066276 A 0.22358151,0.32948855 30 0 1 6.4493315,5.7801823 0.22358151,0.32948855 30 0 1 6.4204485,5.3830461 0.22358151,0.32948855 30 0 1 6.77882,5.2094914 0.22358151,0.32948855 30 0 1 6.807703,5.6066276 Z" />
      <path
         style="fill:none;stroke:#000000;stroke-width:0.0428988px;stroke-linecap:butt;stroke-linejoin:miter;stroke-opacity:1"
         d="m 5.5729096,5.9559769 c 0,0 -0.00213,-0.5131146 -0.5576088,-0.5131146"
         id="path327" />
      <path
         id="path329"
         style="fill:#000000;fill-opacity:1;fill-rule:evenodd;stroke:none;stroke-width:0.0162138;stroke-linecap:round;stroke-linejoin:round;stroke-miterlimit:4;stroke-dasharray:none;stroke-dashoffset:1.8;stroke-opacity:1"
         d="m 5.0645025,5.4428623 a 0.0517822,0.0517822 0 0 1 -0.051782,0.051782 0.0517822,0.0517822 0 0 1 -0.051782,-0.051782 0.0517822,0.0517822 0 0 1 0.051782,-0.051782 0.0517822,0.0517822 0 0 1 0.051782,0.051782 z" />
      <path
         id="path331"
         style="fill:#ffd400;fill-opacity:1;fill-rule:evenodd;stroke:none;stroke-width:0.270202;stroke-linecap:round;stroke-linejoin:round;stroke-dashoffset:1.8"
         d="m 8.2682299,6.7943395 c 0,0 -0.439013,0.1573407 -0.458184,0.232412 -0.172819,0.5609259 -0.6078712,0.9288617 -1.4099345,0.9207979 -0.7948334,0 -1.4391733,-0.5163097 -1.4391733,-1.1532099 0,-0.6369002 0.6443399,-1.1532098 1.4391733,-1.1532099 0.7779714,-0.00347 1.253191,0.3187237 1.4099345,0.9207979 0.01917,0.075071 0.458184,0.232412 0.458184,0.232412 z" />
      <path
         id="path333"
         style="fill:#000000;fill-opacity:1;fill-rule:evenodd;stroke:none;stroke-width:0.270202;stroke-linecap:round;stroke-linejoin:round;stroke-dashoffset:1.8"
         d="M 5.4081012,6.3734731 A 0.10982951,0.10982952 0 0 1 5.2982717,6.4833026 0.10982951,0.10982952 0 0 1 5.1884422,6.3734731 0.10982951,0.10982952 0 0 1 5.2982717,6.2636436 0.10982951,0.10982952 0 0 1 5.4081012,6.3734731 Z" />
      <path
         id="path335"
         style="fill:#000000;fill-opacity:1;fill-rule:evenodd;stroke:none;stroke-width:0.270202;stroke-linecap:round;stroke-linejoin:round;stroke-dashoffset:1.8"
         d="m 8.2682299,6.7943395 c 0,0 -0.439013,0.1573407 -0.458184,0.232412 -0.08641,0.280463 -0.2383773,0.5126784 -0.4690006,0.6737699 l -0.003,-1.8260712 c 0.2356442,0.1553737 0.393635,0.3864402 0.4720067,0.6874773 0.01917,0.075071 0.458184,0.232412 0.458184,0.232412 z" />
      <path
         id="path337"
         style="fill:#000000;fill-opacity:1;fill-rule:evenodd;stroke:none;stroke-width:0.270202;stroke-linecap:round;stroke-linejoin:round;stroke-dashoffset:1.8"
         d="M 6.2530495,7.9419929 C 6.142753,7.9319112 5.8925919,7.9015312 5.7384376,7.8187392 V 5.76994 C 5.9043656,5.68222 6.1623168,5.6549109 6.2530495,5.6469653 Z" />
      <path
         id="path339"
         style="fill:#000000;fill-opacity:1;fill-rule:evenodd;stroke:none;stroke-width:0.270202;stroke-linecap:round;stroke-linejoin:round;stroke-dashoffset:1.8"
         d="M 7.0774632,7.8401579 C 6.9636343,7.8828409 6.7436089,7.9467727 6.5430931,7.9447567 V 5.6442529 c 0.1944929,-8.7e-4 0.4262133,0.061068 0.5264669,0.097663 z" />
      <path
         style="fill:none;stroke:#000000;stroke-width:0.0456375px;stroke-linecap:butt;stroke-linejoin:miter;stroke-opacity:1"
         d="m 5.0693783,7.2261392 c 0,0 0.1852953,0.020032 0.2103352,-0.1752795"
         id="path341" />
    </g>
    <g
       id="g373"
       transform="translate(-3.7041668,3.1750001)">
      <path
         style="fill:none;stroke:#000000;stroke-width:0.0661455px;stroke-linecap:butt;stroke-linejoin:miter;stroke-opacity:1"
         d="M 5.580099,7.6674267 5.3543088,7.9108344"
         id="path345" />
      <path
         style="fill:none;stroke:#000000;stroke-width:0.0661455px;stroke-linecap:butt;stroke-linejoin:miter;stroke-opacity:1"
         d="m 5.6896442,7.6985362 0.064158,0.3257487"
         id="path347" />
      <path
         style="fill:none;stroke:#000000;stroke-width:0.0661455px;stroke-linecap:butt;stroke-linejoin:miter;stroke-opacity:1"
         d="M 7.1011996,7.7379394 7.0560659,8.0668642"
         id="path349" />
      <path
         style="fill:none;stroke:#000000;stroke-width:0.0661455px;stroke-linecap:butt;stroke-linejoin:miter;stroke-opacity:1"
         d="M 7.2087536,7.7005214 7.448297,7.9304074"
         id="path351" />
      <path
         id="path353"
         style="fill:#ffffff;fill-opacity:1;fill-rule:evenodd;stroke:#000000;stroke-width:0.0270202;stroke-linecap:round;stroke-linejoin:round;stroke-miterlimit:4;stroke-dasharray:none;stroke-dashoffset:1.8;stroke-opacity:1"
         d="M 6.5440756,5.4369697 A 0.32948855,0.22358151 75 0 1 6.4133903,5.8130983 0.32948855,0.22358151 75 0 1 6.1121492,5.552704 0.32948855,0.22358151 75 0 1 6.2428345,5.1765753 0.32948855,0.22358151 75 0 1 6.5440756,5.4369697 Z" />
      <path
         id="path355"
         style="fill:#ffffff;fill-opacity:1;fill-rule:evenodd;stroke:#000000;stroke-width:0.0270202;stroke-linecap:round;stroke-linejoin:round;stroke-miterlimit:4;stroke-dasharray:none;stroke-dashoffset:1.8;stroke-opacity:1"
         d="M 6.807703,5.6066276 A 0.22358151,0.32948855 30 0 1 6.4493315,5.7801823 0.22358151,0.32948855 30 0 1 6.4204485,5.3830461 0.22358151,0.32948855 30 0 1 6.77882,5.2094914 0.22358151,0.32948855 30 0 1 6.807703,5.6066276 Z" />
      <path
         style="fill:none;stroke:#000000;stroke-width:0.0428988px;stroke-linecap:butt;stroke-linejoin:miter;stroke-opacity:1"
         d="m 5.5729096,5.9559769 c 0,0 -0.00213,-0.5131146 -0.5576088,-0.5131146"
         id="path357" />
      <path
         id="path359"
         style="fill:#000000;fill-opacity:1;fill-rule:evenodd;stroke:none;stroke-width:0.0162138;stroke-linecap:round;stroke-linejoin:round;stroke-miterlimit:4;stroke-dasharray:none;stroke-dashoffset:1.8;stroke-opacity:1"
         d="m 5.0645025,5.4428623 a 0.0517822,0.0517822 0 0 1 -0.051782,0.051782 0.0517822,0.0517822 0 0 1 -0.051782,-0.051782 0.0517822,0.0517822 0 0 1 0.051782,-0.051782 0.0517822,0.0517822 0 0 1 0.051782,0.051782 z" />
      <path
         id="path361"
         style="fill:#ffd400;fill-opacity:1;fill-rule:evenodd;stroke:none;stroke-width:0.270202;stroke-linecap:round;stroke-linejoin:round;stroke-dashoffset:1.8"
         d="m 8.2682299,6.7943395 c 0,0 -0.439013,0.1573407 -0.458184,0.232412 -0.172819,0.5609259 -0.6078712,0.9288617 -1.4099345,0.9207979 -0.7948334,0 -1.4391733,-0.5163097 -1.4391733,-1.1532099 0,-0.6369002 0.6443399,-1.1532098 1.4391733,-1.1532099 0.7779714,-0.00347 1.253191,0.3187237 1.4099345,0.9207979 0.01917,0.075071 0.458184,0.232412 0.458184,0.232412 z" />
      <path
         id="path363"
         style="fill:#000000;fill-opacity:1;fill-rule:evenodd;stroke:none;stroke-width:0.270202;stroke-linecap:round;stroke-linejoin:round;stroke-dashoffset:1.8"
         d="M 5.4081012,6.3734731 A 0.10982951,0.10982952 0 0 1 5.2982717,6.4833026 0.10982951,0.10982952 0 0 1 5.1884422,6.3734731 0.10982951,0.10982952 0 0 1 5.2982717,6.2636436 0.10982951,0.10982952 0 0 1 5.4081012,6.3734731 Z" />
      <path
         id="path365"
         style="fill:#000000;fill-opacity:1;fill-rule:evenodd;stroke:none;stroke-width:0.270202;stroke-linecap:round;stroke-linejoin:round;stroke-dashoffset:1.8"
         d="m 8.2682299,6.7943395 c 0,0 -0.439013,0.1573407 -0.458184,0.232412 -0.08641,0.280463 -0.2383773,0.5126784 -0.4690006,0.6737699 l -0.003,-1.8260712 c 0.2356442,0.1553737 0.393635,0.3864402 0.4720067,0.6874773 0.01917,0.075071 0.458184,0.232412 0.458184,0.232412 z" />
      <path
         id="path367"
         style="fill:#000000;fill-opacity:1;fill-rule:evenodd;stroke:none;stroke-width:0.270202;stroke-linecap:round;stroke-linejoin:round;stroke-dashoffset:1.8"
         d="M 6.2530495,7.9419929 C 6.142753,7.9319112 5.8925919,7.9015312 5.7384376,7.8187392 V 5.76994 C 5.9043656,5.68222 6.1623168,5.6549109 6.2530495,5.6469653 Z" />
      <path
         id="path369"
         style="fill:#000000;fill-opacity:1;fill-rule:evenodd;stroke:none;stroke-width:0.270202;stroke-linecap:round;stroke-linejoin:round;stroke-dashoffset:1.8"
         d="M 7.0774632,7.8401579 C 6.9636343,7.8828409 6.7436089,7.9467727 6.5430931,7.9447567 V 5.6442529 c 0.1944929,-8.7e-4 0.4262133,0.061068 0.5264669,0.097663 z" />
      <path
         style="fill:none;stroke:#000000;stroke-width:0.0456375px;stroke-linecap:butt;stroke-linejoin:miter;stroke-opacity:1"
         d="m 5.0693783,7.2261392 c 0,0 0.1852953,0.020032 0.2103352,-0.1752795"
         id="path371" />
    </g>
    <g
       id="g403"
       transform="translate(-3.7041668,-3.1750001)">
      <path
         style="fill:none;stroke:#000000;stroke-width:0.0661455px;stroke-linecap:butt;stroke-linejoin:miter;stroke-opacity:1"
         d="M 5.580099,7.6674267 5.3543088,7.9108344"
         id="path375" />
      <path
         style="fill:none;stroke:#000000;stroke-width:0.0661455px;stroke-linecap:butt;stroke-linejoin:miter;stroke-opacity:1"
         d="m 5.6896442,7.6985362 0.064158,0.3257487"
         id="path377" />
      <path
         style="fill:none;stroke:#000000;stroke-width:0.0661455px;stroke-linecap:butt;stroke-linejoin:miter;stroke-opacity:1"
         d="M 7.1011996,7.7379394 7.0560659,8.0668642"
         id="path379" />
      <path
         style="fill:none;stroke:#000000;stroke-width:0.0661455px;stroke-linecap:butt;stroke-linejoin:miter;stroke-opacity:1"
         d="M 7.2087536,7.7005214 7.448297,7.9304074"
         id="path381" />
      <path
         id="path383"
         style="fill:#ffffff;fill-opacity:1;fill-rule:evenodd;stroke:#000000;stroke-width:0.0270202;stroke-linecap:round;stroke-linejoin:round;stroke-miterlimit:4;stroke-dasharray:none;stroke-dashoffset:1.8;stroke-opacity:1"
         d="M 6.5440756,5.4369697 A 0.32948855,0.22358151 75 0 1 6.4133903,5.8130983 0.32948855,0.22358151 75 0 1 6.1121492,5.552704 0.32948855,0.22358151 75 0 1 6.2428345,5.1765753 0.32948855,0.22358151 75 0 1 6.5440756,5.4369697 Z" />
      <path
         id="path385"
         style="fill:#ffffff;fill-opacity:1;fill-rule:evenodd;stroke:#000000;stroke-width:0.0270202;stroke-linecap:round;stroke-linejoin:round;stroke-miterlimit:4;stroke-dasharray:none;stroke-dashoffset:1.8;stroke-opacity:1"
         d="M 6.807703,5.6066276 A 0.22358151,0.32948855 30 0 1 6.4493315,5.7801823 0.22358151,0.32948855 30 0 1 6.4204485,5.3830461 0.22358151,0.32948855 30 0 1 6.77882,5.2094914 0.22358151,0.32948855 30 0 1 6.807703,5.6066276 Z" />
      <path
         style="fill:none;stroke:#000000;stroke-width:0.0428988px;stroke-linecap:butt;stroke-linejoin:miter;stroke-opacity:1"
         d="m 5.5729096,5.9559769 c 0,0 -0.00213,-0.5131146 -0.5576088,-0.5131146"
         id="path387" />
      <path
         id="path389"
         style="fill:#000000;fill-opacity:1;fill-rule:evenodd;stroke:none;stroke-width:0.0162138;stroke-linecap:round;stroke-linejoin:round;stroke-miterlimit:4;stroke-dasharray:none;stroke-dashoffset:1.8;stroke-opacity:1"
         d="m 5.0645025,5.4428623 a 0.0517822,0.0517822 0 0 1 -0.051782,0.051782 0.0517822,0.0517822 0 0 1 -0.051782,-0.051782 0.0517822,0.0517822 0 0 1 0.051782,-0.051782 0.0517822,0.0517822 0 0 1 0.051782,0.051782 z" />
      <path
         id="path391"
         style="fill:#ffd400;fill-opacity:1;fill-rule:evenodd;stroke:none;stroke-width:0.270202;stroke-linecap:round;stroke-linejoin:round;stroke-dashoffset:1.8"
         d="m 8.2682299,6.7943395 c 0,0 -0.439013,0.1573407 -0.458184,0.232412 -0.172819,0.5609259 -0.6078712,0.9288617 -1.4099345,0.9207979 -0.7948334,0 -1.4391733,-0.5163097 -1.4391733,-1.1532099 0,-0.6369002 0.6443399,-1.1532098 1.4391733,-1.1532099 0.7779714,-0.00347 1.253191,0.3187237 1.4099345,0.9207979 0.01917,0.075071 0.458184,0.232412 0.458184,0.232412 z" />
      <path
         id="path393"
         style="fill:#000000;fill-opacity:1;fill-rule:evenodd;stroke:none;stroke-width:0.270202;stroke-linecap:round;stroke-linejoin:round;stroke-dashoffset:1.8"
         d="M 5.4081012,6.3734731 A 0.10982951,0.10982952 0 0 1 5.2982717,6.4833026 0.10982951,0.10982952 0 0 1 5.1884422,6.3734731 0.10982951,0.10982952 0 0 1 5.2982717,6.2636436 0.10982951,0.10982952 0 0 1 5.4081012,6.3734731 Z" />
      <path
         id="path395"
         style="fill:#000000;fill-opacity:1;fill-rule:evenodd;stroke:none;stroke-width:0.270202;stroke-linecap:round;stroke-linejoin:round;stroke-dashoffset:1.8"
         d="m 8.2682299,6.7943395 c 0,0 -0.439013,0.1573407 -0.458184,0.232412 -0.08641,0.280463 -0.2383773,0.5126784 -0.4690006,0.6737699 l -0.003,-1.8260712 c 0.2356442,0.1553737 0.393635,0.3864402 0.4720067,0.6874773 0.01917,0.075071 0.458184,0.232412 0.458184,0.232412 z" />
      <path
         id="path397"
         style="fill:#000000;fill-opacity:1;fill-rule:evenodd;stroke:none;stroke-width:0.270202;stroke-linecap:round;stroke-linejoin:round;stroke-dashoffset:1.8"
         d="M 6.2530495,7.9419929 C 6.142753,7.9319112 5.8925919,7.9015312 5.7384376,7.8187392 V 5.76994 C 5.9043656,5.68222 6.1623168,5.6549109 6.2530495,5.6469653 Z" />
      <path
         id="path399"
         style="fill:#000000;fill-opacity:1;fill-rule:evenodd;stroke:none;stroke-width:0.270202;stroke-linecap:round;stroke-linejoin:round;stroke-dashoffset:1.8"
         d="M 7.0774632,7.8401579 C 6.9636343,7.8828409 6.7436089,7.9467727 6.5430931,7.9447567 V 5.6442529 c 0.1944929,-8.7e-4 0.4262133,0.061068 0.5264669,0.097663 z" />
      <path
         style="fill:none;stroke:#000000;stroke-width:0.0456375px;stroke-linecap:butt;stroke-linejoin:miter;stroke-opacity:1"
         d="m 5.0693783,7.2261392 c 0,0 0.1852953,0.020032 0.2103352,-0.1752795"
         id="path401" />
    </g>
    <g
       id="g433"
       transform="translate(3.7041668,-3.1750001)">
      <path
         style="fill:none;stroke:#000000;stroke-width:0.0661455px;stroke-linecap:butt;stroke-linejoin:miter;stroke-opacity:1"
         d="M 5.580099,7.6674267 5.3543088,7.9108344"
         id="path405" />
      <path
         style="fill:none;stroke:#000000;stroke-width:0.0661455px;stroke-linecap:butt;stroke-linejoin:miter;stroke-opacity:1"
         d="m 5.6896442,7.6985362 0.064158,0.3257487"
         id="path407" />
      <path
         style="fill:none;stroke:#000000;stroke-width:0.0661455px;stroke-linecap:butt;stroke-linejoin:miter;stroke-opacity:1"
         d="M 7.1011996,7.7379394 7.0560659,8.0668642"
         id="path409" />
      <path
         style="fill:none;stroke:#000000;stroke-width:0.0661455px;stroke-linecap:butt;stroke-linejoin:miter;stroke-opacity:1"
         d="M 7.2087536,7.7005214 7.448297,7.9304074"
         id="path411" />
      <path
         id="path413"
         style="fill:#ffffff;fill-opacity:1;fill-rule:evenodd;stroke:#000000;stroke-width:0.0270202;stroke-linecap:round;stroke-linejoin:round;stroke-miterlimit:4;stroke-dasharray:none;stroke-dashoffset:1.8;stroke-opacity:1"
         d="M 6.5440756,5.4369697 A 0.32948855,0.22358151 75 0 1 6.4133903,5.8130983 0.32948855,0.22358151 75 0 1 6.1121492,5.552704 0.32948855,0.22358151 75 0 1 6.2428345,5.1765753 0.32948855,0.22358151 75 0 1 6.5440756,5.4369697 Z" />
      <path
         id="path415"
         style="fill:#ffffff;fill-opacity:1;fill-rule:evenodd;stroke:#000000;stroke-width:0.0270202;stroke-linecap:round;stroke-linejoin:round;stroke-miterlimit:4;stroke-dasharray:none;stroke-dashoffset:1.8;stroke-opacity:1"
         d="M 6.807703,5.6066276 A 0.22358151,0.32948855 30 0 1 6.4493315,5.7801823 0.22358151,0.32948855 30 0 1 6.4204485,5.3830461 0.22358151,0.32948855 30 0 1 6.77882,5.2094914 0.22358151,0.32948855 30 0 1 6.807703,5.6066276 Z" />
      <path
         style="fill:none;stroke:#000000;stroke-width:0.0428988px;stroke-linecap:butt;stroke-linejoin:miter;stroke-opacity:1"
         d="m 5.5729096,5.9559769 c 0,0 -0.00213,-0.5131146 -0.5576088,-0.5131146"
         id="path417" />
      <path
         id="path419"
         style="fill:#000000;fill-opacity:1;fill-rule:evenodd;stroke:none;stroke-width:0.0162138;stroke-linecap:round;stroke-linejoin:round;stroke-miterlimit:4;stroke-dasharray:none;stroke-dashoffset:1.8;stroke-opacity:1"
         d="m 5.0645025,5.4428623 a 0.0517822,0.0517822 0 0 1 -0.051782,0.051782 0.0517822,0.0517822 0 0 1 -0.051782,-0.051782 0.0517822,0.0517822 0 0 1 0.051782,-0.051782 0.0517822,0.0517822 0 0 1 0.051782,0.051782 z" />
      <path
         id="path421"
         style="fill:#ffd400;fill-opacity:1;fill-rule:evenodd;stroke:none;stroke-width:0.270202;stroke-linecap:round;stroke-linejoin:round;stroke-dashoffset:1.8"
         d="m 8.2682299,6.7943395 c 0,0 -0.439013,0.1573407 -0.458184,0.232412 -0.172819,0.5609259 -0.6078712,0.9288617 -1.4099345,0.9207979 -0.7948334,0 -1.4391733,-0.5163097 -1.4391733,-1.1532099 0,-0.6369002 0.6443399,-1.1532098 1.4391733,-1.1532099 0.7779714,-0.00347 1.253191,0.3187237 1.4099345,0.9207979 0.01917,0.075071 0.458184,0.232412 0.458184,0.232412 z" />
      <path
         id="path423"
         style="fill:#000000;fill-opacity:1;fill-rule:evenodd;stroke:none;stroke-width:0.270202;stroke-linecap:round;stroke-linejoin:round;stroke-dashoffset:1.8"
         d="M 5.4081012,6.3734731 A 0.10982951,0.10982952 0 0 1 5.2982717,6.4833026 0.10982951,0.10982952 0 0 1 5.1884422,6.3734731 0.10982951,0.10982952 0 0 1 5.2982717,6.2636436 0.10982951,0.10982952 0 0 1 5.4081012,6.3734731 Z" />
      <path
         id="path425"
         style="fill:#000000;fill-opacity:1;fill-rule:evenodd;stroke:none;stroke-width:0.270202;stroke-linecap:round;stroke-linejoin:round;stroke-dashoffset:1.8"
         d="m 8.2682299,6.7943395 c 0,0 -0.439013,0.1573407 -0.458184,0.232412 -0.08641,0.280463 -0.2383773,0.5126784 -0.4690006,0.6737699 l -0.003,-1.8260712 c 0.2356442,0.1553737 0.393635,0.3864402 0.4720067,0.6874773 0.01917,0.075071 0.458184,0.232412 0.458184,0.232412 z" />
      <path
         id="path427"
         style="fill:#000000;fill-opacity:1;fill-rule:evenodd;stroke:none;stroke-width:0.270202;stroke-linecap:round;stroke-linejoin:round;stroke-dashoffset:1.8"
         d="M 6.2530495,7.9419929 C 6.142753,7.9319112 5.8925919,7.9015312 5.7384376,7.8187392 V 5.76994 C 5.9043656,5.68222 6.1623168,5.6549109 6.2530495,5.6469653 Z" />
      <path
         id="path429"
         style="fill:#000000;fill-opacity:1;fill-rule:evenodd;stroke:none;stroke-width:0.270202;stroke-linecap:round;stroke-linejoin:round;stroke-dashoffset:1.8"
         d="M 7.0774632,7.8401579 C 6.9636343,7.8828409 6.7436089,7.9467727 6.5430931,7.9447567 V 5.6442529 c 0.1944929,-8.7e-4 0.4262133,0.061068 0.5264669,0.097663 z" />
      <path
         style="fill:none;stroke:#000000;stroke-width:0.0456375px;stroke-linecap:butt;stroke-linejoin:miter;stroke-opacity:1"
         d="m 5.0693783,7.2261392 c 0,0 0.1852953,0.020032 0.2103352,-0.1752795"
         id="path431" />
    </g>
  </g>
</svg>
