<?xml version="1.0" encoding="UTF-8" standalone="no"?>
<svg
   xmlns:dc="http://purl.org/dc/elements/1.1/"
   xmlns:cc="http://creativecommons.org/ns#"
   xmlns:rdf="http://www.w3.org/1999/02/22-rdf-syntax-ns#"
   xmlns:svg="http://www.w3.org/2000/svg"
   xmlns="http://www.w3.org/2000/svg"
   xmlns:sodipodi="http://sodipodi.sourceforge.net/DTD/sodipodi-0.dtd"
   xmlns:inkscape="http://www.inkscape.org/namespaces/inkscape"
   width="50"
   height="50"
   viewBox="0 0 13.229166 13.229167"
   version="1.1"
   id="svg8"
   inkscape:version="1.0.1 (c497b03c, 2020-09-10)"
   sodipodi:docname="stand.svg">
  <defs
     id="defs2" />
  <sodipodi:namedview
     id="base"
     pagecolor="#ffffff"
     bordercolor="#666666"
     borderopacity="1.0"
     inkscape:pageopacity="0.0"
     inkscape:pageshadow="2"
     inkscape:zoom="5.2873863"
     inkscape:cx="57.528667"
     inkscape:cy="38.985623"
     inkscape:document-units="mm"
     inkscape:current-layer="layer1"
     inkscape:document-rotation="0"
     showgrid="false"
     units="px"
     inkscape:window-width="1440"
     inkscape:window-height="847"
     inkscape:window-x="0"
     inkscape:window-y="25"
     inkscape:window-maximized="0" />
  <metadata
     id="metadata5">
    <rdf:RDF>
      <cc:Work
         rdf:about="">
        <dc:format>image/svg+xml</dc:format>
        <dc:type
           rdf:resource="http://purl.org/dc/dcmitype/StillImage" />
        <dc:title />
      </cc:Work>
    </rdf:RDF>
  </metadata>
  <g
     inkscape:label="レイヤー 1"
     inkscape:groupmode="layer"
     id="layer1">
    <path
       id="rect849"
       style="fill:#ff98f2;fill-opacity:1;fill-rule:evenodd;stroke:none;stroke-width:0.529167;stroke-linecap:round;stroke-linejoin:round;stroke-dashoffset:1.8"
       d="M 5.7244419,0.25745451 C 5.6748984,0.25240038 5.6294477,0.26100366 5.590083,0.28794361 5.2751667,0.50346322 4.9916122,0.81569793 4.7534417,1.2010662 4.4648101,1.6680817 4.2442794,2.6317215 4.1142041,3.5802491 3.2934251,3.4540058 2.489213,3.4015419 2.0259595,3.51462 1.5858544,3.6220491 1.201699,3.7953797 0.89941333,4.0282837 0.59712764,4.2611869 1.2285922,5.1951374 1.2285922,5.1951374 c 0,0 -1.06987206,0.4162793 -0.96221515,0.7823814 C 0.37403304,6.3436217 0.58273317,6.7093732 0.87564219,7.0549723 1.1587529,7.3890119 1.7576672,7.7798449 2.4249016,8.1360433 1.9494808,9.0074723 1.5321992,9.968539 1.4895582,10.537964 c -0.033829,0.451762 0.012466,0.870442 0.1405599,1.229899 0.1280932,0.359467 1.2531533,0.01809 1.2531533,0.01809 0,0 0.023175,1.175751 0.4046265,1.186491 0.3814519,0.01075 0.7941646,-0.07472 1.2133628,-0.246497 0.5599414,-0.229449 1.4054825,-0.994241 2.113566,-1.760616 0.7080834,0.766375 1.5536261,1.531166 2.113566,1.760616 0.4191976,0.171777 0.83191,0.25724 1.2133627,0.246497 0.3814506,-0.01074 0.2873206,-1.264523 0.2873206,-1.264523 0,0 1.242365,0.419407 1.370459,0.05995 0.128094,-0.359462 0.17439,-0.778136 0.14056,-1.229899 C 11.697455,9.9685393 11.280173,9.0074721 10.804752,8.1360433 11.471986,7.7798451 12.0709,7.3890119 12.354011,7.0549723 12.646919,6.7093732 12.855619,6.3436215 12.963276,5.9775188 13.070933,5.6114162 11.92303,5.2731689 11.92303,5.2731689 c 0,0 0.709496,-1.011981 0.40721,-1.2448852 C 12.027954,3.7953797 11.6438,3.6220485 11.203694,3.51462 10.740441,3.4015413 9.9362283,3.4540058 9.1154492,3.5802491 8.985374,2.6317215 8.7648432,1.6680817 8.4762117,1.2010662 8.2380412,0.81569793 7.9544867,0.50346322 7.6395703,0.28794361 7.3246537,0.07242401 6.6148267,1.0119304 6.6148267,1.0119304 c 0,0 -0.5435804,-0.71909689 -0.8903848,-0.75447589 z" />
    <path
       id="circle855"
       style="fill:#fff15e;fill-opacity:1;fill-rule:evenodd;stroke:#fdfdfd;stroke-width:0.5;stroke-linecap:round;stroke-linejoin:round;stroke-dashoffset:1.8;stroke-opacity:1;stroke-miterlimit:4;stroke-dasharray:none"
       d="M 9.0323424,7.026762 A 2.4177589,2.4177589 0 0 1 6.6145835,9.444521 2.4177589,2.4177589 0 0 1 4.1968246,7.026762 2.4177589,2.4177589 0 0 1 6.6145835,4.6090031 2.4177589,2.4177589 0 0 1 9.0323424,7.026762 Z" />
    <path
       style="fill:none;stroke:#000000;stroke-width:0.188446;stroke-linecap:round;stroke-linejoin:miter;stroke-miterlimit:4;stroke-dasharray:none;stroke-opacity:1"
       d="m 5.0293641,6.2791742 c 0,0 0.5498082,-0.87289 1.0537716,0"
       id="path875" />
    <path
       style="fill:none;stroke:#000000;stroke-width:0.188446;stroke-linecap:round;stroke-linejoin:miter;stroke-miterlimit:4;stroke-dasharray:none;stroke-opacity:1"
       d="m 7.1460309,6.2791742 c 0,0 0.5498082,-0.87289 1.0537716,0"
       id="path877" />
    <path
       id="path879"
       style="fill:#ff0000;fill-opacity:1;fill-rule:evenodd;stroke:none;stroke-width:0.173866;stroke-linecap:round;stroke-linejoin:round;stroke-miterlimit:4;stroke-dasharray:none;stroke-dashoffset:1.8"
       d="m 6.9471929,7.2582831 c -1e-7,0.2972245 -0.1489144,0.5381733 -0.3326096,0.5381733 -0.1836951,0 -0.3326094,-0.2409488 -0.3326095,-0.5381733 z"
       sodipodi:nodetypes="cscc" />
    <path
       id="path892"
       style="fill:none;fill-opacity:1;fill-rule:evenodd;stroke:#e7e7e7;stroke-width:0.194843;stroke-linecap:round;stroke-linejoin:round;stroke-miterlimit:4;stroke-dasharray:none;stroke-dashoffset:1.8;stroke-opacity:1"
       d="m 6.5601541,6.0854168 a 1.003904,0.73700804 0 0 1 -1.003904,0.737008 1.003904,0.73700804 0 0 1 -1.003904,-0.737008 1.003904,0.73700804 0 0 1 1.003904,-0.737008 1.003904,0.73700804 0 0 1 1.003904,0.737008 z" />
    <path
       id="ellipse894"
       style="fill:none;fill-opacity:1;fill-rule:evenodd;stroke:#e7e7e7;stroke-width:0.194843;stroke-linecap:round;stroke-linejoin:round;stroke-miterlimit:4;stroke-dasharray:none;stroke-dashoffset:1.8;stroke-opacity:1"
       d="m 8.6768209,6.0854168 a 1.003904,0.73700804 0 0 1 -1.003904,0.737008 1.003904,0.73700804 0 0 1 -1.003904,-0.737008 1.003904,0.73700804 0 0 1 1.003904,-0.737008 1.003904,0.73700804 0 0 1 1.003904,0.737008 z" />
    <path
       style="fill:none;stroke:#e7e7e7;stroke-width:0.265;stroke-linecap:round;stroke-linejoin:miter;stroke-opacity:1;stroke-miterlimit:4;stroke-dasharray:none"
       d="M 4.5594727,5.9687642 3.9377265,5.5335418"
       id="path896" />
    <path
       style="fill:none;stroke:#e7e7e7;stroke-width:0.265;stroke-linecap:round;stroke-linejoin:miter;stroke-miterlimit:4;stroke-dasharray:none;stroke-opacity:1"
       d="M 8.7002268,5.9687642 9.321973,5.5335418"
       id="path898" />
  </g>
</svg>
