<?xml version="1.0" encoding="UTF-8" standalone="no"?>
<svg
   xmlns:dc="http://purl.org/dc/elements/1.1/"
   xmlns:cc="http://creativecommons.org/ns#"
   xmlns:rdf="http://www.w3.org/1999/02/22-rdf-syntax-ns#"
   xmlns:svg="http://www.w3.org/2000/svg"
   xmlns="http://www.w3.org/2000/svg"
   xmlns:sodipodi="http://sodipodi.sourceforge.net/DTD/sodipodi-0.dtd"
   xmlns:inkscape="http://www.inkscape.org/namespaces/inkscape"
   width="100"
   height="100"
   viewBox="0 0 26.458333 26.458334"
   version="1.1"
   id="svg8"
   inkscape:version="1.0.1 (c497b03c, 2020-09-10)"
   sodipodi:docname="drum190.svg">
  <defs
     id="defs2">
    <clipPath
       clipPathUnits="userSpaceOnUse"
       id="clipPath26">
      <path
         d="M 0,1217.008 H 1617.008 V 0 H 0 Z"
         id="path24" />
    </clipPath>
  </defs>
  <sodipodi:namedview
     id="base"
     pagecolor="#ffffff"
     bordercolor="#666666"
     borderopacity="1.0"
     inkscape:pageopacity="0.0"
     inkscape:pageshadow="2"
     inkscape:zoom="1"
     inkscape:cx="-169.86896"
     inkscape:cy="27.349961"
     inkscape:document-units="mm"
     inkscape:current-layer="layer1"
     inkscape:document-rotation="0"
     showgrid="false"
     units="px"
     fit-margin-top="0"
     fit-margin-left="0"
     fit-margin-right="0"
     fit-margin-bottom="0"
     inkscape:window-width="1440"
     inkscape:window-height="847"
     inkscape:window-x="0"
     inkscape:window-y="25"
     inkscape:window-maximized="0" />
  <metadata
     id="metadata5">
    <rdf:RDF>
      <cc:Work
         rdf:about="">
        <dc:format>image/svg+xml</dc:format>
        <dc:type
           rdf:resource="http://purl.org/dc/dcmitype/StillImage" />
        <dc:title></dc:title>
      </cc:Work>
    </rdf:RDF>
  </metadata>
  <g
     inkscape:label="レイヤー 1"
     inkscape:groupmode="layer"
     id="layer1"
     transform="translate(17.607812,0.80309164)">
    <g
       id="g22"
       clip-path="url(#clipPath26)"
       transform="matrix(-0.00231092,-0.02198833,0.02179857,-0.00229124,-15.607931,31.346535)">
      <g
         id="g28"
         transform="translate(801.501,1042.9858)">
        <path
           d="m 0,0 c -242.629,0.777 -439.947,-195.282 -440.725,-437.91 -0.154,-48.311 7.507,-94.822 21.774,-138.345 -6.5,41.856 -14.742,156.979 66.097,258.936 51.285,53.273 118.684,81.796 158.169,94.949 12.911,-95.361 94.476,-169.015 193.431,-169.332 108.165,-0.346 196.13,87.058 196.477,195.224 C 195.569,-88.313 108.166,-0.347 0,0"
           style="fill:#231916;fill-opacity:1;fill-rule:nonzero;stroke:none"
           id="path30" />
      </g>
      <g
         id="g32"
         transform="translate(382.9985,465.3301)">
        <path
           d="m 0,0 c -0.154,0.464 -0.296,0.934 -0.449,1.4 0.04,-0.258 0.081,-0.529 0.121,-0.784 z"
           style="fill:#231916;fill-opacity:1;fill-rule:nonzero;stroke:none"
           id="path34" />
      </g>
      <g
         id="g36"
         transform="translate(1163.1816,365.8174)"
         style="fill:#ffffff;fill-opacity:1;stroke:#000000;stroke-width:11.3565;stroke-miterlimit:4;stroke-dasharray:none;stroke-opacity:1">
        <path
           d="m 0,0 c 130.354,204.639 70.136,476.204 -134.502,606.557 -40.747,25.956 -84.151,44.345 -128.561,55.553 38.849,-16.881 140.55,-71.455 183.504,-194.278 17.608,-71.819 5.687,-144.026 -4.304,-184.429 -87.496,40.065 -193.344,10.505 -246.508,-72.957 -58.113,-91.229 -31.266,-212.293 59.962,-270.408 C -179.179,-118.074 -58.113,-91.229 0,0"
           style="fill:#ffffff;fill-opacity:1;fill-rule:nonzero;stroke:#000000;stroke-width:11.3565;stroke-miterlimit:4;stroke-dasharray:none;stroke-opacity:1"
           id="path38" />
      </g>
      <g
         id="g40"
         transform="translate(898.6963,1028.2959)">
        <path
           d="m 0,0 c 0.474,-0.117 0.947,-0.249 1.422,-0.368 -0.238,0.104 -0.49,0.215 -0.727,0.316 z"
           style="fill:#231916;fill-opacity:1;fill-rule:nonzero;stroke:none"
           id="path42" />
      </g>
      <g
         id="g44"
         transform="translate(415.3374,388.2236)"
         style="fill:#ffffff;fill-opacity:1;stroke:#000000;stroke-width:11.3565;stroke-miterlimit:4;stroke-dasharray:none;stroke-opacity:1">
        <path
           d="m 0,0 c 118.921,-211.489 386.769,-286.529 598.257,-167.609 42.11,23.678 78.803,53.269 109.64,87.137 -33.216,-26.287 -129.319,-90.204 -257.877,-70.125 -71.63,18.364 -129.67,62.944 -160.577,90.817 76.608,58.24 100.489,165.509 51.986,251.765 C 288.415,286.268 169.006,319.721 74.723,266.706 -19.561,213.69 -53.015,94.283 0,0"
           style="fill:#ffffff;fill-opacity:1;fill-rule:nonzero;stroke:#000000;stroke-width:11.3565;stroke-miterlimit:4;stroke-dasharray:none;stroke-opacity:1"
           id="path46" />
      </g>
      <g
         id="g48"
         transform="translate(1124.2305,308.832)">
        <path
           d="m 0,0 c -0.326,-0.363 -0.668,-0.719 -0.996,-1.08 0.205,0.161 0.419,0.331 0.62,0.491 z"
           style="fill:#231916;fill-opacity:1;fill-rule:nonzero;stroke:none"
           id="path50" />
      </g>
    </g>
  </g>
</svg>
