<?xml version="1.0" encoding="UTF-8" standalone="no"?>
<svg
   xmlns:dc="http://purl.org/dc/elements/1.1/"
   xmlns:cc="http://creativecommons.org/ns#"
   xmlns:rdf="http://www.w3.org/1999/02/22-rdf-syntax-ns#"
   xmlns:svg="http://www.w3.org/2000/svg"
   xmlns="http://www.w3.org/2000/svg"
   width="50"
   height="50"
   viewBox="0 0 50 50"
   version="1.1"
   id="svg8"
   shape-rendering="crispEdges">
  <defs
     id="defs2">
    <filter
       style="color-interpolation-filters:sRGB"
       id="filter1200">
      <feGaussianBlur
         stdDeviation="3"
         result="result10"
         id="feGaussianBlur1182" />
      <feBlend
         in2="SourceGraphic"
         result="result5"
         mode="multiply"
         in="result10"
         id="feBlend1184" />
      <feComposite
         in2="SourceGraphic"
         in="result5"
         result="fbSourceGraphic"
         operator="over"
         id="feComposite1186" />
      <feGaussianBlur
         result="result9"
         stdDeviation="5"
         id="feGaussianBlur1188" />
      <feSpecularLighting
         in="result9"
         result="result1"
         lighting-color="#ffffff"
         surfaceScale="1"
         specularConstant="2.20000005"
         specularExponent="45"
         id="feSpecularLighting1192">
        <fePointLight
           x="-5000"
           y="-10000"
           z="20000"
           id="fePointLight1190" />
      </feSpecularLighting>
      <feComposite
         in2="fbSourceGraphic"
         in="result1"
         result="result2"
         operator="in"
         id="feComposite1194" />
      <feComposite
         in="result2"
         result="result4"
         operator="arithmetic"
         k2="2"
         k3="0.8"
         in2="fbSourceGraphic"
         id="feComposite1196"
         k1="0"
         k4="0" />
      <feBlend
         in="result4"
         in2="result4"
         mode="multiply"
         id="feBlend1198" />
    </filter>
    <filter
       style="color-interpolation-filters:sRGB"
       id="filter2161">
      <feGaussianBlur
         result="result1"
         stdDeviation="3"
         id="feGaussianBlur2139" />
      <feBlend
         in2="result1"
         result="result5"
         mode="multiply"
         in="result1"
         id="feBlend2141" />
      <feGaussianBlur
         in="result5"
         result="result6"
         stdDeviation="1"
         id="feGaussianBlur2143" />
      <feComposite
         result="result8"
         in2="result5"
         in="result6"
         operator="xor"
         id="feComposite2145" />
      <feComposite
         in="result6"
         result="fbSourceGraphic"
         operator="xor"
         in2="result8"
         id="feComposite2147" />
      <feSpecularLighting
         in="fbSourceGraphic"
         result="result1"
         lighting-color="#ffffff"
         surfaceScale="2"
         specularConstant="2.20000005"
         specularExponent="55"
         id="feSpecularLighting2151">
        <fePointLight
           x="-5000"
           y="-10000"
           z="20000"
           id="fePointLight2149" />
      </feSpecularLighting>
      <feComposite
         in2="fbSourceGraphic"
         in="result1"
         result="result2"
         operator="in"
         id="feComposite2153" />
      <feComposite
         in="fbSourceGraphic"
         result="result4"
         operator="arithmetic"
         k2="2"
         k3="1"
         in2="result2"
         id="feComposite2155"
         k1="0"
         k4="0" />
      <feComposite
         in2="result4"
         in="result4"
         operator="in"
         result="result91"
         id="feComposite2157" />
      <feBlend
         mode="darken"
         in2="result91"
         id="feBlend2159" />
    </filter>
  </defs>
  <metadata
     id="metadata5">
    <rdf:RDF>
      <cc:Work
         rdf:about="">
        <dc:format>image/svg+xml</dc:format>
        <dc:type
           rdf:resource="http://purl.org/dc/dcmitype/StillImage" />
        <dc:title></dc:title>
      </cc:Work>
    </rdf:RDF>
  </metadata>
  <path
     id="rect961"
     style="fill:#999999;fill-opacity:1;fill-rule:evenodd;stroke:none;stroke-width:1.30805;stroke-miterlimit:4;stroke-dasharray:none;stroke-opacity:1"
     d="m 38.300964,30.149082 h 5.617859 c 2.713828,0 4.490434,2.251659 4.898618,4.978219 l 0.865032,5.77826 c 0.051,0.340844 -0.200545,5.024808 -0.964211,6.719835 -0.839371,1.86306 -0.968662,2.706162 -2.014671,2.254248 -0.585706,-0.253067 1.787245,-5.244484 0.883338,-5.45075 -0.610877,-0.139426 -2.255739,5.267375 -3.487872,4.581234 -0.558139,-0.310823 1.363256,-3.126355 0.684799,-3.126355 -1.711982,0 -3.082424,3.707627 -4.432085,2.637281 -0.710461,-0.563438 1.468585,-2.073843 0.758127,-2.637281 -1.34966,-1.070341 -3.082432,3.707627 -4.432093,2.637281 -0.710461,-0.563438 0.758122,-2.637281 0.758122,-2.637281 0.190273,-0.661815 -3.918954,2.498509 -4.505409,2.247267 -0.586455,-0.251192 1.481129,-3.252242 1.038416,-3.702146 -0.442711,-0.449903 -5.125793,3.409457 -5.373023,2.813467 -0.247216,-0.595983 3.839358,-5.655155 3.941406,-6.3368 l 0.865033,-5.77826 c 0.408181,-2.72656 2.184786,-4.978219 4.898614,-4.978219 z" />
  <rect
     fill-opacity="0"
     fill="#000000"
     height="529.16663"
     width="529.16663"
     y="-215.35133"
     x="-284.17816"
     id="rect942"
     style="stroke-width:1.05833" />
  <g
     stroke-linejoin="round"
     fill="#ffffff"
     id="g966"
     transform="matrix(1.6347129,0,0,1.661275,-53.977312,20.644744)">
    <g
       id="g1952">
      <g
         id="g1890"
         transform="matrix(-0.1220192,-0.0271351,-0.02713509,0.12201921,86.572646,21.660488)"
         style="fill:#a1a1a1;fill-opacity:1;stroke:#e1e1e1;stroke-opacity:1">
        <path
           stroke-linecap="round"
           stroke-linejoin="round"
           stroke-width="6"
           stroke-opacity="1"
           stroke="#444444"
           fill="none"
           d="m 349.16408,-80.234089 c 4.78959,-5.10445 2.62761,-10.7512 -1.41906,-12.9584 -10.966,-5.98042 -22.6943,4.53373 -25.2173,14.9042 -4.51251,18.5499 11.3101,35.0054 28.8208,37.4845 25.6968,3.63801 47.3361,-18.1943 49.5336,-42.9044 2.92919,-32.935301 -24.9817,-60.029601 -56.7394,-61.871901 -39.964,-2.31831 -72.4174,31.9162 -73.85,70.905701 -1.73536,47.221 38.6673,85.2522 84.6593,86.2592 54.1995,1.18675 97.6067,-45.6441 98.1664,-98.9071 0.64646,-61.494401 -52.3552,-110.541001 -112.578,-110.647001 -68.4302,-0.12007 -122.845,59.372 -122.48,126.905001 13.8434,10.6091 33.3082,14.8092 54.2651,17.3066"
           id="path1852"
           style="fill:#a1a1a1;fill-opacity:1;stroke:#e1e1e1;stroke-width:5.82083;stroke-linecap:round;stroke-linejoin:round;stroke-miterlimit:4;stroke-dasharray:none;stroke-opacity:1" />
        <path
           style="fill:#a1a1a1;fill-opacity:1;stroke:#e1e1e1;stroke-width:5.82083;stroke-linecap:round;stroke-linejoin:round;stroke-miterlimit:4;stroke-dasharray:none;stroke-opacity:1"
           d="m 281.68256,-111.24074 c 0,0 -35.90076,1.29518 -43.92339,-28.64568"
           id="path1854" />
        <path
           style="fill:#a1a1a1;fill-opacity:1;stroke:#e1e1e1;stroke-width:5.82083;stroke-linecap:round;stroke-linejoin:round;stroke-miterlimit:4;stroke-dasharray:none;stroke-opacity:1"
           d="m 309.37337,-137.49928 c 0,0 -33.41997,-10.98084 -27.2134,-45.83309"
           id="path1856" />
        <path
           style="fill:#a1a1a1;fill-opacity:1;stroke:#e1e1e1;stroke-width:5.82083;stroke-linecap:round;stroke-linejoin:round;stroke-miterlimit:4;stroke-dasharray:none;stroke-opacity:1"
           d="m 348.04506,-145.61555 c 0,0 -25.78114,-26.73597 1.90971,-52.51709"
           id="path1858" />
        <path
           style="fill:#a1a1a1;fill-opacity:1;stroke:#e1e1e1;stroke-width:5.82083;stroke-linecap:round;stroke-linejoin:round;stroke-miterlimit:4;stroke-dasharray:none;stroke-opacity:1"
           d="m 379.55529,-131.77014 c 0,0 -4.29686,-34.85225 36.28454,-37.71682"
           id="path1860" />
        <path
           style="fill:#a1a1a1;fill-opacity:1;stroke:#e1e1e1;stroke-width:5.82083;stroke-linecap:round;stroke-linejoin:round;stroke-miterlimit:4;stroke-dasharray:none;stroke-opacity:1"
           d="m 398.65241,-103.60189 c 0,0 18.61971,-25.78111 51.56224,-7.16142"
           id="path1862" />
        <path
           style="fill:#a1a1a1;fill-opacity:1;stroke:#e1e1e1;stroke-width:5.82083;stroke-linecap:round;stroke-linejoin:round;stroke-miterlimit:4;stroke-dasharray:none;stroke-opacity:1"
           d="m 397.22014,-69.704494 c 0,0 28.16826,-14.322843 50.60736,12.413128"
           id="path1864" />
        <path
           style="fill:#a1a1a1;fill-opacity:1;stroke:#e1e1e1;stroke-width:5.82083;stroke-linecap:round;stroke-linejoin:round;stroke-miterlimit:4;stroke-dasharray:none;stroke-opacity:1"
           d="m 380.51015,-47.742805 c 0,0 38.19424,6.206564 33.89738,40.1039562"
           id="path1866" />
        <path
           style="fill:#a1a1a1;fill-opacity:1;stroke:#e1e1e1;stroke-width:5.82083;stroke-linecap:round;stroke-linejoin:round;stroke-miterlimit:4;stroke-dasharray:none;stroke-opacity:1"
           d="m 357.5936,-40.581384 c 0,0 21.00684,25.303687 0.47745,51.562229"
           id="path1868" />
        <path
           style="fill:#a1a1a1;fill-opacity:1;stroke:#e1e1e1;stroke-width:5.82083;stroke-linecap:round;stroke-linejoin:round;stroke-miterlimit:4;stroke-dasharray:none;stroke-opacity:1"
           d="m 334.19962,-48.69766 c 0,0 7.63887,24.826258 -31.03282,42.0136673"
           id="path1870" />
        <path
           style="fill:#a1a1a1;fill-opacity:1;stroke:#e1e1e1;stroke-width:5.82083;stroke-linecap:round;stroke-linejoin:round;stroke-miterlimit:4;stroke-dasharray:none;stroke-opacity:1"
           d="m 322.74137,-66.362497 c 0,0 -12.41314,31.51025 -48.22024,20.529404"
           id="path1872" />
        <path
           style="fill:#a1a1a1;fill-opacity:1;stroke:#e1e1e1;stroke-width:5.82083;stroke-linecap:round;stroke-linejoin:round;stroke-miterlimit:4;stroke-dasharray:none;stroke-opacity:1"
           d="m 323.69622,-84.027337 c 0,0 -40.58139,14.80027 -45.83311,-21.484263"
           id="path1874" />
        <path
           style="fill:#a1a1a1;fill-opacity:1;stroke:#e1e1e1;stroke-width:5.82083;stroke-linecap:round;stroke-linejoin:round;stroke-miterlimit:4;stroke-dasharray:none;stroke-opacity:1"
           d="m 334.67706,-93.098468 c 0,0 -27.2134,-20.051982 -18.6197,-47.265382"
           id="path1876" />
        <path
           style="fill:#a1a1a1;fill-opacity:1;stroke:#e1e1e1;stroke-width:5.82083;stroke-linecap:round;stroke-linejoin:round;stroke-miterlimit:4;stroke-dasharray:none;stroke-opacity:1"
           d="m 347.56762,-93.098468 c 0,0 -18.14227,-24.826262 10.50343,-49.175092"
           id="path1878" />
        <path
           style="fill:#a1a1a1;fill-opacity:1;stroke:#e1e1e1;stroke-width:5.82083;stroke-linecap:round;stroke-linejoin:round;stroke-miterlimit:4;stroke-dasharray:none;stroke-opacity:1"
           d="m 391.49099,-119.35701 c -31.98768,-8.11628 -40.10395,31.510249 -40.10395,31.510249 0,0 24.82626,-21.006829 49.65252,-0.954855"
           id="path1880" />
        <path
           style="fill:#a1a1a1;fill-opacity:1;stroke:#e1e1e1;stroke-width:5.82083;stroke-linecap:round;stroke-linejoin:round;stroke-miterlimit:4;stroke-dasharray:none;stroke-opacity:1"
           d="m 351.38704,-87.846761 c 0,0 38.67168,0 40.58139,28.645683"
           id="path1882" />
        <path
           style="fill:#a1a1a1;fill-opacity:1;stroke:#e1e1e1;stroke-width:5.82083;stroke-linecap:round;stroke-linejoin:round;stroke-miterlimit:4;stroke-dasharray:none;stroke-opacity:1"
           d="m 370.00674,-42.968523 c 4.29684,-24.826259 -20.84265,-37.265565 -20.84265,-37.265565 0,0 10.33923,22.465295 -2.0739,37.742992"
           id="path1884" />
        <path
           style="fill:#a1a1a1;fill-opacity:1;stroke:#e1e1e1;stroke-width:5.82083;stroke-linecap:round;stroke-linejoin:round;stroke-miterlimit:4;stroke-dasharray:none;stroke-opacity:1"
           d="m 326.56078,-55.859081 c 20.5294,-5.729137 22.60331,-24.375007 22.60331,-24.375007 0,0 -12.57732,8.619881 -26.90016,5.755313"
           id="path1886" />
        <path
           style="fill:#a1a1a1;fill-opacity:1;stroke:#e1e1e1;stroke-width:5.82083;stroke-linecap:round;stroke-linejoin:round;stroke-miterlimit:4;stroke-dasharray:none;stroke-opacity:1"
           d="m 349.16409,-80.234088 c 0,0 -19.2613,-0.928679 -19.73874,-9.522386"
           id="path1888" />
      </g>
      <g
         id="g1810"
         transform="matrix(-0.1220192,-0.0271351,-0.02713509,0.12201921,86.870366,21.958204)"
         style="stroke:#000000;stroke-opacity:1">
        <path
           stroke-linecap="round"
           stroke-linejoin="round"
           stroke-width="6"
           stroke-opacity="1"
           stroke="#444444"
           fill="none"
           d="m 349.16408,-80.234089 c 4.78959,-5.10445 2.62761,-10.7512 -1.41906,-12.9584 -10.966,-5.98042 -22.6943,4.53373 -25.2173,14.9042 -4.51251,18.5499 11.3101,35.0054 28.8208,37.4845 25.6968,3.63801 47.3361,-18.1943 49.5336,-42.9044 2.92919,-32.935301 -24.9817,-60.029601 -56.7394,-61.871901 -39.964,-2.31831 -72.4174,31.9162 -73.85,70.905701 -1.73536,47.221 38.6673,85.2522 84.6593,86.2592 54.1995,1.18675 97.6067,-45.6441 98.1664,-98.9071 0.64646,-61.494401 -52.3552,-110.541001 -112.578,-110.647001 -68.4302,-0.12007 -122.845,59.372 -122.48,126.905001 13.8434,10.6091 33.3082,14.8092 54.2651,17.3066"
           id="path1772"
           style="fill:none;fill-opacity:1;stroke:#000000;stroke-width:5.82083;stroke-linecap:round;stroke-linejoin:round;stroke-miterlimit:4;stroke-dasharray:none;stroke-opacity:1" />
        <path
           style="fill:none;stroke:#000000;stroke-width:5.82083;stroke-linecap:round;stroke-linejoin:round;stroke-miterlimit:4;stroke-dasharray:none;stroke-opacity:1"
           d="m 281.68256,-111.24074 c 0,0 -35.90076,1.29518 -43.92339,-28.64568"
           id="path1774" />
        <path
           style="fill:none;stroke:#000000;stroke-width:5.82083;stroke-linecap:round;stroke-linejoin:round;stroke-miterlimit:4;stroke-dasharray:none;stroke-opacity:1"
           d="m 309.37337,-137.49928 c 0,0 -33.41997,-10.98084 -27.2134,-45.83309"
           id="path1776" />
        <path
           style="fill:none;stroke:#000000;stroke-width:5.82083;stroke-linecap:round;stroke-linejoin:round;stroke-miterlimit:4;stroke-dasharray:none;stroke-opacity:1"
           d="m 348.04506,-145.61555 c 0,0 -25.78114,-26.73597 1.90971,-52.51709"
           id="path1778" />
        <path
           style="fill:none;stroke:#000000;stroke-width:5.82083;stroke-linecap:round;stroke-linejoin:round;stroke-miterlimit:4;stroke-dasharray:none;stroke-opacity:1"
           d="m 379.55529,-131.77014 c 0,0 -4.29686,-34.85225 36.28454,-37.71682"
           id="path1780" />
        <path
           style="fill:none;stroke:#000000;stroke-width:5.82083;stroke-linecap:round;stroke-linejoin:round;stroke-miterlimit:4;stroke-dasharray:none;stroke-opacity:1"
           d="m 398.65241,-103.60189 c 0,0 18.61971,-25.78111 51.56224,-7.16142"
           id="path1782" />
        <path
           style="fill:none;stroke:#000000;stroke-width:5.82083;stroke-linecap:round;stroke-linejoin:round;stroke-miterlimit:4;stroke-dasharray:none;stroke-opacity:1"
           d="m 397.22014,-69.704494 c 0,0 28.16826,-14.322843 50.60736,12.413128"
           id="path1784" />
        <path
           style="fill:none;stroke:#000000;stroke-width:5.82083;stroke-linecap:round;stroke-linejoin:round;stroke-miterlimit:4;stroke-dasharray:none;stroke-opacity:1"
           d="m 380.51015,-47.742805 c 0,0 38.19424,6.206564 33.89738,40.1039562"
           id="path1786" />
        <path
           style="fill:none;stroke:#000000;stroke-width:5.82083;stroke-linecap:round;stroke-linejoin:round;stroke-miterlimit:4;stroke-dasharray:none;stroke-opacity:1"
           d="m 357.5936,-40.581384 c 0,0 21.00684,25.303687 0.47745,51.562229"
           id="path1788" />
        <path
           style="fill:none;stroke:#000000;stroke-width:5.82083;stroke-linecap:round;stroke-linejoin:round;stroke-miterlimit:4;stroke-dasharray:none;stroke-opacity:1"
           d="m 334.19962,-48.69766 c 0,0 7.63887,24.826258 -31.03282,42.0136673"
           id="path1790" />
        <path
           style="fill:none;stroke:#000000;stroke-width:5.82083;stroke-linecap:round;stroke-linejoin:round;stroke-miterlimit:4;stroke-dasharray:none;stroke-opacity:1"
           d="m 322.74137,-66.362497 c 0,0 -12.41314,31.51025 -48.22024,20.529404"
           id="path1792" />
        <path
           style="fill:none;stroke:#000000;stroke-width:5.82083;stroke-linecap:round;stroke-linejoin:round;stroke-miterlimit:4;stroke-dasharray:none;stroke-opacity:1"
           d="m 323.69622,-84.027337 c 0,0 -40.58139,14.80027 -45.83311,-21.484263"
           id="path1794" />
        <path
           style="fill:none;stroke:#000000;stroke-width:5.82083;stroke-linecap:round;stroke-linejoin:round;stroke-miterlimit:4;stroke-dasharray:none;stroke-opacity:1"
           d="m 334.67706,-93.098468 c 0,0 -27.2134,-20.051982 -18.6197,-47.265382"
           id="path1796" />
        <path
           style="fill:none;stroke:#000000;stroke-width:5.82083;stroke-linecap:round;stroke-linejoin:round;stroke-miterlimit:4;stroke-dasharray:none;stroke-opacity:1"
           d="m 347.56762,-93.098468 c 0,0 -18.14227,-24.826262 10.50343,-49.175092"
           id="path1798" />
        <path
           style="fill:none;stroke:#000000;stroke-width:5.82083;stroke-linecap:round;stroke-linejoin:round;stroke-miterlimit:4;stroke-dasharray:none;stroke-opacity:1"
           d="m 391.49099,-119.35701 c -31.98768,-8.11628 -40.10395,31.510249 -40.10395,31.510249 0,0 24.82626,-21.006829 49.65252,-0.954855"
           id="path1800" />
        <path
           style="fill:none;stroke:#000000;stroke-width:5.82083;stroke-linecap:round;stroke-linejoin:round;stroke-miterlimit:4;stroke-dasharray:none;stroke-opacity:1"
           d="m 351.38704,-87.846761 c 0,0 38.67168,0 40.58139,28.645683"
           id="path1802" />
        <path
           style="fill:none;stroke:#000000;stroke-width:5.82083;stroke-linecap:round;stroke-linejoin:round;stroke-miterlimit:4;stroke-dasharray:none;stroke-opacity:1"
           d="m 370.00674,-42.968523 c 4.29684,-24.826259 -20.84265,-37.265565 -20.84265,-37.265565 0,0 10.33923,22.465295 -2.0739,37.742992"
           id="path1804" />
        <path
           style="fill:none;stroke:#000000;stroke-width:5.82083;stroke-linecap:round;stroke-linejoin:round;stroke-miterlimit:4;stroke-dasharray:none;stroke-opacity:1"
           d="m 326.56078,-55.859081 c 20.5294,-5.729137 22.60331,-24.375007 22.60331,-24.375007 0,0 -12.57732,8.619881 -26.90016,5.755313"
           id="path1806" />
        <path
           style="fill:none;stroke:#000000;stroke-width:5.82083;stroke-linecap:round;stroke-linejoin:round;stroke-miterlimit:4;stroke-dasharray:none;stroke-opacity:1"
           d="m 349.16409,-80.234088 c 0,0 -19.2613,-0.928679 -19.73874,-9.522386"
           id="path1808" />
      </g>
      <g
         id="g1770"
         transform="matrix(-0.1220192,-0.0271351,-0.02713509,0.12201921,86.735746,21.823584)"
         style="stroke:#999999;stroke-width:4.10137;stroke-miterlimit:4;stroke-dasharray:none;stroke-opacity:1">
        <path
           stroke-linecap="round"
           stroke-linejoin="round"
           stroke-width="6"
           stroke-opacity="1"
           stroke="#444444"
           fill="none"
           d="m 349.16408,-80.234089 c 4.78959,-5.10445 2.62761,-10.7512 -1.41906,-12.9584 -10.966,-5.98042 -22.6943,4.53373 -25.2173,14.9042 -4.51251,18.5499 11.3101,35.0054 28.8208,37.4845 25.6968,3.63801 47.3361,-18.1943 49.5336,-42.9044 2.92919,-32.935301 -24.9817,-60.029601 -56.7394,-61.871901 -39.964,-2.31831 -72.4174,31.9162 -73.85,70.905701 -1.73536,47.221 38.6673,85.2522 84.6593,86.2592 54.1995,1.18675 97.6067,-45.6441 98.1664,-98.9071 0.64646,-61.494401 -52.3552,-110.541001 -112.578,-110.647001 -68.4302,-0.12007 -122.845,59.372 -122.48,126.905001 13.8434,10.6091 33.3082,14.8092 54.2651,17.3066"
           id="path1732"
           style="fill:none;fill-opacity:1;stroke:#999999;stroke-width:4.10137;stroke-linecap:round;stroke-linejoin:round;stroke-miterlimit:4;stroke-dasharray:none;stroke-opacity:1" />
        <path
           style="fill:none;stroke:#999999;stroke-width:4.10137;stroke-linecap:round;stroke-linejoin:round;stroke-miterlimit:4;stroke-dasharray:none;stroke-opacity:1"
           d="m 281.68256,-111.24074 c 0,0 -35.90076,1.29518 -43.92339,-28.64568"
           id="path1734" />
        <path
           style="fill:none;stroke:#999999;stroke-width:4.10137;stroke-linecap:round;stroke-linejoin:round;stroke-miterlimit:4;stroke-dasharray:none;stroke-opacity:1"
           d="m 309.37337,-137.49928 c 0,0 -33.41997,-10.98084 -27.2134,-45.83309"
           id="path1736" />
        <path
           style="fill:none;stroke:#999999;stroke-width:4.10137;stroke-linecap:round;stroke-linejoin:round;stroke-miterlimit:4;stroke-dasharray:none;stroke-opacity:1"
           d="m 348.04506,-145.61555 c 0,0 -25.78114,-26.73597 1.90971,-52.51709"
           id="path1738" />
        <path
           style="fill:none;stroke:#999999;stroke-width:4.10137;stroke-linecap:round;stroke-linejoin:round;stroke-miterlimit:4;stroke-dasharray:none;stroke-opacity:1"
           d="m 379.55529,-131.77014 c 0,0 -4.29686,-34.85225 36.28454,-37.71682"
           id="path1740" />
        <path
           style="fill:none;stroke:#999999;stroke-width:4.10137;stroke-linecap:round;stroke-linejoin:round;stroke-miterlimit:4;stroke-dasharray:none;stroke-opacity:1"
           d="m 398.65241,-103.60189 c 0,0 18.61971,-25.78111 51.56224,-7.16142"
           id="path1742" />
        <path
           style="fill:none;stroke:#999999;stroke-width:4.10137;stroke-linecap:round;stroke-linejoin:round;stroke-miterlimit:4;stroke-dasharray:none;stroke-opacity:1"
           d="m 397.22014,-69.704494 c 0,0 28.16826,-14.322843 50.60736,12.413128"
           id="path1744" />
        <path
           style="fill:none;stroke:#999999;stroke-width:4.10137;stroke-linecap:round;stroke-linejoin:round;stroke-miterlimit:4;stroke-dasharray:none;stroke-opacity:1"
           d="m 380.51015,-47.742805 c 0,0 38.19424,6.206564 33.89738,40.1039562"
           id="path1746" />
        <path
           style="fill:none;stroke:#999999;stroke-width:4.10137;stroke-linecap:round;stroke-linejoin:round;stroke-miterlimit:4;stroke-dasharray:none;stroke-opacity:1"
           d="m 357.5936,-40.581384 c 0,0 21.00684,25.303687 0.47745,51.562229"
           id="path1748" />
        <path
           style="fill:none;stroke:#999999;stroke-width:4.10137;stroke-linecap:round;stroke-linejoin:round;stroke-miterlimit:4;stroke-dasharray:none;stroke-opacity:1"
           d="m 334.19962,-48.69766 c 0,0 7.63887,24.826258 -31.03282,42.0136673"
           id="path1750" />
        <path
           style="fill:none;stroke:#999999;stroke-width:4.10137;stroke-linecap:round;stroke-linejoin:round;stroke-miterlimit:4;stroke-dasharray:none;stroke-opacity:1"
           d="m 322.74137,-66.362497 c 0,0 -12.41314,31.51025 -48.22024,20.529404"
           id="path1752" />
        <path
           style="fill:none;stroke:#999999;stroke-width:4.10137;stroke-linecap:round;stroke-linejoin:round;stroke-miterlimit:4;stroke-dasharray:none;stroke-opacity:1"
           d="m 323.69622,-84.027337 c 0,0 -40.58139,14.80027 -45.83311,-21.484263"
           id="path1754" />
        <path
           style="fill:none;stroke:#999999;stroke-width:4.10137;stroke-linecap:round;stroke-linejoin:round;stroke-miterlimit:4;stroke-dasharray:none;stroke-opacity:1"
           d="m 334.67706,-93.098468 c 0,0 -27.2134,-20.051982 -18.6197,-47.265382"
           id="path1756" />
        <path
           style="fill:none;stroke:#999999;stroke-width:4.10137;stroke-linecap:round;stroke-linejoin:round;stroke-miterlimit:4;stroke-dasharray:none;stroke-opacity:1"
           d="m 347.56762,-93.098468 c 0,0 -18.14227,-24.826262 10.50343,-49.175092"
           id="path1758" />
        <path
           style="fill:none;stroke:#999999;stroke-width:4.10137;stroke-linecap:round;stroke-linejoin:round;stroke-miterlimit:4;stroke-dasharray:none;stroke-opacity:1"
           d="m 391.49099,-119.35701 c -31.98768,-8.11628 -40.10395,31.510249 -40.10395,31.510249 0,0 24.82626,-21.006829 49.65252,-0.954855"
           id="path1760" />
        <path
           style="fill:none;stroke:#999999;stroke-width:4.10137;stroke-linecap:round;stroke-linejoin:round;stroke-miterlimit:4;stroke-dasharray:none;stroke-opacity:1"
           d="m 351.38704,-87.846761 c 0,0 38.67168,0 40.58139,28.645683"
           id="path1762" />
        <path
           style="fill:none;stroke:#999999;stroke-width:4.10137;stroke-linecap:round;stroke-linejoin:round;stroke-miterlimit:4;stroke-dasharray:none;stroke-opacity:1"
           d="m 370.00674,-42.968523 c 4.29684,-24.826259 -20.84265,-37.265565 -20.84265,-37.265565 0,0 10.33923,22.465295 -2.0739,37.742992"
           id="path1764" />
        <path
           style="fill:none;stroke:#999999;stroke-width:4.10137;stroke-linecap:round;stroke-linejoin:round;stroke-miterlimit:4;stroke-dasharray:none;stroke-opacity:1"
           d="m 326.56078,-55.859081 c 20.5294,-5.729137 22.60331,-24.375007 22.60331,-24.375007 0,0 -12.57732,8.619881 -26.90016,5.755313"
           id="path1766" />
        <path
           style="fill:none;stroke:#999999;stroke-width:4.10137;stroke-linecap:round;stroke-linejoin:round;stroke-miterlimit:4;stroke-dasharray:none;stroke-opacity:1"
           d="m 349.16409,-80.234088 c 0,0 -19.2613,-0.928679 -19.73874,-9.522386"
           id="path1768" />
      </g>
    </g>
  </g>
  <ellipse
     style="fill:#000000;fill-opacity:1;fill-rule:evenodd;stroke:none;stroke-width:1.30805"
     id="path972"
     cx="45.605843"
     cy="37.33028"
     rx="1.7846442"
     ry="1.8136429" />
</svg>
