<?xml version="1.0" encoding="UTF-8" standalone="no"?>
<svg
   xmlns:dc="http://purl.org/dc/elements/1.1/"
   xmlns:cc="http://creativecommons.org/ns#"
   xmlns:rdf="http://www.w3.org/1999/02/22-rdf-syntax-ns#"
   xmlns:svg="http://www.w3.org/2000/svg"
   xmlns="http://www.w3.org/2000/svg"
   width="100"
   height="80"
   viewBox="0 0 26.458334 21.166667"
   version="1.1"
   id="svg8">
  <defs
     id="defs2" />
  <metadata
     id="metadata5">
    <rdf:RDF>
      <cc:Work
         rdf:about="">
        <dc:format>image/svg+xml</dc:format>
        <dc:type
           rdf:resource="http://purl.org/dc/dcmitype/StillImage" />
        <dc:title></dc:title>
      </cc:Work>
    </rdf:RDF>
  </metadata>
  <g
     id="layer1"
     transform="translate(-84.188339,-131.24013)">
    <path
       id="path861"
       style="fill:none;stroke:#000000;stroke-width:1.19636;stroke-linecap:butt;stroke-linejoin:miter;stroke-miterlimit:4;stroke-dasharray:none;stroke-opacity:1"
       d="m 95.133804,131.83831 h 4.618095 z m 2.309049,0.58198 v 2.9798 z" />
    <g
       id="g946">
      <path
         id="path844"
         style="fill:#000000;fill-opacity:1;fill-rule:evenodd;stroke:none;stroke-width:0.0715859;stroke-linecap:round;stroke-linejoin:round;stroke-dashoffset:1.8"
         d="m 96.071523,135.43596 c -1.09745,0 -1.980878,0.87997 -1.980878,1.97325 0,0.32469 0.07943,0.6297 0.217742,0.89932 h -0.844136 c -1.105518,0 -1.995226,0.88662 -1.995226,1.98797 0,0.36482 0.09934,0.70468 0.270148,0.99797 -0.910663,0.18497 -1.592189,0.98406 -1.592189,1.9475 0,0.96346 0.681526,1.76257 1.592189,1.94753 -0.170812,0.29329 -0.270148,0.63313 -0.270148,0.99798 0,1.10134 0.889708,1.98795 1.995226,1.98795 h 0.844136 c -0.138314,0.26963 -0.217742,0.57463 -0.217742,0.89934 0,1.09329 0.883432,1.97324 1.980878,1.97324 h 3.961757 c 1.09745,0 1.9815,-0.87995 1.9815,-1.97324 0,-0.32473 -0.08,-0.62969 -0.21837,-0.89934 h 0.90279 c 1.10553,0 1.99524,-0.88661 1.99524,-1.98795 0,-0.36485 -0.0994,-0.70469 -0.27016,-0.99798 0.91065,-0.18496 1.59219,-0.98407 1.59219,-1.94753 0,-0.96344 -0.68154,-1.76253 -1.59219,-1.9475 0.17081,-0.29329 0.27016,-0.63315 0.27016,-0.99797 0,-1.10135 -0.88971,-1.98797 -1.99524,-1.98797 h -0.77863 c 0.0607,-0.2418 0.0942,-0.53671 0.0942,-0.89932 0,-1.09328 -0.88405,-1.97325 -1.9815,-1.97325 z" />
      <path
         id="rect841"
         style="fill:#ccab00;fill-opacity:1;fill-rule:evenodd;stroke:#ffbf00;stroke-width:0.0715859;stroke-linecap:round;stroke-linejoin:round;stroke-dashoffset:1.8"
         d="m 94.793892,147.10118 h 3.961907 c 1.097449,0 1.980961,0.88014 1.980961,1.97344 0,1.0933 -0.883512,1.97345 -1.980961,1.97345 h -3.961907 c -1.097447,0 -1.980955,-0.88015 -1.980955,-1.97345 0,-1.0933 0.883508,-1.97344 1.980955,-1.97344 z" />
      <path
         id="rect839"
         style="fill:#e5bf00;fill-opacity:1;fill-rule:evenodd;stroke:#ffbf00;stroke-width:0.0928246;stroke-linecap:round;stroke-linejoin:round;stroke-dashoffset:1.8"
         d="m 92.186566,144.19966 h 9.234824 c 1.10553,0 1.99552,0.88664 1.99552,1.98797 0,1.10134 -0.88999,1.98797 -1.99552,1.98797 h -9.234824 c -1.10552,0 -1.995519,-0.88663 -1.995519,-1.98797 0,-1.10133 0.889999,-1.98797 1.995519,-1.98797 z" />
      <path
         id="rect833"
         style="fill:#ffd500;fill-rule:evenodd;stroke:#ffbf00;stroke-width:0.0715859;stroke-linecap:round;stroke-linejoin:round;stroke-dashoffset:1.8"
         d="m 94.793893,135.43589 h 1.980953 1.980954 c 1.097448,0 1.98096,0.88015 1.98096,1.97344 0,1.88393 -0.883512,1.97344 -1.98096,1.97344 h -3.961907 c -1.097448,0 -1.980954,-0.88015 -1.980954,-1.97344 0,-1.09329 0.883506,-1.97344 1.980954,-1.97344 z" />
      <path
         id="rect835"
         style="fill:#ffd500;fill-rule:evenodd;stroke:#ffbf00;stroke-width:0.0928246;stroke-linecap:round;stroke-linejoin:round;stroke-dashoffset:1.8"
         d="m 92.186566,138.30834 h 9.234824 c 1.10553,0 1.99552,0.88663 1.99552,1.98797 0,1.10132 -0.88999,1.98796 -1.99552,1.98796 h -9.234824 c -1.10552,0 -1.995519,-0.88664 -1.995519,-1.98796 0,-1.10134 0.889999,-1.98797 1.995519,-1.98797 z" />
      <path
         id="rect837"
         style="fill:#ffd500;fill-rule:evenodd;stroke:#ffbf00;stroke-width:0.101678;stroke-linecap:round;stroke-linejoin:round;stroke-dashoffset:1.8"
         d="m 90.864905,141.25402 h 11.878145 c 1.10553,0 1.99553,0.88662 1.99553,1.98794 0,1.10135 -0.89,1.98797 -1.99553,1.98797 H 90.864905 c -1.105518,0 -1.995521,-0.88662 -1.995521,-1.98797 0,-1.10132 0.890003,-1.98794 1.995521,-1.98794 z" />
      <path
         id="rect894"
         style="fill:#000000;fill-rule:evenodd;stroke:none;stroke-width:0.0715859;stroke-linecap:round;stroke-linejoin:round;stroke-dashoffset:1.8"
         d="m 96.803978,144.76668 c 0.819398,0 1.479055,0.65714 1.479055,1.47345 v 1.8943 h -2.958106 v -1.8943 c 0,-0.81631 0.659656,-1.47345 1.479051,-1.47345 z" />
    </g>
    <path
       id="path856"
       style="fill:none;stroke:#998000;stroke-width:1.19636;stroke-linecap:butt;stroke-linejoin:miter;stroke-miterlimit:4;stroke-dasharray:none;stroke-opacity:1"
       d="m 94.494933,131.83831 h 4.618093 z m 2.309046,0.58198 v 2.9798 z" />
  </g>
</svg>
