<?xml version="1.0" encoding="UTF-8" standalone="no"?>
<svg
   xmlns:dc="http://purl.org/dc/elements/1.1/"
   xmlns:cc="http://creativecommons.org/ns#"
   xmlns:rdf="http://www.w3.org/1999/02/22-rdf-syntax-ns#"
   xmlns:svg="http://www.w3.org/2000/svg"
   xmlns="http://www.w3.org/2000/svg"
   xmlns:sodipodi="http://sodipodi.sourceforge.net/DTD/sodipodi-0.dtd"
   xmlns:inkscape="http://www.inkscape.org/namespaces/inkscape"
   width="270"
   height="100"
   viewBox="0 0 404.97902 149.99275"
   version="1.1"
   id="svg834"
   sodipodi:docname="message00.svg"
   inkscape:version="1.0.1 (c497b03c, 2020-09-10)">
  <sodipodi:namedview
     pagecolor="#ffffff"
     bordercolor="#666666"
     borderopacity="1"
     objecttolerance="10"
     gridtolerance="10"
     guidetolerance="10"
     inkscape:pageopacity="0"
     inkscape:pageshadow="2"
     inkscape:window-width="1419"
     inkscape:window-height="803"
     id="namedview906"
     showgrid="false"
     inkscape:zoom="3.0074074"
     inkscape:cx="135"
     inkscape:cy="50"
     inkscape:window-x="0"
     inkscape:window-y="25"
     inkscape:window-maximized="0"
     inkscape:current-layer="svg834"
     inkscape:document-rotation="0" />
  <metadata
     id="metadata840">
    <rdf:RDF>
      <cc:Work
         rdf:about="">
        <dc:format>image/svg+xml</dc:format>
        <dc:type
           rdf:resource="http://purl.org/dc/dcmitype/StillImage" />
        <dc:title />
      </cc:Work>
    </rdf:RDF>
  </metadata>
  <defs
     id="defs838" />
  <path
     id="rect1508"
     style="fill:#ffffff;fill-opacity:1;fill-rule:evenodd;stroke:#000000;stroke-width:2.96691;stroke-linecap:round;stroke-linejoin:round;stroke-dashoffset:1.8;stroke-opacity:1"
     d="m 113.12595,1.4834525 h 217.7778 c 40.2163,0 72.5925,32.7867705 72.5925,73.5129305 0,40.726147 -32.3762,73.512917 -72.5925,73.512917 h -217.7778 c -40.216299,0 -72.592599,-32.78677 -72.592599,-73.512917 0,-10.18154 2.0235,-19.86687 5.6872,-28.66774 1.8317,-4.40044 4.8231,-16.17018 -9.8095,-20.92324 -14.6324,-4.75306 -37.8959002,-2.48944 -34.6156002,-5.81131 3.2803,-3.32186 21.1136002,-15.6027305 42.2108002,-17.3963405 21.0973,-1.79360001 36.4655,6.90003 40.8108,5.04498 8.6908,-3.7101 18.254899,-5.75928 28.308899,-5.75928 z" />
  <path
     id="選択範囲"
     fill="none"
     stroke="black"
     stroke-width="0.125"
     d="m 182.15385,38.277318 c -1.8338,0 -4.83,-0.3525 -6.2388,0.91625 -1.5725,1.4175 -0.7987,3.77875 0.7388,4.88 1.5087,1.08 4.1362,1.09 5.875,0.6575 1.4775,-0.36875 2.7562,-1.16625 3.6125,-2.45375 1.2325,-1.85625 1.3312,-5.0525 0.2587,-7 -0.2437,-0.44125 -0.6375,-0.895 -0.9975,-1.245 -1.9475,-1.885 -4.8825,-1.60125 -7.3737,-1.63 -1.7713,-0.0213 -3.4788,-0.48875 -3.37,-2.625 0.1,-1.96125 2.1425,-2.55 3.745,-2.80125 l 1.5,-0.0937 c 1.4275,-0.185 0.9437,-0.0362 2.125,0 2.4612,0.12375 5.6212,0.7525 5.495,3.895 -0.024,0.5925 -0.1875,1.06875 -0.37,1.625 l -1.25,-0.375 c 0.1187,-0.53 0.28,-0.9425 0.2375,-1.5 -0.086,-1.1675 -1.0863,-1.765 -2.1125,-2.045 -1.4713,-0.40125 -3.74,-0.43125 -5.25,-0.22125 -0.7438,0.10375 -1.485,0.2025 -2.1138,0.655 -0.825,0.59375 -0.8562,1.6225 0.1138,2 0.4762,0.185 2.3687,0.10375 3,0.11125 l 1.25,0.11375 c 2.3462,0.16125 3.9612,0.4125 5.7387,2.1575 2.3438,2.30125 2.225,7.2 0.5775,9.85375 -0.385,0.62 -0.98,1.2025 -1.5662,1.635 -1.98,1.4575 -4.0363,1.5175 -6.375,1.49 -1.4275,-0.0175 -3.1825,-0.545 -4.245,-1.5225 -1.6263,-1.4975 -2.0738,-4.67125 -0.4825,-6.34125 1.54,-1.615 4.0725,-1.38625 6.1025,-1.38625 -0.079,-1.585 -1.5925,-2.44 -2.7475,-1.75875 -0.7113,0.42125 -0.6575,1.04875 -0.8713,1.29125 -0.2,0.22625 -0.8325,0.2875 -1.1312,0.3425 -0.1375,-0.77125 -0.1613,-1.4475 0.3312,-2.12 0.9063,-1.23625 3.3625,-1.20625 4.5425,-0.39875 1.27,0.87 1.2513,2.52375 1.2513,3.89375 z m -26.375,-5.625 c -0.1475,0.26125 -0.3863,0.7275 -0.665,0.85875 -0.3225,0.1525 -0.7063,-0.0975 -0.9475,-0.3 -0.645,-0.54 -0.995,-1.6125 -0.8225,-2.43375 0.4862,-2.32875 3.1975,-3.42875 5.31,-3.645 0.9237,-0.095 1.9275,-0.0437 2.75,0.44 0.49,0.28875 1.4412,1.4175 1.1112,2.03125 -0.18,0.33375 -0.7712,0.46875 -1.1112,0.54875 -0.5425,-2.84125 -4.4013,-1.72125 -5.87,-0.3525 -1.1138,1.03875 -1.1625,2.095 0.245,2.8525 z m -66.624999,-1.625 c 3.3825,-1.925 8.435,-2.56125 11.874999,-0.44125 2.2362,1.3775 3.3712,4.0025 3.375,6.56625 v 1.75 c -0.019,1.55875 -0.7425,3.7 -1.7725,4.875 -2.0088,2.29 -4.387499,2.5325 -7.227499,2.5 -3.6075,-0.0425 -6.4563,-2.56 -6.5,-6.25 -0.023,-1.9375 0.1437,-4.15125 2.125,-5.14625 0.765,-0.38375 1.9075,-0.55125 2.5975,0.0738 1.0925,0.9875 0.013,2.56375 0.3762,3.8225 0.4875,1.68625 2.7625,1.835 4.0238,0.91875 0.465,-0.33625 0.615,-0.685 0.8775,-1.15 -1.0275,0.2575 -2.2575,0.695 -3.2475,0 -1.1,-0.73125 -1.1725,-2.45 -0.2263,-3.35125 0.44,-0.41875 1.13,-0.6 1.7238,-0.645 0.3925,-0.0288 0.7512,0.045 1.125,0.1575 1.6212,0.485 2.038699,1.90375 1.904999,3.445 -0.047,0.53 -0.078,0.89 -0.329999,1.375 -0.9025,1.73625 -2.34,1.895 -4.075,1.875 -1.2975,-0.0163 -2.5325,-0.56875 -2.9863,-1.875 -0.175,-0.50375 -0.145,-1.095 -0.1387,-1.625 0.01,-0.59625 0.43,-2.30875 -0.75,-2.03625 -1.3013,0.3 -1.6238,2.1825 -1.625,3.28625 0,0.9775 0,1.55125 0.3375,2.5 0.85,2.38 3.0762,3.23125 5.4125,3.36375 0.4712,0.0263 0.6862,-0.0462 1.125,-0.0937 1.6062,-0.17125 2.926199,-0.56875 4.069999,-1.79125 2.5325,-2.70625 2.4737,-8.32875 -0.32,-10.8325 -1.984999,-1.7775 -5.516299,-2.04 -7.999999,-1.3425 l -3.25,1.19625 z m 17.249999,0 c 3.3825,-1.925 8.435,-2.56125 11.875,-0.44125 2.2362,1.3775 3.3712,4.0025 3.375,6.56625 v 1.75 c -0.019,1.55875 -0.7425,3.7 -1.7725,4.875 -2.0088,2.29 -4.3875,2.5325 -7.2275,2.5 -3.6075,-0.0425 -6.4563,-2.56 -6.5,-6.25 -0.023,-1.9375 0.1437,-4.15125 2.125,-5.14625 0.765,-0.38375 1.9075,-0.55125 2.5975,0.0738 1.0925,0.9875 0.013,2.56375 0.3762,3.8225 0.4875,1.68625 2.7625,1.835 4.0238,0.91875 0.465,-0.33625 0.615,-0.685 0.8775,-1.15 -1.0275,0.2575 -2.2575,0.695 -3.2475,0 -1.1,-0.73125 -1.1725,-2.45 -0.2263,-3.35125 0.44,-0.41875 1.13,-0.6 1.7238,-0.645 0.3925,-0.0288 0.7512,0.045 1.125,0.1575 1.6212,0.485 2.0387,1.90375 1.905,3.445 -0.047,0.53 -0.078,0.89 -0.33,1.375 -0.9025,1.73625 -2.34,1.895 -4.075,1.875 -1.2975,-0.0163 -2.5325,-0.56875 -2.9863,-1.875 -0.175,-0.50375 -0.145,-1.095 -0.1387,-1.625 0.01,-0.59625 0.43,-2.30875 -0.75,-2.03625 -1.3013,0.3 -1.6238,2.1825 -1.625,3.28625 0,0.9775 0,1.55125 0.3375,2.5 0.85,2.38 3.0762,3.23125 5.4125,3.36375 0.4712,0.0263 0.6862,-0.0462 1.125,-0.0937 1.6062,-0.17125 2.9262,-0.56875 4.07,-1.79125 2.5325,-2.70625 2.4737,-8.32875 -0.32,-10.8325 -1.985,-1.7775 -5.5163,-2.04 -8,-1.3425 l -3.25,1.19625 z m 84,-0.125 c 2.84,-1.22125 4.1075,-1.66125 7.25,-1.625 2.1537,0.0263 4.4537,0.7975 5.945,2.39625 1.9075,2.045 2.3175,5.1725 2.305,7.85375 -0.01,1.36625 -0.3113,3.29125 -0.9538,4.5 -0.9387,1.76875 -2.275,2.2725 -4.1712,2.25 -0.5438,-0.007 -1.005,-0.0738 -1.5,-0.31875 -0.5913,-0.295 -1.1613,-0.95625 -1.625,-1.43125 -0.835,1.55375 -2.0238,1.76875 -3.625,1.75 -1.105,-0.0138 -2.1088,-0.405 -2.8488,-1.2525 -1.0862,-1.24375 -1.2687,-3.69125 -0.4825,-5.1225 0.5025,-0.915 0.9275,-1.14625 1.7063,-1.75 l -2.5,0.125 v -1.25 h 6.375 c -0.1113,-2.23875 -2.94,-2.78 -3.5,-0.625 l -1.375,0.125 c 0.015,-0.6675 0.095,-1.3325 0.5487,-1.8625 0.9763,-1.1375 3.4413,-1.07625 4.5713,-0.19375 1.1737,0.9175 1.13,2.47125 1.13,3.80625 h -1.75 c -0.8213,10e-4 -1.4913,0.0925 -2.25,0.44 -2.1063,0.96375 -2.7138,3.9 -1.3163,5.4125 1.1438,1.2375 3.4113,1.1025 4.3175,-0.3525 0.3513,-0.565 0.3838,-1.23625 0.4988,-1.875 h 1.25 c 0,0.7675 0.059,1.4875 0.5525,2.1225 1.1875,1.53 3.4587,1.06625 4.4937,-0.3725 0.7963,-1.10875 0.8763,-2.32875 0.965,-3.625 0.026,-0.39375 0.1038,-0.58625 0.074,-1 l -0.1213,-1.75 c -0.3475,-2.825 -1.5887,-5.33875 -4.4637,-6.28125 -1.8738,-0.615 -4.635,-0.43375 -6.5,0.16 l -2.5,0.99625 z m -40.625,13.25 c -0.2013,-0.095 -0.315,-0.13125 -0.4925,-0.28625 -0.6138,-0.53625 -0.3475,-0.8475 0.12,-1.33875 0.375,-0.395 1.6962,-1.58125 1.8225,-2 0.091,-0.3025 -0.135,-0.80625 -0.2125,-1.125 -0.1225,-0.5075 -0.1175,-0.86 -0.1125,-1.375 0.017,-1.4525 0.7737,-2.56 2,-3.31625 0.9612,-0.59375 2.7525,-0.99125 3.875,-0.8975 0.4737,0.02 1.035,0.185 1.5,0 0.4012,-0.13375 0.8025,-0.59875 1.125,-0.89 l 2.125,-1.90625 c 0.39,-0.35875 1.595,-1.6625 2.12,-1.46875 0.4737,0.175 0.6362,0.685 0.335,1.0925 l -2.205,1.97625 c -0.5875,0.51125 -1.42,1.17875 -1.875,1.785 0.5412,0.23375 0.9112,0.41 1.375,0.79125 0.2262,0.185 0.6212,0.6075 0.875,0.69 0.41,0.13125 0.6337,-0.24125 1.375,-0.33375 1.2187,-0.15125 1.7075,0.2825 2.5,1.1025 0.2312,-0.47125 0.445,-0.85 0.88,-1.16875 1.2025,-0.88375 3.1412,-0.60875 4.0712,0.54625 0.68,0.84125 1.0363,2.55 1.0488,3.6225 0.026,2.27375 0.1637,5.5925 -2.5,6.4875 -0.465,0.15625 -0.8913,0.14375 -1.375,0.1375 -1.1513,-0.015 -2.0813,-0.565 -2.745,-1.5 -0.1788,-0.25375 -0.5375,-0.74375 -0.3638,-1.0625 0.1425,-0.265 0.8275,-0.465 1.1088,-0.5625 0.2575,0.56875 0.605,1.17375 1.13,1.5375 1,0.69375 2.2587,0.23375 2.8187,-0.7875 0.705,-1.28875 0.665,-4.47375 0.2463,-5.875 -0.2825,-0.94625 -0.8375,-1.8125 -1.945,-1.735 -0.4225,0.0288 -0.7888,0.19875 -1.0763,0.51125 -0.5312,0.5775 -0.6575,1.71375 -0.6737,2.47375 h -1.25 c 0,-0.69875 0.01,-1.405 -0.4563,-1.98375 -0.56,-0.6975 -1.5075,-0.54625 -1.815,-0.0925 -0.2325,0.30125 -0.071,0.6375 0,0.95125 0.1738,0.56375 0.2638,1.165 0.2713,1.75 0.01,0.89125 -0.018,1.25125 -0.2363,2.125 -0.7037,2.7975 -3.2587,4.2375 -6.0137,4.25 h -1.25 c -1.5425,-0.007 -3.155,-0.6325 -4.375,-1.5625 -0.6663,-0.5075 -1.0775,-1.23625 -1.75,-0.5625 z m -15.625,-7.125 c -0.1225,-0.68625 -0.2138,-1.35375 0.1425,-2 0.8225,-1.49375 3.4612,-1.51625 4.73,-0.64375 1.2412,0.85125 1.2525,2.54875 1.2525,3.89375 -1.2938,0 -3.1463,-0.19125 -4.25,0.51625 -1.715,1.1 -1.4875,3.53 -0.1038,4.80125 1.155,1.06 3.2,1.43125 4.7288,1.43125 1.415,0 3.4012,-0.33875 4.5,-1.275 1.5037,-1.2825 2.0025,-3.7525 0.125,-4.9575 -1.0725,-0.6875 -2.9888,-0.51625 -4.25,-0.51625 0,-1.30875 -0.013,-2.90375 1.1362,-3.795 1.2375,-0.96125 3.8425,-0.985 4.7738,0.4225 0.435,0.6575 0.345,1.39625 0.215,2.1225 l -1.25,-0.125 c -0.01,-0.4025 -0.01,-0.76375 -0.2313,-1.12 -0.8187,-1.29125 -3.1512,-0.865 -3.2687,1.245 1.3687,0 2.8337,0.0138 4,0.84875 2.01,1.44 1.8612,4.855 0.245,6.525 -1.8775,1.93875 -4.4988,1.905 -6.995,1.87625 -1.7988,-0.0213 -3.8813,-0.62375 -5.1025,-2 -1.63,-1.84125 -1.5988,-5.35375 0.7275,-6.6375 1.1062,-0.61 2.4,-0.6125 3.625,-0.6125 -0.05,-0.89875 -0.47,-1.62 -1.375,-1.9 -1.11,-0.3425 -2.2388,0.41375 -2,1.65 z m 81.125,1.25 c 0,-1.0375 -0.017,-2.2175 0.57,-3.12375 0.9625,-1.48875 3.5875,-1.81625 4.925,-0.7025 0.24,0.2 0.4225,0.4175 0.5487,0.70125 0.1838,0.36125 0.365,1.46875 0,1.7475 -0.2037,0.14125 -0.8987,0.015 -1.1687,0 -0.01,-0.40625 0.014,-0.745 -0.1963,-1.11625 -0.495,-0.87625 -1.8137,-0.905 -2.5487,-0.3275 -0.5488,0.43125 -0.695,0.90875 -0.755,1.57125 1.185,0 2.285,0.0763 3.375,0.59875 0.7712,0.36875 1.3325,0.78375 1.78,1.52625 0.97,1.61375 0.7937,4.72625 -0.5675,6.0875 -0.8575,0.8575 -1.805,1.0425 -2.9625,1.0375 -1.7038,-0.007 -2.2675,-0.55625 -3.375,-1.75 -0.3888,0.665 -0.7925,1.11 -1.5,1.45 -1.3313,0.64 -3.5538,0.3425 -4.6125,-0.7125 -1.9488,-1.94375 -1.7775,-6.8425 1.6125,-8.3575 1.3312,-0.595 2.3462,-0.505 3.75,-0.505 l -0.125,1.25 c -2.0025,0 -3.7413,0.195 -4.7088,2.25 -0.9562,2.03 -0.1387,5.265 2.5838,5.06 1.0637,-0.08 1.88,-0.66125 2.2362,-1.685 0.2138,-0.61375 0.056,-1.02375 0.3388,-1.2475 0.2175,-0.1725 0.8887,-0.1275 1.175,-0.1275 0,0.665 0.015,1.28375 0.375,1.875 0.735,1.205 2.57,1.58 3.75,0.7875 1.64,-1.10125 1.9862,-4.7425 -0.625,-5.87 -0.6775,-0.2925 -1.3925,-0.41375 -2.125,-0.4175 z m -130.874999,1.5 c 0.1125,0.855 0.3,1.87625 -0.3213,2.59875 -0.7575,0.8825 -2.7975,0.8575 -3.62,0.085 -0.5937,-0.5575 -0.7837,-1.39875 -0.6425,-2.18375 0.3038,-1.68875 2.0713,-1.89125 3.4588,-1.875 2.1125,0.025 4.0962,1.19 4.125,3.5 0.012,1.07375 -0.096,1.99625 -0.8163,2.86375 -1.53,1.84375 -5.8137,1.9125 -7.8087,0.88875 -1.9313,-0.99125 -2.8275,-3.14875 -2.745,-5.2525 0.024,-0.62 0.1925,-1.425 0.4262,-2 1.4475,-3.54375 5.7113,-3.8025 8.9438,-3.1925 l 2,0.5675 -0.5,1.25 -1.875,-0.5425 c -1.9288,-0.40375 -4.6775,-0.4 -6.245,0.95875 -1.735,1.5025 -1.8238,4.56625 -0.2438,6.20375 0.8925,0.925 2.1063,1.2975 3.3638,1.36875 1.0262,0.0575 2.6162,-0.27125 3.3687,-1.00125 0.8175,-0.795 1.0763,-2.2575 0.4188,-3.2375 -0.345,-0.51375 -0.7425,-0.75125 -1.2875,-1 z m 72.624999,-4.75 c -2.16,10e-4 -4.9913,0.59375 -4.8113,3.375 0.025,0.38125 0.081,0.75875 0.1863,1.125 1.0537,-0.75375 1.9312,-1.735 2.875,-2.61375 0.6562,-0.6125 1.355,-1.05 1.75,-1.88625 z m -5,6.5 c -0.135,0.1925 -0.5475,0.70125 -0.605,0.875 -0.1363,0.4125 0.2037,0.7 0.4825,0.945 0.6825,0.59875 1.5012,1.0725 2.3725,1.33375 2.2,0.66 5.4837,0.34375 6.9212,-1.65375 1.2288,-1.71 1.0525,-4.62375 -0.2562,-6.245 -0.3788,-0.47 -1.5288,-1.37375 -2.165,-1.315 -0.4963,0.0462 -1.39,0.955 -1.75,1.31 -1.0725,1.05875 -3.0588,2.73375 -3.875,3.875 0.6475,0.52625 1.0475,0.745 1.855,0.875 -0.1763,-0.755 -0.4063,-1.36 0,-2.125 0.7462,-1.5125 2.9287,-1.5775 3.9925,-0.37 1.4112,1.60375 -0.1338,3.44 -1.8475,3.805 -1.0238,0.21875 -2.5525,-0.0425 -3.5,-0.47375 -0.6,-0.27375 -1,-0.65875 -1.625,-0.83625 z m -55.244999,-5.69625 c -0.7563,0.33125 -0.95,1.2225 -0.2388,1.72875 0.4138,0.295 1.1438,0.2425 1.6088,0.1 0.9637,-0.295 0.7837,-1.05625 0.1187,-1.57875 -0.4525,-0.355 -0.9525,-0.3325 -1.4887,-0.25 z m 17.249999,0 c -0.7563,0.33125 -0.95,1.2225 -0.2388,1.72875 0.4138,0.295 1.1438,0.2425 1.6088,0.1 0.9637,-0.295 0.7837,-1.05625 0.1187,-1.57875 -0.4525,-0.355 -0.9525,-0.3325 -1.4887,-0.25 z m 42.625,3.64625 c -1.0725,0.6275 -0.7925,2.66 0.745,2.06375 0.7325,-0.285 1.1175,-1.34 0.4462,-1.9025 -0.3437,-0.28875 -0.7875,-0.2475 -1.1912,-0.16125 z m -73.897499,0.16 c -0.47,-0.0288 -1.0725,0.0425 -1.39,0.43875 -0.3138,0.39125 -0.3663,1.4225 0.4125,1.6475 1.5062,0.435 1.9737,-1.53125 0.9775,-2.08625 z m 156.767499,18.39 c 0.665,0.1675 0.895,0.275 1.25,0.875 h 0.25 c 0.575,-1.01125 2.0162,-1.2225 2.775,-0.3325 0.6575,0.77125 0.62,2.5475 -0.775,3.06625 -0.495,0.18375 -1.1,0.14125 -1.625,0.14125 v 3.875 c 0,1.8725 1.1425,1.59875 1.7812,3.875 0.7175,2.5525 0.3175,6.21375 -2.2812,7.575 -1.115,0.58375 -2.0463,0.55 -3.25,0.55 l 0.125,-1.25 c 1.025,-0.002 2.045,-0.13625 2.8637,-0.81625 1.7075,-1.4175 1.7738,-4.7475 0.7175,-6.55875 -1.2962,-2.225 -4.4025,-2.94125 -6.7062,-1.9575 -0.8613,0.3675 -1.5663,0.82 -2.125,1.5825 1.5412,0 2.7912,-0.08 4.1237,0.88 2.0325,1.4675 1.8663,4.97875 0.3175,6.73375 -1.2662,1.435 -3.1837,1.51375 -4.9412,1.51125 -1.935,-0.002 -3.8238,-0.72 -5.0663,-2.25 -0.9375,-1.15375 -1.29,-2.44875 -1.5587,-3.875 l 1.375,-0.25 c 0.2662,0.83125 1.05,0.69125 1.75,0.4725 1.03,-0.3225 2.3075,-1.5625 2.19,-2.7225 -0.064,-0.63375 -0.34,-1.40375 -0.8375,-1.82125 -0.6125,-0.51375 -1.5438,-0.39375 -1.9575,0.32625 -0.2738,0.535 -0.096,1.295 0,1.8675 -0.3275,0.0275 -0.955,0.17125 -1.1838,0 -0.61,-0.42 -0.3237,-2.22875 0,-2.745 0.555,-0.82125 1.375,-1.0025 2.2888,-1.0025 1.375,0 2.1137,0.52625 2.5,1.875 0.68,-0.48625 1.1262,-1.02875 1.875,-1.4575 1.5975,-0.91625 3.465,-1.07625 5.25,-0.70875 l 1.5,0.41625 v -3.625 c 0,-1.35625 0.1687,-2.19375 -1,-3.125 z m 54,0 c 0.665,0.1675 0.895,0.275 1.25,0.875 h 0.25 c 0.575,-1.01125 2.0162,-1.2225 2.775,-0.3325 0.6575,0.77125 0.62,2.5475 -0.775,3.06625 -0.495,0.18375 -1.1,0.14125 -1.625,0.14125 v 3.875 c 0,1.8725 1.1425,1.59875 1.7812,3.875 0.7175,2.5525 0.3175,6.21375 -2.2812,7.575 -1.115,0.58375 -2.0463,0.55 -3.25,0.55 l 0.125,-1.25 c 1.025,-0.002 2.045,-0.13625 2.8637,-0.81625 1.7075,-1.4175 1.7738,-4.7475 0.7175,-6.55875 -1.2962,-2.225 -4.4025,-2.94125 -6.7062,-1.9575 -0.8613,0.3675 -1.5663,0.82 -2.125,1.5825 1.5412,0 2.7912,-0.08 4.1237,0.88 2.0325,1.4675 1.8663,4.97875 0.3175,6.73375 -1.2662,1.435 -3.1837,1.51375 -4.9412,1.51125 -1.935,-0.002 -3.8238,-0.72 -5.0663,-2.25 -0.9375,-1.15375 -1.29,-2.44875 -1.5587,-3.875 l 1.375,-0.25 c 0.2662,0.83125 1.05,0.69125 1.75,0.4725 1.03,-0.3225 2.3075,-1.5625 2.19,-2.7225 -0.064,-0.63375 -0.34,-1.40375 -0.8375,-1.82125 -0.6125,-0.51375 -1.5438,-0.39375 -1.9575,0.32625 -0.2738,0.535 -0.096,1.295 0,1.8675 -0.3275,0.0275 -0.955,0.17125 -1.1838,0 -0.61,-0.42 -0.3237,-2.22875 0,-2.745 0.555,-0.82125 1.375,-1.0025 2.2888,-1.0025 1.375,0 2.1137,0.52625 2.5,1.875 0.68,-0.48625 1.1262,-1.02875 1.875,-1.4575 1.5975,-0.91625 3.465,-1.07625 5.25,-0.70875 l 1.5,0.41625 v -3.625 c 0,-1.35625 0.1687,-2.19375 -1,-3.125 z m -51.3738,1.05875 c -1.07,0.425 -1.0462,1.98875 0.2488,1.62 1.0312,-0.295 0.99,-1.67875 -0.2488,-1.62 z m 54,0 c -1.07,0.425 -1.0462,1.98875 0.2488,1.62 1.0312,-0.295 0.99,-1.67875 -0.2488,-1.62 z m -86.8762,3.31625 c 1.1612,-0.5 2.13,-0.95 3.375,-1.26375 2.7137,-0.68125 6.4275,-0.5125 8.625,1.41125 0.7512,0.65875 1.4087,1.44375 1.835,2.3525 1.41,3.0125 1.03,7.975 -1.2313,10.5 -1.4487,1.61625 -3.59,2.37125 -5.7287,2.375 -1.9775,0.002 -3.7213,-0.0263 -5.375,-1.31625 -1.9663,-1.53375 -2.4488,-5.22625 -0.3738,-6.8675 1.55,-1.22625 3.8863,-1.06625 5.7488,-1.06625 -0.072,-1.445 -1.42,-2.485 -2.7475,-1.7325 -0.7175,0.40625 -0.6063,0.985 -0.865,1.265 -0.2075,0.225 -0.8338,0.2875 -1.1375,0.3425 -0.1375,-0.77125 -0.1613,-1.4475 0.3312,-2.12 0.9063,-1.23625 3.3625,-1.20625 4.5425,-0.39875 1.27,0.87 1.2513,2.52375 1.2513,3.89375 -1.785,0 -4.7113,-0.325 -6.12,0.81625 -1.6663,1.34875 -1.0075,3.705 0.495,4.885 0.89,0.7 2.2612,0.97375 3.375,1.0375 0.4712,0.0263 0.6862,-0.0462 1.125,-0.0937 1.87,-0.2 3.1925,-0.6625 4.4625,-2.145 1.005,-1.17375 1.3462,-2.38375 1.5537,-3.875 0.3663,-2.635 -0.2325,-5.22625 -2.3912,-6.9525 -1.8225,-1.45875 -4.9463,-1.60625 -7.125,-0.99375 l -3.125,1.19625 z m -92,13.25 c -0.2013,-0.095 -0.315,-0.13125 -0.4925,-0.28625 -0.6138,-0.53625 -0.3475,-0.8475 0.12,-1.33875 0.375,-0.395 1.6962,-1.58125 1.8225,-2 0.091,-0.3025 -0.135,-0.80625 -0.2125,-1.125 -0.1225,-0.5075 -0.1175,-0.86 -0.1125,-1.375 0.017,-1.4525 0.7737,-2.56 2,-3.31625 0.9612,-0.59375 2.7525,-0.99125 3.875,-0.8975 0.4737,0.02 1.035,0.185 1.5,0 0.4012,-0.13375 0.8025,-0.59875 1.125,-0.89 l 2.125,-1.90625 c 0.39,-0.35875 1.595,-1.6625 2.12,-1.46875 0.4737,0.175 0.6362,0.685 0.335,1.0925 l -2.205,1.97625 c -0.5875,0.51125 -1.42,1.17875 -1.875,1.785 0.5412,0.23375 0.9112,0.41 1.375,0.79125 0.2262,0.185 0.6212,0.6075 0.875,0.69 0.41,0.13125 0.6337,-0.24125 1.375,-0.33375 1.2187,-0.15125 1.7075,0.2825 2.5,1.1025 0.2312,-0.47125 0.445,-0.85 0.88,-1.16875 1.2025,-0.88375 3.1412,-0.60875 4.0712,0.54625 0.68,0.84125 1.0363,2.55 1.0488,3.6225 0.026,2.27375 0.1637,5.5925 -2.5,6.4875 -0.465,0.15625 -0.8913,0.14375 -1.375,0.1375 -1.1513,-0.015 -2.0813,-0.565 -2.745,-1.5 -0.1788,-0.25375 -0.5375,-0.74375 -0.3638,-1.0625 0.1425,-0.265 0.8275,-0.465 1.1088,-0.5625 0.2575,0.56875 0.605,1.17375 1.13,1.5375 1,0.69375 2.2587,0.23375 2.8187,-0.7875 0.705,-1.28875 0.665,-4.47375 0.2463,-5.875 -0.2825,-0.94625 -0.8375,-1.8125 -1.945,-1.735 -0.4225,0.0288 -0.7888,0.19875 -1.0763,0.51125 -0.5312,0.5775 -0.6575,1.71375 -0.6737,2.47375 h -1.25 c 0,-0.69875 0.01,-1.405 -0.4563,-1.98375 -0.56,-0.6975 -1.5075,-0.54625 -1.815,-0.0925 -0.2325,0.30125 -0.071,0.6375 0,0.95125 0.1738,0.56375 0.2638,1.165 0.2713,1.75 0.01,0.89125 -0.018,1.25125 -0.2363,2.125 -0.7037,2.7975 -3.2587,4.2375 -6.0137,4.25 h -1.25 c -1.5425,-0.007 -3.155,-0.6325 -4.375,-1.5625 -0.6663,-0.5075 -1.0775,-1.23625 -1.75,-0.5625 z m -9,-14.25 1,1.125 -3,2.1975 -2.625,1.5525 c 1.7925,0.0387 3.465,0.76125 4.5412,2.25 1.185,1.685 1.1225,5.03125 0,6.75 -1.1,1.73125 -3.1775,2.4975 -5.1662,2.5 -1.6213,0.002 -3.132499,-0.0612 -4.499999,-1.07625 -2.3913,-1.775 -2.7975,-5.84125 -0.98,-8.1625 1.2337,-1.575 2.712499,-1.9375 4.354999,-2.80125 1.7337,-0.9125 4.9537,-3.03375 6.375,-4.335 z m 71.625,0 1,1.125 -3,2.1975 -2.625,1.5525 c 1.7925,0.0387 3.465,0.76125 4.5412,2.25 1.185,1.685 1.1225,5.03125 0,6.75 -1.1,1.73125 -3.1775,2.4975 -5.1662,2.5 -1.6213,0.002 -3.1325,-0.0612 -4.5,-1.07625 -2.3913,-1.775 -2.7975,-5.84125 -0.98,-8.1625 1.2337,-1.575 2.7125,-1.9375 4.355,-2.80125 1.7337,-0.9125 4.9537,-3.03375 6.375,-4.335 z m -98.749999,6.25 c 1.0775,-0.605 1.7675,-1.21 3,-1.6925 1.0675,-0.4175 1.8837,-0.49 3,-0.56875 0.485,-0.0337 0.7162,-0.1325 1.25,-0.1025 1.595,0.09 3.2612,0.42875 4.4987,1.515 2.4138,2.12125 2.7838,7.47375 0.3713,9.70125 -1.2413,1.145 -2.3038,1.1475 -3.87,1.1475 l 0.125,-1.25 c 0.7437,-0.0163 1.6187,-0.1125 2.25,-0.53125 2.0712,-1.375 2.0862,-5.19 0.8,-7.09375 -1.7588,-2.60375 -5.6788,-2.5025 -8.3,-1.44375 -0.9188,0.37125 -1.7513,0.92625 -2.5,1.56875 1.3087,-0.24625 1.0025,-0.2525 2.375,-0.25 1.1137,0.001 2.265,0.19 3.25,0.7375 2.18,1.2125 2.7025,4.05375 1.9125,6.2625 -0.5338,1.4925 -1.625,2.14125 -3.1625,2.125 -0.5225,-0.006 -0.9038,-0.0462 -1.375,-0.30125 -0.6113,-0.33375 -1.0663,-0.92 -1.5,-1.44875 -1.1175,2.27625 -3.8738,2.18625 -5.0988,0.86375 -0.8237,-0.89 -0.5812,-1.65375 -1.0262,-2.61375 l -0.125,0.375 -1.25,-0.625 c 0.6037,-1.07375 2.2825,-3.20875 3.1362,-4.125 0.4088,-0.44 1.3013,-1.08875 1.15,-1.75 -0.2287,-1.00875 -1.61,-1.5625 -2.34,-0.7225 -0.5012,0.57875 -0.2862,1.415 -0.1962,2.095 -0.3075,0.0275 -0.935,0.17125 -1.1638,0 -0.61,-0.42 -0.3237,-2.22875 0,-2.745 0.98,-1.46625 4.2038,-1.57625 4.7888,0.8725 z m 71.624999,0 c 1.0775,-0.605 1.7675,-1.21 3,-1.6925 1.0675,-0.4175 1.8837,-0.49 3,-0.56875 0.485,-0.0337 0.7162,-0.1325 1.25,-0.1025 1.595,0.09 3.2612,0.42875 4.4987,1.515 2.4138,2.12125 2.7838,7.47375 0.3713,9.70125 -1.2413,1.145 -2.3038,1.1475 -3.87,1.1475 l 0.125,-1.25 c 0.7437,-0.0163 1.6187,-0.1125 2.25,-0.53125 2.0712,-1.375 2.0862,-5.19 0.8,-7.09375 -1.7588,-2.60375 -5.6788,-2.5025 -8.3,-1.44375 -0.9188,0.37125 -1.7513,0.92625 -2.5,1.56875 1.3087,-0.24625 1.0025,-0.2525 2.375,-0.25 1.1137,0.001 2.265,0.19 3.25,0.7375 2.18,1.2125 2.7025,4.05375 1.9125,6.2625 -0.5338,1.4925 -1.625,2.14125 -3.1625,2.125 -0.5225,-0.006 -0.9038,-0.0462 -1.375,-0.30125 -0.6113,-0.33375 -1.0663,-0.92 -1.5,-1.44875 -1.1175,2.27625 -3.8738,2.18625 -5.0988,0.86375 -0.8237,-0.89 -0.5812,-1.65375 -1.0262,-2.61375 l -0.125,0.375 -1.25,-0.625 c 0.6037,-1.07375 2.2825,-3.20875 3.1362,-4.125 0.4088,-0.44 1.3013,-1.08875 1.15,-1.75 -0.2287,-1.00875 -1.61,-1.5625 -2.34,-0.7225 -0.5012,0.57875 -0.2862,1.415 -0.1962,2.095 -0.3075,0.0275 -0.935,0.17125 -1.1638,0 -0.61,-0.42 -0.3237,-2.22875 0,-2.745 0.98,-1.46625 4.2038,-1.57625 4.7888,0.8725 z m 40.75,0.375 c 0,-0.67 0.012,-1.2975 0.4562,-1.8525 0.93,-1.16375 3.4025,-1.07375 4.5325,-0.245 1.1838,0.86875 1.26,2.5 1.2613,3.8475 h -1.625 c -0.7488,0.004 -1.4375,0.125 -2.125,0.44 -2.1063,0.96375 -2.7138,3.9 -1.3163,5.4125 1.1438,1.2375 3.4113,1.1025 4.3175,-0.3525 0.3513,-0.565 0.3838,-1.23625 0.4988,-1.875 h 1.25 c 0,0.59375 -0.01,0.9275 0.2137,1.5 0.5925,1.55 2.7413,2.06 4.0363,1.0725 1.6662,-1.26875 1.655,-4.79125 -0.75,-5.7975 -0.6513,-0.2725 -1.4238,-0.39625 -2.125,-0.4 h -1.625 c 0,-1.35875 -0.1138,-2.7025 1.0112,-3.70875 1.1363,-1.0175 3.8363,-1.08375 4.7825,0.21375 0.5025,0.68875 0.365,1.46375 0.3313,2.245 l -1.4038,-0.125 c 0.057,-0.335 0.1088,-0.6775 0,-0.9975 -0.495,-1.07375 -2.0325,-1.03 -2.805,-0.31125 -0.4762,0.4425 -0.5262,0.825 -0.5412,1.43375 1.1675,0 2.3175,0.0975 3.375,0.64125 1.9412,0.9975 2.2725,2.475 2.25,4.48375 -0.029,2.375 -1.4075,4.11375 -3.875,4.125 -1.9488,0.009 -2.2825,-0.4075 -3.625,-1.75 -0.835,1.55375 -2.0238,1.76875 -3.625,1.75 -1.105,-0.0138 -2.1088,-0.405 -2.8488,-1.2525 -1.0862,-1.24375 -1.2687,-3.69125 -0.4825,-5.1225 0.5025,-0.915 0.9275,-1.14625 1.7063,-1.75 l -2.5,0.125 v -1.25 h 6.125 c -0.065,-0.70875 -0.25,-1.24375 -0.8775,-1.66 -1.01,-0.67 -2.435,-0.30625 -2.6225,1.035 z m 78.375,0.125 c -0.615,-2.78125 2.8587,-3.4125 4.75,-2.41625 1.57,0.8275 1.5,2.53375 1.5,4.04125 h -4.75 c -0.8413,0.01 -2.055,0.215 -2.75,0.70625 -2.06,1.4575 -1.4388,4.47625 0.75,5.47875 1.5012,0.6875 3.6825,0.6225 5.25,0.205 l 1.625,-0.515 0.375,1.25 c -1.0363,0.4125 -1.9538,0.53375 -2.6513,1.5 -0.8012,1.11 -0.9287,2.79875 0.6513,3.29375 0.7087,0.2225 1.435,-0.0137 2.125,-0.16875 0.082,0.28625 0.3075,0.89625 0.1212,1.16 -0.1687,0.2375 -0.7237,0.30875 -0.9962,0.32875 -0.8238,0.0613 -1.9088,0.0825 -2.625,-0.3625 -1.1463,-0.71375 -1.5125,-2.2475 -1.1513,-3.50125 0.1388,-0.485 0.4338,-0.9225 0.6513,-1.375 -1.7825,0 -3.4663,0.0188 -5,-1.07875 -2.265,-1.6225 -2.5525,-5.1875 -0.375,-7.005 1.7975,-1.5 5.1412,-1.16625 7.375,-1.16625 -0.059,-1.18375 -0.8813,-2.0875 -2.125,-1.9575 -0.4625,0.0475 -0.8888,0.23 -1.1863,0.59625 -0.215,0.26375 -0.2775,0.57625 -0.5025,0.73375 -0.16,0.1125 -0.8087,0.19125 -1.0612,0.2525 z m 33.125,-0.5 1.375,-1.13375 c 1.0537,-0.76875 2.69,-1.30375 4,-1.23 2.1737,0.12375 4.0887,0.64125 5.4387,2.48875 1.7575,2.40625 1.5963,7.16 -0.9387,9.00875 -1.2038,0.8775 -2.3488,0.86625 -3.75,0.86625 l 0.125,-1.25 c 1.025,-0.002 2.045,-0.13625 2.8637,-0.81625 1.7075,-1.4175 1.7738,-4.7475 0.7175,-6.55875 -1.2962,-2.225 -4.4025,-2.94125 -6.7062,-1.9575 -0.8613,0.3675 -1.5663,0.82 -2.125,1.5825 1.5412,0 2.7912,-0.08 4.1237,0.88 2.0325,1.4675 1.8663,4.97875 0.3175,6.73375 -1.2662,1.435 -3.1837,1.51375 -4.9412,1.51125 -1.935,-0.002 -3.8238,-0.72 -5.0663,-2.25 -0.9375,-1.15375 -1.29,-2.44875 -1.5587,-3.875 l 1.375,-0.25 c 0.2662,0.83125 1.05,0.69125 1.75,0.4725 1.03,-0.3225 2.3075,-1.5625 2.19,-2.7225 -0.064,-0.63375 -0.34,-1.40375 -0.8375,-1.82125 -0.6125,-0.51375 -1.5438,-0.39375 -1.9575,0.32625 -0.2738,0.535 -0.096,1.295 0,1.8675 -0.3275,0.0275 -0.955,0.17125 -1.1838,0 -0.61,-0.42 -0.3237,-2.22875 0,-2.745 0.555,-0.82125 1.375,-1.0025 2.2888,-1.0025 1.375,0 2.1137,0.52625 2.5,1.875 z m 29.875,0.875 c -0.1225,-0.68625 -0.2138,-1.35375 0.1425,-2 0.8225,-1.49375 3.4612,-1.51625 4.73,-0.64375 1.2412,0.85125 1.2525,2.54875 1.2525,3.89375 -1.4725,0 -3.4475,-0.25625 -4.6138,0.79125 -1.6762,1.505 -0.8812,5.0675 2.2388,5.77 1.6662,0.375 3.7762,0.11625 4.9875,-1.18875 0.6787,-0.73125 1.295,-2.40125 0.36,-3.1875 -0.5938,-0.49125 -1.1063,-0.0425 -1.5975,0 -0.3538,0.0225 -0.9863,-0.22125 -1.375,-0.31 0.38,-1.435 0.4875,-2.56375 1.3375,-3.875 0.4375,-0.6775 0.9712,-1.265 1.6625,-1.69125 1.8712,-1.155 4.7437,-1.045 6.2975,0.6025 1.8612,1.97 2.0487,6.02125 0.7637,8.33875 -0.5125,0.92375 -1.13,1.52125 -2.0612,2.01375 -1.2775,0.675 -2.4888,0.61125 -3.875,0.61125 l 0.125,-1.25 c 1.05,0 2.2012,-0.0637 3.125,-0.61625 2.3787,-1.4225 2.6887,-5.49625 1.1512,-7.63375 -1.3712,-1.9075 -4.065,-1.97375 -5.6137,-0.245 -0.8513,0.95125 -0.9413,1.67 -1.4125,2.745 0.4187,-0.105 0.8137,-0.18375 1.25,-0.155 2.2762,0.14625 2.39,2.9 1.6912,4.53 -0.7737,1.8075 -2.8112,2.7275 -4.6912,2.75 -1.885,0.0213 -3.6325,-0.0288 -5.12,-1.3975 -1.7625,-1.62375 -2.1363,-5.325 -0.1288,-6.91125 1.1688,-0.9225 2.7113,-0.94125 4.1238,-0.94125 -0.05,-0.89875 -0.47,-1.62 -1.375,-1.9 -1.11,-0.3425 -2.2388,0.41375 -2,1.65 z m -210.375,-2 c -2.16,0.001 -4.9913,0.59375 -4.8113,3.375 0.025,0.38125 0.081,0.75875 0.1863,1.125 1.0537,-0.75375 1.9312,-1.735 2.875,-2.61375 0.6562,-0.6125 1.355,-1.05 1.75,-1.88625 z m 139,4.75 c 0.1125,0.855 0.3,1.87625 -0.3213,2.59875 -0.7575,0.8825 -2.7975,0.8575 -3.62,0.085 -0.5937,-0.5575 -0.7837,-1.39875 -0.6425,-2.18375 0.3038,-1.68875 2.0713,-1.89125 3.4588,-1.875 2.1125,0.025 4.0962,1.19 4.125,3.5 0.012,1.07375 -0.096,1.99625 -0.8163,2.86375 -1.53,1.84375 -5.8137,1.9125 -7.8087,0.88875 -1.9313,-0.99125 -2.8275,-3.14875 -2.745,-5.2525 0.024,-0.62 0.1925,-1.425 0.4262,-2 1.4475,-3.54375 5.7113,-3.8025 8.9438,-3.1925 l 2,0.5675 -0.5,1.25 -1.875,-0.5425 c -1.9288,-0.40375 -4.6775,-0.4 -6.245,0.95875 -1.735,1.5025 -1.8238,4.56625 -0.2438,6.20375 0.8925,0.925 2.1063,1.2975 3.3638,1.36875 1.0262,0.0575 2.6162,-0.27125 3.3687,-1.00125 0.8175,-0.795 1.0763,-2.2575 0.4188,-3.2375 -0.345,-0.51375 -0.7425,-0.75125 -1.2875,-1 z m -123.375,-4.625 c 1.43,-0.18875 2.915,-0.3425 4.1137,0.63 1.76,1.42875 1.64,3.5925 1.6363,5.62 0,1.585 -0.5138,3.3425 -1.875,4.29375 -1.1638,0.815 -2.57,0.5625 -3.875,0.45625 l 0.25,-1.25 c 1.1125,0.14625 2.0512,0.2475 2.9775,-0.56625 0.4137,-0.36375 0.7687,-1.03125 0.925,-1.55875 0.4925,-1.66375 0.3925,-4.9275 -1.1538,-6.025 -0.89,-0.63125 -1.7525,-0.48125 -2.7487,-0.35 z m 212.375,0 c 1.43,-0.18875 2.915,-0.3425 4.1137,0.63 1.76,1.42875 1.64,3.5925 1.6363,5.62 0,1.585 -0.5138,3.3425 -1.875,4.29375 -1.1638,0.815 -2.57,0.5625 -3.875,0.45625 l 0.25,-1.25 c 1.1125,0.14625 2.0512,0.2475 2.9775,-0.56625 0.4137,-0.36375 0.7687,-1.03125 0.925,-1.55875 0.4925,-1.66375 0.3925,-4.9275 -1.1538,-6.025 -0.89,-0.63125 -1.7525,-0.48125 -2.7487,-0.35 z m -233,6.375 c -0.135,0.1925 -0.5475,0.70125 -0.605,0.875 -0.1363,0.4125 0.2037,0.7 0.4825,0.945 0.6825,0.59875 1.5012,1.0725 2.3725,1.33375 2.2,0.66 5.4837,0.34375 6.9212,-1.65375 1.2288,-1.71 1.0525,-4.62375 -0.2562,-6.245 -0.3788,-0.47 -1.5288,-1.37375 -2.165,-1.315 -0.4963,0.0462 -1.39,0.955 -1.75,1.31 -1.0725,1.05875 -3.0588,2.73375 -3.875,3.875 0.6475,0.52625 1.0475,0.745 1.855,0.875 -0.1763,-0.755 -0.4063,-1.36 0,-2.125 0.7462,-1.5125 2.9287,-1.5775 3.9925,-0.37 1.4112,1.60375 -0.1338,3.44 -1.8475,3.805 -1.0238,0.21875 -2.5525,-0.0425 -3.5,-0.47375 -0.6,-0.27375 -1,-0.65875 -1.625,-0.83625 z m -18,-5.5875 c -4.107499,0.77625 -4.549999,5.64875 -2.691299,7.69125 1.283799,1.4125 3.436299,1.505 5.191299,1.25 1.7875,-0.26 3.28,-1.5325 3.605,-3.35375 v -1.5 c 0.01,-0.95125 -0.2188,-1.7425 -0.815,-2.49875 -1.275,-1.61375 -3.3925,-1.7775 -5.29,-1.58875 z m 71.625,0 c -4.1075,0.77625 -4.55,5.64875 -2.6913,7.69125 1.2838,1.4125 3.4363,1.505 5.1913,1.25 1.7875,-0.26 3.28,-1.5325 3.605,-3.35375 v -1.5 c 0.01,-0.95125 -0.2188,-1.7425 -0.815,-2.49875 -1.275,-1.61375 -3.3925,-1.7775 -5.29,-1.58875 z m -62.875,2.0875 h 4 c 0.7262,0.001 1.085,-0.0512 1.3437,0.75 0.05,0.21875 0.086,0.4 0,0.625 -0.1125,0.4175 -0.9475,1.24375 -1.27,1.625 -1.08,1.28125 -2.2425,2.88125 -2.3187,4.625 -0.061,1.415 0.5825,2.4875 2.12,2.49 0.6062,10e-4 1.1725,-0.215 1.75,-0.365 l 0.375,1.25 c -1.2925,0.2925 -1.0513,0.3925 -2.5,0.375 -0.5213,-0.006 -0.7525,-0.035 -1.25,-0.2125 -2.145,-0.76625 -2.185,-3.46 -1.5375,-5.2875 0.2987,-0.84375 0.8525,-1.78 1.3812,-2.5 l 1.7813,-2.125 h -3.875 z m -26.249999,3.875 c 0,0.7475 -0.045,1.17125 0.2912,1.875 0.6425,1.34625 2.4475,1.66375 3.41,0.495 0.5863,-0.7125 0.6488,-1.99375 0.4913,-2.87 -0.4913,-2.7175 -2.9125,-3.02625 -5.1925,-3 -0.655,0.007 -2.1963,0.20875 -2.7488,0.5175 -0.6537,0.365 -2.0525,2.2525 -2.2512,2.9825 h 0.5 c 0,0.7 -0.013,1.63375 0.3762,2.245 0.5775,0.90875 2.1563,1.08625 2.9725,0.42375 0.4263,-0.34625 0.6575,-1.015 0.7388,-1.54375 0.053,-0.34125 0,-0.77875 0.3262,-0.9975 0.245,-0.1625 0.7913,-0.1275 1.0863,-0.1275 z m 71.624999,0 c 0,0.7475 -0.045,1.17125 0.2912,1.875 0.6425,1.34625 2.4475,1.66375 3.41,0.495 0.5863,-0.7125 0.6488,-1.99375 0.4913,-2.87 -0.4913,-2.7175 -2.9125,-3.02625 -5.1925,-3 -0.655,0.007 -2.1963,0.20875 -2.7488,0.5175 -0.6537,0.365 -2.0525,2.2525 -2.2512,2.9825 h 0.5 c 0,0.7 -0.013,1.63375 0.3762,2.245 0.5775,0.90875 2.1563,1.08625 2.9725,0.42375 0.4263,-0.34625 0.6575,-1.015 0.7388,-1.54375 0.053,-0.34125 0,-0.77875 0.3262,-0.9975 0.245,-0.1625 0.7913,-0.1275 1.0863,-0.1275 z m 71.625,0 c 0.8412,1.93875 2.0662,2.7725 4.125,3.01875 0.5112,0.0612 0.7025,0.1225 1.25,0.10125 1.1912,-0.0462 2.66,-0.40875 3.4337,-1.375 0.9625,-1.20125 0.9813,-3.28375 -0.1887,-4.34375 -0.7463,-0.67625 -1.765,-0.89 -2.745,-0.90125 -0.2888,-0.002 -0.825,-0.035 -1.0638,0.1275 -0.2312,0.15875 -0.4537,0.7325 -0.6,0.9975 -0.2925,0.53 -0.62,0.94625 -1.0862,1.33375 -1.1038,0.9175 -1.9475,0.7025 -3.125,1.04125 z m 54,0 c 0.8412,1.93875 2.0662,2.7725 4.125,3.01875 0.5112,0.0612 0.7025,0.1225 1.25,0.10125 1.1912,-0.0462 2.66,-0.40875 3.4337,-1.375 0.9625,-1.20125 0.9813,-3.28375 -0.1887,-4.34375 -0.7463,-0.67625 -1.765,-0.89 -2.745,-0.90125 -0.2888,-0.002 -0.825,-0.035 -1.0638,0.1275 -0.2312,0.15875 -0.4537,0.7325 -0.6,0.9975 -0.2925,0.53 -0.62,0.94625 -1.0862,1.33375 -1.1038,0.9175 -1.9475,0.7025 -3.125,1.04125 z m 19.5,0 c 0.8412,1.93875 2.0662,2.7725 4.125,3.01875 0.5112,0.0612 0.7025,0.1225 1.25,0.10125 1.1912,-0.0462 2.66,-0.40875 3.4337,-1.375 0.9625,-1.20125 0.9813,-3.28375 -0.1887,-4.34375 -0.7463,-0.67625 -1.765,-0.89 -2.745,-0.90125 -0.2888,-0.002 -0.825,-0.035 -1.0638,0.1275 -0.2312,0.15875 -0.4537,0.7325 -0.6,0.9975 -0.2925,0.53 -0.62,0.94625 -1.0862,1.33375 -1.1038,0.9175 -1.9475,0.7025 -3.125,1.04125 z m -176.62,-2.425 c -1.0725,0.6275 -0.7925,2.66 0.745,2.06375 0.7325,-0.285 1.1175,-1.34 0.4462,-1.9025 -0.3437,-0.28875 -0.7875,-0.2475 -1.1912,-0.16125 z m 137.7275,0.16 c -0.47,-0.0288 -1.0725,0.0425 -1.39,0.43875 -0.3138,0.39125 -0.3663,1.4225 0.4125,1.6475 1.5062,0.435 1.9737,-1.53125 0.9775,-2.08625 z m 58.27,4.2225 c 2.0437,-0.31875 1.8287,2.6475 0.1225,2.3875 -1.0375,-0.15875 -1.315,-1.86625 -0.1225,-2.3875 z m -227.877499,21.1675 c -0.1138,-0.56625 -0.275,-1.035 -0.2388,-1.625 0.1463,-2.385 2.5288,-3.35 4.6138,-3.375 2.2737,-0.0263 5.682499,-0.13875 6.478699,2.625 0.1063,0.37 0.1588,0.74 0.135,1.125 l -0.2387,1.25 -1.25,-0.25 c 0.1175,-0.88875 0.27,-1.575 -0.35,-2.3525 -0.51,-0.63875 -1.3713,-0.9125 -2.149999,-1.0225 -1.6625,-0.235 -4.4838,-0.32125 -5.5375,1.25 -0.4788,0.71375 -0.315,1.3475 -0.2125,2.125 z m 54.623899,-4.25 c 1.855,0.64375 3.9325,1.685 5.1662,3.25 0.7713,0.9775 1.2825,1.924997 1.6163,3.124997 0.9387,3.388765 -0.066,7.713755 -3.2825,9.540005 -1.895,1.07753 -3.525,1.10878 -5.625,1.085 -1.22,-0.015 -2.7788,-0.43875 -3.75,-1.19125 -1.6,-1.23875 -2.1863,-3.60625 -1.2513,-5.43375 0.3488,-0.67875 0.8188,-1.015 1.3763,-1.5 l -2.25,0.125 v -1.25 h 7 c -0.17,-0.630005 -0.2225,-1.086255 -0.7725,-1.525005 -1.07,-0.855 -2.4975,-0.465 -2.8525,0.89625 -0.2725,0.0162 -0.9788,0.1425 -1.1738,0 -0.5475,-0.415 0.3013,-1.76 0.6788,-2.04 1.3137,-0.973747 3.9537,-0.683747 4.8425,0.79375 0.5775,0.96125 0.5275,2.052495 0.5275,3.124995 h -2.375 c -0.9838,0.001 -2.0563,0.1325 -2.875,0.72375 -1.4563,1.04999 -1.5463,3.17749 -0.4338,4.51499 0.78,0.93875 1.9063,1.2425 3.0588,1.4025 2.9137,0.405 6.03,-0.7275 7.335,-3.51625 0.6362,-1.36 0.6812,-2.54124 0.665,-3.99999 -0.017,-1.461245 -0.4038,-1.776245 -0.75,-2.999995 -0.4525,0.31375 -0.8588,0.695 -1.375,0.905 -0.37,0.15 -0.725,0.2275 -1.125,0.1975 -0.2675,-0.02 -0.7563,-0.12125 -1,-0.22625 -2.0925,-0.90875 -0.5138,-3.517497 -1.875,-4.751247 z m 70.125,1.75 c 2.2887,-1.3025 4.6375,-1.78 7.25,-1.75 0.93,0.0113 2.1212,0.23625 3,0.5425 0.605,0.21125 1.35,0.565 1.875,0.92875 2.01,1.39125 3.1137,3.863747 3.125,6.278762 v 1.5 c 0,2.1575 -0.7475,2.97624 -0.75,4.74997 v 8.12499 h -10.625 c -0.9163,-0.005 -2.1213,-0.13875 -2.87,-0.705 -1.4075,-1.0625 -0.8738,-2.98375 0.37,-3.92 l 0.875,1 c -0.1763,0.19876 -0.36,0.38752 -0.4875,0.625 -0.8888,1.65375 1.9325,1.74875 2.8625,1.75 h 8.5 l 0.125,-5.99997 c -0.8263,0.5725 -1.2663,1.04125 -2.25,1.44374 -1.755,0.71623 -2.9125,0.70248 -4.75,0.68123 -2.73,-0.0325 -5.0538,-1.40873 -6.0675,-3.99999 -0.4288,-1.09748 -0.4338,-1.98125 -0.4325,-3.12497 0,-1.7525 0.6087,-3.671265 2.375,-4.383765 0.725,-0.2925 1.7237,-0.3775 2.3475,0.18625 1.0925,0.9875 0.013,2.563755 0.3762,3.822515 0.4875,1.68623 2.7625,1.83499 4.0238,0.91875 0.465,-0.33626 0.615,-0.685 0.8775,-1.15001 -1.0275,0.2575 -2.2575,0.695 -3.2475,0 -1.1,-0.73125 -1.1725,-2.450005 -0.2263,-3.351255 0.44,-0.41875 1.13,-0.6 1.7238,-0.645 0.3925,-0.0288 0.7512,0.045 1.125,0.1575 1.6212,0.485 2.0387,1.90375 1.905,3.445015 -0.046,0.53 -0.078,0.89 -0.33,1.375 -0.9025,1.73624 -2.34,1.89499 -4.075,1.87498 -1.2975,-0.0163 -2.5325,-0.56874 -2.9863,-1.87498 -0.175,-0.50375 -0.145,-1.095 -0.1387,-1.625 0.01,-0.59625 0.43,-2.308765 -0.75,-2.036265 -1.3013,0.3 -1.6238,2.182505 -1.625,3.286265 0,0.97749 0,1.55124 0.3375,2.49998 0.85,2.38001 3.0762,3.23126 5.4125,3.36376 0.4712,0.0263 0.6862,-0.0462 1.125,-0.0937 1.6062,-0.17125 2.9262,-0.56874 4.07,-1.79125 2.5325,-2.70626 2.4737,-8.328755 -0.32,-10.832502 -1.985,-1.7775 -5.5163,-2.04 -8,-1.3425 l -3.25,1.19625 z m -2.75,-1.125 1,1.125 -3,2.1975 -2.625,1.552497 c 1.7925,0.0387 3.465,0.76125 4.5412,2.250015 1.185,1.685 1.1225,5.03123 0,6.74998 -1.1,1.73126 -3.1775,2.49748 -5.1662,2.49998 -1.6213,0.002 -3.1325,-0.0612 -4.5,-1.07623 -2.3913,-1.775 -2.7975,-5.84124 -0.98,-8.16249 1.2337,-1.575005 2.7125,-1.937505 4.355,-2.801255 1.7337,-0.912497 4.9537,-3.033747 6.375,-4.334997 z m -66.125,1.25 c -0.081,0.40625 0.03,0.605 0.088,1 0.094,0.64 0.023,1.6125 0.6762,1.978747 0.745,0.4175 2.09,-0.262497 1.84,-0.978747 -0.145,-0.41625 -0.98,-1.05875 -1.3537,-1.31 -0.425,-0.28625 -0.7838,-0.4825 -1.25,-0.69 z m -68.623899,5.499997 c 0,-0.77125 -0.039,-1.3725 0.5275,-1.9875 0.9562,-1.037497 3.23,-1.107497 4.3462,-0.30625 0.4563,0.32625 0.6763,0.6575 0.8763,1.16875 l 1.625,-1.749997 c 0.2225,0.19375 0.6375,0.519997 0.78,0.761247 0.2175,0.36875 0.023,0.53375 0.3862,1.23875 0.6438,1.250015 2.0875,3.090015 0.4538,4.293755 -0.2225,0.16374 -0.48,0.26749 -0.745,0.34 -0.365,0.10124 -0.7475,0.1275 -1.125,0.11125 -0.2913,-0.0125 -0.47,-0.0525 -0.75,-0.12001 v 4.125 l 1.5,-0.5 c 0.091,0.26251 0.3425,0.84375 0.2737,1.0975 -0.1262,0.46875 -1.3462,0.71126 -1.7737,0.7775 v 4.24998 h -1.375 v -4 c -1.9388,0.3475 -4.9788,0.225 -6.625,-0.95373 -2.1625,-1.54874 -2.6013,-5.09999 -0.4988,-6.87999 1.8475,-1.563755 4.8538,-1.29125 7.1238,-1.29125 -0.1375,-1.506255 -1.46,-2.431255 -2.8725,-1.775005 -0.805,0.37375 -0.6188,0.895 -0.95,1.1475 -0.16,0.12125 -0.93,0.20875 -1.1775,0.2525 z m 11.625,0.375015 c -0.1225,-0.686265 -0.2138,-1.353765 0.1425,-2.000015 0.8225,-1.493747 3.4612,-1.516247 4.73,-0.64375 1.2412,0.85125 1.2525,2.54875 1.2525,3.893765 -1.2938,0 -3.1463,-0.19125 -4.25,0.51625 -1.715,1.1 -1.4875,3.52999 -0.1038,4.80125 1.155,1.06 3.2,1.43125 4.7288,1.43125 1.415,0 3.401199,-0.33875 4.499999,-1.275 1.5037,-1.28252 2.0025,-3.7525 0.125,-4.9575 -1.0725,-0.6875 -2.988799,-0.51625 -4.249999,-0.51625 0,-1.308765 -0.013,-2.903765 1.1362,-3.795015 1.237499,-0.961247 3.842499,-0.984997 4.773799,0.4225 0.435,0.6575 0.345,1.39625 0.215,2.122515 l -1.25,-0.125015 c -0.01,-0.4025 -0.01,-0.76375 -0.2313,-1.12 -0.8187,-1.29125 -3.151199,-0.865 -3.268699,1.245005 1.368699,0 2.833699,0.0138 3.999999,0.84875 2.01,1.44 1.8612,4.85499 0.245,6.52499 -1.8775,1.93875 -4.498799,1.90498 -6.994999,1.87625 -1.7988,-0.0213 -3.8813,-0.62375 -5.1025,-2 -1.63,-1.84125 -1.5988,-5.35374 0.7275,-6.63749 1.1062,-0.61 2.4,-0.6125 3.625,-0.6125 -0.05,-0.898755 -0.47,-1.620005 -1.375,-1.900005 -1.11,-0.3425 -2.2388,0.41375 -2,1.65 z m 72.123899,1.25 c 0,-1.0375 -0.016,-2.217515 0.57,-3.123765 0.9625,-1.488747 3.5875,-1.816247 4.925,-0.7025 0.24,0.2 0.4225,0.4175 0.5487,0.70125 0.1838,0.36125 0.365,1.46875 0,1.7475 -0.2037,0.141265 -0.8987,0.015 -1.1687,0 0,-0.40625 0.014,-0.745 -0.1963,-1.11625 -0.495,-0.87625 -1.8137,-0.905 -2.5487,-0.3275 -0.5488,0.43125 -0.695,0.90875 -0.755,1.571265 1.185,0 2.285,0.0763 3.375,0.59875 0.7712,0.36875 1.3325,0.78374 1.78,1.52625 0.97,1.61375 0.7937,4.72626 -0.5675,6.08751 -0.8575,0.85751 -1.805,1.0425 -2.9625,1.0375 -1.7038,-0.007 -2.2675,-0.55625 -3.375,-1.75001 -0.3888,0.66501 -0.7925,1.11 -1.5,1.45 -1.3313,0.64002 -3.5538,0.34252 -4.6125,-0.7125 -1.9488,-1.94375 -1.7775,-6.84252 1.6125,-8.357515 1.3312,-0.595 2.3462,-0.505 3.75,-0.505 l -0.125,1.250015 c -2.0025,0 -3.7413,0.19499 -4.7088,2.25 -0.9562,2.03 -0.1387,5.26501 2.5838,5.06001 1.0637,-0.08 1.88,-0.66125 2.2362,-1.685 0.2138,-0.61376 0.056,-1.02376 0.3388,-1.24752 0.2175,-0.1725 0.8887,-0.12749 1.175,-0.12749 0,0.665 0.015,1.28376 0.375,1.87501 0.735,1.205 2.57,1.58 3.75,0.78749 1.64,-1.10124 1.9862,-4.7425 -0.625,-5.87 -0.6775,-0.2925 -1.3925,-0.41375 -2.125,-0.4175 z m 23.875,-2.125015 c 1.0775,-0.605 1.7675,-1.21 3,-1.6925 1.0675,-0.4175 1.8837,-0.489997 3,-0.568747 0.485,-0.0337 0.7162,-0.1325 1.25,-0.1025 1.595,0.09 3.2612,0.428747 4.4987,1.514997 2.4138,2.121265 2.7838,7.473755 0.3713,9.701255 -1.2413,1.145 -2.3038,1.1475 -3.87,1.1475 l 0.125,-1.25 c 0.7437,-0.0163 1.6187,-0.1125 2.25,-0.53125 2.0712,-1.375 2.0862,-5.19 0.8,-7.09375 -1.7588,-2.603755 -5.6788,-2.502505 -8.3,-1.443755 -0.9188,0.37125 -1.7513,0.92625 -2.5,1.568755 1.3087,-0.24626 1.0025,-0.2525 2.375,-0.25 1.1137,10e-4 2.265,0.18999 3.25,0.73749 2.18,1.21251 2.7025,4.05375 1.9125,6.26251 -0.5338,1.4925 -1.625,2.14125 -3.1625,2.125 -0.5225,-0.006 -0.9038,-0.0462 -1.375,-0.30125 -0.6113,-0.33374 -1.0663,-0.92 -1.5,-1.44875 -1.1175,2.27625 -3.8738,2.18622 -5.0988,0.86374 -0.8237,-0.89 -0.5812,-1.65375 -1.0262,-2.61374 l -0.125,0.375 -1.25,-0.625 c 0.6037,-1.07376 2.2825,-3.20875 3.1362,-4.125 0.4088,-0.44 1.3013,-1.08876 1.15,-1.750005 -0.2287,-1.00875 -1.61,-1.5625 -2.34,-0.7225 -0.5012,0.57875 -0.2862,1.415005 -0.1962,2.095005 -0.3075,0.0275 -0.935,0.17125 -1.1638,0 -0.61,-0.42 -0.3237,-2.228755 0,-2.745005 0.98,-1.466247 4.2038,-1.576247 4.7888,0.8725 z m -100.373899,-0.375 c -0.815,0.7175 -0.8925,1.601255 -0.875,2.625015 0.01,0.29375 -0.019,0.64875 0.2887,0.79999 0.1663,0.0813 0.5263,0.0775 0.7113,0.0637 1.0512,-0.0837 1.17,-0.905 0.7937,-1.73874 z m 137.878899,0.0538 c -0.7563,0.33125 -0.95,1.222505 -0.2388,1.728755 0.4138,0.295 1.1438,0.2425 1.6088,0.1 0.9637,-0.295 0.7837,-1.056245 0.1187,-1.578745 -0.4525,-0.355 -0.9525,-0.3325 -1.4887,-0.25 z m -17.13,0.10875 c -4.1075,0.77625 -4.55,5.648755 -2.6913,7.691255 1.2838,1.4125 3.4363,1.505 5.1913,1.25 1.7875,-0.26 3.28,-1.5325 3.605,-3.35375 v -1.5 c 0.01,-0.95125 -0.2188,-1.74251 -0.815,-2.49875 -1.275,-1.613755 -3.3925,-1.777505 -5.29,-1.588755 z M 84.528851,101.27737 c -1.7188,0 -4.28,-0.2325 -5.75,0.68375 -1.3375,0.83375 -1.6375,2.86125 -0.865,4.19126 0.2462,0.42375 0.7025,0.84625 1.115,1.10875 0.9475,0.60125 2.6375,0.77125 3.75,0.76625 l 1.75,-0.125 z m 105.498899,3.62498 c 0,0.74751 -0.045,1.17126 0.2912,1.875 0.6425,1.34625 2.4475,1.66375 3.41,0.49501 0.5863,-0.71251 0.6488,-1.99376 0.4913,-2.87001 -0.4913,-2.71748 -2.9125,-3.02624 -5.1925,-2.99998 -0.655,0.007 -2.1963,0.20874 -2.7488,0.5175 -0.6537,0.36499 -2.0525,2.25249 -2.2512,2.98248 h 0.5 c 0,0.70001 -0.012,1.63376 0.3762,2.24501 0.5775,0.90874 2.1563,1.08626 2.9725,0.42374 0.4263,-0.34624 0.6575,-1.015 0.7388,-1.54375 0.053,-0.34125 0,-0.77875 0.3262,-0.9975 0.245,-0.1625 0.7913,-0.1275 1.0863,-0.1275 z m 185.7457,1.95751 c 2.0438,-0.31874 1.8288,2.64751 0.1225,2.38751 -1.0375,-0.15875 -1.315,-1.86625 -0.1225,-2.38751 z"
     style="fill:#000000;fill-opacity:1;stroke:none" />
  <g
     id="g1236"
     style="stroke-width:0.529167;stroke-miterlimit:4;stroke-dasharray:none"
     transform="matrix(2.6841595,0,0,2.6841595,104.83125,78.786348)">
    <path
       id="path1159"
       style="fill:none;fill-rule:evenodd;stroke:#009900;stroke-width:0.529167;stroke-linecap:round;stroke-linejoin:round;stroke-miterlimit:4;stroke-dasharray:none;stroke-dashoffset:1.8;stroke-opacity:1"
       d="M 10.201979,10.517715 A 3.587396,1.1041246 0 0 1 6.6145833,11.62184 3.587396,1.1041246 0 0 1 3.0271876,10.517715 3.587396,1.1041246 0 0 1 6.6145833,9.4135916 3.587396,1.1041246 0 0 1 10.201979,10.517715 Z" />
    <path
       id="path1163"
       style="fill:none;fill-rule:evenodd;stroke:#009900;stroke-width:0.529167;stroke-linecap:round;stroke-linejoin:round;stroke-miterlimit:4;stroke-dasharray:none;stroke-dashoffset:1.8;stroke-opacity:1"
       d="M 10.201979,9.4593816 A 3.587396,1.1041246 0 0 1 6.6145833,10.563506 3.587396,1.1041246 0 0 1 3.0271876,9.4593816 3.587396,1.1041246 0 0 1 6.6145833,8.3552582 3.587396,1.1041246 0 0 1 10.201979,9.4593816 Z" />
    <path
       id="path1167"
       style="fill:none;fill-rule:evenodd;stroke:#009900;stroke-width:0.529167;stroke-linecap:round;stroke-linejoin:round;stroke-miterlimit:4;stroke-dasharray:none;stroke-dashoffset:1.8;stroke-opacity:1"
       d="M 10.201979,8.4010482 A 3.587396,1.1041246 0 0 1 6.6145833,9.5051723 3.587396,1.1041246 0 0 1 3.0271876,8.4010482 3.587396,1.1041246 0 0 1 6.6145833,7.2969248 3.587396,1.1041246 0 0 1 10.201979,8.4010482 Z" />
    <path
       id="path1171"
       style="fill:none;fill-rule:evenodd;stroke:#009900;stroke-width:0.529167;stroke-linecap:round;stroke-linejoin:round;stroke-miterlimit:4;stroke-dasharray:none;stroke-dashoffset:1.8;stroke-opacity:1"
       d="M 10.201979,7.3427148 A 3.587396,1.1041246 0 0 1 6.6145833,8.4468389 3.587396,1.1041246 0 0 1 3.0271876,7.3427148 3.587396,1.1041246 0 0 1 6.6145833,6.2385914 3.587396,1.1041246 0 0 1 10.201979,7.3427148 Z" />
    <path
       id="path1175"
       style="fill:none;fill-rule:evenodd;stroke:#009900;stroke-width:0.529167;stroke-linecap:round;stroke-linejoin:round;stroke-miterlimit:4;stroke-dasharray:none;stroke-dashoffset:1.8;stroke-opacity:1"
       d="M 10.201979,6.2843814 A 3.587396,1.1041246 0 0 1 6.6145833,7.3885055 3.587396,1.1041246 0 0 1 3.0271876,6.2843814 3.587396,1.1041246 0 0 1 6.6145833,5.180258 3.587396,1.1041246 0 0 1 10.201979,6.2843814 Z" />
    <path
       id="path1221"
       style="fill:none;fill-rule:evenodd;stroke:#009900;stroke-width:0.529167;stroke-linecap:round;stroke-linejoin:round;stroke-miterlimit:4;stroke-dasharray:none;stroke-dashoffset:1.8;stroke-opacity:1"
       d="M 10.201979,11.576049 A 3.587396,1.1041246 0 0 1 6.6145833,12.680174 3.587396,1.1041246 0 0 1 3.0271876,11.576049 3.587396,1.1041246 0 0 1 6.6145833,10.471925 3.587396,1.1041246 0 0 1 10.201979,11.576049 Z" />
  </g>
  <g
     aria-label="➡︎⬅︎➡︎⬅︎➡︎➡︎➡︎ "
     id="text1506"
     style="font-weight:600;font-size:17.9991px;line-height:1.25;font-family:'Hiragino Kaku Gothic Pro';-inkscape-font-specification:'Hiragino Kaku Gothic Pro, Semi-Bold';stroke-width:0.187492"
     transform="translate(0,8.999565)">
    <path
       d="m 246.03153,91.601478 v 5.147742 h 9.39553 v 4.0318 l 6.73166,-6.605671 -6.73166,-6.605669 v 4.031798 z"
       style="font-size:17.9991px;stroke-width:0.187492"
       id="path908" />
    <path
       d="M 279.94183,96.74922 V 91.601478 H 270.5283 V 87.56968 l -6.73166,6.605669 6.73166,6.605671 v -4.0318 z"
       style="font-size:17.9991px;stroke-width:0.187492"
       id="path910" />
    <path
       d="m 282.02973,91.601478 v 5.147742 h 9.39553 v 4.0318 l 6.73166,-6.605671 -6.73166,-6.605669 v 4.031798 z"
       style="font-size:17.9991px;stroke-width:0.187492"
       id="path912" />
    <path
       d="M 315.94003,96.74922 V 91.601478 H 306.5265 V 87.56968 l -6.73166,6.605669 6.73166,6.605671 v -4.0318 z"
       style="font-size:17.9991px;stroke-width:0.187492"
       id="path914" />
    <path
       d="m 318.02793,91.601478 v 5.147742 h 9.39553 v 4.0318 l 6.73166,-6.605671 -6.73166,-6.605669 v 4.031798 z"
       style="font-size:17.9991px;stroke-width:0.187492"
       id="path916" />
    <path
       d="m 336.02703,91.601478 v 5.147742 h 9.39553 v 4.0318 l 6.73166,-6.605671 -6.73166,-6.605669 v 4.031798 z"
       style="font-size:17.9991px;stroke-width:0.187492"
       id="path918" />
    <path
       d="m 354.02613,91.601478 v 5.147742 h 9.39553 v 4.0318 l 6.73166,-6.605671 -6.73166,-6.605669 v 4.031798 z"
       style="font-size:17.9991px;stroke-width:0.187492"
       id="path920" />
  </g>
</svg>
