<?xml version="1.0" encoding="UTF-8" standalone="no"?>
<svg
   xmlns:dc="http://purl.org/dc/elements/1.1/"
   xmlns:cc="http://creativecommons.org/ns#"
   xmlns:rdf="http://www.w3.org/1999/02/22-rdf-syntax-ns#"
   xmlns:svg="http://www.w3.org/2000/svg"
   xmlns="http://www.w3.org/2000/svg"
   xmlns:sodipodi="http://sodipodi.sourceforge.net/DTD/sodipodi-0.dtd"
   xmlns:inkscape="http://www.inkscape.org/namespaces/inkscape"
   width="6mm"
   height="7mm"
   viewBox="0 0 5.9999997 7.0000002"
   version="1.1"
   id="svg8"
   inkscape:version="1.0.1 (c497b03c, 2020-09-10)"
   sodipodi:docname="number9.svg">
  <defs
     id="defs2">
    <inkscape:path-effect
       effect="bend_path"
       id="path-effect1021"
       is_visible="true"
       lpeversion="1"
       bendpath="m 109.03005,114.67964 c 0,0 6.65776,0 9.98663,0 3.32888,0 9.98664,0 9.98664,0"
       prop_scale="0.97821853"
       scale_y_rel="false"
       vertical="true"
       hide_knot="false"
       bendpath-nodetypes="czc" />
    <inkscape:path-effect
       effect="bend_path"
       id="path-effect984"
       is_visible="true"
       lpeversion="1"
       bendpath="m 109.03005,114.67964 h 19.6388"
       prop_scale="1.0993646"
       scale_y_rel="false"
       vertical="true"
       hide_knot="false"
       bendpath-nodetypes="cc" />
  </defs>
  <sodipodi:namedview
     id="base"
     pagecolor="#ffffff"
     bordercolor="#666666"
     borderopacity="1.0"
     inkscape:pageopacity="0.0"
     inkscape:pageshadow="2"
     inkscape:zoom="6.3284687"
     inkscape:cx="42.248196"
     inkscape:cy="25.494034"
     inkscape:document-units="mm"
     inkscape:current-layer="layer1"
     inkscape:document-rotation="0"
     showgrid="false"
     fit-margin-top="0"
     fit-margin-left="0"
     fit-margin-right="0"
     fit-margin-bottom="0"
     inkscape:window-width="1440"
     inkscape:window-height="697"
     inkscape:window-x="0"
     inkscape:window-y="25"
     inkscape:window-maximized="0" />
  <metadata
     id="metadata5">
    <rdf:RDF>
      <cc:Work
         rdf:about="">
        <dc:format>image/svg+xml</dc:format>
        <dc:type
           rdf:resource="http://purl.org/dc/dcmitype/StillImage" />
        <dc:title></dc:title>
      </cc:Work>
    </rdf:RDF>
  </metadata>
  <g
     inkscape:label="レイヤー 1"
     inkscape:groupmode="layer"
     id="layer1"
     transform="translate(-109.01665,-105.52823)">
    <g
       aria-label="9"
       id="text933"
       style="font-weight:600;font-size:8.46667px;line-height:1.25;font-family:'Hiragino Kaku Gothic Pro';-inkscape-font-specification:'Hiragino Kaku Gothic Pro, Semi-Bold';stroke-width:0.264583"
       transform="translate(0.659005,0.079465)">
      <path
         d="m 112.95365,108.89797 c 0,1.38853 -0.36406,2.77707 -1.66793,2.77707 -0.762,0 -1.0668,-0.34714 -1.27,-0.74507 -0.0677,-0.127 -0.18627,-0.18627 -0.31327,-0.18627 -0.0762,0 -0.1524,0.0169 -0.22013,0.0508 -0.14394,0.0677 -0.24554,0.19474 -0.24554,0.33867 0,0.0508 0.008,0.11007 0.0423,0.16087 0.26246,0.56726 0.8382,1.07526 1.96427,1.07526 1.651,0 2.45533,-1.22766 2.45533,-3.59833 0,-2.15054 -0.93133,-3.24274 -2.413,-3.24274 -1.4478,0 -2.26907,0.94827 -2.26907,2.24367 0,1.3208 0.89747,2.1844 2.15053,2.1844 0.85514,0 1.43934,-0.39793 1.78647,-1.05833 z m -1.65946,-2.68394 c 0.889,0 1.49013,0.66887 1.49013,1.56634 0,0.85513 -0.635,1.4986 -1.51553,1.4986 -0.86361,0 -1.46474,-0.5842 -1.46474,-1.524 0,-0.90594 0.57573,-1.54094 1.49014,-1.54094 z"
         style="font-style:normal;font-variant:normal;font-weight:normal;font-stretch:normal;font-size:8.46667px;font-family:'Hiragino Maru Gothic Pro';-inkscape-font-specification:'Hiragino Maru Gothic Pro, Normal';font-variant-ligatures:normal;font-variant-caps:normal;font-variant-numeric:normal;font-variant-east-asian:normal;stroke-width:0.264583"
         id="path1103" />
    </g>
  </g>
</svg>
