<?xml version="1.0" encoding="UTF-8" standalone="no"?>
<svg
   xmlns:dc="http://purl.org/dc/elements/1.1/"
   xmlns:cc="http://creativecommons.org/ns#"
   xmlns:rdf="http://www.w3.org/1999/02/22-rdf-syntax-ns#"
   xmlns:svg="http://www.w3.org/2000/svg"
   xmlns="http://www.w3.org/2000/svg"
   xmlns:sodipodi="http://sodipodi.sourceforge.net/DTD/sodipodi-0.dtd"
   xmlns:inkscape="http://www.inkscape.org/namespaces/inkscape"
   width="6mm"
   height="7mm"
   viewBox="0 0 5.9999998 7.0000003"
   version="1.1"
   id="svg8"
   inkscape:version="1.0.1 (c497b03c, 2020-09-10)"
   sodipodi:docname="number5.svg">
  <defs
     id="defs2">
    <inkscape:path-effect
       effect="bend_path"
       id="path-effect1021"
       is_visible="true"
       lpeversion="1"
       bendpath="m 109.03005,114.67964 c 0,0 6.65776,0 9.98663,0 3.32888,0 9.98664,0 9.98664,0"
       prop_scale="0.97821853"
       scale_y_rel="false"
       vertical="true"
       hide_knot="false"
       bendpath-nodetypes="czc" />
    <inkscape:path-effect
       effect="bend_path"
       id="path-effect984"
       is_visible="true"
       lpeversion="1"
       bendpath="m 109.03005,114.67964 h 19.6388"
       prop_scale="1.0993646"
       scale_y_rel="false"
       vertical="true"
       hide_knot="false"
       bendpath-nodetypes="cc" />
  </defs>
  <sodipodi:namedview
     id="base"
     pagecolor="#ffffff"
     bordercolor="#666666"
     borderopacity="1.0"
     inkscape:pageopacity="0.0"
     inkscape:pageshadow="2"
     inkscape:zoom="6.3284687"
     inkscape:cx="42.984207"
     inkscape:cy="25.336012"
     inkscape:document-units="mm"
     inkscape:current-layer="layer1"
     inkscape:document-rotation="0"
     showgrid="false"
     fit-margin-top="0"
     fit-margin-left="0"
     fit-margin-right="0"
     fit-margin-bottom="0"
     inkscape:window-width="1440"
     inkscape:window-height="697"
     inkscape:window-x="0"
     inkscape:window-y="25"
     inkscape:window-maximized="0" />
  <metadata
     id="metadata5">
    <rdf:RDF>
      <cc:Work
         rdf:about="">
        <dc:format>image/svg+xml</dc:format>
        <dc:type
           rdf:resource="http://purl.org/dc/dcmitype/StillImage" />
        <dc:title></dc:title>
      </cc:Work>
    </rdf:RDF>
  </metadata>
  <g
     inkscape:label="レイヤー 1"
     inkscape:groupmode="layer"
     id="layer1"
     transform="translate(-108.82192,-105.57005)">
    <g
       aria-label="5"
       id="text933"
       style="font-weight:600;font-size:8.46667px;line-height:1.25;font-family:'Hiragino Kaku Gothic Pro';-inkscape-font-specification:'Hiragino Kaku Gothic Pro, Semi-Bold';stroke-width:0.264583"
       transform="translate(0.42187,0.05402)">
      <path
         d="m 109.27912,109.0673 c 0,0.0254 0,0.0508 0,0.0677 0,0.22013 0.14393,0.3302 0.34713,0.34713 0.0339,0.008 0.0593,0.008 0.0847,0.008 0.18626,0 0.28786,-0.0762 0.39793,-0.24554 0.26247,-0.4064 0.67733,-0.64346 1.27,-0.64346 0.8636,0 1.4224,0.57573 1.4224,1.4986 0,0.93133 -0.59266,1.55786 -1.4986,1.55786 -0.6604,0 -1.12607,-0.31326 -1.35467,-0.7874 -0.0762,-0.1524 -0.19473,-0.21166 -0.32173,-0.21166 -0.0762,0 -0.1524,0.0169 -0.2286,0.0593 -0.127,0.0677 -0.22013,0.19474 -0.22013,0.34714 0,0.0593 0.0169,0.127 0.0508,0.19473 0.36406,0.70273 1.0668,1.1176 2.1082,1.1176 1.38853,0 2.286,-0.94827 2.286,-2.3114 0,-1.30387 -0.84667,-2.15053 -2.1336,-2.15053 -0.62654,0 -1.0922,0.18626 -1.46474,0.5842 0.0339,-0.127 0.0593,-0.2794 0.0762,-0.38947 l 0.16087,-1.5748 c 0.008,-0.1016 0.0593,-0.1524 0.16933,-0.1524 h 2.62467 c 0.18627,0 0.3048,-0.16087 0.3048,-0.36407 0,-0.2032 -0.11006,-0.36407 -0.3048,-0.36407 h -2.90407 c -0.36406,0 -0.55033,0.19474 -0.59266,0.55034 z"
         style="font-style:normal;font-variant:normal;font-weight:normal;font-stretch:normal;font-size:8.46667px;font-family:'Hiragino Maru Gothic Pro';-inkscape-font-specification:'Hiragino Maru Gothic Pro, Normal';font-variant-ligatures:normal;font-variant-caps:normal;font-variant-numeric:normal;font-variant-east-asian:normal;stroke-width:0.264583"
         id="path1019" />
    </g>
  </g>
</svg>
