<?xml version="1.0" encoding="UTF-8" standalone="no"?>
<svg
   xmlns:dc="http://purl.org/dc/elements/1.1/"
   xmlns:cc="http://creativecommons.org/ns#"
   xmlns:rdf="http://www.w3.org/1999/02/22-rdf-syntax-ns#"
   xmlns:svg="http://www.w3.org/2000/svg"
   xmlns="http://www.w3.org/2000/svg"
   xmlns:sodipodi="http://sodipodi.sourceforge.net/DTD/sodipodi-0.dtd"
   xmlns:inkscape="http://www.inkscape.org/namespaces/inkscape"
   width="6mm"
   height="7mm"
   viewBox="0 0 5.9999998 7.0000003"
   version="1.1"
   id="svg8"
   inkscape:version="1.0.1 (c497b03c, 2020-09-10)"
   sodipodi:docname="number6.svg">
  <defs
     id="defs2">
    <inkscape:path-effect
       effect="bend_path"
       id="path-effect1021"
       is_visible="true"
       lpeversion="1"
       bendpath="m 109.03005,114.67964 c 0,0 6.65776,0 9.98663,0 3.32888,0 9.98664,0 9.98664,0"
       prop_scale="0.97821853"
       scale_y_rel="false"
       vertical="true"
       hide_knot="false"
       bendpath-nodetypes="czc" />
    <inkscape:path-effect
       effect="bend_path"
       id="path-effect984"
       is_visible="true"
       lpeversion="1"
       bendpath="m 109.03005,114.67964 h 19.6388"
       prop_scale="1.0993646"
       scale_y_rel="false"
       vertical="true"
       hide_knot="false"
       bendpath-nodetypes="cc" />
  </defs>
  <sodipodi:namedview
     id="base"
     pagecolor="#ffffff"
     bordercolor="#666666"
     borderopacity="1.0"
     inkscape:pageopacity="0.0"
     inkscape:pageshadow="2"
     inkscape:zoom="6.3284687"
     inkscape:cx="41.896217"
     inkscape:cy="25.494056"
     inkscape:document-units="mm"
     inkscape:current-layer="layer1"
     inkscape:document-rotation="0"
     showgrid="false"
     fit-margin-top="0"
     fit-margin-left="0"
     fit-margin-right="0"
     fit-margin-bottom="0"
     inkscape:window-width="1440"
     inkscape:window-height="697"
     inkscape:window-x="0"
     inkscape:window-y="25"
     inkscape:window-maximized="0" />
  <metadata
     id="metadata5">
    <rdf:RDF>
      <cc:Work
         rdf:about="">
        <dc:format>image/svg+xml</dc:format>
        <dc:type
           rdf:resource="http://purl.org/dc/dcmitype/StillImage" />
        <dc:title></dc:title>
      </cc:Work>
    </rdf:RDF>
  </metadata>
  <g
     inkscape:label="レイヤー 1"
     inkscape:groupmode="layer"
     id="layer1"
     transform="translate(-109.10978,-105.52823)">
    <g
       aria-label="6"
       id="text933"
       style="font-weight:600;font-size:8.46667px;line-height:1.25;font-family:'Hiragino Kaku Gothic Pro';-inkscape-font-specification:'Hiragino Kaku Gothic Pro, Semi-Bold';stroke-width:0.264583"
       transform="translate(0.66739,0.079505)">
      <path
         d="m 109.84638,109.00804 c 0.0423,-0.9398 0.127,-1.32927 0.3302,-1.80341 0.2794,-0.65193 0.762,-0.98213 1.38854,-0.98213 0.6858,0 1.02447,0.3048 1.22767,0.7874 0.0677,0.14393 0.18626,0.19473 0.31326,0.19473 0.0677,0 0.13547,-0.0169 0.19474,-0.0339 0.13546,-0.0508 0.254,-0.16934 0.254,-0.32174 0,-0.0508 -0.008,-0.1016 -0.0423,-0.16086 -0.3302,-0.69427 -0.90593,-1.15994 -1.91346,-1.15994 -1.67641,0 -2.48921,1.32927 -2.48921,3.53061 0,2.16746 0.9144,3.31046 2.44687,3.31046 1.3716,0 2.21827,-0.9652 2.21827,-2.26906 0,-1.30387 -0.84667,-2.159 -2.15053,-2.159 -0.80434,0 -1.43087,0.38946 -1.77801,1.0668 z m 1.71027,-0.38947 c 0.8636,0 1.43934,0.5842 1.43934,1.48167 0,0.93133 -0.57574,1.56633 -1.46474,1.56633 -0.85513,0 -1.4986,-0.65193 -1.4986,-1.54093 0,-0.8636 0.635,-1.50707 1.524,-1.50707 z"
         style="font-style:normal;font-variant:normal;font-weight:normal;font-stretch:normal;font-size:8.46667px;font-family:'Hiragino Maru Gothic Pro';-inkscape-font-specification:'Hiragino Maru Gothic Pro, Normal';font-variant-ligatures:normal;font-variant-caps:normal;font-variant-numeric:normal;font-variant-east-asian:normal;stroke-width:0.264583"
         id="path1040" />
    </g>
  </g>
</svg>
