<?xml version="1.0" encoding="UTF-8" standalone="no"?>
<svg
   xmlns:dc="http://purl.org/dc/elements/1.1/"
   xmlns:cc="http://creativecommons.org/ns#"
   xmlns:rdf="http://www.w3.org/1999/02/22-rdf-syntax-ns#"
   xmlns:svg="http://www.w3.org/2000/svg"
   xmlns="http://www.w3.org/2000/svg"
   xmlns:sodipodi="http://sodipodi.sourceforge.net/DTD/sodipodi-0.dtd"
   xmlns:inkscape="http://www.inkscape.org/namespaces/inkscape"
   width="6mm"
   height="7mm"
   viewBox="0 0 5.9999998 7.0000003"
   version="1.1"
   id="svg8"
   inkscape:version="1.0.1 (c497b03c, 2020-09-10)"
   sodipodi:docname="number3.svg">
  <defs
     id="defs2">
    <inkscape:path-effect
       effect="bend_path"
       id="path-effect1021"
       is_visible="true"
       lpeversion="1"
       bendpath="m 109.03005,114.67964 c 0,0 6.65776,0 9.98663,0 3.32888,0 9.98664,0 9.98664,0"
       prop_scale="0.97821853"
       scale_y_rel="false"
       vertical="true"
       hide_knot="false"
       bendpath-nodetypes="czc" />
    <inkscape:path-effect
       effect="bend_path"
       id="path-effect984"
       is_visible="true"
       lpeversion="1"
       bendpath="m 109.03005,114.67964 h 19.6388"
       prop_scale="1.0993646"
       scale_y_rel="false"
       vertical="true"
       hide_knot="false"
       bendpath-nodetypes="cc" />
  </defs>
  <sodipodi:namedview
     id="base"
     pagecolor="#ffffff"
     bordercolor="#666666"
     borderopacity="1.0"
     inkscape:pageopacity="0.0"
     inkscape:pageshadow="2"
     inkscape:zoom="6.3284687"
     inkscape:cx="42.828065"
     inkscape:cy="25.652059"
     inkscape:document-units="mm"
     inkscape:current-layer="layer1"
     inkscape:document-rotation="0"
     showgrid="false"
     fit-margin-top="0"
     fit-margin-left="0"
     fit-margin-right="0"
     fit-margin-bottom="0"
     inkscape:window-width="1440"
     inkscape:window-height="697"
     inkscape:window-x="0"
     inkscape:window-y="25"
     inkscape:window-maximized="0" />
  <metadata
     id="metadata5">
    <rdf:RDF>
      <cc:Work
         rdf:about="">
        <dc:format>image/svg+xml</dc:format>
        <dc:type
           rdf:resource="http://purl.org/dc/dcmitype/StillImage" />
        <dc:title></dc:title>
      </cc:Work>
    </rdf:RDF>
  </metadata>
  <g
     inkscape:label="レイヤー 1"
     inkscape:groupmode="layer"
     id="layer1"
     transform="translate(-108.86323,-105.48643)">
    <g
       aria-label="3"
       id="text933"
       style="font-weight:600;font-size:8.46667px;line-height:1.25;font-family:'Hiragino Kaku Gothic Pro';-inkscape-font-specification:'Hiragino Kaku Gothic Pro, Semi-Bold';stroke-width:0.264583"
       transform="translate(0.53941,-0.008385)">
      <path
         d="m 111.21798,109.23612 c 0.0169,0 0.0339,0 0.0508,0 1.00753,0 1.58326,0.4318 1.58326,1.23613 0,0.77894 -0.635,1.25307 -1.524,1.25307 -0.87207,0 -1.30387,-0.3302 -1.524,-0.88053 -0.0762,-0.16934 -0.19473,-0.24554 -0.34713,-0.24554 -0.0508,0 -0.11007,0.008 -0.16934,0.0254 -0.18626,0.0508 -0.3048,0.1778 -0.3048,0.33867 0,0.0508 0.008,0.1016 0.0339,0.1524 0.3048,0.77047 1.016,1.31233 2.29447,1.31233 1.4732,0 2.35373,-0.77046 2.35373,-1.88806 0,-0.97367 -0.47413,-1.55787 -1.45626,-1.69334 0.8382,-0.2032 1.25306,-0.74506 1.25306,-1.58327 0,-1.03293 -0.8382,-1.7018 -2.0828,-1.7018 -1.31233,0 -1.8796,0.61807 -2.1336,1.25307 -0.0254,0.0508 -0.0339,0.1016 -0.0339,0.1524 0,0.1524 0.11007,0.26247 0.27094,0.31327 0.0593,0.0169 0.127,0.0339 0.19473,0.0339 0.13547,0 0.254,-0.0593 0.32173,-0.21166 0.2032,-0.54187 0.59267,-0.85514 1.34621,-0.85514 0.8128,0 1.3208,0.39794 1.3208,1.07527 0,0.7366 -0.5334,1.18534 -1.38854,1.18534 -0.0254,0 -0.0508,0 -0.0677,0 l -0.4572,-0.0169 c -0.21167,-0.008 -0.32174,0.1778 -0.32174,0.37254 0,0.2032 0.11007,0.38946 0.32174,0.381 z"
         style="font-style:normal;font-variant:normal;font-weight:normal;font-stretch:normal;font-size:8.46667px;font-family:'Hiragino Maru Gothic Pro';-inkscape-font-specification:'Hiragino Maru Gothic Pro, Normal';font-variant-ligatures:normal;font-variant-caps:normal;font-variant-numeric:normal;font-variant-east-asian:normal;stroke-width:0.264583"
         id="path977" />
    </g>
  </g>
</svg>
