<?xml version="1.0" encoding="UTF-8" standalone="no"?>
<svg
   xmlns:dc="http://purl.org/dc/elements/1.1/"
   xmlns:cc="http://creativecommons.org/ns#"
   xmlns:rdf="http://www.w3.org/1999/02/22-rdf-syntax-ns#"
   xmlns:svg="http://www.w3.org/2000/svg"
   xmlns="http://www.w3.org/2000/svg"
   xmlns:sodipodi="http://sodipodi.sourceforge.net/DTD/sodipodi-0.dtd"
   xmlns:inkscape="http://www.inkscape.org/namespaces/inkscape"
   width="6mm"
   height="7mm"
   viewBox="0 0 5.9999998 7.0000003"
   version="1.1"
   id="svg8"
   inkscape:version="1.0.1 (c497b03c, 2020-09-10)"
   sodipodi:docname="number2.svg">
  <defs
     id="defs2">
    <inkscape:path-effect
       effect="bend_path"
       id="path-effect1021"
       is_visible="true"
       lpeversion="1"
       bendpath="m 109.03005,114.67964 c 0,0 6.65776,0 9.98663,0 3.32888,0 9.98664,0 9.98664,0"
       prop_scale="0.97821853"
       scale_y_rel="false"
       vertical="true"
       hide_knot="false"
       bendpath-nodetypes="czc" />
    <inkscape:path-effect
       effect="bend_path"
       id="path-effect984"
       is_visible="true"
       lpeversion="1"
       bendpath="m 109.03005,114.67964 h 19.6388"
       prop_scale="1.0993646"
       scale_y_rel="false"
       vertical="true"
       hide_knot="false"
       bendpath-nodetypes="cc" />
  </defs>
  <sodipodi:namedview
     id="base"
     pagecolor="#ffffff"
     bordercolor="#666666"
     borderopacity="1.0"
     inkscape:pageopacity="0.0"
     inkscape:pageshadow="2"
     inkscape:zoom="6.3284687"
     inkscape:cx="42.828065"
     inkscape:cy="25.652059"
     inkscape:document-units="mm"
     inkscape:current-layer="layer1"
     inkscape:document-rotation="0"
     showgrid="false"
     fit-margin-top="0"
     fit-margin-left="0"
     fit-margin-right="0"
     fit-margin-bottom="0"
     inkscape:window-width="1440"
     inkscape:window-height="697"
     inkscape:window-x="0"
     inkscape:window-y="25"
     inkscape:window-maximized="0" />
  <metadata
     id="metadata5">
    <rdf:RDF>
      <cc:Work
         rdf:about="">
        <dc:format>image/svg+xml</dc:format>
        <dc:type
           rdf:resource="http://purl.org/dc/dcmitype/StillImage" />
        <dc:title></dc:title>
      </cc:Work>
    </rdf:RDF>
  </metadata>
  <g
     inkscape:label="レイヤー 1"
     inkscape:groupmode="layer"
     id="layer1"
     transform="translate(-108.86323,-105.48643)">
    <g
       aria-label="2"
       id="text933"
       style="font-weight:600;font-size:8.46667px;line-height:1.25;font-family:'Hiragino Kaku Gothic Pro';-inkscape-font-specification:'Hiragino Kaku Gothic Pro, Semi-Bold';stroke-width:0.264583"
       transform="translate(0.57591,0.05958)">
      <path
         d="m 109.81409,111.54752 c 0.2032,-0.762 0.74507,-1.3208 1.68487,-1.91347 l 0.5588,-0.33866 c 0.77047,-0.4826 1.4224,-0.94827 1.4224,-1.98121 0,-1.07526 -0.82127,-1.74413 -2.1082,-1.74413 -0.82974,0 -1.36314,0.23707 -1.74414,0.6096 -0.28786,0.28787 -0.47413,0.66887 -0.5588,1.03293 -0.008,0.0423 -0.0169,0.0847 -0.0169,0.127 0,0.18627 0.13547,0.30481 0.32173,0.34714 0.0423,0.008 0.0847,0.008 0.127,0.008 0.16934,0 0.32174,-0.0762 0.37254,-0.26247 0.1524,-0.59267 0.46566,-1.15994 1.45626,-1.15994 0.79587,0 1.32081,0.38947 1.32081,1.016 0,0.64347 -0.35561,0.97367 -1.18534,1.51554 l -0.5842,0.381 c -0.79587,0.51647 -1.30387,1.0414 -1.60867,1.6256 -0.13546,0.24553 -0.32173,0.66887 -0.32173,0.9652 0,0.33867 0.18627,0.508 0.508,0.508 h 3.85234 c 0.2032,0 0.31326,-0.1778 0.31326,-0.381 0,-0.2032 -0.11006,-0.3556 -0.31326,-0.3556 z"
         style="font-style:normal;font-variant:normal;font-weight:normal;font-stretch:normal;font-size:8.46667px;font-family:'Hiragino Maru Gothic Pro';-inkscape-font-specification:'Hiragino Maru Gothic Pro, Normal';font-variant-ligatures:normal;font-variant-caps:normal;font-variant-numeric:normal;font-variant-east-asian:normal;stroke-width:0.264583"
         id="path956" />
    </g>
  </g>
</svg>
