<?xml version="1.0" encoding="UTF-8" standalone="no"?>
<svg
   xmlns:dc="http://purl.org/dc/elements/1.1/"
   xmlns:cc="http://creativecommons.org/ns#"
   xmlns:rdf="http://www.w3.org/1999/02/22-rdf-syntax-ns#"
   xmlns:svg="http://www.w3.org/2000/svg"
   xmlns="http://www.w3.org/2000/svg"
   xmlns:sodipodi="http://sodipodi.sourceforge.net/DTD/sodipodi-0.dtd"
   xmlns:inkscape="http://www.inkscape.org/namespaces/inkscape"
   width="50"
   height="50"
   viewBox="0 0 13.229166 13.229167"
   version="1.1"
   id="svg8"
   sodipodi:docname="time_travel_zone5.svg"
   inkscape:version="1.0.1 (c497b03c, 2020-09-10)">
  <sodipodi:namedview
     pagecolor="#ffffff"
     bordercolor="#666666"
     borderopacity="1"
     objecttolerance="10"
     gridtolerance="10"
     guidetolerance="10"
     inkscape:pageopacity="0"
     inkscape:pageshadow="2"
     inkscape:window-width="1162"
     inkscape:window-height="644"
     id="namedview1913"
     showgrid="false"
     inkscape:zoom="10.8"
     inkscape:cx="25"
     inkscape:cy="25"
     inkscape:window-x="0"
     inkscape:window-y="25"
     inkscape:window-maximized="0"
     inkscape:current-layer="svg8" />
  <defs
     id="defs2" />
  <metadata
     id="metadata5">
    <rdf:RDF>
      <cc:Work
         rdf:about="">
        <dc:format>image/svg+xml</dc:format>
        <dc:type
           rdf:resource="http://purl.org/dc/dcmitype/StillImage" />
        <dc:title />
      </cc:Work>
    </rdf:RDF>
  </metadata>
  <path
     id="rect843"
     style="fill:#69c4ff;fill-opacity:1;fill-rule:evenodd;stroke:none;stroke-width:0.179;stroke-linecap:round;stroke-linejoin:round;stroke-miterlimit:4;stroke-dasharray:none"
     d="m 2.8372963,10.229169 h 7.3229427 l 3.068928,2.999997 H -2.5000001e-7 Z"
     sodipodi:nodetypes="ccccc" />
  <g
     id="g1109"
     transform="matrix(1.482279,0,0,0.45621412,-3.1900745,10.484402)">
    <path
       id="path253"
       style="fill:none;fill-rule:evenodd;stroke:#009900;stroke-width:0.159621;stroke-linecap:round;stroke-linejoin:round;stroke-dashoffset:1.8;stroke-opacity:1"
       d="M 9.0347729,2.5 A 2.4201894,2.4201896 0 0 1 6.6145835,4.9201896 2.4201894,2.4201896 0 0 1 4.1943941,2.5 2.4201894,2.4201896 0 0 1 6.6145835,0.07981038 2.4201894,2.4201896 0 0 1 9.0347729,2.5 Z" />
    <path
       id="path1078"
       style="fill:#009900;fill-opacity:1;fill-rule:evenodd;stroke:none;stroke-width:0.1;stroke-linecap:round;stroke-linejoin:round;stroke-dashoffset:1.8;stroke-opacity:1"
       d="M 6.7766727,0.5236671 A 0.16208921,0.16208921 0 0 1 6.6145835,0.68575631 0.16208921,0.16208921 0 0 1 6.4524943,0.5236671 0.16208921,0.16208921 0 0 1 6.6145835,0.36157788 0.16208921,0.16208921 0 0 1 6.7766727,0.5236671 Z" />
    <path
       id="circle1080"
       style="fill:#009900;fill-opacity:1;fill-rule:evenodd;stroke:none;stroke-width:0.1;stroke-linecap:round;stroke-linejoin:round;stroke-dashoffset:1.8;stroke-opacity:1"
       d="M 6.7766727,4.4821477 A 0.16208921,0.16208921 0 0 1 6.6145835,4.6442369 0.16208921,0.16208921 0 0 1 6.4524943,4.4821477 0.16208921,0.16208921 0 0 1 6.6145835,4.3200585 0.16208921,0.16208921 0 0 1 6.7766727,4.4821477 Z" />
    <path
       id="circle1082"
       style="fill:#009900;fill-opacity:1;fill-rule:evenodd;stroke:none;stroke-width:0.1;stroke-linecap:round;stroke-linejoin:round;stroke-dashoffset:1.8;stroke-opacity:1"
       transform="rotate(90)"
       d="M 2.6649965,-8.5938234 A 0.16208921,0.16208921 0 0 1 2.5029073,-8.4317342 0.16208921,0.16208921 0 0 1 2.3408181,-8.5938234 0.16208921,0.16208921 0 0 1 2.5029073,-8.7559126 0.16208921,0.16208921 0 0 1 2.6649965,-8.5938234 Z" />
    <path
       id="circle1084"
       style="fill:#009900;fill-opacity:1;fill-rule:evenodd;stroke:none;stroke-width:0.1;stroke-linecap:round;stroke-linejoin:round;stroke-dashoffset:1.8;stroke-opacity:1"
       transform="rotate(90)"
       d="M 2.6649965,-4.6353431 A 0.16208921,0.16208921 0 0 1 2.5029073,-4.4732539 0.16208921,0.16208921 0 0 1 2.3408181,-4.6353431 0.16208921,0.16208921 0 0 1 2.5029073,-4.7974323 0.16208921,0.16208921 0 0 1 2.6649965,-4.6353431 Z" />
    <path
       id="circle1086"
       style="fill:#009900;fill-opacity:1;fill-rule:evenodd;stroke:none;stroke-width:0.1;stroke-linecap:round;stroke-linejoin:round;stroke-dashoffset:1.8;stroke-opacity:1"
       transform="rotate(135)"
       d="M -2.7453047,-8.42628 A 0.16208921,0.16208921 0 0 1 -2.9073939,-8.2641908 0.16208921,0.16208921 0 0 1 -3.0694831,-8.42628 0.16208921,0.16208921 0 0 1 -2.9073939,-8.5883692 0.16208921,0.16208921 0 0 1 -2.7453047,-8.42628 Z" />
    <path
       id="circle1088"
       style="fill:#009900;fill-opacity:1;fill-rule:evenodd;stroke:none;stroke-width:0.1;stroke-linecap:round;stroke-linejoin:round;stroke-dashoffset:1.8;stroke-opacity:1"
       transform="rotate(135)"
       d="m -2.7453047,-4.4677992 a 0.16208921,0.16208921 0 0 1 -0.1620892,0.1620892 0.16208921,0.16208921 0 0 1 -0.1620892,-0.1620892 0.16208921,0.16208921 0 0 1 0.1620892,-0.1620892 0.16208921,0.16208921 0 0 1 0.1620892,0.1620892 z" />
    <path
       id="circle1090"
       style="fill:#009900;fill-opacity:1;fill-rule:evenodd;stroke:none;stroke-width:0.1;stroke-linecap:round;stroke-linejoin:round;stroke-dashoffset:1.8;stroke-opacity:1"
       transform="rotate(-135)"
       d="M -6.2849504,0.92815351 A 0.16208921,0.16208921 0 0 1 -6.4470396,1.0902427 0.16208921,0.16208921 0 0 1 -6.6091288,0.92815351 0.16208921,0.16208921 0 0 1 -6.4470396,0.7660643 0.16208921,0.16208921 0 0 1 -6.2849504,0.92815351 Z" />
    <path
       id="circle1092"
       style="fill:#009900;fill-opacity:1;fill-rule:evenodd;stroke:none;stroke-width:0.1;stroke-linecap:round;stroke-linejoin:round;stroke-dashoffset:1.8;stroke-opacity:1"
       transform="rotate(-135)"
       d="M -6.2849504,4.8866343 A 0.16208921,0.16208921 0 0 1 -6.4470396,5.0487236 0.16208921,0.16208921 0 0 1 -6.6091288,4.8866343 0.16208921,0.16208921 0 0 1 -6.4470396,4.7245451 0.16208921,0.16208921 0 0 1 -6.2849504,4.8866343 Z" />
    <path
       style="fill:none;stroke:#009900;stroke-width:0.1;stroke-linecap:round;stroke-linejoin:miter;stroke-miterlimit:4;stroke-dasharray:none;stroke-opacity:1"
       d="M 6.6030117,1.3427156 V 3.6469657"
       id="path1094" />
    <path
       style="fill:none;stroke:#009900;stroke-width:0.1;stroke-linecap:round;stroke-linejoin:miter;stroke-miterlimit:4;stroke-dasharray:none;stroke-opacity:1"
       d="M 7.7551367,2.4948406 H 5.4508866"
       id="path1096" />
  </g>
  <g
     id="g1236"
     style="stroke-width:0.529167;stroke-miterlimit:4;stroke-dasharray:none"
     transform="translate(0,-0.5)">
    <path
       id="path1159"
       style="fill:none;fill-rule:evenodd;stroke:#009900;stroke-width:0.529167;stroke-linecap:round;stroke-linejoin:round;stroke-miterlimit:4;stroke-dasharray:none;stroke-dashoffset:1.8;stroke-opacity:1"
       d="M 10.201979,10.517715 A 3.587396,1.1041246 0 0 1 6.6145833,11.62184 3.587396,1.1041246 0 0 1 3.0271876,10.517715 3.587396,1.1041246 0 0 1 6.6145833,9.4135916 3.587396,1.1041246 0 0 1 10.201979,10.517715 Z" />
    <path
       id="path1163"
       style="fill:none;fill-rule:evenodd;stroke:#009900;stroke-width:0.529167;stroke-linecap:round;stroke-linejoin:round;stroke-miterlimit:4;stroke-dasharray:none;stroke-dashoffset:1.8;stroke-opacity:1"
       d="M 10.201979,9.4593816 A 3.587396,1.1041246 0 0 1 6.6145833,10.563506 3.587396,1.1041246 0 0 1 3.0271876,9.4593816 3.587396,1.1041246 0 0 1 6.6145833,8.3552582 3.587396,1.1041246 0 0 1 10.201979,9.4593816 Z" />
    <path
       id="path1167"
       style="fill:none;fill-rule:evenodd;stroke:#009900;stroke-width:0.529167;stroke-linecap:round;stroke-linejoin:round;stroke-miterlimit:4;stroke-dasharray:none;stroke-dashoffset:1.8;stroke-opacity:1"
       d="M 10.201979,8.4010482 A 3.587396,1.1041246 0 0 1 6.6145833,9.5051723 3.587396,1.1041246 0 0 1 3.0271876,8.4010482 3.587396,1.1041246 0 0 1 6.6145833,7.2969248 3.587396,1.1041246 0 0 1 10.201979,8.4010482 Z" />
    <path
       id="path1171"
       style="fill:none;fill-rule:evenodd;stroke:#009900;stroke-width:0.529167;stroke-linecap:round;stroke-linejoin:round;stroke-miterlimit:4;stroke-dasharray:none;stroke-dashoffset:1.8;stroke-opacity:1"
       d="M 10.201979,7.3427148 A 3.587396,1.1041246 0 0 1 6.6145833,8.4468389 3.587396,1.1041246 0 0 1 3.0271876,7.3427148 3.587396,1.1041246 0 0 1 6.6145833,6.2385914 3.587396,1.1041246 0 0 1 10.201979,7.3427148 Z" />
    <path
       id="path1175"
       style="fill:none;fill-rule:evenodd;stroke:#009900;stroke-width:0.529167;stroke-linecap:round;stroke-linejoin:round;stroke-miterlimit:4;stroke-dasharray:none;stroke-dashoffset:1.8;stroke-opacity:1"
       d="M 10.201979,6.2843814 A 3.587396,1.1041246 0 0 1 6.6145833,7.3885055 3.587396,1.1041246 0 0 1 3.0271876,6.2843814 3.587396,1.1041246 0 0 1 6.6145833,5.180258 3.587396,1.1041246 0 0 1 10.201979,6.2843814 Z" />
    <path
       id="path1221"
       style="fill:none;fill-rule:evenodd;stroke:#009900;stroke-width:0.529167;stroke-linecap:round;stroke-linejoin:round;stroke-miterlimit:4;stroke-dasharray:none;stroke-dashoffset:1.8;stroke-opacity:1"
       d="M 10.201979,11.576049 A 3.587396,1.1041246 0 0 1 6.6145833,12.680174 3.587396,1.1041246 0 0 1 3.0271876,11.576049 3.587396,1.1041246 0 0 1 6.6145833,10.471925 3.587396,1.1041246 0 0 1 10.201979,11.576049 Z" />
  </g>
</svg>
