<?xml version="1.0" encoding="UTF-8" standalone="no"?>
<svg
   xmlns:dc="http://purl.org/dc/elements/1.1/"
   xmlns:cc="http://creativecommons.org/ns#"
   xmlns:rdf="http://www.w3.org/1999/02/22-rdf-syntax-ns#"
   xmlns:svg="http://www.w3.org/2000/svg"
   xmlns="http://www.w3.org/2000/svg"
   xmlns:sodipodi="http://sodipodi.sourceforge.net/DTD/sodipodi-0.dtd"
   xmlns:inkscape="http://www.inkscape.org/namespaces/inkscape"
   width="15.9143mm"
   height="18.830246mm"
   viewBox="0 0 15.914299 18.830246"
   version="1.1"
   id="svg8"
   inkscape:version="1.0.1 (c497b03c, 2020-09-10)"
   sodipodi:docname="time_frame.svg">
  <defs
     id="defs2">
    <marker
       style="overflow:visible"
       id="marker1357"
       refX="0"
       refY="0"
       orient="auto"
       inkscape:stockid="Arrow1Send"
       inkscape:isstock="true">
      <path
         transform="matrix(-0.2,0,0,-0.2,-1.2,0)"
         style="fill:#bfbfbf;fill-opacity:1;fill-rule:evenodd;stroke:#bfbfbf;stroke-width:1pt;stroke-opacity:1"
         d="M 0,0 5,-5 -12.5,0 5,5 Z"
         id="path1355" />
    </marker>
    <marker
       style="overflow:visible"
       id="Tail"
       refX="0"
       refY="0"
       orient="auto"
       inkscape:stockid="Tail"
       inkscape:isstock="true">
      <g
         transform="scale(-1.2)"
         id="g959"
         style="fill:#000000;fill-opacity:1;stroke:#000000;stroke-opacity:1">
        <path
           style="fill:#000000;fill-opacity:1;fill-rule:evenodd;stroke:#000000;stroke-width:0.8;stroke-linecap:round;stroke-opacity:1"
           d="M -3.8048674,-3.9585227 0.54352094,0"
           id="path947" />
        <path
           style="fill:#000000;fill-opacity:1;fill-rule:evenodd;stroke:#000000;stroke-width:0.8;stroke-linecap:round;stroke-opacity:1"
           d="M -1.2866832,-3.9585227 3.0617053,0"
           id="path949" />
        <path
           style="fill:#000000;fill-opacity:1;fill-rule:evenodd;stroke:#000000;stroke-width:0.8;stroke-linecap:round;stroke-opacity:1"
           d="M 1.3053582,-3.9585227 5.6537466,0"
           id="path951" />
        <path
           style="fill:#000000;fill-opacity:1;fill-rule:evenodd;stroke:#000000;stroke-width:0.8;stroke-linecap:round;stroke-opacity:1"
           d="M -3.8048674,4.1775838 0.54352094,0.21974226"
           id="path953" />
        <path
           style="fill:#000000;fill-opacity:1;fill-rule:evenodd;stroke:#000000;stroke-width:0.8;stroke-linecap:round;stroke-opacity:1"
           d="M -1.2866832,4.1775838 3.0617053,0.21974226"
           id="path955" />
        <path
           style="fill:#000000;fill-opacity:1;fill-rule:evenodd;stroke:#000000;stroke-width:0.8;stroke-linecap:round;stroke-opacity:1"
           d="M 1.3053582,4.1775838 5.6537466,0.21974226"
           id="path957" />
      </g>
    </marker>
    <marker
       style="overflow:visible"
       id="Arrow1Send"
       refX="0"
       refY="0"
       orient="auto"
       inkscape:stockid="Arrow1Send"
       inkscape:isstock="true"
       inkscape:collect="always">
      <path
         transform="matrix(-0.2,0,0,-0.2,-1.2,0)"
         style="fill:#bfbfbf;fill-opacity:1;fill-rule:evenodd;stroke:#bfbfbf;stroke-width:1pt;stroke-opacity:1"
         d="M 0,0 5,-5 -12.5,0 5,5 Z"
         id="path926" />
    </marker>
    <marker
       style="overflow:visible"
       id="Arrow1Lend"
       refX="0"
       refY="0"
       orient="auto"
       inkscape:stockid="Arrow1Lend"
       inkscape:isstock="true">
      <path
         transform="matrix(-0.8,0,0,-0.8,-10,0)"
         style="fill:#000000;fill-opacity:1;fill-rule:evenodd;stroke:#000000;stroke-width:1pt;stroke-opacity:1"
         d="M 0,0 5,-5 -12.5,0 5,5 Z"
         id="path914" />
    </marker>
    <inkscape:path-effect
       effect="bend_path"
       id="path-effect1021"
       is_visible="true"
       lpeversion="1"
       bendpath="m 109.03005,114.67964 c 0,0 6.65776,0 9.98663,0 3.32888,0 9.98664,0 9.98664,0"
       prop_scale="0.97821853"
       scale_y_rel="false"
       vertical="true"
       hide_knot="false"
       bendpath-nodetypes="czc" />
    <inkscape:path-effect
       effect="bend_path"
       id="path-effect984"
       is_visible="true"
       lpeversion="1"
       bendpath="m 109.03005,114.67964 h 19.6388"
       prop_scale="1.0993646"
       scale_y_rel="false"
       vertical="true"
       hide_knot="false"
       bendpath-nodetypes="cc" />
  </defs>
  <sodipodi:namedview
     id="base"
     pagecolor="#ffffff"
     bordercolor="#666666"
     borderopacity="1.0"
     inkscape:pageopacity="0.0"
     inkscape:pageshadow="2"
     inkscape:zoom="2.4337483"
     inkscape:cx="-49.28814"
     inkscape:cy="31.821522"
     inkscape:document-units="mm"
     inkscape:current-layer="layer1"
     inkscape:document-rotation="0"
     showgrid="false"
     fit-margin-top="0"
     fit-margin-left="0"
     fit-margin-right="0"
     fit-margin-bottom="0"
     inkscape:window-width="1440"
     inkscape:window-height="697"
     inkscape:window-x="0"
     inkscape:window-y="25"
     inkscape:window-maximized="0" />
  <metadata
     id="metadata5">
    <rdf:RDF>
      <cc:Work
         rdf:about="">
        <dc:format>image/svg+xml</dc:format>
        <dc:type
           rdf:resource="http://purl.org/dc/dcmitype/StillImage" />
        <dc:title></dc:title>
      </cc:Work>
    </rdf:RDF>
  </metadata>
  <g
     inkscape:label="レイヤー 1"
     inkscape:groupmode="layer"
     id="layer1"
     transform="translate(-106.15522,-98.259415)">
    <path
       id="path899"
       style="fill:#f7f7f7;fill-opacity:1;fill-rule:evenodd;stroke:#fdfd00;stroke-width:1.3688;stroke-linecap:round;stroke-linejoin:round;stroke-miterlimit:4;stroke-dasharray:none;stroke-opacity:1"
       d="m 121.38512,109.13251 a 7.2727485,7.2727485 0 0 1 -7.27275,7.27275 7.2727485,7.2727485 0 0 1 -7.27275,-7.27275 7.2727485,7.2727485 0 0 1 7.27275,-7.27275 7.2727485,7.2727485 0 0 1 7.27275,7.27275 z" />
    <path
       id="rect901"
       style="fill:#fdfd00;fill-opacity:1;fill-rule:evenodd;stroke:none;stroke-width:1;stroke-linecap:round;stroke-linejoin:round;stroke-miterlimit:4;stroke-dasharray:none;stroke-opacity:1"
       d="m 113.80167,100.21597 h 0.62143 c 0.20656,0 0.37285,0.1663 0.37285,0.37286 v 0.55929 c 0,0.20656 -0.16629,0.37285 -0.37285,0.37285 h -0.62143 c -0.20657,0 -0.37286,-0.16629 -0.37286,-0.37285 v -0.55929 c 0,-0.20656 0.16629,-0.37286 0.37286,-0.37286 z" />
    <path
       id="rect903"
       style="fill:#fdfd00;fill-opacity:1;fill-rule:evenodd;stroke:none;stroke-width:1;stroke-linecap:round;stroke-linejoin:round;stroke-miterlimit:4;stroke-dasharray:none;stroke-opacity:1"
       d="m 113.73952,98.259415 h 0.74571 c 0.51641,0 0.93214,0.415736 0.93214,0.932143 v 0.621432 c 0,0.51641 -0.41573,0.93214 -0.93214,0.93214 h -0.74571 c -0.5164,0 -0.93214,-0.41573 -0.93214,-0.93214 v -0.621432 c 0,-0.516407 0.41574,-0.932143 0.93214,-0.932143 z" />
    <path
       style="fill:none;stroke:#bfbfbf;stroke-width:0.1;stroke-linecap:round;stroke-linejoin:miter;stroke-miterlimit:4;stroke-dasharray:none;stroke-opacity:1"
       d="m 114.1389,109.12903 2.79644,-4.78501"
       id="path907" />
    <path
       style="fill:none;stroke:#bfbfbf;stroke-width:0.3;stroke-linecap:round;stroke-linejoin:miter;stroke-miterlimit:4;stroke-dasharray:none;stroke-opacity:1;marker-end:url(#Arrow1Send)"
       d="m 114.1389,109.12903 -2.175,-3.76721"
       id="path909" />
    <path
       style="fill:none;stroke:#bfbfbf;stroke-width:0.3;stroke-linecap:round;stroke-linejoin:miter;stroke-miterlimit:4;stroke-dasharray:none;stroke-opacity:1;marker-end:url(#marker1357)"
       d="m 114.1389,109.12903 1.5792,1.5792"
       id="path1353"
       sodipodi:nodetypes="cc" />
    <path
       id="circle1463"
       style="fill:none;fill-rule:evenodd;stroke:#eded00;stroke-width:0.5;stroke-linecap:round;stroke-linejoin:round;stroke-miterlimit:4;stroke-dasharray:none;stroke-opacity:1"
       d="m 121.38512,109.13251 a 7.2727485,7.2727485 0 0 1 -7.27275,7.27275 7.2727485,7.2727485 0 0 1 -7.27275,-7.27275 7.2727485,7.2727485 0 0 1 7.27275,-7.27275 7.2727485,7.2727485 0 0 1 7.27275,7.27275 z" />
    <path
       id="path905"
       style="fill:#bfbfbf;fill-opacity:1;fill-rule:evenodd;stroke:none;stroke-width:6.06851;stroke-linecap:round;stroke-linejoin:round;stroke-miterlimit:4;stroke-dasharray:none;stroke-opacity:1"
       d="m 114.8666,109.13251 a 0.75422984,0.75422984 0 0 1 -0.75423,0.75423 0.75422984,0.75422984 0 0 1 -0.75423,-0.75423 0.75422984,0.75422984 0 0 1 0.75423,-0.75423 0.75422984,0.75422984 0 0 1 0.75423,0.75423 z" />
  </g>
</svg>
