<?xml version="1.0" encoding="UTF-8" standalone="no"?>
<svg
   xmlns:dc="http://purl.org/dc/elements/1.1/"
   xmlns:cc="http://creativecommons.org/ns#"
   xmlns:rdf="http://www.w3.org/1999/02/22-rdf-syntax-ns#"
   xmlns:svg="http://www.w3.org/2000/svg"
   xmlns="http://www.w3.org/2000/svg"
   xmlns:sodipodi="http://sodipodi.sourceforge.net/DTD/sodipodi-0.dtd"
   xmlns:inkscape="http://www.inkscape.org/namespaces/inkscape"
   width="50"
   height="50"
   viewBox="0 0 13.229166 13.229167"
   version="1.1"
   id="svg8"
   inkscape:version="1.0.1 (c497b03c, 2020-09-10)"
   sodipodi:docname="crush02.svg">
  <defs
     id="defs2">
    <inkscape:path-effect
       effect="bend_path"
       id="path-effect1021"
       is_visible="true"
       lpeversion="1"
       bendpath="m 109.03005,114.67964 c 0,0 6.65776,0 9.98663,0 3.32888,0 9.98664,0 9.98664,0"
       prop_scale="0.97821853"
       scale_y_rel="false"
       vertical="true"
       hide_knot="false"
       bendpath-nodetypes="czc" />
    <inkscape:path-effect
       effect="bend_path"
       id="path-effect984"
       is_visible="true"
       lpeversion="1"
       bendpath="m 109.03005,114.67964 h 19.6388"
       prop_scale="1.0993646"
       scale_y_rel="false"
       vertical="true"
       hide_knot="false"
       bendpath-nodetypes="cc" />
  </defs>
  <sodipodi:namedview
     id="base"
     pagecolor="#ffffff"
     bordercolor="#666666"
     borderopacity="1.0"
     inkscape:pageopacity="0.0"
     inkscape:pageshadow="2"
     inkscape:zoom="4.6706131"
     inkscape:cx="36.290825"
     inkscape:cy="33.335351"
     inkscape:document-units="mm"
     inkscape:current-layer="g1366"
     inkscape:document-rotation="0"
     showgrid="false"
     fit-margin-top="0"
     fit-margin-left="0"
     fit-margin-right="0"
     fit-margin-bottom="0"
     inkscape:window-width="1440"
     inkscape:window-height="697"
     inkscape:window-x="0"
     inkscape:window-y="25"
     inkscape:window-maximized="0"
     units="px" />
  <metadata
     id="metadata5">
    <rdf:RDF>
      <cc:Work
         rdf:about="">
        <dc:format>image/svg+xml</dc:format>
        <dc:type
           rdf:resource="http://purl.org/dc/dcmitype/StillImage" />
        <dc:title></dc:title>
      </cc:Work>
    </rdf:RDF>
  </metadata>
  <g
     inkscape:label="レイヤー 1"
     inkscape:groupmode="layer"
     id="layer1"
     transform="translate(-119.89645,-104.61571)">
    <g
       id="g1366">
      <path
         style="color:#000000;font-style:normal;font-variant:normal;font-weight:normal;font-stretch:normal;font-size:medium;line-height:normal;font-family:sans-serif;font-variant-ligatures:normal;font-variant-position:normal;font-variant-caps:normal;font-variant-numeric:normal;font-variant-alternates:normal;font-variant-east-asian:normal;font-feature-settings:normal;font-variation-settings:normal;text-indent:0;text-align:start;text-decoration:none;text-decoration-line:none;text-decoration-style:solid;text-decoration-color:#000000;letter-spacing:normal;word-spacing:normal;text-transform:none;writing-mode:lr-tb;direction:ltr;text-orientation:mixed;dominant-baseline:auto;baseline-shift:baseline;text-anchor:start;white-space:normal;shape-padding:0;shape-margin:0;inline-size:0;clip-rule:nonzero;display:inline;overflow:visible;visibility:visible;opacity:1;isolation:auto;mix-blend-mode:normal;color-interpolation:sRGB;color-interpolation-filters:linearRGB;solid-color:#000000;solid-opacity:1;vector-effect:none;fill:#b22d5c;fill-opacity:1;fill-rule:nonzero;stroke:none;stroke-width:5.29167;stroke-linecap:round;stroke-linejoin:miter;stroke-miterlimit:4;stroke-dasharray:none;stroke-dashoffset:0;stroke-opacity:1;color-rendering:auto;image-rendering:auto;shape-rendering:auto;text-rendering:auto;enable-background:accumulate;stop-color:#000000;stop-opacity:1"
         d="m 126.46367,106.72614 c -1.09971,-0.0103 -2.09113,0.66076 -2.49023,1.68555 -0.0123,0.031 -0.0241,0.0622 -0.0352,0.0937 -0.008,0.006 -0.01,0.006 -0.0176,0.0117 -0.16901,0.12755 -0.37717,0.27286 -0.66211,0.66797 -0.28016,0.3885 -0.73115,0.80943 -0.38671,1.90638 -0.1379,0.44531 -0.19032,0.97618 0,1.58398 -0.13791,0.4453 -0.1903,0.97618 0,1.58399 -0.14231,0.45951 -0.21102,1.00648 0.002,1.63672 0.30166,0.89223 0.92596,1.33672 1.30273,1.54297 0.37678,0.20624 0.62819,0.2617 0.83203,0.30664 0.40768,0.0899 0.65125,0.0929 0.87305,0.0977 0.4436,0.009 0.79297,-0.0273 0.79297,-0.0273 0.78682,-0.0704 1.50101,-0.48879 1.94727,-1.14063 0.0333,-0.0169 0.0426,-0.01 0.0781,-0.0293 0.37678,-0.20624 1.00303,-0.64878 1.30469,-1.54102 0.21299,-0.63022 0.14425,-1.17719 0.002,-1.63672 0.19111,-0.60863 0.13807,-1.14012 0,-1.58593 0.1903,-0.60781 0.1379,-1.1387 0,-1.58399 0.3444,-1.09692 -0.10657,-1.51593 -0.38672,-1.90442 -0.28493,-0.39512 -0.4931,-0.54238 -0.66211,-0.66992 -0.33801,-0.25509 -0.5627,-0.36278 -0.77343,-0.46875 -0.42147,-0.21195 -0.78516,-0.34961 -0.78516,-0.34961 -0.29841,-0.11601 -0.6154,-0.17689 -0.93555,-0.17969 z"
         id="path1919"
         sodipodi:nodetypes="cccccccccccccccccccsccccc" />
      <ellipse
         style="fill:#ee6db5;fill-opacity:1;fill-rule:evenodd;stroke:#efa3cd;stroke-width:1.27914;stroke-linecap:round;stroke-linejoin:bevel;stroke-miterlimit:2;stroke-dasharray:none;stroke-opacity:1"
         id="path951"
         cx="126.43571"
         cy="108.76544"
         rx="2.0271654"
         ry="1.3757055" />
      <path
         id="path1518"
         style="fill:#b22d5c;fill-rule:evenodd;stroke-width:2.17668;stroke-linecap:round;stroke-linejoin:bevel"
         d="m 126.02616,113.71443 c -0.28016,0.42025 -1.03991,-0.48425 -1.49266,-0.26041 -0.45275,0.22387 -0.19524,1.3767 -0.69925,1.3442 -0.50402,-0.0324 -0.10044,-1.14271 -0.5208,-1.42289 -0.42025,-0.28014 -1.28988,0.51926 -1.51374,0.0665 -0.22386,-0.45275 0.93933,-0.65844 0.97183,-1.16247 0.0324,-0.50402 -1.09463,-0.85745 -0.81447,-1.27768 0.28016,-0.42023 1.03991,0.48429 1.49266,0.26042 0.45275,-0.22387 0.19525,-1.37671 0.69927,-1.34419 0.50401,0.0326 0.10043,1.1427 0.5208,1.42287 0.42023,0.28015 1.28986,-0.51926 1.51372,-0.0665 0.22385,0.45275 -0.93933,0.65845 -0.97183,1.16246 -0.0326,0.50403 1.09463,0.85744 0.81447,1.27769 z"
         sodipodi:nodetypes="zzzzzzzzzzzzz" />
      <path
         id="path1521"
         style="fill:#b22d5c;fill-rule:evenodd;stroke-width:2.17668;stroke-linecap:round;stroke-linejoin:bevel"
         d="m 131.065,114.52681 c -0.28016,0.42025 -1.03991,-0.48425 -1.49266,-0.26041 -0.45275,0.22387 -0.19524,1.3767 -0.69925,1.3442 -0.50402,-0.0324 -0.10044,-1.14271 -0.5208,-1.42289 -0.42025,-0.28014 -1.28988,0.51926 -1.51374,0.0665 -0.22386,-0.45275 0.93933,-0.65844 0.97183,-1.16247 0.0324,-0.50402 -1.09463,-0.85745 -0.81447,-1.27768 0.28016,-0.42023 1.03991,0.48429 1.49266,0.26042 0.45275,-0.22387 0.19525,-1.37671 0.69927,-1.34419 0.50401,0.0326 0.10043,1.1427 0.5208,1.42287 0.42023,0.28015 1.28986,-0.51926 1.51372,-0.0665 0.22385,0.45275 -0.93933,0.65845 -0.97183,1.16246 -0.0326,0.50403 1.09463,0.85744 0.81447,1.27769 z"
         sodipodi:nodetypes="zzzzzzzzzzzzz" />
      <path
         id="path1523"
         style="fill:#b22d5c;fill-rule:evenodd;stroke-width:2.17668;stroke-linecap:round;stroke-linejoin:bevel"
         d="m 126.3025,116.64349 c -0.28016,0.42025 -1.03991,-0.48425 -1.49266,-0.26041 -0.45275,0.22387 -0.19524,1.3767 -0.69925,1.3442 -0.50402,-0.0324 -0.10044,-1.14271 -0.5208,-1.42289 -0.42025,-0.28014 -1.28988,0.51926 -1.51374,0.0665 -0.22386,-0.45275 0.93933,-0.65844 0.97183,-1.16247 0.0324,-0.50402 -1.09463,-0.85745 -0.81447,-1.27768 0.28016,-0.42023 1.03991,0.48429 1.49266,0.26042 0.45275,-0.22387 0.19525,-1.37671 0.69927,-1.34419 0.50401,0.0326 0.10043,1.1427 0.5208,1.42287 0.42023,0.28015 1.28986,-0.51926 1.51372,-0.0665 0.22385,0.45275 -0.93933,0.65845 -0.97183,1.16246 -0.0326,0.50403 1.09463,0.85744 0.81447,1.27769 z"
         sodipodi:nodetypes="zzzzzzzzzzzzz" />
    </g>
  </g>
</svg>
