<?xml version="1.0" encoding="UTF-8" standalone="no"?>
<svg
   xmlns:dc="http://purl.org/dc/elements/1.1/"
   xmlns:cc="http://creativecommons.org/ns#"
   xmlns:rdf="http://www.w3.org/1999/02/22-rdf-syntax-ns#"
   xmlns:svg="http://www.w3.org/2000/svg"
   xmlns="http://www.w3.org/2000/svg"
   xmlns:sodipodi="http://sodipodi.sourceforge.net/DTD/sodipodi-0.dtd"
   xmlns:inkscape="http://www.inkscape.org/namespaces/inkscape"
   width="50"
   height="50"
   viewBox="0 0 13.229166 13.229167"
   version="1.1"
   id="svg8"
   inkscape:version="1.0.1 (c497b03c, 2020-09-10)"
   sodipodi:docname="crush10.svg">
  <defs
     id="defs2">
    <inkscape:path-effect
       effect="bend_path"
       id="path-effect1021"
       is_visible="true"
       lpeversion="1"
       bendpath="m 109.03005,114.67964 c 0,0 6.65776,0 9.98663,0 3.32888,0 9.98664,0 9.98664,0"
       prop_scale="0.97821853"
       scale_y_rel="false"
       vertical="true"
       hide_knot="false"
       bendpath-nodetypes="czc" />
    <inkscape:path-effect
       effect="bend_path"
       id="path-effect984"
       is_visible="true"
       lpeversion="1"
       bendpath="m 109.03005,114.67964 h 19.6388"
       prop_scale="1.0993646"
       scale_y_rel="false"
       vertical="true"
       hide_knot="false"
       bendpath-nodetypes="cc" />
  </defs>
  <sodipodi:namedview
     id="base"
     pagecolor="#ffffff"
     bordercolor="#666666"
     borderopacity="1.0"
     inkscape:pageopacity="0.0"
     inkscape:pageshadow="2"
     inkscape:zoom="4.6706131"
     inkscape:cx="22.909284"
     inkscape:cy="41.899537"
     inkscape:document-units="mm"
     inkscape:current-layer="g1366"
     inkscape:document-rotation="0"
     showgrid="false"
     fit-margin-top="0"
     fit-margin-left="0"
     fit-margin-right="0"
     fit-margin-bottom="0"
     inkscape:window-width="1440"
     inkscape:window-height="697"
     inkscape:window-x="0"
     inkscape:window-y="25"
     inkscape:window-maximized="0"
     units="px" />
  <metadata
     id="metadata5">
    <rdf:RDF>
      <cc:Work
         rdf:about="">
        <dc:format>image/svg+xml</dc:format>
        <dc:type
           rdf:resource="http://purl.org/dc/dcmitype/StillImage" />
        <dc:title></dc:title>
      </cc:Work>
    </rdf:RDF>
  </metadata>
  <g
     inkscape:label="レイヤー 1"
     inkscape:groupmode="layer"
     id="layer1"
     transform="translate(-119.89645,-104.61571)">
    <g
       id="g1366">
      <path
         style="color:#000000;font-style:normal;font-variant:normal;font-weight:normal;font-stretch:normal;font-size:medium;line-height:normal;font-family:sans-serif;font-variant-ligatures:normal;font-variant-position:normal;font-variant-caps:normal;font-variant-numeric:normal;font-variant-alternates:normal;font-variant-east-asian:normal;font-feature-settings:normal;font-variation-settings:normal;text-indent:0;text-align:start;text-decoration:none;text-decoration-line:none;text-decoration-style:solid;text-decoration-color:#000000;letter-spacing:normal;word-spacing:normal;text-transform:none;writing-mode:lr-tb;direction:ltr;text-orientation:mixed;dominant-baseline:auto;baseline-shift:baseline;text-anchor:start;white-space:normal;shape-padding:0;shape-margin:0;inline-size:0;clip-rule:nonzero;display:inline;overflow:visible;visibility:visible;opacity:1;isolation:auto;mix-blend-mode:normal;color-interpolation:sRGB;color-interpolation-filters:linearRGB;solid-color:#000000;solid-opacity:1;vector-effect:none;fill:#b22d5c;fill-opacity:1;fill-rule:nonzero;stroke:none;stroke-width:2.77607;stroke-linecap:round;stroke-linejoin:miter;stroke-miterlimit:4;stroke-dasharray:none;stroke-dashoffset:0;stroke-opacity:1;color-rendering:auto;image-rendering:auto;shape-rendering:auto;text-rendering:auto;enable-background:accumulate;stop-color:#000000;stop-opacity:1"
         d="m 126.44153,114.37574 c -0.57692,-0.005 -1.09703,0.069 -1.30641,0.60666 -0.006,0.0163 -0.0126,0.0326 -0.0185,0.0491 -0.004,0.003 -0.005,0.003 -0.009,0.006 -0.0887,0.0669 -0.19787,-0.13446 -0.34736,0.0728 -0.14697,0.20381 -0.38357,-0.40819 -0.20287,0.16728 -0.0723,0.23361 -0.0998,-0.0431 0,0.27576 -0.0724,0.23361 -0.0998,-0.0431 0,0.27576 -0.0747,0.24106 -0.1107,0.52801 0.001,0.85864 0.15826,0.46808 0.48577,0.70126 0.68343,0.80946 0.19766,0.1082 0.32955,0.13729 0.43649,0.16087 0.21387,0.0472 0.34165,0.0487 0.45801,0.0512 0.23272,0.005 0.416,-0.0143 0.416,-0.0143 0.41278,-0.0369 0.78745,-0.25642 1.02156,-0.59839 0.0175,-0.009 0.0223,-0.005 0.041,-0.0154 0.19766,-0.10819 0.5262,-0.34036 0.68445,-0.80844 0.11174,-0.33062 0.0757,-0.33995 0.001,-0.58103 0.10026,-0.31929 0.0724,-0.0429 0,-0.27678 0.0998,-0.31886 0.0723,-0.0422 0,-0.27576 0.18068,-0.57546 -0.0559,0.0376 -0.20288,-0.16626 -0.14947,-0.20728 -0.25868,-0.28453 -0.34735,-0.35144 -0.17732,-0.13383 -0.2952,-0.19032 -0.40575,-0.24591 -0.22111,-0.1112 -0.4119,-0.18341 -0.4119,-0.18341 -0.15655,-0.0609 -0.32285,0.1848 -0.4908,0.18333 z"
         id="path1919"
         sodipodi:nodetypes="cccccccccccccccccccsccccc" />
      <path
         id="path1518"
         style="fill:#b22d5c;fill-rule:evenodd;stroke-width:1.14191;stroke-linecap:round;stroke-linejoin:bevel"
         d="m 124.82396,115.54341 c -0.14697,0.22046 -0.54555,-0.25405 -0.78306,-0.13662 -0.23752,0.11745 -0.10243,0.72223 -0.36684,0.70518 -0.26441,-0.017 -0.0527,-0.59947 -0.27322,-0.74646 -0.22046,-0.14696 -0.67668,0.27241 -0.79412,0.0349 -0.11744,-0.23752 0.49278,-0.34543 0.50983,-0.60985 0.017,-0.26441 -0.57425,-0.44983 -0.42728,-0.67028 0.14698,-0.22046 0.54555,0.25406 0.78307,0.13662 0.23751,-0.11745 0.10243,-0.72224 0.36684,-0.70518 0.26441,0.0171 0.0527,0.59947 0.27322,0.74645 0.22046,0.14697 0.67668,-0.27241 0.79411,-0.0349 0.11744,0.23751 -0.49278,0.34543 -0.50983,0.60984 -0.0171,0.26442 0.57426,0.44982 0.42728,0.67029 z"
         sodipodi:nodetypes="zzzzzzzzzzzzz" />
      <path
         id="path1521"
         style="fill:#b22d5c;fill-rule:evenodd;stroke-width:1.14191;stroke-linecap:round;stroke-linejoin:bevel"
         d="m 130.24348,115.96959 c -0.14697,0.22047 -0.54555,-0.25404 -0.78307,-0.13661 -0.23751,0.11744 -0.10242,0.72223 -0.36683,0.70518 -0.26441,-0.017 -0.0527,-0.59948 -0.27322,-0.74647 -0.22047,-0.14696 -0.67668,0.27241 -0.79412,0.0349 -0.11744,-0.23752 0.49278,-0.34542 0.50983,-0.60984 0.017,-0.26442 -0.57425,-0.44983 -0.42728,-0.67029 0.14698,-0.22046 0.54555,0.25406 0.78307,0.13662 0.23751,-0.11745 0.10243,-0.72224 0.36684,-0.70518 0.26441,0.0171 0.0527,0.59948 0.27322,0.74646 0.22046,0.14697 0.67667,-0.27241 0.79411,-0.0349 0.11744,0.23752 -0.49278,0.34543 -0.50983,0.60984 -0.0171,0.26442 0.57426,0.44982 0.42728,0.67029 z"
         sodipodi:nodetypes="zzzzzzzzzzzzz" />
      <path
         id="path1523"
         style="fill:#b22d5c;fill-rule:evenodd;stroke-width:1.14191;stroke-linecap:round;stroke-linejoin:bevel"
         d="m 124.96893,117.08002 c -0.14697,0.22047 -0.54555,-0.25404 -0.78306,-0.13661 -0.23752,0.11745 -0.10243,0.72223 -0.36684,0.70518 -0.26441,-0.017 -0.0527,-0.59948 -0.27322,-0.74646 -0.22046,-0.14697 -0.67668,0.27241 -0.79412,0.0349 -0.11744,-0.23752 0.49278,-0.34543 0.50983,-0.60985 0.017,-0.26441 -0.57425,-0.44983 -0.42728,-0.67029 0.14698,-0.22045 0.54555,0.25407 0.78307,0.13662 0.23752,-0.11744 0.10243,-0.72223 0.36684,-0.70517 0.26441,0.0171 0.0527,0.59947 0.27322,0.74645 0.22046,0.14697 0.67668,-0.27241 0.79412,-0.0349 0.11743,0.23752 -0.49279,0.34543 -0.50984,0.60984 -0.0171,0.26442 0.57426,0.44983 0.42728,0.67029 z"
         sodipodi:nodetypes="zzzzzzzzzzzzz" />
      <path
         id="path2255"
         style="fill:#b22d5c;fill-rule:evenodd;stroke-width:1.14191;stroke-linecap:round;stroke-linejoin:bevel"
         d="m 125.81119,116.21819 c -0.14697,0.22047 -0.54555,-0.25405 -0.78307,-0.13662 -0.23751,0.11745 -0.10242,0.72224 -0.36683,0.70519 -0.26441,-0.017 -0.0527,-0.59948 -0.27322,-0.74647 -0.22047,-0.14696 -0.67668,0.27241 -0.79412,0.0349 -0.11744,-0.23752 0.49278,-0.34543 0.50983,-0.60985 0.017,-0.26441 -0.57426,-0.44982 -0.42728,-0.67028 0.14698,-0.22046 0.54555,0.25406 0.78307,0.13662 0.23751,-0.11745 0.10243,-0.72224 0.36684,-0.70518 0.26441,0.0171 0.0527,0.59947 0.27322,0.74645 0.22046,0.14697 0.67667,-0.27241 0.79411,-0.0349 0.11744,0.23751 -0.49278,0.34543 -0.50983,0.60984 -0.0171,0.26442 0.57426,0.44982 0.42728,0.67029 z"
         sodipodi:nodetypes="zzzzzzzzzzzzz" />
      <path
         id="path2257"
         style="fill:#b22d5c;fill-rule:evenodd;stroke-width:1.14191;stroke-linecap:round;stroke-linejoin:bevel"
         d="m 129.68826,117.08002 c -0.14697,0.22047 -0.54554,-0.25404 -0.78306,-0.13661 -0.23752,0.11745 -0.10243,0.72223 -0.36684,0.70518 -0.26441,-0.017 -0.0527,-0.59948 -0.27321,-0.74646 -0.22047,-0.14697 -0.67669,0.27241 -0.79413,0.0349 -0.11744,-0.23752 0.49278,-0.34543 0.50983,-0.60985 0.017,-0.26441 -0.57425,-0.44983 -0.42728,-0.67029 0.14698,-0.22045 0.54555,0.25407 0.78307,0.13662 0.23752,-0.11744 0.10243,-0.72223 0.36684,-0.70517 0.26441,0.0171 0.0527,0.59947 0.27322,0.74645 0.22046,0.14697 0.67668,-0.27241 0.79412,-0.0349 0.11743,0.23752 -0.49279,0.34543 -0.50984,0.60984 -0.0171,0.26442 0.57426,0.44983 0.42728,0.67029 z"
         sodipodi:nodetypes="zzzzzzzzzzzzz" />
      <path
         id="path2277"
         style="fill:#b22d5c;fill-rule:evenodd;stroke-width:0.806894;stroke-linecap:round;stroke-linejoin:bevel"
         d="m 123.44677,114.72257 c -0.10386,0.15579 -0.3855,-0.17951 -0.55333,-0.0965 -0.16783,0.083 -0.0724,0.51034 -0.25921,0.4983 -0.18684,-0.012 -0.0373,-0.42361 -0.19306,-0.52747 -0.15579,-0.10385 -0.47816,0.19249 -0.56114,0.0247 -0.083,-0.16784 0.34821,-0.24408 0.36025,-0.43093 0.012,-0.18684 -0.40577,-0.31786 -0.30192,-0.47363 0.10385,-0.15578 0.38549,0.17952 0.55333,0.0965 0.16783,-0.083 0.0724,-0.51035 0.25922,-0.4983 0.18683,0.0121 0.0372,0.4236 0.19305,0.52746 0.15578,0.10385 0.47816,-0.19249 0.56114,-0.0247 0.083,0.16784 -0.34821,0.24409 -0.36026,0.43093 -0.0121,0.18684 0.40578,0.31785 0.30193,0.47363 z"
         sodipodi:nodetypes="zzzzzzzzzzzzz" />
      <path
         id="path2279"
         style="fill:#b22d5c;fill-rule:evenodd;stroke-width:0.806894;stroke-linecap:round;stroke-linejoin:bevel"
         d="m 123.16916,116.94344 c -0.10386,0.15579 -0.3855,-0.17951 -0.55333,-0.0965 -0.16783,0.083 -0.0724,0.51034 -0.25921,0.4983 -0.18684,-0.012 -0.0373,-0.42361 -0.19306,-0.52747 -0.15579,-0.10385 -0.47816,0.19249 -0.56114,0.0247 -0.083,-0.16784 0.34821,-0.24408 0.36025,-0.43093 0.012,-0.18684 -0.40577,-0.31786 -0.30192,-0.47363 0.10386,-0.15578 0.38549,0.17952 0.55333,0.0965 0.16783,-0.083 0.0724,-0.51034 0.25922,-0.49829 0.18683,0.0121 0.0373,0.4236 0.19306,0.52746 0.15577,0.10385 0.47815,-0.19249 0.56113,-0.0247 0.083,0.16783 -0.34821,0.24409 -0.36026,0.43093 -0.0121,0.18684 0.40578,0.31785 0.30193,0.47363 z"
         sodipodi:nodetypes="zzzzzzzzzzzzz" />
      <path
         id="path2281"
         style="fill:#b22d5c;fill-rule:evenodd;stroke-width:0.806894;stroke-linecap:round;stroke-linejoin:bevel"
         d="m 131.26343,114.98132 c -0.10386,0.15579 -0.38549,-0.17952 -0.55333,-0.0965 -0.16783,0.083 -0.0724,0.51034 -0.25921,0.4983 -0.18684,-0.012 -0.0373,-0.4236 -0.19306,-0.52747 -0.15578,-0.10384 -0.47816,0.19249 -0.56114,0.0247 -0.083,-0.16783 0.34821,-0.24408 0.36026,-0.43093 0.012,-0.18684 -0.40578,-0.31785 -0.30193,-0.47363 0.10386,-0.15578 0.3855,0.17953 0.55333,0.0965 0.16783,-0.083 0.0724,-0.51035 0.25922,-0.49829 0.18684,0.0121 0.0373,0.42359 0.19306,0.52745 0.15578,0.10385 0.47815,-0.19248 0.56113,-0.0247 0.083,0.16783 -0.3482,0.24409 -0.36025,0.43092 -0.0121,0.18684 0.40577,0.31785 0.30192,0.47364 z"
         sodipodi:nodetypes="zzzzzzzzzzzzz" />
      <path
         id="path2283"
         style="fill:#b22d5c;fill-rule:evenodd;stroke-width:0.806894;stroke-linecap:round;stroke-linejoin:bevel"
         d="m 130.98582,116.92458 c -0.10385,0.15579 -0.38549,-0.17951 -0.55333,-0.0965 -0.16783,0.083 -0.0724,0.51035 -0.25921,0.4983 -0.18684,-0.012 -0.0372,-0.4236 -0.19306,-0.52747 -0.15578,-0.10384 -0.47816,0.1925 -0.56114,0.0247 -0.083,-0.16783 0.34821,-0.24408 0.36026,-0.43092 0.012,-0.18685 -0.40578,-0.31786 -0.30193,-0.47364 0.10386,-0.15578 0.3855,0.17953 0.55333,0.0965 0.16783,-0.083 0.0724,-0.51035 0.25922,-0.49829 0.18684,0.0121 0.0373,0.4236 0.19306,0.52745 0.15578,0.10385 0.47815,-0.19248 0.56113,-0.0246 0.083,0.16783 -0.3482,0.24409 -0.36025,0.43092 -0.0121,0.18684 0.40577,0.31785 0.30192,0.47364 z"
         sodipodi:nodetypes="zzzzzzzzzzzzz" />
      <ellipse
         style="fill:#ee6db5;fill-opacity:1;fill-rule:evenodd;stroke:#efa3cd;stroke-width:0.671052;stroke-linecap:round;stroke-linejoin:bevel;stroke-miterlimit:2;stroke-dasharray:none;stroke-opacity:1"
         id="path951"
         cx="126.42686"
         cy="114.89035"
         rx="1.0634742"
         ry="0.72171086" />
      <path
         id="path2321"
         style="fill:#b22d5c;fill-rule:evenodd;stroke-width:0.588404;stroke-linecap:round;stroke-linejoin:bevel"
         d="m 121.07639,114.34142 c -0.0757,0.11361 -0.2811,-0.1309 -0.4035,-0.0704 -0.12238,0.0605 -0.0528,0.37216 -0.18901,0.36338 -0.13625,-0.009 -0.0272,-0.30891 -0.14079,-0.38464 -0.1136,-0.0757 -0.34868,0.14036 -0.40919,0.018 -0.0605,-0.12239 0.25392,-0.17798 0.2627,-0.31424 0.009,-0.13625 -0.2959,-0.23179 -0.22017,-0.34539 0.0757,-0.11359 0.28111,0.13092 0.4035,0.0704 0.12239,-0.0605 0.0528,-0.37216 0.18903,-0.36337 0.13625,0.009 0.0272,0.3089 0.14078,0.38463 0.1136,0.0757 0.34868,-0.14036 0.40919,-0.018 0.0605,0.12238 -0.25392,0.17799 -0.2627,0.31424 -0.009,0.13625 0.2959,0.23178 0.22016,0.34538 z"
         sodipodi:nodetypes="zzzzzzzzzzzzz" />
      <path
         id="path2323"
         style="fill:#b22d5c;fill-rule:evenodd;stroke-width:0.588404;stroke-linecap:round;stroke-linejoin:bevel"
         d="m 121.98823,115.80777 c -0.0757,0.1136 -0.28111,-0.13091 -0.4035,-0.0704 -0.12238,0.0605 -0.0528,0.37215 -0.18901,0.36337 -0.13626,-0.009 -0.0272,-0.3089 -0.14079,-0.38464 -0.1136,-0.0757 -0.34868,0.14037 -0.4092,0.018 -0.0605,-0.12239 0.25393,-0.17799 0.26271,-0.31424 0.009,-0.13625 -0.2959,-0.23179 -0.22017,-0.34539 0.0757,-0.11359 0.28111,0.13092 0.4035,0.0704 0.12239,-0.0605 0.0528,-0.37215 0.18903,-0.36336 0.13624,0.009 0.0272,0.30889 0.14078,0.38463 0.1136,0.0757 0.34867,-0.14036 0.40919,-0.018 0.0605,0.12239 -0.25392,0.178 -0.26271,0.31425 -0.009,0.13624 0.29591,0.23178 0.22017,0.34538 z"
         sodipodi:nodetypes="zzzzzzzzzzzzz" />
      <path
         id="path2325"
         style="fill:#b22d5c;fill-rule:evenodd;stroke-width:0.588404;stroke-linecap:round;stroke-linejoin:bevel"
         d="m 121.04668,117.34369 c -0.0757,0.11361 -0.28111,-0.1309 -0.4035,-0.0704 -0.12239,0.0605 -0.0528,0.37215 -0.18902,0.36337 -0.13625,-0.009 -0.0272,-0.3089 -0.14079,-0.38464 -0.1136,-0.0757 -0.34868,0.14036 -0.40919,0.018 -0.0605,-0.12238 0.25392,-0.17798 0.2627,-0.31423 0.009,-0.13626 -0.2959,-0.23179 -0.22017,-0.34539 0.0757,-0.1136 0.28111,0.13091 0.4035,0.0704 0.12239,-0.0605 0.0528,-0.37216 0.18903,-0.36337 0.13625,0.009 0.0272,0.3089 0.14078,0.38463 0.1136,0.0757 0.34868,-0.14036 0.40919,-0.018 0.0605,0.12239 -0.25392,0.17799 -0.2627,0.31424 -0.009,0.13625 0.2959,0.23178 0.22017,0.34538 z"
         sodipodi:nodetypes="zzzzzzzzzzzzz" />
      <path
         id="path2327"
         style="fill:#b22d5c;fill-rule:evenodd;stroke-width:0.588404;stroke-linecap:round;stroke-linejoin:bevel"
         d="m 132.14393,116.07524 c -0.0757,0.1136 -0.2811,-0.13091 -0.4035,-0.0704 -0.12238,0.0605 -0.0528,0.37215 -0.18901,0.36337 -0.13626,-0.009 -0.0272,-0.3089 -0.14079,-0.38464 -0.1136,-0.0757 -0.34868,0.14037 -0.4092,0.018 -0.0605,-0.12239 0.25393,-0.17799 0.26271,-0.31424 0.009,-0.13625 -0.2959,-0.23179 -0.22017,-0.34539 0.0757,-0.11359 0.28111,0.13092 0.4035,0.0704 0.12239,-0.0605 0.0528,-0.37216 0.18903,-0.36336 0.13624,0.009 0.0272,0.30889 0.14078,0.38462 0.1136,0.0757 0.34868,-0.14035 0.40919,-0.018 0.0605,0.12239 -0.25392,0.178 -0.26271,0.31424 -0.009,0.13625 0.29591,0.23179 0.22017,0.34539 z"
         sodipodi:nodetypes="zzzzzzzzzzzzz" />
      <path
         id="path2329"
         style="fill:#b22d5c;fill-rule:evenodd;stroke-width:0.588404;stroke-linecap:round;stroke-linejoin:bevel"
         d="m 133.07535,114.63861 c -0.0757,0.1136 -0.28111,-0.13091 -0.4035,-0.0704 -0.12239,0.0605 -0.0528,0.37216 -0.18902,0.36337 -0.13625,-0.009 -0.0272,-0.3089 -0.14078,-0.38464 -0.11361,-0.0757 -0.34868,0.14037 -0.4092,0.018 -0.0605,-0.12239 0.25392,-0.17799 0.26271,-0.31424 0.009,-0.13625 -0.2959,-0.23179 -0.22017,-0.34539 0.0757,-0.11359 0.28111,0.13092 0.4035,0.0704 0.12238,-0.0605 0.0528,-0.37215 0.18902,-0.36336 0.13625,0.009 0.0272,0.30889 0.14078,0.38463 0.1136,0.0757 0.34868,-0.14036 0.4092,-0.018 0.0605,0.12239 -0.25392,0.178 -0.26271,0.31425 -0.009,0.13624 0.2959,0.23178 0.22017,0.34538 z"
         sodipodi:nodetypes="zzzzzzzzzzzzz" />
      <path
         id="path2331"
         style="fill:#b22d5c;fill-rule:evenodd;stroke-width:0.588404;stroke-linecap:round;stroke-linejoin:bevel"
         d="m 132.95647,117.55172 c -0.0757,0.11361 -0.2811,-0.1309 -0.4035,-0.0704 -0.12238,0.0605 -0.0528,0.37215 -0.18901,0.36337 -0.13626,-0.009 -0.0272,-0.3089 -0.14079,-0.38464 -0.1136,-0.0757 -0.34868,0.14036 -0.4092,0.018 -0.0605,-0.12238 0.25393,-0.17798 0.26271,-0.31423 0.009,-0.13626 -0.2959,-0.23179 -0.22017,-0.34539 0.0757,-0.1136 0.28111,0.13091 0.4035,0.0704 0.12239,-0.0605 0.0528,-0.37216 0.18903,-0.36337 0.13624,0.009 0.0272,0.3089 0.14078,0.38463 0.1136,0.0757 0.34867,-0.14036 0.40919,-0.018 0.0605,0.12238 -0.25392,0.17799 -0.26271,0.31424 -0.009,0.13625 0.29591,0.23178 0.22017,0.34538 z"
         sodipodi:nodetypes="zzzzzzzzzzzzz" />
    </g>
  </g>
</svg>
