<?xml version="1.0" encoding="UTF-8" standalone="no"?>
<svg
   xmlns:dc="http://purl.org/dc/elements/1.1/"
   xmlns:cc="http://creativecommons.org/ns#"
   xmlns:rdf="http://www.w3.org/1999/02/22-rdf-syntax-ns#"
   xmlns:svg="http://www.w3.org/2000/svg"
   xmlns="http://www.w3.org/2000/svg"
   xmlns:sodipodi="http://sodipodi.sourceforge.net/DTD/sodipodi-0.dtd"
   xmlns:inkscape="http://www.inkscape.org/namespaces/inkscape"
   width="50"
   height="50"
   viewBox="0 0 13.229166 13.229167"
   version="1.1"
   id="svg8"
   inkscape:version="1.0.1 (c497b03c, 2020-09-10)"
   sodipodi:docname="crush07.svg">
  <defs
     id="defs2">
    <inkscape:path-effect
       effect="bend_path"
       id="path-effect1021"
       is_visible="true"
       lpeversion="1"
       bendpath="m 109.03005,114.67964 c 0,0 6.65776,0 9.98663,0 3.32888,0 9.98664,0 9.98664,0"
       prop_scale="0.97821853"
       scale_y_rel="false"
       vertical="true"
       hide_knot="false"
       bendpath-nodetypes="czc" />
    <inkscape:path-effect
       effect="bend_path"
       id="path-effect984"
       is_visible="true"
       lpeversion="1"
       bendpath="m 109.03005,114.67964 h 19.6388"
       prop_scale="1.0993646"
       scale_y_rel="false"
       vertical="true"
       hide_knot="false"
       bendpath-nodetypes="cc" />
  </defs>
  <sodipodi:namedview
     id="base"
     pagecolor="#ffffff"
     bordercolor="#666666"
     borderopacity="1.0"
     inkscape:pageopacity="0.0"
     inkscape:pageshadow="2"
     inkscape:zoom="4.6706131"
     inkscape:cx="22.909284"
     inkscape:cy="41.899537"
     inkscape:document-units="mm"
     inkscape:current-layer="g1366"
     inkscape:document-rotation="0"
     showgrid="false"
     fit-margin-top="0"
     fit-margin-left="0"
     fit-margin-right="0"
     fit-margin-bottom="0"
     inkscape:window-width="1440"
     inkscape:window-height="697"
     inkscape:window-x="0"
     inkscape:window-y="25"
     inkscape:window-maximized="0"
     units="px" />
  <metadata
     id="metadata5">
    <rdf:RDF>
      <cc:Work
         rdf:about="">
        <dc:format>image/svg+xml</dc:format>
        <dc:type
           rdf:resource="http://purl.org/dc/dcmitype/StillImage" />
        <dc:title></dc:title>
      </cc:Work>
    </rdf:RDF>
  </metadata>
  <g
     inkscape:label="レイヤー 1"
     inkscape:groupmode="layer"
     id="layer1"
     transform="translate(-119.89645,-104.61571)">
    <g
       id="g1366">
      <path
         style="color:#000000;font-style:normal;font-variant:normal;font-weight:normal;font-stretch:normal;font-size:medium;line-height:normal;font-family:sans-serif;font-variant-ligatures:normal;font-variant-position:normal;font-variant-caps:normal;font-variant-numeric:normal;font-variant-alternates:normal;font-variant-east-asian:normal;font-feature-settings:normal;font-variation-settings:normal;text-indent:0;text-align:start;text-decoration:none;text-decoration-line:none;text-decoration-style:solid;text-decoration-color:#000000;letter-spacing:normal;word-spacing:normal;text-transform:none;writing-mode:lr-tb;direction:ltr;text-orientation:mixed;dominant-baseline:auto;baseline-shift:baseline;text-anchor:start;white-space:normal;shape-padding:0;shape-margin:0;inline-size:0;clip-rule:nonzero;display:inline;overflow:visible;visibility:visible;opacity:1;isolation:auto;mix-blend-mode:normal;color-interpolation:sRGB;color-interpolation-filters:linearRGB;solid-color:#000000;solid-opacity:1;vector-effect:none;fill:#b22d5c;fill-opacity:1;fill-rule:nonzero;stroke:none;stroke-width:3.65184;stroke-linecap:round;stroke-linejoin:miter;stroke-miterlimit:4;stroke-dasharray:none;stroke-dashoffset:0;stroke-opacity:1;color-rendering:auto;image-rendering:auto;shape-rendering:auto;text-rendering:auto;enable-background:accumulate;stop-color:#000000;stop-opacity:1"
         d="m 126.3152,112.36294 c -0.75892,-0.007 -1.44312,0.0908 -1.71854,0.79803 -0.008,0.0214 -0.0166,0.0429 -0.0243,0.0647 -0.006,0.004 -0.007,0.004 -0.0122,0.008 -0.11663,0.088 -0.26029,0.18831 -0.45693,0.46098 -0.19334,0.2681 -0.50457,-0.17178 -0.26687,0.58524 -0.0952,0.30731 -0.13134,-0.0567 0,0.36275 -0.0952,0.30731 -0.13133,0.30849 0,0.72794 -0.0982,0.31712 -0.14563,0.69459 0.001,1.12952 0.20818,0.61574 0.63902,0.92249 0.89903,1.06482 0.26002,0.14233 0.43352,0.18061 0.57419,0.21162 0.28135,0.062 0.44944,0.0641 0.60251,0.0674 0.30613,0.006 0.54723,-0.0188 0.54723,-0.0188 0.543,-0.0486 1.03587,-0.33732 1.34384,-0.78716 0.023,-0.0117 0.0294,-0.007 0.0539,-0.0202 0.26002,-0.14233 0.69221,-0.44773 0.90039,-1.06348 0.14698,-0.43492 0.0995,-0.81239 10e-4,-1.12951 0.13188,-0.42003 0.0953,-0.42163 0,-0.72929 0.13132,-0.41945 0.0952,-0.0555 0,-0.36275 0.23767,-0.757 -0.0735,-0.31579 -0.26688,-0.58389 -0.19664,-0.27268 -0.3403,-0.37431 -0.45693,-0.46232 -0.23327,-0.17604 -0.38833,-0.25036 -0.53376,-0.32349 -0.29086,-0.14627 -0.54184,-0.24127 -0.54184,-0.24127 -0.20594,-0.0801 -0.4247,0.2431 -0.64564,0.24117 z"
         id="path1919"
         sodipodi:nodetypes="cccccccccccccccccccsccccc" />
      <path
         id="path1518"
         style="fill:#b22d5c;fill-rule:evenodd;stroke-width:1.50215;stroke-linecap:round;stroke-linejoin:bevel"
         d="m 124.55252,114.99453 c -0.19334,0.29001 -0.71765,-0.33419 -1.0301,-0.17972 -0.31245,0.1545 -0.13474,0.95008 -0.48256,0.92765 -0.34783,-0.0224 -0.0693,-0.7886 -0.35941,-0.98195 -0.29002,-0.19333 -0.89016,0.35835 -1.04465,0.0459 -0.15449,-0.31245 0.64824,-0.4544 0.67067,-0.80223 0.0224,-0.34783 -0.75542,-0.59174 -0.56207,-0.88175 0.19334,-0.29 0.71765,0.33422 1.0301,0.17972 0.31245,-0.15449 0.13474,-0.95008 0.48257,-0.92764 0.34783,0.0225 0.0693,0.78859 0.35941,0.98194 0.29001,0.19334 0.89015,-0.35835 1.04464,-0.0459 0.15448,0.31245 -0.64824,0.4544 -0.67067,0.80223 -0.0225,0.34783 0.75541,0.59173 0.56207,0.88175 z"
         sodipodi:nodetypes="zzzzzzzzzzzzz" />
      <path
         id="path1521"
         style="fill:#b22d5c;fill-rule:evenodd;stroke-width:1.50215;stroke-linecap:round;stroke-linejoin:bevel"
         d="m 130.95137,115.55516 c -0.19334,0.29002 -0.71765,-0.33419 -1.0301,-0.17971 -0.31245,0.15449 -0.13473,0.95007 -0.48256,0.92764 -0.34783,-0.0224 -0.0693,-0.78859 -0.35941,-0.98195 -0.29002,-0.19333 -0.89016,0.35835 -1.04465,0.0459 -0.15449,-0.31244 0.64824,-0.45439 0.67067,-0.80223 0.0224,-0.34783 -0.75541,-0.59174 -0.56207,-0.88174 0.19334,-0.29001 0.71765,0.33421 1.0301,0.17972 0.31245,-0.1545 0.13474,-0.95009 0.48257,-0.92764 0.34783,0.0225 0.0693,0.78859 0.35941,0.98193 0.29001,0.19334 0.89015,-0.35834 1.04464,-0.0459 0.15448,0.31245 -0.64824,0.45441 -0.67067,0.80223 -0.0225,0.34784 0.75542,0.59173 0.56207,0.88175 z"
         sodipodi:nodetypes="zzzzzzzzzzzzz" />
      <path
         id="path1523"
         style="fill:#b22d5c;fill-rule:evenodd;stroke-width:1.50215;stroke-linecap:round;stroke-linejoin:bevel"
         d="m 124.74323,117.0159 c -0.19334,0.29002 -0.71766,-0.33418 -1.0301,-0.17971 -0.31245,0.1545 -0.13474,0.95008 -0.48257,0.92765 -0.34783,-0.0224 -0.0693,-0.7886 -0.35941,-0.98195 -0.29001,-0.19333 -0.89016,0.35834 -1.04464,0.0459 -0.15449,-0.31245 0.64824,-0.4544 0.67067,-0.80224 0.0224,-0.34783 -0.75542,-0.59173 -0.56208,-0.88174 0.19334,-0.29 0.71766,0.33422 1.0301,0.17972 0.31245,-0.15449 0.13475,-0.95008 0.48258,-0.92764 0.34782,0.0225 0.0693,0.78859 0.35941,0.98194 0.29,0.19333 0.89014,-0.35835 1.04463,-0.0459 0.15448,0.31245 -0.64824,0.4544 -0.67067,0.80222 -0.0225,0.34784 0.75542,0.59173 0.56208,0.88175 z"
         sodipodi:nodetypes="zzzzzzzzzzzzz" />
      <path
         id="path2255"
         style="fill:#b22d5c;fill-rule:evenodd;stroke-width:1.50215;stroke-linecap:round;stroke-linejoin:bevel"
         d="m 125.48601,115.88218 c -0.19334,0.29002 -0.71766,-0.33419 -1.0301,-0.17971 -0.31245,0.15449 -0.13474,0.95008 -0.48256,0.92765 -0.34783,-0.0224 -0.0693,-0.7886 -0.35941,-0.98196 -0.29002,-0.19332 -0.89017,0.35835 -1.04465,0.0459 -0.15449,-0.31245 0.64824,-0.4544 0.67067,-0.80224 0.0224,-0.34783 -0.75542,-0.59173 -0.56208,-0.88174 0.19334,-0.29 0.71766,0.33421 1.0301,0.17972 0.31245,-0.1545 0.13475,-0.95008 0.48258,-0.92764 0.34782,0.0225 0.0693,0.78859 0.35941,0.98194 0.29,0.19333 0.89015,-0.35835 1.04463,-0.0459 0.15449,0.31244 -0.64824,0.4544 -0.67067,0.80222 -0.0225,0.34784 0.75542,0.59173 0.56208,0.88175 z"
         sodipodi:nodetypes="zzzzzzzzzzzzz" />
      <path
         id="path2257"
         style="fill:#b22d5c;fill-rule:evenodd;stroke-width:1.50215;stroke-linecap:round;stroke-linejoin:bevel"
         d="m 130.221,116.65072 c -0.19334,0.29002 -0.71765,-0.33419 -1.0301,-0.17972 -0.31245,0.1545 -0.13474,0.95008 -0.48256,0.92765 -0.34783,-0.0224 -0.0693,-0.78859 -0.35941,-0.98195 -0.29002,-0.19333 -0.89016,0.35835 -1.04465,0.0459 -0.15449,-0.31245 0.64824,-0.45439 0.67067,-0.80223 0.0224,-0.34783 -0.75542,-0.59174 -0.56207,-0.88174 0.19334,-0.29001 0.71765,0.33421 1.0301,0.17972 0.31245,-0.1545 0.13474,-0.95009 0.48257,-0.92765 0.34783,0.0225 0.0693,0.78859 0.35941,0.98194 0.29001,0.19334 0.89015,-0.35834 1.04464,-0.0459 0.15448,0.31245 -0.64824,0.45441 -0.67067,0.80223 -0.0225,0.34784 0.75541,0.59173 0.56207,0.88175 z"
         sodipodi:nodetypes="zzzzzzzzzzzzz" />
      <path
         id="path2277"
         style="fill:#b22d5c;fill-rule:evenodd;stroke-width:1.06145;stroke-linecap:round;stroke-linejoin:bevel"
         d="m 122.74086,113.91474 c -0.13662,0.20494 -0.50711,-0.23614 -0.72789,-0.12699 -0.22078,0.10917 -0.0952,0.67135 -0.34098,0.6555 -0.24578,-0.0158 -0.049,-0.55724 -0.25397,-0.69387 -0.20493,-0.1366 -0.629,0.25322 -0.73816,0.0324 -0.10916,-0.22078 0.45806,-0.32108 0.4739,-0.56687 0.0158,-0.24579 -0.53378,-0.41813 -0.39717,-0.62306 0.13662,-0.20492 0.50711,0.23617 0.72789,0.127 0.22078,-0.10917 0.0952,-0.67135 0.341,-0.65549 0.24577,0.0159 0.049,0.55723 0.25396,0.69385 0.20492,0.13662 0.62899,-0.25321 0.73816,-0.0324 0.10916,0.22078 -0.45806,0.32109 -0.47391,0.56687 -0.0159,0.24578 0.53379,0.41812 0.39717,0.62305 z"
         sodipodi:nodetypes="zzzzzzzzzzzzz" />
      <path
         id="path2279"
         style="fill:#b22d5c;fill-rule:evenodd;stroke-width:1.06145;stroke-linecap:round;stroke-linejoin:bevel"
         d="m 122.37568,116.47105 c -0.13663,0.20493 -0.50711,-0.23615 -0.72789,-0.12699 -0.22078,0.10917 -0.0952,0.67134 -0.34099,0.65549 -0.24578,-0.0158 -0.049,-0.55723 -0.25397,-0.69386 -0.20492,-0.13661 -0.629,0.25321 -0.73816,0.0324 -0.10916,-0.22078 0.45806,-0.32108 0.47391,-0.56687 0.0158,-0.24578 -0.53379,-0.41813 -0.39718,-0.62305 0.13663,-0.20492 0.50711,0.23616 0.72789,0.12699 0.22078,-0.10917 0.0952,-0.67134 0.341,-0.65549 0.24578,0.0159 0.049,0.55724 0.25396,0.69386 0.20492,0.13661 0.629,-0.25321 0.73816,-0.0324 0.10916,0.22078 -0.45806,0.3211 -0.47391,0.56687 -0.0159,0.24579 0.53379,0.41813 0.39718,0.62306 z"
         sodipodi:nodetypes="zzzzzzzzzzzzz" />
      <path
         id="path2281"
         style="fill:#b22d5c;fill-rule:evenodd;stroke-width:1.06145;stroke-linecap:round;stroke-linejoin:bevel"
         d="m 132.29309,114.25511 c -0.13662,0.20494 -0.50711,-0.23614 -0.72789,-0.12699 -0.22078,0.10917 -0.0952,0.67134 -0.34098,0.6555 -0.24579,-0.0158 -0.049,-0.55724 -0.25397,-0.69387 -0.20493,-0.1366 -0.629,0.25322 -0.73816,0.0324 -0.10917,-0.22078 0.45806,-0.32108 0.4739,-0.56687 0.0158,-0.24579 -0.53379,-0.41813 -0.39717,-0.62306 0.13662,-0.20492 0.50711,0.23617 0.72789,0.127 0.22078,-0.10917 0.0952,-0.67135 0.34099,-0.65549 0.24578,0.0159 0.049,0.55723 0.25397,0.69385 0.20492,0.13662 0.62899,-0.25321 0.73815,-0.0324 0.10916,0.22078 -0.45805,0.32109 -0.4739,0.56687 -0.0159,0.24578 0.53378,0.41812 0.39717,0.62305 z"
         sodipodi:nodetypes="zzzzzzzzzzzzz" />
      <path
         id="path2283"
         style="fill:#b22d5c;fill-rule:evenodd;stroke-width:1.06145;stroke-linecap:round;stroke-linejoin:bevel"
         d="m 131.9279,116.81142 c -0.13662,0.20493 -0.5071,-0.23615 -0.72789,-0.12699 -0.22078,0.10917 -0.0952,0.67134 -0.34098,0.65549 -0.24578,-0.0158 -0.049,-0.55723 -0.25397,-0.69386 -0.20493,-0.13661 -0.629,0.25321 -0.73816,0.0324 -0.10916,-0.22078 0.45806,-0.32108 0.47391,-0.56687 0.0158,-0.24578 -0.53379,-0.41813 -0.39718,-0.62305 0.13662,-0.20492 0.50711,0.23616 0.72789,0.12699 0.22078,-0.10917 0.0952,-0.67134 0.341,-0.65549 0.24577,0.0159 0.049,0.55724 0.25396,0.69386 0.20492,0.13661 0.62899,-0.25321 0.73816,-0.0324 0.10916,0.22078 -0.45806,0.3211 -0.47391,0.56687 -0.0159,0.24579 0.53379,0.41813 0.39717,0.62306 z"
         sodipodi:nodetypes="zzzzzzzzzzzzz" />
      <ellipse
         style="fill:#ee6db5;fill-opacity:1;fill-rule:evenodd;stroke:#efa3cd;stroke-width:0.882749;stroke-linecap:round;stroke-linejoin:bevel;stroke-miterlimit:2;stroke-dasharray:none;stroke-opacity:1"
         id="path951"
         cx="126.29591"
         cy="113.40508"
         rx="1.3989704"
         ry="0.94939029" />
      <path
         id="path2321"
         style="fill:#b22d5c;fill-rule:evenodd;stroke-width:0.774029;stroke-linecap:round;stroke-linejoin:bevel"
         d="m 121.44863,113.41335 c -0.0996,0.14944 -0.36978,-0.17221 -0.53079,-0.0926 -0.16099,0.0796 -0.0694,0.48956 -0.24865,0.47801 -0.17923,-0.0115 -0.0357,-0.40635 -0.18519,-0.50598 -0.14945,-0.0996 -0.45869,0.18464 -0.53829,0.0237 -0.0796,-0.161 0.33403,-0.23414 0.34558,-0.41337 0.0115,-0.17924 -0.38924,-0.30492 -0.28963,-0.45435 0.0996,-0.14943 0.3698,0.17221 0.5308,0.0926 0.16099,-0.0796 0.0694,-0.48957 0.24866,-0.478 0.17923,0.0116 0.0357,0.40635 0.18519,0.50597 0.14944,0.0996 0.45867,-0.18464 0.53828,-0.0237 0.0796,0.161 -0.33402,0.23415 -0.34558,0.41338 -0.0116,0.17923 0.38925,0.3049 0.28962,0.45434 z"
         sodipodi:nodetypes="zzzzzzzzzzzzz" />
      <path
         id="path2323"
         style="fill:#b22d5c;fill-rule:evenodd;stroke-width:0.774029;stroke-linecap:round;stroke-linejoin:bevel"
         d="m 121.91776,114.9771 c -0.0996,0.14944 -0.36979,-0.1722 -0.53079,-0.0926 -0.161,0.0796 -0.0694,0.48956 -0.24865,0.47801 -0.17924,-0.0115 -0.0357,-0.40635 -0.1852,-0.50598 -0.14944,-0.0996 -0.45868,0.18464 -0.53829,0.0237 -0.0796,-0.161 0.33403,-0.23414 0.34558,-0.41337 0.0115,-0.17924 -0.38924,-0.30491 -0.28962,-0.45435 0.0996,-0.14943 0.36979,0.17222 0.53079,0.0926 0.161,-0.0796 0.0694,-0.48956 0.24866,-0.478 0.17923,0.0116 0.0358,0.40635 0.18519,0.50597 0.14944,0.0996 0.45868,-0.18464 0.53828,-0.0237 0.0796,0.161 -0.33402,0.23415 -0.34558,0.41338 -0.0116,0.17923 0.38925,0.3049 0.28963,0.45434 z"
         sodipodi:nodetypes="zzzzzzzzzzzzz" />
      <path
         id="path2325"
         style="fill:#b22d5c;fill-rule:evenodd;stroke-width:0.774029;stroke-linecap:round;stroke-linejoin:bevel"
         d="m 121.40954,116.26719 c -0.0996,0.14945 -0.36979,-0.1722 -0.53079,-0.0926 -0.161,0.0796 -0.0694,0.48956 -0.24865,0.478 -0.17924,-0.0115 -0.0358,-0.40635 -0.1852,-0.50598 -0.14944,-0.0996 -0.45868,0.18465 -0.53829,0.0237 -0.0796,-0.16099 0.33403,-0.23413 0.34558,-0.41337 0.0115,-0.17923 -0.38924,-0.30491 -0.28962,-0.45435 0.0996,-0.14943 0.3698,0.17222 0.53079,0.0926 0.161,-0.0796 0.0694,-0.48957 0.24866,-0.478 0.17923,0.0116 0.0357,0.40634 0.18519,0.50597 0.14944,0.0996 0.45868,-0.18464 0.53828,-0.0237 0.0796,0.16099 -0.33402,0.23414 -0.34558,0.41337 -0.0116,0.17923 0.38925,0.30491 0.28963,0.45434 z"
         sodipodi:nodetypes="zzzzzzzzzzzzz" />
      <path
         id="path2327"
         style="fill:#b22d5c;fill-rule:evenodd;stroke-width:0.774029;stroke-linecap:round;stroke-linejoin:bevel"
         d="m 132.35581,115.32895 c -0.0996,0.14944 -0.36979,-0.17221 -0.5308,-0.0926 -0.16099,0.0796 -0.0694,0.48956 -0.24864,0.47801 -0.17924,-0.0115 -0.0358,-0.40636 -0.1852,-0.50599 -0.14944,-0.0996 -0.45868,0.18465 -0.53829,0.0237 -0.0796,-0.16099 0.33403,-0.23413 0.34558,-0.41337 0.0115,-0.17923 -0.38924,-0.30491 -0.28962,-0.45434 0.0996,-0.14943 0.36979,0.17221 0.53079,0.0926 0.16099,-0.0796 0.0694,-0.48957 0.24866,-0.478 0.17923,0.0116 0.0358,0.40634 0.18519,0.50597 0.14944,0.0996 0.45868,-0.18464 0.53828,-0.0237 0.0796,0.16099 -0.33402,0.23415 -0.34558,0.41337 -0.0116,0.17923 0.38925,0.30491 0.28963,0.45435 z"
         sodipodi:nodetypes="zzzzzzzzzzzzz" />
      <path
         id="path2329"
         style="fill:#b22d5c;fill-rule:evenodd;stroke-width:0.774029;stroke-linecap:round;stroke-linejoin:bevel"
         d="m 132.85069,113.80429 c -0.0996,0.14944 -0.36979,-0.1722 -0.5308,-0.0926 -0.16099,0.0796 -0.0694,0.48956 -0.24864,0.47801 -0.17924,-0.0115 -0.0358,-0.40635 -0.1852,-0.50598 -0.14945,-0.0996 -0.45868,0.18464 -0.53829,0.0237 -0.0796,-0.161 0.33403,-0.23414 0.34558,-0.41337 0.0115,-0.17924 -0.38924,-0.30491 -0.28962,-0.45435 0.0996,-0.14943 0.36979,0.17222 0.53079,0.0926 0.16099,-0.0796 0.0694,-0.48956 0.24866,-0.478 0.17923,0.0116 0.0358,0.40635 0.18519,0.50597 0.14944,0.0996 0.45868,-0.18464 0.53828,-0.0237 0.0796,0.161 -0.33402,0.23415 -0.34558,0.41338 -0.0116,0.17923 0.38925,0.3049 0.28963,0.45434 z"
         sodipodi:nodetypes="zzzzzzzzzzzzz" />
      <path
         id="path2331"
         style="fill:#b22d5c;fill-rule:evenodd;stroke-width:0.774029;stroke-linecap:round;stroke-linejoin:bevel"
         d="m 133.05949,116.54085 c -0.0996,0.14944 -0.36979,-0.1722 -0.53079,-0.0926 -0.161,0.0796 -0.0694,0.48955 -0.24865,0.478 -0.17923,-0.0115 -0.0357,-0.40635 -0.18519,-0.50598 -0.14945,-0.0996 -0.45869,0.18464 -0.53829,0.0237 -0.0796,-0.161 0.33403,-0.23414 0.34558,-0.41337 0.0115,-0.17924 -0.38925,-0.30491 -0.28963,-0.45435 0.0996,-0.14943 0.3698,0.17222 0.53079,0.0926 0.161,-0.0796 0.0694,-0.48956 0.24867,-0.478 0.17922,0.0116 0.0357,0.40635 0.18519,0.50597 0.14943,0.0996 0.45867,-0.18464 0.53828,-0.0237 0.0796,0.161 -0.33402,0.23415 -0.34558,0.41338 -0.0116,0.17923 0.38925,0.3049 0.28962,0.45434 z"
         sodipodi:nodetypes="zzzzzzzzzzzzz" />
    </g>
  </g>
</svg>
