<?xml version="1.0" encoding="UTF-8" standalone="no"?>
<svg
   xmlns:dc="http://purl.org/dc/elements/1.1/"
   xmlns:cc="http://creativecommons.org/ns#"
   xmlns:rdf="http://www.w3.org/1999/02/22-rdf-syntax-ns#"
   xmlns:svg="http://www.w3.org/2000/svg"
   xmlns="http://www.w3.org/2000/svg"
   xmlns:sodipodi="http://sodipodi.sourceforge.net/DTD/sodipodi-0.dtd"
   xmlns:inkscape="http://www.inkscape.org/namespaces/inkscape"
   width="50"
   height="50"
   viewBox="0 0 13.229166 13.229167"
   version="1.1"
   id="svg8"
   inkscape:version="1.0.1 (c497b03c, 2020-09-10)"
   sodipodi:docname="crush05.svg">
  <defs
     id="defs2">
    <inkscape:path-effect
       effect="bend_path"
       id="path-effect1021"
       is_visible="true"
       lpeversion="1"
       bendpath="m 109.03005,114.67964 c 0,0 6.65776,0 9.98663,0 3.32888,0 9.98664,0 9.98664,0"
       prop_scale="0.97821853"
       scale_y_rel="false"
       vertical="true"
       hide_knot="false"
       bendpath-nodetypes="czc" />
    <inkscape:path-effect
       effect="bend_path"
       id="path-effect984"
       is_visible="true"
       lpeversion="1"
       bendpath="m 109.03005,114.67964 h 19.6388"
       prop_scale="1.0993646"
       scale_y_rel="false"
       vertical="true"
       hide_knot="false"
       bendpath-nodetypes="cc" />
  </defs>
  <sodipodi:namedview
     id="base"
     pagecolor="#ffffff"
     bordercolor="#666666"
     borderopacity="1.0"
     inkscape:pageopacity="0.0"
     inkscape:pageshadow="2"
     inkscape:zoom="4.6706131"
     inkscape:cx="22.909284"
     inkscape:cy="41.899537"
     inkscape:document-units="mm"
     inkscape:current-layer="g1366"
     inkscape:document-rotation="0"
     showgrid="false"
     fit-margin-top="0"
     fit-margin-left="0"
     fit-margin-right="0"
     fit-margin-bottom="0"
     inkscape:window-width="1440"
     inkscape:window-height="697"
     inkscape:window-x="0"
     inkscape:window-y="25"
     inkscape:window-maximized="0"
     units="px" />
  <metadata
     id="metadata5">
    <rdf:RDF>
      <cc:Work
         rdf:about="">
        <dc:format>image/svg+xml</dc:format>
        <dc:type
           rdf:resource="http://purl.org/dc/dcmitype/StillImage" />
        <dc:title></dc:title>
      </cc:Work>
    </rdf:RDF>
  </metadata>
  <g
     inkscape:label="レイヤー 1"
     inkscape:groupmode="layer"
     id="layer1"
     transform="translate(-119.89645,-104.61571)">
    <g
       id="g1366">
      <path
         style="color:#000000;font-style:normal;font-variant:normal;font-weight:normal;font-stretch:normal;font-size:medium;line-height:normal;font-family:sans-serif;font-variant-ligatures:normal;font-variant-position:normal;font-variant-caps:normal;font-variant-numeric:normal;font-variant-alternates:normal;font-variant-east-asian:normal;font-feature-settings:normal;font-variation-settings:normal;text-indent:0;text-align:start;text-decoration:none;text-decoration-line:none;text-decoration-style:solid;text-decoration-color:#000000;letter-spacing:normal;word-spacing:normal;text-transform:none;writing-mode:lr-tb;direction:ltr;text-orientation:mixed;dominant-baseline:auto;baseline-shift:baseline;text-anchor:start;white-space:normal;shape-padding:0;shape-margin:0;inline-size:0;clip-rule:nonzero;display:inline;overflow:visible;visibility:visible;opacity:1;isolation:auto;mix-blend-mode:normal;color-interpolation:sRGB;color-interpolation-filters:linearRGB;solid-color:#000000;solid-opacity:1;vector-effect:none;fill:#b22d5c;fill-opacity:1;fill-rule:nonzero;stroke:none;stroke-width:4.25546;stroke-linecap:round;stroke-linejoin:miter;stroke-miterlimit:4;stroke-dasharray:none;stroke-dashoffset:0;stroke-opacity:1;color-rendering:auto;image-rendering:auto;shape-rendering:auto;text-rendering:auto;enable-background:accumulate;stop-color:#000000;stop-opacity:1"
         d="m 126.47951,110.18044 c -0.88437,-0.008 -1.68165,0.53137 -2.0026,1.35549 -0.01,0.0249 -0.0194,0.05 -0.0283,0.0754 -0.006,0.005 -0.008,0.005 -0.0142,0.009 -0.13591,0.10257 -0.30331,0.21942 -0.53245,0.53716 -0.2253,0.31243 -0.58798,-0.20016 -0.31099,0.68198 -0.11089,0.35811 -0.15305,0.35948 0,0.84826 -0.1109,0.3581 -0.15303,0.78503 0,1.27382 -0.11444,0.36953 -0.1697,0.80939 0.002,1.31622 0.24259,0.71751 0.74464,1.07496 1.04763,1.24082 0.303,0.16586 0.50518,0.21046 0.6691,0.2466 0.32785,0.0723 0.52373,0.0747 0.7021,0.0786 0.35673,0.007 0.63769,-0.022 0.63769,-0.022 0.63274,-0.0566 1.20708,-0.39307 1.56596,-0.91727 0.0268,-0.0136 0.0343,-0.008 0.0628,-0.0236 0.303,-0.16586 0.80662,-0.52174 1.04921,-1.23926 0.17128,-0.50681 0.116,-0.94668 0.002,-1.31622 0.15369,-0.48945 0.11103,-0.91687 0,-1.27538 0.15303,-0.48879 0.11089,-0.49017 0,-0.84826 0.27696,-0.88213 -0.0857,-0.36799 -0.311,-0.68041 -0.22913,-0.31774 -0.39654,-0.43617 -0.53245,-0.53873 -0.27182,-0.20514 -0.45251,-0.29174 -0.62198,-0.37696 -0.33894,-0.17045 -0.63141,-0.28115 -0.63141,-0.28115 -0.23998,-0.0933 -0.49489,-0.14226 -0.75235,-0.14451 z"
         id="path1919"
         sodipodi:nodetypes="cccccccccccccccccccsccccc" />
      <path
         id="path1518"
         style="fill:#b22d5c;fill-rule:evenodd;stroke-width:1.75045;stroke-linecap:round;stroke-linejoin:bevel"
         d="m 124.42548,113.67255 c -0.2253,0.33795 -0.83628,-0.38943 -1.20037,-0.20942 -0.36409,0.18003 -0.15701,1.10712 -0.56232,1.08098 -0.40533,-0.026 -0.0808,-0.91895 -0.41882,-1.14426 -0.33796,-0.22528 -1.0373,0.41758 -1.21732,0.0535 -0.18003,-0.3641 0.75539,-0.52951 0.78152,-0.93484 0.0261,-0.40532 -0.88028,-0.68955 -0.65498,-1.02749 0.2253,-0.33794 0.83628,0.38946 1.20037,0.20943 0.36409,-0.18003 0.15702,-1.10713 0.56234,-1.08097 0.40532,0.0262 0.0808,0.91893 0.41882,1.14424 0.33794,0.22529 1.03728,-0.41758 1.2173,-0.0535 0.18002,0.3641 -0.75539,0.52952 -0.78152,0.93483 -0.0262,0.40533 0.88028,0.68954 0.65498,1.0275 z"
         sodipodi:nodetypes="zzzzzzzzzzzzz" />
      <path
         id="path1521"
         style="fill:#b22d5c;fill-rule:evenodd;stroke-width:1.75045;stroke-linecap:round;stroke-linejoin:bevel"
         d="m 131.88201,114.7514 c -0.2253,0.33795 -0.83628,-0.38943 -1.20037,-0.20942 -0.36409,0.18003 -0.15701,1.10712 -0.56232,1.08098 -0.40533,-0.0261 -0.0808,-0.91895 -0.41882,-1.14426 -0.33796,-0.22528 -1.0373,0.41758 -1.21732,0.0535 -0.18003,-0.3641 0.75539,-0.52951 0.78153,-0.93484 0.026,-0.40532 -0.88029,-0.68955 -0.65499,-1.02749 0.2253,-0.33794 0.83628,0.38946 1.20037,0.20943 0.3641,-0.18003 0.15702,-1.10713 0.56234,-1.08097 0.40532,0.0262 0.0808,0.91893 0.41882,1.14424 0.33794,0.22529 1.03728,-0.41758 1.21731,-0.0535 0.18001,0.3641 -0.7554,0.52952 -0.78153,0.93483 -0.0262,0.40533 0.88028,0.68954 0.65498,1.0275 z"
         sodipodi:nodetypes="zzzzzzzzzzzzz" />
      <path
         id="path1523"
         style="fill:#b22d5c;fill-rule:evenodd;stroke-width:1.75045;stroke-linecap:round;stroke-linejoin:bevel"
         d="m 124.64771,116.87914 c -0.2253,0.33796 -0.83628,-0.38942 -1.20037,-0.20942 -0.3641,0.18004 -0.15701,1.10712 -0.56233,1.08098 -0.40532,-0.026 -0.0808,-0.91894 -0.41881,-1.14426 -0.33796,-0.22528 -1.0373,0.41758 -1.21733,0.0535 -0.18002,-0.36409 0.7554,-0.52951 0.78153,-0.93484 0.0261,-0.40532 -0.88028,-0.68954 -0.65498,-1.02748 0.2253,-0.33794 0.83628,0.38945 1.20037,0.20942 0.36409,-0.18003 0.15702,-1.10712 0.56234,-1.08097 0.40531,0.0262 0.0808,0.91894 0.41882,1.14424 0.33794,0.2253 1.03728,-0.41757 1.2173,-0.0535 0.18002,0.36409 -0.75539,0.52951 -0.78153,0.93483 -0.0262,0.40533 0.88029,0.68953 0.65499,1.02749 z"
         sodipodi:nodetypes="zzzzzzzzzzzzz" />
      <ellipse
         style="fill:#ee6db5;fill-opacity:1;fill-rule:evenodd;stroke:#efa3cd;stroke-width:1.02866;stroke-linecap:round;stroke-linejoin:bevel;stroke-miterlimit:2;stroke-dasharray:none;stroke-opacity:1"
         id="path951"
         cx="126.45702"
         cy="111.82038"
         rx="1.6302088"
         ry="1.1063168" />
      <path
         id="path2255"
         style="fill:#b22d5c;fill-rule:evenodd;stroke-width:1.75045;stroke-linecap:round;stroke-linejoin:bevel"
         d="m 125.51326,115.55802 c -0.2253,0.33796 -0.83627,-0.38942 -1.20037,-0.20941 -0.36409,0.18003 -0.157,1.10711 -0.56232,1.08098 -0.40532,-0.0261 -0.0808,-0.91895 -0.41882,-1.14427 -0.33796,-0.22528 -1.0373,0.41758 -1.21732,0.0535 -0.18002,-0.36409 0.75539,-0.5295 0.78153,-0.93483 0.0261,-0.40533 -0.88028,-0.68955 -0.65498,-1.02749 0.2253,-0.33794 0.83627,0.38946 1.20037,0.20942 0.36409,-0.18003 0.15701,-1.10712 0.56234,-1.08097 0.40531,0.0262 0.0808,0.91894 0.41881,1.14425 0.33794,0.22529 1.03728,-0.41758 1.21731,-0.0535 0.18001,0.36409 -0.75539,0.52951 -0.78153,0.93483 -0.0262,0.40533 0.88028,0.68954 0.65498,1.02749 z"
         sodipodi:nodetypes="zzzzzzzzzzzzz" />
      <path
         id="path2257"
         style="fill:#b22d5c;fill-rule:evenodd;stroke-width:1.75045;stroke-linecap:round;stroke-linejoin:bevel"
         d="m 131.03091,116.45359 c -0.2253,0.33796 -0.83627,-0.38942 -1.20037,-0.20942 -0.36409,0.18004 -0.15701,1.10712 -0.56232,1.08099 -0.40532,-0.0261 -0.0808,-0.91895 -0.41882,-1.14427 -0.33796,-0.22528 -1.0373,0.41758 -1.21732,0.0535 -0.18002,-0.36409 0.75539,-0.5295 0.78153,-0.93484 0.0261,-0.40532 -0.88028,-0.68954 -0.65498,-1.02748 0.2253,-0.33794 0.83627,0.38946 1.20037,0.20942 0.36409,-0.18003 0.15701,-1.10712 0.56234,-1.08097 0.40531,0.0262 0.0808,0.91894 0.41881,1.14425 0.33794,0.22529 1.03728,-0.41758 1.21731,-0.0535 0.18001,0.36409 -0.75539,0.52951 -0.78153,0.93483 -0.0262,0.40533 0.88028,0.68953 0.65498,1.02749 z"
         sodipodi:nodetypes="zzzzzzzzzzzzz" />
      <path
         id="path2277"
         style="fill:#b22d5c;fill-rule:evenodd;stroke-width:1.2369;stroke-linecap:round;stroke-linejoin:bevel"
         d="m 123.16546,112.83983 c -0.1592,0.23881 -0.59093,-0.27517 -0.8482,-0.14797 -0.25727,0.12721 -0.11094,0.7823 -0.39735,0.76384 -0.2864,-0.0184 -0.0571,-0.64935 -0.29594,-0.80856 -0.2388,-0.15918 -0.73297,0.29507 -0.86018,0.0378 -0.1272,-0.25727 0.53378,-0.37415 0.55224,-0.66057 0.0184,-0.28641 -0.62202,-0.48725 -0.46282,-0.72604 0.1592,-0.23879 0.59093,0.2752 0.8482,0.14799 0.25727,-0.12722 0.11095,-0.78232 0.39736,-0.76384 0.2864,0.0185 0.0571,0.64934 0.29594,0.80854 0.2388,0.1592 0.73296,-0.29506 0.86017,-0.0378 0.12721,0.25728 -0.53377,0.37417 -0.55224,0.66057 -0.0185,0.28641 0.62202,0.48724 0.46282,0.72604 z"
         sodipodi:nodetypes="zzzzzzzzzzzzz" />
      <path
         id="path2279"
         style="fill:#b22d5c;fill-rule:evenodd;stroke-width:1.2369;stroke-linecap:round;stroke-linejoin:bevel"
         d="m 122.31437,115.81867 c -0.15921,0.23881 -0.59093,-0.27517 -0.84821,-0.14797 -0.25727,0.12721 -0.11094,0.7823 -0.39734,0.76384 -0.28641,-0.0184 -0.0571,-0.64934 -0.29595,-0.80856 -0.2388,-0.15918 -0.73297,0.29507 -0.86018,0.0378 -0.1272,-0.25727 0.53378,-0.37415 0.55224,-0.66057 0.0184,-0.28641 -0.62201,-0.48725 -0.46282,-0.72604 0.1592,-0.23879 0.59093,0.2752 0.8482,0.14799 0.25728,-0.12722 0.11096,-0.78232 0.39737,-0.76384 0.2864,0.0185 0.0571,0.64934 0.29593,0.80854 0.2388,0.1592 0.73297,-0.29506 0.86017,-0.0378 0.12721,0.25728 -0.53376,0.37417 -0.55224,0.66057 -0.0185,0.28641 0.62202,0.48724 0.46283,0.72604 z"
         sodipodi:nodetypes="zzzzzzzzzzzzz" />
      <path
         id="path2281"
         style="fill:#b22d5c;fill-rule:evenodd;stroke-width:1.2369;stroke-linecap:round;stroke-linejoin:bevel"
         d="m 133.01995,114.08756 c -0.1592,0.23881 -0.59093,-0.27517 -0.8482,-0.14798 -0.25728,0.12722 -0.11095,0.78231 -0.39735,0.76385 -0.28641,-0.0184 -0.0571,-0.64935 -0.29594,-0.80856 -0.23881,-0.15919 -0.73298,0.29507 -0.86018,0.0378 -0.12721,-0.25728 0.53377,-0.37416 0.55224,-0.66057 0.0184,-0.28641 -0.62202,-0.48725 -0.46282,-0.72604 0.1592,-0.2388 0.59092,0.2752 0.8482,0.14798 0.25727,-0.12721 0.11095,-0.78231 0.39736,-0.76383 0.2864,0.0185 0.0571,0.64933 0.29594,0.80854 0.23879,0.15919 0.73296,-0.29506 0.86017,-0.0378 0.1272,0.25727 -0.53377,0.37417 -0.55224,0.66057 -0.0185,0.28641 0.62202,0.48724 0.46282,0.72604 z"
         sodipodi:nodetypes="zzzzzzzzzzzzz" />
      <path
         id="path2283"
         style="fill:#b22d5c;fill-rule:evenodd;stroke-width:1.2369;stroke-linecap:round;stroke-linejoin:bevel"
         d="m 132.5944,116.2153 c -0.1592,0.23881 -0.59093,-0.27517 -0.8482,-0.14797 -0.25727,0.12721 -0.11094,0.7823 -0.39735,0.76384 -0.28641,-0.0184 -0.0571,-0.64934 -0.29594,-0.80856 -0.2388,-0.15918 -0.73297,0.29507 -0.86018,0.0378 -0.1272,-0.25727 0.53378,-0.37415 0.55224,-0.66057 0.0184,-0.28641 -0.62202,-0.48725 -0.46282,-0.72604 0.1592,-0.23879 0.59093,0.2752 0.8482,0.14799 0.25727,-0.12722 0.11095,-0.78232 0.39736,-0.76384 0.2864,0.0185 0.0571,0.64934 0.29594,0.80854 0.23879,0.1592 0.73296,-0.29506 0.86017,-0.0378 0.1272,0.25728 -0.53377,0.37417 -0.55224,0.66058 -0.0185,0.2864 0.62202,0.48723 0.46282,0.72603 z"
         sodipodi:nodetypes="zzzzzzzzzzzzz" />
    </g>
  </g>
</svg>
