<?xml version="1.0" encoding="UTF-8" standalone="no"?>
<svg
   xmlns:dc="http://purl.org/dc/elements/1.1/"
   xmlns:cc="http://creativecommons.org/ns#"
   xmlns:rdf="http://www.w3.org/1999/02/22-rdf-syntax-ns#"
   xmlns:svg="http://www.w3.org/2000/svg"
   xmlns="http://www.w3.org/2000/svg"
   xmlns:sodipodi="http://sodipodi.sourceforge.net/DTD/sodipodi-0.dtd"
   xmlns:inkscape="http://www.inkscape.org/namespaces/inkscape"
   width="50"
   height="50"
   viewBox="0 0 13.229166 13.229167"
   version="1.1"
   id="svg8"
   inkscape:version="1.0.1 (c497b03c, 2020-09-10)"
   sodipodi:docname="crush08.svg">
  <defs
     id="defs2">
    <inkscape:path-effect
       effect="bend_path"
       id="path-effect1021"
       is_visible="true"
       lpeversion="1"
       bendpath="m 109.03005,114.67964 c 0,0 6.65776,0 9.98663,0 3.32888,0 9.98664,0 9.98664,0"
       prop_scale="0.97821853"
       scale_y_rel="false"
       vertical="true"
       hide_knot="false"
       bendpath-nodetypes="czc" />
    <inkscape:path-effect
       effect="bend_path"
       id="path-effect984"
       is_visible="true"
       lpeversion="1"
       bendpath="m 109.03005,114.67964 h 19.6388"
       prop_scale="1.0993646"
       scale_y_rel="false"
       vertical="true"
       hide_knot="false"
       bendpath-nodetypes="cc" />
  </defs>
  <sodipodi:namedview
     id="base"
     pagecolor="#ffffff"
     bordercolor="#666666"
     borderopacity="1.0"
     inkscape:pageopacity="0.0"
     inkscape:pageshadow="2"
     inkscape:zoom="4.6706131"
     inkscape:cx="22.909284"
     inkscape:cy="41.899537"
     inkscape:document-units="mm"
     inkscape:current-layer="g1366"
     inkscape:document-rotation="0"
     showgrid="false"
     fit-margin-top="0"
     fit-margin-left="0"
     fit-margin-right="0"
     fit-margin-bottom="0"
     inkscape:window-width="1440"
     inkscape:window-height="697"
     inkscape:window-x="0"
     inkscape:window-y="25"
     inkscape:window-maximized="0"
     units="px" />
  <metadata
     id="metadata5">
    <rdf:RDF>
      <cc:Work
         rdf:about="">
        <dc:format>image/svg+xml</dc:format>
        <dc:type
           rdf:resource="http://purl.org/dc/dcmitype/StillImage" />
        <dc:title></dc:title>
      </cc:Work>
    </rdf:RDF>
  </metadata>
  <g
     inkscape:label="レイヤー 1"
     inkscape:groupmode="layer"
     id="layer1"
     transform="translate(-119.89645,-104.61571)">
    <g
       id="g1366">
      <path
         style="color:#000000;font-style:normal;font-variant:normal;font-weight:normal;font-stretch:normal;font-size:medium;line-height:normal;font-family:sans-serif;font-variant-ligatures:normal;font-variant-position:normal;font-variant-caps:normal;font-variant-numeric:normal;font-variant-alternates:normal;font-variant-east-asian:normal;font-feature-settings:normal;font-variation-settings:normal;text-indent:0;text-align:start;text-decoration:none;text-decoration-line:none;text-decoration-style:solid;text-decoration-color:#000000;letter-spacing:normal;word-spacing:normal;text-transform:none;writing-mode:lr-tb;direction:ltr;text-orientation:mixed;dominant-baseline:auto;baseline-shift:baseline;text-anchor:start;white-space:normal;shape-padding:0;shape-margin:0;inline-size:0;clip-rule:nonzero;display:inline;overflow:visible;visibility:visible;opacity:1;isolation:auto;mix-blend-mode:normal;color-interpolation:sRGB;color-interpolation-filters:linearRGB;solid-color:#000000;solid-opacity:1;vector-effect:none;fill:#b22d5c;fill-opacity:1;fill-rule:nonzero;stroke:none;stroke-width:3.33613;stroke-linecap:round;stroke-linejoin:miter;stroke-miterlimit:4;stroke-dasharray:none;stroke-dashoffset:0;stroke-opacity:1;color-rendering:auto;image-rendering:auto;shape-rendering:auto;text-rendering:auto;enable-background:accumulate;stop-color:#000000;stop-opacity:1"
         d="m 126.42751,113.17063 c -0.69332,-0.006 -1.31836,0.083 -1.56997,0.72905 -0.008,0.0195 -0.0152,0.0392 -0.0222,0.0591 -0.005,0.004 -0.006,0.004 -0.0111,0.007 -0.10655,0.0804 -0.23778,0.17202 -0.41742,0.42112 -0.17663,0.24493 -0.46096,-0.49054 -0.2438,0.20103 -0.0869,0.28075 -0.11999,-0.0518 0,0.33139 -0.087,0.28074 -0.11998,0.28182 0,0.66501 -0.0897,0.2897 -0.13304,0.63454 10e-4,1.03187 0.19018,0.56251 0.58377,0.84273 0.8213,0.97276 0.23754,0.13003 0.39604,0.16499 0.52456,0.19333 0.25702,0.0567 0.41058,0.0586 0.55041,0.0616 0.27967,0.006 0.49993,-0.0172 0.49993,-0.0172 0.49605,-0.0444 0.94631,-0.30816 1.22765,-0.71911 0.021,-0.0107 0.0269,-0.006 0.0492,-0.0185 0.23754,-0.13003 0.63236,-0.40903 0.82254,-0.97154 0.13428,-0.39732 0.0909,-0.74216 0.001,-1.03187 0.12049,-0.38371 0.0871,-0.0516 0,-0.33262 0.11998,-0.38319 0.0869,-0.0507 0,-0.33139 0.21713,-0.69155 -0.0672,-0.28849 -0.24381,-0.53341 -0.17963,-0.2491 -0.31087,-0.34194 -0.41742,-0.42235 -0.2131,-0.16082 -0.35476,-0.22872 -0.48761,-0.29552 -0.26572,-0.13363 -0.495,-0.22042 -0.495,-0.22042 -0.18814,-0.0731 -0.38798,0.22209 -0.58982,0.22033 z"
         id="path1919"
         sodipodi:nodetypes="cccccccccccccccccccsccccc" />
      <path
         id="path1518"
         style="fill:#b22d5c;fill-rule:evenodd;stroke-width:1.37229;stroke-linecap:round;stroke-linejoin:bevel"
         d="m 124.81722,115.2411 c -0.17663,0.26495 -0.65561,-0.3053 -0.94105,-0.16418 -0.28543,0.14114 -0.12309,0.86794 -0.44084,0.84745 -0.31776,-0.0204 -0.0633,-0.72042 -0.32834,-0.89706 -0.26494,-0.17661 -0.8132,0.32737 -0.95433,0.0419 -0.14114,-0.28544 0.5922,-0.41511 0.61269,-0.73288 0.0204,-0.31776 -0.69011,-0.54058 -0.51349,-0.80551 0.17663,-0.26494 0.65561,0.30532 0.94105,0.16418 0.28544,-0.14114 0.1231,-0.86795 0.44085,-0.84744 0.31776,0.0206 0.0633,0.72041 0.32834,0.89704 0.26494,0.17662 0.81319,-0.32736 0.95433,-0.0419 0.14112,0.28543 -0.5922,0.41512 -0.61269,0.73287 -0.0206,0.31777 0.69011,0.54057 0.51348,0.80552 z"
         sodipodi:nodetypes="zzzzzzzzzzzzz" />
      <path
         id="path1521"
         style="fill:#b22d5c;fill-rule:evenodd;stroke-width:1.37229;stroke-linecap:round;stroke-linejoin:bevel"
         d="m 130.66287,115.75326 c -0.17663,0.26495 -0.65561,-0.30529 -0.94105,-0.16417 -0.28543,0.14114 -0.12309,0.86794 -0.44084,0.84745 -0.31776,-0.0204 -0.0633,-0.72042 -0.32834,-0.89706 -0.26494,-0.17662 -0.8132,0.32736 -0.95433,0.0419 -0.14113,-0.28543 0.5922,-0.41511 0.61269,-0.73288 0.0204,-0.31775 -0.69011,-0.54057 -0.51348,-0.80551 0.17662,-0.26493 0.65561,0.30532 0.94104,0.16418 0.28544,-0.14113 0.1231,-0.86794 0.44086,-0.84744 0.31775,0.0206 0.0633,0.72041 0.32833,0.89705 0.26494,0.17662 0.8132,-0.32737 0.95433,-0.0419 0.14112,0.28544 -0.5922,0.41512 -0.61269,0.73287 -0.0205,0.31777 0.69011,0.54058 0.51348,0.80552 z"
         sodipodi:nodetypes="zzzzzzzzzzzzz" />
      <path
         id="path1523"
         style="fill:#b22d5c;fill-rule:evenodd;stroke-width:1.37229;stroke-linecap:round;stroke-linejoin:bevel"
         d="m 124.99144,117.08772 c -0.17663,0.26495 -0.65561,-0.30529 -0.94105,-0.16417 -0.28544,0.14114 -0.12309,0.86794 -0.44084,0.84745 -0.31776,-0.0204 -0.0633,-0.72042 -0.32834,-0.89706 -0.26495,-0.17662 -0.8132,0.32736 -0.95433,0.0419 -0.14114,-0.28543 0.59219,-0.41511 0.61268,-0.73288 0.0204,-0.31776 -0.6901,-0.54057 -0.51348,-0.80551 0.17663,-0.26493 0.65561,0.30532 0.94105,0.16418 0.28543,-0.14114 0.12309,-0.86794 0.44085,-0.84744 0.31776,0.0206 0.0633,0.72041 0.32834,0.89705 0.26493,0.17662 0.81319,-0.32737 0.95432,-0.0419 0.14113,0.28544 -0.5922,0.41512 -0.61268,0.73287 -0.0206,0.31777 0.6901,0.54058 0.51348,0.80552 z"
         sodipodi:nodetypes="zzzzzzzzzzzzz" />
      <path
         id="path2255"
         style="fill:#b22d5c;fill-rule:evenodd;stroke-width:1.37229;stroke-linecap:round;stroke-linejoin:bevel"
         d="m 125.67,116.05201 c -0.17662,0.26495 -0.65561,-0.30529 -0.94104,-0.16417 -0.28544,0.14114 -0.12309,0.86794 -0.44085,0.84745 -0.31775,-0.0204 -0.0633,-0.72042 -0.32833,-0.89706 -0.26495,-0.17662 -0.81321,0.32737 -0.95434,0.0419 -0.14113,-0.28543 0.5922,-0.41511 0.61269,-0.73287 0.0204,-0.31776 -0.69011,-0.54058 -0.51348,-0.80552 0.17662,-0.26493 0.65561,0.30532 0.94104,0.16418 0.28544,-0.14113 0.1231,-0.86794 0.44086,-0.84744 0.31775,0.0206 0.0633,0.72042 0.32834,0.89705 0.26493,0.17662 0.81319,-0.32737 0.95432,-0.0419 0.14113,0.28544 -0.5922,0.41512 -0.61269,0.73288 -0.0205,0.31776 0.69011,0.54057 0.51348,0.80551 z"
         sodipodi:nodetypes="zzzzzzzzzzzzz" />
      <path
         id="path2257"
         style="fill:#b22d5c;fill-rule:evenodd;stroke-width:1.37229;stroke-linecap:round;stroke-linejoin:bevel"
         d="m 129.99564,116.75411 c -0.17663,0.26494 -0.65561,-0.3053 -0.94105,-0.16418 -0.28543,0.14114 -0.12308,0.86794 -0.44084,0.84745 -0.31776,-0.0204 -0.0633,-0.72042 -0.32834,-0.89706 -0.26494,-0.17661 -0.8132,0.32737 -0.95433,0.0419 -0.14113,-0.28544 0.5922,-0.41512 0.61269,-0.73288 0.0204,-0.31776 -0.69011,-0.54058 -0.51348,-0.80551 0.17662,-0.26494 0.65561,0.30532 0.94104,0.16418 0.28544,-0.14114 0.1231,-0.86795 0.44086,-0.84745 0.31775,0.0206 0.0633,0.72042 0.32833,0.89705 0.26494,0.17662 0.8132,-0.32737 0.95433,-0.0419 0.14112,0.28543 -0.5922,0.41512 -0.61269,0.73287 -0.0206,0.31776 0.69011,0.54057 0.51348,0.80552 z"
         sodipodi:nodetypes="zzzzzzzzzzzzz" />
      <path
         id="path2277"
         style="fill:#b22d5c;fill-rule:evenodd;stroke-width:0.969681;stroke-linecap:round;stroke-linejoin:bevel"
         d="m 123.16218,114.25467 c -0.12481,0.18721 -0.46326,-0.21573 -0.66496,-0.11601 -0.20169,0.0997 -0.087,0.6133 -0.3115,0.59882 -0.22454,-0.0144 -0.0448,-0.50906 -0.23201,-0.63388 -0.18722,-0.12479 -0.57463,0.23133 -0.67435,0.0296 -0.0997,-0.2017 0.41846,-0.29333 0.43293,-0.51787 0.0144,-0.22453 -0.48764,-0.38198 -0.36283,-0.56919 0.12481,-0.1872 0.46326,0.21575 0.66496,0.11602 0.20169,-0.0997 0.087,-0.61331 0.31152,-0.59882 0.22452,0.0145 0.0448,0.50906 0.232,0.63387 0.18721,0.1248 0.57462,-0.23132 0.67434,-0.0296 0.0997,0.2017 -0.41845,0.29334 -0.43293,0.51787 -0.0145,0.22453 0.48764,0.38197 0.36283,0.56919 z"
         sodipodi:nodetypes="zzzzzzzzzzzzz" />
      <path
         id="path2279"
         style="fill:#b22d5c;fill-rule:evenodd;stroke-width:0.969681;stroke-linecap:round;stroke-linejoin:bevel"
         d="m 122.82857,116.58997 c -0.12481,0.18722 -0.46327,-0.21573 -0.66496,-0.11601 -0.2017,0.0997 -0.087,0.6133 -0.31151,0.59883 -0.22453,-0.0144 -0.0448,-0.50907 -0.23201,-0.63388 -0.18721,-0.1248 -0.57462,0.23132 -0.67435,0.0296 -0.0997,-0.20169 0.41846,-0.29332 0.43294,-0.51786 0.0144,-0.22454 -0.48764,-0.38199 -0.36284,-0.56919 0.12481,-0.18721 0.46327,0.21574 0.66496,0.11601 0.2017,-0.0997 0.087,-0.6133 0.31152,-0.59882 0.22453,0.0145 0.0448,0.50906 0.23201,0.63387 0.1872,0.1248 0.57461,-0.23132 0.67434,-0.0296 0.0997,0.20169 -0.41846,0.29333 -0.43294,0.51786 -0.0145,0.22454 0.48764,0.38198 0.36284,0.56919 z"
         sodipodi:nodetypes="zzzzzzzzzzzzz" />
      <path
         id="path2281"
         style="fill:#b22d5c;fill-rule:evenodd;stroke-width:0.969681;stroke-linecap:round;stroke-linejoin:bevel"
         d="m 131.88859,114.56561 c -0.12481,0.18722 -0.46327,-0.21573 -0.66496,-0.11601 -0.20169,0.0997 -0.087,0.6133 -0.31151,0.59883 -0.22453,-0.0144 -0.0448,-0.50907 -0.23201,-0.63388 -0.18721,-0.1248 -0.57462,0.23132 -0.67434,0.0296 -0.0997,-0.20169 0.41846,-0.29332 0.43293,-0.51786 0.0144,-0.22454 -0.48764,-0.38199 -0.36283,-0.56919 0.12481,-0.18721 0.46326,0.21574 0.66496,0.11601 0.20169,-0.0997 0.087,-0.6133 0.31151,-0.59882 0.22453,0.0145 0.0448,0.50906 0.23201,0.63387 0.1872,0.1248 0.57461,-0.23132 0.67434,-0.0296 0.0997,0.20169 -0.41846,0.29333 -0.43294,0.51786 -0.0145,0.22454 0.48764,0.38198 0.36284,0.56919 z"
         sodipodi:nodetypes="zzzzzzzzzzzzz" />
      <path
         id="path2283"
         style="fill:#b22d5c;fill-rule:evenodd;stroke-width:0.969681;stroke-linecap:round;stroke-linejoin:bevel"
         d="m 131.55497,116.90091 c -0.12481,0.18722 -0.46326,-0.21572 -0.66496,-0.116 -0.20169,0.0997 -0.087,0.6133 -0.3115,0.59882 -0.22453,-0.0144 -0.0448,-0.50906 -0.23201,-0.63388 -0.18721,-0.1248 -0.57462,0.23133 -0.67435,0.0296 -0.0997,-0.20169 0.41846,-0.29332 0.43294,-0.51786 0.0144,-0.22453 -0.48764,-0.38198 -0.36284,-0.56919 0.12481,-0.1872 0.46327,0.21575 0.66496,0.11602 0.20169,-0.0997 0.087,-0.61331 0.31152,-0.59882 0.22453,0.0145 0.0448,0.50905 0.232,0.63386 0.18721,0.12481 0.57462,-0.23131 0.67434,-0.0296 0.0997,0.2017 -0.41845,0.29334 -0.43293,0.51787 -0.0145,0.22453 0.48764,0.38197 0.36283,0.56918 z"
         sodipodi:nodetypes="zzzzzzzzzzzzz" />
      <ellipse
         style="fill:#ee6db5;fill-opacity:1;fill-rule:evenodd;stroke:#efa3cd;stroke-width:0.806433;stroke-linecap:round;stroke-linejoin:bevel;stroke-miterlimit:2;stroke-dasharray:none;stroke-opacity:1"
         id="path951"
         cx="126.40987"
         cy="113.78906"
         rx="1.2780249"
         ry="0.86731243" />
      <path
         id="path2321"
         style="fill:#b22d5c;fill-rule:evenodd;stroke-width:0.707112;stroke-linecap:round;stroke-linejoin:bevel"
         d="m 121.31444,113.46301 c -0.091,0.13652 -0.33782,-0.15732 -0.4849,-0.0846 -0.14708,0.0727 -0.0634,0.44723 -0.22715,0.43668 -0.16374,-0.0105 -0.0327,-0.37123 -0.16919,-0.46224 -0.13652,-0.091 -0.41903,0.16868 -0.49175,0.0216 -0.0727,-0.14708 0.30515,-0.21389 0.3157,-0.37763 0.0105,-0.16374 -0.35559,-0.27855 -0.26458,-0.41507 0.091,-0.13651 0.33782,0.15733 0.4849,0.0846 0.14708,-0.0727 0.0634,-0.44724 0.22716,-0.43668 0.16374,0.0106 0.0327,0.37122 0.16919,0.46223 0.13651,0.091 0.41902,-0.16868 0.49174,-0.0216 0.0727,0.14708 -0.30514,0.21391 -0.3157,0.37764 -0.0106,0.16374 0.35559,0.27855 0.26458,0.41507 z"
         sodipodi:nodetypes="zzzzzzzzzzzzz" />
      <path
         id="path2323"
         style="fill:#b22d5c;fill-rule:evenodd;stroke-width:0.707112;stroke-linecap:round;stroke-linejoin:bevel"
         d="m 121.74301,115.22518 c -0.091,0.13652 -0.33782,-0.15732 -0.4849,-0.0846 -0.14708,0.0727 -0.0634,0.44723 -0.22715,0.43668 -0.16375,-0.0105 -0.0327,-0.37122 -0.16919,-0.46224 -0.13653,-0.091 -0.41903,0.16868 -0.49175,0.0216 -0.0727,-0.14708 0.30515,-0.2139 0.3157,-0.37764 0.0105,-0.16374 -0.35559,-0.27855 -0.26459,-0.41507 0.091,-0.13651 0.33783,0.15733 0.48491,0.0846 0.14708,-0.0727 0.0634,-0.44724 0.22716,-0.43667 0.16374,0.0106 0.0327,0.37121 0.16918,0.46222 0.13652,0.091 0.41902,-0.16867 0.49175,-0.0216 0.0727,0.14708 -0.30515,0.2139 -0.31571,0.37764 -0.0106,0.16373 0.3556,0.27854 0.26459,0.41506 z"
         sodipodi:nodetypes="zzzzzzzzzzzzz" />
      <path
         id="path2325"
         style="fill:#b22d5c;fill-rule:evenodd;stroke-width:0.707112;stroke-linecap:round;stroke-linejoin:bevel"
         d="m 121.27873,116.73736 c -0.091,0.13652 -0.33782,-0.15732 -0.48491,-0.0846 -0.14707,0.0727 -0.0634,0.44723 -0.22715,0.43668 -0.16374,-0.0105 -0.0327,-0.37122 -0.16918,-0.46224 -0.13653,-0.091 -0.41903,0.16868 -0.49175,0.0216 -0.0727,-0.14707 0.30515,-0.21389 0.3157,-0.37763 0.0105,-0.16374 -0.35559,-0.27855 -0.26459,-0.41507 0.091,-0.13651 0.33783,0.15733 0.48491,0.0846 0.14707,-0.0727 0.0634,-0.44724 0.22716,-0.43668 0.16373,0.0106 0.0327,0.37122 0.16918,0.46223 0.13652,0.091 0.41902,-0.16868 0.49174,-0.0216 0.0727,0.14707 -0.30514,0.2139 -0.3157,0.37763 -0.0106,0.16374 0.3556,0.27855 0.26459,0.41507 z"
         sodipodi:nodetypes="zzzzzzzzzzzzz" />
      <path
         id="path2327"
         style="fill:#b22d5c;fill-rule:evenodd;stroke-width:0.707112;stroke-linecap:round;stroke-linejoin:bevel"
         d="m 132.61311,115.54661 c -0.091,0.13652 -0.33782,-0.15732 -0.4849,-0.0846 -0.14708,0.0727 -0.0634,0.44723 -0.22715,0.43668 -0.16374,-0.0105 -0.0327,-0.37122 -0.16919,-0.46224 -0.13652,-0.091 -0.41903,0.16868 -0.49175,0.0216 -0.0727,-0.14707 0.30515,-0.21389 0.31571,-0.37763 0.0105,-0.16374 -0.3556,-0.27855 -0.26459,-0.41507 0.091,-0.13651 0.33782,0.15733 0.4849,0.0846 0.14708,-0.0727 0.0634,-0.44724 0.22717,-0.43668 0.16373,0.0106 0.0327,0.37122 0.16918,0.46223 0.13651,0.091 0.41902,-0.16868 0.49174,-0.0216 0.0727,0.14707 -0.30514,0.2139 -0.3157,0.37764 -0.0106,0.16373 0.3556,0.27854 0.26458,0.41506 z"
         sodipodi:nodetypes="zzzzzzzzzzzzz" />
      <path
         id="path2329"
         style="fill:#b22d5c;fill-rule:evenodd;stroke-width:0.707112;stroke-linecap:round;stroke-linejoin:bevel"
         d="m 133.06521,113.82015 c -0.091,0.13652 -0.33782,-0.15732 -0.4849,-0.0846 -0.14708,0.0727 -0.0634,0.44723 -0.22716,0.43668 -0.16374,-0.0105 -0.0326,-0.37122 -0.16918,-0.46224 -0.13653,-0.091 -0.41903,0.16868 -0.49175,0.0216 -0.0727,-0.14707 0.30515,-0.21389 0.3157,-0.37763 0.0105,-0.16374 -0.35559,-0.27855 -0.26459,-0.41507 0.091,-0.13651 0.33783,0.15733 0.48491,0.0846 0.14708,-0.0727 0.0634,-0.44724 0.22716,-0.43668 0.16374,0.0106 0.0327,0.37122 0.16918,0.46223 0.13652,0.091 0.41902,-0.16868 0.49175,-0.0216 0.0727,0.14707 -0.30515,0.2139 -0.31571,0.37764 -0.0106,0.16373 0.3556,0.27854 0.26459,0.41506 z"
         sodipodi:nodetypes="zzzzzzzzzzzzz" />
      <path
         id="path2331"
         style="fill:#b22d5c;fill-rule:evenodd;stroke-width:0.707112;stroke-linecap:round;stroke-linejoin:bevel"
         d="m 132.92235,116.98735 c -0.091,0.13653 -0.33782,-0.15731 -0.4849,-0.0846 -0.14708,0.0727 -0.0634,0.44723 -0.22715,0.43668 -0.16375,-0.0105 -0.0327,-0.37123 -0.16919,-0.46224 -0.13653,-0.091 -0.41903,0.16868 -0.49175,0.0216 -0.0727,-0.14708 0.30515,-0.21389 0.3157,-0.37763 0.0105,-0.16374 -0.35559,-0.27855 -0.26459,-0.41507 0.091,-0.13651 0.33783,0.15733 0.48491,0.0846 0.14708,-0.0727 0.0634,-0.44725 0.22716,-0.43668 0.16374,0.0106 0.0327,0.37122 0.16918,0.46223 0.13652,0.091 0.41902,-0.16868 0.49175,-0.0216 0.0727,0.14708 -0.30515,0.21391 -0.31571,0.37764 -0.0106,0.16374 0.3556,0.27855 0.26459,0.41506 z"
         sodipodi:nodetypes="zzzzzzzzzzzzz" />
    </g>
  </g>
</svg>
