<?xml version="1.0" encoding="UTF-8" standalone="no"?>
<svg
   xmlns:dc="http://purl.org/dc/elements/1.1/"
   xmlns:cc="http://creativecommons.org/ns#"
   xmlns:rdf="http://www.w3.org/1999/02/22-rdf-syntax-ns#"
   xmlns:svg="http://www.w3.org/2000/svg"
   xmlns="http://www.w3.org/2000/svg"
   xmlns:sodipodi="http://sodipodi.sourceforge.net/DTD/sodipodi-0.dtd"
   xmlns:inkscape="http://www.inkscape.org/namespaces/inkscape"
   width="50"
   height="50"
   viewBox="0 0 13.229166 13.229167"
   version="1.1"
   id="svg8"
   inkscape:version="1.0.1 (c497b03c, 2020-09-10)"
   sodipodi:docname="crush09.svg">
  <defs
     id="defs2">
    <inkscape:path-effect
       effect="bend_path"
       id="path-effect1021"
       is_visible="true"
       lpeversion="1"
       bendpath="m 109.03005,114.67964 c 0,0 6.65776,0 9.98663,0 3.32888,0 9.98664,0 9.98664,0"
       prop_scale="0.97821853"
       scale_y_rel="false"
       vertical="true"
       hide_knot="false"
       bendpath-nodetypes="czc" />
    <inkscape:path-effect
       effect="bend_path"
       id="path-effect984"
       is_visible="true"
       lpeversion="1"
       bendpath="m 109.03005,114.67964 h 19.6388"
       prop_scale="1.0993646"
       scale_y_rel="false"
       vertical="true"
       hide_knot="false"
       bendpath-nodetypes="cc" />
  </defs>
  <sodipodi:namedview
     id="base"
     pagecolor="#ffffff"
     bordercolor="#666666"
     borderopacity="1.0"
     inkscape:pageopacity="0.0"
     inkscape:pageshadow="2"
     inkscape:zoom="4.6706131"
     inkscape:cx="22.909284"
     inkscape:cy="41.899537"
     inkscape:document-units="mm"
     inkscape:current-layer="g1366"
     inkscape:document-rotation="0"
     showgrid="false"
     fit-margin-top="0"
     fit-margin-left="0"
     fit-margin-right="0"
     fit-margin-bottom="0"
     inkscape:window-width="1440"
     inkscape:window-height="697"
     inkscape:window-x="0"
     inkscape:window-y="25"
     inkscape:window-maximized="0"
     units="px" />
  <metadata
     id="metadata5">
    <rdf:RDF>
      <cc:Work
         rdf:about="">
        <dc:format>image/svg+xml</dc:format>
        <dc:type
           rdf:resource="http://purl.org/dc/dcmitype/StillImage" />
        <dc:title></dc:title>
      </cc:Work>
    </rdf:RDF>
  </metadata>
  <g
     inkscape:label="レイヤー 1"
     inkscape:groupmode="layer"
     id="layer1"
     transform="translate(-119.89645,-104.61571)">
    <g
       id="g1366">
      <path
         style="color:#000000;font-style:normal;font-variant:normal;font-weight:normal;font-stretch:normal;font-size:medium;line-height:normal;font-family:sans-serif;font-variant-ligatures:normal;font-variant-position:normal;font-variant-caps:normal;font-variant-numeric:normal;font-variant-alternates:normal;font-variant-east-asian:normal;font-feature-settings:normal;font-variation-settings:normal;text-indent:0;text-align:start;text-decoration:none;text-decoration-line:none;text-decoration-style:solid;text-decoration-color:#000000;letter-spacing:normal;word-spacing:normal;text-transform:none;writing-mode:lr-tb;direction:ltr;text-orientation:mixed;dominant-baseline:auto;baseline-shift:baseline;text-anchor:start;white-space:normal;shape-padding:0;shape-margin:0;inline-size:0;clip-rule:nonzero;display:inline;overflow:visible;visibility:visible;opacity:1;isolation:auto;mix-blend-mode:normal;color-interpolation:sRGB;color-interpolation-filters:linearRGB;solid-color:#000000;solid-opacity:1;vector-effect:none;fill:#b22d5c;fill-opacity:1;fill-rule:nonzero;stroke:none;stroke-width:3.03044;stroke-linecap:round;stroke-linejoin:miter;stroke-miterlimit:4;stroke-dasharray:none;stroke-dashoffset:0;stroke-opacity:1;color-rendering:auto;image-rendering:auto;shape-rendering:auto;text-rendering:auto;enable-background:accumulate;stop-color:#000000;stop-opacity:1"
         d="m 126.43515,113.90149 c -0.62978,-0.006 -1.19755,0.0754 -1.42611,0.66225 -0.007,0.0177 -0.0138,0.0356 -0.0202,0.0537 -0.005,0.003 -0.006,0.003 -0.0101,0.007 -0.0968,0.073 -0.21599,0.15626 -0.37917,0.38253 -0.16045,0.22249 -0.41872,-0.44559 -0.22147,0.18261 -0.079,0.25502 -0.10899,-0.0471 0,0.30103 -0.079,0.25501 -0.10898,-0.0471 0,0.30103 -0.0815,0.26315 -0.12084,0.57639 10e-4,0.93731 0.17275,0.51097 0.53028,0.76552 0.74605,0.88363 0.21577,0.11811 0.35975,0.14988 0.47649,0.17561 0.23347,0.0515 0.37296,0.0532 0.49998,0.0559 0.25404,0.005 0.45411,-0.0156 0.45411,-0.0156 0.4506,-0.0403 0.85961,-0.27992 1.11517,-0.65322 0.0191,-0.01 0.0244,-0.006 0.0447,-0.0168 0.21577,-0.11811 0.57441,-0.37154 0.74717,-0.88251 0.12197,-0.36092 0.0826,-0.67416 0.001,-0.93732 0.10945,-0.34855 0.0791,-0.0468 0,-0.30214 0.10899,-0.34808 0.079,-0.0461 0,-0.30103 0.19724,-0.62819 -0.061,0.041 -0.22146,-0.18149 -0.16318,-0.22628 -0.28239,-0.31061 -0.37918,-0.38365 -0.19357,-0.14609 -0.32225,-0.20776 -0.44293,-0.26845 -0.24137,-0.12138 -0.44965,-0.20021 -0.44965,-0.20021 -0.17089,-0.0664 -0.35243,0.20174 -0.53577,0.20013 z"
         id="path1919"
         sodipodi:nodetypes="cccccccccccccccccccsccccc" />
      <path
         id="path1518"
         style="fill:#b22d5c;fill-rule:evenodd;stroke-width:1.24654;stroke-linecap:round;stroke-linejoin:bevel"
         d="m 124.97241,115.4792 c -0.16044,0.24067 -0.59554,-0.27733 -0.85482,-0.14914 -0.25928,0.12821 -0.11181,0.78841 -0.40044,0.7698 -0.28865,-0.0186 -0.0575,-0.65441 -0.29826,-0.81486 -0.24067,-0.16043 -0.73869,0.29737 -0.86689,0.0381 -0.1282,-0.25928 0.53794,-0.37707 0.55655,-0.66572 0.0186,-0.28865 -0.62687,-0.49105 -0.46643,-0.73171 0.16044,-0.24065 0.59554,0.27735 0.85482,0.14914 0.25928,-0.1282 0.11181,-0.78841 0.40046,-0.76979 0.28863,0.0187 0.0575,0.6544 0.29825,0.81485 0.24066,0.16044 0.73868,-0.29737 0.86688,-0.0381 0.12819,0.25928 -0.53794,0.37708 -0.55655,0.66572 -0.0187,0.28864 0.62687,0.49104 0.46643,0.73171 z"
         sodipodi:nodetypes="zzzzzzzzzzzzz" />
      <path
         id="path1521"
         style="fill:#b22d5c;fill-rule:evenodd;stroke-width:1.24654;stroke-linecap:round;stroke-linejoin:bevel"
         d="m 130.28243,115.94443 c -0.16044,0.24067 -0.59554,-0.27732 -0.85482,-0.14913 -0.25928,0.1282 -0.11181,0.78841 -0.40045,0.7698 -0.28864,-0.0186 -0.0575,-0.65441 -0.29825,-0.81487 -0.24067,-0.16043 -0.73869,0.29737 -0.86689,0.0381 -0.1282,-0.25928 0.53794,-0.37708 0.55655,-0.66573 0.0186,-0.28864 -0.62688,-0.49104 -0.46643,-0.7317 0.16044,-0.24066 0.59553,0.27734 0.85482,0.14914 0.25928,-0.12821 0.11181,-0.78842 0.40045,-0.7698 0.28864,0.0187 0.0575,0.65441 0.29826,0.81486 0.24065,0.16043 0.73868,-0.29738 0.86688,-0.0381 0.12819,0.25928 -0.53794,0.37708 -0.55655,0.66572 -0.0187,0.28865 0.62687,0.49104 0.46643,0.73171 z"
         sodipodi:nodetypes="zzzzzzzzzzzzz" />
      <path
         id="path1523"
         style="fill:#b22d5c;fill-rule:evenodd;stroke-width:1.24654;stroke-linecap:round;stroke-linejoin:bevel"
         d="m 125.13067,117.15661 c -0.16045,0.24067 -0.59554,-0.27732 -0.85482,-0.14913 -0.25928,0.12821 -0.11181,0.78841 -0.40045,0.7698 -0.28864,-0.0186 -0.0575,-0.65441 -0.29825,-0.81486 -0.24067,-0.16043 -0.73869,0.29737 -0.86689,0.0381 -0.1282,-0.25928 0.53793,-0.37708 0.55655,-0.66572 0.0186,-0.28865 -0.62688,-0.49105 -0.46644,-0.73171 0.16045,-0.24066 0.59554,0.27735 0.85482,0.14914 0.25928,-0.12821 0.11182,-0.78842 0.40046,-0.76979 0.28864,0.0187 0.0575,0.6544 0.29825,0.81485 0.24066,0.16044 0.73868,-0.29737 0.86688,-0.0381 0.1282,0.25928 -0.53793,0.37708 -0.55654,0.66571 -0.0187,0.28865 0.62687,0.49104 0.46643,0.73171 z"
         sodipodi:nodetypes="zzzzzzzzzzzzz" />
      <path
         id="path2255"
         style="fill:#b22d5c;fill-rule:evenodd;stroke-width:1.24654;stroke-linecap:round;stroke-linejoin:bevel"
         d="m 125.74706,116.21581 c -0.16045,0.24067 -0.59554,-0.27732 -0.85482,-0.14913 -0.25928,0.1282 -0.11181,0.78841 -0.40045,0.76979 -0.28864,-0.0186 -0.0575,-0.65441 -0.29825,-0.81486 -0.24067,-0.16043 -0.73869,0.29737 -0.86689,0.0381 -0.1282,-0.25928 0.53793,-0.37707 0.55654,-0.66572 0.0186,-0.28864 -0.62687,-0.49105 -0.46643,-0.7317 0.16045,-0.24066 0.59554,0.27734 0.85482,0.14913 0.25928,-0.1282 0.11182,-0.78841 0.40046,-0.76979 0.28864,0.0187 0.0575,0.6544 0.29825,0.81485 0.24066,0.16044 0.73868,-0.29737 0.86688,-0.0381 0.1282,0.25928 -0.53793,0.37708 -0.55655,0.66572 -0.0187,0.28865 0.62688,0.49104 0.46644,0.73171 z"
         sodipodi:nodetypes="zzzzzzzzzzzzz" />
      <path
         id="path2257"
         style="fill:#b22d5c;fill-rule:evenodd;stroke-width:1.24654;stroke-linecap:round;stroke-linejoin:bevel"
         d="m 129.67634,116.85357 c -0.16045,0.24067 -0.59554,-0.27732 -0.85482,-0.14913 -0.25928,0.1282 -0.11181,0.78841 -0.40045,0.76979 -0.28864,-0.0186 -0.0575,-0.6544 -0.29825,-0.81486 -0.24067,-0.16043 -0.73869,0.29737 -0.86689,0.0381 -0.1282,-0.25929 0.53793,-0.37708 0.55655,-0.66573 0.0186,-0.28864 -0.62688,-0.49105 -0.46644,-0.7317 0.16045,-0.24066 0.59554,0.27734 0.85482,0.14913 0.25928,-0.1282 0.11182,-0.78841 0.40046,-0.76979 0.28864,0.0187 0.0575,0.6544 0.29825,0.81485 0.24066,0.16044 0.73868,-0.29737 0.86688,-0.0381 0.1282,0.25928 -0.53793,0.37708 -0.55654,0.66572 -0.0187,0.28865 0.62687,0.49104 0.46643,0.73171 z"
         sodipodi:nodetypes="zzzzzzzzzzzzz" />
      <path
         id="path2277"
         style="fill:#b22d5c;fill-rule:evenodd;stroke-width:0.88083;stroke-linecap:round;stroke-linejoin:bevel"
         d="m 123.46903,114.58315 c -0.11338,0.17006 -0.42082,-0.19596 -0.60403,-0.10538 -0.18322,0.0906 -0.079,0.55711 -0.28297,0.54396 -0.20396,-0.0131 -0.0407,-0.46242 -0.21075,-0.5758 -0.17006,-0.11336 -0.52197,0.21013 -0.61256,0.0269 -0.0906,-0.18322 0.38012,-0.26645 0.39327,-0.47042 0.0131,-0.20396 -0.44296,-0.34698 -0.32959,-0.51703 0.11337,-0.17005 0.42082,0.19598 0.60403,0.10538 0.18321,-0.0906 0.079,-0.55711 0.28297,-0.54395 0.20396,0.0132 0.0407,0.46242 0.21075,0.57579 0.17005,0.11337 0.52197,-0.21012 0.61255,-0.0269 0.0906,0.18322 -0.38011,0.26646 -0.39326,0.47042 -0.0132,0.20396 0.44295,0.34697 0.32959,0.51703 z"
         sodipodi:nodetypes="zzzzzzzzzzzzz" />
      <path
         id="path2279"
         style="fill:#b22d5c;fill-rule:evenodd;stroke-width:0.88083;stroke-linecap:round;stroke-linejoin:bevel"
         d="m 123.16598,116.70447 c -0.11337,0.17006 -0.42082,-0.19596 -0.60403,-0.10538 -0.18321,0.0906 -0.079,0.55711 -0.28296,0.54396 -0.20396,-0.0131 -0.0407,-0.46242 -0.21075,-0.5758 -0.17006,-0.11336 -0.52197,0.21013 -0.61256,0.0269 -0.0906,-0.18322 0.38012,-0.26645 0.39326,-0.47042 0.0131,-0.20396 -0.44295,-0.34698 -0.32958,-0.51703 0.11337,-0.17005 0.42081,0.19598 0.60403,0.10539 0.18321,-0.0906 0.079,-0.55711 0.28297,-0.54395 0.20395,0.0132 0.0407,0.46241 0.21075,0.57578 0.17005,0.11337 0.52196,-0.21012 0.61255,-0.0269 0.0906,0.18322 -0.38011,0.26646 -0.39327,0.47042 -0.0132,0.20396 0.44296,0.34697 0.32959,0.51703 z"
         sodipodi:nodetypes="zzzzzzzzzzzzz" />
      <path
         id="path2281"
         style="fill:#b22d5c;fill-rule:evenodd;stroke-width:0.88083;stroke-linecap:round;stroke-linejoin:bevel"
         d="m 131.39584,114.8656 c -0.11338,0.17007 -0.42082,-0.19596 -0.60403,-0.10538 -0.18322,0.0906 -0.079,0.55711 -0.28297,0.54396 -0.20396,-0.0131 -0.0407,-0.46242 -0.21075,-0.5758 -0.17006,-0.11336 -0.52197,0.21013 -0.61256,0.0269 -0.0906,-0.18321 0.38012,-0.26645 0.39327,-0.47041 0.0131,-0.20396 -0.44296,-0.34699 -0.32959,-0.51704 0.11337,-0.17005 0.42082,0.19598 0.60403,0.10539 0.18321,-0.0906 0.079,-0.55711 0.28297,-0.54395 0.20396,0.0132 0.0407,0.46241 0.21075,0.57578 0.17005,0.11337 0.52197,-0.21012 0.61255,-0.0269 0.0906,0.18321 -0.38011,0.26645 -0.39326,0.47041 -0.0132,0.20396 0.44295,0.34697 0.32959,0.51703 z"
         sodipodi:nodetypes="zzzzzzzzzzzzz" />
      <path
         id="path2283"
         style="fill:#b22d5c;fill-rule:evenodd;stroke-width:0.88083;stroke-linecap:round;stroke-linejoin:bevel"
         d="m 131.09279,116.98692 c -0.11337,0.17007 -0.42082,-0.19596 -0.60403,-0.10538 -0.18321,0.0906 -0.079,0.55711 -0.28296,0.54396 -0.20396,-0.0131 -0.0407,-0.46242 -0.21075,-0.5758 -0.17006,-0.11336 -0.52197,0.21013 -0.61256,0.0269 -0.0906,-0.18321 0.38012,-0.26645 0.39326,-0.47041 0.0131,-0.20396 -0.44295,-0.34699 -0.32959,-0.51704 0.11338,-0.17005 0.42082,0.19598 0.60403,0.10539 0.18322,-0.0906 0.079,-0.55711 0.28298,-0.54395 0.20395,0.0132 0.0407,0.46241 0.21075,0.57578 0.17005,0.11337 0.52196,-0.21012 0.61255,-0.0269 0.0906,0.18321 -0.38012,0.26645 -0.39327,0.47041 -0.0132,0.20396 0.44296,0.34697 0.32959,0.51703 z"
         sodipodi:nodetypes="zzzzzzzzzzzzz" />
      <ellipse
         style="fill:#ee6db5;fill-opacity:1;fill-rule:evenodd;stroke:#efa3cd;stroke-width:0.73254;stroke-linecap:round;stroke-linejoin:bevel;stroke-miterlimit:2;stroke-dasharray:none;stroke-opacity:1"
         id="path951"
         cx="126.41914"
         cy="114.46326"
         rx="1.1609199"
         ry="0.78784096" />
      <path
         id="path2321"
         style="fill:#b22d5c;fill-rule:evenodd;stroke-width:0.64232;stroke-linecap:round;stroke-linejoin:bevel"
         d="m 121.1845,113.86403 c -0.0827,0.12401 -0.30686,-0.1429 -0.44047,-0.0768 -0.1336,0.0661 -0.0576,0.40625 -0.20634,0.39667 -0.14873,-0.01 -0.0297,-0.33721 -0.15368,-0.41989 -0.12402,-0.0827 -0.38063,0.15323 -0.44669,0.0196 -0.0661,-0.1336 0.27719,-0.1943 0.28677,-0.34303 0.01,-0.14874 -0.32301,-0.25303 -0.24034,-0.37704 0.0827,-0.124 0.30687,0.14291 0.44047,0.0769 0.1336,-0.0661 0.0576,-0.40626 0.20635,-0.39666 0.14873,0.01 0.0297,0.3372 0.15368,0.41987 0.12401,0.0827 0.38063,-0.15322 0.44669,-0.0196 0.0661,0.1336 -0.27719,0.19431 -0.28678,0.34304 -0.01,0.14873 0.32301,0.25302 0.24034,0.37703 z"
         sodipodi:nodetypes="zzzzzzzzzzzzz" />
      <path
         id="path2323"
         style="fill:#b22d5c;fill-rule:evenodd;stroke-width:0.64232;stroke-linecap:round;stroke-linejoin:bevel"
         d="m 121.87685,115.46474 c -0.0827,0.12401 -0.30687,-0.14291 -0.44048,-0.0769 -0.1336,0.0661 -0.0576,0.40625 -0.20633,0.39667 -0.14874,-0.01 -0.0297,-0.33721 -0.15369,-0.41989 -0.12401,-0.0827 -0.38063,0.15323 -0.44669,0.0196 -0.0661,-0.1336 0.27719,-0.19429 0.28678,-0.34303 0.01,-0.14873 -0.32301,-0.25302 -0.24035,-0.37703 0.0827,-0.12401 0.30687,0.14291 0.44048,0.0768 0.1336,-0.0661 0.0576,-0.40626 0.20634,-0.39666 0.14874,0.01 0.0297,0.3372 0.15368,0.41987 0.12401,0.0827 0.38063,-0.15322 0.44669,-0.0196 0.0661,0.1336 -0.27718,0.1943 -0.28678,0.34303 -0.01,0.14874 0.32302,0.25303 0.24035,0.37704 z"
         sodipodi:nodetypes="zzzzzzzzzzzzz" />
      <path
         id="path2325"
         style="fill:#b22d5c;fill-rule:evenodd;stroke-width:0.64232;stroke-linecap:round;stroke-linejoin:bevel"
         d="m 121.15206,117.1414 c -0.0827,0.12401 -0.30687,-0.1429 -0.44047,-0.0768 -0.1336,0.0661 -0.0576,0.40625 -0.20634,0.39667 -0.14874,-0.01 -0.0297,-0.33721 -0.15368,-0.41989 -0.12402,-0.0827 -0.38064,0.15323 -0.4467,0.0196 -0.066,-0.1336 0.27719,-0.1943 0.28678,-0.34303 0.01,-0.14874 -0.32301,-0.25303 -0.24034,-0.37704 0.0827,-0.124 0.30687,0.14291 0.44047,0.0768 0.1336,-0.0661 0.0576,-0.40626 0.20635,-0.39666 0.14873,0.01 0.0297,0.3372 0.15368,0.41987 0.12401,0.0827 0.38062,-0.15322 0.44668,-0.0196 0.0661,0.1336 -0.27718,0.19431 -0.28677,0.34304 -0.01,0.14873 0.32301,0.25302 0.24034,0.37703 z"
         sodipodi:nodetypes="zzzzzzzzzzzzz" />
      <path
         id="path2327"
         style="fill:#b22d5c;fill-rule:evenodd;stroke-width:0.64232;stroke-linecap:round;stroke-linejoin:bevel"
         d="m 132.35702,115.75671 c -0.0827,0.12402 -0.30687,-0.1429 -0.44047,-0.0768 -0.1336,0.0661 -0.0576,0.40626 -0.20634,0.39667 -0.14874,-0.01 -0.0297,-0.33721 -0.15369,-0.41988 -0.12401,-0.0827 -0.38063,0.15322 -0.44669,0.0196 -0.0661,-0.1336 0.27719,-0.19429 0.28678,-0.34303 0.01,-0.14874 -0.32301,-0.25303 -0.24034,-0.37704 0.0827,-0.124 0.30687,0.14292 0.44047,0.0769 0.1336,-0.0661 0.0576,-0.40626 0.20635,-0.39667 0.14873,0.01 0.0297,0.33721 0.15368,0.41988 0.124,0.0827 0.38062,-0.15322 0.44668,-0.0196 0.0661,0.13361 -0.27718,0.19431 -0.28677,0.34304 -0.01,0.14873 0.32301,0.25302 0.24034,0.37703 z"
         sodipodi:nodetypes="zzzzzzzzzzzzz" />
      <path
         id="path2329"
         style="fill:#b22d5c;fill-rule:evenodd;stroke-width:0.64232;stroke-linecap:round;stroke-linejoin:bevel"
         d="m 133.07073,114.18845 c -0.0827,0.12401 -0.30686,-0.1429 -0.44047,-0.0768 -0.1336,0.0661 -0.0576,0.40625 -0.20634,0.39667 -0.14873,-0.01 -0.0297,-0.33721 -0.15368,-0.41989 -0.12401,-0.0827 -0.38063,0.15323 -0.44669,0.0196 -0.0661,-0.1336 0.27719,-0.19429 0.28677,-0.34303 0.01,-0.14873 -0.323,-0.25302 -0.24034,-0.37703 0.0827,-0.124 0.30687,0.14291 0.44047,0.0768 0.1336,-0.0661 0.0576,-0.40626 0.20635,-0.39666 0.14873,0.01 0.0297,0.3372 0.15368,0.41987 0.12401,0.0827 0.38063,-0.15322 0.44669,-0.0196 0.0661,0.1336 -0.27719,0.1943 -0.28678,0.34304 -0.01,0.14873 0.32302,0.25302 0.24034,0.37703 z"
         sodipodi:nodetypes="zzzzzzzzzzzzz" />
      <path
         id="path2331"
         style="fill:#b22d5c;fill-rule:evenodd;stroke-width:0.64232;stroke-linecap:round;stroke-linejoin:bevel"
         d="m 132.94096,117.36849 c -0.0827,0.12401 -0.30686,-0.1429 -0.44047,-0.0769 -0.1336,0.0661 -0.0576,0.40626 -0.20633,0.39667 -0.14874,-0.01 -0.0297,-0.33721 -0.15369,-0.41989 -0.12401,-0.0827 -0.38063,0.15323 -0.44669,0.0196 -0.0661,-0.1336 0.27719,-0.1943 0.28678,-0.34303 0.01,-0.14874 -0.32301,-0.25303 -0.24035,-0.37704 0.0827,-0.124 0.30687,0.14291 0.44047,0.0769 0.13361,-0.0661 0.0576,-0.40626 0.20635,-0.39666 0.14873,0.01 0.0297,0.3372 0.15368,0.41988 0.12401,0.0827 0.38063,-0.15323 0.44669,-0.0196 0.0661,0.1336 -0.27719,0.19431 -0.28678,0.34304 -0.01,0.14873 0.32302,0.25302 0.24034,0.37703 z"
         sodipodi:nodetypes="zzzzzzzzzzzzz" />
    </g>
  </g>
</svg>
