<?xml version="1.0" encoding="UTF-8" standalone="no"?>
<svg
   xmlns:dc="http://purl.org/dc/elements/1.1/"
   xmlns:cc="http://creativecommons.org/ns#"
   xmlns:rdf="http://www.w3.org/1999/02/22-rdf-syntax-ns#"
   xmlns:svg="http://www.w3.org/2000/svg"
   xmlns="http://www.w3.org/2000/svg"
   xmlns:sodipodi="http://sodipodi.sourceforge.net/DTD/sodipodi-0.dtd"
   xmlns:inkscape="http://www.inkscape.org/namespaces/inkscape"
   width="50"
   height="50"
   viewBox="0 0 13.229166 13.229167"
   version="1.1"
   id="svg8"
   inkscape:version="1.0.1 (c497b03c, 2020-09-10)"
   sodipodi:docname="crush04.svg">
  <defs
     id="defs2">
    <inkscape:path-effect
       effect="bend_path"
       id="path-effect1021"
       is_visible="true"
       lpeversion="1"
       bendpath="m 109.03005,114.67964 c 0,0 6.65776,0 9.98663,0 3.32888,0 9.98664,0 9.98664,0"
       prop_scale="0.97821853"
       scale_y_rel="false"
       vertical="true"
       hide_knot="false"
       bendpath-nodetypes="czc" />
    <inkscape:path-effect
       effect="bend_path"
       id="path-effect984"
       is_visible="true"
       lpeversion="1"
       bendpath="m 109.03005,114.67964 h 19.6388"
       prop_scale="1.0993646"
       scale_y_rel="false"
       vertical="true"
       hide_knot="false"
       bendpath-nodetypes="cc" />
  </defs>
  <sodipodi:namedview
     id="base"
     pagecolor="#ffffff"
     bordercolor="#666666"
     borderopacity="1.0"
     inkscape:pageopacity="0.0"
     inkscape:pageshadow="2"
     inkscape:zoom="4.6706131"
     inkscape:cx="22.909284"
     inkscape:cy="41.899537"
     inkscape:document-units="mm"
     inkscape:current-layer="g1366"
     inkscape:document-rotation="0"
     showgrid="false"
     fit-margin-top="0"
     fit-margin-left="0"
     fit-margin-right="0"
     fit-margin-bottom="0"
     inkscape:window-width="1440"
     inkscape:window-height="697"
     inkscape:window-x="0"
     inkscape:window-y="25"
     inkscape:window-maximized="0"
     units="px" />
  <metadata
     id="metadata5">
    <rdf:RDF>
      <cc:Work
         rdf:about="">
        <dc:format>image/svg+xml</dc:format>
        <dc:type
           rdf:resource="http://purl.org/dc/dcmitype/StillImage" />
        <dc:title></dc:title>
      </cc:Work>
    </rdf:RDF>
  </metadata>
  <g
     inkscape:label="レイヤー 1"
     inkscape:groupmode="layer"
     id="layer1"
     transform="translate(-119.89645,-104.61571)">
    <g
       id="g1366">
      <path
         style="color:#000000;font-style:normal;font-variant:normal;font-weight:normal;font-stretch:normal;font-size:medium;line-height:normal;font-family:sans-serif;font-variant-ligatures:normal;font-variant-position:normal;font-variant-caps:normal;font-variant-numeric:normal;font-variant-alternates:normal;font-variant-east-asian:normal;font-feature-settings:normal;font-variation-settings:normal;text-indent:0;text-align:start;text-decoration:none;text-decoration-line:none;text-decoration-style:solid;text-decoration-color:#000000;letter-spacing:normal;word-spacing:normal;text-transform:none;writing-mode:lr-tb;direction:ltr;text-orientation:mixed;dominant-baseline:auto;baseline-shift:baseline;text-anchor:start;white-space:normal;shape-padding:0;shape-margin:0;inline-size:0;clip-rule:nonzero;display:inline;overflow:visible;visibility:visible;opacity:1;isolation:auto;mix-blend-mode:normal;color-interpolation:sRGB;color-interpolation-filters:linearRGB;solid-color:#000000;solid-opacity:1;vector-effect:none;fill:#b22d5c;fill-opacity:1;fill-rule:nonzero;stroke:none;stroke-width:5.10489;stroke-linecap:round;stroke-linejoin:miter;stroke-miterlimit:4;stroke-dasharray:none;stroke-dashoffset:0;stroke-opacity:1;color-rendering:auto;image-rendering:auto;shape-rendering:auto;text-rendering:auto;enable-background:accumulate;stop-color:#000000;stop-opacity:1"
         d="m 126.46534,108.13943 c -1.06089,-0.01 -2.01732,0.63743 -2.40233,1.62605 -0.0119,0.0299 -0.0233,0.06 -0.034,0.0904 -0.008,0.006 -0.01,0.006 -0.017,0.0113 -0.16305,0.12305 -0.36386,0.26323 -0.63874,0.6444 -0.27027,0.37478 -0.70534,-0.24013 -0.37306,0.8181 -0.13303,0.42959 -0.1836,0.94173 0,1.52807 -0.13304,0.42959 -0.18358,0.94173 0,1.52809 -0.13729,0.44329 -0.20357,0.97095 0.002,1.57895 0.29101,0.86073 0.89328,1.28953 1.25675,1.4885 0.36348,0.19896 0.60601,0.25247 0.80266,0.29582 0.39329,0.0867 0.62826,0.0896 0.84223,0.0943 0.42795,0.009 0.76498,-0.0263 0.76498,-0.0263 0.75905,-0.0679 1.44803,-0.47154 1.87854,-1.10037 0.0321,-0.0163 0.0411,-0.01 0.0753,-0.0283 0.36348,-0.19896 0.96762,-0.62588 1.25864,-1.48663 0.20547,-0.60797 0.13915,-1.13564 0.002,-1.57895 0.18436,-0.58715 0.13319,-1.09988 0,-1.52995 0.18358,-0.58636 0.13303,-1.09851 0,-1.52808 0.33224,-1.0582 -0.10281,-0.44144 -0.37307,-0.81622 -0.27488,-0.38117 -0.4757,-0.52323 -0.63874,-0.64627 -0.32608,-0.24609 -0.54284,-0.34998 -0.74614,-0.45221 -0.40659,-0.20447 -0.75744,-0.33727 -0.75744,-0.33727 -0.28788,-0.11191 -0.59368,-0.17064 -0.90253,-0.17334 z"
         id="path1919"
         sodipodi:nodetypes="cccccccccccccccccccsccccc" />
      <path
         id="path1518"
         style="fill:#b22d5c;fill-rule:evenodd;stroke-width:2.09985;stroke-linecap:round;stroke-linejoin:bevel"
         d="m 124.0013,112.83909 c -0.27027,0.40541 -1.0032,-0.46716 -1.43997,-0.25122 -0.43677,0.21597 -0.18835,1.32811 -0.67457,1.29675 -0.48623,-0.0312 -0.0969,-1.10237 -0.50242,-1.37266 -0.40542,-0.27026 -1.24435,0.50093 -1.46031,0.0641 -0.21596,-0.43677 0.90618,-0.6352 0.93753,-1.12144 0.0313,-0.48623 -1.05599,-0.82719 -0.78572,-1.23258 0.27027,-0.4054 1.0032,0.46719 1.43997,0.25122 0.43677,-0.21596 0.18836,-1.32811 0.67459,-1.29674 0.48622,0.0314 0.0969,1.10237 0.50242,1.37265 0.4054,0.27026 1.24433,-0.50093 1.46029,-0.0642 0.21595,0.43677 -0.90618,0.63521 -0.93753,1.12143 -0.0315,0.48624 1.05599,0.82718 0.78572,1.2326 z"
         sodipodi:nodetypes="zzzzzzzzzzzzz" />
      <path
         id="path1521"
         style="fill:#b22d5c;fill-rule:evenodd;stroke-width:2.09985;stroke-linecap:round;stroke-linejoin:bevel"
         d="m 132.94623,114.13328 c -0.27027,0.40542 -1.00321,-0.46715 -1.43998,-0.25121 -0.43676,0.21596 -0.18834,1.3281 -0.67456,1.29675 -0.48623,-0.0313 -0.0969,-1.10238 -0.50242,-1.37267 -0.40542,-0.27025 -1.24435,0.50094 -1.46031,0.0642 -0.21596,-0.43677 0.90617,-0.6352 0.93753,-1.12144 0.0312,-0.48623 -1.056,-0.82719 -0.78573,-1.23259 0.27027,-0.40539 1.00321,0.4672 1.43998,0.25123 0.43677,-0.21597 0.18836,-1.32811 0.67459,-1.29674 0.48622,0.0314 0.0969,1.10236 0.50241,1.37265 0.4054,0.27026 1.24434,-0.50094 1.4603,-0.0642 0.21594,0.43677 -0.90618,0.63521 -0.93753,1.12143 -0.0315,0.48624 1.05599,0.82718 0.78572,1.23259 z"
         sodipodi:nodetypes="zzzzzzzzzzzzz" />
      <path
         id="path1523"
         style="fill:#b22d5c;fill-rule:evenodd;stroke-width:2.09985;stroke-linecap:round;stroke-linejoin:bevel"
         d="m 124.26789,116.68575 c -0.27027,0.40541 -1.00321,-0.46716 -1.43998,-0.25122 -0.43676,0.21597 -0.18834,1.32811 -0.67456,1.29675 -0.48623,-0.0312 -0.0969,-1.10237 -0.50242,-1.37266 -0.40542,-0.27026 -1.24435,0.50093 -1.46031,0.0641 -0.21596,-0.43677 0.90617,-0.6352 0.93753,-1.12144 0.0312,-0.48623 -1.056,-0.82719 -0.78573,-1.23258 0.27027,-0.4054 1.00321,0.46719 1.43998,0.25122 0.43677,-0.21596 0.18836,-1.32811 0.67459,-1.29674 0.48622,0.0314 0.0969,1.10237 0.50241,1.37265 0.4054,0.27026 1.24434,-0.50093 1.4603,-0.0642 0.21594,0.43677 -0.90618,0.63521 -0.93753,1.12143 -0.0315,0.48624 1.05599,0.82718 0.78572,1.2326 z"
         sodipodi:nodetypes="zzzzzzzzzzzzz" />
      <ellipse
         style="fill:#ee6db5;fill-opacity:1;fill-rule:evenodd;stroke:#efa3cd;stroke-width:1.23399;stroke-linecap:round;stroke-linejoin:bevel;stroke-miterlimit:2;stroke-dasharray:none;stroke-opacity:1"
         id="path951"
         cx="126.43837"
         cy="110.10674"
         rx="1.9556142"
         ry="1.3271483" />
      <path
         id="path2255"
         style="fill:#b22d5c;fill-rule:evenodd;stroke-width:2.09985;stroke-linecap:round;stroke-linejoin:bevel"
         d="m 125.30622,115.10092 c -0.27027,0.40542 -1.00321,-0.46716 -1.43998,-0.25122 -0.43676,0.21597 -0.18834,1.32811 -0.67456,1.29676 -0.48623,-0.0313 -0.0969,-1.10238 -0.50242,-1.37267 -0.40542,-0.27025 -1.24435,0.50093 -1.46031,0.0642 -0.21596,-0.43677 0.90617,-0.6352 0.93753,-1.12144 0.0312,-0.48623 -1.056,-0.82718 -0.78573,-1.23258 0.27027,-0.4054 1.00321,0.4672 1.43998,0.25123 0.43677,-0.21597 0.18836,-1.32812 0.67459,-1.29675 0.48622,0.0314 0.0969,1.10237 0.50241,1.37265 0.4054,0.27026 1.24434,-0.50093 1.4603,-0.0641 0.21594,0.43677 -0.90618,0.63521 -0.93753,1.12143 -0.0314,0.48624 1.05599,0.82717 0.78572,1.23259 z"
         sodipodi:nodetypes="zzzzzzzzzzzzz" />
      <path
         id="path2257"
         style="fill:#b22d5c;fill-rule:evenodd;stroke-width:2.09985;stroke-linecap:round;stroke-linejoin:bevel"
         d="m 131.92525,116.17525 c -0.27028,0.40542 -1.00321,-0.46715 -1.43998,-0.25121 -0.43677,0.21596 -0.18835,1.3281 -0.67457,1.29675 -0.48623,-0.0313 -0.0969,-1.10238 -0.50242,-1.37267 -0.40541,-0.27025 -1.24435,0.50094 -1.46031,0.0642 -0.21596,-0.43677 0.90618,-0.6352 0.93753,-1.12144 0.0313,-0.48623 -1.05599,-0.82719 -0.78572,-1.23259 0.27027,-0.40539 1.0032,0.4672 1.43997,0.25123 0.43677,-0.21597 0.18836,-1.32812 0.67459,-1.29674 0.48622,0.0315 0.0969,1.10236 0.50242,1.37264 0.4054,0.27027 1.24433,-0.50093 1.46029,-0.0641 0.21595,0.43677 -0.90617,0.63521 -0.93753,1.12143 -0.0314,0.48624 1.056,0.82718 0.78573,1.23259 z"
         sodipodi:nodetypes="zzzzzzzzzzzzz" />
    </g>
  </g>
</svg>
