<?xml version="1.0" encoding="UTF-8" standalone="no"?>
<svg
   xmlns:dc="http://purl.org/dc/elements/1.1/"
   xmlns:cc="http://creativecommons.org/ns#"
   xmlns:rdf="http://www.w3.org/1999/02/22-rdf-syntax-ns#"
   xmlns:svg="http://www.w3.org/2000/svg"
   xmlns="http://www.w3.org/2000/svg"
   xmlns:sodipodi="http://sodipodi.sourceforge.net/DTD/sodipodi-0.dtd"
   xmlns:inkscape="http://www.inkscape.org/namespaces/inkscape"
   width="50"
   height="50"
   viewBox="0 0 13.229166 13.229167"
   version="1.1"
   id="svg8"
   inkscape:version="1.0.1 (c497b03c, 2020-09-10)"
   sodipodi:docname="crush11.svg">
  <defs
     id="defs2">
    <inkscape:path-effect
       effect="bend_path"
       id="path-effect1021"
       is_visible="true"
       lpeversion="1"
       bendpath="m 109.03005,114.67964 c 0,0 6.65776,0 9.98663,0 3.32888,0 9.98664,0 9.98664,0"
       prop_scale="0.97821853"
       scale_y_rel="false"
       vertical="true"
       hide_knot="false"
       bendpath-nodetypes="czc" />
    <inkscape:path-effect
       effect="bend_path"
       id="path-effect984"
       is_visible="true"
       lpeversion="1"
       bendpath="m 109.03005,114.67964 h 19.6388"
       prop_scale="1.0993646"
       scale_y_rel="false"
       vertical="true"
       hide_knot="false"
       bendpath-nodetypes="cc" />
  </defs>
  <sodipodi:namedview
     id="base"
     pagecolor="#ffffff"
     bordercolor="#666666"
     borderopacity="1.0"
     inkscape:pageopacity="0.0"
     inkscape:pageshadow="2"
     inkscape:zoom="4.6706131"
     inkscape:cx="22.909284"
     inkscape:cy="41.899537"
     inkscape:document-units="mm"
     inkscape:current-layer="g1366"
     inkscape:document-rotation="0"
     showgrid="false"
     fit-margin-top="0"
     fit-margin-left="0"
     fit-margin-right="0"
     fit-margin-bottom="0"
     inkscape:window-width="1440"
     inkscape:window-height="697"
     inkscape:window-x="0"
     inkscape:window-y="25"
     inkscape:window-maximized="0"
     units="px" />
  <metadata
     id="metadata5">
    <rdf:RDF>
      <cc:Work
         rdf:about="">
        <dc:format>image/svg+xml</dc:format>
        <dc:type
           rdf:resource="http://purl.org/dc/dcmitype/StillImage" />
        <dc:title></dc:title>
      </cc:Work>
    </rdf:RDF>
  </metadata>
  <g
     inkscape:label="レイヤー 1"
     inkscape:groupmode="layer"
     id="layer1"
     transform="translate(-119.89645,-104.61571)">
    <g
       id="g1366">
      <path
         style="color:#000000;font-style:normal;font-variant:normal;font-weight:normal;font-stretch:normal;font-size:medium;line-height:normal;font-family:sans-serif;font-variant-ligatures:normal;font-variant-position:normal;font-variant-caps:normal;font-variant-numeric:normal;font-variant-alternates:normal;font-variant-east-asian:normal;font-feature-settings:normal;font-variation-settings:normal;text-indent:0;text-align:start;text-decoration:none;text-decoration-line:none;text-decoration-style:solid;text-decoration-color:#000000;letter-spacing:normal;word-spacing:normal;text-transform:none;writing-mode:lr-tb;direction:ltr;text-orientation:mixed;dominant-baseline:auto;baseline-shift:baseline;text-anchor:start;white-space:normal;shape-padding:0;shape-margin:0;inline-size:0;clip-rule:nonzero;display:inline;overflow:visible;visibility:visible;opacity:1;isolation:auto;mix-blend-mode:normal;color-interpolation:sRGB;color-interpolation-filters:linearRGB;solid-color:#000000;solid-opacity:1;vector-effect:none;fill:#b22d5c;fill-opacity:1;fill-rule:nonzero;stroke:none;stroke-width:2.71901;stroke-linecap:round;stroke-linejoin:miter;stroke-miterlimit:4;stroke-dasharray:none;stroke-dashoffset:0;stroke-opacity:1;color-rendering:auto;image-rendering:auto;shape-rendering:auto;text-rendering:auto;enable-background:accumulate;stop-color:#000000;stop-opacity:1"
         d="m 126.57891,114.65084 c -0.56507,-0.005 -1.07449,0.0676 -1.27955,0.59419 -0.006,0.0159 -0.0124,0.032 -0.0181,0.0481 -0.004,0.003 -0.005,0.003 -0.009,0.006 -0.0868,0.0655 -0.19381,-0.1317 -0.34022,0.0713 -0.14395,0.19962 0,0 -0.1987,0.16384 -0.0709,0.22881 -0.0978,-0.0422 0,0.27009 -0.0709,0.22881 -0.0978,-0.0422 0,0.27009 -0.0731,0.23611 -0.10843,0.24526 0.001,0.56909 0.155,0.45846 0.47578,0.68685 0.66938,0.79283 0.1936,0.10597 0.32278,0.13447 0.42752,0.15756 0.20948,0.0462 0.33463,0.0477 0.4486,0.0502 0.22793,0.005 0.40745,-0.014 0.40745,-0.014 0.40429,-0.0362 0.77126,-0.25115 1.00056,-0.58609 0.0171,-0.009 0.0219,-0.005 0.0401,-0.0151 0.1936,-0.10597 0.51539,-0.33336 0.67039,-0.79182 0.10944,-0.32383 0.0741,-0.0611 0.001,-0.29719 0.0982,-0.31273 0.0709,-0.042 0,-0.27109 0.0978,-0.31231 0.0709,-0.0413 0,-0.2701 -0.19871,-0.16283 -0.0548,0.0368 -0.19871,-0.16283 -0.1464,-0.20303 -0.25337,-0.27869 -0.34021,-0.34423 -0.17368,-0.13107 -0.28913,-0.18641 -0.39741,-0.24086 -0.21656,-0.1089 -0.40344,-0.17964 -0.40344,-0.17964 -0.15333,-0.0596 -0.31621,0.18101 -0.48071,0.17957 z"
         id="path1919"
         sodipodi:nodetypes="cccccccccccccccccccsccccc" />
      <path
         id="path1518"
         style="fill:#b22d5c;fill-rule:evenodd;stroke-width:1.11844;stroke-linecap:round;stroke-linejoin:bevel"
         d="m 124.45078,115.79451 c -0.14395,0.21593 -0.53433,-0.24882 -0.76697,-0.13381 -0.23264,0.11503 -0.10032,0.70739 -0.35929,0.69069 -0.25898,-0.0166 -0.0516,-0.58716 -0.26761,-0.73112 -0.21593,-0.14395 -0.66277,0.26681 -0.7778,0.0342 -0.11503,-0.23264 0.48265,-0.33833 0.49935,-0.59731 0.0166,-0.25898 -0.56245,-0.44059 -0.41849,-0.65651 0.14395,-0.21593 0.53433,0.24884 0.76697,0.13381 0.23263,-0.11503 0.10032,-0.70739 0.3593,-0.69068 0.25898,0.0168 0.0516,0.58715 0.26761,0.73111 0.21592,0.14395 0.66276,-0.26681 0.77779,-0.0342 0.11502,0.23263 -0.48266,0.33833 -0.49936,0.5973 -0.0168,0.25899 0.56246,0.44058 0.4185,0.65652 z"
         sodipodi:nodetypes="zzzzzzzzzzzzz" />
      <path
         id="path1521"
         style="fill:#b22d5c;fill-rule:evenodd;stroke-width:1.11844;stroke-linecap:round;stroke-linejoin:bevel"
         d="m 130.57462,115.94003 c -0.14395,0.21594 -0.53433,-0.24882 -0.76697,-0.13381 -0.23264,0.11503 -0.10032,0.70739 -0.3593,0.69069 -0.25898,-0.0166 -0.0516,-0.58716 -0.2676,-0.73112 -0.21593,-0.14394 -0.66277,0.26681 -0.7778,0.0342 -0.11503,-0.23264 0.48265,-0.33833 0.49935,-0.59731 0.0166,-0.25898 -0.56245,-0.44058 -0.41849,-0.65651 0.14395,-0.21593 0.53433,0.24884 0.76697,0.13381 0.23263,-0.11503 0.10032,-0.70739 0.3593,-0.69068 0.25898,0.0168 0.0516,0.58715 0.2676,0.73111 0.21593,0.14395 0.66277,-0.26681 0.7778,-0.0342 0.11502,0.23263 -0.48266,0.33833 -0.49936,0.5973 -0.0168,0.25899 0.56246,0.44058 0.4185,0.65652 z"
         sodipodi:nodetypes="zzzzzzzzzzzzz" />
      <path
         id="path1523"
         style="fill:#b22d5c;fill-rule:evenodd;stroke-width:1.11844;stroke-linecap:round;stroke-linejoin:bevel"
         d="m 124.59277,117.02764 c -0.14395,0.21594 -0.53433,-0.24882 -0.76697,-0.13381 -0.23263,0.11503 -0.10032,0.70739 -0.35929,0.69069 -0.25898,-0.0166 -0.0516,-0.58715 -0.26761,-0.73112 -0.21593,-0.14394 -0.66277,0.26681 -0.7778,0.0342 -0.11502,-0.23264 0.48266,-0.33833 0.49936,-0.59731 0.0166,-0.25898 -0.56246,-0.44058 -0.4185,-0.65651 0.14395,-0.21593 0.53433,0.24884 0.76697,0.13381 0.23264,-0.11503 0.10032,-0.70739 0.3593,-0.69068 0.25898,0.0168 0.0516,0.58715 0.26761,0.73111 0.21592,0.14395 0.66276,-0.26681 0.77779,-0.0342 0.11502,0.23264 -0.48266,0.33833 -0.49935,0.59731 -0.0168,0.25898 0.56245,0.44057 0.41849,0.65651 z"
         sodipodi:nodetypes="zzzzzzzzzzzzz" />
      <path
         id="path2255"
         style="fill:#b22d5c;fill-rule:evenodd;stroke-width:1.11844;stroke-linecap:round;stroke-linejoin:bevel"
         d="m 125.14582,116.45542 c -0.14396,0.21594 -0.53434,-0.24882 -0.76697,-0.13381 -0.23264,0.11503 -0.10032,0.70739 -0.3593,0.69069 -0.25898,-0.0167 -0.0516,-0.58716 -0.2676,-0.73112 -0.21594,-0.14394 -0.66278,0.26681 -0.7778,0.0342 -0.11503,-0.23264 0.48265,-0.33833 0.49935,-0.59731 0.0167,-0.25898 -0.56245,-0.44058 -0.4185,-0.65651 0.14396,-0.21593 0.53434,0.24884 0.76697,0.13381 0.23264,-0.11503 0.10033,-0.70739 0.35931,-0.69068 0.25897,0.0168 0.0516,0.58715 0.2676,0.73111 0.21593,0.14395 0.66277,-0.26681 0.77779,-0.0342 0.11502,0.23264 -0.48265,0.33833 -0.49935,0.59731 -0.0168,0.25898 0.56245,0.44057 0.4185,0.65651 z"
         sodipodi:nodetypes="zzzzzzzzzzzzz" />
      <path
         id="path2257"
         style="fill:#b22d5c;fill-rule:evenodd;stroke-width:1.11844;stroke-linecap:round;stroke-linejoin:bevel"
         d="m 130.03082,117.02764 c -0.14396,0.21594 -0.53434,-0.24882 -0.76698,-0.13381 -0.23263,0.11503 -0.10032,0.70739 -0.35929,0.69069 -0.25898,-0.0166 -0.0516,-0.58715 -0.2676,-0.73112 -0.21594,-0.14394 -0.66278,0.26681 -0.77781,0.0342 -0.11502,-0.23264 0.48266,-0.33833 0.49936,-0.59731 0.0166,-0.25898 -0.56245,-0.44058 -0.4185,-0.65651 0.14395,-0.21593 0.53434,0.24884 0.76697,0.13381 0.23264,-0.11503 0.10033,-0.70739 0.35931,-0.69068 0.25897,0.0168 0.0516,0.58715 0.2676,0.73111 0.21593,0.14395 0.66277,-0.26681 0.77779,-0.0342 0.11502,0.23264 -0.48265,0.33833 -0.49935,0.59731 -0.0168,0.25898 0.56245,0.44057 0.4185,0.65651 z"
         sodipodi:nodetypes="zzzzzzzzzzzzz" />
      <path
         id="path2277"
         style="fill:#b22d5c;fill-rule:evenodd;stroke-width:0.79031;stroke-linecap:round;stroke-linejoin:bevel"
         d="m 123.10189,114.71864 c -0.10172,0.15259 -0.37757,-0.17582 -0.54195,-0.0945 -0.16439,0.0813 -0.0709,0.49985 -0.25389,0.48806 -0.183,-0.0118 -0.0365,-0.4149 -0.18909,-0.51663 -0.15258,-0.10171 -0.46833,0.18854 -0.54961,0.0241 -0.0813,-0.16438 0.34106,-0.23906 0.35286,-0.42207 0.0118,-0.183 -0.39744,-0.31132 -0.29572,-0.4639 0.10172,-0.15257 0.37757,0.17584 0.54195,0.0946 0.16439,-0.0813 0.0709,-0.49986 0.2539,-0.48805 0.18299,0.0118 0.0365,0.41489 0.18908,0.51661 0.15258,0.10172 0.46833,-0.18853 0.54961,-0.0241 0.0813,0.16439 -0.34105,0.23908 -0.35285,0.42207 -0.0118,0.183 0.39743,0.31132 0.29571,0.4639 z"
         sodipodi:nodetypes="zzzzzzzzzzzzz" />
      <path
         id="path2279"
         style="fill:#b22d5c;fill-rule:evenodd;stroke-width:0.79031;stroke-linecap:round;stroke-linejoin:bevel"
         d="m 122.82999,117.16577 c -0.10172,0.15258 -0.37757,-0.17582 -0.54195,-0.0945 -0.16439,0.0813 -0.0709,0.49985 -0.25389,0.48805 -0.183,-0.0118 -0.0365,-0.41489 -0.18909,-0.51662 -0.15258,-0.10171 -0.46833,0.18853 -0.54961,0.0241 -0.0813,-0.16439 0.34106,-0.23906 0.35285,-0.42207 0.0118,-0.183 -0.39743,-0.31132 -0.29572,-0.4639 0.10173,-0.15258 0.37758,0.17584 0.54196,0.0945 0.16438,-0.0813 0.0709,-0.49985 0.25389,-0.48805 0.183,0.0118 0.0365,0.4149 0.18909,0.51662 0.15258,0.10172 0.46833,-0.18853 0.5496,-0.0241 0.0813,0.16438 -0.34105,0.23907 -0.35285,0.42207 -0.0118,0.183 0.39744,0.31132 0.29572,0.4639 z"
         sodipodi:nodetypes="zzzzzzzzzzzzz" />
      <path
         id="path2281"
         style="fill:#b22d5c;fill-rule:evenodd;stroke-width:0.79031;stroke-linecap:round;stroke-linejoin:bevel"
         d="m 131.84551,114.97207 c -0.10172,0.15258 -0.37757,-0.17582 -0.54196,-0.0945 -0.16438,0.0813 -0.0709,0.49985 -0.25388,0.48805 -0.183,-0.0118 -0.0365,-0.41489 -0.18909,-0.51662 -0.15258,-0.10171 -0.46833,0.18853 -0.54961,0.0242 -0.0813,-0.16439 0.34105,-0.23907 0.35285,-0.42207 0.0118,-0.183 -0.39743,-0.31132 -0.29572,-0.4639 0.10173,-0.15258 0.37758,0.17584 0.54196,0.0945 0.16438,-0.0813 0.0709,-0.49985 0.25389,-0.48805 0.183,0.0118 0.0365,0.4149 0.18909,0.51662 0.15258,0.10172 0.46833,-0.18853 0.5496,-0.0242 0.0813,0.16438 -0.34105,0.23907 -0.35285,0.42207 -0.0118,0.183 0.39744,0.31132 0.29572,0.4639 z"
         sodipodi:nodetypes="zzzzzzzzzzzzz" />
      <path
         id="path2283"
         style="fill:#b22d5c;fill-rule:evenodd;stroke-width:0.79031;stroke-linecap:round;stroke-linejoin:bevel"
         d="m 131.30171,117.14729 c -0.10173,0.15259 -0.37758,-0.17582 -0.54196,-0.0945 -0.16438,0.0813 -0.0709,0.49985 -0.25388,0.48806 -0.183,-0.0118 -0.0365,-0.4149 -0.1891,-0.51663 -0.15258,-0.10171 -0.46833,0.18854 -0.5496,0.0242 -0.0813,-0.16438 0.34105,-0.23906 0.35285,-0.42207 0.0118,-0.183 -0.39744,-0.31132 -0.29572,-0.4639 0.10172,-0.15257 0.37757,0.17584 0.54195,0.0946 0.16439,-0.0813 0.0709,-0.49986 0.2539,-0.48805 0.18299,0.0118 0.0365,0.41489 0.18909,0.51661 0.15257,0.10172 0.46832,-0.18853 0.5496,-0.0242 0.0813,0.16438 -0.34105,0.23908 -0.35285,0.42207 -0.0118,0.183 0.39743,0.31132 0.29572,0.4639 z"
         sodipodi:nodetypes="zzzzzzzzzzzzz" />
      <ellipse
         style="fill:#ee6db5;fill-opacity:1;fill-rule:evenodd;stroke:#efa3cd;stroke-width:0.657259;stroke-linecap:round;stroke-linejoin:bevel;stroke-miterlimit:2;stroke-dasharray:none;stroke-opacity:1"
         id="path951"
         cx="126.56454"
         cy="115.15488"
         rx="1.0416163"
         ry="0.70687735" />
      <path
         id="path2321"
         style="fill:#b22d5c;fill-rule:evenodd;stroke-width:0.576311;stroke-linecap:round;stroke-linejoin:bevel"
         d="m 121.05214,114.88913 c -0.0742,0.11127 -0.27533,-0.12822 -0.3952,-0.069 -0.11987,0.0593 -0.0517,0.3645 -0.18514,0.3559 -0.13345,-0.009 -0.0266,-0.30255 -0.13789,-0.37673 -0.11127,-0.0742 -0.34151,0.13748 -0.40078,0.0176 -0.0593,-0.11987 0.2487,-0.17432 0.2573,-0.30778 0.009,-0.13345 -0.28981,-0.22702 -0.21564,-0.33828 0.0742,-0.11126 0.27533,0.12822 0.3952,0.069 0.11987,-0.0593 0.0517,-0.36451 0.18515,-0.3559 0.13344,0.009 0.0266,0.30255 0.13788,0.37673 0.11127,0.0742 0.34151,-0.13748 0.40078,-0.0176 0.0593,0.11987 -0.24869,0.17434 -0.2573,0.30779 -0.009,0.13344 0.28982,0.22702 0.21564,0.33828 z"
         sodipodi:nodetypes="zzzzzzzzzzzzz" />
      <path
         id="path2323"
         style="fill:#b22d5c;fill-rule:evenodd;stroke-width:0.576311;stroke-linecap:round;stroke-linejoin:bevel"
         d="m 121.67334,116.05344 c -0.0742,0.11127 -0.27533,-0.12822 -0.39521,-0.069 -0.11987,0.0593 -0.0517,0.3645 -0.18513,0.3559 -0.13345,-0.009 -0.0266,-0.30255 -0.13789,-0.37674 -0.11127,-0.0742 -0.34152,0.13748 -0.40079,0.0176 -0.0593,-0.11987 0.2487,-0.17433 0.2573,-0.30778 0.009,-0.13345 -0.28981,-0.22702 -0.21564,-0.33829 0.0742,-0.11126 0.27534,0.12823 0.39521,0.069 0.11987,-0.0593 0.0517,-0.36451 0.18514,-0.3559 0.13345,0.009 0.0266,0.30255 0.13789,0.37672 0.11126,0.0742 0.34151,-0.13747 0.40078,-0.0176 0.0593,0.11987 -0.2487,0.17433 -0.25731,0.30778 -0.009,0.13345 0.28982,0.22702 0.21565,0.33829 z"
         sodipodi:nodetypes="zzzzzzzzzzzzz" />
      <path
         id="path2325"
         style="fill:#b22d5c;fill-rule:evenodd;stroke-width:0.576311;stroke-linecap:round;stroke-linejoin:bevel"
         d="m 121.02303,117.55779 c -0.0742,0.11127 -0.27533,-0.12821 -0.3952,-0.069 -0.11987,0.0593 -0.0517,0.36451 -0.18513,0.35591 -0.13346,-0.009 -0.0266,-0.30256 -0.1379,-0.37674 -0.11127,-0.0742 -0.34151,0.13748 -0.40078,0.0176 -0.0593,-0.11987 0.2487,-0.17433 0.2573,-0.30778 0.009,-0.13345 -0.28981,-0.22703 -0.21564,-0.33829 0.0742,-0.11126 0.27533,0.12822 0.39521,0.069 0.11987,-0.0593 0.0517,-0.36451 0.18514,-0.35589 0.13344,0.009 0.0266,0.30254 0.13788,0.37672 0.11127,0.0742 0.34152,-0.13748 0.40079,-0.0176 0.0593,0.11987 -0.2487,0.17433 -0.25731,0.30778 -0.009,0.13345 0.28982,0.22702 0.21564,0.33828 z"
         sodipodi:nodetypes="zzzzzzzzzzzzz" />
      <path
         id="path2327"
         style="fill:#b22d5c;fill-rule:evenodd;stroke-width:0.576311;stroke-linecap:round;stroke-linejoin:bevel"
         d="m 132.70792,116.31541 c -0.0742,0.11127 -0.27533,-0.12822 -0.39521,-0.069 -0.11987,0.0593 -0.0517,0.3645 -0.18513,0.3559 -0.13345,-0.009 -0.0266,-0.30255 -0.13789,-0.37673 -0.11127,-0.0742 -0.34152,0.13748 -0.40079,0.0176 -0.0593,-0.11987 0.2487,-0.17433 0.2573,-0.30778 0.009,-0.13345 -0.28981,-0.22702 -0.21564,-0.33829 0.0742,-0.11126 0.27534,0.12823 0.39521,0.069 0.11987,-0.0593 0.0517,-0.36451 0.18514,-0.3559 0.13345,0.009 0.0266,0.30255 0.13789,0.37672 0.11126,0.0742 0.34151,-0.13747 0.40078,-0.0176 0.0593,0.11987 -0.2487,0.17434 -0.25731,0.30778 -0.009,0.13345 0.28982,0.22702 0.21565,0.33829 z"
         sodipodi:nodetypes="zzzzzzzzzzzzz" />
      <path
         id="path2329"
         style="fill:#b22d5c;fill-rule:evenodd;stroke-width:0.576311;stroke-linecap:round;stroke-linejoin:bevel"
         d="m 133.07638,115.18021 c -0.0742,0.11127 -0.27533,-0.12822 -0.3952,-0.069 -0.11987,0.0593 -0.0517,0.3645 -0.18514,0.3559 -0.13345,-0.009 -0.0266,-0.30255 -0.13789,-0.37673 -0.11127,-0.0742 -0.34151,0.13748 -0.40078,0.0176 -0.0593,-0.11987 0.2487,-0.17432 0.2573,-0.30778 0.009,-0.13345 -0.28981,-0.22702 -0.21564,-0.33829 0.0742,-0.11126 0.27533,0.12823 0.3952,0.069 0.11988,-0.0593 0.0517,-0.36451 0.18515,-0.3559 0.13344,0.009 0.0266,0.30255 0.13788,0.37673 0.11127,0.0742 0.34151,-0.13748 0.40078,-0.0176 0.0593,0.11987 -0.24869,0.17434 -0.2573,0.30778 -0.009,0.13345 0.28982,0.22702 0.21564,0.33829 z"
         sodipodi:nodetypes="zzzzzzzzzzzzz" />
      <path
         id="path2331"
         style="fill:#b22d5c;fill-rule:evenodd;stroke-width:0.576311;stroke-linecap:round;stroke-linejoin:bevel"
         d="m 132.95995,117.48964 c -0.0742,0.11127 -0.27533,-0.12821 -0.39521,-0.069 -0.11987,0.0593 -0.0517,0.36451 -0.18513,0.35591 -0.13345,-0.009 -0.0266,-0.30256 -0.13789,-0.37674 -0.11127,-0.0742 -0.34152,0.13748 -0.40079,0.0176 -0.0593,-0.11987 0.24871,-0.17433 0.25731,-0.30778 0.009,-0.13345 -0.28982,-0.22703 -0.21565,-0.33829 0.0742,-0.11126 0.27534,0.12823 0.39521,0.069 0.11987,-0.0593 0.0517,-0.36452 0.18514,-0.3559 0.13345,0.009 0.0266,0.30254 0.13789,0.37672 0.11126,0.0742 0.34151,-0.13747 0.40078,-0.0176 0.0593,0.11987 -0.2487,0.17433 -0.2573,0.30778 -0.009,0.13345 0.28982,0.22702 0.21564,0.33828 z"
         sodipodi:nodetypes="zzzzzzzzzzzzz" />
    </g>
  </g>
</svg>
