<?xml version="1.0" encoding="UTF-8" standalone="no"?>
<svg
   xmlns:dc="http://purl.org/dc/elements/1.1/"
   xmlns:cc="http://creativecommons.org/ns#"
   xmlns:rdf="http://www.w3.org/1999/02/22-rdf-syntax-ns#"
   xmlns:svg="http://www.w3.org/2000/svg"
   xmlns="http://www.w3.org/2000/svg"
   xmlns:sodipodi="http://sodipodi.sourceforge.net/DTD/sodipodi-0.dtd"
   xmlns:inkscape="http://www.inkscape.org/namespaces/inkscape"
   width="50"
   height="50"
   viewBox="0 0 13.229166 13.229167"
   version="1.1"
   id="svg8"
   inkscape:version="1.0.1 (c497b03c, 2020-09-10)"
   sodipodi:docname="crush06.svg">
  <defs
     id="defs2">
    <inkscape:path-effect
       effect="bend_path"
       id="path-effect1021"
       is_visible="true"
       lpeversion="1"
       bendpath="m 109.03005,114.67964 c 0,0 6.65776,0 9.98663,0 3.32888,0 9.98664,0 9.98664,0"
       prop_scale="0.97821853"
       scale_y_rel="false"
       vertical="true"
       hide_knot="false"
       bendpath-nodetypes="czc" />
    <inkscape:path-effect
       effect="bend_path"
       id="path-effect984"
       is_visible="true"
       lpeversion="1"
       bendpath="m 109.03005,114.67964 h 19.6388"
       prop_scale="1.0993646"
       scale_y_rel="false"
       vertical="true"
       hide_knot="false"
       bendpath-nodetypes="cc" />
  </defs>
  <sodipodi:namedview
     id="base"
     pagecolor="#ffffff"
     bordercolor="#666666"
     borderopacity="1.0"
     inkscape:pageopacity="0.0"
     inkscape:pageshadow="2"
     inkscape:zoom="4.6706131"
     inkscape:cx="22.909284"
     inkscape:cy="41.899537"
     inkscape:document-units="mm"
     inkscape:current-layer="g1366"
     inkscape:document-rotation="0"
     showgrid="false"
     fit-margin-top="0"
     fit-margin-left="0"
     fit-margin-right="0"
     fit-margin-bottom="0"
     inkscape:window-width="1440"
     inkscape:window-height="697"
     inkscape:window-x="0"
     inkscape:window-y="25"
     inkscape:window-maximized="0"
     units="px" />
  <metadata
     id="metadata5">
    <rdf:RDF>
      <cc:Work
         rdf:about="">
        <dc:format>image/svg+xml</dc:format>
        <dc:type
           rdf:resource="http://purl.org/dc/dcmitype/StillImage" />
        <dc:title></dc:title>
      </cc:Work>
    </rdf:RDF>
  </metadata>
  <g
     inkscape:label="レイヤー 1"
     inkscape:groupmode="layer"
     id="layer1"
     transform="translate(-119.89645,-104.61571)">
    <g
       id="g1366">
      <path
         style="color:#000000;font-style:normal;font-variant:normal;font-weight:normal;font-stretch:normal;font-size:medium;line-height:normal;font-family:sans-serif;font-variant-ligatures:normal;font-variant-position:normal;font-variant-caps:normal;font-variant-numeric:normal;font-variant-alternates:normal;font-variant-east-asian:normal;font-feature-settings:normal;font-variation-settings:normal;text-indent:0;text-align:start;text-decoration:none;text-decoration-line:none;text-decoration-style:solid;text-decoration-color:#000000;letter-spacing:normal;word-spacing:normal;text-transform:none;writing-mode:lr-tb;direction:ltr;text-orientation:mixed;dominant-baseline:auto;baseline-shift:baseline;text-anchor:start;white-space:normal;shape-padding:0;shape-margin:0;inline-size:0;clip-rule:nonzero;display:inline;overflow:visible;visibility:visible;opacity:1;isolation:auto;mix-blend-mode:normal;color-interpolation:sRGB;color-interpolation-filters:linearRGB;solid-color:#000000;solid-opacity:1;vector-effect:none;fill:#b22d5c;fill-opacity:1;fill-rule:nonzero;stroke:none;stroke-width:3.99824;stroke-linecap:round;stroke-linejoin:miter;stroke-miterlimit:4;stroke-dasharray:none;stroke-dashoffset:0;stroke-opacity:1;color-rendering:auto;image-rendering:auto;shape-rendering:auto;text-rendering:auto;enable-background:accumulate;stop-color:#000000;stop-opacity:1"
         d="m 126.48142,111.4428 c -0.83091,-0.008 -1.58,0.0994 -1.88155,0.87374 -0.009,0.0234 -0.0182,0.047 -0.0266,0.0708 -0.006,0.005 -0.008,0.005 -0.0133,0.009 -0.12769,0.0964 -0.28497,0.20616 -0.50027,0.5047 -0.21168,0.29354 -0.55243,-0.18807 -0.29218,0.64075 -0.1042,0.33647 -0.1438,-0.0621 0,0.39716 -0.10421,0.33646 -0.14379,0.73758 0,1.19682 -0.10753,0.34719 -0.15944,0.76047 0.002,1.23666 0.22792,0.67414 0.69963,1.00999 0.9843,1.16582 0.28469,0.15583 0.47465,0.19774 0.62866,0.23169 0.30803,0.0679 0.49207,0.0702 0.65965,0.0738 0.33517,0.007 0.59915,-0.0206 0.59915,-0.0206 0.5945,-0.0532 1.13412,-0.36931 1.4713,-0.86182 0.0252,-0.0128 0.0322,-0.008 0.059,-0.0221 0.28469,-0.15583 0.75786,-0.4902 0.98579,-1.16435 0.16093,-0.47618 0.10899,-0.88945 0.002,-1.23666 0.1444,-0.45987 0.10432,-0.86145 0,-1.19829 0.14378,-0.45924 0.10419,-0.0607 0,-0.39716 0.26022,-0.8288 -0.0805,-0.34575 -0.2922,-0.63928 -0.21528,-0.29854 -0.37257,-0.4098 -0.50027,-0.50617 -0.25539,-0.19274 -0.42516,-0.27411 -0.58438,-0.35417 -0.31845,-0.16015 -0.59324,-0.26416 -0.59324,-0.26416 -0.22547,-0.0877 -0.46498,0.26617 -0.70688,0.26405 z"
         id="path1919"
         sodipodi:nodetypes="cccccccccccccccccccsccccc" />
      <path
         id="path1518"
         style="fill:#b22d5c;fill-rule:evenodd;stroke-width:1.64464;stroke-linecap:round;stroke-linejoin:bevel"
         d="m 124.55154,114.72384 c -0.21168,0.31753 -0.78572,-0.36589 -1.12781,-0.19676 -0.34208,0.16915 -0.14752,1.04019 -0.52833,1.01564 -0.38083,-0.0245 -0.0759,-0.8634 -0.3935,-1.0751 -0.31753,-0.21166 -0.9746,0.39234 -1.14374,0.0502 -0.16915,-0.34209 0.70973,-0.4975 0.73428,-0.87833 0.0245,-0.38082 -0.82707,-0.64787 -0.61539,-0.96538 0.21168,-0.31751 0.78573,0.36592 1.12781,0.19677 0.34209,-0.16915 0.14753,-1.04021 0.52835,-1.01564 0.38082,0.0246 0.0759,0.8634 0.39351,1.07508 0.31751,0.21168 0.97458,-0.39233 1.14372,-0.0502 0.16913,0.34208 -0.70973,0.49751 -0.73429,0.87832 -0.0246,0.38083 0.82707,0.64786 0.61539,0.96539 z"
         sodipodi:nodetypes="zzzzzzzzzzzzz" />
      <path
         id="path1521"
         style="fill:#b22d5c;fill-rule:evenodd;stroke-width:1.64464;stroke-linecap:round;stroke-linejoin:bevel"
         d="m 131.55736,115.33765 c -0.21169,0.31753 -0.78573,-0.36589 -1.12782,-0.19676 -0.34208,0.16915 -0.14751,1.0402 -0.52833,1.01564 -0.38082,-0.0245 -0.0759,-0.8634 -0.3935,-1.0751 -0.31753,-0.21166 -0.9746,0.39234 -1.14374,0.0502 -0.16914,-0.34208 0.70973,-0.4975 0.73429,-0.87833 0.0245,-0.38082 -0.82708,-0.64786 -0.61539,-0.96538 0.21168,-0.31751 0.78572,0.36592 1.12781,0.19677 0.34208,-0.16915 0.14752,-1.04021 0.52835,-1.01563 0.38081,0.0246 0.0759,0.86339 0.3935,1.07508 0.31751,0.21167 0.97458,-0.39234 1.14372,-0.0502 0.16914,0.34209 -0.70973,0.49751 -0.73429,0.87832 -0.0246,0.38083 0.82708,0.64786 0.6154,0.96539 z"
         sodipodi:nodetypes="zzzzzzzzzzzzz" />
      <path
         id="path1523"
         style="fill:#b22d5c;fill-rule:evenodd;stroke-width:1.64464;stroke-linecap:round;stroke-linejoin:bevel"
         d="m 124.76034,116.93695 c -0.21168,0.31753 -0.78573,-0.36588 -1.12781,-0.19676 -0.34209,0.16915 -0.14752,1.0402 -0.52834,1.01564 -0.38082,-0.0245 -0.0759,-0.8634 -0.3935,-1.07509 -0.31753,-0.21167 -0.9746,0.39234 -1.14374,0.0502 -0.16914,-0.34208 0.70973,-0.49749 0.73429,-0.87833 0.0245,-0.38082 -0.82707,-0.64786 -0.61539,-0.96537 0.21168,-0.31752 0.78572,0.36591 1.12781,0.19676 0.34208,-0.16915 0.14752,-1.0402 0.52835,-1.01563 0.38081,0.0246 0.0759,0.86339 0.3935,1.07508 0.31751,0.21167 0.97458,-0.39234 1.14372,-0.0503 0.16914,0.34209 -0.70973,0.49751 -0.73428,0.87833 -0.0246,0.38083 0.82707,0.64785 0.61539,0.96538 z"
         sodipodi:nodetypes="zzzzzzzzzzzzz" />
      <path
         id="path2255"
         style="fill:#b22d5c;fill-rule:evenodd;stroke-width:1.64464;stroke-linecap:round;stroke-linejoin:bevel"
         d="m 125.57357,115.69569 c -0.21168,0.31753 -0.78572,-0.36588 -1.12781,-0.19676 -0.34208,0.16915 -0.14752,1.0402 -0.52833,1.01564 -0.38082,-0.0245 -0.0759,-0.8634 -0.3935,-1.07509 -0.31753,-0.21167 -0.9746,0.39234 -1.14374,0.0502 -0.16914,-0.34208 0.70973,-0.4975 0.73429,-0.87833 0.0245,-0.38082 -0.82708,-0.64786 -0.6154,-0.96538 0.21169,-0.31751 0.78573,0.36592 1.12782,0.19677 0.34208,-0.16915 0.14752,-1.0402 0.52835,-1.01563 0.38081,0.0246 0.0759,0.86339 0.3935,1.07508 0.31751,0.21167 0.97458,-0.39234 1.14372,-0.0502 0.16914,0.34209 -0.70973,0.49751 -0.73429,0.87833 -0.0246,0.38083 0.82708,0.64785 0.61539,0.96538 z"
         sodipodi:nodetypes="zzzzzzzzzzzzz" />
      <path
         id="path2257"
         style="fill:#b22d5c;fill-rule:evenodd;stroke-width:1.64464;stroke-linecap:round;stroke-linejoin:bevel"
         d="m 130.7577,116.53713 c -0.21168,0.31753 -0.78572,-0.36589 -1.12781,-0.19676 -0.34208,0.16915 -0.14752,1.04019 -0.52833,1.01564 -0.38083,-0.0245 -0.0759,-0.8634 -0.3935,-1.0751 -0.31753,-0.21166 -0.9746,0.39234 -1.14374,0.0503 -0.16915,-0.34209 0.70973,-0.4975 0.73428,-0.87833 0.0245,-0.38082 -0.82707,-0.64787 -0.61539,-0.96538 0.21168,-0.31751 0.78573,0.36592 1.12782,0.19677 0.34208,-0.16915 0.14752,-1.04021 0.52834,-1.01564 0.38082,0.0246 0.0759,0.8634 0.39351,1.07508 0.31751,0.21168 0.97458,-0.39233 1.14372,-0.0502 0.16913,0.34208 -0.70973,0.4975 -0.73429,0.87832 -0.0246,0.38083 0.82707,0.64786 0.61539,0.96539 z"
         sodipodi:nodetypes="zzzzzzzzzzzzz" />
      <path
         id="path2277"
         style="fill:#b22d5c;fill-rule:evenodd;stroke-width:1.16213;stroke-linecap:round;stroke-linejoin:bevel"
         d="m 122.56804,113.54163 c -0.14958,0.22438 -0.55521,-0.25854 -0.79693,-0.13903 -0.24173,0.11952 -0.10424,0.73502 -0.37333,0.71767 -0.2691,-0.0173 -0.0537,-0.61009 -0.27806,-0.75968 -0.22437,-0.14957 -0.68867,0.27723 -0.80818,0.0355 -0.11952,-0.24172 0.50151,-0.35154 0.51886,-0.62064 0.0173,-0.2691 -0.58442,-0.45779 -0.43485,-0.68215 0.14958,-0.22436 0.55521,0.25856 0.79693,0.13904 0.24172,-0.11953 0.10425,-0.73503 0.37334,-0.71767 0.26909,0.0174 0.0536,0.61009 0.27806,0.75967 0.22435,0.14957 0.68865,-0.27723 0.80817,-0.0355 0.11952,0.24172 -0.5015,0.35155 -0.51886,0.62064 -0.0174,0.2691 0.58442,0.45779 0.43485,0.68215 z"
         sodipodi:nodetypes="zzzzzzzzzzzzz" />
      <path
         id="path2279"
         style="fill:#b22d5c;fill-rule:evenodd;stroke-width:1.16213;stroke-linecap:round;stroke-linejoin:bevel"
         d="m 122.16821,116.34041 c -0.14958,0.22438 -0.55521,-0.25854 -0.79693,-0.13903 -0.24172,0.11952 -0.10424,0.73502 -0.37333,0.71767 -0.26909,-0.0173 -0.0536,-0.61009 -0.27806,-0.75968 -0.22436,-0.14956 -0.68866,0.27724 -0.80818,0.0355 -0.11951,-0.24172 0.50151,-0.35153 0.51886,-0.62064 0.0173,-0.2691 -0.58442,-0.45779 -0.43485,-0.68215 0.14958,-0.22436 0.55521,0.25856 0.79694,0.13904 0.24172,-0.11953 0.10424,-0.73503 0.37334,-0.71767 0.26909,0.0174 0.0536,0.61009 0.27805,0.75967 0.22436,0.14957 0.68866,-0.27723 0.80817,-0.0355 0.11952,0.24172 -0.5015,0.35155 -0.51885,0.62064 -0.0174,0.2691 0.58442,0.45779 0.43484,0.68215 z"
         sodipodi:nodetypes="zzzzzzzzzzzzz" />
      <path
         id="path2281"
         style="fill:#b22d5c;fill-rule:evenodd;stroke-width:1.16213;stroke-linecap:round;stroke-linejoin:bevel"
         d="m 133.02634,113.91429 c -0.14958,0.22437 -0.55521,-0.25854 -0.79693,-0.13903 -0.24173,0.11952 -0.10424,0.73502 -0.37333,0.71767 -0.2691,-0.0173 -0.0537,-0.6101 -0.27806,-0.75968 -0.22437,-0.14957 -0.68867,0.27723 -0.80818,0.0355 -0.11952,-0.24173 0.50151,-0.35154 0.51886,-0.62064 0.0173,-0.2691 -0.58442,-0.4578 -0.43485,-0.68216 0.14958,-0.22436 0.55521,0.25857 0.79693,0.13904 0.24172,-0.11952 0.10425,-0.73502 0.37334,-0.71766 0.26909,0.0174 0.0537,0.61008 0.27806,0.75967 0.22435,0.14957 0.68865,-0.27723 0.80817,-0.0355 0.11952,0.24173 -0.5015,0.35156 -0.51886,0.62064 -0.0174,0.2691 0.58442,0.45779 0.43485,0.68216 z"
         sodipodi:nodetypes="zzzzzzzzzzzzz" />
      <path
         id="path2283"
         style="fill:#b22d5c;fill-rule:evenodd;stroke-width:1.16213;stroke-linecap:round;stroke-linejoin:bevel"
         d="m 132.62651,116.71307 c -0.14958,0.22437 -0.55521,-0.25854 -0.79693,-0.13903 -0.24172,0.11952 -0.10424,0.73502 -0.37333,0.71767 -0.26909,-0.0173 -0.0536,-0.6101 -0.27806,-0.75968 -0.22436,-0.14957 -0.68866,0.27723 -0.80818,0.0355 -0.11951,-0.24172 0.50151,-0.35154 0.51886,-0.62064 0.0173,-0.2691 -0.58442,-0.4578 -0.43485,-0.68216 0.14958,-0.22436 0.55521,0.25857 0.79694,0.13904 0.24172,-0.11952 0.10424,-0.73502 0.37334,-0.71766 0.26909,0.0174 0.0536,0.61009 0.27805,0.75967 0.22436,0.14957 0.68866,-0.27723 0.80817,-0.0355 0.11952,0.24173 -0.5015,0.35156 -0.51885,0.62065 -0.0174,0.26909 0.58442,0.45778 0.43484,0.68215 z"
         sodipodi:nodetypes="zzzzzzzzzzzzz" />
      <ellipse
         style="fill:#ee6db5;fill-opacity:1;fill-rule:evenodd;stroke:#efa3cd;stroke-width:0.966482;stroke-linecap:round;stroke-linejoin:bevel;stroke-miterlimit:2;stroke-dasharray:none;stroke-opacity:1"
         id="path951"
         cx="126.46028"
         cy="112.58379"
         rx="1.531669"
         ry="1.0394442" />
    </g>
  </g>
</svg>
